<!-- by TradingView --><svg width="18" height="18" viewBox="0 0 18 18" xmlns="http://www.w3.org/2000/svg"><path fill="#181B1E" d="M0 0h18v18H0z"/><path d="M8.5 3.44A1.5 1.5 0 0 0 7.44 3a1.53 1.53 0 0 0-1.46 2 1.65 1.65 0 0 0-2.2 1.55c0 .28.07.54.19.78-.58.31-.97.93-.97 1.64 0 .72.4 1.35 1 1.65-.14.25-.22.53-.22.83a1.65 1.65 0 0 0 2.2 1.56c-.04.14-.06.29-.06.44 0 .86.68 1.55 1.52 1.55.41 0 .79-.17 1.06-.44V13h-1a.5.5 0 0 1 0-1h1V9.5H8V11H5.5a.5.5 0 0 1 0-1H7V8H5.5a.5.5 0 0 1 0-1H8v1.5h.5V6h-1a.5.5 0 0 1 0-1h1V3.44Z" fill="#D3D2D3"/><path d="M9.5 3.44A1.5 1.5 0 0 1 10.56 3a1.53 1.53 0 0 1 1.46 2c.18-.08.37-.11.57-.11.9 0 1.63.74 1.63 1.66 0 .28-.07.54-.19.78.58.31.97.93.97 1.64 0 .72-.4 1.35-1 1.65.14.25.22.53.22.83a1.65 1.65 0 0 1-2.2 1.56c.04.14.06.29.06.44 0 .86-.68 1.55-1.52 1.55a1.5 1.5 0 0 1-1.06-.44V13h1a.5.5 0 0 0 0-1h-1V9.5h.5V11h2.5a.5.5 0 0 0 0-1H11V8h1.5a.5.5 0 0 0 0-1H10v1.5h-.5V6h1a.5.5 0 0 0 0-1h-1V3.44Z" fill="#00CBC4"/></svg>