<!-- by TradingView --><svg width="18" height="18" viewBox="0 0 18 18" xmlns="http://www.w3.org/2000/svg"><path fill="#F7991C" d="M0 0h18v18H0z"/><path d="M15.3 10.4v-.08a1 1 0 0 0-.74-1.09.9.9 0 0 0-.82.24c-.29.26-.56.54-.83.82-.53.55-1.03 1.34-1.77 1.61a1.73 1.73 0 0 1-2.16-1.04c-.04-.1-.04-.12.04-.2l.55-.5.02-.02c.02-.02.04-.05.07-.04.03.02 0 .05.01.08.02.46.36.87.81.93.45.07.9-.22 1.03-.68a1 1 0 0 0-.62-1.25c-.61-.21-1.06.36-1.46.74l-.4.38a.32.32 0 0 0-.1.18c-.17.9-.98 1.61-1.89 1.5a1.77 1.77 0 0 1-1.47-1.17.1.1 0 0 1 0-.07.1.1 0 0 1 .03-.06l.2-.17.4-.36c.01-.02.04-.06.06-.05.03.02.02.06.02.09.02.45.32.86.76.96.49.11.97-.22 1.1-.71.17-.67-.32-1.32-.97-1.29-.44.02-.77.43-1.07.72-.19.17-.34.34-.52.51a.23.23 0 0 0-.08.18v1.3c0 .11-.04.14-.16.14a.75.75 0 0 1-.57-.28c-.06-.07-.07-.07-.14-.02-.28.16-.58.25-.9.24A1.84 1.84 0 0 1 2 10.07c0-.84.6-1.67 1.42-1.81.76-.13 1.45.2 1.84.87.01.03.04.06.07.08.02-.02.16-.04.17-.06v-3c0-.14.02-.15.15-.15.19 0 .37.07.5.2.15.14.33.3.35.5 0-.05 0 .04 0 0v1.72c0 .07.04.1.09.04a.82.82 0 0 1 .37-.16 1.73 1.73 0 0 1 1.72.82c.02.03.04.07.07.07.02 0 .25-.06.25-.1V6.86c0-.44.35-.76.75-.84A.51.51 0 0 1 9.9 6c.06 0 .08.03.1.09V8.45c.01.03.02.05.06.03l.14-.06c.92-.4 1.73.18 2.06 1.09l.01.05c.03.08.04.08.1.03.47-.45.94-1.03 1.58-1.2.41-.1.85-.04 1.22.17.38.2.67.55.82.97a.18.18 0 0 1-.04.2l-.58.63a.18.18 0 0 1-.05.04Z" fill="#191C31"/><path d="M14.54 11.24v.03l-.03.02-.62.67a.11.11 0 0 1-.14.03c-.48-.2-.82-.54-1.02-1.05-.04-.08-.03-.1.03-.15a102.06 102.06 0 0 1 .65-.59c.02.02.01.05.02.07 0 .14.04.28.1.41a.93.93 0 0 0 .83.56h.18Z" fill="#191C31"/><path d="M4.7 10.1c.02.53-.41 1-.93 1a.92.92 0 0 1-.67-.29 1.03 1.03 0 0 1-.28-.7c0-.55.4-1.01.95-1.02.5-.02.94.43.93 1Z" fill="#FF9C00"/></svg>