<!-- by TradingView --><svg width="18" height="18" xmlns="http://www.w3.org/2000/svg"><path fill="#3A2674" d="M0 0h18v18H0z"/><path d="M10.705 6.065c.028-.998-.462-1.777-1.15-2.452a.169.169 0 01-.046-.21.16.16 0 01.179 0 3.027 3.027 0 011.338 1.078c.332.481.517 1.048.532 1.631a3.247 3.247 0 00-.012.114c-.037.388-.133 1.388-.728 1.888a.397.397 0 01-.532-.108.378.378 0 01-.033-.422c.284-.457.44-.981.452-1.519zm-2.967 7.412c.229.33.489.635.777.915.07.07.07.14.033.173-.033.038-.104.07-.142.038a3.142 3.142 0 01-1.766-1.97c-.25-.867-.07-2.151.636-2.742a.397.397 0 01.532.108.327.327 0 010 .422 2.995 2.995 0 00-.07 3.056zm3.085-3.816c.432.518.69 1.157.74 1.829v.004a3.064 3.064 0 01-.462 1.866 4.449 4.449 0 01-1.343 1.229.136.136 0 01-.212-.033.126.126 0 01.033-.178c.437-.337.788-.77 1.027-1.266.213-.473.274-1 .175-1.51a2.106 2.106 0 00-.67-1.266 7.483 7.483 0 00-1.342-.914 6.095 6.095 0 01-1.517-1.088 3.356 3.356 0 01-.565-.843 3.106 3.106 0 01-.25-.985c-.054-.67.122-1.34.5-1.899.331-.524.81-.94 1.375-1.195a.142.142 0 01.175-.01c.065.047.065.164 0 .22a3.87 3.87 0 00-.99 1.3 2.52 2.52 0 00-.174 1.439c.095.468.33.896.674 1.228.414.36.864.677 1.342.947.55.298 1.05.677 1.484 1.125z" fill="#fff"/></svg>