<!-- by TradingView --><svg xmlns="http://www.w3.org/2000/svg" width="18" height="18"><path fill="#30BFBD" d="M0 0h18v18H0z"/><path fill-rule="evenodd" d="M6.7 5h.77v2.54a2 2 0 011.33-.5c1.15 0 2.1 1 2.1 2.23l-.02.2h.01v2.03h-.76V9.27c0-.79-.6-1.43-1.33-1.43-.74 0-1.33.64-1.33 1.43v2.23H6.7V5zm-1.28 6c-.36.31-.82.5-1.33.5C2.94 11.5 2 10.53 2 9.33s.94-2.16 2.1-2.16c1.08 0 1.98.86 2.08 1.97v2.36h-.76V11zm0-1.67c0 .76-.6 1.38-1.33 1.38-.73 0-1.33-.62-1.33-1.38 0-.76.6-1.38 1.33-1.38.74 0 1.33.62 1.33 1.38zM14.84 11c-.36.31-.83.5-1.33.5-1.16 0-2.1-.97-2.1-2.17s.94-2.16 2.1-2.16a2.13 2.13 0 012.08 2.36v1.97h-.75V11zm0-1.67c0 .76-.6 1.38-1.33 1.38-.74 0-1.33-.62-1.33-1.38 0-.76.6-1.38 1.33-1.38.73 0 1.33.62 1.33 1.38z" fill="#FDFFFF"/></svg>