<!-- by TradingView --><svg width="18" height="18" viewBox="0 0 18 18" fill="none" xmlns="http://www.w3.org/2000/svg">
<rect width="18" height="18" fill="#F0F3FA"/>
<path fill-rule="evenodd" clip-rule="evenodd" d="M9 3.19983C10.1867 3.19983 11.3467 3.54584 12.3334 4.19412C13.3201 4.84239 14.0891 5.7638 14.5433 6.84184C14.9974 7.91988 15.1162 9.10612 14.8847 10.2506C14.6532 11.395 14.0818 12.4462 13.2426 13.2713C12.4035 14.0964 11.3344 14.6583 10.1705 14.886C9.00665 15.1136 7.80026 14.9968 6.7039 14.5502C5.60754 14.1037 4.67047 13.3475 4.01118 12.3773C3.35189 11.4071 3 10.2664 3 9.09958C3 7.53487 3.63214 6.03424 4.75736 4.92783C5.88258 3.82141 7.4087 3.19983 9 3.19983Z" fill="url(#paint0_linear_2355_47721)"/>
<path d="M6.2407 9.35813C5.25686 9.28288 4.82871 8.73559 4.73761 8.47134L5.69412 8.69976C5.98563 8.67736 6.5905 8.6272 6.67796 8.6057C6.78727 8.57883 8.08539 8.95504 8.29036 9.02222C8.45433 9.07597 9.00546 10.021 9.26053 10.4868L8.75495 12.5828L6.96491 13.0531L5.78977 12.744C7.64813 12.6365 8.08539 11.7229 8.08539 10.9167C8.08539 10.1105 7.47049 9.45218 6.2407 9.35813Z" fill="url(#paint1_linear_2355_47721)"/>
<path fill-rule="evenodd" clip-rule="evenodd" d="M10.5055 3.83435C9.5565 3.4773 9.43774 2.31002 8.88808 2C8.88808 2 8.89649 3.60079 8.58067 4.23893L9.40726 4.34795L10.3305 4.13455L10.5055 3.83435Z" fill="url(#paint2_linear_2355_47721)"/>
<path fill-rule="evenodd" clip-rule="evenodd" d="M11.9422 3.95784C12.7695 4.41566 13.4746 5.05997 13.9994 5.83782C14.5242 6.61568 14.8539 7.50488 14.9613 8.43236C15.0686 9.35985 14.9507 10.2992 14.6171 11.1731C14.2835 12.047 13.7438 12.8307 13.0423 13.4596C12.3408 14.0886 11.4975 14.5449 10.5818 14.7911C9.66606 15.0373 8.70399 15.0663 7.77463 14.8758C6.84527 14.6853 5.97515 14.2807 5.23574 13.6952C4.49634 13.1098 3.90876 12.3601 3.52129 11.5079C5.16763 13.304 8.22859 13.2291 8.60799 11.447C8.98739 9.66486 7.59328 8.94044 6.22071 8.90685C4.73884 8.87068 4.15134 8.07599 4.06622 6.76355L6.52654 5.92132C7.12927 5.71464 7.33158 4.99125 8.00158 4.46421C8.15555 4.3433 8.33947 4.29577 8.55387 4.20586C8.76826 4.11595 9.07199 4.10252 9.36101 4.05653C9.83395 3.98368 10.206 3.83693 10.5954 3.83848C11.047 3.83883 11.4978 3.87877 11.9422 3.95784Z" fill="#EDE7F6"/>
<path fill-rule="evenodd" clip-rule="evenodd" d="M4.69995 13.2136C4.2086 12.7174 3.80965 12.1403 3.52129 11.5085C5.16763 13.3045 8.22859 13.2296 8.60799 11.4475C8.98739 9.66538 7.59328 8.94095 6.22071 8.90737C5.3216 8.88515 4.74935 8.58391 4.42302 8.05739L4.46138 7.98557C4.64479 8.23783 4.90387 8.42736 5.20232 8.52759C5.69207 8.68622 7.06937 7.99177 7.66001 8.1659C7.66001 8.1659 9.70258 8.19845 10.1329 10.0746C10.8949 13.3929 6.7835 15.3181 4.69995 13.2136Z" fill="url(#paint3_linear_2355_47721)"/>
<path fill-rule="evenodd" clip-rule="evenodd" d="M4.59064 8.28164C4.26694 7.91633 4.10667 7.40324 4.06516 6.76356L4.91381 6.47266C4.91381 6.47266 5.17656 7.16659 4.44088 7.46732C4.57645 8.14317 4.99684 8.43407 5.47714 8.42219C6.19075 8.40462 6.89595 7.84348 7.66 8.16384C6.97687 8.12767 6.35943 8.47748 5.8208 8.59683C5.35522 8.70018 4.94587 8.68416 4.58801 8.27958L4.59064 8.28164Z" fill="#330099"/>
<path fill-rule="evenodd" clip-rule="evenodd" d="M12.6274 4.40013C13.7458 5.23636 14.5304 6.43191 14.8444 7.77847C15.1585 9.12504 14.9821 10.5373 14.3461 11.7691C13.71 13.001 12.6546 13.9743 11.3637 14.5197C10.0728 15.065 8.62821 15.1477 7.28166 14.7534C10.5996 15.1703 12.4151 12.0815 11.6269 8.65624C11.1613 9.61938 10.1329 10.0772 10.1329 10.0772C11.2365 8.80091 11.0147 7.44198 9.96164 6.52483C8.90857 5.60767 7.49186 6.23599 7.49186 6.23599C7.51655 5.97092 7.89017 5.71928 8.23279 5.56789C8.57541 5.41649 8.96847 4.98401 8.67367 4.60475C8.38728 4.23479 7.91803 4.53861 7.89438 4.55308C8.20967 4.27457 8.63899 4.03637 9.29165 3.93303C9.69251 3.87037 10.0975 3.83687 10.5034 3.83279C10.7352 3.32073 11.0977 2.77199 11.6553 2.43768C11.6553 2.43768 12.5276 3.05101 12.6253 4.39703L12.6274 4.40013Z" fill="url(#paint4_linear_2355_47721)"/>
<path fill-rule="evenodd" clip-rule="evenodd" d="M10.3736 5.43043H10.3763H10.3736ZM10.4535 5.47694C10.5765 5.53222 10.8271 5.58028 11.1004 5.27025C11.1004 5.27025 10.9953 6.02051 11.3784 6.45868C11.3148 6.27938 11.2911 6.0913 11.3573 5.92182C11.5717 5.37411 12.1902 5.20515 12.2696 4.46471C12.3489 3.72427 12.0857 3.18276 11.6632 2.6459C11.6632 2.6459 10.8981 3.13936 10.7635 3.95214C10.629 4.76491 10.794 5.16795 10.6059 5.42113C10.5913 5.44629 10.5683 5.46568 10.5408 5.47596C10.5133 5.48624 10.483 5.48677 10.4551 5.47745L10.4535 5.47694Z" fill="#E6E6E6"/>
<path fill-rule="evenodd" clip-rule="evenodd" d="M7.47083 6.29026C7.47083 6.29026 7.48186 5.92392 7.89699 5.73015C8.38202 5.50332 8.67576 6.04017 8.19652 6.12801C8.01733 6.1616 7.75038 6.17968 7.47083 6.29026Z" fill="#330099"/>
<path fill-rule="evenodd" clip-rule="evenodd" d="M11.5749 5.57098C12.1592 4.82744 12.0157 4.25958 11.8234 3.93613C11.8103 3.91339 11.7961 3.89169 11.7824 3.87154C11.724 3.78321 11.6532 3.70337 11.5722 3.63437C11.5826 3.6807 11.5879 3.72799 11.588 3.77543C11.5884 3.81688 11.5859 3.85831 11.5806 3.89944C11.5333 4.27147 11.2869 4.659 11.2869 4.659C11.2802 4.51451 11.2442 4.37279 11.1811 4.24218C11.1179 4.11156 11.0288 3.99468 10.919 3.89841C10.9952 4.44146 10.8507 5.58493 10.4682 5.47953H10.4577C10.5812 5.53481 10.8313 5.58287 11.104 5.27284C11.104 5.27284 10.9989 6.0231 11.382 6.46127C11.3179 6.28197 11.2942 6.09389 11.361 5.92441C11.4129 5.79657 11.4865 5.6783 11.5785 5.5746L11.5749 5.57098Z" fill="url(#paint5_linear_2355_47721)"/>
<defs>
<linearGradient id="paint0_linear_2355_47721" x1="4.95092" y1="3.89184" x2="9.33404" y2="13.6561" gradientUnits="userSpaceOnUse">
<stop stop-color="#A7FFEB"/>
<stop offset="0.506453" stop-color="#0091EA"/>
<stop offset="1" stop-color="#6200EA"/>
</linearGradient>
<linearGradient id="paint1_linear_2355_47721" x1="5.37596" y1="9.12351" x2="8.54183" y2="11.4054" gradientUnits="userSpaceOnUse">
<stop stop-color="#0896EA"/>
<stop offset="1" stop-color="#2637C5"/>
</linearGradient>
<linearGradient id="paint2_linear_2355_47721" x1="8.95245" y1="1.94269" x2="9.65968" y2="4.69153" gradientUnits="userSpaceOnUse">
<stop stop-color="#69F0AE"/>
<stop offset="0.45" stop-color="#00B0FF"/>
<stop offset="0.77" stop-color="#2962FF"/>
<stop offset="1" stop-color="#6200EA"/>
</linearGradient>
<linearGradient id="paint3_linear_2355_47721" x1="9.74149" y1="9.60242" x2="5.00117" y2="13.4516" gradientUnits="userSpaceOnUse">
<stop stop-color="#CDD1E0"/>
<stop offset="1" stop-color="#EDE7F6"/>
</linearGradient>
<linearGradient id="paint4_linear_2355_47721" x1="12.8321" y1="0.371881" x2="8.80394" y2="15.0341" gradientUnits="userSpaceOnUse">
<stop stop-color="#69F0AE"/>
<stop offset="0.411782" stop-color="#00B0FF"/>
<stop offset="0.785075" stop-color="#2962FF"/>
<stop offset="1" stop-color="#6200EA"/>
</linearGradient>
<linearGradient id="paint5_linear_2355_47721" x1="11.2247" y1="3.63437" x2="11.2247" y2="6.46127" gradientUnits="userSpaceOnUse">
<stop stop-color="#CCC4DB"/>
<stop offset="1" stop-color="#8C72C0"/>
</linearGradient>
</defs>
</svg>
