<!-- by TradingView --><svg xmlns="http://www.w3.org/2000/svg" width="18" height="18"><path fill="#0055FE" d="M0 0h18v18H0z"/><path fill-rule="evenodd" d="M12.93 12.1A5 5 0 005.6 5.33l.59.58a.4.4 0 01-.56.56l-.57-.56a5 5 0 007.33 6.76l-.51-.52a.4.4 0 11.56-.56l.49.5zM7.95 7.41a.79.79 0 11-1.58 0 .79.79 0 011.58 0zm.28-1.6a.4.4 0 00.55.56l1.12-1.1a.4.4 0 10-.56-.56L8.23 5.83zm-.04 2.4a.4.4 0 01.56 0l1.12 1.12a.4.4 0 01-.56.56L8.2 8.78a.4.4 0 010-.55zm3.44 2.62a.79.79 0 11-1.58 0 .79.79 0 011.58 0zm-3.4 2.1a.4.4 0 00.55.55l1.12-1.12a.4.4 0 00-.56-.56l-1.11 1.12z" fill="#fff"/></svg>