<!-- by TradingView --><svg width="18" height="18" viewBox="0 0 18 18" xmlns="http://www.w3.org/2000/svg"><path fill="url(#ahfw0mmf3)" d="M0 0h18v18H0z"/><path d="M5.08 12.4c-.16-.19-.3-.38-.44-.59L7.45 9l-2.8-2.8c.12-.21.27-.41.43-.6L8.48 9l-3.4 3.4Zm-.8-5.53c-.12.24-.2.5-.28.75L5.37 9 4 10.37c.07.26.16.51.27.76L6.4 9 4.27 6.87ZM9 9.52l-3.4 3.4c.19.16.38.3.59.44L9 10.56l2.81 2.8c.2-.13.4-.28.59-.44L9 9.52Zm2.13 4.2L9 11.6l-2.13 2.13c.24.1.5.2.75.27L9 12.63 10.37 14c.26-.07.52-.16.76-.27ZM9 8.49l3.4-3.4c-.19-.16-.38-.3-.59-.44L9 7.45l-2.8-2.8c-.21.12-.41.27-.6.43L9 8.48Zm4.73 2.65c.1-.24.2-.5.27-.75L12.63 9 14 7.63a5.2 5.2 0 0 0-.27-.76L11.6 9l2.13 2.13ZM10.55 9l2.8-2.8c-.12-.21-.27-.41-.43-.6L9.52 9l3.4 3.4c.16-.19.3-.38.44-.59L10.56 9ZM9 6.4l2.13-2.13c-.24-.1-.5-.2-.75-.27L9 5.37 7.63 4a5.2 5.2 0 0 0-.76.27L9 6.4Z" fill="#fff"/><defs><linearGradient id="ahfw0mmf3" x1="3" y1="0" x2="14.5" y2="18" gradientUnits="userSpaceOnUse"><stop stop-color="#6A2EFE"/><stop offset="1" stop-color="#098BE1"/></linearGradient></defs></svg>