<!-- by TradingView --><svg width="18" height="18" viewBox="0 0 18 18" xmlns="http://www.w3.org/2000/svg"><path fill="#F0F3FA" d="M0 0h18v18H0z"/><path d="M7.67 5.22A.51.51 0 0 0 7.21 5h-2c-.18.02-.26.17-.18.3l4.92 7.52c.08.13.29.2.47.18h2c.18-.02.26-.14.19-.27L7.67 5.22ZM7 10.67c0-.13-.12-.22-.25-.2l-1.52.2a.27.27 0 0 0-.23.26v2.84c0 .13.1.22.23.2l1.52-.2c.13-.01.25-.13.25-.26v-2.84Z" fill="#080515"/><path d="M13 4.24c0-.13-.12-.22-.25-.2l-1.52.19a.27.27 0 0 0-.23.26v2.84c0 .13.1.22.23.2l1.52-.2c.13-.01.25-.13.25-.26V4.24Z" fill="#E95B4D"/></svg>