<!-- by TradingView --><svg width="18" height="18" viewBox="0 0 18 18" xmlns="http://www.w3.org/2000/svg"><path fill="#D9327C" d="M0 0h18v18H0z"/><path d="M8.65 5.09a.63.63 0 0 0-.2.32C8.37 5.58 7.67 8 7.67 8h2.64l-.76-2.59a.63.63 0 0 0-.21-.32A.57.57 0 0 0 9 5a.57.57 0 0 0-.35.09ZM5.03 8h1.52l.88-2.9c.12-.32.3-.6.59-.81.28-.2.62-.29.98-.29s.7.09.98.29c.29.2.47.49.59.8L11.45 8h1.49c.3 0 .56.22.56.5s-.27.5-.56.5h-7.9c-.3 0-.54-.22-.54-.5s.24-.5.53-.5Zm-.53 2c-.3 0-.5.22-.5.5s.2.5.5.5h.95l-.42 1.04-.14.28c-.12.33.17.69.51.68.22 0 .42-.15.5-.35l.14-.28.54-1.37h4.84l.5 1.37.14.28c.07.2.27.34.49.35.34.01.64-.34.51-.68l-.13-.28-.38-1.04h.92c.3 0 .53-.22.53-.5s-.24-.5-.53-.5H4.5Z" fill="#fff"/></svg>