<!-- by TradingView --><svg width="18" height="18" viewBox="0 0 18 18" xmlns="http://www.w3.org/2000/svg"><path fill="#E3C600" d="M0 0h18v18H0z"/><path d="M11.1 13a.52.52 0 0 0-.04-.02.43.43 0 0 1-.06-.04.77.77 0 0 1-.28-.44.04.04 0 0 0-.02-.03h-.04a5.54 5.54 0 0 1-3.97-.26.56.56 0 0 0-.28-.06.4.4 0 0 0-.28.14c-.44.51-1 .83-1.7.97-.17.04-.33.04-.5.02a.68.68 0 0 1-.35-.16.79.79 0 0 1-.2-.31 1.3 1.3 0 0 1-.09-.39c0-.13 0-.26.02-.39.05-.31.08-.57.1-.78a3.67 3.67 0 0 0-.22-1.49c-.13-.46-.2-.9-.19-1.35 0-.46.08-.9.24-1.32.12-.34.29-.64.5-.9.2-.27.45-.48.72-.64.28-.16.58-.26.9-.3.33-.03.68 0 1.03.12.1.03.22.01.36-.07a3.68 3.68 0 0 1 2.72-.41c.09.01.17 0 .25-.04.73-.38 1.5-.45 2.32-.2a.37.37 0 0 0 .2 0 1.38 1.38 0 0 1 1.15.1 1.76 1.76 0 0 1 .8 1l.06.18c.03.06.06.12.1.16.25.27.33.53.24.77l-.1.2-.07.12a.4.4 0 0 0-.04.24c.01.08.04.15.09.22.05.08.09.16.1.24.01.08 0 .17-.04.26a3.45 3.45 0 0 1-.1.23.47.47 0 0 0-.02.17l.03.64c0 .08.02.15.05.2.15.32.26.6.34.86a3.93 3.93 0 0 1 .17 1.15.8.8 0 0 1-.55.7c-.25.09-.54.1-.86.05a2.8 2.8 0 0 1-.85-.28v.02c0 .13-.03.23-.07.3-.05.09-.13.13-.25.13-.02 0-.03.01-.04.03l-.06.28a.81.81 0 0 0 0 .28c0 .02.01.03.03.04h.04a.67.67 0 0 0 .12-.1.13.13 0 0 1 .09-.06c.03 0 .06 0 .09.02s.05.04.06.07c.02.03.02.06.01.1-.07.22-.14.39-.21.5-.12.17-.25.26-.42.26-.12 0-.21-.06-.27-.18a.73.73 0 0 1-.07-.34c0-.03-.01-.04-.03-.04h-.12c-.02 0-.03 0-.04.02-.1.27-.22.47-.38.61a.66.66 0 0 1-.66.17.44.44 0 0 1-.2-.11.5.5 0 0 1-.11-.2.56.56 0 0 1 .04-.44.4.4 0 0 1 .25-.22c.05-.01.09 0 .12.01l.06.07a.3.3 0 0 0 .06.07c.02.02.05.03.1.03.08 0 .16-.04.23-.1.03-.02.03-.05 0-.07Z" fill="#FEFEFB"/><path d="M6.27 11.82h-.02l-.01.01c-.08.18-.2.35-.35.5-.14.15-.3.28-.48.4a2.84 2.84 0 0 1-1.15.41c-.44.05-.7-.13-.8-.54a1.54 1.54 0 0 1-.02-.42 5.35 5.35 0 0 1 .07-.54c.08-.56.05-1.08-.09-1.58l-.14-.52a4.34 4.34 0 0 1-.08-1.76 3.5 3.5 0 0 1 .72-1.57 2.11 2.11 0 0 1 2.6-.61c.03 0 .05 0 .07-.02a3.48 3.48 0 0 1 3.01-.5l.04-.01c.78-.46 1.6-.54 2.46-.24h.05l.05-.01.02-.01c.18-.09.37-.12.57-.1.18.01.35.07.53.17a1.61 1.61 0 0 1 .7.86l.1.3c0 .04.02.06.04.08.1.09.18.18.24.27.08.14.1.28.05.42a.79.79 0 0 1-.1.18c-.02.05-.07.1-.12.18l-.02.03a10.78 10.78 0 0 1 .05.42l.05.07a.9.9 0 0 1 .04.05c.1.15.1.3-.02.45l-.07.1-.01.04c.03.3.04.6.04.88 0 .06.01.12.04.2a2.28 2.28 0 0 0 .14.3c.22.5.35.96.38 1.41.04.51-.16.8-.6.88-.3.05-.63.02-.98-.09a2.8 2.8 0 0 1-.88-.46h-.03a5 5 0 0 1-.86.54h-.05a.41.41 0 0 0-.33-.08.5.5 0 0 0-.3.17.58.58 0 0 0-.07.13l-.03.06c0 .02-.02.03-.04.04-.87.28-1.78.33-2.73.14a5.49 5.49 0 0 1-1.68-.63Z" fill="#3B0731"/><path d="M12.62 5.41a284.57 284.57 0 0 0-.82-.35A2.72 2.72 0 0 0 10.36 5a10.67 10.67 0 0 1-.57.1c-.02 0-.01-.02 0-.03a2.5 2.5 0 0 1 2.93.3c.02.02.02.04-.01.04h-.09ZM13.34 5.05c-.04.05-.04.08-.01.11v.06l.12.17v.05l-.02.01a.02.02 0 0 1-.02 0 2.1 2.1 0 0 0-.67-.52.4.4 0 0 0-.14-.04c-.02 0-.03 0-.04-.02a.07.07 0 0 1-.01-.07 1 1 0 0 1 .8.25Z" fill="#FEE6A5"/><path d="M12.55 4.8c-.01.03 0 .05.01.07l.04.02c.05 0 .1.02.14.04a2.1 2.1 0 0 1 .68.53h.01l.01-.02c.02-.01.02-.03 0-.05a15.14 15.14 0 0 1-.1-.2l-.01-.03c-.03-.03-.03-.06.01-.1.23.2.39.44.48.73 0 .02 0 .02-.01 0-.2-.17-.44-.28-.72-.33a.14.14 0 0 1-.08-.05 1.99 1.99 0 0 0-.65-.55v-.01a.5.5 0 0 1 .19-.05Z" fill="#E2A702"/><path d="M12.62 5.41c-.3.02-.58.08-.83.2-.16.08-.31.18-.45.3-.15.15-.26.3-.31.44-.02.04-.01.04.02.02l.15-.16c.06.04.13.04.19.01a32.6 32.6 0 0 0 .45-.2c.14-.06.26-.1.37-.11l.22-.04c.11-.02.22-.03.34-.03.3 0 .62.05.95.16.14.09.28.22.42.38v.02h-.02l-.47-.05a1.1 1.1 0 0 0-.37-.05c-.02 0-.03 0-.04-.02a.31.31 0 0 0-.2-.09 3.24 3.24 0 0 0-.66.01 2.5 2.5 0 0 0-.77.24 3.05 3.05 0 0 0-.22.15l-.13.07a.27.27 0 0 0-.14.17l-.16.08-.02.01v.02c.1.3.32.51.63.65.31.13.65.2 1.03.17.36-.02.7-.1 1.02-.26a.08.08 0 0 1 .08 0l.16.1h-.21l-.1.05-.01.02v.02l.23.28.05.02a.27.27 0 0 0 .19-.11.06.06 0 0 0 0-.06l-.05-.17.09.06a.3.3 0 0 1 .06.08c.04.07.04.13 0 .19a.5.5 0 0 1-.22.14c-.57.21-1.2.37-1.91.47-1.3.18-2.5.24-3.6.17a9.26 9.26 0 0 1-.92-.11 1.94 1.94 0 0 1-.66-.23.2.2 0 0 0-.1-.03.37.37 0 0 0-.11.03c-.08 0-.13-.04-.15-.11a2.1 2.1 0 0 1-.07-.7.37.37 0 0 1 .01-.17 17.54 17.54 0 0 0 .11-.47c0-.01 0-.02-.02-.01a.05.05 0 0 0-.03.03l-.01.03a4.04 4.04 0 0 0-.13.37l-.04.17c-.06.1-.09.2-.09.31-.01.02-.03.02-.04.02-.02 0-.02-.01-.02-.02l-.01-.08A.92.92 0 0 1 6 7.52a3.8 3.8 0 0 1 .05-1.17s0-.02-.02-.02h-.02c-.17.3-.28.63-.32 1.01a4.88 4.88 0 0 0 .08 1.4c0 .03 0 .09.02.16a5.96 5.96 0 0 1 .03 1.12c-.02.36-.09.7-.2 1.03-.12.35-.29.66-.5.91-.2.26-.49.48-.85.66a.91.91 0 0 1-.3.08l-.03-.01a.04.04 0 0 1-.01-.03c0-.05 0-.09.03-.13.04-.06.1-.16.2-.28l.22-.35c.48-.8.54-1.65.18-2.56a57.3 57.3 0 0 1-.2-.52 3.8 3.8 0 0 1-.24-1.13c-.02-.27 0-.54.08-.8.05-.06.1-.14.16-.26.08-.17.2-.32.34-.46a1.92 1.92 0 0 1 1.06-.51c.2-.03.39-.02.57.03l.03.02.04.03v.02l.02.01.03-.01c0 .04.03.05.07.04.13-.02.25-.06.37-.11.33-.15.63-.27.92-.34a3.52 3.52 0 0 1 1.58-.07l.62.13c.02 0 .03-.01.04-.04l.1.04c.05.02.05.01.01-.03-.1-.09-.2-.17-.34-.25.09-.01.27-.05.53-.12a2.72 2.72 0 0 1 1.85.21l.41.2Z" fill="#E3C600"/><path d="M10.06 5.37c0 .03-.02.04-.04.04l-.62-.13a3.52 3.52 0 0 0-1.58.06c-.29.08-.6.2-.92.35-.12.05-.24.09-.37.11-.04.01-.06 0-.07-.04.26-.17.44-.29.54-.34.38-.19.76-.31 1.16-.36.42-.06.83-.03 1.22.07.23.07.46.15.68.24ZM6.41 5.74c-.01 0-.03 0-.04-.03a.05.05 0 0 0-.03-.02 1.46 1.46 0 0 0-.57-.03 1.84 1.84 0 0 0-1.06.5c-.15.15-.26.3-.34.47-.06.12-.1.2-.16.25.04-.14.08-.28.13-.4.05-.14.12-.27.2-.38l.3-.3c.02 0 .03-.02.03-.03V5.7a1.64 1.64 0 0 1 1.56-.03c.02.02.02.04-.02.07ZM13.72 6c-.33-.1-.65-.16-.95-.16-.12 0-.23 0-.34.03l-.22.04a1.7 1.7 0 0 0-.37.1 6.67 6.67 0 0 0-.45.21c-.06.03-.13.03-.19-.01a2.06 2.06 0 0 1 1.81-.58c.26.05.5.17.7.37Z" fill="#FEE6A5"/><path d="M4.87 5.7v.07l-.02.04c-.13.1-.23.2-.3.3-.1.1-.16.23-.21.36l-.13.41c-.07.27-.1.54-.08.8.02.4.1.78.24 1.14l.2.52c.36.9.3 1.76-.18 2.56a5.92 5.92 0 0 1-.42.63.23.23 0 0 0-.03.13l.01.03.04.01c.1-.01.2-.04.3-.08a2.45 2.45 0 0 0 1.34-1.57c.11-.33.18-.67.2-1.03A9.67 9.67 0 0 0 5.8 8.9a20.84 20.84 0 0 1-.1-1.56c.04-.38.15-.71.32-1l.02-.01.02.02c-.08.42-.1.8-.05 1.17.01.08.04.17.09.27v.08s.01.02.03.02c.01 0 .03 0 .04-.02v.78c.1.75.11 1.49.04 2.22-.02.17-.06.37-.13.58-.14.4-.38.72-.74.95-.2.12-.4.22-.6.3-.22.09-.43.14-.64.17-.25.02-.4-.08-.43-.32a1.37 1.37 0 0 1-.01-.42l.1-.73a4.92 4.92 0 0 0-.15-1.45c-.07-.22-.12-.44-.17-.68-.15-.77-.1-1.5.18-2.17.12-.3.29-.58.5-.82.22-.25.47-.45.75-.58Z" fill="#E2A702"/><path d="M9.97 6.37a2.21 2.21 0 0 0-1.71-.36c-.45.09-.86.29-1.21.6l-.2.2c-.03.04-.04.03-.01-.02.15-.26.36-.48.65-.66.27-.16.56-.27.87-.3a1.89 1.89 0 0 1 1.74.62v.02h-.02a.51.51 0 0 0-.11-.1Z" fill="#3B0731"/><path d="M9.97 6.37a1.25 1.25 0 0 1-.42-.13.34.34 0 0 0-.12-.02 7.33 7.33 0 0 0-1.23.15 3.4 3.4 0 0 0-.72.25.56.56 0 0 1-.25.05c-.09 0-.15-.02-.18-.05.35-.32.76-.52 1.2-.6.63-.12 1.2 0 1.72.35Z" fill="#FEE6A5"/><path d="M13.65 6.35h-.77c-.49.04-.93.14-1.34.3l-.42.18a.27.27 0 0 1 .14-.17 9.82 9.82 0 0 0 .23-.14 2.98 2.98 0 0 1 .25-.15c.2-.08.4-.14.64-.17.21-.02.43-.03.66-.01.08 0 .15.04.2.1h.04c.13 0 .25.02.37.06Z" fill="#E2A702"/><path d="M11.8 6.81c.02.12.06.22.12.31.05.08.12.15.21.2.08.05.17.08.28.1a.96.96 0 0 0 .82-.27.64.64 0 0 0 .16-.57c0-.02 0-.03.02-.03a2.58 2.58 0 0 1 .71.1v.02a1.1 1.1 0 0 1-.3.44c-.13.11-.28.2-.47.28a2.57 2.57 0 0 1-1.67.02c-.19-.08-.34-.2-.46-.37a.03.03 0 0 1 .02-.04l.54-.2c.01-.01.02 0 .03.01Z" fill="#FEFEFB"/><path d="M12.9 6.85c.08 0 .14-.06.14-.13a.13.13 0 0 0-.13-.14.13.13 0 0 0-.13.14c0 .07.06.13.13.13Z" fill="#FEFEFB"/><path d="M10.26 6.9a3.57 3.57 0 0 0-1.59-.02c-.47.1-.92.26-1.34.47-.15.07-.3.17-.45.29a.04.04 0 0 1-.04 0l-.08-.02a3.85 3.85 0 0 1 1.16-.69l.3-.07.3-.07c.2-.05.39-.08.56-.09h.54a3 3 0 0 1 .58.08c.03 0 .04.02.05.05v.08Z" fill="#E2A702"/><path d="m10.26 6.9.16.05c.02.01.03.02.03.04-.02.21-.1.4-.22.57-.12.16-.28.3-.48.4a3.05 3.05 0 0 1-1.9.34c-.23-.04-.44-.1-.64-.2a.97.97 0 0 1-.45-.48l.08.02h.04c.15-.12.3-.22.45-.3.42-.2.87-.35 1.34-.46.5-.1 1.03-.1 1.59.03Z" fill="#3B0731"/><path d="M6.59 8.42h-.05l-.02.02.01.02c.04.03.08.05.13.06l.01.02v.02c-.1.1-.18.2-.22.3-.02.05-.03.05-.04 0a8.58 8.58 0 0 1-.17-.97 1.75 1.75 0 0 1 .11-.69 4.01 4.01 0 0 1 .12-.24c.02 0 .03 0 .02.01 0 .04 0 .08-.02.12l-.09.35a.37.37 0 0 0 0 .17v.32c0 .13.03.25.06.38.02.07.07.1.15.1Z" fill="#E2A702"/><path d="M12.31 7.09c.2.1.4.08.59-.08.03-.02.06-.02.09 0l.03.02c.03.03.03.05 0 .08-.24.24-.5.27-.8.1-.05-.01-.05-.05-.02-.09l.01-.02c.03-.03.06-.04.1-.01Z" fill="#609ACB"/><path d="M7.75 7.43a.79.79 0 0 0 .67.57 1.04 1.04 0 0 0 .87-.26c.1-.09.16-.2.2-.32a.97.97 0 0 0 .03-.38 4.9 4.9 0 0 1 .69.07v.04a.8.8 0 0 1-.23.39c-.1.1-.23.2-.38.27a2.84 2.84 0 0 1-1.83.26 1.5 1.5 0 0 1-.66-.32c-.02-.02-.02-.03 0-.04l.6-.3h.02l.02.02Z" fill="#FEFEFB"/><path d="M8.84 7.37c.06.06.16.06.21 0 .06-.07.05-.16-.02-.22-.06-.06-.16-.06-.21 0-.06.06-.05.16.02.22Z" fill="#FEFEFB"/><path d="m14 7.46-.13-.07v-.02l.11-.11H14l.03.18v.02H14Z" fill="#E3C600"/><path d="M8.93 7.81a.66.66 0 0 1-.73-.04c-.04-.03-.05-.06-.03-.1l.01-.02c.02-.04.05-.04.09-.02.13.07.25.1.37.1a.62.62 0 0 0 .33-.16.11.11 0 0 1 .08-.03l.09.03v.03a.52.52 0 0 1-.2.21Z" fill="#609ACB"/><path d="M11.22 7.56c.12.02.2.06.23.1.01.03 0 .04-.02.05-.3.09-.6.12-.92.1l-.02-.02v-.03a.3.3 0 0 1 .12-.1c.2-.1.4-.14.6-.1ZM13.86 7.6l.1.05.06.17-.01.06c-.05.06-.11.1-.2.1l-.04-.01-.23-.28v-.02l.01-.02.1-.05h.21Z" fill="#FEE6A5"/><path d="M14 9.11a2.54 2.54 0 0 0-.44-.62v-.01l.42-.17H14v.01a5.11 5.11 0 0 1 .02.8Z" fill="#E2A702"/><path d="M7.92 10.28c-.34-.1-.64-.24-.89-.4a.98.98 0 0 1-.33-.35c-.17-.32-.13-.62.12-.89a.07.07 0 0 1 .08-.02.8.8 0 0 0 .11.03c.03.01.04.03.02.05-.15.19-.18.4-.1.66.04.09.1.17.2.24.17.12.38.23.62.32.87.33 1.76.55 2.66.67a5.83 5.83 0 0 0 2.29-.17c.17-.06.33-.13.47-.23.17-.1.3-.23.36-.36.2-.37.07-.78-.4-1.22l-.01-.01c.08-.01.14-.02.2-.05l.03.01c.19.2.33.4.42.57.1.21.13.42.08.62a.9.9 0 0 1-.35.52c-.25.2-.56.33-.9.41-.5.12-1 .17-1.53.15a12.07 12.07 0 0 1-3.15-.55Z" fill="#E3C600"/><path d="M8.26 8.97c.13.02.25.07.36.15.29.21.56.43.8.64a1.95 1.95 0 0 0 1.33.57c.3 0 .57-.05.83-.15.34-.14.5-.37.5-.67 0-.21-.02-.43-.09-.65l.01-.04.03-.02.72-.11c.08-.02.2.04.32.19a1.7 1.7 0 0 1 .24.32c.08.17.08.33 0 .5a.74.74 0 0 1-.15.2.97.97 0 0 1-.2.15c-.15.08-.3.14-.44.19-.43.12-.86.18-1.3.18-.54 0-1.08-.07-1.63-.18-.51-.11-1.02-.26-1.52-.43-.29-.1-.53-.2-.74-.33-.2-.12-.28-.3-.2-.53.02-.1.1-.15.2-.13l.93.15Z" fill="#CE2733"/><path d="M8.85 9.04c-.07-.03-.07-.05.01-.04a12.94 12.94 0 0 0 2.76-.13c.07-.01.1.02.12.09 0 .02 0 .03-.02.04a4.6 4.6 0 0 1-2.87.04Z" fill="#FEFEFB"/><path d="m10.82 9.66-.01-.01c-.02-.02-.02-.04 0-.05a1 1 0 0 1 .7-.06.53.53 0 0 1 .2.11c.08.07.07.14 0 .2a.9.9 0 0 1-.32.17c-.56.17-1.1.1-1.6-.2v-.04c.15-.07.3-.13.46-.15.17-.04.33-.03.46 0l.05.02c.02.02.04.02.05.02.02 0 .02 0 0 0Z" fill="#CE2733"/><path d="M14.54 11.51a1.37 1.37 0 0 1-.25-.3 18.55 18.55 0 0 0-.44-.82c0-.03.02-.05.05-.08.19-.17.25-.36.2-.58l.02-.2c0-.02 0-.02.01-.01.22.44.37.9.45 1.4.04.2.02.4-.04.59ZM7.63 10.4c-.02.03 0 .07.05.1a11.52 11.52 0 0 0 1.47.56l.55.1c.34.06.77.1 1.27.13.05 0 .05.02.03.05 0 .02-.02.02-.03.03-.85.2-1.68.2-2.5-.01a3.05 3.05 0 0 1-1.5-.86c-.16-.17-.3-.38-.4-.63a.04.04 0 0 0-.02-.03c-.05 0-.07-.03-.08-.07v-.25c.11.18.23.31.34.4.24.2.52.36.82.47Z" fill="#E3C600"/><path d="M14.1 9.73c.05.22-.01.41-.2.58a.13.13 0 0 0-.05.08l.03.1.41.73c.04.07.12.16.25.29a.45.45 0 0 1-.23.17c-.12.03-.23.05-.36.05a2.42 2.42 0 0 1-1.4-.5v-.02l.3-.33a1.24 1.24 0 0 0 1.24-1.15ZM6.47 9.77c0 .04.03.06.08.07l.03.03c.1.25.23.46.4.63.4.42.9.71 1.49.86a5.24 5.24 0 0 0 2.53-.02c.03-.03.02-.05-.03-.05a9.98 9.98 0 0 1-1.82-.24 11.52 11.52 0 0 1-1.47-.56c-.05-.02-.07-.06-.05-.1a11.58 11.58 0 0 0 4.16.65 4.25 4.25 0 0 0 .66-.08 5.25 5.25 0 0 1-3.01 1.27 5.42 5.42 0 0 1-3.13-.7c-.01 0-.02-.01-.01-.03.07-.2.11-.4.13-.6.04-.37.05-.74.04-1.13Z" fill="#E2A702"/><path d="m11.85 13.09-.27-.01c-.02 0-.03 0-.03.02-.05.13-.1.23-.15.31-.05.11-.12.2-.2.29-.08.1-.18.17-.3.2a.5.5 0 0 1-.35-.03.39.39 0 0 1-.18-.17.46.46 0 0 1-.06-.23c0-.09.02-.16.06-.23a.37.37 0 0 1 .2-.16h.04c.02.01.03.02.03.04.03.07.08.12.14.14.05.02.1.02.18 0a.6.6 0 0 0 .18-.1c.06-.04.1-.09.14-.13.01-.02 0-.03-.01-.04a.7.7 0 0 1-.4-.33.58.58 0 0 1-.07-.23c0-.07 0-.15.03-.2a.37.37 0 0 1 .14-.17.5.5 0 0 1 .23-.08c.1 0 .18.03.23.11l.01.02c.05.08.03.13-.06.15a.18.18 0 0 0-.13.1.24.24 0 0 0-.02.14c0 .05.02.1.05.16.03.05.06.1.1.12l.02.01c.02 0 .03 0 .03-.02.24-.65.54-1 .91-1.09.07-.01.14 0 .2.03.05.04.09.1.1.17a.48.48 0 0 1-.02.23c-.04.1-.1.13-.2.1l-.05.01a.09.09 0 0 0-.05.05c-.07.18-.1.38-.1.6 0 .05.02.1.05.12.02.02.05.04.1.03.03 0 .07-.01.1-.04a.28.28 0 0 0 .09-.09l.03-.02c.04-.01.06 0 .09.03v.04c-.06.22-.14.4-.24.54a.44.44 0 0 1-.2.15c-.08.04-.16.03-.23-.02-.06-.04-.1-.12-.12-.23a.86.86 0 0 1-.02-.27c0-.01 0-.02-.02-.02Z" fill="#55035D"/><path d="M11.4 12.35c.05 0 .09-.02.1-.05a.25.25 0 0 0 .04-.09l.03-.07a.14.14 0 0 1 .06-.05c.02-.01.03 0 .01.02l-.25.52-.02.01-.02-.01a.5.5 0 0 1-.04-.13c0-.06.01-.1.04-.13a.09.09 0 0 1 .05-.02Z" fill="#E2A702"/><path d="m12.03 12.32-.14.56c0 .02-.02.03-.03.03l-.2-.01s-.02 0-.02-.02v-.03l.23-.49h.01l.1-.08H12c.02 0 .02.02.02.04Z" fill="#FEFEFB"/></svg>