<!-- by TradingView --><svg width="18" height="18" xmlns="http://www.w3.org/2000/svg"><path fill="url(#paint0_linear)" d="M0 0h18v18H0z"/><path d="M9.815 9.795c-.262.364-.692.6-1.1.6-.394 0-.858-.227-.858-.76 0-.506.256-.656.635-.743.447-.104 1.091-.166 1.508-.391 0 .423.056.93-.185 1.294zM8.778 5.641c.626 0 1.222.279 1.222.85 0 .63-.704.616-1.106.648-.877.126-1.556.215-2.003.34-.464.108-.828.252-1.076.467-.527.38-.812 1.108-.812 1.794-.033.628.166 1.166.58 1.596.414.449 1.043.664 1.92.664.53 0 .977-.09 1.391-.251.397-.18.778-.43 1.126-.771L10.143 12H13c-.248-.197-.286-.825-.286-1.166V6.978C12.714 4.665 11.086 4 9.142 4c-1.65 0-3.704.41-3.856 2.56h2.217c.043-.6.648-.92 1.274-.92zM13 13H5v1h8v-1z" fill="#fff"/><defs><linearGradient id="paint0_linear" x1="3.349" y1="3.122" x2="21.904" y2="24.434" gradientUnits="userSpaceOnUse"><stop stop-color="#1A1E21"/><stop offset="1" stop-color="#06060A"/></linearGradient></defs></svg>