<!-- by TradingView --><svg width="18" height="18" viewBox="0 0 18 18" fill="none" xmlns="http://www.w3.org/2000/svg">
<rect width="18" height="18" fill="url(#paint0_linear_2357_48548)"/>
<path fill-rule="evenodd" clip-rule="evenodd" d="M13.1684 6.28859C12.4597 7.97179 11.3006 9.41054 9.82743 10.4354C8.35429 11.4602 6.62856 11.9378 4.85352 11.9825C4.11879 10.8535 3.84056 9.43136 4.09314 8.09595C4.47587 6.07246 5.99389 4.52602 8.01748 4.10285C8.66247 3.96796 9.32684 3.96573 9.97266 4.0963C11.2644 4.35746 12.4337 5.15973 13.1684 6.28859ZM13.3753 6.25634V5.61398C13.3754 5.60732 13.377 5.60078 13.3803 5.59506C13.3834 5.58934 13.388 5.58465 13.3934 5.58146L13.95 5.25622C13.9553 5.25292 13.9613 5.25119 13.9675 5.2512C13.9735 5.25121 13.9795 5.25294 13.9848 5.25625C13.9901 5.25954 13.9944 5.26429 13.9975 5.26999C14.0005 5.27569 14 5.28216 14 5.28874V5.9311C13.9999 5.93766 14.0004 5.94411 13.9974 5.94981C13.9943 5.9555 13.99 5.96026 13.9847 5.96362L13.4274 6.28886C13.4221 6.29215 13.4161 6.29388 13.4099 6.29387C13.4039 6.29386 13.3979 6.29213 13.3926 6.28882C13.3873 6.28553 13.383 6.28079 13.3799 6.27508C13.3769 6.26938 13.3753 6.26291 13.3753 6.25634ZM13.0638 12.157C13.6725 11.2772 13.9998 10.2226 13.9998 9.14084C14 8.34362 13.8213 7.55722 13.4778 6.84353C11.9125 8.93482 10.9203 11.3758 10.6053 14C11.5955 13.6505 12.4551 13.0368 13.0638 12.157Z" fill="white"/>
<defs>
<linearGradient id="paint0_linear_2357_48548" x1="3.36042" y1="3.85463" x2="14.9778" y2="15.8611" gradientUnits="userSpaceOnUse">
<stop stop-color="#AA42FC"/>
<stop offset="1" stop-color="#5A49FF"/>
</linearGradient>
</defs>
</svg>
