<!-- by TradingView --><svg xmlns="http://www.w3.org/2000/svg" width="18" height="18"><path fill="#F0F3FA" d="M0 0h18v18H0z"/><path fill-rule="evenodd" d="M13.92 13.02c.2.37 0 .98-.37.98-.42 0-.52-.12-.62-.26l-.06-.07-1.76-3.7a2.33 2.33 0 00-2.15-1.16c-1.5.08-2.05.85-2.75 2.46v.1c.2-.06.74-.15 1.36-.15.95 0 2.46.72 2.85 1.84.1.27.01.58-.14.71-.19.16-.49.3-.84.05a1.68 1.68 0 01-.27-.3c-.33-.43-.83-1.08-2-1a2.58 2.58 0 00-2.1 1.25.6.6 0 01-.59.22c-.37-.08-.55-.37-.46-.76C4.07 13 5.55 9.75 7 6.56L8.47 3.3c.18-.39.7-.39.88 0l4.57 9.73zm-6.1-5.24l1.13-2.62 1.15 2.62a5 5 0 00-2.28 0z" fill="#FC452D"/></svg>