<!-- by TradingView --><svg xmlns="http://www.w3.org/2000/svg" width="18" height="18"><path fill="url(#aeny013mt)" d="M0 0h18v18H0z"/><path d="M13.97 5.66L11.98 6.8A1 1 0 0112 7v2a1 1 0 01-1 1H8.18L5 11.84V15h1a1 1 0 001-1v-2h5a2 2 0 002-2V6c0-.12-.01-.23-.03-.34zM5 8.87V6c0-1.1.9-2 2-2h5c.36 0 .7.1.99.26L9.98 6H8a1 1 0 00-1 1v.72L5 8.87z" fill="#fff"/><defs><linearGradient id="aeny013mt" x1="1.29" y1="1.45" x2="16.23" y2="18" gradientUnits="userSpaceOnUse"><stop stop-color="#BF9B41"/><stop offset="1" stop-color="#E2C97E"/></linearGradient></defs></svg>