<!-- by TradingView --><svg xmlns="http://www.w3.org/2000/svg" width="18" height="18" viewBox="0 0 18 18"><path fill="url(#aknb4bbmn)" d="M0 0h18v18H0z"/><path d="M9 7.34l-2.1 4.88c-.07.15-.11.28-.26.28h-1.4c-.2 0-.3-.06-.2-.28l3.4-7.99c.06-.13.1-.23.26-.23h.6c.15 0 .2.1.27.23l3.4 7.99c.1.22-.02.28-.22.28h-1.39c-.15 0-.19-.13-.26-.28L9 7.34z" fill="#fff"/><path d="M9 14.5L7.61 12h2.74L9 14.5z" fill="#3FF"/><defs><linearGradient id="aknb4bbmn" x1="3.35" y1="3.12" x2="21.9" y2="24.43" gradientUnits="userSpaceOnUse"><stop stop-color="#1A1E21"/><stop offset="1" stop-color="#06060A"/></linearGradient></defs></svg>