<!-- by TradingView --><svg width="18" height="18" viewBox="0 0 18 18" xmlns="http://www.w3.org/2000/svg"><path fill="url(#a5uh3pylb)" d="M0 0h18v18H0z"/><path fill-rule="evenodd" d="M9 12.44a3.44 3.44 0 1 0 0-6.88 3.44 3.44 0 0 0 0 6.88ZM9 14A5 5 0 1 0 9 4a5 5 0 0 0 0 10Z" fill="url(#b5uh3pylb)"/><path d="M11.91 10.83c.07.03.14.04.21.04l.22.01c.6.03 1.5.07 1.64-1.46L14 9h-1.56c0 .67-.2 1.3-.53 1.83Zm-7.66-.27c.2.2.53.31 1 .31.31 0 .58-.03.82-.08A3.42 3.42 0 0 1 5.57 9H4a5 5 0 0 0 .25 1.56Z" fill="#005257"/><path d="M11.46 10.27c.96.55 2.34.51 2.5-.58a5 5 0 1 0-9.9 0c.14 1.1 1.52 1.13 2.48.58a4.98 4.98 0 0 1 4.92 0Z" fill="url(#c5uh3pylb)"/><path d="M6.81 9c-1-.25-1.87-1.56-2.18-2.19v1.4l1.25 1.73L6.8 9Z" fill="#005560"/><path d="M11.93 8.7c.23.12.5-.04.46-.28a3.44 3.44 0 0 0-6.79.05c-.03.23.22.38.44.28A6.37 6.37 0 0 1 9 8.06c1.09 0 2.09.21 2.93.64Zm2.02 1c-.15 1.08-1.53 1.12-2.49.57a4.98 4.98 0 0 0-4.92 0c-.96.55-2.34.51-2.5-.58a5 5 0 1 1 9.9 0Z" fill="url(#d5uh3pylb)"/><defs><linearGradient id="a5uh3pylb" x1="3.35" y1="3.12" x2="21.9" y2="24.43" gradientUnits="userSpaceOnUse"><stop stop-color="#1A1E21"/><stop offset="1" stop-color="#06060A"/></linearGradient><linearGradient id="b5uh3pylb" x1="5.72" y1="5.25" x2="12.28" y2="12.91" gradientUnits="userSpaceOnUse"><stop stop-color="#025A63"/><stop offset=".56" stop-color="#026E7A"/><stop offset="1" stop-color="#065270"/></linearGradient><linearGradient id="c5uh3pylb" x1="6.5" y1="4.94" x2="12.59" y2="10.09" gradientUnits="userSpaceOnUse"><stop stop-color="#025962"/><stop offset="1" stop-color="#026D77"/></linearGradient><linearGradient id="d5uh3pylb" x1="5.41" y1="5.72" x2="13.53" y2="10.25" gradientUnits="userSpaceOnUse"><stop stop-color="#02BFC5"/><stop offset="1" stop-color="#01678D"/></linearGradient></defs></svg>