<!-- by TradingView --><svg xmlns="http://www.w3.org/2000/svg" width="18" height="18" viewBox="0 0 18 18"><path fill="#F0F3FA" d="M0 0h18v18H0z"/><circle cx="9" cy="9" r="5" fill="#00EADB"/><path d="M4.01 9.31a5 5 0 0 0 9.98 0H4.01z" fill="#E756CB"/><path d="M13.14 6.2c.19.27.35.57.48.89-.44.08-.9.23-1.13.57-.03.04 0 .09.05.09.3 0 .83 0 1.32.06.09.38.14.78.14 1.19h-2.73l1.29-2.83c.16-.02.38-.02.58.02z" fill="url(#atybum1qy)"/><path d="M12.04 5.03a4.98 4.98 0 0 0-4.93-.66c1.2.23 1.84.46 2.06.57.02.01.02.05-.01.05-.86.2-2.12.25-3.15.14.4.9.71 1.54.86 1.87h4.26l.91-1.97z" fill="url(#btybum1qy)"/><path d="M5.24 5.7c-.13.16-.26.32-.38.5.17.15.4.27.74.3l-.36-.8z" fill="url(#ctybum1qy)"/><path d="M10.24 9l.5-1H7.32l.43 1h2.48z" fill="url(#dtybum1qy)"/><path d="M7.9 9.31h2.2L9 11.73 7.9 9.31z" fill="url(#etybum1qy)"/><path d="M6.73 9l-.86-1.88h.01l-.02-.04.01.04c-.6.13-1.37.61-1.84 1.37L4 9h2.73z" fill="url(#ftybum1qy)"/><path d="M6.87 9.31L9 14a5 5 0 0 1-4.99-4.69h2.86z" fill="url(#gtybum1qy)"/><path d="M11.13 9.31H14A5 5 0 0 1 9 14l2.13-4.69z" fill="url(#htybum1qy)"/><defs><linearGradient id="atybum1qy" x1="9" y1="4" x2="9" y2="14" gradientUnits="userSpaceOnUse"><stop stop-color="#E756CC"/><stop offset=".47" stop-color="#8F79D4"/><stop offset=".6" stop-color="#668AD7"/></linearGradient><linearGradient id="btybum1qy" x1="9" y1="4" x2="9" y2="14" gradientUnits="userSpaceOnUse"><stop stop-color="#E756CC"/><stop offset=".47" stop-color="#8F79D4"/></linearGradient><linearGradient id="ctybum1qy" x1="9" y1="4" x2="9" y2="14" gradientUnits="userSpaceOnUse"><stop stop-color="#E756CC"/><stop offset=".47" stop-color="#8F79D4"/></linearGradient><linearGradient id="dtybum1qy" x1="9" y1="4" x2="9" y2="14" gradientUnits="userSpaceOnUse"><stop stop-color="#E756CC"/><stop offset=".47" stop-color="#8F79D4"/><stop offset=".6" stop-color="#668AD7"/></linearGradient><linearGradient id="etybum1qy" x1="9" y1="4" x2="9" y2="14" gradientUnits="userSpaceOnUse"><stop offset=".47" stop-color="#8F79D4"/><stop offset=".6" stop-color="#668AD7"/><stop offset="1" stop-color="#01E9C9"/></linearGradient><linearGradient id="ftybum1qy" x1="9" y1="4" x2="9" y2="14" gradientUnits="userSpaceOnUse"><stop stop-color="#E756CC"/><stop offset=".47" stop-color="#8F79D4"/><stop offset=".6" stop-color="#668AD7"/></linearGradient><linearGradient id="gtybum1qy" x1="9" y1="4" x2="9" y2="14" gradientUnits="userSpaceOnUse"><stop offset=".47" stop-color="#8F79D4"/><stop offset=".6" stop-color="#668AD7"/><stop offset="1" stop-color="#01E9C9"/></linearGradient><linearGradient id="htybum1qy" x1="9" y1="4" x2="9" y2="14" gradientUnits="userSpaceOnUse"><stop offset=".47" stop-color="#8F79D4"/><stop offset=".6" stop-color="#668AD7"/><stop offset="1" stop-color="#01E9C9"/></linearGradient></defs></svg>