<!-- by TradingView --><svg width="18" height="18" viewBox="0 0 18 18" fill="none" xmlns="http://www.w3.org/2000/svg">
<rect width="18" height="18" fill="#F0F3FA"/>
<path fill-rule="evenodd" clip-rule="evenodd" d="M8.10677 4.06413L6.51113 7.53597C6.49088 7.5137 6.46331 7.5 6.43294 7.5H4.11252C4.05038 7.5 4 7.55732 4 7.62804V8.87196C4 8.94268 4.05038 9 4.11252 9H5.83826L4.0687 12.8503C4.03623 12.9209 4.0907 13 4.17181 13H5.73183C5.77708 13 5.81793 12.9742 5.83551 12.9346L8.98473 6.00996L12.1853 12.9341C12.2028 12.974 12.2438 13 12.2892 13H13.8285C13.9094 13 13.9639 12.9211 13.9317 12.8505L12.175 9H13.8875C13.9496 9 14 8.94268 14 8.87196V7.62804C14 7.55732 13.9496 7.5 13.8875 7.5H11.567C11.5426 7.5 11.52 7.50887 11.5015 7.52393L9.9232 4.0644C9.90536 4.0253 9.8648 4 9.81997 4H8.20988C8.16515 4 8.12467 4.02518 8.10677 4.06413Z" fill="#1D242C"/>
</svg>
