<!-- by TradingView --><svg width="18" height="18" viewBox="0 0 18 18" xmlns="http://www.w3.org/2000/svg"><path fill="#0F2336" d="M0 0h18v18H0z"/><path d="m8.89 6-.27.15H8.6l-.3-.23a.02.02 0 0 1-.02-.01.02.02 0 0 1 0-.02.98.98 0 0 1 .62-.3.02.02 0 0 1 .01 0v.39L8.89 6ZM9.36 6.14 9.09 6v-.4c0-.01 0-.02.02-.02.25.03.45.13.6.31.02.02.02.02 0 .03l-.3.22a.04.04 0 0 1-.05 0Z" fill="#37929B"/><path d="M10.11 7.2a.25.25 0 0 1-.2-.05c.28-.39.3-.8.05-1.25.3.35.4.77.42 1.25 0 .01 0 .02-.02.02l-.23-.03h-.02V7.2ZM8.04 7.09l-.15.05-.23.03a.02.02 0 0 1-.02 0 .02.02 0 0 1 0-.01c-.04-.45.07-.85.33-1.2.1-.14.12-.14.03.02-.2.36-.18.73.04 1.11Z" fill="#78C2BF"/><path d="m7.45 7.83-.43.15A.01.01 0 0 1 7 7.97c-.06-.7.1-1.4.58-1.93.03-.03.04-.03.02.01-.3.52-.29 1.2-.15 1.76v.02ZM10.58 6.55c-.04-.15-.1-.31-.19-.48-.01-.04 0-.04.02-.01.49.49.62 1.24.58 1.92a.02.02 0 0 1-.01.02.02.02 0 0 1-.03 0 1.15 1.15 0 0 0-.37-.16l-.01-.02c0-.08.01-.15.03-.22.06-.37.06-.72-.02-1.05Z" fill="#DFC791"/><path d="M9.86 6.77 9.5 6.6a.03.03 0 0 1-.02-.03v-.22a.03.03 0 0 1 0-.02l.32-.22c.03-.02.05-.01.06.02a1 1 0 0 1 .05.63.04.04 0 0 1-.03.01h-.02ZM8.49 6.6l-.36.17c-.02 0-.04 0-.05-.02a.79.79 0 0 1 .07-.63c0-.02.02-.02.03-.01l.33.21.01.02v.01l-.01.22a.04.04 0 0 1-.02.03Z" fill="#2EA0AA"/><path d="M9.3 6.5a.32.32 0 0 1-.19.3.3.3 0 0 1-.33-.07.31.31 0 0 1 0-.44.3.3 0 0 1 .5.1l.02.12Zm-.11 0a.2.2 0 0 0-.06-.13.2.2 0 0 0-.27 0 .2.2 0 0 0 0 .28.2.2 0 0 0 .27 0 .2.2 0 0 0 .06-.14Z" fill="#DFC791"/><path d="M9.78 6.97a.98.98 0 0 1-.68.43.02.02 0 0 1-.01-.02V7c0-.02 0-.03.02-.03.11-.03.2-.09.28-.18h.04l.34.15a.02.02 0 0 1 .01.03ZM8.89 6.98l.02.02v.38a.02.02 0 0 1 0 .02.02.02 0 0 1-.02 0 1 1 0 0 1-.68-.43.02.02 0 0 1 0-.02h.01l.34-.16a.03.03 0 0 1 .04 0c.08.1.18.16.29.2Z" fill="#78C2BF"/><path d="M8.04 7.09c.48.66 1.36.72 1.87.06.06.05.13.06.2.05l.1.25c.01.05 0 .08-.05.08-.42.08-.77.27-1.05.58-.07.09-.16.1-.23.01a1.72 1.72 0 0 0-1.06-.6.07.07 0 0 1-.03-.05v-.03l.1-.3.15-.05Zm1.05.92a.1.1 0 0 0-.06-.05.11.11 0 0 0-.09 0 .12.12 0 0 0-.05.06.1.1 0 0 0 0 .09.1.1 0 0 0 .06.05.11.11 0 0 0 .08 0 .12.12 0 0 0 .06-.07.1.1 0 0 0 0-.08ZM8.6 8.47a1.2 1.2 0 0 0-1.53.24.01.01 0 0 1-.02 0V8.7l-.02-.35a.04.04 0 0 1 .02-.03c.43-.4 1.05-.36 1.47.03l.1.1a.01.01 0 0 1 0 .02.01.01 0 0 1-.02 0ZM9.8 8.14c.4-.17.78-.12 1.12.14a.08.08 0 0 1 .03.07v.36l-.02.01a.01.01 0 0 1-.01 0 1.19 1.19 0 0 0-1.55-.24.01.01 0 0 1 0-.02c.12-.15.26-.26.42-.32Z" fill="#DFC791"/><path d="M11.68 9.03a59.22 59.22 0 0 1 1.26.03v.02h-.02l-1.24.01s-.02 0-.02.02a.54.54 0 0 1-.43.34l-.02-.01a1.08 1.08 0 0 1-.07-.4c0-.06.02-.13.05-.23a1.21 1.21 0 0 0 .06-.5.02.02 0 0 1 .01-.01h.01c.22.04.37.34.39.53v.18c0 .02 0 .02.02.02ZM6.33 9a.68.68 0 0 1 .31-.67c.06-.04.09-.03.09.04 0 .13-.02.28.04.41.08.2.09.4 0 .6 0 .03-.02.05-.04.05-.17.02-.35-.2-.4-.33l-.02-.02-1.22.01a.02.02 0 0 1-.01 0 .02.02 0 0 1 0-.02v-.01c0-.02 0-.02.02-.02l1.2-.01a.02.02 0 0 0 .02 0 .02.02 0 0 0 0-.02Z" fill="#37929B"/><path d="M7.97 8.6a.52.52 0 0 0-.16.31l-.51.01a.02.02 0 0 0-.01 0 .02.02 0 0 0 0 .02c.05.12.1.26.17.35.26.34.75.25 1-.06 0-.02.02-.02.04-.01l.14.07a.04.04 0 0 1 .02.04v1.02l.01.04.03.02.23.08a.03.03 0 0 1 .01.03v.34c0 .02 0 .02-.02.03-.22.01-.44.05-.66.1a2.03 2.03 0 0 1-.81-.44l-.02-.03a.19.19 0 0 0-.11-.14 1.56 1.56 0 0 0-.06-.22.38.38 0 0 0-.26-.24l-.02-.03c-.03-.32-.01-.62.05-.9.01-.04.05-.09.1-.14.25-.2.53-.28.84-.25Z" fill="#47B2B9"/><path d="M7.32 10.38c.06.02.1.07.11.14a2.03 2.03 0 0 0 .83.47c.04.07.1.1.17.08.22-.03.44-.05.67-.04.16 0 .35.04.52.05.06 0 .09-.03.09-.1a.4.4 0 0 0 .16.01c.03 0 .06-.02.1-.05h-.01c-.04 0-.04 0-.01-.02.16-.1.3-.23.43-.37l.02-.04c0-.02 0-.03.03-.03a.03.03 0 0 0 .03-.02c.02-.05.05-.1.09-.14l.07-.14.14-.44a.6.6 0 0 0 .02-.3l-.02-.2a2.4 2.4 0 0 1 0-.22V9h-.03v.02c-.01.01-.03.01-.06-.01a.12.12 0 0 0 .02-.07l-.02-.02a3.39 3.39 0 0 0-.72.01.4.4 0 0 0-.12-.3c.37-.09.7-.03.99.18.14.1.13.22.16.38a1.9 1.9 0 0 1 0 .73l-.01.01a.4.4 0 0 0-.29.35l-.08.43c-.08.37-.17.6-.47.8l-.45.3a.83.83 0 0 1-.48.18h-.48c-.2 0-.44-.2-.6-.3-.35-.24-.58-.38-.68-.76a5.74 5.74 0 0 1-.12-.55Zm2.17.73a2.69 2.69 0 0 1-1.04 0l-.01.02a.04.04 0 0 0 0 .05c.03.03.07.05.12.06a1.73 1.73 0 0 0 .96-.04c.02-.01.03-.03.03-.05a.05.05 0 0 0-.02-.03h-.04Z" fill="#2EA0AA"/><path d="M7.97 8.6c.32.03.71.17.96.4l.02.04c.01.09.02.17.01.26a392.66 392.66 0 0 1-.04 1.1c-.1-.01-.14-.07-.15-.17v-.96c0-.03-.04-.08-.07-.1a1.93 1.93 0 0 0-.89-.26.52.52 0 0 1 .16-.3ZM9.83 8.63a.4.4 0 0 1 .12.3c-.15.03-.71.17-.71.33a496.4 496.4 0 0 1-.02 1.08l-.15.06-.02-.01-.02-1.32.01-.03c.17-.22.54-.36.79-.41Z" fill="#78C2BF"/><path d="m9.7 10.98-.63-.1c-.02 0-.02 0-.02-.02v-.33l.01-.03.26-.1c.01 0 .02 0 .02-.02V9.32l.01-.03.15-.07h.04c.25.33.72.4 1 .06l.13-.27c.03.02.05.02.05 0h.05v.03l-.01.2.02.2a.6.6 0 0 1-.02.3l-.14.44a.43.43 0 0 1-.07.14 1.24 1.24 0 0 0-.1.15h-.02c-.02 0-.03.02-.03.04l-.02.04c-.13.14-.27.26-.43.37-.03.02-.03.02 0 .02h.01a.17.17 0 0 1-.09.05.4.4 0 0 1-.16-.01Z" fill="#47B2B9"/><path d="M8.32 9.2a.56.56 0 0 1-.68.1.3.3 0 0 1-.14-.16l.01-.02a1.88 1.88 0 0 1 .81.07.02.02 0 0 1 0 .01ZM10.5 9.15c-.17.29-.59.27-.81.07a.03.03 0 0 1 0-.03.03.03 0 0 1 .01-.02c.26-.07.52-.09.78-.05.02 0 .02.01.01.03Z" fill="#DFC791"/><path opacity=".4" fill-rule="evenodd" d="M9 15A6 6 0 1 0 9 3a6 6 0 0 0 0 12Zm0-2a4 4 0 1 0 0-8 4 4 0 0 0 0 8Z" fill="#47B2B9"/></svg>