<!-- by TradingView --><svg width="18" height="18" viewBox="0 0 18 18" xmlns="http://www.w3.org/2000/svg"><path fill="#F0F3FA" d="M0 0h18v18H0z"/><circle cx="9" cy="9" r="5" fill="#7329BD"/><path fill-rule="evenodd" d="M8 12.66 6 6.25c1.86-.83 4.57-1.5 5.25.15.5 1.22 0 1.94-.4 2.2-.02.02-.01.07.02.08.8.21 1.2.9 1.12 1.64-.13 1.2-1.34 1.72-2.38 2.03-.9.27-1.61.31-1.61.31Zm.52-4.18L8.1 7.17l.82-.18c.25-.05.5.07.62.29.16.28.05.62-.22.77l-.79.43Zm.36 1.41.36 1.01.77-.36c.48-.22.15-.9-.32-.82l-.8.17Z" fill="url(#avhjkkv23)"/><ellipse rx=".6" ry="1.26" transform="matrix(.5445 .83876 -.84377 .5367 6.67 5.95)" fill="#fff"/><defs><linearGradient id="avhjkkv23" x1="8.99" y1="5.39" x2="8.99" y2="12.66" gradientUnits="userSpaceOnUse"><stop stop-color="#F7D93C"/><stop offset="1" stop-color="#FBCA00"/></linearGradient></defs></svg>