<!-- by TradingView --><svg width="18" height="18" viewBox="0 0 18 18" xmlns="http://www.w3.org/2000/svg"><path fill="#F0F3FA" d="M0 0h18v18H0z"/><path fill-rule="evenodd" d="M9 14.5a5.5 5.5 0 1 0 0-11 5.5 5.5 0 0 0 0 11Zm0 .5A6 6 0 1 0 9 3a6 6 0 0 0 0 12Z" fill="#35AF3B"/><path fill-rule="evenodd" d="M13 5.62v5.27c0 .34-.3.61-.67.61H8.67c-.37 0-.67-.27-.67-.6V7.1c0-.33.3-.6.67-.6h3.46l.87-.88ZM9.25 7.8c0-.16.15-.3.33-.3h2.09c.18 0 .33.14.33.3v2.4c0 .16-.15.3-.33.3H9.58c-.18 0-.33-.14-.33-.3V7.8Z" fill="url(#aithajx4q)"/><path d="M12 10.2c0 .16-.15.3-.33.3H8.98c-.31 0-.7-.02-.98-.46v.85c0 .34.3.61.67.61h2.66c.42 0 .67-.3.67-.6v-.7Z" fill="url(#bithajx4q)"/><path d="M10.33 6.5H8.67c-.37 0-.67.27-.67.6v2.94c.29.44.67.46.98.46h.6c-.18 0-.33-.14-.33-.3V7.8c0-.16.15-.3.33-.3h.75v-1Z" fill="url(#cithajx4q)"/><path fill-rule="evenodd" d="M5 6.3v5.54c0 .37.3.66.67.66h3.66c.37 0 .67-.3.67-.66V8.16c0-.37-.3-.66-.67-.66H5.87L5 6.3Zm4 2.53a.33.33 0 0 0-.33-.33H6.33a.33.33 0 0 0-.33.33v2.34c0 .18.15.33.33.33h2.34c.18 0 .33-.15.33-.33V8.83Z" fill="url(#dithajx4q)"/><path d="M5 11v.84c0 .37.3.66.67.66h2.66c.4 0 .67-.16.67-.66v-.67c0 .18-.15.33-.33.33H5.83c-.33 0-.63-.1-.83-.5Z" fill="url(#eithajx4q)"/><path d="M7.67 7.5h-1.8L5 6.3V11c.2.4.5.5.83.5h.5a.33.33 0 0 1-.33-.33V8.83c0-.18.15-.33.33-.33h1.34v-1Z" fill="url(#fithajx4q)"/><defs><linearGradient id="aithajx4q" x1="12.17" y1="5.86" x2="12.17" y2="10.57" gradientUnits="userSpaceOnUse"><stop offset="0" stop-color="#72A8CF"/><stop offset="1" stop-color="#1071AB"/></linearGradient><linearGradient id="bithajx4q" x1="11.67" y1="10.72" x2="8.5" y2="10.72" gradientUnits="userSpaceOnUse"><stop stop-color="#0F6192"/><stop offset="1" stop-color="#1473AD"/></linearGradient><linearGradient id="cithajx4q" x1="8.67" y1="6.31" x2="8.53" y2="10.12" gradientUnits="userSpaceOnUse"><stop offset="0" stop-color="#72A8CF"/><stop offset="1" stop-color="#116394"/></linearGradient><linearGradient id="dithajx4q" x1="7.5" y1="6.6" x2="7.5" y2="13" gradientUnits="userSpaceOnUse"><stop stop-color="#36DD21"/><stop offset="1" stop-color="#34B238"/></linearGradient><linearGradient id="eithajx4q" x1="8.67" y1="12.18" x2="5" y2="12.18" gradientUnits="userSpaceOnUse"><stop stop-color="#34A93A"/><stop offset="1" stop-color="#34B537"/></linearGradient><linearGradient id="fithajx4q" x1="5.33" y1="7.58" x2="5.33" y2="11.69" gradientUnits="userSpaceOnUse"><stop stop-color="#35E11D"/><stop offset="1" stop-color="#31A137"/></linearGradient></defs></svg>