<!-- by TradingView --><svg xmlns="http://www.w3.org/2000/svg" width="18" height="18"><path fill="#F0F3FA" d="M0 0h18v18H0z"/><path d="M12.7 9.46c-.16.21-.27.4-.47.57.55 1.49-.8 3.29-2.35 3.3H6.6v-3h3.3A3.13 3.13 0 0013 7.28 3.19 3.19 0 009.9 4H6v4.33h3.88c.4 0 .8.15 1.16.34.2-.17.34-.34.5-.56-.5-.3-1.08-.44-1.65-.44H6.6v-3h3.46c1.2.1 2.29 1.36 2.28 2.52 0 1.24-1.2 2.48-2.46 2.48H6V14h3.88a3.19 3.19 0 002.81-4.54z" fill="url(#andojyyg5)"/><defs><linearGradient id="andojyyg5" x1="10.6" y1="5.92" x2="6.98" y2="12.17" gradientUnits="userSpaceOnUse"><stop stop-color="#00F0FF"/><stop offset=".21" stop-color="#00B1FF"/><stop offset="1" stop-color="#60F"/></linearGradient></defs></svg>