<!-- by TradingView --><svg width="18" height="18" viewBox="0 0 18 18" xmlns="http://www.w3.org/2000/svg"><path fill="url(#adltifjpy)" d="M0 0h18v18H0z"/><path d="M6.84 7.82a.34.34 0 0 0 0-.34.45.45 0 0 0-.13-.14.61.61 0 0 0-.19-.1.74.74 0 0 0-.63.1.45.45 0 0 0-.12.15.34.34 0 0 0 0 .33c.03.06.07.1.12.14.06.04.12.08.2.1a.74.74 0 0 0 .62-.1c.06-.04.1-.09.13-.14Zm-.55-.36h.03c.06 0 .11.05.11.11v.16c0 .07-.05.12-.12.12H6.3a.12.12 0 0 1-.12-.12v-.16c0-.06.06-.12.12-.11Z" fill="#FEFEFE"/><path opacity=".3" d="M7.82 11.23H5.69v1.21h1.83l-.2-.13c-.01-.05 0-.17.06-.22.05-.04.25-.1.34-.11v-.4l.1-.35Z" fill="#0622AB"/><path fill="#0622AB" d="M12.55 9.76h.54v3.38h-.54z"/><path d="M6.27 6.42c-.1.07-.17.07-.25 0a.05.05 0 0 1 0-.07.35.35 0 0 0 .06-.2c0-.03-.01-.05-.05-.05h-.05c-.04 0-.06.03-.06.06l-.02.33c0 .04-.04.06-.08.06H5.8c-.05-.02-.08-.05-.07-.1 0-.11.04-.22.01-.33 0-.05-.01-.1.01-.14a.27.27 0 0 0 .04-.11 3.27 3.27 0 0 1 .04-.35c.06-.03.11-.03.17 0 .01 0 .02 0 .03.02.01.05-.04.1-.05.15l-.03.2c-.01.04 0 .06.05.05h.03a.1.1 0 0 0 .05-.03c.05-.05.03-.14.03-.2.01-.06.04-.12.03-.18V5.5c.06-.05.12-.05.18 0 .02.01.02.02.02.04l-.06.22a.4.4 0 0 0-.01.15c.02.17-.05.35 0 .51ZM10.5 5.75v.02c.08 0 .08 0 .15.04.02.02.02.06 0 .08-.08.07-.13.01-.17.05-.03.02-.04.13-.04.17v.32c0 .11-.2.17-.2.06-.02-.1 0-.2.02-.3a.5.5 0 0 0 0-.13l-.01-.02a.46.46 0 0 1-.13-.04.04.04 0 0 1 0-.07l.14-.06c.03-.01.04-.03.04-.06V5.67a.2.2 0 0 1 .12-.06h.03c.1.08.06.06.04.14ZM11.04 5.75c0 .02 0 .02.02.02.07 0 .07 0 .14.04.02.02.02.06 0 .08-.08.07-.13.01-.17.05-.03.02-.04.13-.04.17v.32c0 .11-.2.17-.2.06-.01-.1 0-.2.02-.3v-.13l-.01-.02a.46.46 0 0 1-.12-.04.04.04 0 0 1 0-.07l.13-.06c.03-.01.04-.03.04-.06V5.67a.2.2 0 0 1 .12-.06H11c.1.08.06.06.04.14ZM7.4 5.76c.06 0 .1.02.14.07.01.02 0 .04-.01.05-.11.05-.2.13-.3.22-.04.06-.07.13-.06.23l.01.07c.02.06 0 .1-.06.11-.15.05-.14-.06-.12-.15 0-.08 0-.16.02-.23a.68.68 0 0 0 .02-.26l.01-.03a.15.15 0 0 1 .1-.03c.04 0 .06.03.1.04h.02l.12-.1ZM7.6 5.83c.04-.03.1-.03.14-.01.02 0 .04.02.05.04h.05l.09-.09a.06.06 0 0 1 .05-.01c.07 0 .1.04.1.1 0 .02 0 .03-.02.03a.76.76 0 0 0-.28.23.14.14 0 0 0-.04.09v.2c0 .12-.19.17-.2.04 0-.1.01-.2.04-.32.01-.08-.05-.24.02-.3ZM11.96 5.85H12l.08-.07a.1.1 0 0 1 .1-.02c.05.02.1.08.04.13l-.3.24a.09.09 0 0 0-.02.07v.22c0 .06-.03.1-.1.1a.1.1 0 0 1-.03 0c-.05-.01-.07-.04-.07-.09 0-.13.01-.3.06-.43.03-.1-.09-.18.1-.2.04 0 .08.02.1.05ZM8.48 5.99a.5.5 0 0 1 .04-.09l.01-.02c.01-.05.04-.08.08-.1h.03l.07.03c.02.02.03.03.03.06 0 .02 0 .04-.02.05a9.33 9.33 0 0 0-.29.54.65.65 0 0 0-.05.18c0 .04-.03.06-.06.07a.1.1 0 0 1-.06 0c-.04 0-.05-.03-.05-.07l.03-.1a.4.4 0 0 0 0-.25l-.1-.4c-.02-.07 0-.1.07-.1h.02c.08-.01.12.03.12.1 0 .08 0 .16.02.22l.01.02h.02l.02-.01.06-.13Z" fill="#D60B06"/><path fill-rule="evenodd" d="M9.79 6.51c.11-.02.17-.13.2-.22.07-.13.1-.35-.02-.45-.08-.07-.17-.08-.27-.03s-.16.26-.17.35c0 .1.01.19.05.26.04.08.1.11.2.1ZM9.7 6.3c.01.04.03.07.05.07.02 0 .04-.01.06-.05a.48.48 0 0 0 .05-.15.48.48 0 0 0 0-.16c0-.04-.02-.07-.04-.07s-.04.01-.06.05a.48.48 0 0 0-.05.15.48.48 0 0 0 0 .16Z" fill="#D60B06"/><path d="m11.34 6.33.01-.03a.5.5 0 0 0 .3-.3c.07-.23-.26-.26-.37-.12a.47.47 0 0 0-.08.17c-.04.14-.08.46.15.47.12 0 .2-.05.27-.14.03-.04.02-.08-.02-.1l-.01-.01c-.05-.03-.08-.02-.1.03-.03.05-.1.08-.15.03Zm.02-.2c-.02-.02 0-.07.03-.12.03-.05.07-.08.09-.07.02.02 0 .07-.03.11-.03.05-.07.08-.09.07Z" fill="#D60B06"/><path fill-rule="evenodd" d="m6.91 6.46-.01-.58c-.07-.06-.13-.1-.16-.1-.1 0-.2.04-.32.14-.04.03-.04.06 0 .1v.01c.03.04.06.05.1.01.07-.06.12-.09.15-.09.01 0 .02 0 .02.02 0 .03-.01.04-.04.06a.88.88 0 0 0-.2.12c-.12.1-.19.42.05.37.06 0 .11-.05.16-.08l.04-.03h.01v.04l.02.02a.3.3 0 0 0 .18 0Zm-.35-.11.03-.02a.45.45 0 0 0 .06-.11c.02-.05 0-.06-.03-.03a.67.67 0 0 0-.12.11v.03c.02.02.04.02.06.02Z" fill="#D60B06"/><path d="M11.61 10.21v.01h-.06v-.02c.05-.41-.19-.62-.46-.86l-.01-.04.01-.01a.14.14 0 0 0 0-.13.18.18 0 0 0-.11-.07c-.02 0-.02-.02 0-.03.28-.27.7-.2 1.05-.12l.02-.01c-.12-.7-.77-1-1.3-1.07-.02 0-.02-.01 0-.02.31-.25.75-.33 1.14-.3.04 0 .04 0 .02-.03-1.07-.88-2.59-.72-3.77-.15a.11.11 0 0 1-.08 0 1.42 1.42 0 0 0-.79-.05c-.14.03-.02.54.02.63v.03c-.08.3-.11.54.04.83.02.02 0 .04-.02.04-.05 0-.1.02-.14.05a.04.04 0 0 0-.01.03c-.03.14.2.18.3.2l.02.02.12.15c.24.2.52.32.84.32.05 0 .05 0 0 .02l-.33.1c-.18.03-.33.1-.45.2a.37.37 0 0 0-.09.47c.03.05.07.1.12.12l.02.03v.03c-.03.04-.03.08.02.12v.02l-.1.05-.03-.01c-.07-.1-.17-.13-.28-.08-.04.02-.06.06-.06.11s.02.09.05.12a.7.7 0 0 0 .6.25c.02 0 .02 0 .01.02-.14.25-.2.5-.15.78 0 .03 0 .05-.03.05-.1.02-.18.04-.25.07-.12.05-.17.1-.17.16.01.07.1.13.24.17.23.07.46.06.69.07.44.03.88.05 1.33.01.4-.03.82.02 1.23.02.07 0 .14.01.19.04.05.02.04.04 0 .04-.21 0-.5 0-.87-.02-.19-.01-.37-.02-.55 0a6.7 6.7 0 0 1-1.02 0c-.34-.02-.7.02-1.02-.09-.14-.04-.23-.1-.27-.18a.15.15 0 0 1-.02-.09c0-.03.02-.06.04-.09.05-.04.1-.08.18-.1.05-.03.12-.05.2-.07.02 0 .02 0 .02-.02-.03-.24.01-.46.1-.67v-.03a.88.88 0 0 1-.18-.03.71.71 0 0 1-.37-.26.26.26 0 0 1-.05-.14c0-.06.02-.11.05-.15.05-.04.1-.07.17-.07.06 0 .12.01.18.05h.02v-.07a.51.51 0 0 1-.14-.22.41.41 0 0 1 .12-.45c.12-.1.28-.18.5-.23v-.02c-.27-.07-.5-.22-.65-.43l-.03-.02c-.15-.03-.4-.14-.3-.34a.26.26 0 0 1 .1-.07.03.03 0 0 0 .02-.04.97.97 0 0 1-.02-.77v-.03c-.08-.18-.15-.47-.03-.65a.12.12 0 0 1 .06-.05c.24-.1.58-.03.81.05a.1.1 0 0 0 .08 0c1.2-.57 2.78-.76 3.85.19l.01.01.02.02.14.1c.01.02 0 .03-.01.02-.4-.06-.83-.01-1.2.16-.03.02-.03.03 0 .03.6.13 1.15.54 1.2 1.2l-.01.02h-.02c-.21-.06-.6-.17-1.01 0v.04c.06.05.08.12.06.2 0 .02 0 .03.02.04.3.2.45.53.43.89Z" fill="#FEFEFE"/><path fill-rule="evenodd" d="M6.78 7.8c.02-.05.04-.1.04-.15 0-.05-.02-.1-.04-.14a.39.39 0 0 0-.11-.12.55.55 0 0 0-.17-.08.67.67 0 0 0-.56.08.39.39 0 0 0-.11.12.28.28 0 0 0 0 .29l.11.12a.67.67 0 0 0 .73 0 .39.39 0 0 0 .1-.12Zm-.34.06a.17.17 0 0 0 .06-.12v-.17c0-.05-.02-.1-.06-.13a.17.17 0 0 0-.12-.05h-.03c-.05 0-.1.02-.13.05a.17.17 0 0 0-.05.13v.17c0 .05.02.09.05.12.04.04.08.06.13.06h.02c.05 0 .1-.02.13-.06Z" fill="#E90302"/><path fill-rule="evenodd" d="M9.12 8.84c.12-.18.2-.35.23-.5.07-.37-.28-.69-.65-.54-.38.16-.55.57-.83.84l-.01.03c0 .07-.02.17-.1.2h-.02c-.14-.03-.18-.24-.16-.36a.17.17 0 0 1 .07-.1c.01-.02.02-.03.01-.04a1.6 1.6 0 0 0-.12-.34c-.04-.09-.13.06-.14.1-.09.25-.1.48-.02.69l.02.02c.14 0 .28.04.4.1l.04.01a.36.36 0 0 1 .2.02c.3.1.63.08.92 0 .07-.02.12-.07.16-.13Zm-.32-.08c.06.1.17.1.23 0a.44.44 0 0 0 0-.4c-.06-.11-.17-.11-.23 0a.44.44 0 0 0 0 .4Z" fill="#FFEB01"/><path d="M10.59 9.09h-.03l-.01-.01v-.02c.2-.23.56-.7.93-.59.02 0 .03.02.04.04v.05a.36.36 0 0 1-.16.18c-.16.08-.3.19-.43.32a.06.06 0 0 1-.05.01c-.1 0-.2 0-.3.02Z" fill="#E90302"/><path d="M7.46 9c.1.02.19 0 .2-.03 0-.03-.08-.07-.18-.08-.1-.02-.18 0-.19.03 0 .03.07.07.17.08Z" fill="#FEFEFE"/><path fill-rule="evenodd" d="M8.13 9.5c0 .02 0 .03.02.03.46.18 1.58.08 1.67-.52.02-.16-.14-.23-.27-.22-.24 0-.4.17-.62.22-.33.08-.65.07-.96-.03H7.9a.13.13 0 0 0-.04.02v.03c.19.04.28.3.28.48Zm1.37-.46c0 .02-.02.03-.04.04a.92.92 0 0 1-.49.2h-.03v.03c.26 0 .46-.08.63-.22.02-.02.03 0 .03.02.01.03.07.03.06 0L9.63 9A.04.04 0 0 0 9.6 9a.22.22 0 0 0-.23.01c-.01.01 0 .04.01.03l.09-.02c.02 0 .03.02.02.03Z" fill="#E90302"/><path d="M9.92 9.32c-.03-.16.2-.3.33-.26a.2.2 0 0 1 .11.08v.03a.7.7 0 0 0-.14.14c-.05.07-.06.12-.04.17v.03l-.03.02c-.13.01-.2-.06-.23-.2Z" fill="#E90302"/><path d="M7.96 9.13c.07.09.11.21.14.36 0 .02 0 .02-.02.02a.5.5 0 0 1-.18-.12c-.05-.05-.1-.1-.14-.17-.04-.05-.03-.1.03-.12l.03-.01c.06-.03.1-.02.14.04Z" fill="#FFEB01"/><path d="M10.32 9.49c0-.05.01-.1.06-.11.2-.09.4-.1.61-.07.04.01.06.03.09.06a.1.1 0 0 1 .02.09.29.29 0 0 1-.05.1c0 .02-.02.02-.03.01a.76.76 0 0 0-.6-.02c-.04.01-.08 0-.1-.04a.02.02 0 0 0-.03 0 .08.08 0 0 1-.07 0l-.02-.02c0-.2.18-.33.37-.37a.8.8 0 0 1 .39 0c.05 0 .08.04.1.1v.01c.01.05 0 .07-.06.06a.92.92 0 0 0-.68.1c-.04.02-.05.05-.04.09h.04ZM7.69 9.16c.03.07.06.13.1.18.05.05.04.06-.01.03a.63.63 0 0 1-.23-.2c-.01-.02 0-.03.01-.04h.08c.02 0 .04 0 .05.03Z" fill="#E90302"/><path d="M11.14 9.47c0-.03.01-.03.03-.01.24.18.35.42.34.74 0 0 0 .02-.02.02a.2.2 0 0 1-.1 0 .7.7 0 0 1-.13-.07 1.1 1.1 0 0 0-.22-.08 2.14 2.14 0 0 0-.23-.04c-.05 0-.05-.02 0-.04.2-.07.3-.33.33-.52Z" fill="#FFEB01"/><path d="M10.36 9.6a.14.14 0 0 0-.06.04c-.05.06 0 .14.07.16.2.06.4.03.6-.1H11v.02c0 .1-.05.16-.13.2-.2.11-.41.17-.62.17-.12 0-.18-.12-.28-.16-.09-.04-.18-.14-.14-.25a.32.32 0 0 1 .12-.15.05.05 0 0 1 .06 0c.05.03.1.03.16.03.06-.01.13 0 .19.02v.01Z" fill="#E90302"/><path d="M10.38 9.6a.6.6 0 0 1 .46-.06 3.64 3.64 0 0 0 .19.06c-.02.05-.04.08-.07.1l-.28.1c-.1.01-.2 0-.3-.03-.08-.03-.06-.13 0-.17Z" fill="#E90302"/><path d="M9.7 9.88c0 .06.03.13.08.18.04.05.1.09.17.11.02.01 0 .02 0 .04-.06.06-.1.1-.15.13-.09.06-.19.03-.2-.09a.4.4 0 0 0-.1-.23c-.22-.25.19-.36.2-.14Z" fill="#FFEB01"/><path d="M7.69 9.95c.12-.1.27-.17.45-.2.03 0 .03 0 .01.03l-.14.16-.02.02a.46.46 0 0 0-.2.09c-.15.11-.08.32.1.35.05.01.08.05.08.12l-.02.02c-.15.01-.26-.03-.34-.15-.09-.12-.03-.35.08-.44Z" fill="#D60B06"/><path d="M9.74 9.93c0-.04.03-.12.08-.08.09.1.24.23.37.27v.02a.07.07 0 0 1-.06.03.5.5 0 0 1-.23-.06c-.09-.05-.14-.11-.16-.18Z" fill="#FFEB01"/><path d="M7.74 10.18c.01-.06.04-.1.1-.13l.08-.04c.06-.03.07-.01.05.05a.64.64 0 0 0-.03.29l-.01.02H7.9c-.11-.01-.17-.08-.16-.19Z" fill="#FEFEFE"/><path d="M8.75 10.45c-.04 0-.07-.1-.07-.21 0-.12.02-.21.06-.21.04 0 .07.09.08.2 0 .12-.03.22-.07.22Z" fill="#FDF828"/><path d="M8.05 9.97a.31.31 0 0 1 .06-.1.6.6 0 0 1 .56-.2.8.8 0 0 1 .41.16c.12.1.18.23.18.4 0 .25-.1.42-.3.52a.95.95 0 0 1-.58.06.6.6 0 0 1-.26-.13.4.4 0 0 1-.13-.25c-.02-.16 0-.3.06-.46Zm.56.47c.04.06.08.08.14.08.05 0 .1-.02.13-.08a.36.36 0 0 0 .06-.2.36.36 0 0 0-.06-.2c-.04-.06-.08-.09-.13-.09-.06 0-.1.03-.14.08a.36.36 0 0 0-.06.2c0 .09.02.15.06.2Zm-.38-.34.04.01.02.02V10.42l-.06.03c-.02 0-.02.01-.02.03l.02.02h.23c.01 0 .02 0 .02-.02v-.03a.54.54 0 0 1-.05-.03.03.03 0 0 1-.02-.03V10c0-.02 0-.03-.02-.04h-.04l-.12.1c-.03.01-.03.03 0 .03Z" fill="#FDF828"/><path d="M10.6 10.16c.05.07.09.15.12.24v.06l-.02.03-.02.01-.03-.01a.56.56 0 0 0-.19-.36v-.03a.86.86 0 0 1 .43-.03c.14.03.28.08.41.15.02.01.02.02 0 .02a.41.41 0 0 1-.22-.04.95.95 0 0 0-.49-.05ZM7.01 10.46v.22h-.1c-.02 0-.02.01-.02.03v.33l.02.01H7c.01 0 .02 0 .02.02v.19l-.04.03H5.6l-.02-.02v-.21H5.68c.02 0 .03-.01.03-.03v-.32l-.02-.02H5.6c-.03 0-.04-.01-.04-.04v-.15c0-.03.01-.04.04-.04h.55c.01 0 .02 0 .03.02l.08.21c.02.05.03.05.05 0l.08-.2c0-.02.01-.03.03-.03H7Z" fill="#FEFEFE"/><path d="M5.95 10.7c-.02-.03-.02-.02-.02 0v.39s0 .02.02.02l.06.01c.02 0 .03.02.04.04v.02c0 .02 0 .03-.03.03h-.37c-.01 0-.02 0-.02-.02v-.05l.02-.02h.08a.04.04 0 0 0 .04-.04v-.42l-.01-.03-.03-.01h-.07c-.02 0-.03-.01-.03-.03v-.04l.01-.02.03-.01h.43a.06.06 0 0 1 .06.04l.11.31c.02.05.04.05.05 0l.13-.32c0-.02.02-.03.04-.03h.42c.03 0 .05.01.05.04v.04l-.03.01-.08.01-.02.01v.47l.03.01h.07l.02.02v.06c0 .02 0 .03-.02.03H6.5c-.03 0-.04-.02-.05-.05v-.03l.03-.02c.06 0 .09-.01.09-.04v-.32c0-.1 0-.1-.04-.01a6.8 6.8 0 0 1-.19.46H6.2c-.05 0-.07-.02-.08-.05l-.17-.46Z" fill="#E90302"/><path d="M10.05 11.45c-.2-.18-.36-.4-.48-.64v-.03c.06-.05.11-.1.15-.17.01-.02.02-.02.04-.02.24 0 .46.05.67.15.01 0 .02.02 0 .04a.04.04 0 0 1-.05.02c-.19-.09-.38-.14-.59-.14l-.02.01-.1.1a.07.07 0 0 0 0 .09c.15.26.34.48.56.67v.01a.7.7 0 0 1-.58-.14.02.02 0 0 0-.03.02c0 .09.05.17.12.23l.01.02c0 .07.03.1.1.09.14-.03.27-.05.38-.05.02 0 .04.01.05.03v.01c.02 0 .02.04 0 .04-.17 0-.32.02-.46.05h-.03l-.12-.08a.02.02 0 0 1 0-.04l.02-.01c0-.01 0-.02-.02-.03a.35.35 0 0 1-.12-.27l-.01-.03c-.09-.1-.25-.1-.37-.1-.02.01-.02 0 0-.01a.44.44 0 0 0 .15-.28l.29.29c.1.09.23.15.35.2.01 0 .12 0 .09-.03Z" fill="#FEFEFE"/><path fill-rule="evenodd" d="M12.53 11.88c.25-.59-.04-1.29-.63-1.53-.6-.25-1.29.04-1.54.63-.24.6.05 1.3.64 1.54.6.24 1.29-.05 1.53-.64Zm-.64-.38v-.03c.1-.07.13-.17.1-.3 0-.04-.04-.08-.09-.12a.76.76 0 0 0-.12-.07c-.02 0-.02-.01-.02-.03l.04-.14c.01-.03 0-.06-.03-.06l-.08-.02a.06.06 0 0 0-.07.05l-.03.12c0 .01 0 .02-.02.02h-.04c-.02-.02-.02-.02 0-.05.01-.08.01-.09.03-.12 0-.03 0-.04-.02-.05-.14-.05-.16 0-.18.14 0 .02-.02.03-.04.03l-.18-.04c-.03-.01-.05 0-.06.03a.44.44 0 0 0-.03.09c0 .02 0 .03.02.04l.1.03c.02 0 .04.04.03.07l-.14.55c0 .03-.07.02-.09.01-.04 0-.07 0-.08.04l-.04.08c-.01.03 0 .05.03.06l.2.05s.02.02.01.04l-.04.15c0 .02 0 .04.02.04l.12.02.03-.01.04-.16c0-.04.07-.02.06.02a.5.5 0 0 1-.03.12c-.01.04 0 .06.03.07.07.03.11.02.14-.01.02-.04.02-.09.03-.13 0-.03.02-.05.05-.04.1.01.18 0 .24-.01.2-.07.26-.34.11-.48Z" fill="#FF8F01"/><path d="M7.6 10.83a.77.77 0 0 1 .44-.12c.03 0 .06 0 .1.02l.07.04.11.05.02.02c0 .04 0 .07-.04.09h-.03c-.04 0-.08 0-.12.02a.15.15 0 0 0-.06.04.48.48 0 0 0-.04.05.36.36 0 0 1-.05.06.13.13 0 0 1-.08.03.69.69 0 0 1-.57-.23.19.19 0 0 1-.05-.12l.01-.03a.15.15 0 0 1 .07-.06h.08l.07.05a.2.2 0 0 1 .05.08c0 .01.01.02.03 0Z" fill="#FFEB01"/><path d="M8.27 10.97c.03 0 .06 0 .08-.03a.1.1 0 0 0 .03-.08c0-.01 0-.02.02-.02l.08.02c.01 0 .02 0 .02.02.04.07.06.13.08.2 0 .04 0 .05-.05.03a.14.14 0 0 0-.06-.03.4.4 0 0 0-.06 0h-.06l-.02-.01a.12.12 0 0 0-.06-.08c-.02-.01-.02-.02 0-.02Z" fill="#FEFEFE"/><path fill-rule="evenodd" d="M8.56 10.87v.05c.04.07.05.13.06.2l-.01.02c-.08.04-.13.07-.13.16 0 .02 0 .02.02.02.1-.01.19 0 .25.06.03.02.05.05.08.1l.06.13c.01.01.02.02.04.01l.13-.02c.02 0 .02-.02.01-.03a.45.45 0 0 1-.08-.18c0-.02 0-.05.03-.06a.5.5 0 0 0 .27-.39c0-.02.03-.03.04-.01.14.17.28.3.44.42l.13.06c.05.01.06 0 .02-.03a2 2 0 0 1-.38-.55.07.07 0 0 1 .02-.09c.05-.04.09-.09.12-.14.02-.05.07-.05.12-.05.23 0 .45.06.65.16h.03l.13-.15a.05.05 0 0 0 0-.04.6.6 0 0 0-.2-.4.04.04 0 0 0-.04 0h-.1l-.03.02a.17.17 0 0 1-.2.06c-.02 0-.04 0-.05.02a.74.74 0 0 1-.17.15c-.05.04-.1.05-.16.03-.1-.03-.08-.2-.14-.29-.06-.08-.17-.2-.1-.32.06-.12.2-.07.29 0 .05.04.08.02.07-.05-.02-.1.07-.19.14-.24.01-.02.02-.03 0-.05-.14-.2.1-.48.32-.43.06.02.11.05.16.1l.03.01c.02 0 .03 0 .04-.02.2-.27.44-.54.78-.66.14-.04.43 0 .26.2a.74.74 0 0 1-.22.17c-.05.02-.04.03 0 .03.24-.02.47 0 .7.05.06.01.02-.03.01-.04-.12-.53-.55-.85-1.3-.97-.01 0-.02 0-.02-.02v-.02c.26-.29.74-.34 1.1-.35.04 0 .04-.02.01-.03-1.04-.81-2.5-.6-3.63-.08a.2.2 0 0 1-.05.02h-.06c-.24-.1-.49-.12-.75-.08a.05.05 0 0 0-.04.04v.03a.8.8 0 0 0 .05.49.5.5 0 0 1 .02.06v.03a.76.76 0 0 0-.09.42c0 .02.01.04.03.05h.02l.07-.33c.05-.19.21-.18.27 0a4.97 4.97 0 0 0 .19.47h.04a10.42 10.42 0 0 0 .2-.22c.14-.19.28-.38.47-.51.35-.26.9-.09.88.38-.01.17-.08.36-.22.55-.04.05-.03.07.03.04.3-.15.81-.06.58.37-.08.16-.24.27-.48.34a1.9 1.9 0 0 1-.6.07v.01l.01.02c.34.07.6.28.56.64-.03.4-.35.6-.71.58l-.02.01Zm.27.14.03.16c0 .05.07.06.1.02l.08-.1.01-.03V11a.06.06 0 0 0-.05-.06h-.1a.06.06 0 0 0-.07.07Z" fill="#017BEF"/><path d="M8.9 11.16 8.88 11v-.02h.14v.09l-.08.1H8.9l-.01-.01Z" fill="#FDF828"/><path d="M8.3 11.64c.02.01.02.02 0 .02-.1 0-.18 0-.24.02a.87.87 0 0 0-.23.07H7.8v-.02c0-.29.12-.47.29-.7.03-.03.07-.04.12-.02l.04.02c.04.02.05.05 0 .08-.2.15-.1.39.05.53Z" fill="#E90302"/><path d="M11.46 11.14c0-.01 0-.02.02-.03h.07c.05.02.1.04.12.07.03.03.05.06.04.09v.01c-.01.03-.03.05-.08.06a.27.27 0 0 1-.14 0h-.03c-.02 0-.03-.01-.03-.03v-.03l.03-.14Z" fill="#FF8F01"/><path d="m8.2 11.22.07-.07.03-.02a.64.64 0 0 1 .18 0c.04 0 .04.01 0 .03v.01l-.03.02-.24.04c-.02 0-.02 0 0-.01Z" fill="#FDF828"/><path d="m8.42 11.32-.02.02a2.8 2.8 0 0 1-.18.06l-.06-.01v-.02c.03 0 .03-.03.03-.05v-.03l.02-.02.21-.05h.02v.02c0 .02 0 .06-.02.08Z" fill="#FFEB01"/><path d="M9.41 11.46a.04.04 0 0 0-.01-.07c-.11-.04-.23-.03-.34-.01h-.03v-.02c.12-.04.32-.07.43 0 .04.04.06.07.05.12v.03c.04.08.08.14.13.2v.02c-.3.13-.58.18-.88.17-.07 0-.12-.07-.12-.13v-.13c0-.03.01-.04.04-.02.1.07.3.05.58-.05a.32.32 0 0 0 .15-.11Z" fill="#FEFEFE"/><path d="M8.58 11.5a1.72 1.72 0 0 0-.1-.1c-.01-.02 0-.04.01-.04h.12c.01-.01.02 0 .03.01.01.09.01.16-.01.2a.23.23 0 0 0-.03.13c0 .02 0 .02-.02.02a.5.5 0 0 1-.38-.27v-.01l.22-.07h.01c.04.07.08.12.14.14.04.02.04.01.01-.02Z" fill="#FFEB01"/><path fill-rule="evenodd" d="m11.37 11.95-.01-.03a.31.31 0 0 0-.1-.03c-.02 0-.03 0-.03.02l-.04.17-.01.01h-.02l-.05-.02h-.02v-.02l.05-.15v-.03l-.02-.01-.21-.06c-.01 0-.02-.01-.01-.03l.02-.06.04-.02h.12l.02-.04a35.6 35.6 0 0 0 .13-.62c0-.01 0-.02-.02-.03l-.09-.03a.04.04 0 0 1-.02-.04v-.04l.01-.02h.03l.2.04c.03 0 .04 0 .04-.02l.05-.15c0-.02.02-.03.03-.02h.04c.02 0 .03.01.02.04l-.04.15.01.03a.2.2 0 0 0 .1.03l.02-.02a.28.28 0 0 0 .04-.12c0-.03.01-.05.05-.05h.01c.03 0 .05.01.04.05l-.04.14.01.03.06.03.12.07c.04.04.06.08.07.12 0 .12-.04.2-.15.24l-.01.02v.01c.13.07.17.17.1.31a.24.24 0 0 1-.16.15.67.67 0 0 1-.24 0c-.03 0-.05 0-.05.04l-.03.12-.01.03a.05.05 0 0 1-.04 0h-.03c-.03 0-.03-.01-.02-.04a.75.75 0 0 0 .04-.15Zm.06-.84c0-.02.01-.03.02-.03l.04-.01.09.02c.05.01.1.04.13.07.04.04.05.08.04.12v.01c-.01.04-.04.07-.09.09a.26.26 0 0 1-.15 0l-.09-.02a.05.05 0 0 1-.03-.02v-.04l.04-.2Zm-.07.35a.05.05 0 0 0-.02.03l-.06.23v.04l.04.02.1.02c.07.02.13.02.19 0 .05-.02.09-.05.1-.09v-.01c.01-.05 0-.09-.05-.13a.32.32 0 0 0-.16-.09l-.1-.02h-.04Z" fill="#FEFEFE"/><path d="m11.36 11.53.02-.03h.03l.08.02c.06.01.1.03.14.07.04.03.05.06.04.1v.01c0 .03-.04.06-.08.07a.3.3 0 0 1-.16 0l-.08-.02s-.02 0-.02-.02v-.03l.03-.17Z" fill="#FF8F01"/><path d="m8.8 11.53.05.07-.01.02a.2.2 0 0 1-.14-.04v-.03l.07-.04h.02l.01.02ZM7.83 11.8a.7.7 0 0 1 .37-.1c.12 0 .25.02.38.07.02 0 .02 0 .02.02l.01.03v.03h-.02a1.62 1.62 0 0 0-.76.08c-.01 0-.02 0-.02-.02v-.08c0-.01 0-.02.02-.03Z" fill="#FEFEFE"/><path d="M8.92 12.11a.74.74 0 0 0-.18-.16c-.02-.01-.02-.02 0-.01.3 0 .58-.04.86-.15h.07c.1.07.18.16.25.28l.02.1a.19.19 0 0 1-.08.15 7.32 7.32 0 0 1-.84.07c-.02 0-.04 0-.03-.03a.32.32 0 0 0-.07-.25Z" fill="#E90302"/><path d="M9.62 12.44v-.02c.14 0 .26-.04.33-.13.04-.06.05-.13.01-.22a.5.5 0 0 0-.12-.18v-.02c.14-.03.28-.05.44-.05l.03.02c.1.28.27.48.49.6.02.02.02.03 0 .03l-1.18-.03Z" fill="#95CC05"/><path d="M8.36 11.98c.18.07.3.21.35.41v.03h-.02c-.26.01-.52.02-.78.01a.97.97 0 0 1-.5-.12c-.05-.03-.07-.12 0-.15a2.16 2.16 0 0 1 .38-.14.4.4 0 0 1 .23-.11c.19-.04.39-.04.59-.02v.01l-.25.06c-.03 0-.03.01 0 .02Z" fill="#E90302"/><path d="M8.96 12.38c0 .01 0 .02-.02.02l-.17.01c-.02-.18-.17-.33-.31-.42v-.01c.24-.09.53.15.5.4ZM8.03 12.19c.13-.02.24-.07.23-.1 0-.03-.11-.04-.25-.02s-.24.06-.24.1c0 .03.12.03.26.02Z" fill="#FEFEFE"/><path d="m12.27 9.1-.1-.27.1-.06v-.33h.26v.27h.12V8.5h.23v.33h.15v.26h-.76ZM5.03 10.12h.6v2.96h-.6z" fill="#0622AB"/><g opacity=".7"><path fill="#95CC05" d="M5.87 12.48h1.48v.58H5.87z"/><path fill="url(#bdltifjpy)" d="M5.99 12.54h1.25V13H5.99z"/></g><path opacity=".5" fill="#81B1CE" d="M7.94 12.61h1.75v.47H7.94z"/><g opacity=".5"><path fill="#6C0F2B" d="M10.78 12.59h1.21v.48h-1.21z"/><path fill="#95CC05" d="M10.93 12.59h.92v.37h-.92z"/></g><path d="M9.65 5.62c0-.2-.22-.15-.35-.14a.66.66 0 0 0-.17.04.02.02 0 0 0-.02.03c0 .09-.03.17-.03.26l-.03.54-.01.03a.1.1 0 0 0-.02.08c.01.08.2.09.2-.01l.01-.2c0-.05.12-.1.15-.13.1-.12.27-.32.27-.5Zm-.4.31.03-.2c0-.03.03-.1.09-.1.07 0 .09.02.06.1-.03.07-.1.2-.17.2Z" fill="#D60B06"/><path d="m7.99 10.58-.26-.02.02.13.31-.02-.07-.1ZM5.76 8.9v.23h.76c.1 0 .29-.06.29-.26 0-.09-.08-.16-.12-.19.03-.01.1-.06.1-.16 0-.11-.12-.2-.4-.2h-.63v.22h.13v.37h-.13Zm.51-.29v-.1h.07a.05.05 0 1 1 0 .1h-.07Zm0 .31v-.1h.07a.05.05 0 1 1 0 .1h-.07Z" fill="#FEFEFE"/><path fill-rule="evenodd" d="M5.83 8.48v-.1h.62c.1 0 .27.03.27.15s-.11.16-.16.17c.06.01.2.07.2.2 0 .16-.24.16-.3.16h-.63v-.1h.12v-.48h-.12Zm.38.18v-.2h.14a.1.1 0 1 1 0 .2H6.2Zm0 .3v-.19h.14a.1.1 0 1 1 0 .2H6.2Z" fill="#017BEF"/><path d="M6.48 9.38H6.1l-.25.6h-.14v.22h1.16v-.22h-.13l-.26-.6Z" fill="#FEFEFE"/><path d="M5.78 10.14v-.11h.11l.26-.59h.28l.26.59h.13v.11h-.54v-.1h.14l-.04-.1H6.1l-.04.09h.14v.11h-.43Zm.37-.32h.18l-.07-.16h-.04l-.07.16Z" fill="#FFEB01"/><path d="M6.48 11.52H6.1l-.25.6h-.14v.22h1.16v-.23h-.13l-.26-.6Z" fill="#FEFEFE"/><path d="M5.78 12.28v-.12h.11l.26-.58h.28l.26.58h.13v.12h-.54v-.1h.14l-.04-.1H6.1l-.04.08h.14v.12h-.43Zm.37-.32h.18l-.07-.17h-.04l-.07.17Z" fill="#88AE22"/><path opacity=".7" fill-rule="evenodd" d="M9 15A6 6 0 1 0 9 3a6 6 0 0 0 0 12Zm0-1A5 5 0 1 0 9 4a5 5 0 0 0 0 10Z" fill="#FDF828"/><defs><linearGradient id="adltifjpy" x1="3.35" y1="3.12" x2="21.9" y2="24.43" gradientUnits="userSpaceOnUse"><stop stop-color="#1A1E21"/><stop offset="1" stop-color="#06060A"/></linearGradient><linearGradient id="bdltifjpy" x1="6.61" y1="12.54" x2="6.61" y2="13" gradientUnits="userSpaceOnUse"><stop offset=".42" stop-color="#D60B06"/><stop offset="1" stop-color="#FDF828"/></linearGradient></defs></svg>