<!-- by TradingView --><svg width="18" height="18" viewBox="0 0 18 18" fill="none" xmlns="http://www.w3.org/2000/svg">
<rect width="18" height="18" fill="#F0F3FA"/>
<path d="M15 9C15 12.3137 12.3137 15 9 15C5.68629 15 3 12.3137 3 9C3 5.68629 5.68629 3 9 3C12.3137 3 15 5.68629 15 9Z" fill="#E33420"/>
<path fill-rule="evenodd" clip-rule="evenodd" d="M9 14.5C12.0376 14.5 14.5 12.0376 14.5 9C14.5 5.96243 12.0376 3.5 9 3.5C5.96243 3.5 3.5 5.96243 3.5 9C3.5 12.0376 5.96243 14.5 9 14.5ZM9 15C12.3137 15 15 12.3137 15 9C15 5.68629 12.3137 3 9 3C5.68629 3 3 5.68629 3 9C3 12.3137 5.68629 15 9 15Z" fill="black"/>
<path fill-rule="evenodd" clip-rule="evenodd" d="M11.0586 11.9886C10.9461 12.1197 10.878 12.2902 10.878 12.4765C10.878 12.8905 11.2136 13.2261 11.6276 13.2261C12.0415 13.2261 12.3771 12.8905 12.3771 12.4765C12.3771 12.4634 12.3768 12.4504 12.3761 12.4374C12.3891 12.4381 12.4021 12.4384 12.4153 12.4384C12.8292 12.4384 13.1648 12.1029 13.1648 11.6889C13.1648 11.275 12.8292 10.9394 12.4153 10.9394C12.2291 10.9394 12.0587 11.0073 11.9276 11.1197C11.5755 10.7986 11.0454 10.3183 10.8971 10.1962C10.6811 10.0183 10.3953 9.98658 10.1031 10.3105C9.86934 10.5697 10.0438 10.8504 10.1603 10.9584L11.0586 11.9886Z" fill="white"/>
<path fill-rule="evenodd" clip-rule="evenodd" d="M12.475 12.5363C12.4443 12.9776 12.0766 13.326 11.6276 13.326C11.1584 13.326 10.778 12.9457 10.778 12.4765C10.778 12.2967 10.834 12.1298 10.9294 11.9925L10.0882 11.0279C10.0202 10.9635 9.93738 10.8519 9.90332 10.7153C9.86708 10.57 9.88763 10.4001 10.0288 10.2435C10.1867 10.0685 10.3534 9.97827 10.521 9.96545C10.6884 9.95266 10.8385 10.0184 10.9607 10.119C11.1028 10.2361 11.5844 10.6718 11.9331 10.9893C12.0701 10.8948 12.2363 10.8394 12.4153 10.8394C12.8844 10.8394 13.2648 11.2197 13.2648 11.6889C13.2648 12.138 12.9163 12.5057 12.475 12.5363ZM11.6276 13.126C11.9863 13.126 12.2771 12.8352 12.2771 12.4765C12.2771 12.4651 12.2768 12.4538 12.2762 12.4425L12.2705 12.3318L12.3812 12.3375C12.3925 12.3381 12.4038 12.3384 12.4153 12.3384C12.774 12.3384 13.0648 12.0476 13.0648 11.6889C13.0648 11.3302 12.774 11.0394 12.4153 11.0394C12.2538 11.0394 12.1064 11.0981 11.9927 11.1956L11.9256 11.2531L11.8602 11.1935C11.5069 10.8713 10.9793 10.3934 10.8335 10.2734C10.7397 10.1961 10.6389 10.157 10.5363 10.1649C10.434 10.1727 10.3117 10.2286 10.1773 10.3775C10.0848 10.4801 10.0757 10.5801 10.0974 10.6669C10.1205 10.7598 10.1806 10.8409 10.2282 10.8851L10.236 10.8923L11.1909 11.988L11.1345 12.0537C11.0369 12.1674 10.978 12.3149 10.978 12.4765C10.978 12.8352 11.2688 13.126 11.6276 13.126Z" fill="black"/>
<path d="M11.8778 8.16742L9.62295 5.91254L5.73254 9.27067C6.05191 9.80294 6.63256 10.2771 7.02934 10.432C7.42613 10.5868 7.58097 10.8481 8.09388 11.5739C8.6068 12.2998 9.33262 12.4159 9.96167 12.2417C10.5907 12.0675 11.8778 10.9546 12.2456 9.89004C12.5398 9.03841 12.123 8.38678 11.8778 8.16742Z" fill="black"/>
<path d="M11.6836 8.21702L9.58657 6.12549L5.96844 9.24034C6.26546 9.73405 6.80547 10.1739 7.17448 10.3175C7.5435 10.4611 7.6875 10.7035 8.16452 11.3767C8.64153 12.05 9.31656 12.1577 9.90158 11.9961C10.4866 11.8346 11.6836 10.8023 12.0257 9.81484C12.2993 9.0249 11.9116 8.42048 11.6836 8.21702Z" fill="#5A2812"/>
<path d="M11.6836 8.21702L9.58657 6.12549L5.96844 9.24034C6.26546 9.73405 6.80807 9.35268 7.17709 9.49631C7.5461 9.63993 8.08536 10.3199 8.56237 10.9932C9.03939 11.6664 9.63223 11.8578 9.91977 11.8578C10.0434 11.8578 10.2473 11.8532 10.4564 11.7095C11.0514 11.3006 11.7726 10.5455 12.0257 9.81484C12.2993 9.0249 11.9116 8.42048 11.6836 8.21702Z" fill="#A24822"/>
<ellipse cx="7.78599" cy="7.75877" rx="1.73765" ry="2.6031" transform="rotate(45.2599 7.78599 7.75877)" fill="black"/>
<path d="M8.93334 8.76147C8.04025 9.84003 6.79238 9.83651 6.28136 9.56249C5.98954 9.40601 5.69966 9.00285 5.78073 8.35967C5.87531 7.87168 6.1201 7.35204 6.5066 6.88527C7.39969 5.80671 8.71127 5.41893 9.43611 6.01912C9.56888 6.12906 9.67276 6.26453 9.74838 6.41911C9.96393 7.17335 9.66284 7.88049 8.93334 8.76147Z" fill="#D27740"/>
<path fill-rule="evenodd" clip-rule="evenodd" d="M6.9733 6.05979C7.08588 5.92867 7.15391 5.75818 7.15391 5.5718C7.15391 5.15784 6.81833 4.82227 6.40438 4.82227C5.99042 4.82227 5.65485 5.15784 5.65485 5.5718C5.65485 5.58492 5.65518 5.59797 5.65585 5.61092C5.64287 5.61026 5.6298 5.60992 5.61666 5.60992C5.2027 5.60992 4.86713 5.94549 4.86713 6.35945C4.86713 6.7734 5.2027 7.10898 5.61666 7.10898C5.80287 7.10898 5.97322 7.04108 6.1043 6.92868C6.45639 7.24976 6.98654 7.73003 7.13484 7.85215C7.3508 8.03001 7.63664 8.06177 7.92883 7.73782C8.16259 7.47866 7.98812 7.1979 7.87167 7.08992L6.9733 6.05979Z" fill="white"/>
<path fill-rule="evenodd" clip-rule="evenodd" d="M5.55692 5.51201C5.58761 5.07073 5.9553 4.72229 6.40438 4.72229C6.87356 4.72229 7.25391 5.10264 7.25391 5.57182C7.25391 5.75164 7.19795 5.91856 7.10257 6.0559L7.94373 7.02043C8.01176 7.08484 8.09454 7.19644 8.1286 7.333C8.16485 7.4783 8.14429 7.64827 8.00309 7.80482C7.84521 7.97986 7.67849 8.07008 7.51088 8.0829C7.34352 8.09569 7.19338 8.02994 7.07127 7.92937C6.9291 7.81229 6.44748 7.3766 6.09881 7.059C5.96184 7.15357 5.79563 7.209 5.61666 7.209C5.14747 7.209 4.76713 6.82866 4.76713 6.35947C4.76713 5.91037 5.11561 5.54266 5.55692 5.51201ZM6.40438 4.92229C6.04565 4.92229 5.75485 5.2131 5.75485 5.57182C5.75485 5.58323 5.75514 5.59456 5.75572 5.60581L5.76141 5.71652L5.65071 5.71082C5.63944 5.71024 5.62809 5.70994 5.61666 5.70994C5.25793 5.70994 4.96713 6.00075 4.96713 6.35947C4.96713 6.7182 5.25793 7.009 5.61666 7.009C5.7781 7.009 5.92557 6.95023 6.03921 6.85279L6.10634 6.79523L6.17168 6.85481C6.525 7.17701 7.05261 7.65492 7.19841 7.77498C7.29226 7.85227 7.39302 7.89132 7.49563 7.88348C7.59797 7.87565 7.72027 7.81977 7.85458 7.67086C7.94712 7.56826 7.95622 7.46827 7.93455 7.3814C7.91139 7.28854 7.85136 7.20749 7.80367 7.16327L7.79587 7.15604L6.84106 6.06033L6.89743 5.99468C6.99503 5.881 7.05391 5.73341 7.05391 5.57182C7.05391 5.2131 6.7631 4.92229 6.40438 4.92229Z" fill="black"/>
</svg>
