<!-- by TradingView --><svg width="18" height="18" viewBox="0 0 18 18" xmlns="http://www.w3.org/2000/svg"><path fill="url(#atsroiw0o)" d="M0 0h18v18H0z"/><path d="M3 10.76V7.24l1.5-.84V4.8L7.55 3l1.08.64v4.81l4.64 2.68 1.23-.67V7.57l-1.26-.69L12 7.6v.03a.53.53 0 1 1-.23-.45l1.23-.7V5.14l-2.54-1.47-.46.27v.47l2.42 1.4v.28l-.24.14L10 4.98v3.68l-.63-.34V3.64L10.4 3l3.1 1.8v1.6l1.5.84v3.52l-1.5.84v1.63L10.4 15l-1.02-.55v-4.9L4.75 6.9l-1.25.68v2.9l1.24.66 1.21-.7v-.02a.53.53 0 1 1 .24.44L5 11.54v1.4l2.54 1.42.46-.25v-.51l-2.44-1.4v-.29l.25-.14L8 13.04V9.4l.63.37v4.67L7.55 15 4.5 13.23V11.6L3 10.76Zm2-4.62L8 4.4v-.46l-.46-.27L5 5.15v.99Zm3-1.17L5.29 6.53 8 8.1V4.97Zm2 4.95v3.11l2.7-1.56L10 9.92Zm0 3.67v.52l.46.25L13 12.94v-1.08l-3 1.73Z" fill="#fff"/><defs><linearGradient id="atsroiw0o" x1="2.56" y1="3.17" x2="10.73" y2="18" gradientUnits="userSpaceOnUse"><stop stop-color="#01C48C"/><stop offset="1" stop-color="#23A285"/></linearGradient></defs></svg>