<!-- by TradingView --><svg xmlns="http://www.w3.org/2000/svg" width="18" height="18"><path fill="#192A3E" d="M0 0h18v18H0z"/><path fill-rule="evenodd" d="M3 5h12v8H3V5zm1 1h10v6H4V6zm9 5h-.05c-.8 0-1.52-.38-1.91-.94-.22.2-.63.47-1.1.47-.54 0-.89-.41-.96-.57a7.05 7.05 0 01-.22-.52c-.21-.54-.45-1.15-.78-1.15-.26 0-.53.54-.7.99-.15.97-1.1 1.72-2.23 1.72H5v-.73h.05c.79 0 1.43-.57 1.43-1.27 0-.7-.64-1.27-1.43-1.27H5V7h.05c.84 0 1.57.4 1.96 1.01.17-.23.51-.53.97-.53.56 0 .97.25 1.09.54l.13.34c.23.62.51 1.36.91 1.36.36 0 .51-.6.61-1.03.17-.96 1.1-1.69 2.23-1.69H13v.73h-.05c-.79 0-1.43.57-1.43 1.27 0 .7.64 1.27 1.43 1.27H13V11z" fill="#1EF6AD"/></svg>