<!-- by TradingView --><svg width="18" height="18" viewBox="0 0 18 18" xmlns="http://www.w3.org/2000/svg"><path fill="url(#asezbkk1s)" d="M0 0h18v18H0z"/><path d="M6.45 4.04c.2.05.38.15.53.29.13.12.24.28.34.47.07.16.14.35.2.58a11.04 11.04 0 0 1 .2.8c0 .02 0 .02.02.02l2.34-.27c.03 0 .05-.02.06-.06a2.56 2.56 0 0 1 1.07-1.53c.18-.12.38-.2.58-.26.35-.1.66-.08.96.03.19.08.33.23.42.45.08.2.12.4.11.66a.7.7 0 0 1-.07.28l-.18.3a5.31 5.31 0 0 0-.21.4.46.46 0 0 0 .02.38l.14.26c.02.04.05.07.09.08.17.07.3.15.37.25.1.1.13.25.12.42 0 .03 0 .06.03.08.09.06.16.13.21.2.06.08.11.16.14.26a.7.7 0 0 1 0 .52 1 1 0 0 1-.14.22l-.18.2a.1.1 0 0 0-.03.07c0 .1-.03.2-.1.28a.11.11 0 0 0-.04.08l.02.4-.09.01V9.9l-.02-.03V9.5l-.02-.02h-.02a.23.23 0 0 0-.08.05.35.35 0 0 1-.17.07.19.19 0 0 0-.07.03.21.21 0 0 1-.07.03.37.37 0 0 0-.1.03.33.33 0 0 1-.16.04l-.04.01-.03.02c-.06 0-.1 0-.16.02-.05 0-.1.02-.15.05a.51.51 0 0 1-.21.04h-.58c-.14 0-.26-.03-.36-.07a2.22 2.22 0 0 1-.46-.24c-.04-.02-.03-.03 0-.03l.1.03.03.02a1.58 1.58 0 0 0 .44.1h.03a3.5 3.5 0 0 0 .8.04 6.9 6.9 0 0 0 1.13-.25.42.42 0 0 0 .18-.1c.06-.05.09-.1.08-.16v-.02h-.03a.4.4 0 0 0-.1.05 10.96 10.96 0 0 0-.44.2.5.5 0 0 0-.07.02 8.66 8.66 0 0 1-.94.1c-.1 0-.2 0-.3-.03l-.29-.07c-.4-.12-.69-.37-.85-.77a.57.57 0 0 1-.04-.2l.01-.2a.49.49 0 0 1 .1-.2l.12-.15c.05-.07.1-.11.14-.14l.2-.14a.85.85 0 0 1 .2-.1 5.95 5.95 0 0 0 .39-.15l.2-.05.21-.04.23-.04c.09-.01.18-.01.28.01l.05.01c.02 0 .04 0 .06.02l.03.01c.06 0 .1.01.15.05h.03c.15 0 .28.05.4.13.05.04.12.06.2.06l.01-.02.03-.1c0-.1-.04-.18-.09-.22a1.41 1.41 0 0 0-.64-.3 1.48 1.48 0 0 0-.33 0h-.34c-.07 0-.13.01-.19.03-.05.01-.1.03-.17.03-.1.02-.21.05-.32.1l-.37.16a.79.79 0 0 0-.17.1c-.01.02-.02.02-.03.02h-.01c-.02 0-.02 0-.01-.01v-.02l.2-.13c.2-.12.34-.2.46-.24.18-.06.31-.1.41-.1.16-.03.35-.04.6-.03l.42.06v-.02a1.01 1.01 0 0 0-.24-.33c-.12-.1-.24-.18-.36-.26a1.62 1.62 0 0 0-.87-.25 11.82 11.82 0 0 0-.63-.03 2.97 2.97 0 0 0-.86.04l-.33.05c-.36.03-.77.1-1.24.18l-.56.07a.24.24 0 0 0-.1.04h-.02l-.01-.01a4.57 4.57 0 0 1-.16-.66 5.15 5.15 0 0 0-.32-.94 1.09 1.09 0 0 0-.4-.46 1.04 1.04 0 0 0-.56-.19h-.35c-.3 0-.64.13-1 .38-.32.22-.55.5-.69.87-.08.2-.1.44-.04.7.05.23.14.46.28.67l.34.5c.03.02.03.05.03.09-.02.18-.04.35-.09.54-.18.8-.31 1.55-.38 2.26-.03.27-.03.5-.02.68.04.47.2.89.46 1.26.35.49.72.96 1.11 1.41.1 0 .18.02.25.06.08.05.13.08.16.08a2.57 2.57 0 0 0 .34.1l.19.05c.07 0 .15.02.23.04.11.02.22.02.34.02.25.03.51.04.77.03l.23-.01.6-.01a4.3 4.3 0 0 0 1.65-.35l.8-.3.03-.01a.2.2 0 0 1 .09 0c0 .01 0 0 0 0v-.02h.03l.02-.01.02-.02.1-.03s.02-.01.02-.03h.01l.03-.02a.98.98 0 0 0 .65-.45 12.22 12.22 0 0 1 .18-.23l-.02-.01.08-.04.04.01.01.04c-.13.28-.41.52-.85.73a15.2 15.2 0 0 1-1.4.59c-.67.2-1.32.3-1.95.3h-.86a6.87 6.87 0 0 1-1.45-.23c-.23-.08-.4-.2-.53-.33a8.5 8.5 0 0 1-.86-1.12L4.6 12a2.5 2.5 0 0 1-.4-1.13c-.01-.2-.01-.42.02-.67.04-.41.1-.81.16-1.2a44.01 44.01 0 0 1 .31-1.66.15.15 0 0 0-.02-.09 7.96 7.96 0 0 1-.3-.42 2.8 2.8 0 0 1-.24-.45 1.46 1.46 0 0 1-.06-.99c.16-.42.42-.76.8-1.02a2.06 2.06 0 0 1 1.6-.33Z" fill="#083077"/><path d="M7.42 5.48a.35.35 0 0 0-.06.1l-.02.02a.22.22 0 0 0-.1.12l-.02.02a.17.17 0 0 0-.06.06l-.03.03a.58.58 0 0 0-.08.05 4.27 4.27 0 0 1-.49.24.23.23 0 0 1-.09.04l-.04.01-.5.23h-.02l-.07.01h-.03l-.4-.14a.04.04 0 0 1-.03-.02.19.19 0 0 1 0-.12l.48-.24c.14-.07.4-.21.79-.44.06-.04.1-.09.08-.15a.75.75 0 0 0-.19-.41 1.57 1.57 0 0 0-.28-.2.4.4 0 0 0-.2-.06h-.41c-.14.03-.28.06-.4.12l-.04-.01c-.03 0-.03-.01-.01-.03l.01-.02.01-.02V4.6l.02-.02a.1.1 0 0 1 .06 0h.03l.1-.1c.01-.01.02-.02.01-.03 0-.02 0-.04.03-.04a.45.45 0 0 0 .22-.1c.03-.03.03-.05-.01-.05-.16 0-.3.04-.43.15-.24.1-.44.25-.62.44a29.05 29.05 0 0 0-.23.3.49.49 0 0 1-.05.08 10.64 10.64 0 0 1-.14.35 2.13 2.13 0 0 0 .05.53.1.1 0 0 1 .02.06l.01.03.09.2.08.15.07.15c.04.1.12.23.22.4.08.1.12.22.12.33a.7.7 0 0 1-.03.24l-.05.25a.8.8 0 0 1-.04.16.63.63 0 0 0-.03.13c0 .06-.02.13-.04.19a.75.75 0 0 0-.03.19c0 .08-.01.16-.04.23v.03c0 .02 0 .03-.02.05a2.6 2.6 0 0 0-.12.8c0 .03 0 .09-.02.17a1.74 1.74 0 0 0-.02.99c.05.21.1.44.18.67.03.1.09.2.17.33a16.64 16.64 0 0 0 1.01 1.42c.06.07.08.14.07.2-.39-.45-.76-.92-1.1-1.41a2.5 2.5 0 0 1-.47-1.26 3.7 3.7 0 0 1 .02-.68c.07-.71.2-1.46.38-2.26.05-.19.07-.36.1-.54 0-.04-.01-.07-.04-.1l-.34-.49a1.92 1.92 0 0 1-.28-.67c-.05-.26-.04-.5.04-.7.14-.36.37-.65.7-.87a1.84 1.84 0 0 1 1.34-.38c.2 0 .38.07.56.19.18.12.31.28.4.47.1.22.18.46.25.7ZM11.8 5.96a.75.75 0 0 0-.03-.12 5 5 0 0 1-.05-.45l.03-.14a4.87 4.87 0 0 0-.03-.18.2.2 0 0 1 0-.12.74.74 0 0 1 .34-.44 6.98 6.98 0 0 1 .26-.1.3.3 0 0 0 .12-.12v-.03a.03.03 0 0 0-.03-.02h-.18a2.83 2.83 0 0 0-.44.1.08.08 0 0 0-.03.02.08.08 0 0 1-.06.02h-.04c-.35.15-.66.38-.92.68-.12.16-.2.3-.25.4a8.27 8.27 0 0 1-.22.43c-.02 0-.02 0-.02-.02 0-.1.03-.18.07-.28.25-.62.67-1.06 1.26-1.32.21-.1.43-.15.67-.15.25 0 .47.07.65.23.1.08.17.2.22.37.04.14.06.28.06.44 0 .16-.08.36-.24.6a1.67 1.67 0 0 0-.28.65h-.02a1.63 1.63 0 0 0-.84-.45Z" fill="#94D0D3"/><path d="m11.8 5.96-.48-.05c-.05-.09-.1-.16-.12-.22a.12.12 0 0 1-.01-.05l-.01-.02c-.02 0-.03-.02-.03-.03V5.3c-.01-.05 0-.1.05-.16a.13.13 0 0 1 .04-.03.14.14 0 0 0 .07-.09.39.39 0 0 1 .09-.17l.15-.12a.17.17 0 0 0 .04-.05.57.57 0 0 0 .05-.1v-.03c-.02-.06-.06-.08-.13-.07a.2.2 0 0 0-.07.04.42.42 0 0 1-.07.05.26.26 0 0 0-.09.06 5.63 5.63 0 0 0-.44.38l-.1.05a2.47 2.47 0 0 1 .96-.68c.02 0 .04 0 .06-.02 0-.01.01-.02.03-.02l.04-.03a.26.26 0 0 1 .09-.03 3.26 3.26 0 0 0 .3-.05h.2l.02.03v.03a.3.3 0 0 1-.12.12 6.99 6.99 0 0 0-.26.1l-.13.1c-.1.08-.17.2-.21.34a.2.2 0 0 0 0 .13 5.85 5.85 0 0 1 .03.17l-.02.14a5.18 5.18 0 0 0 .07.57Z" fill="#629FC0"/><path d="M5.26 4.75c-.16.1-.26.16-.29.2-.27.3-.33.66-.2 1.06l.13.25v.04l-.07.08c-.04 0-.06-.03-.05-.08 0-.01 0-.03-.02-.04a.05.05 0 0 0-.04-.02c-.02 0-.04 0-.05-.02a.15.15 0 0 0-.03-.04.05.05 0 0 1-.03-.03 1.4 1.4 0 0 1-.04-.22.36.36 0 0 0-.03-.1.16.16 0 0 1 .01-.15v-.04l.02-.2a.84.84 0 0 0 .02-.19v-.07c.02-.1.07-.18.12-.25a.4.4 0 0 1 .12-.11l.02-.02c0-.02.02-.02.03-.02l.03-.02c.05-.07.1-.13.17-.19a.26.26 0 0 1 .06-.03.2.2 0 0 0 .06-.04l.03-.03a.3.3 0 0 0 .08-.03c.01-.01.02-.02.01-.03 0-.01 0-.02-.02-.02l-.05.02c.12-.1.27-.16.43-.15.04 0 .04.02.01.05a.45.45 0 0 1-.22.1c-.02 0-.03.02-.03.04v.03l-.11.1H5.3a.1.1 0 0 0-.06 0l-.02.02V4.7l-.02.02c-.02.02-.02.03 0 .03l.06.01Z" fill="#66BAC5"/><path d="M4.83 6.38a.39.39 0 0 1-.1.12c-.07.08-.09.2-.05.33v.05l.01.03c.04.06.06.13.06.2a3.22 3.22 0 0 1-.3-.56 1.33 1.33 0 0 1-.07-.16 1.8 1.8 0 0 0-.1-.22.1.1 0 0 0-.02-.06 2.13 2.13 0 0 1-.05-.53 10.37 10.37 0 0 0 .14-.35.49.49 0 0 0 .05-.08 29.27 29.27 0 0 1 .24-.3c.17-.2.37-.34.6-.44l.06-.02c.02 0 .02 0 .02.02v.03a.3.3 0 0 1-.09.03.07.07 0 0 0-.03.03.2.2 0 0 1-.06.04.26.26 0 0 0-.06.03l-.17.19-.03.02c-.01 0-.02 0-.03.02l-.02.02a.4.4 0 0 0-.12.1.93.93 0 0 0-.13.26v.04l.01.03c0 .07 0 .13-.02.2a.74.74 0 0 0-.01.2v.03a.16.16 0 0 0-.02.15c.02.03.03.06.03.1 0 .07.02.15.04.22l.03.03.03.04.05.02c.02 0 .03 0 .04.02.02.01.02.03.02.04-.01.05 0 .08.05.08Z" fill="#4491A9"/><path d="M11.32 5.9c-.28.02-.49.02-.61.02l-.23-.03-.02-.02c-.04-.08-.1-.1-.15-.03l.18-.38c.04-.1.13-.24.25-.4l.1-.05.03-.03a.08.08 0 0 1 .04-.03l.03-.01a5.58 5.58 0 0 1 .57-.46c.07-.01.11 0 .13.07v.04l-.02.03a.57.57 0 0 1-.03.06.17.17 0 0 1-.04.05l-.15.12a.39.39 0 0 0-.1.17c0 .04-.03.07-.06.09a.13.13 0 0 0-.04.03.23.23 0 0 0-.06.16l.01.29.03.03v.02a1.78 1.78 0 0 0 .14.27Z" fill="#3579A2"/><path d="m5.38 6.13-.26.13a.54.54 0 0 0-.21.2.47.47 0 0 0 0 .41c.03.08.1.12.19.15.07.02.16.02.24 0 .16-.03.27-.05.31-.07a13.29 13.29 0 0 0 1.15-.57 4.04 4.04 0 0 0 .18-.06v.04l-.72.48a2.8 2.8 0 0 0-.34.2 33.32 33.32 0 0 1-.57.23.74.74 0 0 0-.08 0 .91.91 0 0 1-.24.04l-.02-.01a.91.91 0 0 1-.23-.32 1.59 1.59 0 0 0-.07-.17.23.23 0 0 1-.02-.12c0-.06.02-.13.04-.19a.39.39 0 0 0 .1-.12l.06-.08c.01-.01.02-.02 0-.04-.05-.11-.1-.2-.11-.25-.14-.4-.08-.75.2-1.07a1.21 1.21 0 0 1 .68-.3c.1-.02.24-.02.4-.01a.4.4 0 0 1 .2.05c.13.08.22.15.28.2.1.1.16.24.2.42 0 .06-.03.11-.1.15a10.26 10.26 0 0 1-1.26.68Z" fill="#123C75"/><path d="M6.51 5.44c0-.08-.01-.14-.05-.16a.3.3 0 0 1-.07-.06.03.03 0 0 1 0-.04v-.06a.04.04 0 0 0-.03-.02l-.06-.01c-.04 0-.06 0-.08-.02a.41.41 0 0 1-.1-.07l-.03-.02c-.04 0-.08 0-.11-.02a.98.98 0 0 0-.4 0 .72.72 0 0 0-.2.07.22.22 0 0 0-.07.06 3.88 3.88 0 0 0-.25.2V5.44l-.04.08A.18.18 0 0 0 5 5.6c0 .05.02.1.06.15a1.89 1.89 0 0 0 .18.24.1.1 0 0 1-.02.07l-.04.02a.11.11 0 0 0-.07.03l-.03.01c-.07 0-.12-.02-.15-.1A.14.14 0 0 0 4.91 6l-.07-.09a.84.84 0 0 1 .05-.72c.06-.1.15-.2.25-.27.08-.05.17-.1.26-.13a.9.9 0 0 1 .48-.09h.11l.13.01c.05.01.09.03.12.05a7.5 7.5 0 0 1 .3.26l.05.1a2 2 0 0 0 .07.23l-.02.02-.13.07Z" fill="#D83673"/><path d="M6.51 5.44a14.23 14.23 0 0 1-1.47.77L5 6.25h-.02c-.01 0-.02 0-.02-.02l-.12-.32.07.09.02.03c.03.07.08.1.15.1.02 0 .03-.01.03-.02a.11.11 0 0 1 .07-.03l.04-.02a.1.1 0 0 0 .02-.07v-.02a1.89 1.89 0 0 1-.18-.22A.26.26 0 0 1 5 5.6l.02-.08.04-.08a.13.13 0 0 0 0-.1v-.05c0-.02.02-.04.03-.05a3.89 3.89 0 0 1 .22-.15.22.22 0 0 1 .07-.06.72.72 0 0 1 .2-.08.98.98 0 0 1 .4.01l.1.02c.02 0 .03 0 .03.02.04.03.07.06.11.07l.08.02h.06s.02.01.02.03c.02.01.02.04 0 .06l.01.04a.3.3 0 0 0 .07.06c.04.02.05.08.05.16Z" fill="#EB5A8D"/><path d="M7.42 5.48a2.51 2.51 0 0 1 .13.47 4.58 4.58 0 0 0 .12.43.24.24 0 0 1 .11-.04l.56-.07a8.78 8.78 0 0 0 1.33-.1 73.78 73.78 0 0 0 1.23-.03 25.57 25.57 0 0 1 .98.27.4.4 0 0 0 .1.05c.05.01.1.03.13.06l.1.04c.09.03.16.08.21.16 0 .02.02.02.03.03.02 0 .04.02.04.04l-.01.03h-.04c-.24 0-.43.01-.59.03-.1.02-.23.05-.41.11a.12.12 0 0 1 .12-.06c.01 0 .03 0 .04-.02a.08.08 0 0 1 .04-.02l.01-.01v-.1l.04-.03v-.04a.18.18 0 0 0-.12-.08 1.85 1.85 0 0 0-.21-.02c-.01 0-.02 0-.03-.02a.65.65 0 0 1-.1-.09.24.24 0 0 0-.1-.06.51.51 0 0 0-.25-.03l-.28.03a.3.3 0 0 1-.17-.03H10.1c-.13-.01-.26 0-.42.04a.47.47 0 0 1-.13.01l-.12.01c-.17.04-.34.05-.52.03-.02 0-.05 0-.08-.02a.41.41 0 0 0-.05-.02.2.2 0 0 0-.11 0 .45.45 0 0 0-.11.06.25.25 0 0 0-.1.15v.04c.02.06.03.11.02.17l-.01.02c-.02 0-.02.02-.02.03v.06a2.83 2.83 0 0 0-1.01.02l-.27.04-.3.09c-.04.01-.13.07-.26.16a.99.99 0 0 0-.11-.04.27.27 0 0 0-.1-.02.45.45 0 0 1-.25-.06.03.03 0 0 1-.02-.03c0-.01 0-.02.02-.03a.06.06 0 0 0 .03-.05c0-.02 0-.03.02-.03l.04-.03.02-.03v-.04a.04.04 0 0 1-.01-.03v-.04l.72-.48c.02-.01.02-.02.01-.03v-.01h-.01a4.05 4.05 0 0 1-.38.16c-.45.24-.76.4-.94.47-.04.02-.15.04-.3.07a.57.57 0 0 1-.25 0c-.1-.03-.16-.07-.2-.15a.47.47 0 0 1 0-.41c.04-.07.1-.13.22-.2.08-.05.17-.1.26-.13a.19.19 0 0 0 0 .12l.03.02.4.14H5.93l.5-.24.04-.01.09-.04a4.27 4.27 0 0 0 .49-.24.58.58 0 0 1 .08-.05l.03-.03a.17.17 0 0 1 .06-.06l.02-.02c.02-.05.05-.1.1-.12 0 0 .02-.01.02-.03a.35.35 0 0 1 .06-.1Z" fill="#66BAC5"/><path d="M12.44 6.83h.04c.01-.01.02-.02.01-.04a.08.08 0 0 0-.04-.04.06.06 0 0 1-.03-.03.36.36 0 0 0-.2-.16.37.37 0 0 1-.11-.04.48.48 0 0 0-.13-.06.4.4 0 0 1-.1-.05v-.03h-.01a25.64 25.64 0 0 0-.96-.23 1.27 1.27 0 0 0-.31-.04l-.06.01a8.47 8.47 0 0 0 .86-.1l.28.04c.2.03.4.1.59.22.12.08.24.16.36.26.1.08.18.19.25.33v.02h-.01l-.43-.06Z" fill="#3579A2"/><path d="M11.44 6.96a3.13 3.13 0 0 0-.68.38 95.99 95.99 0 0 1-.4.45.91.91 0 0 1-.1.13l-.07.1a.37.37 0 0 0-.04.1.61.61 0 0 0-.02.19c0 .17.02.34.03.5 0 .06.02.13.05.2l.07.15.11.25.06.06c.05.02.1.06.12.1.05.08.1.15.18.2a.5.5 0 0 1 .09.06c.02.03.05.05.09.07.04.03.05.07.03.12l-.03.02-.2.01-.01.01v.02c0 .02.02.02.03.02.03-.01.05-.02.08-.01.07 0 .14.01.2.03l.22.02c.18 0 .36 0 .54.02-.37.02-.74.03-1.12.03a852.4 852.4 0 0 1-2.95-.02l-.43-.03c.1-.07.23-.08.38-.04l.02.02.01.01c.01 0 .01 0 0 0v.01a3.02 3.02 0 0 0 .55-.02.43.43 0 0 1 .1-.02h.01v-.02l.02-.02.09-.02.07-.04a.26.26 0 0 1 .11-.04l.03-.01a.19.19 0 0 1 .1-.07l.02-.01.13-.19c.03-.06.06-.1.07-.15l.01-.1.01-.06.02-.02.06-.03.19-.11c.07-.05.12-.1.16-.15l.15-.19a.68.68 0 0 0 .1-.2.58.58 0 0 0-.05-.47 1.1 1.1 0 0 0-.52-.47l.01-.05c0-.2-.08-.37-.23-.5a1 1 0 0 0-.46-.22V6.9c0-.01 0-.02.02-.03l.01-.02c0-.06 0-.11-.02-.17v-.04a.25.25 0 0 1 .1-.15.45.45 0 0 1 .1-.05.2.2 0 0 1 .12 0l.05.01.08.02c.18.02.35 0 .52-.03h.12l.13-.02c.16-.04.3-.05.41-.05a8.04 8.04 0 0 0 .34.01c.05.03.1.04.17.03.1 0 .19-.02.28-.03.06-.01.15 0 .24.03.05.01.08.03.11.06l.1.1h.03l.21.03c.05.01.1.04.12.08v.04l-.03.03-.01.03v.07h-.01a.08.08 0 0 0-.04.03.05.05 0 0 1-.04.02c-.06 0-.1.02-.12.06Z" fill="#94D0D3"/><path d="M6.37 6.46c0 .02-.02.02-.03.03a4.26 4.26 0 0 0-.32.18 6.8 6.8 0 0 0-.42.2.22.22 0 0 1-.07.03h-.34c-.02 0-.04-.02-.05-.03l-.02-.02c-.06-.02-.1-.05-.11-.1a.63.63 0 0 1-.03-.14c0-.08.01-.14.05-.2.03-.03.07-.04.12-.03l.06.06.04.05.1.06.13.03c.17 0 .31-.02.44-.08.14-.06.3-.1.46-.11h.02v.03l-.02.02-.01.02Z" fill="#3579A2"/><path d="M4.73 6.5a.72.72 0 0 0-.04.19c0 .04 0 .08.02.12l.07.17c.04.1.12.2.23.32h.08c.08 0 .14 0 .18-.02l.08-.02.1-.02a33.53 33.53 0 0 0 .47-.2c.1-.08.22-.14.33-.2v.07c.02.01.02.03.01.04 0 .01 0 .02-.02.03A.55.55 0 0 1 6.2 7a.03.03 0 0 0-.02.03c0 .02-.01.04-.03.05a.03.03 0 0 0-.02.03c0 .02.01.02.02.03.09.05.17.07.24.06.04 0 .07 0 .1.02.04 0 .08.02.12.04-.2.12-.32.22-.4.3-.07.07-.12.14-.17.21v.04c0 .02 0 .02.01.01l.03-.01-.14.2-.04.08a.95.95 0 0 0-.13.29.44.44 0 0 0-.02.19v.25c.01.03.02.06.01.08l.01.04.03.04v.04a.16.16 0 0 0 .03.17c.02.02.04.05.04.08.01.1.04.17.1.22h-.04a.04.04 0 0 1-.02-.02.05.05 0 0 0-.03-.03c-.01 0-.02 0-.02.02 0 .05.02.09.07.12.16.13.33.22.5.29-.15 0-.33.02-.54.06a.35.35 0 0 0-.15.05.07.07 0 0 1-.03.02c-.05 0-.08.03-.1.06a.6.6 0 0 1-.05.1.6.6 0 0 1-.1.11l-.15.14a.22.22 0 0 0-.05.1.53.53 0 0 1-.05.12.54.54 0 0 0-.04.3 44.42 44.42 0 0 0 .11.6v.07l.02.03a.3.3 0 0 1 .06.08l.22.17.01.04a.2.2 0 0 0 0 .08c.01.03.03.05.06.06l.13.08c.02 0 .03.02.03.03.03.05.07.09.12.11l.06.07c0 .02.02.03.03.03.02 0 .03 0 .03.02l.03.03a4.14 4.14 0 0 0 .46.42l.04.05c.02.03.04.05.08.06a.2.2 0 0 1 .1.06 1.4 1.4 0 0 0 .16.13l.1.1c.04.06.1.11.17.16l.03.04c0 .02.02.04.04.05a4.54 4.54 0 0 1 .33.2c.12.07.23.11.3.12l.02.01.01.01h.22a4.86 4.86 0 0 1-1.05-.08.03.03 0 0 0-.03-.01h-.08l-.06-.06-.02-.03-.01-.02a1.16 1.16 0 0 0-.09-.07h.02c.02.02.02.01.01 0a.03.03 0 0 0-.03-.02v-.03c-.05-.02-.1-.05-.14-.09a.71.71 0 0 0-.13-.07 1.4 1.4 0 0 1-.47-.4l-.02-.01a.14.14 0 0 1-.06-.05 2.38 2.38 0 0 0-.08-.1.22.22 0 0 0-.1-.06 4.79 4.79 0 0 1-.26-.11c-.01 0-.02.02-.01.04a5.79 5.79 0 0 0 .08.2c.02 0 .04.02.04.04 0 .03.02.05.03.08.05.08.09.18.11.28a3.5 3.5 0 0 1-.35-.49 1.12 1.12 0 0 1-.05-.07.39.39 0 0 0-.07-.07.48.48 0 0 1-.1-.14.6.6 0 0 0-.06-.09 5.4 5.4 0 0 1-.72-1.57 1.74 1.74 0 0 1-.02-.41 6.56 6.56 0 0 0 .03-.57l.02-.18v-.2l.03-.21a2.6 2.6 0 0 1 .09-.38.04.04 0 0 0 .01-.05v-.03a.64.64 0 0 0 .05-.23c0-.07.02-.13.03-.2l.04-.18c0-.05.02-.1.03-.13a.8.8 0 0 0 .04-.16l.05-.25a.7.7 0 0 0 .03-.24.64.64 0 0 0-.12-.33.47.47 0 0 0-.06-.19v-.08c-.05-.13-.03-.25.04-.33Z" fill="#3579A2"/><path d="m13.45 7.45-.4-.14a.1.1 0 0 1-.04-.02.06.06 0 0 0-.04-.02h-.03a.2.2 0 0 0-.13-.06h-.04a.09.09 0 0 0-.05-.02h-.06a3.92 3.92 0 0 0-.82-.06l-.04.01a.4.4 0 0 1-.08.03.48.48 0 0 0-.06.02.32.32 0 0 1-.1.02c-.05 0-.1.01-.14.04a.09.09 0 0 1-.04 0 .08.08 0 0 0-.08.05.08.08 0 0 1-.05.03.17.17 0 0 0-.1.06.05.05 0 0 1-.04.01c-.01 0-.02 0-.03.02a.3.3 0 0 1-.14.1.06.06 0 0 0-.03.02 1.46 1.46 0 0 1-.2.23.13.13 0 0 1-.04.04.26.26 0 0 0-.12.15c0 .04-.02.08-.04.13a.49.49 0 0 0-.09.18.85.85 0 0 0-.01.2c0 .08.01.15.04.21.16.4.45.65.85.77a5.15 5.15 0 0 0 .58.1 4.22 4.22 0 0 0 1.1-.14 11 11 0 0 1 .37-.18.39.39 0 0 1 .09-.05h.02l.01.02c0 .05-.02.1-.08.16a.42.42 0 0 1-.18.1l-.38.1a2.52 2.52 0 0 1-.54.12 6.87 6.87 0 0 1-.44.04 3.5 3.5 0 0 1-1.16-.2c-.04 0-.05 0-.01.03.15.1.3.18.46.24.1.04.22.06.36.07h.58c.08 0 .15-.01.21-.04.05-.03.1-.05.15-.05l.16-.02c.01 0 .02 0 .03-.02a.05.05 0 0 1 .04-.01c.07 0 .12-.01.17-.04a.37.37 0 0 1 .1-.03.2.2 0 0 0 .06-.03.19.19 0 0 1 .07-.03.35.35 0 0 0 .17-.07.23.23 0 0 1 .08-.05h.02l.01.02.01.38.01.03.01.01v.01l-.03.01a15.17 15.17 0 0 1-1.55.23 4.92 4.92 0 0 0-.55-.02c-.08 0-.15 0-.22-.02a1.69 1.69 0 0 0-.2-.03h-.11v-.03h.02l.19-.02c.01 0 .02 0 .03-.02.02-.05 0-.09-.03-.12a.68.68 0 0 1-.1-.07.49.49 0 0 0-.08-.07.57.57 0 0 1-.18-.18.27.27 0 0 0-.12-.11.14.14 0 0 1-.06-.06c-.05-.1-.1-.18-.11-.25A.8.8 0 0 0 10.2 9a.46.46 0 0 1-.05-.19l-.03-.5c0-.07 0-.13.02-.18 0-.04.02-.08.04-.11l.08-.1.09-.13a95.05 95.05 0 0 0 .42-.44c-.01.01 0 .01 0 0h.05a.79.79 0 0 1 .17-.11l.37-.16c.1-.05.22-.08.32-.1.06 0 .12-.02.17-.03a.66.66 0 0 1 .19-.02c.12 0 .23 0 .34-.02.1 0 .2 0 .33.02.1.01.2.04.3.08.15.07.27.14.34.2.05.05.08.13.1.24Z" fill="#66BAC5"/><path d="M8.45 6.96a1 1 0 0 1 .46.22c.15.13.23.3.23.5v.05c-.1-.07-.16-.11-.2-.12a21.78 21.78 0 0 1-.3-.04.45.45 0 0 0-.14-.03l-.18-.03a1.18 1.18 0 0 0-.2-.03 6.36 6.36 0 0 1-.46 0 4.75 4.75 0 0 0-.9.23c-.23.09-.43.24-.61.45l.06-.14a.4.4 0 0 1 .08-.13 22.82 22.82 0 0 0 .26-.22.26.26 0 0 0 .1-.07l.03-.02a528.76 528.76 0 0 1 .62-.2 28.81 28.81 0 0 0 .85-.04.5.5 0 0 1 .13.02l.13.01.05.02.06.01c.08 0 .15 0 .22.03a.3.3 0 0 0 .07.02h.06l.05.03.01.03c.01.05.04.1.09.12l.01-.01a.48.48 0 0 0-.24-.41c-.23-.15-.5-.21-.8-.2-.3.02-.58.07-.87.15a1.36 1.36 0 0 0-.4.2l-.36.2a.96.96 0 0 0-.28.26l-.03.01h-.01v-.05l.17-.22c.08-.07.2-.17.4-.29.13-.1.22-.15.26-.16l.3-.09.27-.04c.33-.07.67-.08 1.01-.02Z" fill="#135B9C"/><path d="M6.15 8.16c-.21.49-.1.92.31 1.28a.7.7 0 0 0 .28.14c.35.1.7.13 1.04.1a1.7 1.7 0 0 0 .7-.08l.14-.05.15-.05c.03 0 .06-.02.1-.07h.03v.08c-.04.1-.1.16-.2.2-.33.12-.67.18-1.01.18-.34 0-.7-.04-1.06-.11a1.77 1.77 0 0 1-.67-.28.41.41 0 0 1-.09-.22.13.13 0 0 0-.04-.08.16.16 0 0 1-.02-.17v-.04l-.04-.04a.05.05 0 0 1 0-.04c0-.02 0-.05-.02-.08v-.05a.73.73 0 0 0 0-.2c-.01-.07 0-.13.02-.2a.95.95 0 0 1 .13-.28l.04-.08.14-.2c.1-.12.19-.2.28-.25a7.14 7.14 0 0 0 .43-.26c.1-.07.22-.12.33-.15.29-.08.58-.13.87-.15.3-.01.57.05.8.2.16.1.24.23.24.4 0 .02 0 .03-.01.02a.16.16 0 0 1-.09-.12l-.01-.03a.15.15 0 0 0-.05-.02l-.06-.01a.3.3 0 0 1-.07-.02.53.53 0 0 0-.22-.03l-.06-.01a.16.16 0 0 0-.05-.02l-.13-.01a29.03 29.03 0 0 1-.98.02c-.05 0-.1.02-.16.05a.65.65 0 0 1-.15.06 1.71 1.71 0 0 0-.34.1.26.26 0 0 1-.1.08 22.63 22.63 0 0 1-.26.22.4.4 0 0 0-.08.13l-.06.14Z" fill="#66BAC5"/><path d="m13.45 7.45-.03.1-.02.01a.32.32 0 0 1-.19-.06.66.66 0 0 0-.4-.12l-.03-.01a.21.21 0 0 0-.15-.05l-.04-.01a.08.08 0 0 0-.05-.02h-.05a.69.69 0 0 0-.28-.02 6.44 6.44 0 0 1-.45.08l-.2.05-.19.06-.2.08a.85.85 0 0 0-.2.1l-.2.15a.59.59 0 0 0-.13.14l-.13.16a.91.91 0 0 0 .04-.13c0-.03.02-.06.05-.09a.26.26 0 0 1 .07-.06l.04-.04a1.46 1.46 0 0 0 .2-.22c0-.02.02-.02.03-.03a.3.3 0 0 0 .14-.1l.03-.02.05-.01a.17.17 0 0 1 .1-.06l.04-.03a.08.08 0 0 1 .08-.04l.04-.01a.36.36 0 0 1 .14-.04l.1-.02.06-.02a.4.4 0 0 0 .12-.04l.04-.01a10.39 10.39 0 0 1 .36.01 3.92 3.92 0 0 1 .77.16l.03.02.41.14Z" fill="#3579A2"/><path d="M11.85 7.44a2.7 2.7 0 0 1 1.44.17c.24.1.42.28.52.53l.05.2v.06a.4.4 0 0 1-.06.28l-.13.2a.6.6 0 0 1-.17.15c-.2.11-.38.2-.56.24a3.76 3.76 0 0 1-1.37.06 3.42 3.42 0 0 1-.76-.4.8.8 0 0 1-.2-.22.55.55 0 0 1-.03-.42.77.77 0 0 1 .22-.36c.14-.12.3-.23.49-.3.14-.07.33-.13.56-.2Z" fill="#fff"/><path d="M9.13 7.73c.22.1.4.26.52.47.08.13.1.3.04.46a.68.68 0 0 1-.09.21l-.15.2-.16.14-.2.1-.05.04a.04.04 0 0 0-.02.02v.07l-.02.1-.07.14a3.12 3.12 0 0 1-1.22.33l-.36.02a2.3 2.3 0 0 1-1.42-.44c-.05-.03-.07-.07-.07-.12 0-.02 0-.02.02-.02l.03.03.02.03h.03c.2.13.43.22.67.27.37.07.72.1 1.06.1.34 0 .68-.05 1.02-.18.09-.03.15-.1.2-.19l-.01-.08h-.03a10.24 10.24 0 0 1-1.09.24c-.34.04-.7.01-1.04-.09a.7.7 0 0 1-.28-.14c-.42-.36-.52-.79-.31-1.28.18-.21.38-.36.6-.45a4.75 4.75 0 0 1 1.14-.23h.23c.04 0 .1 0 .2.03l.18.03c.05 0 .1 0 .14.03l.01.02.29.02c.04 0 .11.05.2.12Z" fill="#123C75"/><path d="M9.59 8.67a1.4 1.4 0 0 1-.19.3.93.93 0 0 1-.27.23 2.3 2.3 0 0 1-.56.2c-.16.04-.35.07-.59.1-.46.04-.85.01-1.2-.1a1.13 1.13 0 0 1-.33-.2.71.71 0 0 1-.22-.33c-.07-.29-.06-.5.05-.65.15-.21.33-.36.53-.44a3.25 3.25 0 0 1 1.95-.1c.18.04.35.1.48.2a1.1 1.1 0 0 1 .32.35c.08.16.1.3.03.44Z" fill="#fff"/><path d="M11.36 8.76a.48.48 0 0 1-.07-.15.3.3 0 0 1 0-.16c.04-.18.11-.31.22-.4.16-.15.37-.23.6-.27.28-.04.53.03.77.2.12.09.19.19.2.31a.5.5 0 0 1-.12.35 1.1 1.1 0 0 1-1.12.42.72.72 0 0 1-.48-.3ZM7.44 8.02a.9.9 0 0 1 .3-.1h.32c.14.02.27.07.4.14.1.05.16.11.22.19a.5.5 0 0 1 .06.47.62.62 0 0 1-.16.23c-.11.1-.22.17-.32.21l-.25.09a.77.77 0 0 1-.25.02 1.08 1.08 0 0 1-.44-.13.65.65 0 0 1-.3-.33.5.5 0 0 1 .06-.46c.04-.07.09-.13.16-.19l.2-.14Z"/><path d="M12.5 8.44c.12 0 .2-.09.2-.18 0-.1-.1-.18-.21-.17-.12 0-.2.09-.2.18 0 .1.1.18.21.17ZM8.22 8.57c.12-.05.19-.17.15-.26-.04-.1-.17-.14-.29-.1-.12.05-.2.17-.15.27.03.1.17.14.29.1Z" fill="#fff"/><path d="M8.87 9.43c-.04.05-.07.07-.1.07a.78.78 0 0 0-.15.05.61.61 0 0 1-.15.05c-.06 0-.13.02-.2.05a1.7 1.7 0 0 1-.49.02c.14 0 .27-.03.4-.06a192.93 192.93 0 0 1 .7-.18Z" fill="#3579A2"/><path d="m8.93 9.68-.13.19-.03.01a.19.19 0 0 0-.09.07l-.03.01a.26.26 0 0 0-.1.04.21.21 0 0 1-.08.04 1 1 0 0 0-.09.02.03.03 0 0 0-.01.02l-.01.01h-.01a.43.43 0 0 0-.1.04 3.02 3.02 0 0 1-.55.02v-.01c.01 0 .01-.01 0 0l-.01-.02a.03.03 0 0 0-.02-.02.46.46 0 0 0-.38.04l-.93-.02c-.2 0-.39.02-.54.07a.65.65 0 0 0-.37.3.72.72 0 0 0-.08.43c.02.2.05.36.1.48.08.18.2.36.38.52.2.27.46.47.77.58a4.6 4.6 0 0 0 1.57.31c.11.02.23.03.35.03a196.17 196.17 0 0 0 1.71-.02l.18-.02.18-.02a53.2 53.2 0 0 1 1.05-.09l.44-.1c.06 0 .07.02.03.06a.36.36 0 0 0-.03.05.13.13 0 0 1-.05.04l-.06.04a.1.1 0 0 0-.03.04.14.14 0 0 1-.1.07h-.02l-.13.1c.03-.03.04-.05 0-.05l-.08.03s-.01 0 0 0l.01-.02h.01l.02-.01s0-.01 0 0a.75.75 0 0 1-.06.02.4.4 0 0 0-.1.06.3.3 0 0 1-.12.06.41.41 0 0 0-.13.06.98.98 0 0 1-.2.1 8.87 8.87 0 0 1-.44.25c-.12.05-.21.09-.27.1a12.6 12.6 0 0 0-.56.15l-.27.05c-.23.03-.42.05-.56.05h-.6a10.08 10.08 0 0 1-.24-.08l-.23-.15a.55.55 0 0 1-.17-.14l-.14-.16a.06.06 0 0 1-.02-.04.18.18 0 0 0-.11-.18.24.24 0 0 1-.07-.05.2.2 0 0 0-.1-.05.4.4 0 0 1-.13-.06 1.89 1.89 0 0 0-.2-.11l-.01-.01a1.85 1.85 0 0 0-.2-.04.25.25 0 0 1-.12-.06.62.62 0 0 0-.18-.1.78.78 0 0 1-.17-.1c-.07-.04-.13-.09-.19-.15a.66.66 0 0 0-.15-.12.1.1 0 0 1-.04-.03.22.22 0 0 1-.02-.04.16.16 0 0 0-.1-.1.1.1 0 0 1-.07-.07.16.16 0 0 0-.03-.05.95.95 0 0 0-.23-.23.08.08 0 0 1-.03-.03.2.2 0 0 0-.05-.05.04.04 0 0 1 0-.04l-.02-.01c-.01 0-.02 0-.03-.02 0-.02-.01-.03-.03-.02a.16.16 0 0 1-.02-.1v-.03a.64.64 0 0 1-.04-.15v-.05a45.7 45.7 0 0 1-.05-.43c0-.06.02-.11.04-.15a.53.53 0 0 0 .05-.12c0-.04.02-.07.05-.1l.15-.14a.6.6 0 0 0 .1-.12.6.6 0 0 0 .05-.09c.02-.03.05-.06.1-.06l.03-.02a.35.35 0 0 1 .15-.05c.21-.04.4-.06.54-.06.34.12.65.17.92.15a56.65 56.65 0 0 0 .73-.06c.32-.06.6-.16.85-.29Z" fill="#66BAC5"/><path d="M13.47 9.9c.04.03.1.05.17.07.09.01.14.03.17.05.13.07.2.18.19.34 0 .1-.06.17-.18.24-.2.09-.42.15-.65.18v-.02c0-.02 0-.02-.02-.03h-.09c.22-.02.43-.07.63-.15.1-.03.17-.09.2-.16.04-.08.03-.16-.03-.25a.3.3 0 0 0-.13-.11.91.91 0 0 0-.17-.04h-.03a15.7 15.7 0 0 0-1.12.15 10.1 10.1 0 0 1-2.15.1 31.95 31.95 0 0 0-1.34 0 21.3 21.3 0 0 1-2.1-.06 5.56 5.56 0 0 1-.54 0 3.68 3.68 0 0 1-.3.02.56.56 0 0 0-.2.05c-.23.12-.33.31-.31.58.01.24.1.47.28.7.08.14.17.26.3.36.23.2.49.33.78.42l.42.13a2.68 2.68 0 0 0 .92.13 42.36 42.36 0 0 0 1.68.02 4.14 4.14 0 0 0 .54-.05c.16 0 .27-.02.35-.03.06 0 .12 0 .17-.02a8.35 8.35 0 0 0 .78-.08 5.9 5.9 0 0 0 .83-.14.7.7 0 0 0 .44-.25c.08-.1.14-.19.17-.26.12-.26.1-.58-.09-.96.04.02.06 0 .07-.02l.01-.02h.03c-.02.01-.03.03-.01.06l.09.21.05.25c.03.2 0 .35-.06.48a1 1 0 0 1-.37.46l-.12.07a.15.15 0 0 0-.02.05l-.01-.04h-.04l-.09.03-.1.04c-.2.06-.38.1-.56.1h-.08a1.1 1.1 0 0 1-.23.03 3.12 3.12 0 0 0-.63.07h-.02a.4.4 0 0 1-.09.01l-.2.02-.1.01-.14.01a.72.72 0 0 1-.2.03 7.34 7.34 0 0 0-.9.03 5.88 5.88 0 0 0-.53 0 18.03 18.03 0 0 0-.94-.05 2.69 2.69 0 0 1-.64-.11l-.15-.05-.16-.05a2.36 2.36 0 0 1-.64-.3 5.42 5.42 0 0 0-.4-.23c-.18-.16-.31-.34-.39-.52a1.57 1.57 0 0 1-.1-.48.72.72 0 0 1 .08-.43.65.65 0 0 1 .37-.3c.15-.05.33-.08.54-.07a102.02 102.02 0 0 1 2.56.07h1.75c.38 0 .75 0 1.12-.03a15.17 15.17 0 0 0 1.58-.24h.01c.06 0 .09-.01.09-.02Z" fill="#731545"/><path d="m13.06 10.73-.5.03a35.8 35.8 0 0 1-.72 0l-.37.03h-.16a6.56 6.56 0 0 0-.73-.03 34.4 34.4 0 0 1-2-.03l-.4-.01-1.37-.04c-.16 0-.29 0-.4.02h-.02c-.02-.01-.03-.02-.01-.03l.02-.02.02-.02a.72.72 0 0 1 .22-.03 53.7 53.7 0 0 1 1.4.03l.26-.01h.27a.2.2 0 0 1 .13.01h.35a4.3 4.3 0 0 0 .75.02.49.49 0 0 1 .16 0c.06.01.12.02.18.01a.4.4 0 0 1 .08 0 .3.3 0 0 0 .08.01c.16-.02.37-.03.62-.02a15.37 15.37 0 0 0 1.18-.01h.28l.16-.02h.15l.63-.07c.08 0 .15-.02.23-.04l.23-.08a.1.1 0 0 0 .07-.1c0-.02-.01-.02-.02-.03a.14.14 0 0 0-.08-.02h-.03l-.07-.1a.05.05 0 0 0-.04-.02l-.03.01a.06.06 0 0 1-.04.03l-.02.01c-.01.03-.04.04-.07.05-.02 0-.03 0-.04-.02a.04.04 0 0 1 0-.04l.02-.05v-.03a.03.03 0 0 0-.04-.01.18.18 0 0 0-.1.07.17.17 0 0 1-.1.06.15.15 0 0 1-.1 0 .78.78 0 0 0-.12-.04c-.06-.02-.12 0-.16.04l-.03.01h-.04a.15.15 0 0 0-.06-.02c-.06.01-.1.05-.14.12-.02.05-.05.05-.1.02a.41.41 0 0 1-.05-.04.1.1 0 0 1-.03-.06c0-.05.01-.09.06-.1a7.82 7.82 0 0 0 .96-.16.5.5 0 0 1 .18 0l.17.05c.06.02.1.06.13.1.06.1.07.18.03.26a.35.35 0 0 1-.2.16c-.2.08-.41.13-.63.15Z" fill="#F57F8F"/><path d="M6.4 10.7a.57.57 0 0 0-.17.05c-.06.03-.12.1-.15.2a.6.6 0 0 0 .25.56 3.4 3.4 0 0 0 1.1.5 4.92 4.92 0 0 0 1.16.1 17.93 17.93 0 0 1 1.42-.01h.27a128.05 128.05 0 0 0 1.43-.11c.2-.03.37-.07.5-.14l.19-.09a.58.58 0 0 0 .3-.3.67.67 0 0 0 0-.4.67.67 0 0 0-.14-.19v-.02c.17-.04.33-.05.48-.02.19.38.21.7.1.96l-.18.26a.7.7 0 0 1-.44.25l-.17.04-.19.05a5.94 5.94 0 0 1-.86.1l-.39.03-.17.02a3.2 3.2 0 0 1-.55.05 4.14 4.14 0 0 1-.5.03l-.29.01a42.36 42.36 0 0 1-1.65-.05c-.12 0-.28-.04-.5-.1l-.02-.05v-.03c.08 0 .15 0 .2.02a1.47 1.47 0 0 0 .97.1 40.87 40.87 0 0 1 1.33 0H10.04c.17-.01.33-.02.48-.05l.45-.04c.17 0 .32-.03.47-.06l.31-.03a.91.91 0 0 0 .22-.04l.1-.01c.06 0 .11-.02.16-.05.05-.03.1-.04.14-.05a2.88 2.88 0 0 0 .2-.03c.03-.04.08-.06.14-.07.03 0 .05-.03.06-.06a.15.15 0 0 1 .1-.1l.02-.03c.01-.04 0-.07-.04-.1h-.01c-.02.05-.05.07-.1.1l-.09-.01-.05-.01c-.02 0-.04 0-.06.02a.34.34 0 0 1-.07.03.06.06 0 0 0-.04.03c-.02.04-.05.06-.1.06l-.04.01-.04.02a.3.3 0 0 1-.1.05 6.84 6.84 0 0 0-.58.1h-.17a.42.42 0 0 0-.16.06.24.24 0 0 1-.1.03h-.09c-.07 0-.12.01-.16.03a.2.2 0 0 1-.08.01c-.07 0-.12 0-.17.02a.23.23 0 0 1-.11.01 4.83 4.83 0 0 0-.2-.02c-.06 0-.1 0-.14.04l-.03.01-.4-.04c-.02 0-.03.01-.04.03a5.37 5.37 0 0 0-.72-.03h-.37l-.04-.01a.08.08 0 0 1-.01-.04c0-.02-.01-.03-.03-.03h-.04c-.01 0-.02.01-.02.03v.04l-.03.02c-.05 0-.1 0-.13-.03a.04.04 0 0 1-.03-.03l-.01-.06a.03.03 0 0 0-.03-.02H8.1a.16.16 0 0 0-.14.01h-.04a4 4 0 0 1-.17-.04 88.07 88.07 0 0 0-.4 0 .09.09 0 0 1-.03-.05.04.04 0 0 0-.03-.03 3.06 3.06 0 0 0-.3-.08.39.39 0 0 1-.12-.08.2.2 0 0 0-.1-.04c-.02 0-.03 0-.04-.02a.29.29 0 0 0-.1-.04.04.04 0 0 1-.03-.03l-.02-.01a.13.13 0 0 1-.07-.03l-.03-.01a.2.2 0 0 1-.11-.05l-.04-.02a.46.46 0 0 1-.23-.13v-.03c-.01-.04-.04-.06-.08-.06l-.04-.01a.36.36 0 0 1-.09-.08c-.04-.05-.07-.05-.08.02v.04l.02.03c0 .09-.02.11-.07.07a1.27 1.27 0 0 1-.28-.69c-.02-.27.09-.46.32-.58a.56.56 0 0 1 .18-.05 2.34 2.34 0 0 1 .31-.02 3.98 3.98 0 0 1 .53 0l.32.01a21.3 21.3 0 0 0 2.3.05 24.18 24.18 0 0 0 .83 0h.77c.46 0 .93-.04 1.39-.1-.05.01-.06.05-.06.1 0 .03.01.05.03.06l.05.04c.05.03.08.03.1-.02.03-.07.08-.1.14-.12l.06.01.04.01.03-.01c.04-.05.1-.06.16-.04l.12.03c.03.02.06.02.1 0a.17.17 0 0 0 .1-.05.18.18 0 0 1 .1-.07h.03v.04l-.01.05v.04l.04.02c.03 0 .06-.02.07-.05l.02-.01.04-.03a.04.04 0 0 1 .03-.01c.02 0 .03 0 .04.02l.07.1h.03c.03 0 .05 0 .08.02l.02.03a.1.1 0 0 1-.07.1 1.87 1.87 0 0 1-.46.12 10.77 10.77 0 0 0-.78.07l-.16.01-.28.01h-.18c-.52.02-.85.02-1 .01-.25 0-.46 0-.62.02a.3.3 0 0 1-.08 0 .4.4 0 0 0-.08 0c-.06 0-.12 0-.18-.02H9.8l-.12.01a10.53 10.53 0 0 0-.63-.03H8.7a.2.2 0 0 0-.13 0h-.15c-.05-.01-.09-.02-.12-.01H7.51a53.7 53.7 0 0 0-.88-.02.73.73 0 0 0-.21.03l-.02.02-.02.02c-.02 0-.01.02 0 .02h.03Z" fill="#EC6074"/><path d="M11.31 10.79a.22.22 0 0 1-.1.02c-.05 0-.07.02-.07.05h-.89a5.62 5.62 0 0 1-.7-.04l-.27.01a3.32 3.32 0 0 1-.44.02 3.46 3.46 0 0 1-.47-.03 6.36 6.36 0 0 1-.57-.02h-.22a5 5 0 0 0-.6 0l-.75-.05a.57.57 0 0 1 .18-.05c.11-.02.24-.02.4-.01a56.56 56.56 0 0 0 1.78.04 14.24 14.24 0 0 0 1.24.02h.75c.25 0 .5.01.73.04Z" fill="#B10534"/><path d="M13.06 10.73h.1l.01.03v.02h-.05l-.01.03c-.01.03-.03.04-.07.02a1.03 1.03 0 0 0-.48.02v.02c.04.04.09.1.13.2a.7.7 0 0 0-.12 0 31.45 31.45 0 0 0-.7.05 2.9 2.9 0 0 0-.45.02h-.03l-.02.01c-.02.2-.1.34-.24.44l-.32.18a.07.07 0 0 0-.03.03.23.23 0 0 1-.07.08l-.16.08a.55.55 0 0 1-.21.04l-.22.02L9.7 12a1.71 1.71 0 0 0-.37 0A.3.3 0 0 1 9.2 12a.73.73 0 0 0-.13-.03s-.02 0-.03-.02c-.02-.01-.04-.02-.06-.01h-.04a1.8 1.8 0 0 1-.35-.15.8.8 0 0 0-.2-.07.06.06 0 0 1-.03-.02.36.36 0 0 0-.18-.12l-.03-.01a.22.22 0 0 0-.11-.06c-.01 0-.02 0-.03-.02a.12.12 0 0 0-.1-.03H7.9a.16.16 0 0 0-.06-.03.18.18 0 0 1-.08-.03.66.66 0 0 0-.22-.1 5.83 5.83 0 0 0-.88 0c-.03.03-.07.04-.11.05a.18.18 0 0 1-.13-.01.19.19 0 0 1-.1-.1 2.94 2.94 0 0 1-.08-.17c0-.01-.01-.02-.02-.01-.05.01-.08.01-.1-.01-.03-.02-.04-.06-.04-.1.03-.1.09-.17.15-.2l.75.05.32.1.3.13a3 3 0 0 1 .41.19 43.2 43.2 0 0 0 1.03.51c.28.06.5.1.64.1a3.25 3.25 0 0 0 1.2-.21c.16-.08.26-.17.32-.27.07-.14.06-.3-.03-.47l-.03-.02c0-.03.02-.05.07-.05s.08 0 .1-.02h.16l1.08-.03.51-.03Z" fill="#550A16"/><path d="m11.14 10.86.03.02a1.9 1.9 0 0 0-.04.18.53.53 0 0 1-.06.17.36.36 0 0 1-.09.1.25.25 0 0 1-.11.05.2.2 0 0 0-.12.06 5.75 5.75 0 0 0-.25.07.06.06 0 0 0-.02.04c0 .02 0 .02-.02.02s-.03 0-.04.03v.02a.24.24 0 0 1-.13.06l-.2.03a.98.98 0 0 0-.18.03.3.3 0 0 1-.15 0 .56.56 0 0 0-.13-.02c-.13 0-.28-.01-.44-.05a.7.7 0 0 1-.17-.06.33.33 0 0 0-.08-.03.31.31 0 0 1-.08-.03.44.44 0 0 0-.09-.03.42.42 0 0 1-.08-.05.38.38 0 0 0-.1-.04.28.28 0 0 1-.1-.06h-.05a2.59 2.59 0 0 0-.43-.2v.05a3 3 0 0 0-.4-.2 14.2 14.2 0 0 1-.63-.22 5.02 5.02 0 0 1 .82 0h.22a6.36 6.36 0 0 0 .48.03l.17.02a3.46 3.46 0 0 0 .3 0l.3-.02a2.5 2.5 0 0 1 .57 0 5.68 5.68 0 0 0 .67.03h.63Z" fill="#E74B69"/><path d="M11.17 10.88c.09.17.1.33.03.47-.05.1-.16.2-.32.27a3.25 3.25 0 0 1-1.2.22c-.14-.01-.36-.05-.64-.1A43.2 43.2 0 0 1 8 11.22v-.07h.02a2.59 2.59 0 0 1 .43.2l.02.01c.04.03.07.05.11.06.03 0 .06.02.1.04l.08.05c.04 0 .06.02.09.03l.08.03c.03 0 .06.02.08.03a.7.7 0 0 0 .17.06c.16.04.3.06.44.05.04 0 .09 0 .13.02h.15a.98.98 0 0 1 .17-.03c.07 0 .14-.02.2-.03.05 0 .1-.02.13-.06l.01-.02c0-.02.02-.03.04-.03.01 0 .02 0 .02-.02 0-.01 0-.03.02-.04a5.8 5.8 0 0 1 .25-.07.2.2 0 0 1 .12-.06c.04 0 .07-.02.11-.05a.36.36 0 0 0 .1-.1.53.53 0 0 0 .05-.17l.04-.18Z" fill="#F57F8F"/><path d="M6.08 10.95c0 .04 0 .08.04.1.02.02.05.02.1 0l.02.02.08.18c.02.04.05.06.1.09.04.02.09.02.13.01a14.08 14.08 0 0 0 .24-.06 5.8 5.8 0 0 1 .75.02l.06.01a.66.66 0 0 1 .17.09l.07.02.06.02.03.01.09.03.03.02c.04 0 .08.03.1.06l.04.01c.07.02.13.06.18.12l.04.02a.8.8 0 0 1 .19.07c.1.06.22.11.35.15h.04c.02-.01.04 0 .06.01l.03.02c.05 0 .1.01.13.03a.3.3 0 0 0 .12 0h.37c.15.02.29.03.42.02l.22-.02c.08 0 .15-.01.21-.04l.16-.08a.23.23 0 0 0 .07-.08c0-.02.02-.03.03-.03l.32-.18c.14-.1.22-.24.24-.44l.02-.01h.07l.4-.02a3.2 3.2 0 0 0 .58-.03c.04 0 .08 0 .13-.02l.12-.01c.05.15.05.29.02.4a.58.58 0 0 1-.3.3l-.2.09c-.13.07-.3.11-.5.13a128.6 128.6 0 0 1-1.43.11 13.04 13.04 0 0 0-.68.01 17.93 17.93 0 0 0-1.15.02c-.35 0-.7-.03-1.02-.1a3.4 3.4 0 0 1-1.1-.5.6.6 0 0 1-.25-.57Z" fill="#C40F21"/><path d="m10.55 11.23.02.01v.03a.15.15 0 0 1-.06.05.32.32 0 0 1-.07.02.28.28 0 0 0-.1.03.11.11 0 0 1-.1.01.48.48 0 0 0-.22-.02H10a.2.2 0 0 0-.15-.03l-.05-.01a.05.05 0 0 1-.01-.05.2.2 0 0 1 .1-.14c.04-.02.1-.03.19-.04h.06l.18-.01h.19c.08-.01.14 0 .2.06v.03l-.05.02h-.03l-.04-.03h-.03a.04.04 0 0 0-.02.06l.02.01Z" fill="#F57F8F"/><path d="m7.25 12.47-.42-.13a2.2 2.2 0 0 1-.78-.42c-.13-.1-.22-.22-.3-.37.05.04.07.02.07-.07 0-.01 0-.02-.02-.03a.04.04 0 0 1 0-.04c.01-.07.04-.07.08-.02l.09.08H6c.04 0 .07.03.07.07l.01.03c.07.07.14.11.23.13.02 0 .03 0 .04.02a.2.2 0 0 0 .11.05l.03.01.07.03.02.01c0 .02.01.03.03.03a.3.3 0 0 1 .1.04l.04.02a.2.2 0 0 1 .1.04l.13.08.29.08.03.03c0 .02.01.03.03.04h.03a88.07 88.07 0 0 1 .37 0 1.36 1.36 0 0 1 .17.06h.04a.16.16 0 0 1 .14-.03l.13.01h.04c.01 0 .02 0 .03.02l.01.06c0 .02.01.03.03.03.04.03.08.04.13.03.01 0 .02 0 .02-.02v-.04c0-.02.02-.03.03-.03h.04c.02 0 .03.01.03.03l.01.04.04.01h.4l.01-.01h.02a.2.2 0 0 0 .08.02h.18a5.31 5.31 0 0 1 .4.02c0-.02.02-.03.05-.03a22.05 22.05 0 0 1 .42.03c.03-.03.08-.05.14-.04l.2.02h.1a.53.53 0 0 1 .18-.03.2.2 0 0 0 .08-.01.46.46 0 0 1 .16-.03h.1l.09-.03c.05-.04.1-.05.16-.06h.17l.04-.01a.12.12 0 0 1 .08-.01l.02-.01c0-.03.03-.04.06-.03h.07l.3-.04a.3.3 0 0 0 .11-.05l.04-.02h.04c.05 0 .08-.03.1-.07l.04-.03.07-.03a.11.11 0 0 1 .06-.02h.05c.04.02.07.02.09.01.05-.02.08-.04.1-.08h.01c.04.02.05.05.04.09l-.03.02a.16.16 0 0 0-.1.11c0 .03-.02.05-.05.06a.32.32 0 0 0-.15.07 2.77 2.77 0 0 1-.19.03c-.04 0-.1.02-.14.05a.39.39 0 0 1-.15.05 1.12 1.12 0 0 0-.16.03.93.93 0 0 1-.17.02l-.31.03c-.15.03-.3.05-.47.06-.16 0-.3.02-.45.04a4.44 4.44 0 0 1-.94.05 40.87 40.87 0 0 0-1.38-.03H8a4.92 4.92 0 0 1-.76-.09c-.02 0-.02.01-.01.03l.02.04Z" fill="#E74B69"/><path d="M5.28 11.55c.02 0 .03 0 .03.02l.03.02.01.01.01.04a.2.2 0 0 1 .05.05c0 .02.02.03.03.03.09.06.16.14.23.23l.03.05a.1.1 0 0 0 .07.07c.02 0 .04.02.06.04l.04.06.02.04c0 .01.02.03.04.03l.15.12.19.16.17.09c.07.02.13.06.18.1.04.03.08.05.13.06a1.85 1.85 0 0 1 .2.05l.02.01.18.1a.4.4 0 0 0 .13.06.2.2 0 0 1 .1.05l.07.05c.07.03.11.09.11.18a2.61 2.61 0 0 1 .15.2c.05.05.1.1.18.14l.23.15.12.06c.05 0 .09.02.13.03h-.23a3.93 3.93 0 0 1-.24-.02.92.92 0 0 1-.31-.12.2.2 0 0 1-.07-.05 4.54 4.54 0 0 0-.26-.16.09.09 0 0 1-.04-.04.07.07 0 0 0-.03-.04.69.69 0 0 1-.17-.16.42.42 0 0 0-.1-.1 1.4 1.4 0 0 1-.16-.13.2.2 0 0 0-.1-.06.14.14 0 0 1-.08-.06.18.18 0 0 0-.04-.05 1.5 1.5 0 0 1-.23-.21l-.02-.02-.03-.01a4.13 4.13 0 0 1-.33-.33.26.26 0 0 1-.12-.11.07.07 0 0 0-.03-.03l-.13-.08a.11.11 0 0 1-.05-.06.2.2 0 0 1-.01-.08l-.01-.04-.22-.16v-.01a.3.3 0 0 0-.06-.08.06.06 0 0 1-.01-.03l-.01-.06Z" fill="#5BA6BD"/><path d="m5.85 11.92.4.23a2.7 2.7 0 0 0 .96.4l.33.07.31.04.32.02a18.03 18.03 0 0 1 .97.03 5.88 5.88 0 0 1 .47 0l.62-.03c.06 0 .12 0 .19-.03l.14-.01h.1c.07-.02.13-.03.2-.03a.4.4 0 0 0 .1 0l.01-.01a.5.5 0 0 1 .11-.02 2.76 2.76 0 0 0 .44-.05h.08l.23-.02.08-.01c.18 0 .37-.04.55-.1a.23.23 0 0 1-.19.08c-.02 0-.04 0-.06.02h-.03a6.34 6.34 0 0 1-.72.18 6.04 6.04 0 0 0-1.03.12l-.18.02-.27.01c-.1.02-.19.02-.27.02a34.34 34.34 0 0 0-1.17 0 2.2 2.2 0 0 1-.39-.05.06.06 0 0 0-.04-.01 8.1 8.1 0 0 1-1.02-.13 4.6 4.6 0 0 1-.47-.16c-.31-.11-.57-.3-.77-.58Z" fill="#135B9C"/><path d="M12.57 12.36h.01l.02.01v.02l-.18.2c-.04.06-.1.11-.17.16a3.43 3.43 0 0 1-.3.2l-.32.13a.45.45 0 0 0-.16.08l-.02.02-.03.01.2-.17c.03 0 .06 0 .09-.04l.13-.09h.02c.04-.01.08-.04.1-.07a.1.1 0 0 1 .03-.04l.06-.04a.13.13 0 0 0 .05-.04c0-.02.01-.03.03-.05.04-.04.02-.06-.03-.05a4.44 4.44 0 0 0-.49.12l-1 .06c.26-.05.54-.08.85-.1a6.29 6.29 0 0 0 .81-.2c.07.01.14-.02.2-.08l.1-.04Z" fill="#3579A2"/><path d="M7.37 13.83c-.12 0-.23 0-.34-.02a3.8 3.8 0 0 0-.23-.04c-.04 0-.1-.02-.19-.05a2.6 2.6 0 0 1-.35-.1l-.15-.08a.5.5 0 0 0-.25-.06c.01-.06-.01-.13-.07-.2-.02-.1-.06-.2-.11-.28a.34.34 0 0 1-.03-.08.08.08 0 0 0-.03-.05 5.98 5.98 0 0 1-.09-.2l.01-.03h.03l.03.03.02.01.19.07c.03.01.06.03.09.07l.08.1.06.04.02.02a1.4 1.4 0 0 0 .6.46 2.75 2.75 0 0 0 .14.1v.02c.02 0 .03 0 .03.02 0 .01 0 .01 0 0a.58.58 0 0 1-.03 0l.09.07.01.02.02.03.06.06h.11c.02.02.03.03.06.03h.03a.2.2 0 0 0 .1.01.1.1 0 0 1 .09.03Z" fill="#135B9C"/><path d="M11.22 12.93c.01.02.02.03.01.05l-.03.04a6.63 6.63 0 0 0-.2.13l-.1.02a3 3 0 0 1-.25.2.3.3 0 0 1-.08.02.39.39 0 0 0-.09.03c-.13.06-.25.1-.37.12a5.02 5.02 0 0 1-.5.1.63.63 0 0 1-.87.04.57.57 0 0 1-.24-.16l-.03-.01c-.3-.09-.53-.24-.69-.46a.06.06 0 0 1 0-.05c0-.02.02-.04.03-.04a.42.42 0 0 1 .22-.02c.06.02.13.02.18.02h.3l.08-.03.04-.01a.5.5 0 0 0 .18-.01l.19-.03.47.01h.56l.2.02a5.26 5.26 0 0 0 .33-.03l.04-.01c.09 0 .18 0 .26.03a.3.3 0 0 0 .15 0l.06-.01h.06a.5.5 0 0 0 .08.03h.01v.01Z" fill="#94D0D3"/><path d="m11.72 12.94-.1.08-.2.17-.8.3a8.87 8.87 0 0 0 .44-.25.98.98 0 0 0 .2-.1.41.41 0 0 1 .13-.06.3.3 0 0 0 .13-.06.4.4 0 0 1 .09-.06.72.72 0 0 0 .05-.03c.01 0 .01 0 0 0v.02h-.02l-.01.01v.01l.09-.03Z" fill="#629FC0"/><path d="M11.95 12.95a.62.62 0 0 1-.18.1.08.08 0 0 0-.04.02c0 .02-.01.02-.02.03l-.1.03a.05.05 0 0 0-.02.02h-.02l-.03.01v.02s0 .01 0 0a.2.2 0 0 0-.09 0l.02-.02a.3.3 0 0 0 .16-.08l.32-.13Z" fill="#123C75"/><defs><linearGradient id="asezbkk1s" x1="15.46" y1="3.55" x2="0" y2="14.1" gradientUnits="userSpaceOnUse"><stop stop-color="#8C72D7"/><stop offset="1" stop-color="#54ADB8"/></linearGradient></defs></svg>