<!-- by TradingView --><svg width="18" height="18" viewBox="0 0 18 18" xmlns="http://www.w3.org/2000/svg"><path fill="#F0F3FA" d="M0 0h18v18H0z"/><path d="M8.75 4h.33c1.55.56 3.09 1.12 4.63 1.7.14.04.23.17.29.37v3.17L9.25 14h-.33l-4.64-1.7c-.12-.04-.21-.16-.28-.37V8.75L8.75 4Z"/><path d="M13.38 6.2 9.1 10.5a3 3 0 0 0-.18-.01.56.56 0 0 1-.17-.04c-1.77-.63-3.05-1.1-3.85-1.4-.12-.04-.18-.13-.17-.25l4.18-4.17a.1.1 0 0 1 .05-.03.1.1 0 0 1 .06 0l4.35 1.6Z" fill="#D36853"/><path d="M10.03 7.42c-.63-.44-.71-1.18-.79-1.4.44-.14.89-.12 1.35.07.5.2.64.7.2 1.06-.21.18-.47.27-.76.27Z" fill="#8E3216"/><path d="M9.24 6.02c.18.54.5.93.95 1.18a.1.1 0 0 1 .03.13.1.1 0 0 1-.03.04.36.36 0 0 1-.16.05c-.52.05-1.67-.28-1.29-.99.09-.16.26-.3.5-.4Z" fill="#681C0A"/><path d="M13.38 6.19v2.7c0 .08 0 .17-.06.23L9 13.38V10.5l4.38-4.31ZM8.53 9.1a2.49 2.49 0 0 1-1.06-1.35 1.7 1.7 0 0 1 1.27.04c.55.23.75.76.16 1.15-.17.11-.3.16-.37.15Z" fill="#8E3216"/><path d="M7.47 7.75c.15.5.5.96 1.06 1.34-.5.13-.95.07-1.33-.17-.59-.36-.3-.98.27-1.17Z" fill="#681C0A"/><path d="M4.74 8.8c-.01.12.05.21.17.26l3.85 1.4.17.03H9V13.38l-4.32-1.55c-.08-.03-.06-.08-.06-.17V8.99c0-.07.01-.13.12-.19Z" fill="#AA472D"/></svg>