<!-- by TradingView --><svg width="18" height="18" viewBox="0 0 18 18" xmlns="http://www.w3.org/2000/svg"><path fill="#F0F3FA" d="M0 0h18v18H0z"/><path d="M6.05 5.2A.11.11 0 0 1 6 5.1v-.96c0-.3.1-.6.3-.8A1 1 0 0 1 7.04 3h.12c.24 0 .47.07.67.2l4.75 3.1c.26.16.42.47.42.8v.23c0 .48-.23.92-.6 1.16l-6.22 3.94c-.08.05-.18-.01-.18-.11V5.84c0-.13.13-.2.23-.14l3.1 1.94c.16.1.16.36 0 .46l-1.03.66a.23.23 0 0 1-.25 0l-.44-.28c-.04-.03-.09 0-.09.06v1c0 .04.05.08.1.05l3.47-2.2a.07.07 0 0 0 0-.12L7.6 5.07c-.04-.02-.09.01-.09.06v.53c0 .2-.2.33-.36.23l-1.1-.69Z" fill="url(#ac2tdr451)"/><path d="M6.02 12.92a.04.04 0 0 0-.02.03v.91c0 .3.1.6.3.8a1 1 0 0 0 .74.34h.12c.24 0 .47-.07.68-.2l4.56-2.91c.37-.24.6-.68.6-1.16 0-.47-.23-.87-.6-1.1l-.38-.25a.32.32 0 0 0-.34 0l-1.2.75a.12.12 0 0 0 0 .2l.63.4c.04.03.04.1 0 .12l-3.5 2.17c-.04.03-.09 0-.09-.06v-.59c0-.18-.18-.29-.32-.2l-1.18.75Z" fill="url(#bc2tdr451)"/><defs><linearGradient id="ac2tdr451" x1="13" y1="7.67" x2="6" y2="7.67" gradientUnits="userSpaceOnUse"><stop stop-color="#3710DC"/><stop offset="1" stop-color="#8109EA"/></linearGradient><linearGradient id="bc2tdr451" x1="13" y1="11.5" x2="6" y2="11.5" gradientUnits="userSpaceOnUse"><stop stop-color="#10DBB7"/><stop offset="1" stop-color="#7E0CE9"/></linearGradient></defs></svg>