<!-- by TradingView --><svg width="18" height="18" viewBox="0 0 18 18" xmlns="http://www.w3.org/2000/svg"><path fill="url(#a0sctz2s4)" d="M0 0h18v18H0z"/><path fill-rule="evenodd" d="M6.85 4h3.38A2.71 2.71 0 0 1 13 6.65c0 1.02-.6 1.91-1.5 2.35.9.44 1.5 1.33 1.5 2.35A2.71 2.71 0 0 1 10.23 14H6.85A1.8 1.8 0 0 1 5 12.24V5.76C5 4.8 5.83 4 6.85 4Zm-.16.98c-.42 0-.69.23-.69.64 0 .32.2.38.54.38h.96v-.38c0-.4-.38-.64-.8-.64ZM9.12 6a.9.9 0 0 1 .14-.17A1 1 0 0 1 11 6.5a1 1 0 0 1-1.74.67.9.9 0 0 1-.14-.17H8.5v1.5h1.65c1.07 0 1.85-.76 1.85-1.78C12 5.71 11.22 5 10.15 5H8.47c-.05 0-.09.06-.07.1.05.1.1.26.1.49V6h.62ZM7.5 7h-.96C6.24 7 6 6.8 6 6.8v4.35s.23-.15.54-.15h.96V7Zm-.96 5h.96v.38c0 .4-.38.62-.8.62-.27 0-.65-.21-.7-.5-.04-.37.19-.5.54-.5Zm1.96.41V12h.62l.14.17A1 1 0 0 0 11 11.5a1 1 0 0 0-1.74-.67.9.9 0 0 0-.14.17H8.5V9.5h1.65c1.07 0 1.85.84 1.85 1.85 0 1.02-.78 1.65-1.85 1.65h-1.8a.07.07 0 0 1-.07-.1l.06-.1c.07-.1.16-.23.16-.39Z" fill="#F1B90C"/><defs><linearGradient id="a0sctz2s4" x1="3.35" y1="3.12" x2="21.9" y2="24.43" gradientUnits="userSpaceOnUse"><stop stop-color="#1A1E21"/><stop offset="1" stop-color="#06060A"/></linearGradient></defs></svg>