<!-- by TradingView --><svg xmlns="http://www.w3.org/2000/svg" width="18" height="18" viewBox="0 0 18 18"><path fill="#E6ECEC" d="M0 0h18v18H0z"/><path d="M6.87 4.47a5 5 0 0 1 .9-.32 1.41 1.41 0 0 0 2.46 0 5 5 0 0 1 .9.32 2.35 2.35 0 0 1-4.26 0zm4.45 1.74c0-.51.17-1 .45-1.38.27.17.51.37.74.6-.16.22-.25.49-.25.78a1.4 1.4 0 0 0 1.56 1.4c.09.3.15.6.18.92-.11.02-.22.02-.33.02a2.35 2.35 0 0 1-2.35-2.34zM14 9.4a2.35 2.35 0 0 0-2.22 3.75c.27-.17.51-.37.73-.59a1.4 1.4 0 0 1 1.32-2.24c.09-.3.14-.6.17-.92zm-5 2.82c.93 0 1.73.53 2.11 1.31a5 5 0 0 1-.9.32 1.41 1.41 0 0 0-2.43 0 5 5 0 0 1-.9-.32A2.35 2.35 0 0 1 9 12.21zm-2.81.92A2.35 2.35 0 0 0 4 9.42c.03.31.08.62.17.92h.13a1.4 1.4 0 0 1 1.16 2.2c.22.21.47.41.73.59zM4.3 8.6c-.1 0-.2 0-.31-.02.03-.32.08-.62.16-.92h.15a1.4 1.4 0 0 0 1.15-2.21c.23-.22.47-.42.73-.6A2.35 2.35 0 0 1 4.31 8.6zm4.7 2.89a2.5 2.5 0 1 0-2.43-3.14A2.51 2.51 0 0 0 9 11.49zm1.56-2.5a1.56 1.56 0 1 1-3.13 0 1.56 1.56 0 0 1 3.13 0z" fill="#0E0E11"/></svg>