<!-- by TradingView --><svg width="18" height="18" viewBox="0 0 18 18" xmlns="http://www.w3.org/2000/svg"><path fill="#0075F2" d="M0 0h18v18H0z"/><path d="M4 4.32c0-.2.17-.32.39-.32h.98c.52 0 .99.33 1.13.82l.83 2.54h3.13c.54-.01.87-.31.87-.8 0-.48-.66-.56-1.17-.56H8.39C8.17 6 8 5.89 8 5.68c0-.2.17-.32.39-.32h1.77c.87 0 1.84.3 1.84 1.2 0 .4-.2.56-.35.82A2.44 2.44 0 0 1 14 9.77 2.28 2.28 0 0 1 11.67 12H8.98c-.61 0-1.21-.3-1.42-.85l-.2-.57a.37.37 0 0 1 .24-.47.4.4 0 0 1 .13-.03c.15 0 .25.1.3.25l.21.57c.1.26.46.46.74.46h2.7c.85 0 1.65-.77 1.65-1.6 0-.81-.8-1.76-1.66-1.76H10.3c-.9.01-1.82 0-2.74 0l.22 1h.5c.22 0 .4.11.4.32 0 .2-.18.32-.4.32H5.4c-.22 0-.39-.11-.39-.32 0-.2.17-.32.39-.32h1.58L5.76 4.92a.4.4 0 0 0-.4-.28H4.4c-.22 0-.39-.11-.39-.32Z" fill="#fff"/><path d="M4 7.32c0-.18.16-.32.35-.32h1.97c.19 0 .35.14.35.32s-.16.33-.35.33H4.35c-.2 0-.35-.15-.35-.33ZM6 11.32c0-.18.15-.32.34-.32h.98c.2 0 .35.14.35.32s-.16.33-.35.33h-.98c-.19 0-.34-.15-.34-.33Z" fill="#fff"/><ellipse cx="5.33" cy="11.32" rx=".33" ry=".32" fill="#fff"/><path fill-rule="evenodd" d="M9 14a1 1 0 1 0 0-2 1 1 0 0 0 0 2Zm-.01-.54c.25 0 .45-.2.45-.46 0-.25-.2-.46-.45-.46s-.45.2-.45.46c0 .25.2.46.45.46Z" fill="#fff"/><path fill-rule="evenodd" d="M11 14a1 1 0 1 0 0-2 1 1 0 0 0 0 2Zm-.01-.54c.25 0 .45-.2.45-.46 0-.25-.2-.46-.45-.46s-.45.2-.45.46c0 .25.2.46.45.46Z" fill="#fff"/></svg>