<!-- by TradingView --><svg xmlns="http://www.w3.org/2000/svg" width="18" height="18"><path fill="url(#ad5gwzu2i)" d="M0 0h18v18H0z"/><path fill-rule="evenodd" d="M10.74 13.7a5 5 0 10-3.48 0h.28c.47 0 .96-.38.96-.86V10h-.98A.51.51 0 017 9.5c0-.28.23-.5.52-.5h2.95c.29 0 .53.22.53.5s-.24.5-.53.5H9.5v2.84c0 .48.52.86.99.86h.25zM9 8a1 1 0 100-2 1 1 0 000 2zm-3.5 2a.5.5 0 100-1 .5.5 0 000 1zm7.5-.5a.5.5 0 11-1 0 .5.5 0 011 0z" fill="#fff"/><defs><linearGradient id="ad5gwzu2i" x1="3.35" y1="3.12" x2="21.9" y2="24.43" gradientUnits="userSpaceOnUse"><stop stop-color="#1A1E21"/><stop offset="1" stop-color="#06060A"/></linearGradient></defs></svg>