<!-- by TradingView --><svg width="18" height="18" viewBox="0 0 18 18" xmlns="http://www.w3.org/2000/svg"><path fill="#2175FF" d="M0 0h18v18H0z"/><path d="M10.98 8.45c-.3.56-.86.83-1.1.9.15.56.63.84 1.1.8.37-.03.72-.39.84-.6.95-1.57 1.95-1.66 2.48-1.66.27 0 .75-.16.7-.77-.06-.6-.65-.63-.97-.62a3.66 3.66 0 0 0-3.05 1.95Z" fill="#fff"/><path d="M8.88 7.67a4.59 4.59 0 0 1-1.24 2.5c.1.42.26 1.02.95.97 1.07-.08 1.05-1.32 1.22-2.28.14-.77.66-1.36.9-1.56-.93-.85-1.73-.15-1.83.37ZM3.02 10.4c-.1-.6.18-1 .5-1.06.5-.1.73.27.78.46.06.3.09.85.37.85.35 0 1.55-2.54 1.66-2.72.12-.18.67-1.07 1.53-.97.68.08.84.57.83.81-1.02.04-1.69 1.9-2.25 2.83-.27.45-.95 1.4-1.77 1.4-1.03 0-1.52-.83-1.65-1.6Z" fill="#fff"/></svg>