<!-- by TradingView --><svg width="18" height="18" viewBox="0 0 18 18" fill="none" xmlns="http://www.w3.org/2000/svg">
<rect width="18" height="18" fill="#1622DD"/>
<path d="M7.51485 4H12.9808L5.53465 12.658L9.67327 9H15L10.4851 14H4.64356L3 8.83539L7.51485 4Z" fill="url(#paint0_linear_2357_47777)"/>
<path d="M10.3403 9.62941C10.1733 9.63874 9.9059 9.35484 9.79305 9.21173C9.87204 9.35651 10.035 9.67946 10.0549 9.81301C10.0749 9.94655 9.78876 10.2814 9.64322 10.4321C9.78716 10.3171 10.1179 10.0969 10.2895 10.1361C10.461 10.1752 10.737 10.469 10.8536 10.611C10.759 10.475 10.5645 10.1522 10.5436 9.94921C10.5226 9.74627 10.8156 9.4459 10.9647 9.32108C10.8262 9.41997 10.5073 9.62008 10.3403 9.62941Z" fill="white"/>
<path d="M5.46216 12.4546C5.25095 12.4664 4.91265 12.1073 4.7699 11.9263C4.86983 12.1094 5.07598 12.5179 5.10118 12.6869C5.12638 12.8558 4.76448 13.2794 4.58038 13.47C4.76246 13.3246 5.18086 13.046 5.39784 13.0955C5.61482 13.145 5.96397 13.5167 6.11142 13.6963C5.99175 13.5242 5.74579 13.1159 5.71927 12.8592C5.69276 12.6024 6.06341 12.2225 6.25205 12.0646C6.07675 12.1897 5.67336 12.4428 5.46216 12.4546Z" fill="white"/>
<path d="M7.8663 4.91886C7.6551 4.93066 7.3168 4.57154 7.17405 4.39051C7.27397 4.57365 7.48013 4.98217 7.50533 5.1511C7.53053 5.32003 7.16863 5.74359 6.98453 5.93426C7.16661 5.7888 7.585 5.51026 7.80198 5.55974C8.01896 5.60923 8.36811 5.98089 8.51557 6.16054C8.3959 5.98846 8.14993 5.58011 8.12342 5.3234C8.0969 5.06668 8.46755 4.68673 8.65619 4.52884C8.4809 4.65393 8.07751 4.90706 7.8663 4.91886Z" fill="white"/>
<path d="M9.73079 9.95288C9.56956 9.81427 9.35209 10.0799 9.40458 10.1993C9.40776 10.2065 8.714 10.3361 8.59094 10.3687C8.32574 10.3687 7.76803 11.0982 7.52232 11.463L7.91672 11.5511C7.8225 11.7196 7.58148 12.0918 7.37113 12.2325C7.16079 12.3732 7.28349 12.425 7.37113 12.4334C7.8076 12.2105 8.08763 12.2066 8.17308 12.2325C8.12575 12.5133 8.6994 12.6691 8.99214 12.7119L9.26007 12.6431C9.09332 12.7929 8.75981 13.1104 8.75981 13.1815C8.75981 13.2526 8.99649 13.2111 9.11483 13.1815C8.78133 13.3693 8.14229 13.7725 8.25418 13.883C8.32284 13.9507 9.35182 13.4992 9.50311 13.4632L9.69329 13.9916H10.1041C10.2486 13.8838 10.1041 13.3648 9.99481 13.2192C9.88556 13.0737 9.90122 12.9294 9.9273 12.8859C9.94817 12.8511 9.981 12.7554 9.99481 12.7119C10.0588 12.6648 10.2027 12.5234 10.283 12.7119C10.3472 12.8627 10.4704 13.0285 10.524 13.0926C10.6463 12.9633 11.0631 12.6602 10.9512 12.4334C10.8996 12.4334 10.6694 12.7612 10.5981 12.8171C10.4538 12.9302 10.4584 12.4623 10.4163 12.411C10.3686 12.353 10.4163 12.2551 10.464 12.3095C10.5021 12.353 10.5693 12.3953 10.5981 12.411C10.6899 12.4255 10.8606 12.3922 10.8089 12.1428C10.7572 11.8933 10.4696 11.9814 10.3323 12.0566C10.2651 11.9688 10.2882 11.7629 10.3082 11.6709L10.5981 11.7659C10.8718 11.9154 10.7342 11.6601 10.6443 11.6709C10.5528 11.6225 10.3525 11.5202 10.283 11.4989C10.2135 11.4775 10.1347 11.6898 10.1041 11.7986L9.99481 12.0566L9.50311 12.4334C9.45658 12.3359 9.82819 11.6222 9.90122 11.5511C10.1527 11.4075 10.531 11.178 10.8089 11.135L11.1475 11.0129C11.2123 11.0215 11.3333 10.9567 11.2988 10.8502C11.2642 10.7437 11.1643 10.8206 11.1187 10.8724C11.0406 10.8983 10.8579 10.9515 10.7512 10.9574C10.6446 10.9634 10.3946 11.1202 10.283 11.1979C10.1043 11.2156 10.1341 11.1633 10.1713 11.135C10.3478 11.1794 10.5856 10.9574 10.4163 10.8132C10.2808 10.6978 10.0789 10.8785 9.99481 10.9833C10.0319 10.755 10.9512 10.2292 10.8089 10.1178C10.5981 9.95288 9.80423 10.9435 9.69329 11.0424C9.82192 10.7256 9.73079 10.6844 9.62205 10.5843C9.51392 10.4847 9.57265 10.4423 9.67287 10.3699L9.67454 10.3687C9.77578 10.2955 9.89201 10.0915 9.73079 9.95288Z" fill="url(#paint1_linear_2357_47777)"/>
<path d="M6.46221 6.32159C5.61306 6.44469 5.60058 7.68931 5.70048 8.29623L5.98769 8.84759L7.11155 8.50139L7.98567 9.29637C8.04811 8.88178 8.13552 8.06543 7.98567 8.11672C7.83582 8.16801 7.53196 7.80471 7.39876 7.61665C7.63602 7.4927 8.08557 7.14478 7.98567 6.74473C7.8608 6.24466 7.52364 6.16772 6.46221 6.32159Z" fill="white" fill-opacity="0.7"/>
<path d="M6.74434 5.9091C6.70713 5.994 6.70127 6.14257 6.70299 6.20625C6.60546 6.62471 6.44461 7.00714 6.44461 7.4373C6.44461 7.99231 6.16656 7.90226 6.22502 8.50336C6.16203 8.20149 5.98881 8.19405 5.91007 8.22807C5.75409 8.37591 5.89507 8.58483 5.98506 8.67081C5.90619 8.62804 5.45521 8.48789 5.44888 8.47405C5.50137 8.27728 5.34014 8.07021 5.17517 8.13567C5.01019 8.20112 5.04019 8.34742 5.07768 8.47405C5.10768 8.57535 5.21462 8.68241 5.26434 8.72329C5.19214 8.799 5.14898 9.15037 4.81401 9.36606L4.69584 9.00204C4.24927 9.00204 4.88707 8.6795 4.59045 8.51996C4.30171 8.36466 4.34671 8.82448 4.26787 8.90038C4.22699 8.93973 4.05282 8.84025 3.97085 8.7856C4.07198 8.7047 4.26437 8.52914 4.22482 8.47405C4.18528 8.41895 4.10929 8.4817 4.07624 8.51996L3.80477 8.7856C3.84561 9.03125 4.19711 9.05417 4.22482 9.33274C3.92386 9.57623 3.71329 9.64652 3.38515 9.82301V9.93571C3.76712 9.84104 4.06384 9.89626 4.16446 9.93571C3.61907 10.0549 4.4898 11.1652 4.76089 11.4431C4.76089 11.6143 5.71517 11.8121 6.19231 11.8896L8.236 9.50892L8.24936 9.17998L8.45057 9.1919C8.61928 9.14104 8.73656 8.9432 8.77412 8.85064C8.71189 8.73819 8.75258 8.77719 8.77412 8.66691C8.79986 8.53511 8.6159 8.42722 8.6159 8.70162C8.6159 8.77862 8.57526 8.83637 8.5197 8.94803C8.50297 8.98166 8.09255 8.32598 8.04699 8.30023L8.05119 8.29456C8.13341 8.18344 8.84134 7.22672 8.80624 7.2101C8.75674 7.18666 8.69123 7.03377 8.57526 7.02124C8.14263 6.97447 8.45747 7.37463 8.35711 7.53951C8.3179 7.59222 8.20098 7.72926 8.04699 7.85575C7.893 7.98225 7.76896 7.89821 7.72618 7.84038C7.66442 7.74251 7.3453 7.56625 7.37431 7.46366C7.47295 7.39449 7.53971 7.21456 7.56077 7.13324C7.59926 7.09376 7.57681 7.02209 7.56077 6.99119C7.56979 6.86973 7.52829 6.62495 7.2901 6.61754C7.05192 6.61013 6.99583 6.84259 6.99755 6.95974C6.91268 7.02351 6.98975 7.13489 7.03889 7.1826C7.07197 7.41183 6.92865 7.44792 6.85286 7.4373C6.93281 7.27311 6.95265 7.12153 6.85286 6.95974C6.84252 6.72803 6.85699 6.25294 6.99755 6.20625C7.17325 6.14788 7.29728 5.95155 7.26627 5.9091C7.24146 5.87514 7.13191 5.97631 7.08023 6.03114C7.09746 5.87372 7.12158 5.55995 7.08023 5.56419C7.03889 5.56844 7.00789 5.7393 6.99755 5.8242H6.82185C6.79601 5.74991 6.73607 5.60876 6.70299 5.63848C6.66992 5.66819 6.71677 5.83127 6.74434 5.9091Z" fill="url(#paint2_linear_2357_47777)"/>
<path fill-rule="evenodd" clip-rule="evenodd" d="M6.85643 11.1118C6.82061 10.7849 6.55047 10.5308 6.22254 10.5308C5.87023 10.5308 5.58462 10.8241 5.58462 11.1859C5.58462 11.5476 5.87023 11.8409 6.22254 11.8409C6.22387 11.8409 6.2252 11.8409 6.22652 11.8409L6.85643 11.1118Z" fill="#BAE7F8"/>
<path d="M6.93498 9.07141C6.79872 9.03943 6.6511 8.74827 6.59433 8.60669C6.62353 8.74161 6.67803 9.03943 6.66246 9.15136C6.64689 9.26329 6.33803 9.4645 6.18555 9.55111C6.3283 9.49282 6.64591 9.39421 6.77439 9.46617C6.90286 9.53812 7.05502 9.83927 7.11504 9.98085C7.07124 9.84927 6.99143 9.54412 7.02257 9.37622C7.05372 9.20832 7.35998 9.03643 7.50922 8.97147C7.37458 9.01811 7.07124 9.10339 6.93498 9.07141Z" fill="white"/>
<defs>
<linearGradient id="paint0_linear_2357_47777" x1="14.7824" y1="7.04823" x2="4.79497" y2="14.4679" gradientUnits="userSpaceOnUse">
<stop offset="0.140263" stop-color="#EBE013"/>
<stop offset="0.278106" stop-color="#F58B38"/>
<stop offset="0.474933" stop-color="#CB3294"/>
<stop offset="0.587098" stop-color="#6956A5"/>
<stop offset="0.735356" stop-color="#137DC1"/>
<stop offset="0.842403" stop-color="#4B9BD5"/>
<stop offset="0.931237" stop-color="#9A3191"/>
</linearGradient>
<linearGradient id="paint1_linear_2357_47777" x1="10.5772" y1="10.7303" x2="8.53063" y2="12.2982" gradientUnits="userSpaceOnUse">
<stop/>
<stop offset="1" stop-color="#2353A5"/>
</linearGradient>
<linearGradient id="paint2_linear_2357_47777" x1="7.47244" y1="6.68249" x2="5.78839" y2="10.2958" gradientUnits="userSpaceOnUse">
<stop/>
<stop offset="1" stop-color="#2163AE"/>
</linearGradient>
</defs>
</svg>
