<!-- by TradingView --><svg width="18" height="18" viewBox="0 0 18 18" xmlns="http://www.w3.org/2000/svg"><path fill="url(#a23hw4x3b)" d="M0 0h18v18H0z"/><path fill-rule="evenodd" d="M13.51 9.05a1.49 1.49 0 1 0 0-2.97 1.49 1.49 0 0 0 0 2.97Zm0-.89a.6.6 0 1 0 0-1.19.6.6 0 0 0 0 1.2Z" fill="#fff"/><path d="M9.05 5.19a3.86 3.86 0 1 0 2.9 6.41c.12-.12.3-.15.43-.05l.48.36c.13.1.16.28.05.4a5.04 5.04 0 1 1-.64-7.16c.12.1.13.3.02.42l-.4.43a.32.32 0 0 1-.43.03 3.85 3.85 0 0 0-2.4-.84Z" fill="#fff"/><defs><linearGradient id="a23hw4x3b" x1="0" y1="16.71" x2="16.88" y2="0" gradientUnits="userSpaceOnUse"><stop stop-color="#382AB5"/><stop offset="1" stop-color="#F13AAC"/></linearGradient></defs></svg>