<!-- by TradingView --><svg width="18" height="18" xmlns="http://www.w3.org/2000/svg"><path fill="#0886FB" d="M0 0h18v18H0z"/><path fill-rule="evenodd" d="M7.678 5.343A3.395 3.395 0 005 8.66v1.594a3.92 3.92 0 003.004 3.811 3.064 3.064 0 003.244-1.244 3.067 3.067 0 002.54-3.022v-.365a.5.5 0 00-.796-.404l-1.908 1.232a.5.5 0 00-.298.457v.366c0 .277-.054.54-.151.778a2.094 2.094 0 01-.395-.056 2.92 2.92 0 01-2.238-2.84V7.377c0-.402.098-.777.27-1.105a2.393 2.393 0 012.514 2.39v.115a.5.5 0 00.77.42v.002l2.002-1.285-.001-.001a.5.5 0 00.23-.422v-.114a3.393 3.393 0 00-6.11-2.033zm-.601 1.32c-.05.229-.075.467-.075.713v1.593a3.92 3.92 0 002.926 3.792 2.053 2.053 0 01-1.69.333A2.92 2.92 0 016 10.254V8.662c0-.846.434-1.574 1.077-1.998zM11.786 11v.086c0 .174-.015.344-.042.51.447-.255.795-.674.952-1.182l-.91.586zm.997-3.778l-1.08.693a3.394 3.394 0 00-2.58-2.567 2.393 2.393 0 013.66 1.874z" fill="#fff"/></svg>