<!-- by TradingView --><svg width="18" height="18" viewBox="0 0 18 18" xmlns="http://www.w3.org/2000/svg"><path fill="#3BC77B" d="M0 0h18v18H0z"/><path d="M13.65 8.2a2.03 2.03 0 0 1-3.37-.2h2.52l.26-.5h-2.98a1.98 1.98 0 0 1 0-1h3.1l.25-.5H10.3a2.03 2.03 0 0 1 3.33-.24L14 4.7A3.04 3.04 0 0 0 9.17 6h-.9l-.32.5h1.1a2.99 2.99 0 0 0 0 1H7.9l-.33.5h1.6A3.03 3.03 0 0 0 14 9.28l-.35-1.08ZM7.1 5.22a4.5 4.5 0 1 0 5.65 5.76 6.02 6.02 0 0 1-1.02-.13 3.5 3.5 0 1 1-4.52-4.6c-.07-.34-.1-.68-.1-1.03Z" fill="#fff"/></svg>