<!-- by TradingView --><svg width="18" height="18" viewBox="0 0 18 18" xmlns="http://www.w3.org/2000/svg"><path fill="#F0F3FA" d="M0 0h18v18H0z"/><path fill-rule="evenodd" d="m10.64 7.65-.5.48-.27-.27.48-.5C10.7 7 10.99 6.5 11 6a2.1 2.1 0 0 0-.65-1.42 1.86 1.86 0 0 0-2.7 0C7.27 4.97 7 5.48 7 6c0 .5.29.99.65 1.36l.48.5-.27.27-.5-.48A2.11 2.11 0 0 0 6 7a2.1 2.1 0 0 0-1.42.65 1.86 1.86 0 0 0 0 2.7c.39.38.9.66 1.42.65.5 0 .99-.29 1.36-.65l.5-.49.28.28-.49.5C7.3 11 7.01 11.5 7 12c0 .51.27 1.03.65 1.42.75.77 1.95.77 2.7 0 .38-.39.66-.9.65-1.42 0-.5-.29-.99-.65-1.36l-.48-.5.27-.27.5.48c.37.36.87.64 1.36.65a2.1 2.1 0 0 0 1.42-.65c.77-.75.77-1.95 0-2.7A2.1 2.1 0 0 0 12 7c-.5 0-.99.29-1.36.65ZM9.7 5.24a1.15 1.15 0 0 0-1.4 0c-.4.33-.4.86 0 1.18L9 7l.7-.58c.4-.32.4-.85 0-1.18Zm-1.4 6.34c-.4.32-.4.85 0 1.18.39.32 1.01.32 1.4 0 .4-.33.4-.86 0-1.18L9 11l-.7.58ZM5.24 9.7a1.15 1.15 0 0 1 0-1.4c.33-.4.86-.4 1.18 0L7 9l-.58.7c-.32.4-.85.4-1.18 0Zm6.34-1.4c.32-.4.85-.4 1.18 0 .32.39.32 1.01 0 1.4-.33.4-.86.4-1.18 0L11 9l.58-.7Z" fill="url(#av5r5cmwz)" fill-opacity=".8"/><defs><linearGradient id="av5r5cmwz" x1="5.76" y1="5.86" x2="12.01" y2="11.97" gradientUnits="userSpaceOnUse"><stop offset=".08" stop-color="#BA9251"/><stop offset=".5" stop-color="#E6B66E"/><stop offset="1" stop-color="#BB9352"/></linearGradient></defs></svg>