<!-- by TradingView --><svg width="18" height="18" viewBox="0 0 18 18" xmlns="http://www.w3.org/2000/svg"><path fill="url(#a4h2ctvzh)" d="M0 0h18v18H0z"/><path d="M4.08 11.93a3.72 3.72 0 0 1 0-5.24L5.78 5H8.1L5.25 7.85c-.8.8-.8 2.12 0 2.91.79.8 2.07.8 2.87 0l.97-.97 1.16 1.17-.97.97a3.68 3.68 0 0 1-5.2 0ZM10.89 10.4l.67-.66a.82.82 0 0 0-.56-1.4.83.83 0 0 0-.6.23l-.68.67 1.17 1.17Z" fill="#fff"/><path d="m7.06 7.65-.62.61A.82.82 0 0 0 7 9.66c.22.01.44-.07.6-.23l.63-.62-1.17-1.16ZM8.86 8.26l1.02-1.02c.8-.8 2.08-.8 2.87 0 .8.79.8 2.07 0 2.86L9.85 13h2.33l1.74-1.74a3.66 3.66 0 0 0 0-5.19 3.69 3.69 0 0 0-5.2 0L7.69 7.1l1.17 1.17Z" fill="#fff"/><defs><linearGradient id="a4h2ctvzh" x1="3.35" y1="3.12" x2="21.9" y2="24.43" gradientUnits="userSpaceOnUse"><stop stop-color="#1A1E21"/><stop offset="1" stop-color="#06060A"/></linearGradient></defs></svg>