<!-- by TradingView --><svg width="18" height="18" viewBox="0 0 18 18" xmlns="http://www.w3.org/2000/svg"><path fill="#F0F3FA" d="M0 0h18v18H0z"/><path d="M6.24 7.77a.34.34 0 0 0-.18.05.31.31 0 0 0-.12.14.3.3 0 0 0 .07.33c.05.05.1.08.17.09.06.01.13 0 .19-.02a.32.32 0 0 0 .14-.11.3.3 0 0 0-.04-.4.33.33 0 0 0-.23-.08ZM8.51 7.77a.34.34 0 0 0-.18.05.31.31 0 0 0-.12.14.3.3 0 0 0 .07.33c.05.05.1.08.17.09.06.01.13 0 .19-.02a.32.32 0 0 0 .14-.11.3.3 0 0 0-.04-.4.33.33 0 0 0-.23-.08ZM8.12 8.72c-.14-.1-.51.14-.74.14-.23 0-.6-.25-.74-.14a.22.22 0 0 0-.07.16.23.23 0 0 0 .06.16c.2.24.58.27.75.27.17 0 .53-.03.75-.27a.22.22 0 0 0 .06-.16.22.22 0 0 0-.07-.16ZM11.43 7.77a.34.34 0 0 0-.18.05.31.31 0 0 0-.12.14.3.3 0 0 0 .07.33c.05.05.1.08.17.09.06.01.13 0 .19-.02a.32.32 0 0 0 .14-.11.3.3 0 0 0-.04-.4.33.33 0 0 0-.23-.08ZM13.38 7.77a.34.34 0 0 0-.18.05.31.31 0 0 0-.12.14.3.3 0 0 0 .07.33c.04.05.1.08.17.09.06.01.12 0 .18-.02a.32.32 0 0 0 .15-.11.3.3 0 0 0-.04-.4.33.33 0 0 0-.23-.08ZM12.98 8.72c-.13-.1-.5.14-.74.14-.22 0-.6-.25-.74-.14a.22.22 0 0 0-.07.16.23.23 0 0 0 .06.16c.21.24.58.27.75.27.17 0 .54-.03.75-.27a.22.22 0 0 0 .06-.16.22.22 0 0 0-.07-.16Z" fill="#C92B5B"/><path d="M13.12 5h-2.89c-.43 0-.85.14-1.2.4a4.4 4.4 0 0 0-5.4 1.47A4.18 4.18 0 0 0 3 8.8a3.7 3.7 0 0 0 1.13 2.95A4.22 4.22 0 0 0 7.19 13a4.3 4.3 0 0 0 2.83-1.05c.05.28.21.57.45.76.24.19.54.29.85.3h.71c.36-.01.7-.14.94-.38.25-.23.39-.58.39-.9v-.5a.7.7 0 0 1 .19-.47l.62-.68c.54-.59.83-1.33.83-2.1V6.76c0-.47-.2-.92-.55-1.25A1.94 1.94 0 0 0 13.12 5Zm-3.18 6.1a1 1 0 0 1-.42.73 3.89 3.89 0 0 1-4.07.36 3.66 3.66 0 0 1-1.53-1.4 3.37 3.37 0 0 1-.47-1.96c.06-.88.47-1.81 1.14-2.42a3.9 3.9 0 0 1 2.5-1h.1c.85 0 1.68.27 2.35.77.11.1.21.2.28.32a.98.98 0 0 1 .07.8c-.05.12-.12.35-.21.45-.35.35-.54.82-.54 1.3 0 .48.2.95.54 1.3a.95.95 0 0 1 .26.74Zm4.62-3.12c0 .67-.25 1.32-.72 1.83l-.62.68c-.2.2-.3.47-.3.74v.5c0 .21-.09.46-.26.61a.92.92 0 0 1-.63.25h-.71a.92.92 0 0 1-.63-.25.88.88 0 0 1-.26-.62v-.49c0-.11-.02-.23-.06-.34-.02-.3-.15-.59-.37-.81a1.48 1.48 0 0 1-.42-1.03c0-.38.15-.75.42-1.03a1.82 1.82 0 0 0 .38-1.15 1.46 1.46 0 0 0-.56-1 3.92 3.92 0 0 0-.36-.25c.23-.14.5-.21.77-.21h2.89c.38 0 .75.14 1.02.4.27.25.43.6.43.96v1.2Z" fill="#C92B5B"/></svg>