<!-- by TradingView --><svg width="18" height="18" xmlns="http://www.w3.org/2000/svg"><path fill="#F0F3FA" d="M0 0h18v18H0z"/><path fill-rule="evenodd" d="M8.172 4L4.565 5.73h-.002l.001.001v.51l2.99 1.636v.636L4.466 6.778 4 7.046v.195l.001.001.226 3.662.43.255.144-.104L7.238 9.62l.241.138v.314l-2.434 1.42h-.001l-.001.001v.451l3.024 1.955.588-.41v-2.95l.257-.098.511.279V9.616l-.511-.347-.257.154V9.13h-.001l-.239-.133v-.648l.717.392.21-.12v.358l.246.13-.165.099V13.5l.428.494v.004l.002-.002.003.003v-.005l3.032-2.091.02-.463-.189-.12-.003.003-2.045-1.164.01-.428.058-.034c.04.02.316.184.68.399.527.312 1.24.734 1.69.99v.01l.556-.252.329-3.806-.006.004.012-.008-.385-.315L10.26 8.71V8.09l3.238-1.871v-.551h-.003l.008-.005-3.708-1.657-.481.154.688.315-.691-.315V7.4l.507-.281-.685.381-.617-.321V4.442l-.001.001v-.256l-.004.002L8.171 4zm4.693 4.43c-.02.176-.085.938-.13 1.457l.01-.123-1.063-.629 1.183-.706zM11.7 11.404l-1.076.685.03-1.261 1.046.576zm-1.39-6.04l1.417.691-1.417.789v-1.48zm-2.752.029l-1.24.639 1.24.646V5.394zm-1.21 3.713l-1.16.672-.066-1.377 1.226.705zm.23 2.685l.901.564v-1.152l-.9.588z" fill="#827D70"/></svg>