<!-- by TradingView --><svg xmlns="http://www.w3.org/2000/svg" width="18" height="18"><path fill="#3699CB" d="M0 0h18v18H0z"/><path d="M5.51 5.44l-.1-.1a5.5 5.5 0 013.92-1.6A5.26 5.26 0 0114.55 8h-.58a4.75 4.75 0 00-4.7-3.8c-1.33 0-2.63.5-3.55 1.44l-.2-.2zM11.68 10a2.65 2.65 0 01-2.44 1.55A2.6 2.6 0 016.7 9a2.59 2.59 0 012.55-2.55c1.06 0 2.05.62 2.44 1.55h1.4a3.92 3.92 0 00-7.67 1 3.91 3.91 0 007.67 1h-1.4zM15 9a.48.48 0 01-.48.48.4.4 0 01-.19-.04.47.47 0 01-.29-.44c0-.19.12-.36.3-.44a.45.45 0 01.34-.01c.17.06.32.23.32.45zm-.9 1h.51a5.17 5.17 0 01-8.5 3l.08-.1.18-.2a4.68 4.68 0 003.1 1.13A4.7 4.7 0 0014.1 10zM4 5.4l-.26.7.67.75.97.08.4-.56-1.03-.13L4 5.41zm-.58 1.38l-.16.73.78.64.97-.06.32-.62-1.05.03-.86-.72zM3.05 9.2L3 8.46l1.03.44.99-.33-.12.68-.92.34-.93-.4zm.04.83l.23.7 1 .17.8-.55-.04-.7-.89.56-1.1-.18zm1.05 2.1l-.4-.62 1.11-.1.72-.76.21.66-.64.73-1 .1z" fill="#fff"/></svg>