<!-- by TradingView --><svg xmlns="http://www.w3.org/2000/svg" width="18" height="18"><path fill="url(#azqixp13k)" d="M0 0h18v18H0z"/><path d="M12.23 12.44l-2.6 1.5a.47.47 0 01-.47 0l-3.92-2.27a.47.47 0 01-.24-.4V9.38l2.08-1.22v1.9c0 .16.1.32.24.4l1.84 1.07c.15.08.33.08.47 0l1.11-.64c.28-.13.52-.1.67 0l.4.41.47.47c.24.24.14.51-.05.66z" fill="#fff"/><path d="M9.16 4.06a.47.47 0 01.47 0L12.1 5.5l.05.03c.47.27.38.47.24.61a20.65 20.65 0 00-1 1.08c-.11.13-.29.1-.44.01l-.16-.09-.03-.02-.1-.06-1.03-.59a.47.47 0 00-.47 0l-1.98 1.2L5 8.91V6.74c0-.17.09-.33.24-.41l3.92-2.27z" fill="#F98A16"/><defs><linearGradient id="azqixp13k" x1="3.35" y1="3.12" x2="21.9" y2="24.43" gradientUnits="userSpaceOnUse"><stop stop-color="#1A1E21"/><stop offset="1" stop-color="#06060A"/></linearGradient></defs></svg>