<!-- by TradingView --><svg xmlns="http://www.w3.org/2000/svg" width="18" height="18"><path fill="url(#ai5hnd0qb)" d="M0 0h18v18H0z"/><path d="M13.24 4.75a6 6 0 10-8.48 8.5 6 6 0 008.48-8.5zm-4.56 9.62a5.38 5.38 0 010-10.74v2.03a3.35 3.35 0 000 6.68v2.03zM9 11.73a2.73 2.73 0 110-5.47 2.73 2.73 0 010 5.47zm3.92.96c-.95 1-2.23 1.6-3.6 1.68v-2.04a3.35 3.35 0 000-6.67V3.63a5.38 5.38 0 013.6 9.06z" fill="url(#bi5hnd0qb)"/><defs><linearGradient id="ai5hnd0qb" x1="3.35" y1="3.12" x2="21.9" y2="24.43" gradientUnits="userSpaceOnUse"><stop stop-color="#1A1E21"/><stop offset="1" stop-color="#06060A"/></linearGradient><linearGradient id="bi5hnd0qb" x1="4.75" y1="13.25" x2="13.24" y2="4.76" gradientUnits="userSpaceOnUse"><stop offset=".01" stop-color="#2D9CFD"/><stop offset="1" stop-color="#37DAFD"/></linearGradient></defs></svg>