<!-- by TradingView --><svg width="18" height="18" viewBox="0 0 18 18" xmlns="http://www.w3.org/2000/svg"><path fill="url(#au3k4l4ez)" d="M0 0h18v18H0z"/><path d="m5.72 5-.19 1.55-.16 1.41-.1.46.01.04v-.1l.02-.07.33.16a10.8 10.8 0 0 0 .07.92c0 .2.02.48.13.79.08.25.15.66.21 1l.1.52.02.03c.08.3.3 1.04.44 1.19.02.1.1.32.34.42l.31.58c.12.2.4.3.52.34.12.15.38.45.54.5a2 2 0 0 1 .72-.84c.05.16.19.5.4.53.22.03.35-.13.4-.21.06.02.23 0 .36-.22a.3.3 0 0 1 .15-.14l.06-.03c.08-.03.18-.08.3-.18.19-.15.23-.34.27-.58v-.05c.04-.18.16-.6.32-.85.11-.16.17-.27.2-.35.03-.06.05-.1.08-.11.06-.05.2-.3.28-.74 0-.07.02-.13.03-.2.1-.64.2-1.25.24-1.98 0-.4 0-1.26-.02-1.58l-.13-1.1c-.06-.38-.2-1.2-.28-1.4-.04-.12-.17-.4-.28-.64l-.08-.02-.76-.6-.76-.33L9.47 3h-.33l-.32.1-.25.19-.22.03-.23.03-.35.2-.18.22-.23.31-.13.2-.09.18-.29.14-.21.09-.15.08-.2.17-.2.07-.17.02-.14.03-.06-.05Z" fill="#fff"/><path d="M12.5 9.23c.1-.12.22-.42-.06-.66.07.1.19.38.06.66Z" fill="#1E1E1E"/><path d="M8.67 9.53c.11.17.34.17.44.15.48-.07.57-.32.65-.6.09-.28-.16-.24-.23-.24-.11.01-.36.16-.48.16-.21.02-.42-.22-.63-.04-.11.1-.05.3 0 .38.02.1.2.12.25.2Z" fill="#A0A0A0"/><path d="M5.27 7.67c.02-.33.17-1.3.17-1.3 0-.16.02-.58.14-.88l.13-.47h.18c-.03.08-.1.27-.07.38l.03.08c.08.2.28.71-.18 1.13-.02.04-.06.23-.07.68v.53a.2.2 0 0 0-.09-.02.42.42 0 0 1-.24-.13Z" fill="#979797"/><path d="M5.04 7.31c0-.22.07-.72.4-.93 0 0-.15.96-.17 1.29.08.08.17.12.24.13a.2.2 0 0 1 .09.02v-.53.54c-.14 0-.44-.1-.56-.52Z" fill="#6B6B6B"/><path d="M5.29 8.4c-.02.07-.02.24.1.33-.14.26-.3.87.1 1.18-.13.26-.25.83.21 1.01.06 0 .2.15.3.75 0 .18.03.58.26.76 0 .12.06.46.3.87.04.06.14.18.24.18.02.1.1.35.27.5.08.23.15.47.53.43l.15.19c.15.2.32.42.57.39.06-.14.21-.44.38-.58.17-.13.27-.3.3-.38.02.14.09.45.3.51.2.07.4-.06.46-.13.12.02.38-.04.5-.38.1-.02.3-.08.47-.2.21-.18.26-.35.32-.62l.06-.25c.05-.24.22-.8.53-1.11.13-.03.43-.24.53-.84.16-.05.43-.27.15-.75.07-.08.18-.3.1-.56.1-.04.25-.18.1-.47v-.02c.04-.09.17-.34-.08-.65l.01-.33a2.1 2.1 0 0 0-.03-.9v-.12a2.85 2.85 0 0 0-.12-.82c-.07-.2-.14-.43-.17-.76a2.52 2.52 0 0 0-.36-1.2c-.06-.08-.2-.21-.37-.36.1.24.25.54.3.68a15.93 15.93 0 0 1 .4 2.49c.03.32.03 1.19.02 1.58-.05.72-.14 1.33-.24 1.98l-.03.2c-.07.44-.22.69-.28.73-.03.02-.05.06-.08.12-.03.08-.09.19-.2.35-.16.24-.28.67-.31.85l-.01.05c-.04.23-.08.43-.26.58-.13.1-.23.15-.31.18l-.06.03a.3.3 0 0 0-.15.14c-.13.22-.3.24-.37.21-.04.09-.17.25-.39.22-.21-.03-.35-.37-.4-.53a2 2 0 0 0-.72.84c-.16-.05-.42-.35-.54-.5-.12-.03-.4-.15-.52-.34l-.31-.58a.57.57 0 0 1-.34-.42c-.14-.15-.36-.9-.44-1.19l-.01-.03c-.03-.1-.07-.3-.1-.53-.07-.34-.14-.74-.22-1-.1-.3-.12-.59-.13-.78l-.02-.18a10.8 10.8 0 0 1-.05-.74l-.33-.16-.01.07Z" fill="#5E5E5E"/><path d="M5.82 5.4c-.14.4-.16.91-.14 1.2.45-.42.25-.91.17-1.12l-.03-.08Z" fill="#C7C7C7"/><path d="M5.39 8.36c-.03.1-.04.27.12.4-.13.15-.31.55 0 1.02.02.03.06.14.05.37-.02.28.01.53.3.72l.25.67-.07-.36c-.06-.34-.13-.74-.21-1-.1-.3-.12-.59-.13-.78l-.02-.18a10.8 10.8 0 0 1-.05-.74l-.24-.12Z" fill="#949494"/><path d="M11.55 11.75c.34-.15.41-.44.47-.69.03-.12.06-.23.11-.3.14-.19.1-.44.07-.54.1-.16.13-.44.13-.56.12-.15.1-.36.07-.45.06-.2-.02-.55-.07-.7l-.05-1.44a3.92 3.92 0 0 0-.17-1.03c-.05-.11-.06-.14-.14-.8a1.3 1.3 0 0 0-.45-.91l.17.41a15.93 15.93 0 0 1 .4 2.5c.04.32.04 1.19.03 1.58-.05.72-.14 1.33-.24 1.98l-.03.2c-.07.43-.22.69-.28.73l-.02.02Z" fill="#8E8E8E"/><path d="m12.2 6.06.17.63c.05-.02.17-.03.24.04l.01.03s.07-.3-.04-.59c-.02-.05-.21-.15-.38-.11Z" fill="#6C6C6C"/><path d="M12.62 6.76c.04.1 0 .29-.04.38a.78.78 0 0 1-.4.43c-.3.15-.1.8-.04.8.12-.02.7-.24.83-.8a1.3 1.3 0 0 0-.2-1 1.03 1.03 0 0 1-.06-.09l-.02-.05-.11-.26c.1.3.04.59.04.59ZM5 8.11l.04-.8c.1.27.31.48.47.49.13 0 .16.1.16.14v.5c0 .1-.05.12-.08.12-.46-.14-.58-.36-.59-.45Z" fill="#8E8E8E"/><path d="M6.62 6.92c-.3-.1-.32-.3-.25-.38.22-.26.63-.4.86-.43.18-.03.2-.1.18-.13-.08-.13-.02-.22.02-.26l.5.1.48.2c.15.16.26.88.17.88-.15 0-.32-.17-.4-.26-.18-.22-.43-.38-.77-.34-.54.08-.69.62-.8.62ZM9.33 6.73c.16.26.33.1.4 0a.81.81 0 0 1 .64-.51c.4-.05.64.15.7.26.2.3.44.36.57.34.1-.02.08-.05.06-.14-.08-.44-.24-.53-.35-.63-.12-.1-.39-.22-.54-.3-.15-.07-.76.04-.93.12-.17.09-.35.3-.42.37s-.1.3-.13.37c-.02.06-.01.1 0 .12ZM8.24 8.4c.46-.13.42-.96.35-1.35-.1.1-.33.33-.45.51-.13.18.01.63.1.83Z" fill="#A0A0A0"/><path d="M8.2 8.96c-.06-.2.01-.34.05-.39a.45.45 0 0 0-.1.12c-.07.11-.07.33 0 .45.08.16.22.12.28.07-.07.02-.14 0-.23-.25ZM9.87 8.53l-.07-.08c.03.07.1.24.12.35 0 .14-.12.33-.16.39-.03.05-.11.02-.1.04 0 .02.03.03.04.03.15.1.27-.14.32-.4.04-.21-.09-.3-.15-.33Z" fill="#121212"/><path d="M11 8.88c-.27 0-.35-.25-.33-.42.02-.16.25-.41.33-.67.08.26.31.5.33.67.02.17-.03.42-.33.42Z" fill="#A40A14"/><path d="M9.35 8.06c.04-.01.06-.05.06-.07v-.6c-.02-.12-.03-.35-.03-.53 0-.17 0-.38.09-.56.08-.17.2-.23.28-.3.06-.05.02-.08 0-.09a.83.83 0 0 0-.37.37c-.08.2-.1.36-.09.42l.02 1c0 .09-.01.37.04.36Z" fill="#353535"/><path d="M6.88 7.02c-.03-.05 0-.21.51-.33.37-.1.68.12.83.27.11.12-.09.1-.17.1-.1 0-.23.12-.61.19-.4.06-.53-.18-.56-.23ZM10.18 6.62a.97.97 0 0 0-.52.43c.06.06.15 0 .28 0 .13 0 .29.2.6.17.3-.03.5-.22.56-.31-.12-.29-.58-.4-.92-.29Z" fill="#262626"/><path d="M6.55 6.01c-.05.09-.11.11-.14.12-.03.03-.01.05.02.04.04 0 .34-.26.42-.3a.66.66 0 0 1 .36-.07c.14 0 .15-.02.25-.03.1 0 .11.1.2.1.08 0 .11-.05.22-.02.11.02.08.08.16.08.07 0 .16.02.26.05.09.02.2.09.23.03.04-.05-.04-.18-.17-.24-.14-.06-.18.04-.37-.03-.18-.06-.2 0-.28 0-.08 0-.24-.09-.3-.07-.07.02-.1 0-.24.02-.14 0-.25.07-.33.08-.09.01-.23.14-.29.24Z" fill="#030303"/><path d="M9.69 6.01c.13-.1.27-.15.33-.15.07-.03.2-.04.3-.05.2-.02.39-.1.57.03.11.07.15.03.2.07.09.07.1.1.1.1 0-.1-.1-.21-.19-.23-.12-.02-.21-.1-.34-.12l-.19-.02c-.18 0-.48.05-.61.08a.5.5 0 0 0-.22.14c-.1.14.01.18.05.15Z" fill="#353535"/><path d="M7.97 10.68a3.52 3.52 0 0 0 .75-.03 1.1 1.1 0 0 1 .68-.03c.24.06.35.1.5.06a.66.66 0 0 0 .28-.17l-.08-.14h-.03l-.13.03a.67.67 0 0 1-.41-.01.6.6 0 0 1-.34-.32h-.23a.97.97 0 0 1-.1.18.41.41 0 0 1-.22.16c-.07.02-.16 0-.25-.05-.08.11-.16.17-.22.18-.05.01-.12-.01-.15-.03v.04a.96.96 0 0 1-.05.13Z" fill="#1E1E1E"/><path d="M8.63 10.68c-.12.03-.48.01-.66 0a.97.97 0 0 0-.08.15c.25.04.83.1 1.2.03.15-.03.37-.02.53-.01h.16c.13 0 .42-.02.57-.2a.28.28 0 0 1-.13-.09.4.4 0 0 1-.04-.05.66.66 0 0 1-.28.17c-.15.03-.26 0-.5-.06l-.07-.02a1.1 1.1 0 0 0-.61.05l-.1.03Z" fill="#A2A2A2"/><path d="M5.74 10.95c-.48 0-.4-.74-.28-1.07-.15.5.04 1.01.26.98.17-.03.3-.18.32-.27.05.24-.19.36-.3.36ZM7.77 13.14c-.14-.34-.07-.6 0-.7-.18.22-.27.45-.21.62.07.2.17.4.03.57-.09.1-.16.17-.18.33v.26c.04.25.64.9.9.76-.29 0-.73-.64-.72-.93 0-.13.05-.2.12-.28.08-.1.12-.19.14-.26.05-.15-.02-.23-.08-.37Z" fill="#1E1E1E"/><path d="M5.41 8.72c-.17.23-.41.78.05 1.2-.15-.17-.36-.64-.05-1.2ZM5.93 11.58a1.62 1.62 0 0 0-.23-.66l.04-.02c.13.15.19.5.22.68l.1.43v.11c-.02-.03-.07-.1-.13-.54ZM7.62 14.42c-.36.11-.52-.25-.56-.45h.03c.15.4.4.42.5.38l.03.07ZM8.34 13.04c-.15-.15-.2-.45-.15-.59-.07.05-.2.22-.12.47.1.3.26.26.36.43.1.17.01.33-.16.38a.52.52 0 0 0-.25.16c-.16.24-.02.45.07.53-.14-.23.01-.5.25-.6.11-.05.23-.1.3-.26.1-.24-.1-.33-.3-.52ZM8.3 15c.3-.52.57-.59.7-.97-.26.27-.55.48-.7.97Z" fill="#1E1E1E"/><path d="M9.45 14.6c-.4.02-.48-.36-.47-.55l.05-.12c.07.4.22.53.35.54.32.03.41-.38.4-.69a.68.68 0 0 0-.1-.38c-.1-.13-.24-.24-.3-.32-.4-.52-.04-.98.11-1.13a.92.92 0 0 0 .04.99c.14.2.32.3.43.54.14.31 0 .67-.17.94a.5.5 0 0 1-.34.18Z" fill="#1E1E1E"/><path d="M10.13 11.85c.2.2.34.4.2.78-.15.38.12.63.14.99.01.25-.2.58-.39.72-.13.1-.28.1-.36.06.78-.25.57-.98.52-1.08-.1-.22-.14-.36-.12-.52.04-.36.22-.61.01-.95Z" fill="#1E1E1E"/><path d="M11.05 12.93c.22-.78.48-1.03.6-1.06-.4.39-.42.91-.58 1.43-.17.54-.37.6-.78.76.53-.26.61-.6.76-1.13ZM11.6 11.88a.83.83 0 0 0 .56-.9c0 .2-.11.66-.56.9ZM5.82 8.96c-.06-.15-.11-.3-.18-.42l.07-.05c.07.13.13.29.19.44l.05.13.12.26c.04.07.08.12.12.15.12.1.32.26.53.38.21.11.42.2.6.19l.06-.14c.03-.08.1-.13.18-.17l.27-.1h.02c.22-.06.45-.13.6-.3l.06.07a1.34 1.34 0 0 1-.65.33c-.1.03-.2.05-.27.09-.08.03-.12.07-.13.12a2.98 2.98 0 0 0-.15.34l-.02.06a2.53 2.53 0 0 1-.14.37.23.23 0 0 1-.1.09.16.16 0 0 0-.07.05.23.23 0 0 0-.04.1l.01.08c.01.03.04.05.1.07.1.04.26.03.41-.02a.66.66 0 0 0 .35-.22c.08-.13.14-.25.17-.37.01-.07.08-.18.06-.25.02.07.04.17.03.24.02.01.05.02.09 0 .05 0 .12-.05.2-.16l.18-.26c0 .02-.08.25-.1.27.08.03.14.04.2.02a.36.36 0 0 0 .17-.13c.11-.15.19-.37.22-.56h.08c.01.1.05.25.12.38.07.13.17.25.3.3a.62.62 0 0 0 .45 0l.05-.02h.06a.1.1 0 0 1 .05.03l.05.08.06.1c.05.05.12.19.27.18-.17 0-.26-.05-.33-.12a.57.57 0 0 1-.06-.1l-.05-.08h-.03a.4.4 0 0 0-.04 0l-.01.01-.05.02a.7.7 0 0 1-.43-.02.64.64 0 0 1-.36-.33 1.23 1.23 0 0 1-.09-.22c-.04.14-.1.3-.2.4a.44.44 0 0 1-.22.17.32.32 0 0 1-.25-.04c-.08.1-.15.16-.22.18a.2.2 0 0 1-.14-.01c-.03.11-.09.23-.17.34a.73.73 0 0 1-.39.26.83.83 0 0 1-.46.02.24.24 0 0 1-.14-.1.23.23 0 0 1-.02-.16c0-.05.02-.1.05-.14a.24.24 0 0 1 .1-.08c.03 0 .05-.03.07-.06a.63.63 0 0 0 .06-.12l.07-.21.02-.07.04-.12c-.18 0-.4-.1-.58-.2a3.4 3.4 0 0 1-.54-.38.57.57 0 0 1-.15-.18 2.17 2.17 0 0 1-.18-.41Zm6.16.05c-.1.13-.22.25-.34.32-.11.06-.23.2-.34.34-.1.15-.25.27-.3.37.03.03.02.14.04.18-.04-.1-.19-.22-.3-.29a1.3 1.3 0 0 0-.32-.13c.08.02.23-.02.35.05.08.04.16.1.22.18.05-.1.14-.26.25-.42.1-.15.23-.3.36-.36.11-.06.22-.18.31-.3.1-.12.24-.2.28-.28l-.21.34Zm-2.03.59a1.9 1.9 0 0 1-.35-.13l.04-.08c.1.05.22.09.32.12l.1.03c.14.05.28.22.34.37a.77.77 0 0 0-.45-.31Z" fill="#1E1E1E"/><defs><linearGradient id="au3k4l4ez" x1="3.35" y1="3.12" x2="21.9" y2="24.43" gradientUnits="userSpaceOnUse"><stop stop-color="#1A1E21"/><stop offset="1" stop-color="#06060A"/></linearGradient></defs></svg>