<!-- by TradingView --><svg width="18" height="18" viewBox="0 0 18 18" xmlns="http://www.w3.org/2000/svg"><path fill="#45CD85" d="M0 0h18v18H0z"/><path d="M10.9 3.72c.43.03.88.1 1.33.21v1.12c-.23-.16-.8-.47-1.86-.47-1.05 0-1.24.42-1.2.62-.03.1.07.33.73.5l.52.1c1 .16 2.58.42 2.58 1.81 0 .97-.89 1.55-2.1 1.67l.14.72h-1.2l.13-.72A6.27 6.27 0 0 1 8 8.78V7.6c.55.31 3.63 1.3 3.8 0 .05-.43-.6-.55-1.37-.7C9.34 6.68 8 6.42 8 5.2c0-.92.83-1.4 1.97-1.5L9.84 3h1.2l-.13.72ZM8.5 13c1.4 0 2.6-.82 3.16-2h1.08A4.5 4.5 0 1 1 7 5.26v1.08A3.5 3.5 0 0 0 8.5 13Z" fill="#fff"/></svg>