<!-- by TradingView --><svg width="18" height="18" viewBox="0 0 18 18" xmlns="http://www.w3.org/2000/svg"><path fill="url(#aoa1aechw)" d="M0 0h18v18H0z"/><path d="M6.85 11.89 7.58 14h2.94l.7-2.13C13.9 11.56 16 10.73 16 9.7c0-1.05-1.43-1.57-2.15-1.7.15.1.44.4.44.78 0 .33-.66 1.1-2.54 1.5L13.5 5h-2.33l-1.82 5.54a18.73 18.73 0 0 1-.67 0L6.9 5H4.5l1.82 5.32C4.34 9.9 3.76 9.08 3.76 8.78c0-.33.34-.66.5-.78C3.51 8.15 2 8.7 2 9.7c0 1.01 2.12 1.89 4.85 2.19Z" fill="#fff"/><defs><linearGradient id="aoa1aechw" x1="2.4" y1="15.52" x2="16.53" y2="3.74" gradientUnits="userSpaceOnUse"><stop offset=".06" stop-color="#5738E3"/><stop offset=".62" stop-color="#EC32C8"/><stop offset="1" stop-color="#FFA4C9"/></linearGradient></defs></svg>