<!-- by TradingView --><svg width="18" height="18" viewBox="0 0 18 18" xmlns="http://www.w3.org/2000/svg"><path fill="#4F4F6F" d="M0 0h18v18H0z"/><path d="M9.94 4.88c0 .07-.01.14-.03.2l2.42 1.31c.17-.2.44-.33.73-.33.52 0 .94.4.94.88 0 .4-.3.75-.69.85v1.5h-.5V7.8a.9.9 0 0 1-.68-.94L9.66 5.5a.95.95 0 0 1-.41.22v1.5h-.5v-1.5a.9.9 0 0 1-.69-.85c0-.48.42-.88.94-.88s.94.4.94.88ZM9 14c.52 0 .94-.4.94-.88v-.1l2.47-1.33c.16.15.4.25.65.25.52 0 .94-.4.94-.88 0-.49-.42-.88-.94-.88-.26 0-.5.1-.68.27l-1.44-.78-.26.43 1.46.79a.83.83 0 0 0 0 .37l-2.4 1.3a.96.96 0 0 0-.74-.32.97.97 0 0 0-.57.18l-1.55-.84-.26.43 1.5.81c-.04.1-.06.2-.06.3 0 .49.42.88.94.88ZM5.87 6.94c0 .4-.29.75-.68.85v2.42c.16.04.31.13.43.24l1.44-.78.26.43-1.46.79.01.17c0 .49-.41.88-.93.88s-.94-.4-.94-.88c0-.4.3-.75.69-.85V7.79A.9.9 0 0 1 4 6.94c0-.49.42-.88.94-.88.24 0 .46.08.62.22l1.62-.88.26.43-1.6.87c.02.08.04.16.04.24Zm3.38 2.91A.9.9 0 0 0 9.94 9c0-.06 0-.12-.02-.17l1.46-.8-.26-.42-1.44.78A.96.96 0 0 0 9 8.12c-.26 0-.49.1-.66.25l-1.4-.76-.26.43 1.4.76a.84.84 0 0 0-.02.2c0 .4.3.75.69.85v1.5h.5v-1.5Z" fill="#fff"/></svg>