<!-- by TradingView --><svg width="18" height="18" xmlns="http://www.w3.org/2000/svg"><path fill="#00CEDB" d="M0 0h18v18H0z"/><path d="M7.675 9.297l-.99 1.023c-.178.185-.352.37-.531.553-.03.031-.073.05-.11.074-.077-.013-.137-.06-.148-.13a9.86 9.86 0 01-.044-.321c-.018-.142-.062-.18-.206-.199-.299-.035-.596-.074-.894-.113l-.68-.087c-.136-.018-.186-.114-.115-.228.163-.26.328-.52.492-.778L5.45 7.507c.04-.064.084-.108.169-.106a.623.623 0 00.164-.025.16.16 0 01.157.045c.079.073.159.145.237.219l.905.85.586.547c.101.094.101.161.006.26zm6.654 1.377c.057.046.118.09.13.169.015.1-.026.174-.112.23l-1.53.981-.986.633a.784.784 0 00-.089.064.204.204 0 00-.075.168c.005.121.012.243.014.364.002.14-.102.227-.244.211a.197.197 0 01-.129-.073 194.92 194.92 0 01-.355-.407l-.444-.51a.279.279 0 01-.081-.234l.02-.71c.002-.082.052-.136.12-.178l.814-.516c.456-.288.913-.575 1.368-.865.096-.062.186-.08.291-.027.078.04.166.047.251.02.127-.04.224-.004.322.081.234.205.477.4.716.599zm-4.378.589c.037.036.063.08.076.13.022.111-.022.187-.128.237-.351.168-.663.335-1.017.497-.064.028-.19.099-.263.102H7.124c-.027 0-.053-.01-.078-.02a.198.198 0 01-.066-.043c-.037-.033-.076-.066-.112-.1-.207-.195-.41-.392-.62-.582-.118-.106-.12-.248-.007-.361.252-.258.502-.518.753-.778l.811-.843a.231.231 0 01.258-.066c.03.01.056.027.08.05l1.08 1.061c.242.239.486.475.728.716zm1.486-4.78c-.115-.176.015-.42.208-.452.515-.085 1.028-.182 1.542-.27.113-.02.203.031.266.124.108.16.214.32.32.482.226.338.453.677.676 1.016.03.046.045.101.067.152l-.013.006a.392.392 0 01-.093.236c-.314.418-.632.834-.946 1.253a.293.293 0 01-.25.11.297.297 0 01-.234-.143c-.459-.754-.923-1.506-1.385-2.258-.052-.085-.103-.172-.158-.255zm-.903 2.098l-.09.793-.077.657-.089.772c-.006.054-.006.11-.018.162-.006.025-.025.058-.047.066-.021.008-.06-.003-.079-.02-.085-.072-.166-.15-.248-.226-.294-.276-.586-.552-.88-.826-.255-.24-.512-.477-.768-.714-.086-.079-.086-.104-.004-.189L9.409 7.84l.802-.833.394-.41c.011-.012.02-.028.034-.033.029-.01.063-.023.088-.016.02.007.03.044.036.054l-.06.522-.077.672-.092.786zm2.284.605c.038.062.044.12.002.183a.363.363 0 00-.055.24c.007.075-.024.12-.088.16-.502.316-1.002.633-1.502.95-.158.1-.315.2-.473.298-.062.04-.126.036-.16-.014-.02-.027-.022-.065-.027-.084l.066-.48.147-1.058.162-1.158.157-1.132.06-.421c.002-.012.002-.025.008-.033.016-.02.033-.049.053-.052.022-.004.055.013.069.031.037.049.066.103.098.155l1.173 1.91.31.505zm-2.432-2.911c.019.012.055.024.074.05.03.039.004.076-.027.107l-.408.425-1.19 1.231c-.248.258-.495.518-.743.775-.09.093-.162.093-.256.005l-.87-.816-.848-.79c-.038-.035-.068-.074-.064-.129.006-.074.05-.116.135-.13l.471-.082 1.51-.261 1.781-.31.435-.075zm-4.043.375c.28-.19.559-.378.84-.566L9.887 4.26c.09-.06.147-.048.192.048l.558 1.188c.024.05.047.103.072.154.02.042.006.076-.019.113a.79.79 0 00-.083.147.125.125 0 01-.104.085l-1.194.213-1.412.25-1.542.275c-.022.004-.044 0-.066 0l-.013-.024c.022-.02.042-.042.066-.059zm-2.814.906c-.177-.003-.282-.173-.197-.33.071-.131.15-.258.227-.387.221-.374.443-.746.663-1.12a.394.394 0 01.15-.145l1.755-1.001a.385.385 0 01.121-.048.21.21 0 01.212.086.212.212 0 01.02.23c-.087.187-.18.372-.27.557-.167.34-.335.679-.501 1.019a.258.258 0 01-.18.152.416.416 0 00-.308.303.213.213 0 01-.149.153c-.481.168-.962.339-1.442.508-.033.012-.067.015-.1.024h-.001zM6.02 6.472a.204.204 0 01.02-.071l.629-1.364c.13-.284.263-.567.392-.852.03-.065.074-.097.148-.1.197-.006.393-.016.589-.024l1.158-.044c.136-.005.272-.014.408-.02.097-.005.164.053.164.148.005.057-.033.095-.08.127l-.371.25L6.86 6.014l-.708.478a.32.32 0 01-.053.032c-.042.017-.082-.008-.08-.052zm-.818.98l-.295.466-1.104 1.746a.253.253 0 01-.06.073c-.064.045-.149.014-.179-.065-.048-.128-.093-.256-.14-.383l-.4-1.118c-.01-.028-.017-.056-.02-.07 0-.075.025-.107.097-.13.213-.069.427-.136.64-.203l1.21-.38.158-.049c.038-.011.076-.028.107.014.028.037.005.068-.014.099zM14.873 9l.122.686.01.074c-.007.03-.013.065-.023.1l-.159.567c-.045.163-.176.202-.308.091l-.814-.675c-.062-.051-.088-.11-.074-.19a.37.37 0 00-.027-.24c-.037-.073-.025-.137.023-.201l.664-.885.135-.18c.045-.062.104-.091.18-.075.079.018.12.071.133.148l.138.78zm-4.538-4.717l-.012-.025c-.016-.036-.023-.077.014-.097a.145.145 0 01.102-.006c.053.016.1.046.15.07l2.017.997.358.178c.04.02.072.043.064.092-.008.05-.046.06-.09.068l-1.453.258-.048.01c-.013-.009-.04-.02-.057-.038a.481.481 0 00-.358-.18c-.054-.002-.081-.034-.102-.078-.085-.183-.172-.365-.258-.547l-.327-.702z" fill="#fff"/></svg>