<!-- by TradingView --><svg width="18" height="18" viewBox="0 0 18 18" xmlns="http://www.w3.org/2000/svg"><path fill="#F0F3FA" d="M0 0h18v18H0z"/><circle cx="9" cy="9" fill="url(#apa4jlnli)" r="5.78"/><path d="M6.29 8.02c-.74.24-.85 1.59-.83 1.64.2.59 1 3 3.5 3s3.16-2.03 3.3-2.32c.16-.3.44-.62.44-1.41 0-.63-.23-1.2-.34-1.42-.25.17-.75.51-.82.51-.09 0-.82 0-1.15.08-.26.06-1.16.58-1.57.83-.6-.38-1.94-1.1-2.53-.9Z" fill="#fff"/><path d="M8.51 11.78c-1.29 0-2.46-1.1-2.88-1.65A3.57 3.57 0 0 0 9 12.66c1.66 0 2.32-.8 2.78-1.29.36-.38.47-.91.48-1.13-.14.17-.38.13-.48.09-.25.97-1.18.93-1.62.78-.18.22-.75.67-1.64.67Z" fill="#F8ECDF"/><path d="M6.65 8.25c-.83 0-1.08 1.03-1.1 1.52-.07-.23-.2-.8-.2-1.18 0-.4.2-.93.3-1.15l-.07-.82c.02-.36.08-1.15.15-1.42.1-.35.4-1 .77-1 .36 0 .62.32.84.55.19.18.6.44.78.55h.77c.24.05.78.09 1.03-.16.24-.25.68-.56.87-.68.07.02.24.07.37.15.12.08.09.42.06.59.03.31.12 1 .22 1.23.1.24.59.62.82.78l-.13.67c-.12.12-.4.39-.58.47-.22.1-.11-.06-.82-.06s-.98.74-1.84.74c-.86 0-1.2-.78-2.24-.78Z" fill="url(#bpa4jlnli)"/><path d="M6.37 6.54c-.23-.92-.03-1.56.1-1.77 0 .35.5 1.02.76 1.31-.26.03-.68.32-.86.46Z"/><path d="M10.57 6.62c-.07-.06-.18-.2-.12-.28.08-.1.28-.1.38-.02.1.09.13.29.06.37-.05.07-.24-.02-.32-.07Zm-1.71.34c-.14 0-.4-.07-.4-.21 0-.19.23-.37.43-.37.2 0 .4.2.4.37 0 .12-.29.2-.43.21Z" fill="#FEE1A0"/><path d="M10.32 8.97c0 .4.56.64.83.71.38 0 .59-.47.64-.71.03-.16-.07-.49-.7-.49-.62 0-.77.33-.77.49Z"/><path d="M9.34 9.7c-.1 0-.12.08-.12.12 0 .04.04.13.12.13.18.08.23.15.23.17.08.15.3.46.62.47.39 0 .47.13.94.02.38-.08.53-.34.55-.46.44-.2.6-.53.6-.77 0-.23-.12-.47-.2-.47-.1 0-.11.03-.13.12-.01.08.11.12.1.46-.01.35-.4.43-.6.43a.4.4 0 0 0-.32.16s-.2.3-.71.3-.73-.48-.78-.52c-.04-.04-.17-.16-.3-.16Z"/><path d="M6.84 4.2c.17.06.36.19.54.4.25.28.61.5.8.6a6.6 6.6 0 0 1 1.45 0c.22-.23.45-.46.69-.62.12-.09.25-.16.37-.2a.59.59 0 0 1 .37 0c.18.06.28.19.32.32.04.13.04.26.02.35-.01.18 0 .49.05.8.07.31.18.61.38.8a3.76 3.76 0 0 1 1.04 2.11 5.81 5.81 0 0 1-.76 2.22 3.47 3.47 0 0 1-3.04 1.8 3.5 3.5 0 0 1-3.06-1.69 5 5 0 0 1-.79-2.42c0-.4.06-.69.14-.9.06-.17.14-.28.2-.36-.03-.26-.08-.89-.05-1.8.03-1.02.59-1.42.9-1.48.11-.03.27 0 .43.06Zm-.08.19c-.15-.06-.25-.06-.28-.05h-.01c-.21.04-.71.33-.74 1.28-.04.98.03 1.62.06 1.81l.01.07-.05.04a.72.72 0 0 0-.19.3 2.4 2.4 0 0 0-.12.83c0 .46.2 1.44.75 2.3.56.87 1.46 1.6 2.88 1.6 1.41 0 2.3-.81 2.85-1.7a5.6 5.6 0 0 0 .73-2.1 3.55 3.55 0 0 0-.97-1.96 1.73 1.73 0 0 1-.44-.92 3.4 3.4 0 0 1-.05-.87.5.5 0 0 0-.01-.25.28.28 0 0 0-.2-.19.38.38 0 0 0-.22.01c-.1.03-.2.09-.32.17-.23.15-.47.38-.68.62l-.04.05-.05-.01a6.45 6.45 0 0 0-1.5 0h-.03l-.03-.01a3.2 3.2 0 0 1-.89-.67c-.16-.18-.32-.3-.46-.35Z"/><path d="m13.1 6.6-6.9.88.05.38 1.03-.13.04.37.36-.04.03.27.37-.05.04.31 1.03-.13-.04-.3.37-.06-.04-.27.35-.05-.04-.37.64-.08.05.37.32-.04.04.27.32-.04.04.3 1.13-.14-.04-.3.3-.04-.04-.28.4-.05-.05-.37.3-.03-.06-.39Z"/><path d="m9 7.45.37-.04.05.34-.37.04L9 7.45ZM9.05 7.8l.04.33-.37.05-.04-.34.37-.05ZM12.13 7.05 12.5 7l.05.34-.37.05-.05-.34ZM12.18 7.39l.04.34-.37.05-.04-.34.37-.05Z" fill="#fff"/><path d="M10.82 11.12c-.3 0-.6-.12-.7-.18.1.36.53.41 1.18.28.52-.11.56-.58.51-.8-.25.49-.63.7-1 .7Z"/><path fill-rule="evenodd" d="M9 15A6 6 0 1 0 9 3a6 6 0 0 0 0 12Zm0-.33A5.67 5.67 0 1 0 9 3.33a5.67 5.67 0 0 0 0 11.34Z"/><path d="M5.06 12.12c-.77-1.02-1-2.3-1.06-3.11L4.9 9c.05.68.32 1.71.95 2.56A3.7 3.7 0 0 0 9 13.05c1.53 0 2.5-.67 3.11-1.5.63-.84.88-1.86.92-2.54H14a6.07 6.07 0 0 1-1.1 3.1A4.64 4.64 0 0 1 8.99 14a4.69 4.69 0 0 1-3.93-1.88Z"/><defs><linearGradient id="apa4jlnli" x1="9" y1="3.22" x2="9" y2="14.78" gradientUnits="userSpaceOnUse"><stop stop-color="#AB39FE"/><stop offset="1" stop-color="#7B70F5"/></linearGradient><linearGradient id="bpa4jlnli" x1="8.81" y1="4.21" x2="8.81" y2="9.77" gradientUnits="userSpaceOnUse"><stop stop-color="#FCF071"/><stop offset=".69" stop-color="#FFA725"/></linearGradient></defs></svg>