<!-- by TradingView --><svg width="18" height="18" xmlns="http://www.w3.org/2000/svg"><path fill="#F0F3FA" d="M0 0h18v18H0z"/><path d="M8.038 4.472c.13.374.484.663.914.663.438 0 .795-.3.92-.682.082-.252.315-.514.57-.44.376.108.735.257 1.072.442.229.127.212.465.093.698a.968.968 0 001.291 1.308c.235-.115.574-.127.697.104.16.3.292.618.391.95.077.254-.183.49-.434.574a.977.977 0 00-.674.916c0 .433.295.788.674.915.251.085.51.32.434.574-.111.374-.264.73-.453 1.063-.126.222-.452.21-.68.095a.968.968 0 00-1.312 1.273c.106.231.11.558-.116.677-.3.158-.618.287-.95.385-.246.072-.474-.168-.561-.41a.978.978 0 00-.911-.652.978.978 0 00-.911.653c-.087.241-.316.481-.562.409a5.17 5.17 0 01-1.087-.46c-.207-.117-.211-.411-.118-.63a.968.968 0 00-1.258-1.275c-.221.09-.515.082-.63-.127a5.157 5.157 0 01-.424-1.02c-.072-.246.168-.474.41-.56a.977.977 0 00.653-.91.977.977 0 00-.653-.91c-.242-.087-.482-.315-.41-.561.096-.323.222-.634.375-.927.116-.221.43-.225.66-.126A.968.968 0 006.305 5.17c-.11-.224-.12-.539.097-.664a5.176 5.176 0 011.057-.462c.253-.079.492.178.579.428zm.965 7.74a3.21 3.21 0 003.212-3.207 3.21 3.21 0 00-3.212-3.208A3.21 3.21 0 005.79 9.005a3.21 3.21 0 003.213 3.207z" fill="#0B8BB1"/><path d="M10.097 6.857a.19.19 0 00.179.13.19.19 0 00.18-.134c.015-.05.06-.1.11-.086.074.02.144.05.21.086.044.025.041.091.018.137a.19.19 0 00.252.256c.046-.023.112-.025.136.02.031.058.057.12.077.186.014.05-.036.095-.085.112a.19.19 0 00-.132.179.19.19 0 00.132.179c.049.016.1.062.085.112a1.01 1.01 0 01-.089.208c-.024.043-.088.04-.133.018a.19.19 0 00-.256.249c.02.046.022.11-.022.133-.06.03-.121.056-.186.075-.048.014-.093-.033-.11-.08a.191.191 0 00-.177-.128.191.191 0 00-.178.128c-.017.047-.062.094-.11.08a1.01 1.01 0 01-.212-.09c-.04-.023-.041-.08-.023-.123a.189.189 0 00-.174-.263.189.189 0 00-.072.014c-.043.017-.1.016-.123-.025a1.01 1.01 0 01-.083-.2c-.014-.048.033-.092.08-.11a.191.191 0 00.128-.177.191.191 0 00-.128-.178c-.047-.017-.094-.062-.08-.11.019-.063.044-.124.074-.181.022-.043.084-.044.128-.025a.189.189 0 00.265-.173.188.188 0 00-.02-.083c-.02-.044-.022-.105.02-.13a1.01 1.01 0 01.206-.09c.05-.016.096.035.113.084zm.187 1.394a.51.51 0 100-1.018.51.51 0 000 1.018zm-3.395-.733a.19.19 0 00.178.13.191.191 0 00.18-.133c.016-.05.061-.1.111-.086.074.02.144.05.21.086.044.025.041.091.018.137a.19.19 0 00.252.256c.046-.023.112-.025.136.02.031.058.057.12.076.185.015.05-.035.096-.085.113a.19.19 0 00-.131.179.19.19 0 00.131.179c.05.016.1.062.085.112a1.009 1.009 0 01-.088.208c-.025.043-.089.04-.133.018a.19.19 0 00-.256.249c.02.045.021.11-.023.133a1.01 1.01 0 01-.185.075c-.048.014-.093-.033-.11-.08a.191.191 0 00-.178-.128.191.191 0 00-.178.128c-.017.047-.061.094-.11.08a1.009 1.009 0 01-.211-.09c-.04-.023-.042-.08-.023-.123a.19.19 0 00-.246-.25c-.043.018-.1.016-.123-.024a1.01 1.01 0 01-.083-.2c-.014-.048.033-.092.08-.11a.191.191 0 00.128-.177.191.191 0 00-.128-.178c-.047-.017-.094-.062-.08-.11.019-.063.043-.124.073-.181.023-.043.084-.044.13-.025a.188.188 0 00.264-.173.188.188 0 00-.02-.083c-.02-.044-.023-.105.02-.13a1.01 1.01 0 01.206-.09c.05-.016.096.035.113.083zm.187 1.395a.51.51 0 100-1.018.51.51 0 000 1.018zm.78.897a.19.19 0 00.179.13.191.191 0 00.18-.134c.016-.05.061-.1.11-.086.074.021.144.05.21.086.045.025.042.091.018.137a.19.19 0 00.252.256c.046-.023.112-.025.136.02.032.059.057.12.077.186.015.05-.036.095-.085.112a.191.191 0 00-.132.179c0 .085.058.154.132.179.05.017.1.063.085.112a1.01 1.01 0 01-.089.208c-.024.043-.088.04-.133.019a.189.189 0 00-.256.248c.021.046.022.11-.022.133-.059.03-.12.056-.186.075-.048.014-.092-.033-.11-.08a.191.191 0 00-.177-.127.191.191 0 00-.178.127c-.017.047-.062.094-.11.08a1.01 1.01 0 01-.212-.09c-.04-.023-.041-.08-.023-.123a.19.19 0 00-.246-.25c-.043.018-.1.017-.122-.024a1.007 1.007 0 01-.083-.2c-.014-.048.032-.092.08-.11a.191.191 0 00.127-.177.19.19 0 00-.127-.178c-.048-.017-.095-.062-.08-.11a.943.943 0 01.073-.18c.022-.044.084-.045.129-.025a.189.189 0 00.245-.257c-.021-.044-.023-.105.019-.13a1.01 1.01 0 01.206-.09c.05-.015.096.035.113.084zm.187 1.394a.51.51 0 100-1.018.51.51 0 000 1.018z" fill="#888"/><path d="M9.166 7.985l-.942.204-.021-.1.942-.203.021.1zM7.583 9.69l-.128-.255.091-.046.128.255-.091.045zm2.072-1.062L8.713 9.85l-.08-.062.941-1.222.08.062z" fill="#0B8BB1"/></svg>