<!-- by TradingView --><svg width="18" height="18" xmlns="http://www.w3.org/2000/svg"><path fill="#FF00AF" d="M0 0h18v18H0z"/><path d="M10 12.727V5.164c1.605.48 3 2.078 3 3.836s-1.395 3.248-3 3.727zM8.997 4v4.214l-.634-.635-.082-1.584.662-1.992a4.976 4.976 0 00-1.227.169l-.32.963-.908-.455c-.359.209-.691.46-.986.748l1.681.843.05.964-.965-.05-.842-1.68c-.29.295-.54.627-.75.986l.457.908-.964.32A4.989 4.989 0 004 8.946l1.993-.662 1.584.081.635.635-.635.635-1.584.08L4 9.055c.004.424.065.834.169 1.227l.964.32-.456.908c.21.36.46.691.749.987l.842-1.682.964-.049-.049.964-1.681.843c.295.289.627.539.986.748l.908-.455.32.963c.393.104.803.165 1.227.17l-.662-1.993.082-1.584.634-.635V14a5 5 0 000-10z" fill="#fff"/></svg>