<!-- by TradingView --><svg width="18" height="18" viewBox="0 0 18 18" xmlns="http://www.w3.org/2000/svg"><path fill="url(#aufssdagi)" d="M0 0h18v18H0z"/><path d="M6.54 7c-.43 0-.54.34-.54.74V12H5V7.44C5 6.64 5.69 6 6.54 6 7.4 6 8 6.64 8 7.44v3.17c0 .2.11.4.4.4.16 0 .27-.16.34-.29l1.93-4.08c.2-.38.7-.64 1.15-.64.65 0 1.18.5 1.18 1.1V12h-1V7.41c0-.21-.02-.41-.18-.41-.15 0-.3.11-.37.24l-1.8 4.15c-.24.45-.7.61-1.3.61C7.62 12 7 11.52 7 10.92V7.74c0-.4-.03-.74-.46-.74Z" fill="#fff"/><defs><linearGradient id="aufssdagi" x1="3.35" y1="3.12" x2="21.9" y2="24.43" gradientUnits="userSpaceOnUse"><stop stop-color="#1A1E21"/><stop offset="1" stop-color="#06060A"/></linearGradient></defs></svg>