<!-- by TradingView --><svg width="18" height="18" viewBox="0 0 18 18" xmlns="http://www.w3.org/2000/svg"><path fill="#0D0B70" d="M0 0h18v18H0z"/><circle cx="9" cy="9" r="6" fill="#30128D"/><circle cx="9" cy="9" r="4.94" fill="#7D1FA9"/><circle cx="9" cy="9" r="3.74" fill="#FB88F3"/><circle cx="9" cy="9" r="3.44" fill="#E7B2F8"/><path d="M12.04 9.11c0 1.73-1.16 2.5-2.86 2.94-.76.2-1.4.11-1.95 0-.88-.18-1.36-.8-1.62-1.67a2.2 2.2 0 0 1-.07-.66c0-1.25 1.64-3.74 3.37-3.74 1.73 0 3.13 1.4 3.13 3.13Z" fill="url(#aon5bodga)"/><defs><linearGradient id="aon5bodga" x1="10.99" y1="7.09" x2="5.94" y2="11.12" gradientUnits="userSpaceOnUse"><stop stop-color="#6DDFF4"/><stop offset=".42" stop-color="#10FDF7"/><stop offset=".65" stop-color="#20DFFB"/><stop offset="1" stop-color="#688FEB"/></linearGradient></defs></svg>