<!-- by TradingView --><svg xmlns="http://www.w3.org/2000/svg" width="18" height="18"><path fill="#1FC0DC" d="M0 0h18v18H0z"/><path d="M13.56 10.79h-2.42c-1.13-.01-1.15-.25-1.76-.83C8.9 9.47 8 8.53 7.61 8.19c-.36-.3-1.22-.26-1.22-.26H4.7v5.36h2c.45 0 1.06-.5 1.06-.5l1.56-1.63.53.56s-1.16 1.24-1.63 1.7c-.64.62-1.51.58-1.51.58H4V7.2h2.38c1.41 0 1.82.43 1.82.43s1.8 1.82 2.1 2.09c.43.34.98.34.98.34h2V4.71h-1.66c-.06 0-.47 0-.94.27-.34.14-1.9 1.79-1.9 1.79l-.59-.56s1.24-1.3 1.5-1.54c.24-.24.7-.67 1.92-.67H14v6.79h-.44z" fill="#fff"/></svg>