<!-- by TradingView --><svg width="18" height="18" viewBox="0 0 18 18" xmlns="http://www.w3.org/2000/svg"><path fill="url(#adxpupsx5)" d="M0 0h18v18H0z"/><path fill-rule="evenodd" d="M5 4.31v3.04l.98 1.2L5 10.04v3.65c0 .17.14.31.31.31h4.12c.24 0 4.57-.25 4.57-4.86C14 5.44 11.15 4 9.43 4H5.3a.31.31 0 0 0-.31.31Zm1 .89v1.86l.74 1.03.5-.98a.2.2 0 0 1 .18-.1h3.86a.2.2 0 0 1 .17.1l.95 1.38a.2.2 0 0 1-.01.22l-2.74 3.55a.3.3 0 0 1-.22.12.3.3 0 0 1-.23-.12L6.67 9.12 6 10.17v2.63c0 .11.09.2.2.2h3.23c1.19-.04 3.57-.9 3.57-3.98A3.76 3.76 0 0 0 9.43 5H6.19a.2.2 0 0 0-.19.2Zm1.88 2.43h1.28l-.56 1H7.39l.5-1ZM7.55 9l1.46 2.22L8.57 9H7.55Zm3.57-1.37H9.84l.56 1h1.21l-.5-1ZM11.45 9l-1.46 2.28.44-2.28h1.02Zm-2.5-.37h1.08l-.53-1-.54 1Zm1.16.37H8.88l.62 2.79.6-2.79Z" fill="#fff"/><defs><linearGradient id="adxpupsx5" x1="0" y1="9" x2="18" y2="9" gradientUnits="userSpaceOnUse"><stop stop-color="#16E0B0"/><stop offset="1" stop-color="#14C5D7"/></linearGradient></defs></svg>