<!-- by TradingView --><svg xmlns="http://www.w3.org/2000/svg" width="18" height="18" viewBox="0 0 18 18"><path fill="#36781D" d="M0 0h18v18H0z"/><path d="M9.4 4.38c1.52 0 2.88.69 3.77 1.78A5.06 5.06 0 0 0 3.97 9c0 .83.2 1.62.57 2.31l.44-.11A4.84 4.84 0 0 1 9.4 4.38zM4.84 11.8A5.06 5.06 0 0 0 9.02 14h.05a4.2 4.2 0 0 0 .14 0 4.86 4.86 0 0 1-3.94-2.26c1.2-.2 2.92-.24 3.73-.24.7 0 2.23.01 3.29.17.1-.12.18-.24.26-.37-.73-.18-1.5-.3-2.28-.37-.13-.17-.22-.53-.18-.87.02-.17.1-.23.2-.3a.65.65 0 0 0 .31-.45c.06-.27.27-.56.4-.56.04 0 .14-.04.23-.08.09-.05.23-.1.32-.13.22-.05.28-.22.13-.38-.21-.23-.22-.29-.07-.45l.14-.15h-.21a.68.68 0 0 1-.34-.1c-.15-.1-.27-.1-.48 0-.44.24-1.65.38-3.26.38h-.1c-1.3 0-1.52 0-1.63.7l-.07.39c-.08.42-.18.9-.11 1.26v.1c.02.13.04.34.06.34.21 0 .16-.69.13-1.03v-.16c0-.2-.01-.52.07-.6.03-.03.05.04.05.15a1 1 0 0 0 .1.4c.08.15.09.22.03.36-.09.15-.06.41-.03.67l.03.3c0 .1-.02.2-.05.3.01.03.05.04.09.05.05.01.1.02.07.09-1.3.25-2.51.68-3.6 1.24a19.9 19.9 0 0 1 2.34-.59zm2.1-.8l-.59.1c-.08-.06-.1-.2-.13-.4-.04-.21 0-.3.19-.63.24-.4.36-.5.18-.15-.1.2-.1.21.09.53.1.19.2.38.2.43 0 .05.02.1.06.12zm2.45-.13a15.21 15.21 0 0 0-2.1.1c-.1-.08-.18-.24-.26-.42a.67.67 0 0 1-.06-.48l.05-.31c-.01-.1.01-.14.46.02.17.05.37.15.44.22.1.09.15.1.18.05.38-.6 1.17-.2 1.2-.1.02.04.04.27.05.52 0 0-.11.22-.05.24.1.03.1.11.09.16zm.54.02h-.24c-.11-.12-.14-.42-.06-.71.04-.15.04-.15.15.1a2.42 2.42 0 0 1 .15.61zm5.57 1.5a19.8 19.8 0 0 0-2.13-.54l.18-.27c.69.22 1.34.5 1.95.81zm-2-3.34A4.47 4.47 0 1 1 5.75 12l.03.1a4.67 4.67 0 0 0 3.58 1.65A4.59 4.59 0 0 0 14 9.22c0-1.71-.97-3.2-2.4-3.97-.7-.38-1.8-.31-2.36-.18.58.1.92.54 1.3 1.02.27.35.55.73.97 1 .46.32 1.5.18 1.52 0 .3.57.47 1.24.47 1.97zm-2.54-3.51l-.2-.05.17.04.03.01z" fill="#fff"/></svg>