<!-- by TradingView --><svg width="18" height="18" viewBox="0 0 18 18" xmlns="http://www.w3.org/2000/svg"><path fill="url(#am5evzv2w)" d="M0 0h18v18H0z"/><path d="m4.55 12.28 2.96 1.58v-1L5.08 11.5C5 11.45 5 11.34 5 11.25V9.29l-1 .5v1.6c0 .37.21.7.55.89Z" fill="url(#bm5evzv2w)"/><path d="m13.45 12.28-2.96 1.58v-1l2.43-1.36c.08-.04.08-.13.08-.22V9.3l1 .5v1.6c0 .37-.21.71-.55.9Z" fill="url(#cm5evzv2w)"/><path d="M7.44 13.81V7.88l.93-.42v6.12c-.2.62-.7.41-.93.23Z" fill="url(#dm5evzv2w)"/><path d="M10.56 13.82V7.88l-.94-.41v6.11c.22.62.72.42.94.24Z" fill="url(#em5evzv2w)"/><path d="M4.43 9.7c-.28.18-.4.42-.43.52V7.14c0-.37.2-.7.54-.89l3.67-2C8.57 4.04 8.9 4 9 4v.9L5.12 6.99c-.09.04-.12.13-.12.22v1.15l4-2.2v1.05L4.43 9.7Z" fill="url(#fm5evzv2w)"/><path d="M13.57 9.71c.28.18.4.42.43.52V7.14c0-.36-.2-.7-.54-.88l-3.67-2A1.45 1.45 0 0 0 9 4.02v.9l3.88 2.08c.09.05.12.13.12.23v1.15l-4-2.2v1.04l4.57 2.5Z" fill="url(#gm5evzv2w)"/><defs><linearGradient id="am5evzv2w" x1="3.35" y1="3.12" x2="21.9" y2="24.43" gradientUnits="userSpaceOnUse"><stop stop-color="#1A1E21"/><stop offset="1" stop-color="#06060A"/></linearGradient><linearGradient id="bm5evzv2w" x1="4.3" y1="9.8" x2="7.28" y2="13.74" gradientUnits="userSpaceOnUse"><stop stop-color="#18A0E0"/><stop offset="1" stop-color="#0143D3"/></linearGradient><linearGradient id="cm5evzv2w" x1="13.75" y1="10.05" x2="11" y2="13.68" gradientUnits="userSpaceOnUse"><stop stop-color="#0B7AE5"/><stop offset="1" stop-color="#063ED5"/></linearGradient><linearGradient id="dm5evzv2w" x1="7.91" y1="7.46" x2="7.91" y2="13.99" gradientUnits="userSpaceOnUse"><stop stop-color="#1173D6"/><stop offset="1" stop-color="#127DEF"/></linearGradient><linearGradient id="em5evzv2w" x1="10.09" y1="7.47" x2="10.09" y2="14" gradientUnits="userSpaceOnUse"><stop stop-color="#1173D8"/><stop offset="1" stop-color="#0C72FA"/></linearGradient><linearGradient id="fm5evzv2w" x1="9" y1="5.86" x2="4.39" y2="9.85" gradientUnits="userSpaceOnUse"><stop stop-color="#36E9E5"/><stop offset="1" stop-color="#23C7EC"/></linearGradient><linearGradient id="gm5evzv2w" x1="9" y1="4.98" x2="13.72" y2="9.62" gradientUnits="userSpaceOnUse"><stop stop-color="#36E9E5"/><stop offset="1" stop-color="#1292F7"/></linearGradient></defs></svg>