<!-- by TradingView --><svg width="18" height="18" viewBox="0 0 18 18" xmlns="http://www.w3.org/2000/svg"><path fill="url(#aeeta13lj)" d="M0 0h18v18H0z"/><path opacity=".6" fill-rule="evenodd" d="M5.46 12.54a5 5 0 1 0 7.08-7.08 5 5 0 0 0-7.08 7.08Zm5.83-5.82c-.54-.55-1.87-1.55-2.18-1.17-.18.22-.15.82-.11 1.45.04.74.03 1.43-.21 1.66-.4.4-1.12.37-1.9.34-.6-.02-1.12-.05-1.32.12-.38.3.62 1.62 1.16 2.15.53.54 1.84 1.7 2.15 1.33.17-.2.14-.73.12-1.32-.03-.79-.07-1.5.34-1.9.3-.3.92-.42 1.66-.38.63.04 1.23.07 1.45-.1.38-.32-.62-1.65-1.16-2.19Z" fill="url(#beeta13lj)"/><defs><linearGradient id="aeeta13lj" x1="3.35" y1="3.12" x2="21.9" y2="24.43" gradientUnits="userSpaceOnUse"><stop stop-color="#1A1E21"/><stop offset="1" stop-color="#06060A"/></linearGradient><linearGradient id="beeta13lj" x1="12.64" y1="9.01" x2="5.36" y2="9.01" gradientUnits="userSpaceOnUse"><stop stop-color="#EE4492"/><stop offset="1" stop-color="#2D41BC"/></linearGradient></defs></svg>