<!-- by TradingView --><svg xmlns="http://www.w3.org/2000/svg" width="18" height="18"><path fill="url(#apiv1o5oi)" d="M0 0h18v18H0z"/><path fill-rule="evenodd" d="M6.8 4.21h1.24l.2 1.32-1.36-.72-.09-.6zm.13.87l1.36.72.75 4.76-1.06 1.46-1.05-6.94zm1.1 7.27l.2 1.33 1.06-1.49-.2-1.3-1.06 1.46zM9.3 10.6l.2 1.31 3.16-4.44h-1.11L9.29 10.6zm2.26-3.34l-.02-.01L8.5 5.66 8.3 4.3 14 7.26h-2.45zm-.24.13l-2.07 2.89-.69-4.34 2.76 1.45zm-6.3-3.3a.1.1 0 000 .06L6.53 14h3.23l4.7-6.6a.11.11 0 00.03-.03l.01-.01c0-.05-.01-.1-.06-.12L8.2 4H5.12c-.05 0-.1.03-.11.08H5v.01z" fill="#fff"/><defs><linearGradient id="apiv1o5oi" x1="3.35" y1="3.12" x2="21.9" y2="24.43" gradientUnits="userSpaceOnUse"><stop stop-color="#1A1E21"/><stop offset="1" stop-color="#06060A"/></linearGradient></defs></svg>