<!-- by TradingView --><svg width="18" height="18" viewBox="0 0 18 18" xmlns="http://www.w3.org/2000/svg"><path fill="url(#a203de2be)" d="M0 0h18v18H0z"/><path d="M14 9a5 5 0 0 1-8.4 3.66l.75-.67a4 4 0 0 0 5.94-5.28l.75-.66c.6.82.96 1.85.96 2.95Zm-2.34-2.99.75-.67A4.98 4.98 0 0 0 4 9c0 1.1.36 2.13.97 2.96l.75-.67a4 4 0 0 1 5.94-5.28Z" fill="#F0F3FA"/><path d="M11 10.66c-.4.8-1.06 1.34-1.82 1.34C7.98 12 7 10.66 7 9s.98-3 2.18-3c.76 0 1.43.54 1.82 1.35l-.58.3c-.24-.6-.64-.98-1.09-.98C8.6 6.67 8 7.7 8 9s.6 2.33 1.33 2.33c.45 0 .84-.38 1.08-.96l.59.29Z" fill="#F0F3FA"/><path d="M6.4 8H10l-.4.5H6l.4-.5ZM6.4 9.5H10l-.4.5H6l.4-.5Z" fill="#F0F3FA"/><defs><linearGradient id="a203de2be" x1="2.09" y1="3.21" x2="16.88" y2="15.27" gradientUnits="userSpaceOnUse"><stop stop-color="#1AA3FF"/><stop offset="1" stop-color="#686CF4"/></linearGradient></defs></svg>