<!-- by TradingView --><svg width="18" height="18" xmlns="http://www.w3.org/2000/svg"><path fill="url(#paint0_linear)" d="M0 0h18v18H0z"/><path d="M9.112 3L4 5.946v5.9l1 .56V6.517l4.112-2.322 1.863 1.012.213-1.012L9.112 3zm.007 8.557L9 11.412V8.863l1.022-.734-.903-.588L8 8.27v3.735l1.119.725L12 10.86l-.875-.607-2.006 1.304zM6 13.137V7.133L9.06 5.27l3.06 1.863v.009l-.941.57-2.12-1.22L7 7.718v4.836l2.06 1.26L13 11.408V6.554l1-.58v6.017L9.06 15 6 13.137z" fill="#fff"/><defs><linearGradient id="paint0_linear" x1="3.349" y1="3.122" x2="21.904" y2="24.434" gradientUnits="userSpaceOnUse"><stop stop-color="#1A1E21"/><stop offset="1" stop-color="#06060A"/></linearGradient></defs></svg>