<!-- by TradingView --><svg width="18" height="18" viewBox="0 0 18 18" xmlns="http://www.w3.org/2000/svg"><path fill="url(#atplafokq)" d="M0 0h18v18H0z"/><path d="M8.28 5h3.03c.37 0 .69.32.69.74s-.32.71-.69.71h-2.9c-.38 0-1.08.1-1.08.78 0 .55.42.77.79.77h2.2a.7.7 0 0 1 .68.73c0 .39-.3.74-.69.74h-2.1c-.14 0-.2.05-.22.08-.13.18-.26.36-.36.54-.11.19-.16.3-.16.35v1.82c0 .4-.34.74-.71.74-.37 0-.76-.32-.76-.74v-1.82c0-.34.1-.64.22-.88.11-.23.25-.45.36-.61.11-.19.07-.38-.03-.55C6.28 7.95 6 7.6 6 6.85 6 5.52 7.14 5 8.28 5Z"/><path fill-rule="evenodd" d="M9 14.65a5.65 5.65 0 1 0 0-11.3 5.65 5.65 0 0 0 0 11.3ZM9 15A6 6 0 1 0 9 3a6 6 0 0 0 0 12Z"/><defs><linearGradient id="atplafokq" x1="16.07" y1="3.38" x2=".8" y2="13.98" gradientUnits="userSpaceOnUse"><stop offset=".1" stop-color="#EA5B18"/><stop offset=".48" stop-color="#FFFDFD"/><stop offset=".87" stop-color="#E9550F"/></linearGradient></defs></svg>