<!-- by TradingView --><svg width="18" height="18" viewBox="0 0 18 18" xmlns="http://www.w3.org/2000/svg"><path fill="url(#aj2wktmqp)" d="M0 0h18v18H0z"/><path d="M7.05 4H6l2.2 3.57a.96.96 0 0 0 1.6 0L12 4h-1.05L9 7.14H9L7.05 4ZM5 13.12l.81.88 2.07-3.66C8.22 9.74 7.8 9 7.13 9H3l.5 1 3.5.01c-1.55 2.43-1.57 2.48-2 3.11ZM13 13.12l-.81.88-2.07-3.66c-.34-.6.08-1.34.75-1.34H15l-.5 1-3.5.01c1.55 2.43 1.57 2.48 2 3.11Z" fill="#FFFCFF"/><defs><linearGradient id="aj2wktmqp" x1="2.25" y1="2.89" x2="15.43" y2="15.43" gradientUnits="userSpaceOnUse"><stop stop-color="#27DFFE"/><stop offset=".25" stop-color="#997FFE"/><stop offset=".64" stop-color="#EC39F4"/><stop offset="1" stop-color="#FF488A"/></linearGradient></defs></svg>