<!-- by TradingView --><svg width="18" height="18" viewBox="0 0 18 18" xmlns="http://www.w3.org/2000/svg"><path fill="url(#a1rlvhpri)" d="M0 0h18v18H0z"/><path fill-rule="evenodd" d="m4.34 4 3.14 1.26h3.04L13.66 4l-.73 4.7.72 2.4-.29.14c-.55.27-1.33.81-2.1 1.46-.78.64-1.52 1.36-2 1.96L9 15l-.27-.34c-.47-.6-1.2-1.32-1.98-1.96a11.77 11.77 0 0 0-2.11-1.46l-.29-.13.72-2.41L4.34 4Zm1.25 5.35-.36 1.3 2.4.67-2.04-1.97Zm4.79 1.97 2.4-.68-.37-1.3-2.03 1.98Zm2-3.52.4-2.65-1.66.67 1.25 1.98ZM10.4 6H7.6L6.08 8.25h5.84L10.4 6Zm1.23 3H6.37L9 11.6 11.63 9Zm-6-1.2-.4-2.65 1.65.67L5.63 7.8Zm5.45 4.1L9 12.49l-2.08-.6A18.23 18.23 0 0 1 9 13.86a16.31 16.31 0 0 1 2.08-1.95Z" fill="#fff"/><path d="M7.95 13.23 9 12.1l1.05 1.13L9 14.42l-1.05-1.2Z" fill="#fff"/><defs><linearGradient id="a1rlvhpri" x1="3.35" y1="3.12" x2="21.9" y2="24.43" gradientUnits="userSpaceOnUse"><stop stop-color="#1A1E21"/><stop offset="1" stop-color="#06060A"/></linearGradient></defs></svg>