<!-- by TradingView --><svg width="18" height="18" viewBox="0 0 18 18" xmlns="http://www.w3.org/2000/svg"><path fill="#73F" d="M0 0h18v18H0z"/><path d="M6.66 5.86a.1.1 0 0 0 .13.07l4.65-1.26c.1-.03.1-.2-.02-.2L6.32 4c-.07 0-.13.06-.11.13l.45 1.73ZM6.86 9 6.2 6.45l-.1-.34-.36-1.36a.1.1 0 0 0-.2 0L4.5 9.59a.1.1 0 0 0 .13.13l2.16-.59c.05 0 .09-.06.07-.12Zm5.6-4.03c.14-.04.3.03.37.16l1.16 1.91a.1.1 0 0 1-.06.15L7.58 8.91a.1.1 0 0 1-.12-.07l-.6-2.24a.1.1 0 0 1 .07-.13l5.52-1.5ZM7.04 9.7a.1.1 0 0 0-.13-.07l-2.16.59c-.08.01-.1.11-.05.16l3.26 3.55c.07.07.2 0 .17-.1L7.04 9.7Zm.66-.29 6.05-1.64a.1.1 0 0 1 .1.17l-4.88 6.01c-.05.07-.16.04-.18-.04L7.64 9.55a.1.1 0 0 1 .07-.13Z" fill="#fff"/></svg>