<!-- by TradingView --><svg width="18" height="18" viewBox="0 0 18 18" xmlns="http://www.w3.org/2000/svg"><path fill="#F0F3FA" d="M0 0h18v18H0z"/><path d="M7.76 6.92C6.46 9.05 5.65 12 5.34 13c-.18-1.89.75-4.46 1.43-5.99-.31.02-1.84.18-2.77 1.19 0 0 .36-1.66 3.25-2.15v-.02c2.27-3.5 3.96-1.41 3.96-1.41-1.03-.18-1.92.36-2.7 1.25.38-.02 2.8-.05 3.49 1.97 0 0-1.4-1.06-4.24-.92ZM9.4 9.35a.98.98 0 0 0-.73.33 1.12 1.12 0 0 0-.31.78c0 .62.46 1.11 1.05 1.11a.98.98 0 0 0 .73-.32 1.12 1.12 0 0 0 .3-.79c0-.6-.46-1.1-1.04-1.1Z" fill="#203259"/></svg>