<!-- by TradingView --><svg width="18" height="18" viewBox="0 0 18 18" xmlns="http://www.w3.org/2000/svg"><path fill="url(#ahsto31ky)" d="M0 0h18v18H0z"/><path d="m7.1 4.13 1.82-1.1a.16.16 0 0 1 .17 0l4.82 2.9c.05.03.09.09.09.15v2c0 .06-.03.12-.08.15l-1.7 1.2c-.1.07-.22-.02-.22-.15v-1.8c0-.06-.07-.12-.12-.15L7.1 4.43a.18.18 0 0 1 0-.3ZM5.77 13.13l-1.69-1.06a.18.18 0 0 1-.08-.15v-5.8c0-.07.03-.13.08-.16l1.66-1a.16.16 0 0 1 .17 0l1.82 1.1c.12.06.12.23 0 .3l-1.62.86c-.05.03-.1.09-.1.15v5.6c0 .14-.12.23-.24.16ZM14 9.72v2.2c0 .06-.03.12-.09.15l-4.84 2.9a.17.17 0 0 1-.17 0l-1.81-.99a.18.18 0 0 1-.09-.15v-2.2c0-.14.14-.22.26-.15l1.64.89c.05.03.12.03.17 0l4.67-2.8c.12-.08.26.01.26.15Z" fill="#B4F9B9"/><defs><linearGradient id="ahsto31ky" x1="3.35" y1="3.12" x2="21.9" y2="24.43" gradientUnits="userSpaceOnUse"><stop stop-color="#1A1E21"/><stop offset="1" stop-color="#06060A"/></linearGradient></defs></svg>