<!-- by TradingView --><svg width="18" height="18" viewBox="0 0 18 18" xmlns="http://www.w3.org/2000/svg"><path fill="url(#aditjdnld)" d="M0 0h18v18H0z"/><path d="M5 8H4V7h1c0-.02 0 .02 0 0v-.9c0-.98.62-1.81 1.47-2.01.36-.09 1-.1 1.37-.07.37.03.74.11 1.1.24L9 4.3l-.24.94c-.44-.2-1.04-.28-1.59-.2C6.63 5.13 6 5.42 6 6.1V7h2v1H6v4H5V8Z" fill="#fff"/><path d="M12.25 9.5 13 8h-1l-.5 1-.5-1h-1l.79 1.5L10 11h1l.5-1 .5 1h1l-.75-1.5Zm-2.47 2.11c-.16.13-.54.27-.7.39a3.43 3.43 0 0 1 0-5c.16.12.53.26.7.39C9.16 8.09 9 8.6 9 9.5c0 .7.3 1.58.78 2.11Zm3.45 0c.16.13.53.27.69.39a3.43 3.43 0 0 0 0-5c-.16.12-.53.26-.7.39.63.7.78 1.2.78 2.11 0 .73-.3 1.58-.77 2.11Z" fill="#F7D509"/><defs><linearGradient id="aditjdnld" x1="3.35" y1="3.12" x2="21.9" y2="24.43" gradientUnits="userSpaceOnUse"><stop stop-color="#1A1E21"/><stop offset="1" stop-color="#06060A"/></linearGradient></defs></svg>