<!-- by TradingView --><svg width="18" height="18" viewBox="0 0 18 18" xmlns="http://www.w3.org/2000/svg"><path fill="url(#ajnt5jw4u)" d="M0 0h18v18H0z"/><path d="M3.95 6C3.42 6 3 6.5 3 7.13v3.75c0 .62.42 1.12.95 1.12h4.1c.53 0 .95-.5.95-1.13v-1.5c0-.62-.42-1-.95-1H5v1.26h2.42V10H4.58V8H9V6H3.95Z" fill="#72F34B"/><path fill-rule="evenodd" d="M11 7.6h3.6V6.4h-4.02c-.24 0-.55.26-.55.72v4.48H11V10h3.6V9H11V7.6Zm3.89.38A.2.2 0 0 0 15 7.8V6.2a.2.2 0 0 0-.2-.2h-4.22c-.52 0-.95.5-.95 1.13v4.67c0 .11.1.2.2.2h1.37a.2.2 0 0 0 .2-.2v-1.4h3.4a.2.2 0 0 0 .2-.2V8.8a.2.2 0 0 0-.2-.2h-3.4V8h3.4a.2.2 0 0 0 .09-.02Z" fill="#72F34B"/><defs><linearGradient id="ajnt5jw4u" x1="3.35" y1="3.12" x2="21.9" y2="24.43" gradientUnits="userSpaceOnUse"><stop stop-color="#1A1E21"/><stop offset="1" stop-color="#06060A"/></linearGradient></defs></svg>