<!-- by TradingView --><svg width="18" height="18" viewBox="0 0 18 18" xmlns="http://www.w3.org/2000/svg"><path fill="#F0F3FA" d="M0 0h18v18H0z"/><path d="M12.44 4.81c0 .08-.17.29-.3.37-.13.08-.26.16-.4.07A1.46 1.46 0 0 0 11 5c-.19-.14-.23-1.03.06-1 .28.03.7.26 1 .45.3.2.38.29.38.36Zm-1.27 1.52a.5.5 0 1 0 0-1 .5.5 0 0 0 0 1Zm-4.63 4.89c.1-.2.16-.3.24-.32.08-.02.14.02.22.07l.02.02c.1.06.35.2.52.24.17.05.39.08.57-.08.17-.17-.01-.25-.25-.29a1.42 1.42 0 0 1-.65-.3c-.21-.16-.2-.3-.19-.41.02-.12.12-.35.26-.55.13-.21.23-.28.34-.28.11 0 .19.02.3.18.14.16.3.32.55.47.34.2.69.32.93.32.24 0 .39-.06.46-.2.07-.12-.03-.19-.3-.23a2.07 2.07 0 0 1-.84-.3c-.36-.22-.5-.42-.63-.6l-.03-.06a.57.57 0 0 1-.08-.54c.07-.16.23-.49.44-.46.14.02.18.06.29.16l.24.2c.33.27.49.34.89.49l.12.04c.45.18.56.23.77.4.22.17.2.52.13.78a3.38 3.38 0 0 1-2.3 2.2l-.5.14c-.3.07-.5.13-.89.31-.41.2-.76.45-1.12.73l-.43.3c-.55.4-.86.38-1.24.32s-.4-.19-.37-.29c.04-.1.19-.19.7-.5v-.01a4.66 4.66 0 0 0 1.72-1.76l.11-.19Zm3.07-6.46c-.2.25-.28.4-.43.8-.2.51-.37 1.08-.45 1.44-.07.35.08.65.4.86.34.22.71.39 1.21.58.5.2.86.46.97.74.12.28.1.82-.17 1.34-.25.51-.61.99-1.24 1.46s-1.05.58-1.68.73c-.62.15-.41.5-.2.58a4.7 4.7 0 0 0 3.3-.46 4.06 4.06 0 0 0 1.87-1.92c.38-.88.54-2.13.09-2.91l-.25-.4a1.6 1.6 0 0 1-.23-.46.72.72 0 0 1 .13-.7c.06-.08.18-.16.3-.25l.18-.12.3-.2.16-.1c.13-.1.17-.14.09-.2a2.45 2.45 0 0 0-.56-.3c-.3-.1-.36-.12-.47-.13-.12-.01-.26.09-.49.27l-.18.13c-.15.08-.25.15-.26.3v.05a1 1 0 1 1-1.67-.63 1 1 0 0 1 .06-.07c.16-.16.16-.22.16-.29 0-.08-.04-.33-.07-.45-.03-.11-.15-.13-.33-.07-.19.06-.35.13-.54.38Z" fill="#463F5C"/></svg>