<!-- by TradingView --><svg width="18" height="18" viewBox="0 0 18 18" xmlns="http://www.w3.org/2000/svg"><path fill="url(#abbc3twgh)" d="M0 0h18v18H0z"/><path d="M8.2 12c.03-.09.08-.17.13-.25l.23-.39c.1-.14.17-.29.26-.43.1-.14.17-.26.22-.36h2.07c-.3-.6-.64-1.21-1.02-1.83a31.5 31.5 0 0 1-1.07-1.87C8.5 7.71 8 8.57 7.54 9.43c-.46.87-1 1.72-1.52 2.57H4l2-3.52C6.64 7.3 7.32 6.17 8.01 5h1.92c.1.14.2.28.29.44l.58.98.74 1.35.86 1.5.84 1.47.74 1.25-5.8.01Z" fill="#fff"/><defs><linearGradient id="abbc3twgh" x1="3.35" y1="3.12" x2="21.9" y2="24.43" gradientUnits="userSpaceOnUse"><stop stop-color="#1A1E21"/><stop offset="1" stop-color="#06060A"/></linearGradient></defs></svg>