<!-- by TradingView --><svg width="18" height="18" viewBox="0 0 18 18" xmlns="http://www.w3.org/2000/svg"><path fill="#F0F3FA" d="M0 0h18v18H0z"/><path d="m10.18 7.09.14-.44c-.05-.05-.3-.15-.88-.15-.59 0-1.03 1.08-1.18 1.62a8.5 8.5 0 0 0 0 3.38c.12.12.45.25.6.3l1.02-3.54c-.2-.24-.59-.79-.59-1.02 0-.24.6-.2.89-.15ZM8.48 7l-1.24 4.35a3.03 3.03 0 0 0-.6-.14c-.14 0-.58-1.33-.58-2.8C6.06 7.24 6.7 7 7 7h1.47Zm2-.35c.24.1.73.32.73.44l.13 1.75.01.12c-.34-.1-1-.14-.88.33.12.47.64.69.88.74v1.47c0 .1-.06.3-.3.3-.29 0-.58 0-.73-.45a53.7 53.7 0 0 1-.58-2.2l.73-2.5Zm.43 1.17a.15.15 0 1 0 0-.3.15.15 0 0 0 0 .3Z" fill="url(#aqikl2wgw)"/><path d="M12.4 6.65c-.78 0-1.14-.33-1.45-.62-.1-.1-.21-.2-.32-.27-.54-.35-.95-.58-2.5-.58-1.48 0-2.95 1.61-2.95 3.53 0 1.9 1.91 4.11 4.42 4.11 2 0 2.9-1.66 3.09-2.5l-1.33-.26V9.03L12.98 9c.28 0 .55.03.8.07.13.03.23.15.22.3A5 5 0 0 1 4 9c0-2.76 2.06-5 5-5 2.66 0 3.25 1.76 4.05 2.06h.37c-.14.44-.67.59-1.03.59Z" fill="url(#bqikl2wgw)"/><path d="M13.25 6.33a.7.7 0 0 0 .17-.27h-.36a2.35 2.35 0 0 1-.75-.6C11.69 4.86 10.84 4 9 4c-1.2 0-2.26.37-3.08 1 .75-.39 1.82-.7 3.08-.7 1.39 0 1.78.34 3.02 1.42l.22.2c.31.27.66.4 1 .41Z" fill="url(#cqikl2wgw)"/><path d="M11.36 9.3V9h1.62c.28 0 .55.03.8.07.13.03.23.15.22.3-.06.76-.29 1.49-.65 2.12.2-.92.4-1.96.22-2.05-.2-.1-1.42-.14-2.2-.14Z" fill="url(#dqikl2wgw)"/><path d="M6.19 6.12a3.84 3.84 0 0 0-1.01 2.59c0 1.9 1.91 4.11 4.42 4.11.87 0 1.54-.32 2.02-.75-.65.76-1.5 1.05-2.61 1.05-1.62 0-4.13-1.47-4.13-4.12 0-1.35.64-2.3 1.3-2.88Z" fill="url(#eqikl2wgw)"/><path d="M9 4.44c-1.26 0-2.6.35-3.09.59.5-.25 1.33-.74 3.1-.74 2.8 0 2.86 2.03 4.44 1.77-1.8.3-1.65-1.62-4.44-1.62ZM4.74 9c0-1.38.88-2.65 1.47-2.94A4.38 4.38 0 0 0 4.88 9c0 2.26 1.93 3.86 4.13 3.97a4 4 0 0 0 2.35-.59c-.6.6-1.53.74-2.35.74C6.65 13 4.74 11.42 4.74 9ZM13.57 9.44c-.18-.18-.88-.3-1.91-.15.59 0 1.56.1 1.76.3.15.15.15.88 0 1.47.3-.59.4-1.37.15-1.62Z" fill="#F0F3FA"/><defs><linearGradient id="aqikl2wgw" x1="6.65" y1="7.09" x2="10.76" y2="11.79" gradientUnits="userSpaceOnUse"><stop stop-color="#0C91BA"/><stop offset="1" stop-color="#358B8A"/></linearGradient><linearGradient id="bqikl2wgw" x1="5.47" y1="5.32" x2="12.09" y2="12.98" gradientUnits="userSpaceOnUse"><stop stop-color="#036EB8"/><stop offset=".44" stop-color="#219AA5"/><stop offset=".68" stop-color="#217D74"/><stop offset="1" stop-color="#63BBD7"/></linearGradient><linearGradient id="cqikl2wgw" x1="11.21" y1="4.44" x2="6.95" y2="12.53" gradientUnits="userSpaceOnUse"><stop stop-color="#267F77"/><stop offset=".47" stop-color="#6CBCD2"/></linearGradient><linearGradient id="dqikl2wgw" x1="11.21" y1="4.44" x2="6.95" y2="12.53" gradientUnits="userSpaceOnUse"><stop stop-color="#267F77"/><stop offset=".47" stop-color="#6CBCD2"/><stop offset="1" stop-color="#0C91BA"/></linearGradient><linearGradient id="eqikl2wgw" x1="11.21" y1="4.44" x2="6.95" y2="12.53" gradientUnits="userSpaceOnUse"><stop offset=".47" stop-color="#6CBCD2"/><stop offset="1" stop-color="#0C91BA"/></linearGradient></defs></svg>