<!-- by TradingView --><svg xmlns="http://www.w3.org/2000/svg" width="18" height="18"><path fill="url(#adiargipz)" d="M0 0h18v18H0z"/><path d="M12.63 9l1.02 1.43a5 5 0 01-2 2.74 4.87 4.87 0 01-6.26-.69 5.03 5.03 0 012.27-8.31c1.11-.3 2.3-.2 3.34.3A4.5 4.5 0 0113.52 7H11.9c-.6-1.09-1.85-1.43-2.95-1.44a3.3 3.3 0 00-3.4 3.75 3.43 3.43 0 003.4 3.13 3.44 3.44 0 003.22-2l-1.05-1.45 1.05-1.55h1.48L12.63 9zm-2.2 0l1.15 1.56H10.1L8.95 9l1.15-1.56h1.48L10.44 9z" fill="#fff"/><defs><linearGradient id="adiargipz" x1="3.35" y1="3.12" x2="21.9" y2="24.43" gradientUnits="userSpaceOnUse"><stop stop-color="#1A1E21"/><stop offset="1" stop-color="#06060A"/></linearGradient></defs></svg>