<!-- by TradingView --><svg width="18" height="18" viewBox="0 0 18 18" xmlns="http://www.w3.org/2000/svg"><path fill="url(#anqwrksm4)" d="M0 0h18v18H0z"/><path d="M12 9.28v3.6c0 .06-.05.12-.1.12a.1.1 0 0 1-.06-.02l-.91-.53c-.68.4-.9.55-1.67.55C7.01 13 5 11.35 5 8.98c0-.5.1-.98.27-1.45A3.72 3.72 0 0 1 7.4 5.34a5.49 5.49 0 0 1 3.59-.07c.55.19 1.06.5 1.48.92a.13.13 0 0 1 0 .17l-1.55 1.35c-.04.03-.07.05-.1.05-.04 0-.07-.02-.09-.07-.4-.74-1-1.7-1.86-1.69-1.36 0-2 1.82-1.87 2.98.21 1.72 1.37 2.92 3 2.92V9.27l-.23-.8a.1.1 0 0 1 .01-.1.1.1 0 0 1 .1-.05h2.27a.1.1 0 0 1 .1.04.1.1 0 0 1 .01.1l-.26.82Z" fill="#F3F7F8"/><defs><linearGradient id="anqwrksm4" x1="3.35" y1="3.12" x2="21.9" y2="24.43" gradientUnits="userSpaceOnUse"><stop stop-color="#1A1E21"/><stop offset="1" stop-color="#06060A"/></linearGradient></defs></svg>