<!-- by TradingView --><svg width="18" height="18" viewBox="0 0 18 18" xmlns="http://www.w3.org/2000/svg"><path fill="#FE3000" d="M0 0h18v18H0z"/><path d="M4.53 13c-.32 0-.22-.28-.13-.41H4l.53-1.66 1.73-.96-.94-.86a.28.28 0 0 1-.08-.28l.6-2.2a.28.28 0 0 1 .11-.17L8.2 5.04A.26.26 0 0 1 8.33 5h5.12c.2 0 .32.2.25.38l-.12.31h.15c.19 0 .32.19.25.37l-.4 1.15-1.73.96.53.42s.4.27.27.41c.32.11.31.32.27.41l-.77 2.25a.27.27 0 0 1-.12.15L9.9 12.97a.26.26 0 0 1-.12.03H4.53Z"/><path d="M13.12 5.5H8.26L6.3 6.83 5.77 8.7l1.05 1.04h2.23l-.13.48h-2.1l-1.97 1.04-.26.73h4.85l1.97-1L12 9l-1.11-1H8.66l.26-.5h2.1l1.84-1.08.26-.92Z" fill="#fff"/></svg>