<!-- by TradingView --><svg width="18" height="18" viewBox="0 0 18 18" xmlns="http://www.w3.org/2000/svg"><path fill="#F0F3FA" d="M0 0h18v18H0z"/><circle cx="9" cy="9" r="5" fill="#032B5C"/><path fill-rule="evenodd" d="m5.33 8.81.26-.16c.03 0 .1.02.13.11.03.1-.1.13-.16.13a.4.4 0 0 0-.39.03.3.3 0 0 0 .2.2c-.12.04-.17.2-.17.28.18.03.28-.14.3-.23 0 .08-.02.21.06.12l.05-.06c.05-.07.08-.1.1-.08.03.02.07-.02.12-.06.05-.04.1-.08.14-.07.07 0-.02.13-.1.13-.07 0-.04.07-.02.1a.2.2 0 0 0-.2.04c0 .06.06.1.1.11-.07.03-.1.13-.1.18.13.02.22-.05.26-.08 0 .08.04.09.06.08.1-.1.1-.17.09-.23V9.3c.03-.04.06.08.07.15.09-.05.1-.09.1-.12l.04-.07c.07-.06.1.17.05.19-.04 0-.1.07-.11.1 0 .04.07.04.1.04-.03.02-.08.1-.1.13.05.04.11.03.14.02-.04.07.01.13.04.15.15-.07.12-.14.09-.17.05.04.12.02.15 0-.04-.15-.13-.17-.18-.17v-.06c.08.03.2.08.15.02-.06-.07-.06-.11-.06-.13l.06-.08.07.08.11-.16.13.08.06-.17.13.03v-.18l-.13-.16a.89.89 0 0 1 .3-.24c.16-.08.56.08.8.4.18.26.45.6.57.74.05.65-.41 1.42-.58 1.42-.09 0-.28-.1-.46-.19-.16-.08-.3-.15-.37-.16-.1 0-.15.04-.23.22a.36.36 0 0 0-.1-.04c-.11-.02-.3.03-.46.07-.09.02-.17.05-.23.05-.14.02-.4-.08-.52-.14.37.3.74.21.99.15l.1-.03c.07-.01.13 0 .19.02l-.05.1-.03.08-.05.09a.57.57 0 0 0-.33-.13c-.2 0-.3.12-.35.24a1.3 1.3 0 0 1-.4-.28c.17.2.27.28.38.33a.52.52 0 0 0-.02.11c0-.03.02-.07.04-.1.08.03.17.03.31.05H6.68c-.12.13-.24.21-.31.25.19-.01.34-.14.46-.3l.07-.02.22.32.03.06a.75.75 0 0 0-.07.2.8.8 0 0 0-.2-.04c.07.01.13.04.19.08v.11a.9.9 0 0 1 .02-.1 3.84 3.84 0 0 0 .35.24c-.07.04-.11.1-.13.13a.37.37 0 0 1 .17-.1l.04.02.05.18a.99.99 0 0 1 0-.16c.09.05.18.08.29.09.07 0 .15 0 .23-.03l.05.06c.08.1.15.18.37.19.33.02.43-.39.44-.6 0 .18.06.54.34.58.08.01.16 0 .24-.02l.13.02a.8.8 0 0 1-.09-.04c.13-.04.24-.11.34-.18l.07.01.02.01c.1.02.2-.07.25-.12a.53.53 0 0 1-.26.05l.14-.08a.6.6 0 0 1 .23.01v.17c.02-.04.03-.1.03-.16.03 0 .05.02.07.03.08.04.18 0 .22-.02-.06.02-.14 0-.23-.04l-.05-.01-.01-.2a.8.8 0 0 0 .4-.32c.04-.09.13-.2.22-.3a.7.7 0 0 0 .3.1 1.12 1.12 0 0 0 .12.11.6.6 0 0 1-.09-.11c.13 0 .29-.03.45-.11.1-.05.2-.13.3-.23a.99.99 0 0 1-.35.17c-.12-.16-.21-.24-.31-.26-.1-.02-.21.04-.26.07l-.1-.2c.14 0 .2.01.25.03.06.02.14.04.4.04.38 0 .57-.22.61-.33-.13.08-.43.26-.6.26-.18 0-.33-.06-.44-.1a1.48 1.48 0 0 0-.09-.04.42.42 0 0 0-.22 0 1.15 1.15 0 0 0-.34-.17c-.14-.03-.31.08-.49.19l-.1.06c-.16.1-.28.08-.33.06-.27-.32-.32-.58-.38-.86a5.8 5.8 0 0 0-.05-.22c-.09-.36.02-.55.09-.65v-.01c.06-.1.3.03.5.12l.06.04c.13.06.4-.02.63-.08.12-.04.24-.07.33-.08a.9.9 0 0 1 .53.06c.12.05.07.17.02.22.19.13.3.05.34 0-.02.14.1.23.15.26.08-.02.21-.1.12-.19-.09-.1-.04-.23 0-.29l.2-.17c-.05-.02-.15-.08-.15-.15 0-.07.18-.13.26-.16l.1.13.08-.08.2.11c-.02-.12.05-.18.1-.2a.3.3 0 0 1-.18-.31c.01-.2.27-.36.4-.41-.15-.18-.33-.13-.48-.09l-.04.01c-.12.04-.17-.09-.18-.15a.34.34 0 0 0 0-.23c-.04-.12.13 0 .25.11.09.1.33.01.44-.04-.15-.27-.27-.26-.39-.25h-.05c-.14 0-.16-.13-.07-.22a.3.3 0 0 0 .07-.23.93.93 0 0 0-.16.09c-.04.02-.05.06-.06.08-.02.05-.04.08-.13.06-.12-.04-.05-.18 0-.25.22-.02.32-.14.35-.2-.13-.08-.31.04-.4.11l-.05-.22c-.1.07-.08.18-.06.22l-.17-.05c-.07.08-.05.14-.03.16a.52.52 0 0 1-.16-.26c-.03-.13-.01-.12.09-.09l.07.02c.13.04.18-.06.2-.11-.07-.03-.14-.17-.17-.23l-.2.18c-.08.07-.16-.03-.18-.09 0 .05 0 .15-.1.17-.11.03-.07-.22-.03-.34.14 0 .23-.13.25-.2-.12-.05-.26 0-.3.04a.42.42 0 0 1-.26.16c-.12.01-.1-.16-.08-.25.09-.07.1-.2.08-.24l-.2-.03c-.1.1-.18.14-.2.15.03.08.09.27.08.37-.01.1-.11-.01-.16-.08a.14.14 0 0 1-.19 0c-.08-.07.1-.35.19-.48a.67.67 0 0 1-.29.07c-.12 0-.17-.11-.19-.17L10 5.4l-.11.26c.02-.23-.08-.27-.14-.26-.07.1-.02.21 0 .26l-.13-.06-.18.2.11-.3-.2.1-.1-.1a.43.43 0 0 0-.04.3l-.24-.14-.05.24c-.1-.03-.25-.1-.08-.24.17-.13.16-.27.13-.33h-.13v-.08c-.18.13-.26.08-.27.04-.03.07.03.17.06.2l-.2-.09c-.06.2 0 .32.04.36l-.15-.04V5.6l-.15.06-.08-.16-.14.22-.1-.06c.03.06-.08.14-.14.17.03-.04.01-.13 0-.17l-.1.06-.1-.12-.07.06h-.16c.02.1.09.16.12.17l-.06.12-.1.12h-.18c-.01.1.05.2.08.23h-.2c-.04 0-.1-.02-.05-.11s-.02-.17-.07-.2c-.16.13-.12.2-.1.25.02.03.03.05.02.08-.01.08-.14.08-.14 0 0-.07-.1-.13-.15-.16l-.09.03c0-.03-.08-.06-.12-.07v.18c-.02-.02-.08 0-.1.02 0 .06.07.1.1.11a.54.54 0 0 0-.08.12c.01.04.14.03.2.03l-.07.05c.01.03.06.1.17.18.12.08 0 .14-.08.15l-.13-.15c-.06.02-.09.17-.1.24l-.07-.14-.12.16c.03-.17-.1-.29-.16-.33a.3.3 0 0 0 .02.35c-.07 0-.1.1-.11.14.06.06.21.02.28 0-.04.03-.02.16 0 .21l.2-.05c-.02.16-.14.16-.2.13v.18c-.1-.06-.2-.17-.23-.22l-.07-.14-.1.1-.14-.1-.03.1-.18.04.18.16v.13l-.11.09c.02.1.17.19.24.22l-.04.14-.09.05v.08c-.1-.13-.3-.14-.37-.13 0 .07.06.17.1.2l-.2.15c.03.1.33.04.47 0l-.08.24Zm5.74 2.66-.02.01.1-.1c0 .04.03.08.05.12l-.13-.03Zm.67 0c-.13.04-.29.07-.46.04a1.76 1.76 0 0 1-.08-.18c.02-.02.08-.05.23-.05.11 0 .24.1.31.2ZM8.96 8.73l.23-.27a.68.68 0 0 0 .17-.32c-.1-.04-.34-.1-.43-.06-.09.05-.01.45.03.65Zm.2.3c-.04-.1-.06-.33.06-.42.13-.1.23-.26.27-.33-.03.1-.07.3.05.4.13.1.27.12.32.12-.16.08-.53.24-.7.24Zm-.5.24c-.2-.1-.62-.4-.68-.77.12.1.4.29.52.3.13.02.16.32.16.47Zm.92-.1.69-.28.78-.13.21.16c-.17-.01-.51-.03-.47.05.04.1-.05.17-.18.23-.14.07-.34.11-.5 0-.1-.08-.4-.06-.53-.04Zm.69-.28c-.01 0 0 0 0 0Zm-1.84-.57c.11 0 .2.27.23.41-.05-.03-.18-.1-.28-.18-.12-.1-.1-.21.05-.23Zm-.57.29c-.04-.14-.16-.4-.3-.33-.16.08.06.21.3.33Zm2.32-.41c-.13.09-.23.31-.26.41l.35-.15c.17-.07.21-.24.2-.32-.04-.02-.16-.03-.3.06Zm-.1 3.04c.1-.1.34-.32.53-.32.18 0 .27.06.29.08a.61.61 0 0 1-.35.2c-.18.03-.38.04-.46.04Zm.65 0 .27-.14.1.19-.14.1-.23-.15Zm-1.15.67c.08.06.31.18.57.15l.06-.01a.53.53 0 0 0-.27-.26 1.15 1.15 0 0 0-.29-.08l-.07.2Zm1-.54c-.11.13-.41.24-.55.27.14.1.27.29.32.37.24-.1.47-.4.55-.53a.89.89 0 0 1-.33-.11Zm-1.13.7c.06.04.2.14.29.14l-.1.1c-.05 0-.15-.06-.19-.25Zm-2.38-1.03a.26.26 0 0 1 .3-.06c.13.05.39.22.5.3l-.48-.03-.32-.2ZM7 11.5c.05-.04.2-.12.4-.07.01.03 0 .09-.1.1-.1.02-.14.06-.16.08.02 0 .08.02.16 0a.27.27 0 0 0 .1-.07c.04-.03.06-.05.1-.05.06 0 .09.04.1.06-.1.04-.3.16-.34.26-.08-.06-.25-.2-.26-.31Zm1.29.19a.24.24 0 0 0-.2.22v.14c.06-.02.17-.06.2-.14a.43.43 0 0 0 0-.22Zm1.05.97c-.3-.06-.3-.56-.27-.8l.15.27c-.1.31.04.48.12.53Zm.5-.4-.1.14c0 .04.07.06.1.06.03-.03.12-.1.2-.11.1-.03.23-.01.28 0l-.02-.12c-.14.04-.36.04-.46.04Zm-.53-.03c-.02.1 0 .35.18.41a.5.5 0 0 0 .24-.1c-.13-.05-.39-.18-.42-.31Zm-.49-.05c-.08-.07-.07-.17-.05-.21-.09.05-.07.18-.06.28v.1c0 .08-.1.24-.15.31.24-.06.27-.34.26-.48Zm-.63.33a.96.96 0 0 0 .37-.28c.03.06.07.2-.01.3l-.1.13c-.07 0-.21-.01-.26-.15Zm-.31-.14c-.1-.02-.3-.02-.3-.02v-.14c.16.01.5.03.65.02.1-.01.18-.06.22-.1.06-.02.08-.04.06.03-.04.1-.33.24-.47.3a.39.39 0 0 0-.16-.09Zm-.26.05a.52.52 0 0 1 .33.04c-.08 0-.26 0-.33-.04Zm-.4-.43-.08.11.37.25v-.17a.6.6 0 0 1-.3-.2Zm.76.08c-.17.04-.29.02-.32 0 .06-.15.23-.2.31-.2v.2Zm-.29-.44c-.04-.02-.25.15-.35.23.01.1.14.17.2.19l.1-.14c.05-.08.2-.18.27-.22-.06-.06-.29.07-.4.15.08-.06.22-.2.18-.21Zm-.67-.42-.12.18.06.04.22-.11-.16-.11Zm-.78.28c.03-.07.13-.22.27-.2a.7.7 0 0 1 .27.1c-.03.05-.1.14-.19.14s-.27-.02-.35-.04Z" fill="url(#aivazdein)"/><defs><linearGradient id="aivazdein" x1="9" y1="5.25" x2="9" y2="12.75" gradientUnits="userSpaceOnUse"><stop stop-color="#008E30"/><stop offset=".49" stop-color="#67B82C"/><stop offset=".61" stop-color="#F8D90F"/><stop offset=".76" stop-color="#F19B20"/><stop offset="1" stop-color="#C84543"/></linearGradient></defs></svg>