<!-- by TradingView --><svg width="18" height="18" viewBox="0 0 18 18" xmlns="http://www.w3.org/2000/svg"><path fill="#C6C6C6" d="M0 0h18v18H0z"/><path d="M3.53 9a5.47 5.47 0 1 1 10.6 1.9.26.26 0 0 0 .5.18A5.99 5.99 0 0 0 9 3a6 6 0 1 0 2.83 11.3.26.26 0 0 0-.25-.47A5.47 5.47 0 0 1 3.52 9ZM7.8 4.9c.08.01.16.07.2.14.33.64.85 1 1.38 1.18.54.18 1.06.18 1.34.12a.26.26 0 0 1 .31.3L10.8 7.9c.1.78.56 1.58.84 1.96.88.08 1.54.46 1.9.96.39.53.44 1.2.03 1.73a.26.26 0 0 1-.2.1H6.22a.26.26 0 0 1 0-.52h2.4a.78.78 0 0 1-.04-.05l-.52-.67H5.22a.26.26 0 1 1 0-.52h2.44l-.54-.71H4.48a.26.26 0 0 1 0-.53h2.23l-.56-.73H4.07a.26.26 0 1 1 0-.52h1.68l-.42-.55a.26.26 0 0 1 .01-.33l2.23-2.53c.05-.07.14-.1.23-.09Zm2.5 7.23h2.92c.16-.3.13-.66-.11-1-.26-.35-.76-.67-1.49-.74l-.1.13a.26.26 0 1 1-.42-.31l.07-.1a5.1 5.1 0 0 1-.9-2.27l.18-.94c-.36.01-.8-.03-1.24-.19a2.93 2.93 0 0 1-1.49-1.1L5.88 7.7 9 11.75c.05.08.2.18.45.25a3 3 0 0 0 .84.12Zm-2.16-4.9a.26.26 0 0 1 .36.06l.83 1.24a.26.26 0 0 1-.2.4l-.25.04.55.8a.26.26 0 0 1-.43.3L8.2 8.9a.26.26 0 0 1 .18-.41l.27-.03-.59-.87a.26.26 0 0 1 .08-.37Z"/></svg>