<!-- by TradingView --><svg width="18" height="18" xmlns="http://www.w3.org/2000/svg"><path fill="#24DDF9" d="M0 0h18v18H0z"/><path d="M10.536 4C8.776 4 7.188 5.259 7 7c-1.742.188-3 1.776-3 3.535.001 1.887 1.578 3.464 3.465 3.465 1.759 0 3.353-1.259 3.535-3 1.742-.188 3-1.776 3-3.535-.001-1.887-1.578-3.464-3.464-3.465zM13 8c-.172 1.132-.865 1.827-2 2V8h2zm-8 2c.17-1.138.862-1.826 2-2v2H5zm5 1c-.19 1.294-1.23 2.001-2.535 2-1.315.001-2.274-.703-2.465-2h5zm0-3v2H8V8h2zm3-1H8c.192-1.299 1.222-2.001 2.536-2 1.312-.001 2.273.701 2.464 2z" fill="#fff"/></svg>