<!-- by TradingView --><svg width="18" height="18" viewBox="0 0 18 18" xmlns="http://www.w3.org/2000/svg"><path fill="#4393EA" d="M0 0h18v18H0z"/><path fill-rule="evenodd" d="M9 4 6.42 7.22l-.1.11C5.8 8 5.28 8.64 5.1 9.48c-.07.3-.1.61-.09.92.07 1.87 1.6 3.6 4.02 3.6 2.8 0 4.38-2.35 3.9-4.52a5.36 5.36 0 0 0-1.34-2.26L9 4Zm2.7 3.81c-.84-1.19-2.57-3.18-2.57-3.18-.27.54-.85 1.63-1.44 2.54a10.4 10.4 0 0 1-1.3 1.56c-.87.92-1.52 1.59-.95 2.93a3.37 3.37 0 0 0 4.53 1.75c2.04-.94 2.97-3.83 1.73-5.6Z" fill="#fff"/><path opacity=".4" d="m11.68 11.79.08-.61a2.9 2.9 0 0 1-2.53 1.42c-2.12.02-3.12-2.01-2.05-3.53a9.74 9.74 0 0 1 2.37-2.18L8.6 5.63c-.26.48-.59 1.04-.9 1.54a10.4 10.4 0 0 1-1.31 1.56c-.28.3-.53.56-.73.82a3.88 3.88 0 0 0-.22 2.1v.01a3.37 3.37 0 0 0 4.53 1.75 3.9 3.9 0 0 0 1.71-1.62Z" fill="#fff"/></svg>