<!-- by TradingView --><svg width="18" height="18" viewBox="0 0 18 18" xmlns="http://www.w3.org/2000/svg"><path fill="url(#auikbmsx5)" d="M0 0h18v18H0z"/><path fill-rule="evenodd" d="M8.74 3.07a.5.5 0 0 1 .52 0l4.5 2.74c.15.09.24.26.24.44v5.5c0 .18-.1.35-.25.44l-4.49 2.74a.5.5 0 0 1-.52 0l-4.5-2.74a.52.52 0 0 1-.24-.44v-5.5c0-.18.1-.35.25-.44l4.49-2.74Zm.02.5a.45.45 0 0 1 .48 0l4.04 2.5c.13.09.22.24.22.41v5.04c0 .17-.09.32-.22.4l-2.15 1.34-.1-2.88.48-1.3v-.04l.04-.15c.06-.29.14-.62.14-.94 0-.2-.05-.83-.07-1.1v-.07l-.03-.06c-.05-.12-.14-.3-.27-.45-.1-.13-.33-.36-.65-.36a1 1 0 0 0-.13.01.8.8 0 0 0-.66-.33c-.07 0-.14 0-.2.02a.86.86 0 0 0-.57-.36.86.86 0 0 0-.52.06.9.9 0 0 0-.41-.16h-.05c-.28 0-.51.08-.67.26-.12.13-.19.3-.23.46-.17.03-.37.08-.54.18-.31.17-.4.52-.43.71-.03.22-.02.45 0 .6l.16 1.38 1.17 1.58-.25 3.23-2.62-1.62a.48.48 0 0 1-.22-.41V6.48c0-.17.08-.32.22-.4l4.04-2.51ZM7.55 13.68l1.21.75c.15.1.33.1.48 0l1.68-1.04-.1-3.05.48-1.33V9l.04-.17c.07-.29.13-.59.13-.88 0-.2-.05-.8-.07-1.08v-.04l-.01-.03a1.6 1.6 0 0 0-.23-.39c-.1-.12-.27-.28-.5-.28a.71.71 0 0 0-.23.04.58.58 0 0 0-.56-.36.8.8 0 0 0-.3.05.64.64 0 0 0-.5-.4.61.61 0 0 0-.5.12.67.67 0 0 0-.41-.21h-.02c-.5 0-.66.27-.72.7-.19.01-.43.05-.63.17-.22.12-.29.37-.32.56-.03.2-.02.4 0 .53l.15 1.33 1.2 1.6-.27 3.42Z" fill="#62C6BA"/><path opacity=".7" d="m8.03 10.19-.31 3.94 1.31.72 1.68-1.06-.1-3.48.48-1.36c.06-.25.17-.8.17-1 0-.18-.05-.79-.07-1.06-.07-.18-.28-.54-.52-.54s-.32.13-.33.19l-.06-.06c0-.23-.13-.46-.4-.46a.54.54 0 0 0-.41.18l-.06-.06c0-.13-.06-.4-.37-.46-.32-.05-.44.16-.46.28H8.5a.42.42 0 0 0-.37-.37c-.34 0-.45.16-.46.24l-.07.46c-.13 0-.46 0-.7.14-.25.14-.25.64-.22.88l.15 1.26 1.2 1.62Z" fill="#62C6BA"/><defs><linearGradient id="auikbmsx5" x1="9" y1="0" x2="9" y2="18" gradientUnits="userSpaceOnUse"><stop stop-color="#236659"/><stop offset="1" stop-color="#111316"/></linearGradient></defs></svg>