<!-- by TradingView --><svg width="18" height="18" xmlns="http://www.w3.org/2000/svg"><path fill="url(#paint0_linear)" d="M0 0h18v18H0z"/><path d="M11.707 4H6.306c-.253 0-.4.107-.465.213L3.065 8.765a.45.45 0 00-.027.413l.667 1.091c.586-.956 1.83-2.999 1.896-3.122.067-.122.225-.15.296-.146 1.276-.001 3.82-.003 4.01 0a.46.46 0 01.352.167c.664 1.078 2.119 3.326 2.187 3.459a.38.38 0 010 .328l-1.84 3.04c.296.004.863.009 1.122 0a.667.667 0 00.502-.28c.832-1.357 2.535-4.14 2.686-4.405a.58.58 0 000-.603c-.838-1.38-2.546-4.195-2.68-4.418-.132-.224-.408-.286-.53-.289z" fill="#fff"/><path d="M5.91 8.12l-1.74 2.753c-.07.112-.045.18-.016.228l.495.745c.273-.435 1.108-1.59 1.173-1.691.066-.101.172-.159.217-.155.705 0 1.892.002 2.034 0 .143-.002.235.115.26.156.356.567 1.21 2.09 1.274 2.182.064.092.027.215 0 .265L8.712 14h.86c.143 0 .24-.051.282-.118.549-.868 1.664-2.633 1.733-2.753a.251.251 0 000-.268c-.521-.82-1.587-2.501-1.683-2.663-.096-.161-.238-.2-.297-.198H6.155c-.14 0-.221.08-.244.12z" fill="#fff"/><path d="M7.836 11h-1.62c-.113 0-.165.047-.19.087-.259.416-.775 1.239-.827 1.308-.052.068-.033.15 0 .205.206.34.646 1.061.76 1.21a.525.525 0 00.384.188c.454.002 1.386.004 1.482 0a.27.27 0 00.192-.105c.256-.407.778-1.238.82-1.31a.187.187 0 000-.179c-.25-.395-.762-1.208-.817-1.297A.22.22 0 007.836 11z" fill="#fff"/><defs><linearGradient id="paint0_linear" x1="13.634" y1="1.43" x2="4.672" y2="16.548" gradientUnits="userSpaceOnUse"><stop stop-color="#F0F"/><stop offset="1" stop-color="#FFD900"/></linearGradient></defs></svg>