<!-- by TradingView --><svg width="18" height="18" xmlns="http://www.w3.org/2000/svg"><path fill="url(#paint0_linear)" d="M0 0h18v18H0z"/><path d="M13.36 7l-.78-1.41h1.51a.14.14 0 01.109.06C14.223 5.688 15 7 15 7h-1.64zm-2.791 7.937c-.037.063-.084.063-.1.063H8.926l2.633-4.492c.04-.068.074-.257.032-.325-.041-.067-.112-.183-.23-.183H6.964l-.681-1h5.892a.399.399 0 00.123-.015c.029-.013.054-.044.079-.089l.982-1.396h1.623l-4.413 7.437zm-2.042-.156l-.194-.305-.601-.949c-.012-.018-.018-.063.007-.107.058-.099 1.473-2.455 1.738-2.912h1.584l-2.534 4.273zm-2.554-2.67l-.78-1.404.78-1.324.738 1.324-.738 1.405zm-1.205.3l-.858-.001a.142.142 0 01-.109-.06L3 11h1.64l.78 1.41h-.652zM7.43 3.062C7.468 3 7.515 3 7.531 3h1.55L6.675 7.121c-.041.072-.067.208-.013.291.028.044.103.088.133.088h4.153c.106.175.81 1.072.81 1.072H5.973c.003 0-.002 0 0 0-.08.002-.166.103-.207.176L4.637 10.5H3.019c.706-1.214 4.365-7.356 4.412-7.437zm2.046.161l.144.227c.252.4.61.963.647 1.022.012.018.018.063-.008.107L8.895 7H7.312l2.165-3.776zm2.698 2.651l.701 1.309-.701 1.148-.732-1.148.732-1.309z" fill="#fff"/><defs><linearGradient id="paint0_linear" x1="3.349" y1="3.122" x2="21.904" y2="24.434" gradientUnits="userSpaceOnUse"><stop stop-color="#1A1E21"/><stop offset="1" stop-color="#06060A"/></linearGradient></defs></svg>