<!-- by TradingView --><svg width="18" height="18" xmlns="http://www.w3.org/2000/svg"><path fill="url(#paint0_linear)" d="M0 0h18v18H0z"/><path d="M10 6.385c0-1.579-.817-2.937-1.438-3.38-.002 0-.047-.025-.043.038l-.001.002c-.052 3.05-1.705 3.876-2.615 4.99-2.097 2.569-.146 5.386 1.84 5.907 1.112.29-.256-.516-.433-2.22C7.097 9.662 10 8.09 10 6.385z" fill="#E6EEFA"/><path d="M11.49 7.35c-.014-.009-.033-.014-.046.005-.037.389-.479 1.219-1.039 1.981-1.9 2.587-.817 3.834-.208 4.503.353.389 0 0 .884-.397.069-.031 1.724-.864 1.903-2.76.173-1.838-1.057-2.996-1.494-3.332z" fill="#2EA7DF"/><defs><linearGradient id="paint0_linear" x1="3.349" y1="3.122" x2="21.904" y2="24.434" gradientUnits="userSpaceOnUse"><stop stop-color="#1A1E21"/><stop offset="1" stop-color="#06060A"/></linearGradient></defs></svg>