<!-- by TradingView --><svg xmlns="http://www.w3.org/2000/svg" width="18" height="18"><path fill="url(#aeavbfqis)" d="M0 0h18v18H0z"/><path d="M4 9c0-2.92 2.08-5 5-5s5 2.08 5 5-2.08 5-5 5a4.8 4.8 0 01-5-5zm5-6a6 6 0 100 12A6 6 0 009 3zm.18 4.57c-.4.1-.96.43-1.18.75V6H7v3.72h-.5v.9H9v-.9h-.66v-.28c0-.56.43-1.1 1.01-1.12.8-.02 1.08.42 1.15 1.12V12h1V9.15c0-1.08-.8-1.66-1.86-1.63-.19 0-.31.02-.46.05zM6.5 12H9v-.97H6.5V12z" fill="#fff"/><defs><linearGradient id="aeavbfqis" x1="3.35" y1="3.12" x2="21.9" y2="24.43" gradientUnits="userSpaceOnUse"><stop stop-color="#1A1E21"/><stop offset="1" stop-color="#06060A"/></linearGradient></defs></svg>