<!-- by TradingView --><svg width="18" height="18" viewBox="0 0 18 18" xmlns="http://www.w3.org/2000/svg"><path fill="url(#ackug4uay)" d="M0 0h18v18H0z"/><path d="M9.21 9.36a.92.92 0 0 1-.46-.1l.46.02c.19 0 .5-.13.62-.2-.1.09-.36.28-.62.28Z" fill="#fff"/><path fill-rule="evenodd" d="M14 6 9 3 4 6v6l5 3 5-3V6Zm-1.25.34-3.44-2v3.1c-.17-.06-.43-.15-.62-.1v-3l-3.44 2 2.66 1.5c-.23.2-.39.36-.47.67L5 7v4l2.39-1.45c.06.32.14.4.36.62l-2.5 1.5 3.44 2v-3c.12.03.12 0 .25 0 .18 0 .21.06.37 0v3l3.44-2-2.53-1.5c.2-.23.3-.42.34-.74L13 11v-4l-2.44 1.5c-.07-.31-.25-.46-.47-.67l2.66-1.5Z" fill="#76928C"/><path d="M10 9.18a1.82 1.82 0 0 1-2.24-.13l-.01.11c.25.15.7.38.94.38.2 0 .34 0 .46-.02l.2-.01c-.52.3-1.26-.04-1.6-.25.05.6.59 1.08 1.25 1.08.69 0 1.25-.52 1.25-1.17l-.01-.16c-.17.44-.73.6-1 .62l.16-.07a1.83 1.83 0 0 0 .6-.38Z" fill="#fff"/><path d="M8.49 7.33c-.07-.12-.07-.5.4-1.16.25-.39.3-.8.3-1.17l.04.11c.1.24.17.4.17.64s-.07.51-.13.77c-.01.07-.2.8-.05.81 0-.06.05-.24.18-.38.08-.08.19-.15.3-.23.12-.08.25-.17.36-.29.17-.17.23-.26.22-.28.03.04.06.11.05.22 0 .1-.07.25-.2.41-.3.4-.35.56-.33.7.04-.13.32-.44 1.11-.6.45-.1.78-.37 1.02-.63l-.04.12c-.1.23-.16.4-.32.57-.16.17-.4.33-.62.47l-.01.01c-.22.15-.43.28-.58.5.06-.04.2-.11.39-.11.11 0 .24.03.37.05.14.04.3.07.46.07.24 0 .32-.04.33-.06-.01.1-.14.3-.54.35-.49.06-.64.13-.72.24.12-.06.53-.07 1.19.4.38.25.8.3 1.16.3l-.11.05c-.24.1-.4.17-.63.17-.25 0-.52-.07-.78-.13-.29-.07-.53-.14-.7-.1a.23.23 0 0 0-.11.1c.08.02.2.07.31.18.08.08.16.19.23.3.09.12.17.25.29.36.18.17.26.2.28.19-.07.06-.31.12-.63-.12-.04-.03-.6-.46-.68-.32.13.05.42.33.58 1.1.1.45.35.81.62 1.06l-.12-.04a1.5 1.5 0 0 1-.54-.35c-.18-.17-.34-.4-.48-.62a1.97 1.97 0 0 0-.47-.56c.04.07.07.18.07.3 0 .13-.02.25-.05.38-.03.15-.06.3-.06.46 0 .24.03.33.05.34-.1-.02-.3-.15-.35-.54-.06-.48-.12-.64-.22-.72h-.01c.06.13.05.53-.4 1.18-.25.39-.3.8-.3 1.17l-.05-.11c-.1-.24-.17-.4-.17-.64s.07-.51.13-.77c.06-.3.13-.57.08-.74v-.02c0-.01 0-.03-.03-.03a.72.72 0 0 1-.18.36 1.8 1.8 0 0 1-.3.23c-.12.08-.25.17-.36.29-.17.17-.2.26-.19.28-.06-.08-.12-.32.12-.63.3-.4.35-.56.33-.7-.04.13-.32.44-1.11.6-.45.1-.81.28-1.06.55l.05-.12c.09-.24.19-.32.35-.49.16-.17.4-.33.62-.47.24-.16.43-.32.61-.54-.07.05-.2.1-.38.1-.11 0-.24-.02-.37-.05-.14-.03-.3-.06-.46-.06-.24 0-.32.04-.33.06.01-.1.14-.3.54-.36.49-.06.62-.12.7-.23-.12.06-.5.06-1.17-.4-.38-.25-.8-.3-1.16-.3l.11-.05c.24-.1.4-.17.63-.17.25 0 .52.07.78.13.29.06.56.13.73.08.04 0 .04-.03.06-.04a1.77 1.77 0 0 1-.32-.2c-.08-.07-.16-.18-.23-.29a2.14 2.14 0 0 0-.29-.36c-.18-.17-.26-.2-.28-.19.07-.06.31-.12.63.12.4.3.55.35.69.32-.13-.03-.43-.31-.59-1.1-.1-.45-.32-.81-.59-1.06l.12.04c.24.1.35.2.51.35.18.17.34.4.48.62.16.25.31.47.47.56a.74.74 0 0 1-.07-.3c0-.13.02-.25.05-.38.03-.15.07-.3.07-.46 0-.25-.04-.33-.06-.34.1.02.3.15.35.54.06.5.12.62.24.7Zm.47 3.3a1.58 1.58 0 0 0 0-3.17c-.87 0-1.6.7-1.6 1.58 0 .87.73 1.58 1.6 1.58Z" fill="#fff"/><defs><linearGradient id="ackug4uay" x1="2.81" y1="1.91" x2="15.13" y2="15.9" gradientUnits="userSpaceOnUse"><stop stop-color="#1D3835"/><stop offset="1" stop-color="#118065"/></linearGradient></defs></svg>