<!-- by TradingView --><svg xmlns="http://www.w3.org/2000/svg" width="18" height="18"><path fill="#F0F3FA" d="M0 0h18v18H0z"/><path d="M6.56 13.77l.47-.13a.4.4 0 01.02.08l-.48.09-.01-.04z" fill="#414141"/><path d="M14.8 9.6l.07-.72c.04-.44-.34-.52-.34-.52l-.13.12c.03-.02.07-.04.09.06.02.15-.17.56-.17.56l-.06-.55-.12.15c.02.7-.47 1-.59 1.18-.11.18-.12.42-.12.42s-.04.69-.25 1.02c-.2.32-.35.34-.69.43-.33.08-.89-.34-.9-.35 0 .01.33.46.78.55.45.1.88-.27 1.07-.58.18-.3.19-.54.19-.54s-.06-.56.07-.82c.13-.25.33-.3.33-.3-.64.95.03 1.63.03 1.63l-.35.57c-.32.5-1 .68-1 .68-1.22.23-1.86-1.25-1.86-1.25l.52.6.17-.18c-.2-.11-.43-1.07-.43-1.07s-.19-.95-.7-1.3c-.28-.19-.73-.16-1.06-.1l.02-.07c.55-.5 2.22-.32 2.58-.23.37.1.95-.08.95-.08l-.09.23c.54-.1 1.22-.72 1.22-.72s.6-.8.52-1.6c-.08-.8-.79-1.3-.79-1.3l.28-.16c-.57-.04-1.08-.78-1.08-.78-.17-.23-.55-.1-.55-.1l-.62-.43c-.38-.25-.64.03-.64.03l.04.17c0-.04 0-.09.1-.05.15.06.42.41.43.42l-.53-.22.07.17c.65.33.68.89.79 1.07.1.18.33.31.33.31s.6.38.79.7c.2.34.14.48.05.8-.1.32-.76.58-.76.58s.57-.04.88-.38c.31-.33.19-.86 0-1.17-.18-.3-.4-.43-.4-.43s-.53-.23-.7-.46c-.17-.24-.11-.43-.11-.43.54 1 1.5.79 1.5.79l.34.57c.3.51.12 1.16.12 1.16-.4 1.14-2.05.94-2.05.94l.8-.14-.08-.23c-.2.1-1.18-.17-1.18-.17s-.96-.32-1.52-.06c-.32.14-.52.53-.62.84l-.06-.06c-.17-.7.82-2 1.08-2.26.27-.26.4-.82.4-.82l.17.19c.17-.5-.05-1.37-.05-1.37s-.42-.9-1.18-1.23c-.77-.33-1.58 0-1.58 0V3c-.32.45-1.25.5-1.25.5-.3.03-.37.4-.37.4l-.69.32c-.42.19-.3.54-.3.54l.18.05c-.03-.01-.07-.05.01-.1.12-.1.6-.15.6-.15l-.48.33.2.02c.62-.37 1.14-.11 1.36-.11.22 0 .44-.12.44-.12s.64-.31 1.04-.31.49.12.74.35c.24.24.14.93.14.93s.25-.5.1-.93c-.14-.42-.69-.59-1.06-.59-.37 0-.59.12-.59.12s-.47.33-.76.36c-.3.02-.45-.12-.45-.12 1.19.05 1.46-.85 1.46-.85h.69c.61 0 1.1.47 1.1.47.84.89-.14 2.15-.16 2.17l.27-.73-.25-.05c0 .22-.74.9-.74.9s-.76.64-.81 1.23c-.03.34.23.7.45.94l-.06.02c-.73-.2-1.4-1.7-1.5-2.04C7.43 6.19 7 5.8 7 5.8l.26-.05C6.9 5.36 6 5.1 6 5.1s-1.02-.11-1.7.35c-.69.47-.8 1.3-.8 1.3l-.3-.15c.24.5-.18 1.29-.18 1.29-.13.25.17.5.17.5l-.07.73c-.04.44.34.52.34.52l.13-.12c-.03.02-.08.04-.1-.06-.01-.15.18-.56.18-.56l.06.55.12-.15c-.02-.7.47-1 .58-1.18.12-.18.12-.42.12-.42s.05-.69.25-1.01c.2-.33.36-.35.7-.43.33-.09.89.33.9.34a1.47 1.47 0 00-.78-.55c-.45-.1-.88.27-1.07.58-.18.3-.19.55-.19.55s.06.55-.07.8c-.13.26-.33.31-.33.31.64-.95-.03-1.63-.03-1.63l.35-.57c.32-.51 1-.68 1-.68 1.22-.23 1.86 1.25 1.86 1.25l-.52-.6-.17.18c.2.11.43 1.07.43 1.07s.19.95.7 1.3c.28.2.74.16 1.07.1l-.02.05c-.53.52-2.23.34-2.6.25-.36-.1-.94.08-.94.08l.09-.23c-.54.1-1.22.72-1.22.72s-.6.8-.52 1.6c.08.8.79 1.3.79 1.3l-.28.16c.57.04 1.08.78 1.08.78.17.23.55.1.55.1l.62.43c.38.25.64-.03.64-.03l-.05-.17c0 .04 0 .09-.1.05a1.78 1.78 0 01-.42-.42l.53.22-.08-.17c-.64-.33-.67-.89-.78-1.07a1.05 1.05 0 00-.33-.31s-.6-.38-.79-.7c-.2-.33-.14-.48-.05-.8.1-.32.76-.58.76-.58s-.57.04-.88.38c-.31.33-.2.86 0 1.17.18.3.4.43.4.43s.53.23.7.46c.17.24.11.43.11.43-.55-1-1.5-.78-1.5-.78l-.34-.58c-.3-.51-.12-1.16-.12-1.16.4-1.14 2.05-.93 2.05-.93l-.8.13.08.23c.2-.1 1.18.17 1.18.17s.96.32 1.52.06c.32-.14.52-.54.62-.84l.05.04c.2.7-.8 2.02-1.07 2.28-.27.26-.4.82-.4.82l-.17-.19c-.17.5.05 1.37.05 1.37s.42.9 1.18 1.23c.77.33 1.58 0 1.58 0V15c.32-.45 1.25-.5 1.25-.5.3-.03.37-.4.37-.4l.69-.32c.42-.19.3-.54.3-.54l-.18-.05c.03.01.07.05-.01.1-.13.1-.6.15-.6.15l.47-.33-.2-.02c-.6.37-1.13.11-1.35.11-.22 0-.44.12-.44.12s-.64.31-1.04.31-.5-.12-.74-.35c-.24-.24-.15-.93-.15-.93s-.24.5-.1.93c.15.42.7.59 1.07.59.37 0 .59-.12.59-.12s.47-.33.76-.36c.3-.02.45.12.45.12-1.19-.05-1.46.85-1.46.85h-.69c-.62 0-1.1-.47-1.1-.47-.84-.89.14-2.15.16-2.17l-.27.73.25.05c0-.22.74-.9.74-.9s.76-.64.81-1.23c.03-.34-.23-.7-.45-.94l.07-.01c.72.2 1.4 1.69 1.49 2.03.1.36.54.75.54.75l-.26.05c.36.39 1.26.65 1.26.65s1.02.11 1.7-.35c.69-.47.8-1.3.8-1.3l.28.15c-.24-.5.18-1.29.18-1.29.13-.25-.18-.5-.18-.5zm-2.16-4.86s.13-.07.16-.03l.13.22s-.14 0-.29-.19zm-5.68-.89s0-.14.05-.14h.27s-.07.12-.32.14zM3.33 8.07s-.12-.07-.1-.11l.14-.23s.07.12-.04.34zm2.02 5.19s-.12.07-.15.03l-.13-.23s.14 0 .28.2zm5.69.89s0 .14-.05.14h-.27s.07-.12.32-.14zm3.73-4.1l-.14.22s-.07-.12.04-.34c0 0 .12.07.1.11z" fill="#414141"/></svg>