<!-- by TradingView --><svg width="18" height="18" viewBox="0 0 18 18" xmlns="http://www.w3.org/2000/svg"><path fill="#F0F3FA" d="M0 0h18v18H0z"/><path d="M7.32 11.67 5.1 4.56c2.26-1.3 3.8-1.33 4.68-1.25.88.08 2.16.82 3.44 1.73 1.02.72 1.4 2.43 1.46 3.2.1.35.08 1.48-.66 3.19-.93 2.13-1.68 1.86-1.84 1.97-.13.08-3.3-1.12-4.87-1.73Z" fill="#F9AED9"/><path d="M6.97 6.4a3.78 3.78 0 0 0-1.56-1.67c-.15.04-.45.11-.53.15-.1.05-.88 1.44-1.27 2.4-.32.77-.37 1.2-.36 1.33l3.72-2.2Z" fill="#F471B7"/><path d="M10.75 12.5c-1.87-.15-3.05-2.16-3.4-3.14.4-1 .81-2.98-.75-2.84a5.38 5.38 0 0 0-3.35 1.92l.41 2.38.92 2.01c.68.5 2.12 1.54 2.45 1.64.4.12 1.1.2 3.09.1 1.58-.1 2.87-1.33 3.32-1.94-.12.02-.82.03-2.7-.13Z" fill="#EE509D"/><path d="M4.5 6.45c-.07.58-.68 1-.97 1.14.3-.65.92-1.96.97-2.01.06-.07.1.15 0 .87Z" fill="#F151AB"/><path d="M5.36 7.09c.5-1.06 1.4-1.19 1.78-1.12l.53 4.13c0 .08-.2 1.08-.3 1.58l-2.31-.77c-.11-.83-.2-2.77.3-3.82Z" fill="#EE297B"/><path d="M10.85 11.27a26.33 26.33 0 0 1 3.7-2.15c.05.24.13.75.12.9-.01.2-.4 1.37-1.17 2.46-.76 1.08-2.11.98-2.28 1.05-.13.06-1.45-.49-2.08-.77.1-.15.58-.65 1.71-1.5Z" fill="#F053A0"/><path d="M7.67 10.6c-.12.08-.34.33-.44.44-.04.1-.12.34-.12.4v.72c0 .1.47.75.54.85.06.1.56.1.77-.22.17-.26.23-.56.24-.69l-.17-.05c-.03-.04-.09-.11-.07-.13l.24-.2c-.28-.4-.87-1.2-.99-1.12Z" fill="#D69FA2"/><path d="M6.68 14.03a6.1 6.1 0 0 1-2.38-2.11l.45-.8c.08-.1.26-.31.38-.43.15-.15.43-.34.96-.23.43.08.75.75.86 1.07l.14.1c.03.25.09.78.14 1.01.05.29.14.39.2.5.03.1.08.13.1.13.02.11.04.19.17.24.1.03.28-.08.35-.14l.2-.24.18-.35.09-.14.09-.27.05-.26.62.31.3.18.3.24.1.18.03.17v.22l-.07.26-.07.3-.12.35a.57.57 0 0 0 0 .2c-.99.02-1.64.12-3.07-.49Z" fill="#51516D"/><path d="M7.16 12.52c.03.02.06.13.08.18a5 5 0 0 0 .28 1.11l.16-.12.31-.25c.02-.02.05.09 0 .12l-.4.35-.03.08c-.01.06.02.11.02.2a.2.2 0 0 1-.06.16l-.12-.04a.75.75 0 0 1-.03-.13l.03-.12.05-.2-.03-.06-.09-.2-.1-.32-.13-.65c0-.03.02-.13.06-.11Z" fill="#F2EDF4"/><path d="M7.12 12.04a1.87 1.87 0 0 1-.01-.5l.17.48s.33.63.52.73c.15.08.49.03.64 0-.08.15-.25.46-.3.5-.03.05-.13.14-.18.18a.33.33 0 0 1-.28.07c-.13-.03-.14-.17-.13-.23l-.03.01c-.03-.03-.1-.1-.11-.13-.03-.03-.11-.29-.13-.3a4.21 4.21 0 0 1-.16-.81ZM7.65 10.61l-.15-.39c.07-.94.4-1.6.56-1.81l1.22-.5.87-.53 1.45 1.16.08.65v.96l-.06.11.13.1-.13.07-.17.14-.08.25-.29.26-.2.21-.2.28-.16.1-.2.1a2.7 2.7 0 0 1-.45.1c-.2.04-.56.06-.72.06H8.8l-.19-.14-.3-.27-.23-.25-.23-.33c-.06-.1-.2-.3-.2-.33Z" fill="#FEF3EF"/><path d="M11.06 10.05a1.2 1.2 0 0 1-.2-.4c.07 0 .25.04.43.22.23.23.03.33 0 .36-.02.02-.1-.02-.23-.18Z" fill="#C78BAB"/><path d="m5.5 9.77-.03-.13.27.04c.12.02.22 0 .38 0a.8.8 0 0 0 .33-.13l-.03.8.02.3-.1-.08-.17-.56.02.47a14.61 14.61 0 0 0-.37-.06l-.12-.23-.2-.42Zm2.16.87-.15-.33-.02.44.17-.11Zm.78 1.28.72.44.38-.28a2.58 2.58 0 0 1-.17.4l-.13.12c.03.02.12.04.29 0 .17-.03.3-.1.34-.12l.5-.34c-.04.07-.14.24-.21.3l-.36.2c.12 0 .41-.06.61-.2.25-.19.4-.3.53-.5.1-.14.17-.3.2-.37l-.16.57.33-.69.49-1.12.05-.17h-.2l-.03.1.1.1-.28.2-.08.27-.42.38c-.05.09-.18.29-.27.36l-.03.03a.8.8 0 0 1-.44.2l-.66.12h-.75l-.2-.13-.15.13Z" fill="#B36491"/><path d="M5.28 10.1c.04.12.13.3.17.37l.11-.03-.04-.35-.04-.35v-.12c.03.02.16.06.45.07.3.01.47-.1.52-.16 0 .3-.02.96 0 1.12.03.2.15.44.16.46l.14.13v-.13c.04.08.13.28.2.38.07.1.33.28.45.36l-.05-.16-.07-.28v-.19l.03-.72.02-.08.09.58.09.24-.02-.56.02-.34.04-.32.16-.66c.03-.13.21-.62.3-.86.12-.02.44-.07.74-.1.37-.03.68-.31.74-.38l.28-.35.22-.34.25-.44.13-.16c-.1.23-.33.75-.4 1-.1.32-.15.97-.15 1.06l.03.26.07-.26c0 .1.04.33.06.43.03.1.13.23.17.28l.02-.12a1 1 0 0 0 .46-.14l-.13.12c.2-.01.43-.21.52-.3-.02.1-.1.25-.15.32.12-.08.36-.27.46-.42.31-.37.43-.78.45-.94l-.02.48c0 .15-.06.55-.1.74v.94h.2l-.3.71-.58 1.28c-.04.06-.14.15-.2.2l-.29.2c.17-.02.33-.12.4-.16l-.08.12-.32.27.43-.15c.2-.08.43-.3.56-.37.14-.07.33-.33.45-.49.1-.12.18-.37.2-.47.01.08.03.28.03.45 0 .17-.06.58-.1.76.06-.19.18-.59.23-.71.05-.13.08-.35.09-.44l.05-.4a76.65 76.65 0 0 1 .21-.78c.04.31.27.93.94.93 1.05 0 1.07-.5 1.07-.74 0-.19-.12-.4-.19-.48a3.78 3.78 0 0 1-.28-.56c-.11-.28-.2-.61-.24-.75l-.31-1.02c-.05-.1-.18-.3-.28-.38-.13-.08-.2-.07-.3-.09a1.1 1.1 0 0 0-.33.03h-.07a3.75 3.75 0 0 0-1.38-1.43l-.61-.28c-.28-.1-.98-.32-1.51-.32-.66 0-1.16.2-1.36.3a6 6 0 0 0-.85.6l-.1.07s-.18.1-.24.16l-.3.26a7.8 7.8 0 0 0-.36.43c-.03.06-.26.45-.3.55a3.3 3.3 0 0 0-.12.34 19.15 19.15 0 0 1-.64.65c-.03.04-.07.17-.09.2a.8.8 0 0 0-.05.22c0 .07.02.15.08.25a1.42 1.42 0 0 0 .3.32l.16.64Z" fill="#FBBDC8"/><path d="M9.1 9.04C9.02 9.07 9 9 9 9a.98.98 0 0 0-.67-.17c-.08.04-.13.17-.27.17-.13 0-.04-.03-.03-.12 0-.1.26-.3.36-.33.1-.04.6.02.66.06.06.04.16.2.18.32.03.11-.05.1-.13.12Z" fill="url(#aclhwouyu)"/><path d="M5.52 9.52c-.28 0-.41-.06-.44-.09.08.1.38.27.9.27.5 0 .85-.46.96-.7l.07-.18.11-.2.5-.9.08-.16.19-.57.06-.34-.02-.45-.02.02c-.56.3-.88.97-.96 1.27-.14.35-.46 1.12-.64 1.42-.22.38-.45.6-.8.6ZM13.08 8.4c0-.35-.2-.7-.3-.82.04.08.1.4.1.96 0 .56-.15 1.32-.23 1.62 0 .06.03.23.11.43.1.25.26.38.53.49.22.09.6.03.78 0-1.2.08-.99-2.25-.99-2.68Z" fill="#9D7691"/><path d="M9.62 7.07a.7.7 0 0 0-.43-.12c.04-.05.13-.17.23-.25.12-.09.29-.2.31-.18.02.02.2.09.27.12l-.38.43Zm.15-.1a.7.7 0 0 1-.05.08c.1-.03.16-.17.18-.23a.47.47 0 0 0-.13.14Zm.16 0a.35.35 0 0 1 .1-.1c.03-.02.04-.02.04 0l-.14.1Zm.7-.1-.04.2.09.02.08-.18-.14-.04Zm.1.66.13.1c.06-.13.2-.43.22-.52l-.16-.12c-.05.16-.16.49-.2.54Zm.72.32a1.22 1.22 0 0 1-.54-.17l.21-.53.2.12-.1.41.16-.4.16.06-.09.5Zm.15-.35.12.04-.12.23V7.5Z" fill="#FCF3EC"/><path d="M8.25 9.07c0 .3.15.46.3.48.42 0 .48-.33.48-.43 0-.1-.02-.26-.15-.32-.1-.04-.36-.07-.48-.08a.54.54 0 0 0-.15.35Z" fill="#411812"/><path d="M8.4 8.73c0 .1.11.16.17.19.13 0 .1-.08.2-.17.08-.09-.38-.14-.38-.02Z" fill="#FFFBFA"/><path d="M8.7 8.95c0 .07.07.08.1.07.02 0 .07-.03.07-.07 0-.06-.06-.1-.08-.1-.02 0-.08 0-.08.1Z" fill="#FFE6E3"/><path d="M8.3 9.3c.02.14.17.22.25.24.16 0 .3-.08.3-.19 0-.1-.05-.14-.13-.16-.08-.01-.2.08-.2.02-.01-.07-.1-.13-.15-.13-.05 0-.1.04-.07.22Z" fill="url(#bclhwouyu)"/><path d="M10.46 9.9c-.15.25-.12.45-.02.54.3.18.52-.08.57-.17.05-.08.12-.23.05-.34a1.52 1.52 0 0 0-.32-.27c-.06.02-.2.1-.28.23Z" fill="#411812"/><path d="M10.73 9.66c-.05.08 0 .2.04.24.1.05.11-.02.22-.06.11-.04-.2-.28-.26-.18Z" fill="#FFFBFA"/><path d="M10.65 9.83c-.05.01-.15.13-.16.15a.31.31 0 0 0-.05.1c-.01.03.03.13.12.25.08.12.1.06.18.03.08-.02.12-.05.15-.14.03-.1.01-.12.01-.16 0-.03-.07-.12-.11-.12-.04.01 0 .1 0 .2s-.05.08-.07.08c-.01 0-.08.03-.1.02-.02-.01-.02-.06-.02-.1v-.1c0-.03.11-.17.12-.21 0-.04-.02-.01-.07 0Z" fill="#72393F"/><path d="M10.37 10.11c-.05.13.03.27.07.32.12.07.27.06.32-.03.06-.1.03-.15-.02-.2-.05-.05-.18-.01-.16-.08.03-.06 0-.14-.04-.16-.04-.03-.1-.01-.17.15Z" fill="url(#cclhwouyu)"/><path d="M8.92 10.83v-.02h.01l.02-.03v-.03h-.07l-.04.02a14.65 14.65 0 0 0-.08.05v.04l.02.02.01.01.02.04.06.08c.02.03.05.05.09.06h.1l.04.03a.3.3 0 0 0 .15.04c.01.05.05.11.12.14.07.03.17.02.3-.08l-.02-.03c-.12.1-.21.1-.27.08a.2.2 0 0 1-.1-.13v-.02h-.02c-.08 0-.12-.02-.14-.03-.02-.01-.02-.03-.02-.03v-.02h-.02a.23.23 0 0 1-.11-.04.12.12 0 0 1-.05-.06.16.16 0 0 1 0-.09Zm.1.21a.22.22 0 0 1-.07-.03.16.16 0 0 1-.06-.08.2.2 0 0 1 0-.11v-.03h.01a3.03 3.03 0 0 1-.11.05.1.1 0 0 1 .03.03l.02.04.06.08.07.05H9Z"/><path d="m9.63 7.85.39-.31.19-.47.16-.34-.19.26-.27.48-.2.29-.08.1Zm2.13.27-.1.24-.07.2.08.67.09-.61.02-.54-.02.04Z" fill="#B18697"/><path d="M8.91 9.83a2.9 2.9 0 0 1-.89-.49c-.35.27-.15.76.12.86.28.1.77-.35.77-.37Z" fill="#F4BEC6"/><path d="M10.55 10.54c-.1-.03-.32.06-.37.09-.18.25.1.47.3.6.2.12.4-.03.46-.13.04-.08.02-.25 0-.32-.1-.07-.3-.2-.4-.24Z" fill="#F4BFC7"/><path d="M9.65 10.06c-.04.1.08.25.12.3.39-.03.24-.14.18-.25-.06-.1-.25-.14-.3-.05Z" fill="#FADCD1"/><path fill-rule="evenodd" d="M6.62 11.35c-.04-.1-.33-.63-.47-.88.26.1.5.31.63.54a5.57 5.57 0 0 1 .29.62h.03c.01.22.06.7.15 1.06l.01.02a1.92 1.92 0 0 0 .2.5l.05.04h.05v.02c0 .04 0 .1.03.14.04.05.09.09.18.08.1 0 .19-.07.28-.15.08-.08.16-.18.2-.25.06-.1.15-.26.23-.44.08-.18.15-.38.16-.53h.03c0 .16-.07.36-.15.54l-.24.45a1.37 1.37 0 0 1-.26.3c-.15.17-.39.35-.49.42l-.01.02-.01-.02a5.46 5.46 0 0 1-.28-1.1 5.84 5.84 0 0 1-.15-.93l-.02.04-.07-.15a.41.41 0 0 1-.05.02 285.42 285.42 0 0 0 .2 1.02 14.34 14.34 0 0 0 .09.41c.05.24.13.51.23.7v.01a.7.7 0 0 1-.05.25.25.25 0 0 0-.02.12l.02.08.1.03a.2.2 0 0 0 .05-.18.47.47 0 0 1 0-.24h.01l.52-.45c.22-.21.42-.58.5-.76h.02l.01.02a2.71 2.71 0 0 1-1.02 1.2.44.44 0 0 0 0 .22c.03.11-.03.2-.06.22h-.01l-.15-.03a.36.36 0 0 1-.02-.11c0-.04 0-.1.02-.14a.67.67 0 0 0 .05-.22c-.1-.2-.18-.48-.24-.71a7.31 7.31 0 0 1-.06-.32l-.02-.1-.01-.07-.2-.94h-.04l-.13-.18a6.28 6.28 0 0 1-1.08 1.88l-.03-.03a6.24 6.24 0 0 0 1.08-1.9c-.03-.05-.07-.1-.08-.14Zm2.3 2.92.26-.83-.1.58.5-.6c-.18.26-.56.8-.58.85-.03.05-.04.22-.04.3l-.08-.03c0-.05 0-.17.04-.27Zm-1.39-.48c-.1-.23-.18-.57-.23-.83.06.13.1.22.14.27l.06.05.02.01c0 .05.01.1.05.15.03.05.1.1.2.09l.12-.03-.36.3Zm-1.17-2.05a.93.93 0 0 1-.68.65c.09.1.3.32.42.26.11-.06.22-.62.26-.9Z" fill="#262837"/><path fill-rule="evenodd" d="M9 15A6 6 0 1 0 9 3a6 6 0 0 0 0 12Zm0-.7A5.3 5.3 0 1 0 9 3.7a5.3 5.3 0 0 0 0 10.6Z" fill="#8F8F8F"/><defs><linearGradient id="aclhwouyu" x1="8.11" y1="8.93" x2="9.08" y2="8.98" gradientUnits="userSpaceOnUse"><stop stop-color="#FADDD9"/><stop offset="1" stop-color="#C487A8"/></linearGradient><linearGradient id="bclhwouyu" x1="8.57" y1="9.08" x2="8.57" y2="9.54" gradientUnits="userSpaceOnUse"><stop stop-color="#CB8D76"/><stop offset="1" stop-color="#EADAB8"/></linearGradient><linearGradient id="cclhwouyu" x1="10.69" y1="10.04" x2="10.46" y2="10.44" gradientUnits="userSpaceOnUse"><stop stop-color="#CB8D76"/><stop offset="1" stop-color="#EADAB8"/></linearGradient></defs></svg>