<!-- by TradingView --><svg xmlns="http://www.w3.org/2000/svg" width="18" height="18" viewBox="0 0 18 18"><path fill="#283791" d="M0 0h18v18H0z"/><path d="M7.38 5.62l-.55-1.13a4.98 4.98 0 0 1 4.34 0l-.55 1.13a3.72 3.72 0 0 0-1-.32v7.4c.38-.07.74-.19 1.08-.35l.05 1.33a4.99 4.99 0 0 1-3.5 0l.05-1.34c.33.17.7.3 1.08.36V5.3c-.36.06-.69.17-1 .32zm.68 2.13v2.5l-.94-1.8-.25 5.08a5 5 0 0 1-1.08-.7l.53-5.9-.8-1.52c.3-.28.62-.53.98-.74l1.56 3.08zm-2.55 2.63a3.74 3.74 0 0 1 .34-3.42L5.24 5.7a4.98 4.98 0 0 0 .19 6.8l.08-2.12zm5.37-1.95l.24 5.1a5 5 0 0 0 1.08-.7l-.52-5.91.8-1.5c-.3-.3-.62-.54-.97-.75L9.94 7.75v2.5l.94-1.82zm1.7 4.07a4.98 4.98 0 0 0 .18-6.8l-.61 1.26a3.73 3.73 0 0 1 .33 3.43l.1 2.11z" fill="#fff"/></svg>