<!-- by TradingView --><svg width="18" height="18" viewBox="0 0 18 18" xmlns="http://www.w3.org/2000/svg"><path fill="#F0F3FA" d="M0 0h18v18H0z"/><path fill="url(#ab0tgnigs)" d="M6.35 6.65h5v4.71h-5z"/><path d="M7 10.13 5 11V7l2 1.22v1.91Z" fill="#B5F759"/><path d="M11 7.87 13 7v4l-2-1.22V7.87Z" fill="#2AB059"/><path d="m11.2 9.88 1.77.73-2.39 2.4-.52-1.98 1.15-1.15Z" fill="#26A379"/><path d="m6.94 8.12-1.9-.86 2.4-2.39.64 2.1-1.14 1.15Z" fill="#D5F77A"/><path d="m7.99 11.2-.77 1.76-2.34-2.45 1.99-.47 1.12 1.17ZM10 6.89l.77-1.75 2.35 2.24-2 .68L10 6.89Z" fill="#60E840"/><path d="m8 7-.5-2h3l-.72 2H8Z" fill="#B5F759"/><path d="m10 11 .5 2h-3l.72-2H10Z" fill="#2AB059"/><path fill-rule="evenodd" d="m10.18 6.65 1.17 1.17L13 7.14l.14.33-1.78.8v1.47l1.77.76-.14.33-1.63-.65-1.17 1.17.73 1.77h-.44l-.73-1.77H8.26l-.73 1.77h-.44l.73-1.77-1.17-1.17-1.55.65-.14-.32 1.69-.77V8.26l-1.7-.8.14-.32 1.56.68 1.17-1.17-.65-1.63.33-.14.76 1.77h1.48l.82-1.75.32.14-.7 1.6ZM7 8l1.41 3H8l-1-1V8Zm2.59 3L7.82 7.24l.3-.15L9.88 11h-.3ZM10 7l1 1v2l-.67.62L8.71 7H10Z" fill="#F0F3FA"/><path fill-rule="evenodd" d="M11.06 4 14 6.94v4.12L11.06 14H6.94L4 11.06V6.94L6.94 4h4.12Zm-.56 1 .5.5V7h1.5l.5.5v3l-.5.5H11v1.5l-.5.5h-3l-.5-.5V11H5.5l-.5-.44V7.5l.5-.5H7V5.5l.5-.5h3Z" fill="url(#bb0tgnigs)"/><defs><linearGradient id="ab0tgnigs" x1="7.68" y1="7.09" x2="10.62" y2="11.06" gradientUnits="userSpaceOnUse"><stop stop-color="#DCFA9C"/><stop offset=".45" stop-color="#81F045"/><stop offset=".95" stop-color="#3FB66B"/></linearGradient><linearGradient id="bb0tgnigs" x1="5.25" y1="5.56" x2="12.44" y2="12.75" gradientUnits="userSpaceOnUse"><stop stop-color="#F0EE8D"/><stop offset="1" stop-color="#F09A4F"/></linearGradient></defs></svg>