<!-- by TradingView --><svg width="18" height="18" xmlns="http://www.w3.org/2000/svg"><path fill="#F0F3FA" d="M0 0h18v18H0z"/><path d="M8.238 7.912L6.617 4 9.21 5.317l-.973 2.595z" fill="#7E4778"/><path d="M8.239 7.912v-2.27l.973-.325-.973 2.595z" fill="#9B1B2E"/><path d="M8.238 5.641L6.617 4 9.21 5.317l-.973.324z" fill="#D3302D"/><path d="M14.887 7.425l-2.756-.324 1.297 2.433 1.46-2.109z" fill="#9B2026"/><path d="M12.13 7.101L9.698 8.236l3.73 1.298L12.13 7.1z" fill="#BD282E"/><path d="M10.805 4.993L9.698 8.236l2.432-1.135-1.325-2.108z" fill="#DD2A2D"/><path d="M13.59 4.506l-1.46 2.595 2.757.324-1.297-2.919z" fill="#BC2328"/><path d="M10.805 4.993L12.13 7.1l1.46-2.595-2.785.487z" fill="#EE4642"/><path d="M10 14.376L8.076 9.21l4.52 1.79L10 14.376z" fill="#D5302D"/><path d="M10 14.403v-3.406h2.595L10 14.403z" fill="#9D1C21"/><path d="M10.01 11L8.076 9.21 12.605 11H10.01z" fill="#BD2C33"/><path d="M5.157 4.344L3.211 6.777l1.946 4.54 3.406 3.244L5.157 4.344z" fill="#797CB3"/><path d="M6.78 9.21l-1.623 2.107 3.406 3.244L6.78 9.209z" fill="#9A1C31"/><path d="M5.157 8.074L3.211 6.777l1.946 4.54L6.78 9.21 5.157 8.074z" fill="#7F4778"/></svg>