<!-- by TradingView --><svg width="18" height="18" xmlns="http://www.w3.org/2000/svg"><path fill="#F0F3FA" d="M0 0h18v18H0z"/><path d="M13.476 11.202l-.095.183a5.002 5.002 0 01-4.56 2.612 4.949 4.949 0 01-2.881-1.041 5 5 0 01-1.486-1.873 1.577 1.577 0 01-.128-.486 1.048 1.048 0 01.032-.412.764.764 0 01.336-.437.8.8 0 01.465-.14.767.767 0 01.439.168c.145.109.252.25.347.404.2.327.425.638.678.926.307.35.65.656 1.044.903.296.186.61.33.943.434a4.564 4.564 0 002.488.046c.271-.067.536-.152.796-.256a5.22 5.22 0 00.893-.454 2.92 2.92 0 00.68-.574l.009-.003zM4.525 6.794c.039-.073.076-.146.116-.218a4.99 4.99 0 014.607-2.57 4.94 4.94 0 012.86 1.074 4.996 4.996 0 011.307 1.57c.097.182.186.367.23.57.038.175.052.35.015.526a.762.762 0 01-.34.496.853.853 0 01-.374.144.707.707 0 01-.46-.106 1.261 1.261 0 01-.414-.435 6.634 6.634 0 00-.85-1.122 4.457 4.457 0 00-1.186-.903 4.021 4.021 0 00-1.025-.363 4.58 4.58 0 00-1.944.014 5.86 5.86 0 00-1.058.335 4.757 4.757 0 00-1.1.63 2.49 2.49 0 00-.368.349l-.01.012a.701.701 0 01-.006-.003z" fill="#4A5EE0"/><path d="M9 6.697a2.3 2.3 0 012.3 2.283c.009 1.287-1.031 2.348-2.298 2.348-1.269 0-2.292-1.055-2.3-2.314A2.302 2.302 0 019 6.697zm1.107 2.304l.011-.015a.808.808 0 00.223-.474.793.793 0 00-.114-.523c-.129-.206-.41-.332-.649-.38-.02-.004-.023-.013-.023-.031.002-.052 0-.162 0-.214 0-.024-.008-.032-.032-.032-.141.001-.355.004-.495.003-.023 0-.029.009-.028.03v.215c0 .024-.008.033-.032.033l-.493-.002c-.023 0-.031-.01-.03-.031l-.001-.216c0-.02-.006-.03-.03-.03h-.495c-.024 0-.032.008-.031.03v.21c.002.028-.008.038-.036.037h-.21c-.017 0-.03-.002-.03.025l-.001.494c0 .03.011.038.04.038.084-.002.119.002.203 0 .027 0 .035.009.035.036v1.592c0 .03-.01.038-.04.037h-.208c-.018 0-.03 0-.03.024 0 .144 0 .36-.002.505 0 .017.006.028.026.027.026-.002.093 0 .12 0h.103c.023 0 .032.013.032.036-.002.044.001.165 0 .21-.001.026.007.032.035.032.138-.002.348-.001.486 0 .025 0 .034-.01.033-.033v-.213c0-.021.006-.032.027-.032h.492c.027 0 .04.01.038.04-.003.046 0 .166-.001.212 0 .019.007.026.026.026h.501c.02 0 .029-.006.028-.027 0-.053.002-.164 0-.216 0-.023.007-.03.028-.036.053-.014.202-.027.252-.047A.82.82 0 0010.107 9z" fill="#4A5EE0"/><path d="M4.269 8.658c-.003-.073-.01-.146-.01-.219a1.963 1.963 0 01.638-1.449 4.389 4.389 0 011.023-.714 4.973 4.973 0 011.044-.385 6.116 6.116 0 011.85-.164c.07.005.138.013.207.02.004 0 .008.002.015.004-.98.082-1.885.38-2.715.9a6.696 6.696 0 00-2.052 2.007zm4.698 3.596a6.05 6.05 0 002.714-.907 6.58 6.58 0 002.047-2.013c.004.05.01.098.012.146a1.962 1.962 0 01-.727 1.61 4.4 4.4 0 01-1.152.737c-.407.18-.83.3-1.269.374a6.214 6.214 0 01-1.285.077c-.113-.004-.226-.016-.34-.024z" fill="#ED9D72"/><path d="M9.024 8.722h-.538c-.041 0-.042 0-.042-.041v-.477c0-.026.005-.039.036-.039.347.001.711 0 1.059.002.175 0 .278.054.294.21.021.198-.09.318-.257.342-.027.004-.056.003-.084.003h-.468zm.001.557h.515c.141.003.248.047.293.181.066.194-.121.375-.305.375H8.487c-.043 0-.043 0-.043-.042l-.001-.49c0-.026.014-.025.031-.025h.551z" fill="#4A5EE0"/></svg>