<!-- by TradingView --><svg xmlns="http://www.w3.org/2000/svg" width="18" height="18"><path fill="url(#azzj24430)" d="M0 0h18v18H0z"/><path d="M6 5h2v2.8h.48c.12 0 .48-.13.94-.59.45-.46 1.68-1.67 2.23-2.2h1.98l-3.18 3.21 3.16 4.76h-1.57l-1.32-2.1a4.4 4.4 0 01-.05 2.52 4.32 4.32 0 00-.53-2.17c-.09-.12-.55-1.1-.77-1.57-.2-.92.7-1.84 1.18-2.2-.63-.41-1.19.08-1.4.38-.35-.05-.66.2-.77.35L7.33 9.75c-.24.36-.49.38-.58.35.2.5.67.24.88.05.06.38-.1.6-.18.66a.67.67 0 00.57-.55c.08.13.21.61.1 1.56-.1.79-.67 1.09-1.09 1.16H6V5z" fill="url(#bzzj24430)"/><defs><linearGradient id="azzj24430" x1="3.35" y1="3.12" x2="21.9" y2="24.43" gradientUnits="userSpaceOnUse"><stop stop-color="#1A1E21"/><stop offset="1" stop-color="#06060A"/></linearGradient><linearGradient id="bzzj24430" x1="9.8" y1="5" x2="9.8" y2="13.4" gradientUnits="userSpaceOnUse"><stop stop-color="#FB3D42"/><stop offset="1" stop-color="#F01E52"/></linearGradient></defs></svg>