<!-- by TradingView --><svg width="18" height="18" viewBox="0 0 18 18" xmlns="http://www.w3.org/2000/svg"><path fill="#181B1E" d="M0 0h18v18H0z"/><path d="M11.82 13.67c.11.23.5.16.6-.05.19 0 .16-.02.3-.1.25-.13.45.1.49-.6 0-.25-.07-.2 0-.3a.57.57 0 0 0 .1-.28 3.92 3.92 0 0 1 .39-1.25.32.32 0 0 0 .06-.11c.04-.13.07-.53.07-.67 0-.1 0-.2-.05-.28-.06-.09.06-.49-.1-.57-.05-.02-.04 0-.07-.03.13-.08.7-1.1.8-1.3.11-.26.55-1.21.59-1.5l-.65.27c-.02-.25-.14-.82-.13-.98h.57l-.1-.06a8.44 8.44 0 0 1-.7-.42h.32a3.66 3.66 0 0 0-.97-.59c-.18-.07-.37.01-.47-.05-.06-.03-.1-.08-.17-.07-.54.04-1.08.15-1.61.22.09-.14.03-.1-.06-.15.15-.12.36-.34.37-.53-.05-.02-.23.04-.34-.11.14-.04.22-.15.25-.3.03-.17 0-.33-.12-.4-.12.17 0 .16-.29.28-.98.43.1-.23-.66-.67-.52-.3-.35.54-.96.45-.15-.03-.9.18-1.13.25-.34.12-.2.14-.41.1a3.02 3.02 0 0 0-.49-.07c-.74-.05-.28.61-.05.88.05.06.18.15.19.22.02.26-.1.1-.05.3-.06.03-.17.1-.18.17l.05.27-.78.2c-.04-.14-.07-.32-.15-.43a.73.73 0 0 0-.4.06c0 .1.03.18.03.28-.15 0-.68.13-.83.18-.18.05-.19.15-.29.2-.15.09-.2.09-.23.26-.3.09-.56.18-.84.3-.22.08-.6.26-.72.39 0 .1.2.49.25.58.3-.13.8-.38 1.12-.45.25.56.28.63.1 1.15-.05.12-.08.27-.1.4-.07.27-.15.61.05.8.15.15.14.21.25.27.14.07.28.07.45.08.1.5.3.73.6 1.1.18.2.21.13.37.03.1.12.2.32.28.45.04.06.03.09.02.17-.1.84-.22 1.67-.3 2.5.13-.02.3-.08.43-.12.88-.25 1.85-.62 2.67-1.02l.35-.18c.18-.1.42-.1.62-.18.27-.1.13-.19.23-.29.22-.14 1.28-.9 1.43-.91 0 .45-.14.45-.06.72-.02.03-.07.1-.1.1-.1.04-.27.14-.36.2-.17.13-.2.32-.16.57-.1.01-.64.19-.79.23-.8.24-1.62.44-2.45.63-.56.14-1.12.25-1.7.37-.2.04-1.67.3-1.72.32.08.11.55.32.7.36.2.07.24.04.45 0l.45-.07c.6-.1 1.2-.24 1.78-.37.86-.2 1.7-.43 2.53-.68.27-.08.56-.18.82-.24.06.06.07.13.12.18.14.16.37.23.45 0l.04-.1Z" fill="#242A34"/><path d="M10.95 5.65c-.12.22-.05.13-.04.23.01.1-.08.17-.1.24.13-.03.17-.06.32-.03.16.04.11.05.29.02.68-.1.83-.25 1.42.07.18.1.15.08.18.18.07.32.06.62.06.95 0 .17-.01.16.06.3.2.4.26.69-.01 1.03l.1.14c.03.06.05.12.09.15l.38-.65c.06-.1.33-.6.34-.69l-.23.1c-.01-.75.03-1.05-.17-1.75-.04-.13-.05-.1-.15-.17l-.41-.24c-.14-.08-.1-.06-.29-.05-.33.02-1.56.11-1.84.17Z" fill="#FC3B3B"/><path d="M10.37 6.64a3.85 3.85 0 0 1-1.07.67.67.67 0 0 1-.43.06h-.05a4 4 0 0 0-.13.84c.06.24.03.4.4.36.28-.03.5 0 .74.08.42.13.74-.33.64-.46-.07-.09-.13-.11-.25-.17.1 0 .19 0 .27.02.1.02.14.06.22.08.02-.35-.03-.32-.09-.54.11 0 .2.06.28.1-.02-.1-.08-.29-.13-.38l-.18-.32-.07-.08c.13-.01.2-.02.33 0-.03-.05-.17-.17-.21-.21-.08-.07-.16-.14-.27-.05Z" fill="#EFD9C2"/><path d="m7 12.71.07.28.56-.05-.35.13-.34.1.05-.46Zm.58-.31c0-.1.06-.27 0-.34-.07-.11-.3-.34-.08-.48.06-.05.18-.1.16-.22-.3-.07-.92-.15-.93-.56-.04.06-.05.04-.1.07l.3.48c.04.06.04.07.03.15l-.06.52c-.02.22-.16 1.28-.16 1.4.29-.06 1.54-.56 1.8-.68l.54-.26c-.01-.19.02-.57-.1-.7-.12.04-.25.12-.36.17-.07.03-.14.05-.17.1-.13.24-.18.34-.48.23-.08-.02-.12.01-.2.04-.06.03-.12.06-.2.08Z" fill="#FC3B3B"/><path d="M10.8 6.7c.23.02.54.3.7.47.05.05.14.15.17.22-.1-.06-.2-.12-.34-.11.05.04.19.08.32.25.06.08.2.27.2.39l-.14-.1a.51.51 0 0 0-.18-.08c.02.04.15.2.23.34.04.1.14.32.07.42.04.04.18.07.25.08.08.01.22.03.28-.03-.07 0-.18.02-.24 0 .05-.04.16-.06.23-.1.1-.04.12-.07.1-.2a1.1 1.1 0 0 0-.17-.44c.4.3.29.59.4.83.04 0 .05.01.08-.02-.02-.03-.05-.27-.07-.34-.1-.28-.22-.45-.46-.6l-.14-.09c.1 0 .15.01.23.04-.05-.08-.2-.26-.27-.33-.13-.13-.32-.22-.35-.25.13 0 .2.03.3.05-.04-.12-.27-.27-.4-.33l-.18-.07c.3 0 .65.16.83.36.05.07.12.14.15.23-.06-.01-.12-.07-.22-.08l.38.43c.02.03.12.12.1.15.03.04.03.02.07.05.2.17.25.44.31.47.12-.05.01-.37-.02-.46a1.2 1.2 0 0 0-.21-.37c-.1-.1-.15-.25-.24-.35-.47-.57-.66-.41-.93-.56l-.2-.1c-.12-.06-.3-.15-.46-.1-.1.03-.35.13-.42.18.1.04.18.12.25.15Z" fill="#B77D48"/><path d="M8.7 8.21c-.07.1-.03.76.06.86.04-.03.3.08.34.1.1.06.22.13.27.2.02.02.1.1.1.14 0 .07-.1.08-.17.07-.1-.03-.12-.06-.37-.11.06.17.3.5.34.58.17-.01.21-.1.26-.24a.6.6 0 0 0 .02-.4c-.07-.17-.3-.32-.49-.37l-.05-.01L8.98 9h-.01c.2-.03.4.04.55.18l.03.03.05.06c.06.09.1.2.26.2.07-.02.11-.04.16-.08.1-.06.05-.04.13-.1a.49.49 0 0 1-.06.13c-.1.18-.2.16-.33.21-.04.28-.09.4-.26.54l.12.1c.15.06.44 0 .59-.06.13-.05.13-.05.23-.22.06-.1.07-.17-.02-.27l-.03-.02c0 .09 0 .16-.05.23-.17.26-.55.3-.59.18 0-.05.04-.09.05-.14.04-.12.04-.26.1-.29l.12-.07.2-.2c.02-.04.23-.13.3-.1.02.06 0 .14-.03.21.17-.05.07-.17.12-.36-.08 0-.16.04-.22.07.02-.15.1-.15.13-.25l-.19.09c.02.01.05 0-.04.07l-.08.07c-.54.36-.38.02-.88-.29a2.37 2.37 0 0 0-.2-.1c-.05-.03-.16-.07-.19-.1h-.14c.13-.08.46-.07.62-.05.2.03.35.07.52.14.3.12.6-.16.7-.38.06-.12.01-.18.31-.1 0-.22-.02-.3-.06-.52.1 0 .15.05.22.07a2.78 2.78 0 0 0-.22-.5 1.7 1.7 0 0 0-.26-.37l-.05-.04.18.32c.05.1.11.27.13.38-.09-.04-.17-.1-.28-.1.06.22.11.2.09.54-.08-.02-.12-.06-.22-.08a1.21 1.21 0 0 0-.27-.02c.12.06.18.08.25.17.1.13-.22.59-.64.46-.24-.08-.46-.1-.73-.08-.38.04-.35-.12-.4-.36Z" fill="#C19F84"/><path d="M8.65 5.48c0 .02 0 .03-.06.04h-.1a.6.6 0 0 1-.17 0C8.2 5.48 8.04 5.3 8 5.2c.06-.01.39 0 .44.02.07.03.16.19.2.25Zm-1.06-.33-.04.01.07.2c-.04 0-.06-.02-.1-.03l.02.22c-.05-.01-.05-.02-.08-.06-.04.12 0 .24.02.35 0 .13.12.14.25.33.02.04.06.1.1.1.06 0 .14.04.22.05-.06-.06-.25-.13-.3-.27.09.03.13.08.26.1-.02-.04-.06-.06-.13-.14l-.1-.17c.03-.03-.01-.02.03-.01.06.02.15.1.22.13-.04-.13-.1-.19-.1-.36l.02.02.01.03.03.04c.04.05.18.17.26.2l-.03-.13c.12.06.25.14.42.14.01-.06 0-.1.05-.14.02.07.03.16.07.23.03.05.03.03.04.07.11-.04.2-.08.35-.06 0 0 .18-.29.2-.3v.13c.08 0 .28-.08.37-.14l.1-.1.02.03c0-.09-.06-.2-.1-.26-.04.01-.11.06-.15.05-.06.04-.1.04-.18.07v-.02c-.04-.05-.01-.29.07-.35l.1-.06c-.03-.07 0-.05-.2-.01-.4.08-.83.11-1.25.13l-.54-.02ZM9.6 3.56c-.03.01-.09.1-.1.12-.04.04-.07.1-.11.13l.08-.17c-.11-.01-.86.07-1 .11l-.16.07c-.12.02-.26.08-.36.1l.03.02.12.05-.22-.02h-.54V4c.14 0 .26.01.39.05.14.05.2.1.31.14h-.02L8 4.2l-.17.04c.03.07.1.1.12.2l.02.01.05.01c.29.03 1.8-.14 2.07-.24 0-.02 0-.01-.02-.03l-.03-.05-.02-.17h-.14v-.02c-.06-.03-.05-.06-.07-.12l-.1.04c-.07.02-.01.02-.09.05.01-.05.01-.06.04-.09l.08-.12.08-.12.19-.22c.04-.03.06-.07.14-.07l.07.01c-.04-.04-.12-.09-.18-.08-.07.01-.32.22-.37.29-.06.06-.03.04-.07.05Z" fill="#E1AB69"/><path d="m9.84 5.62.03.1.07-.07c.1-.1.1-.17.17-.27.02.17-.02.26-.04.4.11-.04.12-.1.15-.13l.04-.03c-.02.21-.02.24-.13.28-.03.02-.01.02-.05.02.04.03.03.04.02.1l.1-.14c-.01.12-.07.16-.1.24.18.02.2 0 .35-.07-.1.14-.16.16-.28.25l.25-.03c.19-.13.3-.16.37-.33-.06-.08-.07-.02.01-.22.03-.08.08-.13.1-.2-.01-.06-.04-.02-.02-.1 0-.05.03-.07.02-.12l.01-.2h-.05a.48.48 0 0 0 .02-.19l-.02.04-.03.03c0-.19-.08-.21-.13-.33-.16.05-.34.13-.52.18l-.47.13c-.05.01-.03 0-.06.03.05.04.1 0 .17-.02.04-.02.14-.06.18-.06l-.14.33c-.06.1-.04.06-.02.18l.02.21c0-.02 0 0-.02-.01Z" fill="#E1AB69"/><path d="M4.9 14.67c0-.03 0 0 .03 0h.05l.34.04c.55-.01 2.42-.43 2.93-.56.7-.17 1.62-.43 2.33-.64l.58-.16c.1-.01.13.03.2.06-.01-.07 0-.24-.04-.3l-.77.24c-1.43.44-3.36.86-4.85 1.15l-.83.15c0 .02 0 .02.03.02Z" fill="#C6D0DB"/><path d="M7.84 4.6c-.02.05-.04.05-.07.1a.35.35 0 0 0-.04.13c-.02.14.06.17.08.26.57.03 1.22-.03 1.74-.17-.1-.13-.04-.09-.07-.13-.09 0-.05 0-.08.04-.03.05 0 .04-.08.05.01-.12.11-.23.12-.35l.07-.03.06.41c.1 0 .7-.18.82-.22.01-.08-.01-.22-.07-.27-.07-.06-.17-.06-.26-.07-.08 0-.42.07-.53.08A8.6 8.6 0 0 1 9 4.5l-.6.04c-.18.02-.36.05-.55.06Z" fill="#FC3B3B"/><path d="M4.9 14.67a.9.9 0 0 0 .33.18c.17.05.26.01.44-.02 1.36-.23 2.83-.55 4.13-.94l.79-.23.4-.12a14.59 14.59 0 0 0 .28-.09c.1-.03.07-.02.09-.04-.07-.03-.1-.07-.2-.06l-.58.16c-.7.21-1.64.47-2.33.64-.51.13-2.38.55-2.93.56l-.34-.03-.05-.01c-.03 0-.02-.03-.03 0Z" fill="#FDFDFD"/><path d="m8 9.35.08.08-.28-.06c-.01.02.12.19.14.22l.09.11.09.12c.06 0 .2.05.28.07.1.02.22.03.3.06h-.1c-.04.04-.17.03-.23.03.04.05.29.23.34.26l.3.16c.16.06.12.02.13.01a12.5 12.5 0 0 1-.86-1.22c-.26-.41-.5-.9-.66-1.4-.02.04 0 .38 0 .46-.01.15-.02.3.03.45.11.34.27.47.36.65Z" fill="#565676"/><path d="M11.83 8.5c.07-.1-.03-.32-.07-.42-.08-.15-.21-.3-.23-.34.13.03.21.09.31.18 0-.12-.13-.31-.19-.39-.13-.17-.27-.2-.32-.25.14-.01.25.05.34.1a1.18 1.18 0 0 0-.17-.21c-.08-.08-.1-.12-.2-.2-.11-.08-.35-.26-.5-.27.07.08.21.19.27.33l-.28-.02c.02.05.14.18.18.24.19.26.29.58.31.91l-.09-.04c.05.07.46.37.64.38ZM12.6 10.04c.1-.22.03-.75-.17-1.02a.75.75 0 0 0-.22-.2c-.05-.01-.38.01-.42.03-.04.02-.04.06-.04.11.01.28.38 1.06.66 1.14.08.02.13 0 .18-.05l.02-.01Z" fill="#E1AB69"/><path d="M8.08 6.49c.03.04.07.06.12.1.32.21.67.43 1.1.35.4-.08.85-.3 1.15-.56h-.2a.9.9 0 0 1-.34.15c.03-.08.08-.15.1-.25l.04-.14.06-.12-.04.02c-.16.12 0-.07-.22.22l-.05.07c-.22.2-.04.25-.38.24-.3-.02-.26 0-.42.06-.04.02-.07.01-.1.03-.05.01-.02.02-.07.03-.07-.06-.02-.05-.1-.08-.07-.02-.08-.02-.11-.06-.06-.07-.13-.13-.12-.23-.04.02 0 .02-.06 0l-.07-.01v.06c-.06-.02-.03-.01-.07-.07-.04-.04-.04-.03-.04-.1-.1-.03-.02-.04-.1-.08-.1-.06-.02-.01-.09-.07l-.1-.08a.26.26 0 0 0-.1-.08l.17.2c.05.06.1.11.13.2.1.17.22.23.33.33-.16-.02-.3-.09-.42-.13Z" fill="#C19F84"/><path d="M12.8 10.36h-.07c.09-.04.17-.04.28-.1a.9.9 0 0 0 .22-.14c.11-.1.26-.25.33-.43-.04.02-.19.22-.3.14-.05-.04-.08-.27-.1-.35-.13-.38-.2-.42-.3-.65-.1.03-.28.02-.39.01l.07.07c.2.19.23.39.25.65.02.2.06.5-.06.67-.05.06-.1.1-.12.14l.2-.01Z" fill="#B77D48"/><path d="M6.08 10.42c.05 0 .14-.16.17-.25.21-.6.02-1.52.07-2.05l.07-.38c.03-.12.08-.24.1-.35a.21.21 0 0 0-.12.08c-.05.05-.03 0-.1.1-.06.08-.12.16-.17.26-.1.24-.12.43-.1.7.07.6.28.95.29 1.36l-.02-.03-.04-.04c.05.4-.12.48-.15.6Z" fill="#565676"/><path d="m12.87 12.7-.36.12c-.11.03-.34.04-.4.1-.06.06-.06.26-.07.37-.02.15.1.22.25.2.09-.04.03-.05.16-.04.06 0 .08-.03.13-.06.13-.08.21-.04.32-.09.14-.05.14-.49.1-.63l-.13.03ZM4.81 6.65c.18-.05.05-.23.16-.3.01-.02-.01-.01.02-.02.02.1.07.26.13.32.25-.07.08-.29.17-.42v-.01.03c.02.08.08.15.1.22.06-.03.06-.05.13-.08.05-.03.09-.04.15-.05l-.06-.17c.04.04.07.11.12.15l.32-.05c0-.04-.1-.43-.24-.43-.1 0-.2.05-.26.09-.14.08-.36.01-.55.14-.1.06-.04.08-.2.15-.1.05-.14.07-.1.2.03.1.06.16.11.23Z" fill="#E1AB69"/><path d="M11.04 5.25c0 .06 0 .01.01.03.28-.04 1.16-.1 1.46-.1.35-.01.98-.02 1.33.1.06.02.04.03.06 0-.07-.07-.4-.23-.52-.28-.15-.07-.15-.06-.34-.06-.63.03-1.32.05-1.93.14l-.07.17Z" fill="#FDFDFD"/><path d="M11.04 5.25c-.03.03-.03.05-.03.1.1.05.04.07.02.16.23-.01.48-.05.7-.07l.73-.06c.37-.02 1.15 0 1.45-.06.08-.01-.07-.04-.16-.07a5.87 5.87 0 0 0-1.03-.12c-.3 0-1.39.1-1.67.15 0-.02-.02.03 0-.03Z" fill="#C6D0DB"/><path d="m9.84 5.62-.02-.02-.1.09a.84.84 0 0 1-.37.14v-.12c-.02 0-.2.29-.2.3.12 0 .15.03.19.13.07.1-.02.28-.13.34-.12.05-.13.02-.1.05.1 0 .28 0 .39-.02.15-.01.16-.1.23-.17.1-.12.08-.07.18-.22.05-.06.1-.23.17-.2.04 0 .02 0 .05-.02.11-.04.11-.07.13-.28l-.04.03c-.03.04-.04.09-.15.14.02-.15.06-.24.04-.4-.06.1-.07.15-.17.26l-.07.08-.03-.11Z" fill="#EFD9C2"/><path d="M12.76 8.62c.21-.03.02-.53-.06-.67-.06-.12-.1-.15-.13-.2l.1.04-.02-.04-.09-.11-.38-.43c.1.01.16.07.22.08-.03-.09-.1-.16-.15-.23-.18-.2-.53-.36-.83-.36l.17.07c.14.06.37.2.42.33-.11-.02-.18-.05-.31-.05.03.03.22.12.35.25.08.07.22.25.27.33a.58.58 0 0 0-.23-.04c.03.03.1.06.14.08.24.16.36.33.46.61.02.07.05.3.07.34Z" fill="#E1AB69"/><path d="M4.95 7.11c.02-.03.04-.03.13-.03.25 0 .2.1.18.22h-.21c.12.06.68.06.91-.1a.34.34 0 0 0 .16-.2c-.1.07-.35.25-.5.25-.21-.35.31-.33.48-.48 0-.13-.07-.17-.2-.18-.13-.02-.18-.03-.2-.17-.08.02-.12.04-.16.09-.05.06 0 .11.05.14.15.07.3-.06.4.09-.35-.04-.3.05-.56.12-.12.04-.42.12-.52.17l.04.08Z" fill="#B57A46"/><path d="M5.63 8.93a.38.38 0 0 0 .01-.18c-.01-.07-.04-.08-.09-.1-.06-.04-.26-.1-.3-.13-.28 0-.41-.12-.57-.17-.05.07-.12.25-.1.34.05.06.38.14.48.16.21.06.34.07.57.08Z" fill="#AAA097"/><path d="M10.4 9.7c-.01-.04-.03-.06.02-.1.03-.04.06-.03.08-.07.03-.07.05-.15.02-.22-.06-.02-.27.07-.3.1-.07.08-.08.12-.19.2-.05.05-.07.05-.12.08-.06.03-.06.17-.1.3l-.05.13c.04.11.42.08.6-.18.04-.07.03-.14.04-.23Z" fill="#EFD9C2"/><path d="M7.94 8.06c.04.15.51.94.6 1.06-.01-.09-.08-.22-.12-.31-.11-.25-.28-.68-.35-.92-.07-.23-.1-.49-.12-.73-.04-.62.15-.5-.15-.65l-.01.43c0 .27.03.53.08.79 0 .05.08.32.07.33Z" fill="#CE3636"/><path d="m8.24 6.79.15.14c.08.1.33.38.4.4l.04-.02-.01.06h.05c.16.03.25.02.43-.05.36-.15.6-.32.9-.54.05-.03.15-.1.17-.14-.18.07-.51.26-.78.36l-.3.09c-.29.1-.17.16-.52-.05-.14-.08-.37-.2-.53-.25Z" fill="#C19F84"/><path d="m8.03 5.96.27.24v.03l.02.03.05.05.07.02h.06c.15 0 .02.15.22.23.16.07.23.07.36-.02h-.1c-.12 0-.2-.06-.24-.18-.07-.18-.06-.18.06-.3-.01-.04-.01-.02-.04-.07-.04-.07-.05-.16-.07-.23-.05.04-.04.08-.05.14a.84.84 0 0 1-.42-.14l.03.13a.83.83 0 0 1-.26-.2l-.03-.04-.01-.03-.03-.02c.02.17.07.23.1.36Z" fill="#EFD9C2"/><path d="M12.6 10.04v.01c-.06.05-.11.07-.2.05-.27-.08-.64-.86-.65-1.14 0-.05 0-.09.04-.1.04-.03.37-.05.42-.04-.03-.03-.14-.03-.2-.05-.25-.05-.46-.2-.51-.21-.02.48.15.77.37 1.1.1.15.2.3.32.43.06.07.12.15.22.13.07-.02.18-.09.2-.18Z" fill="#B77D48"/><path d="M5.7 6.42c.02.14.07.15.2.17.13 0 .2.05.2.18-.17.15-.7.13-.47.48.14 0 .38-.18.49-.26l.1-.08c.03-.02.07-.05.09-.09a.7.7 0 0 0 0-.32c-.04-.14-.11-.13-.26-.12l-.35.04Z" fill="#E1AB69"/><path d="M8.14 6.76c.02.04.17.79.35 1.14l.02.03.03.03c0-.1.06-.25.1-.34l.07-.14c.02-.06.06-.1.08-.14a2.93 2.93 0 0 1-.4-.41l-.15-.14-.09-.05-.01.02Z" fill="#EFD9C2"/><path d="M7.92 11.38c0 .05-.02.08-.03.12.02.02-.01.13-.02.22v.25a.3.3 0 0 0 .04.04c.27.19.3.12.42-.17.03-.06.08-.12.1-.18-.17.04-.37.18-.4.19-.13-.12 0-.48.08-.58.13-.18.26-.23.55-.16.05-.17.06-.13.1-.22a2.5 2.5 0 0 0-.41-.04c.05.04.13.04.19.1-.19-.02-.31 0-.42.1a.67.67 0 0 0-.15.24l-.02.04-.03.05Z" fill="#CE3636"/><path d="M13.51 10.36c-.1.09-.5.22-.66.27-.17.04-.71.06-.66.24.33 0 .61-.01.93-.08.13-.02.28-.08.38-.12.07-.04.1-.05.1-.14a.5.5 0 0 0 0-.2l-.09.03Z" fill="#AAA097"/><path d="m9.79 10.5-.1.02c.35.06.65.15 1.02.05a.7.7 0 0 0 .35-.2c.05-.06.19-.26.17-.36-.01-.04.01 0-.02-.03-.03.12-.46.29-.63.34-.17.07-.59.19-.79.18Z" fill="#565676"/><path d="M12.86 8.83c.1.23.17.27.3.65.02.08.05.31.1.35.11.08.26-.12.3-.14-.07.18-.22.34-.33.43a.9.9 0 0 1-.22.14c-.11.05-.2.06-.28.1h.07c.15 0 .5-.09.63-.14.12-.05.15-.07.16-.21 0-.11 0-.23-.02-.34-.14 0-.2.14-.27-.05-.1-.25-.05-.43-.26-.8-.08-.01-.1.01-.18.01Z" fill="#E1AB69"/><path d="M9.72 12.57c-.01-.01 0 0 .04-.02.1-.08.2-.23.22-.38.01-.1 0-.21-.01-.32l-.06-.25c-.04-.05-.14-.08-.14-.24l-.15.08c.08.12.13.15.19.3a.7.7 0 0 1 .03.43c-.07.3-.3.23-.5.04l-.05-.07c-.03.29-.03.46.22.46.06 0 .17 0 .2-.03Z" fill="#CE3636"/><path d="M12.3 13.49c-.17.02-.28-.05-.26-.2.01-.11.01-.3.08-.38.05-.05.28-.06.39-.09l.36-.12c-.2.04-.43.06-.63.04-.24-.02-.3-.08-.48-.15-.05.08 0 .11 0 .2l.02-.03c.02-.03 0-.04.03-.07.15.2.14.4.12.67-.01.12-.03.28.11.3.12.01.21-.08.25-.17Z" fill="#B77D48"/><path d="M10.34 9.08c-.27.1-.5-.03-.7-.14-.23-.14-.35-.2-.69-.21.03.03.14.07.2.1l.19.1c.5.31.34.65.88.29l.08-.07c.09-.07.06-.06.04-.07Z" fill="#EFD9C2"/><path d="M11.06 9.3c.1-.02.05.1.01.14l-.08.05c-.1.05-.13.17-.17.21-.07.06-.07 0-.14.12l-.03-.02c.01.1-.01.17-.05.24.12 0 .14-.13.26-.2.08-.06.05-.12.1-.15.05-.04.1-.04.15-.09.1-.1.12-.15.19-.29.05-.1.09-.24 0-.35l-.12.08c-.2.1-.15-.01-.29.1-.03.04-.08.05-.1.1.08.05.21.04.27.07Z" fill="#B77D48"/><path d="m7.94 8.06-.07-.33a4.26 4.26 0 0 1-.08-.79c0-.14.02-.3.01-.43l-.17-.06c-.07.35-.1.48.01.88.04.13.23.65.3.73ZM11.84 10.58c.03-.05.01-.14.05-.22.06-.1.12-.1.15-.13-.1-.1-.23-.35-.33-.43l-.13.12-.06.41c0 .1.05.1.08.16.2-.02.18.05.24.1Z" fill="#FC3B3B"/><path d="M6.9 6.1c-.17.04-.25.05-.38-.09l-.05-.04c0 .08.06.39.1.44 0 0 .87-.23.9-.26a.5.5 0 0 0 .06-.04l-.13-.13-.5.12Z" fill="#C6D0DB"/><path d="M12.17 11.63c-.04-.33.11-.27.47-.24a1.84 1.84 0 0 0 .66-.07l.03-.01c-.12-.01-.26 0-.39-.02a2.48 2.48 0 0 1-.63-.12c-.1-.03-.18-.09-.25-.12-.03.08-.04.26-.04.35-.01.25.02.22.15.23Z" fill="#938376"/><path d="M7.04 10.4v-.03c.05.07.3.17.42.21l.5.14-.27-.15c-.16-.1-.2-.17-.3-.29-.1-.13-.14-.09-.21-.19-.03-.03-.06-.07-.07-.12-.11.03-.14.07-.15.18-.01.07.04.2.08.24Z" fill="#CE3636"/><path d="m6.47 5.97.05.04c.13.14.21.13.38.1.06-.02.45-.1.5-.14l-.14-.21c-.12.01-.28.06-.4.1-.06 0-.38.07-.4.1Z" fill="#FDFDFD"/><path d="M12.19 10.87c-.05-.18.5-.2.66-.24.16-.05.56-.18.66-.27-.1.01-.25.06-.36.09-.24.06-.52.11-.77.11s-.25-.05-.35-.07c0 .08-.02.21 0 .3l.02.06.14.02Z" fill="#938376"/><path d="M8.93 9.47c.25.05.27.08.37.1.08.02.16.01.16-.06 0-.04-.07-.12-.09-.14a1.02 1.02 0 0 0-.27-.2c-.05-.02-.3-.13-.34-.1 0 .06.13.35.17.4Z" fill="#EFD9C2"/><path d="M4.91 9.73c.16.01.26-.1.33-.17.08-.07.13-.18.19-.29-.14.04-.25.1-.4.13-.15.03-.32 0-.44.08.02.03.05.04.08.06.15.1.05.17.24.19ZM12.1 12.36c-.04.03-.04.02-.07.06a.29.29 0 0 0-.05.1c.27.07.62.08.9-.02.1-.04.15-.05.17-.17l-.46.04c-.3.02-.32-.01-.48-.01Z" fill="#AAA097"/><path d="m9.27 11.34.02-.04c.05-.06.11-.14.1-.25a.27.27 0 0 0-.06-.14c-.04-.04-.1-.04-.15-.08-.51.14-.3.57-.23.6.01-.1-.02-.22.04-.3a.36.36 0 0 1 .23-.15c-.03.05-.3.35.05.36Z" fill="#CE3636"/><path d="M12.03 12.16c0-.08.12-.11.21-.1.13 0 .46.17.82 0h.01l.03-.02c-.26.03-.4.01-.64-.07-.23-.07-.31-.15-.36-.17l-.13-.03c-.03.17-.18.33.06.39Z" fill="#938376"/><path d="m8.54 7.96-.03-.03-.02-.03c-.18-.35-.33-1.1-.35-1.14a3.1 3.1 0 0 0 .35 1.55l.05-.35Z" fill="#C19F84"/><path d="m11.44 12.96.05.52c.03.07.05.2.15.12.08-.06.02-.2.04-.28.02-.1-.04-.47-.07-.55-.14-.05-.17.08-.17.19Z" fill="#FFC639"/><path d="M12.17 11.63a2.89 2.89 0 0 0 1.13-.31l-.3.06c-.12.01-.24.02-.36 0-.36-.02-.51-.08-.47.25Z" fill="#AAA097"/><path d="M5.43 9.8c.1.02.18.08.28.05.05-.01.19-.08.2-.12.04-.09.03-.5.01-.6-.03.03-.06.15-.09.2-.05.1-.1.18-.17.25l-.23.22Z" fill="#B77D48"/><path d="M9.72 12.57c.08 0 .27-.05.34-.1.1-.05.12-.15.11-.3 0-.2-.16-.48-.26-.57l.06.25c.01.1.02.22.01.32a.56.56 0 0 1-.22.38c-.04.02-.05 0-.04.02Z" fill="#FC3B3B"/><path d="M6.02 5.65c.04 0 .1-.01.14 0 .05.03.1.24.11.3.02.06.11.4.1.41l.06.33c.04.05.05.23.09.33L6.57 7c.03-.18-.22-1.1-.3-1.4l-.03-.06-.01-.02c-.24.01-.22.06-.21.13Z" fill="#E5A128"/><path d="m5.7 7.7.01-.14c-.21-.07-.57-.04-.73-.19h-.02a.38.38 0 0 0-.04.22c.15.08.6.12.79.11Z" fill="#AAA097"/><path d="M7.82 6.28c.02.03.2.2.26.2.13.05.26.12.42.14-.11-.1-.24-.16-.33-.34-.03-.08-.08-.13-.13-.2l-.16-.19-.03-.03-.04-.03c-.04 0 0-.02-.03 0l.1.18.13.13c-.13-.01-.17-.06-.26-.09.05.14.24.21.3.27-.08 0-.16-.04-.23-.04Z" fill="#EFD9C2"/><path d="M9.14 10.41c-.01.01.03.05-.12-.01l-.3-.16c-.06-.03-.31-.2-.35-.26.06 0 .19.01.23-.02h-.3c-.1 0-.2-.02-.29-.03.07.1.34.29.47.35.34.16.36.12.68.17l-.02-.04Z" fill="#393955"/><path d="M10.06 4.1c0 .05 0 .02-.02.03l.03.05.02.03.37-.1a2.4 2.4 0 0 0-.17-.7l-.05-.1h-.02l-.07-.02c.1.17.2.56.2.77-.06-.07-.06-.14-.13-.17l-.03.1-.07-.07c0 .04-.03.16-.06.19Z" fill="#B77D48"/><path d="m10 3.36.01.01v.02l.01.02.1-.03c0 .03-.04.07-.06.1a.5.5 0 0 0-.05.12l.17-.04c-.06.12-.15.2-.2.34l.09-.01v.22c.02-.03.04-.15.05-.19l.07.08.03-.11c.07.03.07.1.13.17 0-.2-.1-.6-.2-.77-.08 0-.1.04-.14.07Z" fill="#C19F84"/><path d="M7.19 10.99c0-.03 0-.01.02 0 .07.03.08.04.17.06.07.01.2.03.27 0v.13c.03-.03 0-.07.02-.15.01-.05.04-.09.05-.12a1.9 1.9 0 0 1-.42-.1c-.22-.08-.23-.12-.33-.16.02.14.13.29.22.34ZM10.06 4.35c.09.01.2.01.26.07.06.05.08.19.07.27.09-.03.26-.07.31-.12 0-.1-.07-.09-.1-.17-.1-.22-.08-.21-.34-.13-.05.01-.16.04-.2.08Z" fill="#CE3636"/><path d="M5.43 9.27c-.06.11-.1.22-.19.3-.07.05-.17.17-.33.16.08.03.26.04.34 0 .05-.03.25-.21.3-.26.06-.07.2-.25.19-.35l-.31.15Z" fill="#938376"/><path d="M5.66 8.3c0-.06-.07-.12-.12-.15-.1-.04-.17-.02-.27-.02-.07 0-.39-.02-.46-.04h-.02v-.01a.1.1 0 0 0 .04.16l.26.04c.17.01.4.03.57.01Z" fill="#AAA097"/><path d="M7.82 5.09c-.03-.09-.1-.12-.1-.26l.05-.13c.03-.05.05-.05.07-.1-.08 0-.25 0-.3.03-.07.06-.09.23-.08.33.07-.03.04-.08.16-.12-.02.08-.12.18-.16.23.08.02.27.02.36.02Z" fill="#CE3636"/><path d="M7.48 7.28c-.06-.27-.1-.52 0-.79-.16 0-.31.3-.3.4 0 .1.25.3.29.42.02-.02 0 0 .01-.03Z" fill="#565676"/><path d="M7.08 4.23v-.04a.3.3 0 0 0 .06.12c0-.07 0-.1.03-.14l-.04-.05a.9.9 0 0 1 .48.03c-.05.05-.07.03-.1.09l.3.08c-.01-.06-.06-.04-.13-.1.12-.03.19-.04.32-.03h.02L8 4.17l-.03-.01-.06-.02c-.17-.06-.24-.05-.4-.06l.05-.04-.2-.05v-.02c-.07 0-.24.01-.29.04-.06.04-.02.17.02.22Z" fill="#C19F84"/><path d="M4.78 8.08h.02c.08.03.4.05.47.05.1 0 .18-.02.27.02.05.03.11.09.12.14.1 0 .1-.04.12-.13 0-.08 0-.16-.02-.23-.1 0-.32.1-.44.12-.2.04-.35.03-.54.03Z" fill="#938376"/><path d="m10.1 6.01-.05.13-.04.14c-.02.1-.07.17-.1.25a.9.9 0 0 0 .35-.15l.16-.11-.25.03c.12-.09.19-.1.28-.25-.14.06-.17.09-.36.07.04-.08.1-.12.12-.24-.04.03-.07.09-.1.13Z" fill="#EFD9C2"/><path d="M6.36 6.36c.02-.02-.07-.35-.09-.41-.01-.06-.06-.27-.1-.3h-.15l.15.61c.16.01.13 0 .2.1Z" fill="#FFC639"/><path d="m7.92 11.38.03-.05.02-.04c.03-.08.09-.18.15-.24.1-.1.23-.12.42-.1-.06-.06-.14-.06-.2-.1-.22 0-.29 0-.4.13a.3.3 0 0 0-.08.2c0 .08.05.12.06.2Z" fill="#FC3B3B"/><path d="m13.1 12.04-.03.02c-.36.17-.7 0-.83 0-.1-.01-.21.02-.21.1.08.07.5.05.63.04l.33-.03c.12-.02.18-.04.18-.15l-.07.02Z" fill="#AAA097"/><path d="m4.49 9.22.02.1c.05-.01.11-.05.18-.06.16-.05.27-.03.58-.13-.06-.04-.24-.08-.32-.11l-.31-.13c.03.04.16.15.21.23-.1.02-.19.04-.28.08-.08.03-.04.03-.08.02ZM4.98 7.37c.16.15.52.12.73.19v.14c.11-.01.1-.04.13-.14l.05-.22c-.14.02-.12.05-.43.08-.22.02-.28 0-.48-.05Z" fill="#938376"/><path d="M11.06 9.3a.5.5 0 0 1-.3.08c0 .1.02.12-.05.18l-.14.1c.04.04.08.07.08.14l.03.02c.07-.12.07-.06.14-.12.04-.04.07-.16.17-.2l.08-.06c.04-.05.1-.16-.01-.13Z" fill="#E1AB69"/><path d="M8.34 5.3s.02 0 .01.03c0 .03-.01.03-.03.04-.02-.03-.03-.07.02-.08Zm-.02.21c-.06-.06-.17-.15-.2-.25h.16c-.07.18.06.27.2.24.07-.01.07-.03.1-.08l.07.06c-.05-.06-.14-.22-.2-.25A1.9 1.9 0 0 0 8 5.21c.04.09.2.28.32.3Z" fill="#232933"/><path d="M10.28 11.81c.04-.01.3-.19.34-.23-.25-.03-.47-.14-.62-.17l.28.4Z" fill="#FC3B3B"/><path d="M7.08 4.23c0 .03.01.05.03.07l.02.04v.03c.02.05.23.27.27.33.1-.1-.04-.15.23-.2.1-.01.31-.02.39-.05h-.05l-.01-.02h-.01c-.04.01-.17-.02-.27-.03-.1 0-.08 0-.09-.03-.04.03-.14.03-.22.03.01.08.03.1.05.15a.23.23 0 0 1-.11-.08l-.07-.12c0 .06 0 .1.02.15-.1-.12-.1-.15-.1-.23l-.02.04a.3.3 0 0 1-.06-.12v.04Z" fill="#B97E48"/><path d="M4.8 7.93c.16 0 .55-.02.67-.08-.29-.07-.28-.03-.59-.15-.02.06-.1.06-.09.23Z" fill="#A3968C"/><path d="M4.49 9.22c.04.01 0 .01.08-.02.1-.04.19-.06.28-.08-.05-.08-.18-.19-.21-.23l-.1-.08c-.05.1-.08.3-.05.41Z" fill="#AAA097"/><path d="M10.74 4.14c.08-.3.5-.16.46-.54-.05.04 0 .04-.14.14-.13.09-.42.12-.4.47l.08-.07Z" fill="#FC3B3B"/><path d="M11.44 12.96c0-.11.03-.24.17-.2-.02-.14-.13-.23-.25-.11-.1.09-.11.2-.1.35l.18-.04Z" fill="#E5A128"/><path d="M7.17 4.27c-.02.08-.02.11.1.23-.02-.06-.04-.09-.03-.15l.07.12c.03.04.05.06.1.08 0-.06-.03-.07-.04-.15.08 0 .18 0 .22-.03l.05-.02c-.07-.04-.25-.07-.3-.09a.35.35 0 0 1 .09-.06c-.06-.04-.2-.02-.25 0l-.01.07Z" fill="#C19F84"/><path d="M7.48 5.84c-.02-.1-.05-.23-.02-.35.03.04.03.05.08.06 0-.08-.02-.13-.01-.22.03 0 .05.03.09.03l-.07-.2h.04l-.15-.03c-.01.14.14.05-.09.25.01.09.05.01 0 .11-.02.05 0 .08.01.14.02.07.06.17.12.21Z" fill="#B77D48"/><path d="m6.94 13.17.34-.1.35-.13-.56.05-.08-.28-.05.46Z" fill="#222A35"/><path d="M12.91 10.99c.06.06.5.05.6.03.06-.03.07-.14.08-.22-.1.03-.2.08-.32.11-.12.04-.24.06-.36.08Z" fill="#AAA097"/><path d="M11.5 13.48c-.02.07-.06.03-.17.09.03.09.19.34.3.22.06-.06.1-.4.05-.47-.02.09.04.22-.04.28-.1.08-.12-.05-.15-.12Z" fill="#E5A128"/><path d="M9.18 10.83c.06.04.11.04.15.08.03.03.06.08.06.14.01.11-.05.19-.1.25l-.02.04c.2-.02.28-.1.25-.3-.03-.18-.15-.24-.34-.21Z" fill="#FC3B3B"/><path d="M13.52 11.02c-.11.02-.55.03-.61-.03l-.35.04c.14.13.85.1.96 0Z" fill="#938376"/><path d="m10.95 4.52.02-.06c.04.05.14.03.2 0 .13-.06.1-.12.13-.08l.02-.04h-.03c-.1-.01-.1 0-.2-.07-.1-.06-.1-.1-.2-.01.04.11.07.11.06.26Z" fill="#CE3636"/><path d="M7.04 10.4c0 .12.3.2.43.26.18.06.32.16.53.07l-.05-.01a3.8 3.8 0 0 1-.49-.14c-.12-.04-.37-.14-.41-.21v.02Z" fill="#FC3B3B"/><path d="M9.08 4.55c.02.04.03.03.02.1l-.04.34c.1-.05.07-.16.1-.24v-.03l.01-.01c.04.1.05.17.1.17.04-.03.06-.3.07-.36-.1.01-.06-.01-.1.2l-.07-.18h-.09Z" fill="#222A35"/><path d="M10.7 4.65c.05.12.12.14.13.33l.03-.03.02-.04c0 .07 0 .12-.02.19h.05v.2l.05-.1c.01-.04.03-.08.03-.13l-.08-.04c0-.07.04-.07.06-.14-.1-.13-.02-.07-.07-.16a.3.3 0 0 0-.12-.12l-.08.04Z" fill="#B77D48"/><path d="m4.95 7.11.03.16.07.02.2.01c.03-.11.08-.23-.17-.22-.1 0-.11 0-.13.03Z" fill="#E1AB69"/><path d="m6.61 6.66.06.36c.05-.02.02-.01.07-.13.07-.21.2-.32.22-.36-.05.01-.32.1-.35.13Z" fill="#FC3B3B"/><path d="M12.85 11.69c.09.06.25.07.36.07.06-.05.1-.17.13-.27-.08.03-.15.08-.24.11l-.25.09Z" fill="#AAA097"/><path d="M5.63 8.93c.1 0 .13-.01.14-.11 0-.08-.01-.16-.03-.22-.16-.04-.32-.05-.48-.08.03.04.23.09.29.12.05.03.08.04.1.1 0 .07 0 .14-.02.19Z" fill="#938376"/><path d="M5.12 6.65c.06.11.14.15.28.06 0-.07-.07-.21-.1-.33v-.16h-.01c-.1.14.08.36-.17.43Z" fill="#B77D48"/><path d="M7.86 11.97v-.12l.01-.13c0-.09.04-.2.02-.22l-.21.22c-.04.11.16.24.18.25Z" fill="#FC3B3B"/><path d="M9.66 3.82c-.03.03-.03.04-.04.09.08-.03.02-.03.08-.05.05-.04.09-.06.17-.07v.15l.01.02a.8.8 0 0 1 .08-.17l.1-.15-.13.01.04-.1c-.14.09-.18.15-.27.26-.05.05-.02.04-.04.01ZM8.74 6.36c.04.12.12.18.24.18h.1l.03-.01c-.03-.03-.02 0 .1-.05.1-.06.2-.23.13-.34 0 .08-.01.06-.09.18-.07.1-.2.2-.35.15-.08-.03-.1-.06-.14-.1l-.02-.01Z" fill="#C19F84"/><path d="m8.98 4.94.06.05L9 4.6c-.01-.05-.03-.03-.1-.02.03.04.03.03 0 .09 0 .04-.02.06-.03.1l-.07.18c.16 0 .01-.07.15-.1l.04.1Z" fill="#262B35"/><path d="M13.21 11.76c-.11 0-.28-.01-.36-.07l-.3.09c.08.02.26.04.34.04.12.02.28.03.32-.06ZM11.98 12.52l.05-.1c.03-.04.03-.03.08-.06l-.14-.04c-.09-.03-.13-.12-.16.13a.5.5 0 0 0 .17.07Z" fill="#938376"/><path d="M7.13 4.37v-.03L7.1 4.3c-.02-.02-.03-.04-.03-.07-.04-.05-.08-.18-.02-.22a.78.78 0 0 1 .28-.04h.54c-.25-.02-.48-.06-.73-.03-.14.02-.2.05-.16.19.04.1.09.16.14.24Z" fill="#F7F2EC"/><path d="m8.85 4.58-.2.02-.02.09c.04-.03 0-.02.06-.04l-.04.39c.18-.15.04-.41.18-.4h.02v-.06Z" fill="#222A35"/><path d="M6.52 7.02c-.04-.1-.05-.28-.09-.33.02.24-.05.22-.13.31l.02.06c.06.01.14-.02.2-.04Z" fill="#FFC639"/><path d="M8.32 5.51a.88.88 0 0 0 .27 0c.07 0 .05-.01.06-.03l-.08-.06c-.02.05-.02.07-.09.08-.14.03-.27-.06-.2-.24h-.17c.04.1.15.19.2.25Z" fill="#F7F2EC"/><path d="M7.65 11.18v-.12c-.07.02-.2 0-.27-.01-.09-.02-.1-.03-.17-.06-.03-.01-.02-.03-.02 0 .03.07.34.17.46.2ZM10.95 4.52v.03c.1.04.13.04.23 0 .05-.03.12-.1.12-.17-.04-.04 0 .02-.13.09-.06.02-.16.04-.2 0l-.02.05Z" fill="#FC3B3B"/><path d="M10.73 4.43c.04-.02.02.01.08 0 .03 0 .04-.03.07-.04-.03-.07-.04-.14-.12-.17-.05.03-.1.12-.05.18l.02.03Z" fill="#CF3636"/><path d="m7.82 4.32-.01.03-.03.03.17.05c-.01-.1-.09-.13-.12-.2L8 4.2c-.13-.01-.2 0-.32.02.07.07.12.05.14.11Z" fill="#B77D48"/><path d="M9.6 3.56c.04 0 .01 0 .07-.05.05-.07.3-.28.37-.29.07 0 .14.04.18.08l.02.01c-.05-.08-.1-.12-.14-.13-.16-.05-.35.22-.5.38Z" fill="#F7F2EC"/><path d="M9.4 5.46c0 .03 0 .01.01.02.08-.03.12-.03.18-.07l.07-.05c-.14 0-.15 0-.2-.1l-.06.2Z" fill="#F9F7F5"/></svg>