<!-- by TradingView --><svg width="18" height="18" fill="none" xmlns="http://www.w3.org/2000/svg"><path fill="#13CBFF" d="M0 0h18v18H0z"/><path d="M7.232 5.393c.51-.243 1.244-.407 1.961-.381.763 0 1.459.254 1.71.38 2.101-1.294 2.764-.9 2.833-.542.33 1.355-.095 2.727-.348 3.244.906 2.656.61 4.05.348 4.414-1.056 1.542-3.064 1.542-5.433 1.468-2.368-.075-3.05-.336-3.848-1.468-.639-.905-.208-2.983.088-3.91-.322-.622-.944-3.278-.172-3.748.771-.47 2.735.478 2.861.543z" fill="#31006B"/><path d="M7.164 5.682c.482-.23 1.318-.431 1.997-.407.722 0 1.527.249 1.766.369 1.987-1.225 2.537-.894 2.601-.555.312 1.281-.19 2.48-.43 2.968.858 2.512.628 3.93.38 4.274-.998 1.458-2.897 1.458-5.137 1.388-2.24-.07-2.903-.251-3.64-1.388-.568-.878-.171-2.922.108-3.797-.305-.589-.952-3.06-.223-3.505.654-.398 2.48.598 2.578.653z" fill="#fff"/><path d="M9.138 6.082c-.666.01-1.095-.21-1.226-.322-2.604.637-4.034 4.508-3.273 6.478.61 1.575 3.214 1.47 4.543 1.505.7 0 2.362 0 3.294-.531 1.207-.688 1.265-1.556 1.207-2.107-.356-3.355-2.482-5.203-3.292-5.345-.14.103-.586.311-1.253.322z" fill="#F9EBD1"/><path d="M8.512 10.04c.074-.223.484-.257.608-.252.437 0 .641.167.635.377-.004.168-.374.33-.558.389v.319c.026.064.18.194.587.199.407.004.44-.287.406-.433.133.206.201.362-.133.603-.267.192-.38.598-.402.777.064.351.02 1.043-.676 1.003-.869-.05-.656-.949-.612-1.108.045-.16-.169-.528-.213-.672-.044-.144-.366-.37-.354-.533.01-.13.146-.21.213-.233-.084.295.177.532.443.525a1.63 1.63 0 00.541-.128v-.32c-.235-.08-.558-.289-.485-.512z" fill="#3B0364"/><path d="M8.756 11.906c.177.02.248.309.265.434.052-.163.103-.421.28-.398.176.023.206.204.2.308-.005.105-.02.61-.48.62-.46.01-.537-.515-.531-.581.005-.067.071-.406.266-.383z" fill="#FB6E64"/><path d="M11.493 8.776c-.639.013-.795.555-.793.825.078-.163.345-.503.793-.562.448-.059.872.301 1.027.488-.076-.255-.388-.763-1.027-.75zM6.538 8.77c.64.012.796.554.794.824a1.078 1.078 0 00-.794-.562c-.448-.059-.871.301-1.027.488.076-.255.388-.763 1.027-.75zM9.161 9.433c-.63-.059-1.226.434-1.445.688.22-.171.804-.514 1.375-.52.57-.006 1.136.42 1.348.635-.229-.315-.49-.73-1.278-.803z" fill="#3B0364"/><path d="M9.102 13.334c-2.399.281-4.024-1.124-4.537-1.861.25 1.003.794 1.428 1.379 1.861.584.433 4.536.626 6.137.042 1.28-.467 1.483-1.517 1.424-1.983-.638.863-1.404 1.59-4.403 1.941z" fill="#D3BDBF"/><path d="M11.519 5.984c.754.523 1.188 1.243 1.312 1.626.52-.865.59-1.802.54-2.232-.001-.11-.096-.327-.492-.245-.396.083-1.087.62-1.36.851z" fill="#480066"/><path d="M12.866 7.15c-.348-.613-.817-1.034-1.009-1.168.668-.47 1.02-.641 1.164-.683.04-.012.077.01.092.046.2.475-.077 1.391-.247 1.805z" fill="#FF696E"/><path d="M6.35 6.184c-.755.523-1.192 1.42-1.316 1.802-.52-.865-.55-1.942-.501-2.373.002-.11.104-.309.5-.226.397.082 1.043.566 1.317.798z" fill="#31006B"/><path d="M4.754 6.017c.004.625.175 1.177.28 1.41.118-.25.477-.852.964-1.262a6.682 6.682 0 00-.785-.453c-.234-.11-.46.046-.459.305z" fill="#FD6B6C"/></svg>