<!-- by TradingView --><svg width="18" height="18" viewBox="0 0 18 18" xmlns="http://www.w3.org/2000/svg"><path fill="#202938" d="M0 0h18v18H0z"/><path fill-rule="evenodd" d="M9 15A6 6 0 1 0 9 3a6 6 0 0 0 0 12Zm0-1A5 5 0 1 0 9 4a5 5 0 0 0 0 10ZM6.49 5.4A5.12 5.12 0 0 1 5.4 7.27l.12.55c.44-.37.8-.85 1.06-1.29h.86L7 7.5H6v3h2.5v-3h-.95L8 6.48V6H6.85c.08-.17.14-.32.17-.43L6.5 5.4ZM7.5 8H8v.55h-.5V8Zm0 1H8v1h-.5V9ZM7 8v.55h-.5V8H7Zm0 1h-.5v1H7V9Zm-1.2 1.86a5.48 5.48 0 0 1-.34 1.5l.44.16c.19-.45.3-1.25.32-1.6l-.43-.06Zm.68.07c.02.28.08.97.07 1.48l.42-.06c-.02-.37-.06-1.17-.12-1.45l-.37.03Zm.9 1.36a6.22 6.22 0 0 0-.22-1.4l.38-.05c.18.32.25 1.07.26 1.4l-.42.05Zm.52-1.43.35.98.29-.08-.07.1.44.32c.39-.49.81-1.47.97-1.9l-.5-.22a9.72 9.72 0 0 1-.78 1.6l-.32-.9-.38.1Zm4.63-4.5h-1.6a4.84 4.84 0 0 0-.3-.94l-.55.09c.07.13.21.48.3.84H8.66V7h3.88v-.65ZM9 7.5h3V10h-1v2c0 .3-.33.53-.63.53h-.71l-.1-.53c.1.02.33.05.54.05.2.01.31-.22.31-.33V10H9V7.5Zm.5.5h2v1.5h-2V8Zm1.62 2.32c.3.44.74 1.42.91 1.86l.5-.15a9.33 9.33 0 0 0-.96-1.97l-.45.26Z" fill="#E53B2E"/></svg>