<!-- by TradingView --><svg width="18" height="18" viewBox="0 0 18 18" xmlns="http://www.w3.org/2000/svg"><path fill="#F0F3FA" d="M0 0h18v18H0z"/><path d="M13.23 7.58c-.06-.02-.08-.06-.04-.15l.04-.13c0-.13 0-.26-.03-.4-.02-.07-.07-.12-.1-.2a.04.04 0 0 0-.04-.01h-.02a.09.09 0 0 0-.03.1c.06.26.13.53-.02.78a.2.2 0 0 0-.02.08c-.01.06.01.09.06.08-.02 0-.05 0-.07.02h-.03l-.02-.02-.02-.16-.01-.03c-.04-.06-.12-.08-.15-.14-.04-.1 0-.18.06-.26v-.05l-.03-.02h-.03l-.16.02-.05-.01a.14.14 0 0 1-.01-.16c0-.02.02-.02.03 0 .02.03.04.05.07.06.03.01.04 0 .05-.03 0-.03 0-.05-.02-.07a.5.5 0 0 1-.14-.14.34.34 0 0 1 0-.17.64.64 0 0 0 .02-.18 4.23 4.23 0 0 1 0-.58.2.2 0 0 0-.01-.09 4.71 4.71 0 0 0-.29-.35l.02-.02a.15.15 0 0 1 .12.03c.07.06.16.1.21.18.1.13.2.2.19.39v.14a16.8 16.8 0 0 1 0 .78.04.04 0 0 0 .05 0h.02c.02 0 .03-.03.03-.05 0-.08.05-.14.13-.17.02 0 .03-.02.04-.04l.06-.15c.09-.18.1-.35.04-.52a.92.92 0 0 0-.3-.38c-.12-.1-.27-.2-.44-.28a.77.77 0 0 0-.29-.09 2.75 2.75 0 0 0-.31 0v.02c0 .03.01.05.03.06l.06.06a1 1 0 0 0 .1.09c.09.06.16.14.24.26l.06.15.04.15c.03.07.04.15.03.23-.01.15-.01.3.01.44 0 .02 0 .03-.03.03h-.06l-.01-.01a6 6 0 0 0-.26-.75.26.26 0 0 0-.11-.18h-.03c-.02.06 0 .11.03.16l.02.03c0 .07.03.14.06.2.07.12.08.26.04.41 0 .02 0 .03-.02.04l-.15.11a.09.09 0 0 1-.08.01c-.01 0-.02-.01-.02-.03v-.03l.1-.07.02-.03a.06.06 0 0 0-.01-.06l-.03-.02c-.07-.04-.17-.02-.22.04l-.03.04c-.02.01-.02.01-.02-.01.02-.07.01-.1-.03-.1h.03c.02-.01.02-.02 0-.02l-.03-.02-.02-.04c.04-.24.02-.48-.06-.7a.6.6 0 0 0-.08-.18.26.26 0 0 0-.12-.1c-.02 0-.03 0-.02.03.06.17.1.34.14.51.04.18.04.33 0 .44a1.4 1.4 0 0 0-.08.38c0 .02-.02.03-.04.03h-.03a.33.33 0 0 1-.03-.15v-.27c0-.04-.01-.06-.05-.07-.02 0-.03 0-.04.02v.01c-.02.02-.03.03-.05.01-.02-.02-.03-.06-.03-.1.04.03.08.02.11-.02a.15.15 0 0 0 .03-.09.57.57 0 0 0-.11-.36l-.02-.01a.04.04 0 0 0-.04 0l-.01.01c-.05.1-.05.2 0 .32-.04 0-.07 0-.07.03 0 .2.02.44.09.72 0 .02 0 .03-.03.02a.4.4 0 0 1-.12-.07 3.93 3.93 0 0 1-.37-.37.03.03 0 0 0-.02.02.06.06 0 0 0 0 .05c.05.2.1.56-.16.68a.06.06 0 0 0-.03 0c-.02 0-.03-.02-.02-.03v-.02h.02c.04-.02.06-.04.07-.07l.01-.03c.04-.02.04-.05 0-.08a.05.05 0 0 1-.01-.04l.02-.17c.02-.1.01-.18 0-.29a.4.4 0 0 0-.03-.12 13.9 13.9 0 0 0-.2-.69c-.01-.1-.06-.18-.13-.2a.14.14 0 0 0-.1 0 .12.12 0 0 0-.06.05.88.88 0 0 0-.12.47c0 .1.02.2.06.27.03.08.05.16.06.25 0 .03.01.06.03.08a.2.2 0 0 1 .04.1c0 .02 0 .03.02.05l.03.06v.05c0 .03 0 .05.03.07l.01.01v.03a.04.04 0 0 1-.01.03l-.04-.01a1.17 1.17 0 0 1-.28-.42 1 1 0 0 1 0-.31.57.57 0 0 0-.21-.06c-.02 0-.03-.01-.03-.03-.02-.17-.02-.3-.01-.37a.5.5 0 0 1 .12-.28.1.1 0 0 1 .04-.03c.01 0 .02 0 .03-.02l.01-.02c0-.04 0-.06-.02-.08a.1.1 0 0 0-.13 0l-.08.07c-.06.06-.07.15-.13.21a.09.09 0 0 0-.02.04.46.46 0 0 1-.06.17.1.1 0 0 0-.01.07.9.9 0 0 1-.02.33.3.3 0 0 1-.05.1 32.83 32.83 0 0 1-.06.25c0 .02-.02.02-.06.02a.12.12 0 0 1-.04-.04c.04.01.07 0 .1-.02v-.07a2.85 2.85 0 0 1 0-.47l-.01-.04L9 5.9c-.02-.02-.04-.01-.05.02-.02.06-.01.12-.04.19l-.1.23c.03-.24.09-.47.17-.7.02-.05.04-.1.08-.14l.11-.14a.04.04 0 0 0 .01-.05.5.5 0 0 0-.1-.18.25.25 0 0 0-.15-.08.89.89 0 0 0-.34 0l-.28.08a.04.04 0 0 0-.03.03c-.03.1-.07.16-.13.2a4.81 4.81 0 0 0-.14.1c-.05.2-.11.4-.2.6a.61.61 0 0 0-.05.2 4 4 0 0 0 .04.8c.03.03.04.07.03.11-.02.06-.05.08-.11.07a.92.92 0 0 0-.19-.3v-.14a10.98 10.98 0 0 1 .26-1.24l-.01-.02a.06.06 0 0 0-.05-.01c-.28.04-.8.19-.88.47-.06.17-.1.34-.12.49a.9.9 0 0 0 .01.3c.02.1 0 .19.03.28a18.57 18.57 0 0 1 .1.5.2.2 0 0 1 .07.14l.01.02h.02l.02.03v.02c.02.09.07.19.13.3.04.08.1.12.17.13.02.04-.01.06-.1.04a.3.3 0 0 1-.09-.04 1.44 1.44 0 0 0-.24-.11.33.33 0 0 1-.3-.25.7.7 0 0 1 .01-.3v-.05c-.05-.12-.1-.25-.1-.38l-.04-.46c0-.05-.01-.1-.04-.17a.3.3 0 0 1 0-.21 38.24 38.24 0 0 1 .18-.58h-.02l-.02-.01a.33.33 0 0 0-.16.07 21.53 21.53 0 0 1-.33.28.35.35 0 0 0-.05.08c-.1.2-.14.42-.13.64a170.83 170.83 0 0 0-.03.88c.01.06.03.11.06.16.03.07.06.07.07-.01a.7.7 0 0 0 0-.08c0-.1.05-.2.05-.3.02-.17.08-.32.08-.5v-.02h.02c.01 0 .02-.01.02-.03 0-.05 0-.11.02-.17.01-.03.03-.05.07-.04h.02a.1.1 0 0 1 .04.04l.02.05-.03.29a1.6 1.6 0 0 0 0 .29l-.01.45c0 .1-.07.15-.1.24a.44.44 0 0 1-.12.17l-.3.32-.15.1a.08.08 0 0 1-.05.01l-.04.03-.03.03a.38.38 0 0 0-.22.3l-.27.08a.27.27 0 0 1 0-.2c.08-.19.2-.36.26-.55.06-.17.1-.33.12-.5l.09-.48.2-.94.06-.46c0-.06-.01-.08-.07-.04-.04.03-.08.08-.11.17-.02.06-.07.1-.12.13a.09.09 0 0 0-.03.04 1 1 0 0 1-.21.28.7.7 0 0 0-.12.15c-.12.2-.22.41-.3.62-.06.18-.14.34-.19.52l-.14.48c-.08.24-.12.46-.17.7-.03.19 0 .38-.02.58-.02.32-.03.68.06 1 .06.23.15.44.25.62.06.1.1.1.12-.01.03-.19-.03-.35-.02-.53a20.4 20.4 0 0 0 .03-.7c.02-.08.05-.12.1-.12.12.14.25.25.4.33a.14.14 0 0 1-.07.01l-.04.01c-.02.02-.02.04 0 .06.12.12.28.22.44.28.1.04.2.07.29.12.04.02.08.04.11.08l.12.11c.05.04.06.11.06.17 0 .02 0 .03.02.04l.1.1.01.05.02.04c.09.12.2.21.3.27.08.03.13.08.18.13l.15.17c.09.08.17.13.25.14.1.02.17.08.19.16-.28.13-.49.2-.63.21a5.7 5.7 0 0 0-.52.08c-.17.03-.33.04-.48.04-.22 0-.45.01-.68.04-.16.02-.7.1-.75-.12-.04-.14.15-.2.26-.24.02 0 .03-.02.04-.04V12a4.83 4.83 0 0 0-.09-.37c-.06-.2 0-.43-.1-.6-.12-.21-.24-.43-.27-.65-.03-.22-.08-.44-.08-.67 0-.49.1-.97.27-1.43.06-.17.17-.31.17-.5 0-.16-.02-.3 0-.48l.09-.45c.01-.09.08-.2.19-.37a.6.6 0 0 0 .08-.24c.02-.1.06-.2.1-.3l.04-.2a.9.9 0 0 1 .04-.19c0 .06 0 .1.02.11h.02a.02.02 0 0 0 .01 0l.02-.01.02-.01h.07a.1.1 0 0 0 .05 0c.1-.07.22-.11.32-.18.16-.11.35-.2.55-.23.2-.03.38-.08.55-.18.05-.03.1-.02.17-.04a.32.32 0 0 1 .12-.02c.1 0 .2-.04.3-.04.13 0 .26 0 .39-.02a4.12 4.12 0 0 1 .7-.02c.08.05.15.07.23.06h.21c.1 0 .19-.02.26-.05a.31.31 0 0 1 .18-.04h.13a3.17 3.17 0 0 1 .32-.04 12.79 12.79 0 0 1 .15-.06c.03-.07 0-.11-.09-.12a3.54 3.54 0 0 0-.6.03.11.11 0 0 1-.04.01h-.57a.12.12 0 0 1-.11-.06l-.05-.08v-.03c0-.02-.02-.03-.03-.03a.25.25 0 0 0-.1 0l-.06-.02a.67.67 0 0 0-.33-.1c-.08 0-.15-.02-.23 0-.2.03-.4.04-.58.1a.7.7 0 0 1-.23.04.4.4 0 0 0-.2.07.53.53 0 0 1-.17.07c-.1.02-.22.07-.34.15a.13.13 0 0 1-.06.02.1.1 0 0 1-.06-.01v-.05c.1-.12.2-.23.35-.32.36-.2.75-.42 1.18-.43.67-.02 1.33 0 1.98.04a6.94 6.94 0 0 1 1.25.23l1.12.45c.14.05.3.13.47.24l.45.27c.1.05.21.14.34.27.1.08.17.2.22.34.11.28.18.5.2.67.07.39-.01.74-.25 1.06Z" fill="#764D40"/><path d="m4.98 5.54.93-.78.01.05a.1.1 0 0 0 .06.01c.02 0 .04 0 .06-.02.12-.08.23-.13.34-.15l.16-.07a.4.4 0 0 1 .2-.07.7.7 0 0 0 .24-.04c.18-.06.39-.07.58-.1.08-.02.15 0 .23 0 .12 0 .23.04.33.1l.06.01h.1l.02.04.01.03.05.08c.02.04.06.06.1.06h.63a3.54 3.54 0 0 1 .6-.03c.07 0 .1.04.08.11l-.01.02h-.02a13.16 13.16 0 0 0-.25.06l-.19.02h-.13c-.06 0-.12 0-.18.04a.47.47 0 0 1-.26.04h-.2a.33.33 0 0 1-.24-.05 4.12 4.12 0 0 0-.7.02 3.4 3.4 0 0 1-.39.02c-.1 0-.2.04-.3.04-.04 0-.08 0-.12.02-.06.02-.12.01-.18.04-.16.1-.34.15-.54.18-.2.02-.4.12-.55.23-.1.07-.21.1-.32.17a.1.1 0 0 1-.05.02H5.1a.04.04 0 0 0-.04 0l-.02.01a.02.02 0 0 1-.02 0H5c-.01-.02-.02-.05-.02-.11Z" fill="#68473D"/><path d="M8.82 6.33c.04.03.05.07.05.1-.02-.01-.03-.02-.05 0a.04.04 0 0 0-.02.01c-.04.1-.05.21-.04.32 0 .05 0 .1-.04.16-.08.16-.23.23-.44.22a.2.2 0 0 1-.18-.29c0-.02.02-.02.03-.01.03.01.05.03.07.06.02.03.07.05.11.03.02-.01.03-.02.03-.04.01-.14-.06-.15-.15-.24.05.01.08 0 .09-.02.08-.2.12-.4.12-.58 0-.07-.03-.09-.1-.06-.06.03-.1.1-.1.24a.1.1 0 0 1-.01.05.39.39 0 0 0-.05.24h-.01V6.5a.77.77 0 0 1 .1-.55.86.86 0 0 1 .13-.12.35.35 0 0 0 .1-.15l.03-.03c.06-.03.1-.07.14-.12a.08.08 0 0 1 .04-.03.27.27 0 0 0 .15-.1.04.04 0 0 0 0-.05v-.01h-.03c-.03-.01-.07 0-.1.01a.09.09 0 0 1-.05.02h-.02a.1.1 0 0 0-.05 0l-.3.2a.28.28 0 0 0-.11.22c0 .02 0 .03-.02.05l-.02.01a7.91 7.91 0 0 1-.1.22.65.65 0 0 0-.04.2c-.01.16-.05.31-.1.48a.77.77 0 0 0 0 .25l.01.04c.03.03.04.08.04.13l-.06.17c0 .02-.02.02-.03.01a.29.29 0 0 1-.13-.13c.07 0 .1-.01.12-.07a.13.13 0 0 0-.03-.12 4 4 0 0 1-.04-.79c0-.07.02-.14.05-.2.09-.2.15-.4.2-.6l.03-.04.1-.06c.07-.04.11-.1.14-.2l.03-.03.27-.07a.89.89 0 0 1 .35 0c.06 0 .1.03.15.07a.5.5 0 0 1 .1.18v.05l-.13.14a.52.52 0 0 0-.07.15c-.08.22-.14.45-.16.69ZM12.5 6.74a.2.2 0 0 0-.1.06l-.03.01h-.03l-.03-.01-.01-.03-.03-.1.06.01c.02 0 .03 0 .03-.03a1.8 1.8 0 0 1-.01-.44c0-.08 0-.16-.03-.23a.82.82 0 0 1-.04-.15c0-.05-.03-.1-.06-.15-.08-.12-.15-.2-.23-.26a1.01 1.01 0 0 1-.11-.1.8.8 0 0 0-.06-.05.12.12 0 0 1-.04-.06V5.2h.01l.01-.01h.3c.1.01.19.04.29.09.17.08.32.18.44.28.15.11.24.24.3.38.06.17.05.34-.04.52l-.06.15c0 .02-.02.03-.04.04-.08.03-.12.09-.13.17 0 .02-.01.04-.04.05h-.02a.05.05 0 0 1-.03 0 .04.04 0 0 1-.02-.03 16.94 16.94 0 0 0 0-.9c.01-.18-.09-.25-.18-.38-.05-.07-.14-.12-.21-.18l-.03-.02a.15.15 0 0 0-.09 0h-.01l-.01.01a.03.03 0 0 0 0 .03 4.76 4.76 0 0 1 .29.32.2.2 0 0 1 .01.1v.57c0 .06 0 .12-.02.18a.34.34 0 0 0 0 .17ZM9.65 6.18a.72.72 0 0 0-.14-.02c-.12 0-.18.07-.19.17a10.64 10.64 0 0 1-.05.5.05.05 0 0 0 .04.02.1.1 0 0 0 .05-.02h.03l.01.01v.03a.27.27 0 0 1-.12.1.1.1 0 0 1-.07 0 .1.1 0 0 1-.05-.05l-.19-.37c.04 0 .05 0 .06-.02a31.4 31.4 0 0 0 .06-.25.3.3 0 0 0 .05-.1.9.9 0 0 0 .02-.33l.01-.07c.03-.05.05-.1.06-.17l.02-.04c.06-.06.07-.15.13-.21l.08-.07a.1.1 0 0 1 .13 0c.02.02.03.04.02.08l-.01.02-.03.02a.1.1 0 0 0-.04.03.5.5 0 0 0-.12.28c-.02.08-.01.2 0 .37.01.02.02.03.04.03.09.01.16.03.2.06Z" fill="#84584D"/><path d="M8.14 6.52h.01c-.17.06-.17.5-.22.66 0-.05-.01-.1-.03-.13A.1.1 0 0 1 7.88 7a.77.77 0 0 1 0-.25c.06-.17.09-.32.1-.48 0-.08.02-.15.04-.2a7.93 7.93 0 0 0 .12-.23.06.06 0 0 0 .02-.05c0-.09.04-.16.12-.22l.29-.2a.1.1 0 0 1 .05 0h.02c.02 0 .04 0 .05-.02a.15.15 0 0 1 .1-.02h.02l.02.02a.04.04 0 0 1 0 .04.27.27 0 0 1-.16.11.08.08 0 0 0-.04.03.42.42 0 0 1-.14.12.06.06 0 0 0-.03.03.35.35 0 0 1-.1.15l-.12.12a.77.77 0 0 0-.12.55h.02ZM11.52 6.43l-.23.34-.02.01c-.03.02-.05.01-.05-.01h.02c.03-.01.04-.02.04-.04.01-.14.03-.25.08-.38a.77.77 0 0 0 0-.44 4.49 4.49 0 0 0-.14-.5c-.01-.03 0-.04.02-.03.05.02.09.05.12.09.03.05.06.1.08.17.08.23.1.47.06.71 0 .02 0 .03.02.04l.04.02v.01l-.04.01Z" fill="#9B7266"/><path d="M10.12 5.6a.3.3 0 0 0-.07-.09c-.03-.02-.04-.02-.04.02a1.53 1.53 0 0 0 .06.35c.02.05.03.1.02.16v.04l.03.15.02.15c.05.17.07.3.06.41a.55.55 0 0 1-.17.39.57.57 0 0 1-.4-.12c-.02-.02-.03-.04-.02-.07.02-.04.04-.05.08-.01.08.08.15.1.22.08.03 0 .04-.02.05-.04 0-.03 0-.07-.02-.11l.04.01.01-.02a.04.04 0 0 0 0-.04v-.01a.07.07 0 0 1-.03-.07v-.05l-.04-.06a.09.09 0 0 1-.01-.04.2.2 0 0 0-.05-.11.14.14 0 0 1-.03-.08c-.01-.09-.03-.17-.06-.25a.71.71 0 0 1-.06-.27c0-.17.04-.33.12-.47a.12.12 0 0 1 .07-.06h.09c.08.03.12.1.13.21Z" fill="#84584D"/><path d="M10.12 5.6a13.89 13.89 0 0 1 .2.7.4.4 0 0 1 .03.11c.01.1.02.2 0 .3l-.02.16.01.04c.04.03.04.06 0 .08l-.01.03c-.01.03-.03.05-.07.06l-.02.01v.02c0 .01 0 .02.02.02l.03.01a.71.71 0 0 1-.27.04c.1-.1.17-.23.18-.39 0-.1-.01-.24-.06-.4a.56.56 0 0 1-.02-.16c0-.05 0-.1-.03-.15v-.04a.3.3 0 0 0-.02-.16 1.5 1.5 0 0 1-.06-.35c0-.04.01-.04.04-.02a.3.3 0 0 1 .07.1Z" fill="#9B7266"/><path d="M7.53 6.92c-.23.3-.33.62-.29.98l.05.3a.21.21 0 0 1-.17-.12 1.8 1.8 0 0 1-.15-.35l-.02-.01V7.7a.2.2 0 0 0-.08-.14 18.88 18.88 0 0 0-.1-.5c-.03-.1-.01-.19-.03-.28a.9.9 0 0 1 0-.3c.01-.15.05-.32.1-.5.1-.27.6-.42.89-.46a.07.07 0 0 1 .05.01l.01.02v.03a.5.5 0 0 1-.02.18l-.05.16a5.18 5.18 0 0 1-.12.47 11 11 0 0 0-.07.44v.1ZM6.57 7.84c-.02 0-.03-.01-.05-.03H6.5v.05c.01.1-.01.18-.08.23a.95.95 0 0 0-.22.29.61.61 0 0 1-.12.15c-.06.05-.05.07.03.06.09-.02.2-.06.23.06l-1.08.32c.02-.14.1-.25.22-.31l.03-.03c.01-.02.02-.03.04-.03h.05l.14-.11.31-.32c.06-.05.1-.1.11-.17.04-.1.1-.14.11-.24V7a11.43 11.43 0 0 0 .02-.33.1.1 0 0 0-.06-.04c-.04 0-.06 0-.07.04a.74.74 0 0 0-.02.17c0 .02-.01.02-.02.02l-.02.01v.02c0 .18-.06.33-.08.5 0 .1-.05.2-.05.3a.7.7 0 0 1 0 .08c-.01.08-.04.08-.07.01a.57.57 0 0 1-.07-.33l.04-.7c0 .1 0 .2.02.29 0 .08.03.09.07 0a.7.7 0 0 0 .07-.3c0-.1.03-.18.1-.27a.08.08 0 0 0 0-.04c0-.03.01-.05.03-.08.06-.09.07-.25.06-.35 0-.02 0-.03-.02-.03l-.09-.02.27-.21c.05-.04.1-.06.16-.07h.02l.02.01v.04l-.18.54a.3.3 0 0 0 0 .21c.03.06.04.12.04.17l.04.46c0 .13.05.26.1.38v.04a.7.7 0 0 0 0 .31Z" fill="#84584D"/><path d="M7.07 7.89a.64.64 0 0 1-.06-.29l.02-.84c0-.18.02-.33.07-.45.08-.22.2-.45.4-.6h.05l.02.01v.02c0 .04 0 .08-.02.11-.08.18-.18.36-.3.55a.54.54 0 0 0-.08.23c-.05.42-.1.78-.03 1.18a.1.1 0 0 1-.01.08l-.02.01a.03.03 0 0 1-.03 0v-.01Z" fill="#9B7266"/><path d="m11.01 6.21-.04-.15a.35.35 0 0 1 0-.32l.01-.01a.04.04 0 0 1 .04 0h.02c.08.12.12.24.11.37l-.03.09c-.03.04-.07.05-.1.02Z" fill="#68473D"/><path d="M12.26 6.67c0-.03-.03-.05-.08-.05-.02 0-.03 0-.04.02a.6.6 0 0 1-.43.12h-.03l-.02-.03a.05.05 0 0 1 .01-.06.2.2 0 0 1 .08-.03v.03c-.01.02 0 .03.01.03h.08a4.61 4.61 0 0 1 .17-.16.56.56 0 0 0-.04-.4.58.58 0 0 1-.06-.2c0-.02 0-.03-.02-.04a.16.16 0 0 1-.03-.15c0-.02.01-.02.03-.01.06.04.1.1.1.18l.05.15.22.6Z" fill="#9B7266"/><path d="M5.65 6.37a.4.4 0 0 0-.3.15.35.35 0 0 0-.08.14 1.7 1.7 0 0 1-.26.6c-.14.24-.18.58-.18.86l-.01.02-.01.02c-.07.32-.1.64-.07.96l-.2.23a.1.1 0 0 0-.02.1c.06.13.14.25.25.35-.05 0-.08.04-.1.11a20.4 20.4 0 0 1-.03.71c0 .18.05.34.02.52-.03.11-.06.12-.12.02-.1-.19-.19-.4-.25-.62-.09-.32-.08-.68-.06-1 .01-.2-.01-.4.03-.58.04-.24.08-.46.16-.7.06-.16.1-.32.14-.48.05-.18.13-.34.2-.52.07-.2.17-.42.3-.62a.7.7 0 0 1 .1-.15 1 1 0 0 0 .22-.28l.03-.04c.05-.03.1-.07.12-.13.03-.09.07-.14.11-.17.06-.04.08-.02.07.04l-.06.46Z" fill="#84584D"/><path d="m8.93 6.5-.06-.07c0-.03-.01-.07-.05-.1l.1-.23.03-.2c.01-.02.03-.03.05 0l.02.01.02.04c-.02.16-.02.31 0 .47 0 .04 0 .06-.02.07-.02.03-.05.03-.1.02Z" fill="#68473D"/><path d="m6.1 5.96.09.02c.02 0 .02.01.03.03 0 .1 0 .26-.07.35a.12.12 0 0 0-.02.08c0 .01 0 .03-.02.04a.46.46 0 0 0-.09.27.7.7 0 0 1-.06.3c-.04.09-.07.08-.08 0a1.89 1.89 0 0 1-.02-.3c0-.22.04-.43.13-.64a90.78 90.78 0 0 0 .11-.15Z" fill="#9B7266"/><path d="m8.2 6.65-.05-.12-.01-.01a.39.39 0 0 1 .05-.24.1.1 0 0 0 .01-.05c0-.13.04-.21.1-.24.07-.03.1 0 .1.06 0 .18-.04.37-.12.58-.01.03-.04.03-.09.02Z" fill="#68473D"/><path d="m10.97 6.06.04.15c0 .04.01.08.04.1.01.02.02.01.03 0l.01-.02c0-.02.02-.02.05-.02.03 0 .05.03.05.07v.27c0 .06 0 .11.03.16 0 .02.02.03.05.01l.02-.01.23-.34c.04 0 .05.03.03.1 0 .02 0 .02.02 0a.23.23 0 0 0 .03-.03c.05-.06.15-.08.22-.04.01 0 .02 0 .03.02l.01.03v.03l-.02.03-.1.07a.2.2 0 0 0-.07.03l-.01.03v.03l.02.02.03.01a.6.6 0 0 0 .43-.12.07.07 0 0 1 .04-.02c.05 0 .07.02.08.05h.02l.02.1c0 .01 0 .02.02.03l.02.01h.03l.03-.01a.2.2 0 0 1 .1-.06c.03.04.07.1.14.14.02.02.02.04.02.07 0 .03-.02.04-.05.03a.16.16 0 0 1-.07-.06c-.01-.02-.02-.02-.03 0-.03.05-.02.1.01.16.02.01.03.02.05.01l.16-.02h.03l.02.02a.05.05 0 0 1 0 .05c-.04.08-.09.16-.05.26.03.06.1.08.15.14v.03l.03.16v.11c0 .1 0 .19-.02.3a.54.54 0 0 0 0 .21v.05l-.05.03c-.03 0-.05 0-.07-.04a.1.1 0 0 1 0-.08.17.17 0 0 0-.08-.2.1.1 0 0 0-.04-.02c-.12-.01-.14-.1-.15-.19l.01-.05a.1.1 0 0 0 0-.08v-.04c.03-.1.02-.16-.05-.17a.97.97 0 0 0-.57-.3c-.18-.03-.67-.03-.76.14v.03l.01.03c.05.04.11.05.18.04.24-.03.47-.03.7.01.08.01.2.07.34.17 0 .08-.04.11-.12.1a.96.96 0 0 0-.64-.08l-.08-.02c-.02 0-.03-.02-.03-.03 0-.04-.03-.05-.07-.05l-.16.05a.47.47 0 0 0-.14.09l-.2.18-.16.2a.42.42 0 0 0-.07.14l-.05.16-.07.51c-.02.05-.05.08-.1.08h-.06a.54.54 0 0 1-.23 0 .45.45 0 0 0-.28.01 3.26 3.26 0 0 1-.37.1.58.58 0 0 1-.17.11c-.02-.16-.03-.34-.1-.48-.23-.46-.83-.55-1.26-.25-.33.22-.59.4-.59.83l.01.02.02.02h.03l.02-.02.02-.02c.07.12.14.26.22.36.13.15.28.27.46.36-.01.03.02.08.1.14-.03.01-.02.03.03.05.05.02.12 0 .17 0 .02 0 .04 0 .05.02.04.03.08.05.13.06l.05.02c.03.04.08.06.13.05.05 0 .1 0 .15.02h.06a.92.92 0 0 0 .4-.14c.15-.1.3-.17.45-.22a22.42 22.42 0 0 1 .46-.12h.04a.49.49 0 0 1 .39-.02l.03.03.02.02v.08l.03.04.14.1c.08.04.15.12.12.21-.03.12-.05.24-.05.36 0 .02 0 .04-.02.05l-.18.16a.5.5 0 0 1-.23.11 1.1 1.1 0 0 1-.4.03h-.2c-.1.01-.19 0-.26-.03a.34.34 0 0 0-.17-.03h-.19c-.08 0-.15.04-.22.07a.1.1 0 0 1-.05 0H9c0-.02-.01-.02-.02-.02-.1 0-.2-.01-.3-.04l-.02-.01-.02-.02a.05.05 0 0 0-.05-.04h-.03a.2.2 0 0 0-.11-.04.1.1 0 0 1-.05-.01 66.23 66.23 0 0 0-.61-.42 2.57 2.57 0 0 1-.23-.15.14.14 0 0 1-.06-.1 2.37 2.37 0 0 1-.03-.29 5.2 5.2 0 0 1-.18-.71.83.83 0 0 1-.04-.08c-.06-.13-.17-.06-.28-.08H6.9a.12.12 0 0 0-.06.06l-.07.16a.22.22 0 0 0 0 .15 1.96 1.96 0 0 1 .07.38l.01.08a.1.1 0 0 1 .02.05c0 .14-.18.15-.29.1a2.04 2.04 0 0 0-.21-.05c-.03 0-.07 0-.1-.02-.19-.04-.35-.1-.5-.16-.05-.02-.09-.07-.14-.08-.12-.02-.17-.15-.26-.21a1.35 1.35 0 0 1-.11-.08c-.04-.02-.04-.05.01-.06l.05-.01c.04-.02.08-.01.12.02.06.04.13.07.22.07a.9.9 0 0 0 .25-.04l.41-.13a.16.16 0 0 0 .08-.05c.02-.02.01-.03-.01-.03a.13.13 0 0 0-.09.04.07.07 0 0 1-.04.02.42.42 0 0 0-.11.04.34.34 0 0 1-.12.02c-.08 0-.16.02-.24.05-.1.03-.16.02-.23-.04l-.01-.03v-.03c.08-.09.17-.12.27-.1 0 0 .02 0 .02-.02h.02c.13-.03.26-.04.37-.03.08.01.14 0 .2-.03s.1-.1.11-.17c.01-.05 0-.1-.02-.15v-.05c.05-.07.04-.13-.03-.18.15-.12.16-.24.2-.4.02-.1.08-.1.18-.1.08.03.16.06.24.11a.3.3 0 0 0 .1.04c.08.02.1 0 .09-.04l-.05-.3c-.04-.36.06-.68.3-.98.08.1.14.2.18.3.03.07.07.12.12.14h.03l.06-.18c.05-.16.06-.6.22-.65l.04.12c.09.09.16.1.15.24 0 .02-.01.03-.03.04-.04.02-.09 0-.11-.03a.17.17 0 0 0-.06-.06c-.02-.01-.04 0-.04.01a.2.2 0 0 0 .18.29c.2.01.36-.06.45-.22a.27.27 0 0 0 .03-.16c-.01-.1 0-.21.04-.32l.02-.02.05.01.06.08.05.04.18.37a.1.1 0 0 0 .05.05.1.1 0 0 0 .08 0 .27.27 0 0 0 .1-.1c.02 0 .02-.02.02-.03l-.02-.01h-.03a.1.1 0 0 1-.05.02.05.05 0 0 1-.04-.02v-.01l-.01-.02.06-.47c.01-.1.07-.18.19-.17.05 0 .1 0 .14.02a1 1 0 0 0 .01.31c.05.13.14.27.28.42.02.04.02.08.02.11-.01.02-.02.04-.05.04-.07.02-.14 0-.22-.08-.04-.04-.06-.03-.08.01 0 .03 0 .05.03.07.09.08.22.12.39.12.07 0 .16 0 .26-.04.25-.12.21-.48.15-.68l.01-.05.01-.01a.03.03 0 0 1 .02 0h.01l.35.36a.4.4 0 0 0 .13.07c.02 0 .02 0 .02-.02-.07-.28-.1-.52-.09-.72 0-.03.03-.04.07-.03Z" fill="#D8D5B6"/><path d="M5.65 6.37a658.76 658.76 0 0 1-.29 1.43c-.02.16-.06.32-.12.49-.06.2-.18.36-.25.55a.27.27 0 0 0-.01.2.77.77 0 0 0-.24.08 3.36 3.36 0 0 1 .08-.98v-.02a1.77 1.77 0 0 1 .31-1.08c.07-.12.1-.25.14-.38l.07-.14a.4.4 0 0 1 .31-.15Z" fill="#9B7266"/><path d="M13.23 7.58a.8.8 0 0 1-.2.15c-.05.01-.07-.02-.06-.08a.2.2 0 0 1 .02-.08c.15-.25.08-.52.02-.79 0-.03 0-.06.03-.08l.01-.01a.04.04 0 0 1 .04 0l.01.02c.03.07.08.12.1.2.03.13.04.26.03.4l-.04.12c-.04.09-.02.13.04.15Z" fill="#84584D"/><path d="M12.46 7.56c.03.03.04.06.04.09s-.02.05-.05.06l-.1-.03a.9.9 0 0 0-.33-.17 2.35 2.35 0 0 0-.7-.01c-.07 0-.13 0-.18-.04a.05.05 0 0 1-.02-.03V7.4c.1-.17.6-.17.77-.14.23.03.42.14.57.3ZM7.93 7.53c.28-.11.73.02.98.19.03.02.04.05.01.09l-.02.01h-.03c-.31-.03-.61-.15-.93-.08-.21.05-.35.3-.43.48l-.01.02-.02.02a.1.1 0 0 1-.07 0c-.03-.01-.04-.03-.03-.05.03-.1.02-.21.09-.3.13-.18.29-.3.46-.38Z" fill="#050404"/><path d="M12.46 7.56c.06 0 .08.06.05.17v.04a.1.1 0 0 1 0 .08l-.01.05c0 .1.03.18.15.19a.1.1 0 0 1 .04.01c.08.05.1.13.08.2a.1.1 0 0 0 0 .09c.01.03.04.04.07.04.02 0 .03-.02.04-.03l.01-.05a.54.54 0 0 1 0-.21l.03-.3a3.35 3.35 0 0 1-.02.64 5.28 5.28 0 0 1-.22 1.34.35.35 0 0 1-.07.12l-.23.47c-.26.35-.59.64-1 .85l-.22.1a2.37 2.37 0 0 1-.73.28l-.01.03.02.21c-.01.1 0 .2.15.18h.34l-.26.02h-.04a.1.1 0 0 0-.04.03.1.1 0 0 0-.02.08c.02.11 0 .23-.03.36a.3.3 0 0 1-.16.18.88.88 0 0 1-.33.1c-.18.02-.4 0-.63-.03a.8.8 0 0 1-.5-.3c.1.04.2.07.27.08.05 0 .09 0 .12-.02l.13-.09a.23.23 0 0 1 .07-.04l.1-.03a.1.1 0 0 0 .03-.03.1.1 0 0 1 .06-.03l.03-.01.02-.03a.07.07 0 0 0 .01-.05.3.3 0 0 1 0-.19.3.3 0 0 0 .02-.17.2.2 0 0 0-.1-.12.1.1 0 0 1-.03-.05.08.08 0 0 0-.07-.05 4.89 4.89 0 0 1-.66-.1l-.74-.23c-.24-.11-.48-.22-.74-.3-.65-.22-1.28-.46-1.91-.7-.13-.06-.24-.13-.36-.2-.15-.1-.28-.2-.4-.34-.1-.1-.19-.22-.24-.35a.1.1 0 0 1 .01-.1l.2-.23a.77.77 0 0 1 .24-.08l.27-.07 1.08-.32.15-.06c.07.05.08.11.04.18a.05.05 0 0 0 0 .05c.01.05.02.1.01.15a.22.22 0 0 1-.11.17.34.34 0 0 1-.2.03 1.4 1.4 0 0 0-.37.02l-.02.01-.02.02c-.1-.02-.2.01-.27.1v.06c.08.06.15.07.24.04.08-.03.16-.04.24-.05.04 0 .08 0 .11-.02a.42.42 0 0 1 .12-.04c.01 0 .03 0 .04-.02a.13.13 0 0 1 .09-.04c.02 0 .03 0 .01.03a.16.16 0 0 1-.08.05l-.41.13a.9.9 0 0 1-.25.04.35.35 0 0 1-.22-.07.13.13 0 0 0-.13-.02h-.04c-.05.02-.05.04-.01.07l.1.08c.1.06.15.19.27.21.05.01.09.06.14.08a3.68 3.68 0 0 0 .81.24c.11.04.28.03.29-.11a.1.1 0 0 0-.02-.05.11.11 0 0 1-.01-.08 1.95 1.95 0 0 0-.07-.39.22.22 0 0 1 0-.14l.07-.16a.12.12 0 0 1 .06-.05.13.13 0 0 1 .07-.01c.1.02.22-.05.28.08l.04.08.01.04a5.2 5.2 0 0 0 .18.71c0 .09 0 .17.02.25 0 .05.03.08.06.1l.23.14.2.14a66.23 66.23 0 0 1 .4.29.1.1 0 0 0 .06 0 .2.2 0 0 1 .1.04l.04.01c.03 0 .04.02.05.04l.02.02h.02c.09.04.19.05.3.05l.02.01v.01h.18a.1.1 0 0 0 .05 0c.07-.03.14-.07.22-.07h.2c.05 0 .1 0 .16.03.07.03.16.04.26.03h.2c.14.02.27 0 .4-.03a.5.5 0 0 0 .23-.11l.17-.16a.06.06 0 0 0 .03-.05c0-.12.02-.24.05-.36.03-.1-.04-.17-.12-.22a.71.71 0 0 1-.14-.1.06.06 0 0 1-.02-.03l-.01-.08v-.02h.02l.07.1.08.1.1.05c.02.01.03 0 .02-.02l-.03-.07c0-.03 0-.04.02-.05.08-.04.16-.06.21-.14a.07.07 0 0 1 .04-.03H11.55v.01l.01.02c.02.03.03.02.03 0s0-.03.02-.04c.08-.07.18-.1.29-.1.02 0 .03-.01.04-.03l.01-.05c.09.04.14.03.16-.03.02-.05-.02-.07-.13-.07h.1c.23-.32.35-.66.37-1.03.04.01.07 0 .06-.06V8.5a1.9 1.9 0 0 0-.25-.52.07.07 0 0 1-.02-.04l.02-.03c.03 0 .04-.02.02-.05l-.04-.06c.08 0 .11-.04.11-.11l.1.03c.03 0 .05-.03.05-.06s-.01-.06-.04-.09Z" fill="#CCC4A7"/><path d="M11.6 7.7a1.2 1.2 0 0 0-.36.21c-.04.04-.05.07-.01.1a.04.04 0 0 0 .04 0l.24-.15c.03 0 .05 0 .05.02-.44.3-.56.79-.42 1.25l-.01.02c-.02.02-.03.02-.02 0v-.02h-.02l-.01.04c0 .01-.02.02-.03 0h-.02a.04.04 0 0 1-.02-.04c0-.02 0-.04-.02-.06a.03.03 0 0 0-.04-.01.4.4 0 0 1-.18 0h-.05l-.06.04h-.04c-.04-.04-.06-.1-.05-.17a10.22 10.22 0 0 1 .12-.67c.01-.05.04-.1.07-.14.06-.07.1-.15.16-.2l.2-.18a.47.47 0 0 1 .14-.1l.16-.04c.04 0 .06.01.07.05l.03.03.08.02Z" fill="#CCC4A7"/><path d="m12.24 7.79.04.06c.02.03.01.04-.02.05l-.02.03a1.9 1.9 0 0 1 .27.57c0 .05-.02.07-.07.06a.22.22 0 0 0-.05-.08l-.03.01-.07.48c-.03.2-.14.41-.31.62.1 0 .15.02.13.07-.02.06-.07.07-.16.03a2.6 2.6 0 0 1-.67-.3.31.31 0 0 1-.14-.26c-.14-.46-.02-.96.42-1.25a.97.97 0 0 1 .4-.06V7.8l-.01-.02a.6.6 0 0 0-.44.08l-.24.15h-.05c-.03-.03-.02-.07.02-.1.1-.1.23-.16.36-.21a.96.96 0 0 1 .64.09Z" fill="#050404"/><path d="M11.56 7.88c0-.01-.02-.02-.05-.02a.6.6 0 0 1 .44-.08c.01 0 .02.01.01.02v.02a.97.97 0 0 0-.4.06Z" fill="#696868"/><path d="M6.57 7.84c.04.15.14.23.29.25-.1 0-.16 0-.18.1-.04.16-.05.28-.2.4l-.15.06c-.03-.12-.14-.08-.23-.06-.08 0-.09-.01-.03-.06l.12-.15a.95.95 0 0 1 .22-.29c.07-.05.1-.13.07-.23v-.04l.02-.02h.02c.02.03.03.04.05.04Z" fill="#9B7266"/><path d="M11.52 8.26c0 .11.07.2.14.2.07-.01.12-.1.11-.22 0-.1-.07-.2-.14-.19-.07 0-.12.1-.11.21Z" fill="#E9E9E9"/><path d="M9.06 8.24c-.4-.07-.83.02-1.17.25-.03.02-.06.01-.08 0l-.01-.02a.02.02 0 0 1 0-.03c.35-.3.85-.38 1.3-.31.03 0 .05.01.05.04v.02c-.01.04-.04.05-.09.05Z" fill="#050404"/><path d="M12.15 9.05c0 .02-.01.02-.03.02l-.03-.02c-.02-.01-.03-.03-.02-.06.1-.27.14-.55.13-.85l.01-.01h.02l.02.01c.02.3 0 .6-.1.91Z" fill="#50556F"/><path d="M9.36 9.23c.01.32-.15.7-.47.84-.2.1-.4.13-.6.12-.08-.06-.11-.1-.1-.14a.26.26 0 0 1 .07-.02c.1.02.1 0 .02-.04-.37-.19-.57-.49-.61-.9 0-.04-.02-.05-.04-.02a.65.65 0 0 0-.12.26l-.02.02-.02.02h-.03l-.02-.02-.01-.02c0-.43.26-.6.59-.83.42-.3 1.03-.21 1.26.25.07.14.08.32.1.48Z" fill="#050404"/><path d="M12.45 8.56c-.02.37-.14.71-.36 1.02-.01.01-.05.02-.11.01.18-.2.28-.41.31-.62a80.1 80.1 0 0 0 .1-.49l.06.08ZM8.08 8.66l.24-.08c.05-.02.07 0 .08.05v.07c0 .05-.03.08-.08.08-.08.02-.16-.01-.24-.09-.02-.01-.02-.03 0-.03Z" fill="#E9E9E9"/><path d="M11.32 8.68c.03.17.08.33.16.45.09.14.2.19.31.15a.14.14 0 0 1 .12.02c.02 0 .03.02.04.04.01.02.02.04.01.06 0 .04-.02.08-.06.12a.13.13 0 0 1-.15.01 6.17 6.17 0 0 0-.37-.2c-.17-.08-.15-.53-.12-.65.02-.13.04-.13.06 0ZM8.68 9.65a.18.18 0 0 1 .08-.03c.02 0 .03 0 .04.02 0 .1.04.16.1.21.02.02.02.03 0 .05-.1.08-.28.15-.4.07a.63.63 0 0 0-.12-.07.73.73 0 0 1-.4-.35c-.1-.17-.2-.45-.15-.64.02-.09.04-.09.07 0 .07.2.16.37.28.54.1.14.26.2.46.2h.04Z" fill="#50556F"/><path d="M10.57 8.93c-.01.07 0 .13.05.17h.04l.06-.03h.05a.4.4 0 0 0 .18-.01l.04.01c.02.02.03.04.02.06 0 .02 0 .03.02.03l.02.02.03-.01.01-.04h.02v.01c0 .03 0 .03.02.01l.01-.02c.01.11.06.2.15.25.19.13.4.23.66.3l-.01.06-.04.03c-.1 0-.2.03-.29.1a.05.05 0 0 0-.02.03c0 .03-.01.03-.03.01V9.9l-.01-.01H11.38a.07.07 0 0 0-.04.03c-.05.08-.13.1-.21.14-.02 0-.03.02-.02.05l.03.07c.01.02 0 .03-.02.02a.61.61 0 0 1-.1-.06.25.25 0 0 1-.08-.09.49.49 0 0 0-.07-.1h-.02v.02l-.02-.02a.07.07 0 0 0-.03-.03.49.49 0 0 0-.39.02H10.3l-.39.12c-.15.05-.3.12-.45.22a.92.92 0 0 1-.4.14H9a.39.39 0 0 0-.15-.02.15.15 0 0 1-.13-.05.08.08 0 0 0-.05-.02.27.27 0 0 1-.13-.06.07.07 0 0 0-.05-.02c-.06 0-.12.02-.17 0-.05-.02-.06-.04-.04-.05.21.01.42-.03.61-.12.32-.14.48-.52.47-.84a.58.58 0 0 0 .18-.11 3.27 3.27 0 0 0 .37-.1.45.45 0 0 1 .27 0c.08.01.15 0 .23-.01h.07c.04 0 .07-.03.09-.08Z" fill="#E0C3B1"/><path d="M9.2 9.54h-.03a.52.52 0 0 0-.09-.15.07.07 0 0 1-.01-.07.86.86 0 0 0 .05-.25c0-.08.02-.08.05-.01.05.13.06.3.02.48Z" fill="#50556F"/><path d="M11.95 9.21c.02.04.06.07.09.06.03 0 .04-.05.03-.1-.02-.04-.05-.06-.09-.05-.03 0-.04.05-.03.1Z" fill="#D8D5B6"/><path d="M8.91 9.62c0 .07.04.12.08.12.03 0 .06-.06.05-.13 0-.07-.04-.12-.07-.12-.04 0-.06.06-.06.13Z" fill="#E9E9E9"/><path d="M12.61 9.94c.04.03.08.05.1.08.03.03.05.06.05.1.01.15.05.27.1.36a2.83 2.83 0 0 1 .29.52c.05.1.08.2.11.31l.15.45c.03.08.07.16.12.22-.03.03-.01.06.06.08h.08c.11-.03.17-.1.16-.2 0-.03.01-.04.03-.06a.03.03 0 0 1 .03 0c.02 0 .04.01.05.03.03.07.03.16-.03.22-.1.08-.15.18-.3.16l-.29-.06a.32.32 0 0 1-.23-.16 2.57 2.57 0 0 1-.3-.78c-.04-.1-.1-.2-.1-.31a.85.85 0 0 0-.03-.18c0-.01-.01-.02-.03 0v.02c-.01.15.01.3.06.45.05.15.1.29.17.44a3.15 3.15 0 0 0 .24.49v.02a.12.12 0 0 1-.18.04c-.13-.1-.22-.18-.28-.26a.67.67 0 0 1-.09-.14c-.05-.1-.14-.2-.15-.32-.01-.13 0-.27.03-.42l.03-.28a16.6 16.6 0 0 1 .02-.31.14.14 0 0 0 .06-.15c0-.02-.01-.02-.03 0l-.13.11.23-.47Z" fill="#84584D"/><path d="M5.17 10.13c.12.08.23.15.36.2.63.25 1.26.49 1.9.7.27.09.5.2.75.31.03.1.03.2.02.3-.03.14-.23.17-.34.2-.2.07-.36.18-.56.23-.02-.08-.09-.14-.2-.16a.49.49 0 0 1-.24-.14l-.15-.17a.55.55 0 0 0-.18-.13.86.86 0 0 1-.3-.27.07.07 0 0 1-.02-.04l-.01-.04-.1-.1a.06.06 0 0 1-.02-.05c0-.06-.01-.13-.06-.17a1.83 1.83 0 0 1-.12-.11.36.36 0 0 0-.11-.08l-.3-.12a1.38 1.38 0 0 1-.43-.28c-.02-.02-.02-.04 0-.06a.05.05 0 0 1 .04-.01h.07Z" fill="#68473D"/><path d="M13.53 11.98c.18.1.22-.09.27-.2l.02-.02.03-.02a.1.1 0 0 1 .07 0c.06.04.09.09.08.15-.04.42-.46.42-.8.3h-.05c-.1.06-.14.15-.28.13a.99.99 0 0 0-.48.03c-.22.07-.4-.03-.6-.05l-.51-.18-.35-.05-.34-.01.13-.04c.02 0 .02-.02.02-.03l-.02-.11c0-.02-.02-.03-.04-.04a.45.45 0 0 1-.17-.1c-.05-.05-.07-.04-.07.02v.12l-.02-.21v-.03l.03-.01c.26-.05.5-.14.71-.27l.22-.1c.41-.21.74-.5 1-.85l.13-.12c.02-.01.03-.01.03.01.01.06 0 .11-.05.15l-.02.02v.03l-.01.26-.03.28c-.03.15-.04.29-.03.42.01.13.1.21.15.32l.09.14c.06.08.15.17.28.26.06.06.15.03.18-.04a.05.05 0 0 0 0-.05c-.1-.14-.17-.3-.24-.46l-.17-.44c-.05-.15-.07-.3-.07-.45 0-.01 0-.02.02-.03l.02.01.03.18c0 .1.06.2.1.31l.04.15c.05.2.14.41.26.63.05.09.12.14.23.16l.3.06c.14.02.2-.08.29-.16a.18.18 0 0 0 .03-.22.07.07 0 0 0-.05-.04l-.03.01a.07.07 0 0 0-.02.06c0 .1-.05.17-.16.2h-.1c-.06-.02-.08-.05-.05-.08Z" fill="#764D40"/><path d="m5.75 12.3-.01.01h-.01l-.22.01a10.85 10.85 0 0 1-.35.07.64.64 0 0 1-.37-.05c-.09-.03-.16-.03-.25-.03-.1 0-.1-.02-.02-.07a.1.1 0 0 1 .03-.01c.02 0 .03 0 .04-.02.01 0 .02-.01.02-.03l.03-.13a.02.02 0 0 1 .03-.01l.17.19a.03.03 0 0 0 .03 0l.02-.01v-.02c-.08-.1-.19-.17-.24-.3-.1-.2-.15-.42-.15-.64 0-.06.01-.06.05-.02.08.08.16.15.22.26a4.56 4.56 0 0 0 .54.78h.03v-.02a.02.02 0 0 0 .02 0 .02.02 0 0 0 0-.02 2.6 2.6 0 0 1-.2-.28.72.72 0 0 1-.1-.4c.01-.04.04-.06.1-.04.03 0 .05.02.06.03a3.35 3.35 0 0 0 .09.28c.06.2.38.24.46.44 0 .02 0 .03-.02.03Z" fill="#84584D"/><path d="M8.92 11.57c.18.04.4.08.66.1.03 0 .05.02.07.05 0 .02.02.04.04.05a.2.2 0 0 1 .09.12.3.3 0 0 1-.01.17.3.3 0 0 0 0 .19.07.07 0 0 1-.02.05c0 .01 0 .02-.02.03H9.7a.1.1 0 0 0-.06.04.1.1 0 0 1-.04.03l-.09.03a.23.23 0 0 0-.07.04 1.8 1.8 0 0 1-.13.09c-.03.02-.07.02-.12.02a1.24 1.24 0 0 1-.27-.08.74.74 0 0 1-.2-.4c.04 0 .1-.02.15-.05h.04v.02c-.01.03-.01.05.01.07.03.03.07.03.1.01a42.8 42.8 0 0 1 .18-.07v.01c.02.03.03.03.04 0l.08-.16c0-.03 0-.03-.03-.02-.03 0-.04.03-.04.07 0 .02 0 .03-.03.03a.15.15 0 0 1-.16-.07.26.26 0 0 0 .07-.12v-.04l-.02-.01a.04.04 0 0 1-.01-.05c0-.02.02-.04.04-.05.03-.02.03-.03 0-.03H9.1c-.07.07-.17.21-.12.3l.06.09a.03.03 0 0 1 0 .03l-.01.01h-.07c-.03 0-.04-.01-.04-.04l-.01-.46Z" fill="#B2A98B"/><path d="M9.06 11.94a.08.08 0 0 1-.07 0c-.05-.09.05-.23.12-.3h.03c.03 0 .03.01 0 .03a.08.08 0 0 0-.04.05c0 .02 0 .04.02.05v.01c.02.01.02.03.01.04a.26.26 0 0 1-.07.12Z" fill="#68473D"/><path d="M10.59 12.06c-.14.02-.16-.07-.15-.18v-.12c0-.06.02-.07.07-.02.05.04.1.08.17.1.02 0 .04.02.04.04l.02.1c0 .02 0 .04-.02.04l-.13.04Z" fill="#050404"/><path d="M8.71 12.1c.03.17.1.3.2.4a.8.8 0 0 0 .51.3c.24.04.45.05.63.03.1 0 .21-.04.33-.1a.3.3 0 0 0 .16-.18.82.82 0 0 0 .03-.36.1.1 0 0 1 .02-.08.1.1 0 0 1 .08-.03l.26-.01.34.05.09 1.88H8.08c0-.1.02-.21.04-.32.02-.1.02-.3-.01-.63a2.9 2.9 0 0 0-.07-.45l-.13-.44c.24-.09.5-.1.8-.06Z" fill="#E9E9E9"/><path d="m11.28 12.12.5.18c.25.2.42.45.52.74a27.73 27.73 0 0 1 .27.94l-.02.01h-.01l-1.18.01-.08-1.88ZM7.91 12.16l.12.44c.04.15.07.3.08.45a2.85 2.85 0 0 1-.03.95h-1.3c-.03 0-.04-.01-.03-.03.09-.44.16-.85.36-1.28a.81.81 0 0 1 .43-.4c.2-.06.32-.1.37-.13Z" fill="#CCC4A7"/><path d="M10.8 12.38c-.09 0-.13-.05-.1-.12 0-.03.01-.03.02 0 .01.02.03.02.06.02s.05 0 .05.03v.04c.01.02 0 .03-.02.03Z" fill="#696868"/><path d="M8.53 12.44c-.02 0-.03.01-.02.02-.05-.03-.07-.08-.05-.12v-.02c-.01-.02 0-.03.02-.03h.17c.03-.01.04 0 .03.03v.02c-.02.03-.04.04-.07.03-.06 0-.1.02-.08.07Z" fill="#050404"/><path d="m8.5 12.46.03-.02v.02h.03l.02-.02c0-.02.02-.02.03-.01.03.01.06 0 .09-.01.01-.01.02 0 .03.01v.06l-.03.01c-.06-.03-.11 0-.14.06v.02l.01.01h.01l.06-.02.05.01.23.2c.02.02.02.04 0 .04a.12.12 0 0 0-.08.05h-.01a.04.04 0 0 1-.03 0h-.02l-.01-.02c-.01-.03 0-.04.03-.04 0-.02 0-.03-.02-.02-.03.02-.05.01-.06-.01 0-.02-.02-.02-.03-.02a.1.1 0 0 1-.06 0c-.02-.02-.02-.03 0-.04l.07-.03c.02-.01.02-.02 0-.04 0-.02-.02-.03-.05-.03 0 0-.02 0-.03.02H8.6c-.02.02-.04.02-.06 0a.17.17 0 0 1-.04-.18ZM10.7 12.43h.02l.06.01a.08.08 0 0 1 .06.07l-.01.03a.09.09 0 0 1-.08.07h-.03l-.06-.03v-.02l.04-.13ZM10.58 12.9a.1.1 0 0 0-.04-.05.04.04 0 0 0-.04 0l-.01.01-.01.02c-.01.03 0 .06.03.07.02 0 .02.02.01.03V13c0 .02-.02.02-.03.01a.32.32 0 0 1-.09-.07v-.04a.17.17 0 0 0 .1-.13c0-.01 0-.02.02-.02h.03l.02.03c0 .04.02.07.06.08h.01l.01.01v.02c0 .02-.01.02-.02.03a.03.03 0 0 1-.03 0h-.01ZM9.1 12.87c.01-.02.03-.03.06-.02h.02v.04l-.01.02a.12.12 0 0 0-.06.1l-.01.02h-.08L9 13.01a.03.03 0 0 1 0-.03.34.34 0 0 0 .1-.12ZM10.17 12.92h-.01a.02.02 0 0 0-.01.04l.06.14c0 .01.02.02.03.01h.02v-.03l-.06-.15a.02.02 0 0 0-.03 0ZM9.28 12.98c-.05.02-.06.07-.07.1 0 .02-.02.03-.03.03h-.02c-.01-.01-.02-.02-.01-.03a.38.38 0 0 1 .08-.13.04.04 0 0 1 .04-.01c.03.02.03.03 0 .04ZM10.05 13.04a.1.1 0 0 0 0-.06c-.02-.03-.01-.04.01-.04s.03 0 .04.02l.01.03c0 .04.02.07.04.1.02.02.01.03-.01.04a.1.1 0 0 1-.07 0h-.03l-.1.04a.03.03 0 0 1-.03 0l-.01-.02v-.02l.02-.07c0-.02.02-.03.03-.03.03-.02.06 0 .07.02h.03ZM9.76 13.13a.12.12 0 0 1 .06-.05c.02 0 .03 0 .04.02l.02.03c.01.02 0 .03-.01.04a.32.32 0 0 1-.23.03.1.1 0 0 1-.07-.05.1.1 0 0 1 0-.09c.05-.1.14-.12.27-.08.05.01.05.03 0 .04a.23.23 0 0 0-.1.05h-.03v-.02c-.01-.03-.03-.03-.04-.01l-.01.01v.03a.2.2 0 0 0 .05.06.03.03 0 0 0 .05 0ZM9.28 13.1a.07.07 0 0 0 .04-.09v-.02a.02.02 0 0 1 .03 0l.08.02c.02 0 .02.02.02.03l-.04.1-.01.02a.05.05 0 0 1-.04.01h-.02l-.05-.02c-.04-.02-.04-.04 0-.06Z" fill="#696868"/></svg>