<!-- by TradingView --><svg width="18" height="18" viewBox="0 0 18 18" xmlns="http://www.w3.org/2000/svg"><path fill="#DF1E0B" d="M0 0h18v18H0z"/><circle cx="9" cy="9" r="4" fill="#EF6050"/><circle cx="9" cy="9" r="2.67" fill="#F37363"/><circle cx="9" cy="9" r="1.33" fill="#F68072"/><path fill-rule="evenodd" d="M5.39 4.88A2.79 2.79 0 0 0 5 6.2c0 .55.16 1.41.33 2.21.07.37.17.74.26 1.1l.23.98h2c.16-.6.3-1.21.43-1.82.2-.9.4-1.92.4-2.48 0-.3-.12-.84-.4-1.31C7.97 4.41 7.52 4 6.82 4s-1.15.4-1.43.88ZM7.1 9.89c-.06.32-.07.4-.47.4-.26-1.1-.48-2.22-.67-3.33-.1-.57-.18-1.12.14-1.64.17-.27.4-.38.72-.38.31 0 .55.13.72.42.32.55.24 1.06.13 1.65A97.93 97.93 0 0 1 7.1 9.9Zm.84-2.83c-.18 1-.5 2.55-.63 3.14h.3c.08-.27.23-.9.38-1.6.2-.9.38-1.89.38-2.4 0-.26-.1-.75-.34-1.17-.25-.41-.63-.74-1.2-.74-.59 0-.97.33-1.22.74a2.5 2.5 0 0 0-.34 1.16c0 1.05.27 2.11.54 3.14a82 82 0 0 1 .21.86c.01.02.18.01.27.01h.04l-.08-.4c-.16-.7-.4-1.86-.54-2.69-.11-.67-.22-1.32.17-1.93a1.08 1.08 0 0 1 1.89.04c.36.6.28 1.19.17 1.84Z"/><path d="M5.79 10h1.03v3.41H6.3l-.51-3.4Z" fill="#9F9F9F"/><path fill-rule="evenodd" d="m5.79 10 .51 3.5h.52V10H5.79Zm.11.1.48 3.3h.44v-3.3H5.9Z"/><path d="M7.85 10H6.82v3.4h.51l.52-3.4Z" fill="#9F9F9F"/><path fill-rule="evenodd" d="m7.85 10-.52 3.5h-.51V10h1.03Zm-.12.1-.47 3.3h-.44v-3.3h.91Z"/><path d="M7.13 13.41h-.61v.43h.6v-.43Zm.15 0V14h-.93v-.59h.93ZM11.8 11.74h-.61v2.06h.62v-2.06Zm.2-.1V14h-1v-2.35h1Z"/><path fill-rule="evenodd" d="M12.25 9.92c0-.46-.3-.7-.75-.7-.46 0-.72.23-.72.7 0 .24.1.59.26.87.08.14.06.26.16.35.1.08.2.13.3.13.1 0 .2-.05.3-.13.1-.09.1-.21.18-.35.17-.29.27-.63.27-.87Zm.18 0a.93.93 0 0 0-1.86 0c0 .52.42 1.43.93 1.43s.93-.92.93-1.43Z"/><path d="M10.95 10.91h.51v1.03h-.5l-.18-.3v-.43l.17-.3Z" fill="#9F9F9F"/><path d="M11.97 10.91h-.5v1.03h.5l.17-.3v-.43l-.17-.3Z" fill="#B8B8B8"/><path d="M10.22 5.47h.35l.78 1.08-.54.12s-.65-1-.6-1.2Z" fill="#F0A32F"/><path fill-rule="evenodd" d="M10.22 5.54v.02c.07.3.59 1.1.6 1.1l.53-.11-.78-1.08h-.35v.07Zm.3.02h-.2a4.5 4.5 0 0 0 .54 1l.33-.07-.67-.93Z"/><path d="M10.21 5.03h.56c.17-.37.56-.44.84-.44.41 0 .83.24.83.75 0 .43-.53.89-1.06.99-.66.12-.7.22-.7.43.01.2.1.62.27.76.07.06.05.48.05.48h1l.03-.43s.25-.15.28-.9c.32-.45.69-.46.69-1.36C13 4.46 12.16 4 11.6 4c-.55 0-1.1.24-1.39 1.03Z" fill="#F0A32F"/><path fill-rule="evenodd" d="M10.97 8H12l.03-.43s.3-.12.34-.86c.09-.13.1-.23.2-.33.24-.23.43-.43.43-1.07C13 4.46 12.16 4 11.6 4c-.53 0-1.05.22-1.35.94l-.04.09h.56c.17-.37.56-.44.84-.44.41 0 .83.24.83.75 0 .43-.52.84-1.05.95-.66.12-.75.2-.75.4.01.21.04.66.22.8.07.06.11.51.11.51Zm-.25-3.06c.2-.37.61-.44.89-.44.22 0 .45.06.62.2.18.14.3.36.3.64 0 .6-.62.93-1.13 1.03-.33.07-.5.12-.6.17-.08.05-.07.07-.07.15 0 .15.02.44.1.61.04.1.12.15.15.24.05.12.03.24.06.37h.89l.02-.4a.33.33 0 0 0 .17-.14c.07-.1.15-.3.16-.67.04-.1.11-.26.2-.34.29-.28.44-.64.44-1.05 0-.39-.2-.7-.46-.9-.26-.21-.6-.32-.85-.32-.27 0-.53.06-.75.2-.2.14-.38.34-.52.65h.38Z"/><path d="M11.48 9.88c.27 0 .52-.14.52-.44V8h-1.02v1.44c0 .3.24.44.5.44Z" fill="#F89202"/></svg>