<!-- by TradingView --><svg width="18" height="18" viewBox="0 0 18 18" xmlns="http://www.w3.org/2000/svg"><path fill="#F0F3FA" d="M0 0h18v18H0z"/><path d="M5.7 5c.02-.82.63-1.43.94-1.64-1.68.36-1.82 2.2-1.66 2.69.15.49.16.97.17 1.36.5-.58.54-1.4.56-2.42Z" fill="#5AB6E8"/><path d="M8.45 3.84a2.16 2.16 0 0 0-1.81-.48c1.43-.94 2.84.25 3.08.7.24.46.58.8.84 1.08-.75-.05-1.37-.6-2.1-1.3ZM9.55 14.16c.58.56 1.45.55 1.81.48-1.43.94-2.84-.25-3.08-.7-.24-.46-.58-.8-.84-1.08.75.05 1.37.6 2.1 1.3ZM12.3 13a2.16 2.16 0 0 1-.94 1.64c1.68-.36 1.82-2.2 1.66-2.69-.15-.49-.16-.97-.17-1.36-.5.58-.54 1.4-.56 2.42ZM5 12.3a2.16 2.16 0 0 1-1.64-.94c.36 1.68 2.2 1.82 2.69 1.66.49-.15.97-.16 1.36-.17-.58-.5-1.4-.54-2.42-.56ZM3.84 9.55a2.16 2.16 0 0 0-.48 1.81c-.94-1.43.25-2.84.7-3.08.46-.24.8-.58 1.08-.84-.05.75-.6 1.37-1.3 2.1ZM14.16 8.45c.56-.58.55-1.45.48-1.81.94 1.43-.25 2.84-.7 3.08-.46.24-.8.58-1.08.84.05-.75.6-1.37 1.3-2.1Z" fill="#5AB6E8"/><path d="M13 5.7c.82.02 1.43.63 1.64.94-.36-1.68-2.2-1.82-2.69-1.66-.49.15-.97.16-1.36.17.58.5 1.4.54 2.42.56Z" fill="#5AB6E8"/><path d="M9.5 3.84a2.16 2.16 0 0 1 1.82-.5c-1.44-.93-2.84.27-3.08.73-.23.45-.57.8-.83 1.08.75-.06 1.37-.6 2.1-1.31ZM12.26 4.97a2.16 2.16 0 0 0-.94-1.63C13 3.7 13.15 5.53 13 6.02c-.15.49-.16.97-.17 1.36-.5-.58-.55-1.4-.57-2.41ZM5.74 13.03c.02.82.64 1.42.94 1.63C5 14.3 4.85 12.46 5 11.97c.15-.49.16-.97.17-1.36.5.58.55 1.4.57 2.41ZM8.5 14.16c-.59.57-1.46.57-1.82.5 1.44.93 2.84-.27 3.08-.73.23-.45.57-.8.83-1.08-.75.06-1.37.6-2.1 1.31ZM3.84 8.5a2.16 2.16 0 0 1-.5-1.82c-.93 1.44.27 2.84.73 3.08.45.23.8.57 1.08.83-.06-.75-.6-1.37-1.31-2.1ZM4.97 5.74c-.82.02-1.42.64-1.63.94C3.7 5 5.53 4.85 6.02 5c.49.15.97.16 1.36.17-.58.5-1.4.55-2.41.57ZM13.03 12.26a2.16 2.16 0 0 0 1.63-.94C14.3 13 12.46 13.15 11.97 13c-.49-.15-.97-.16-1.36-.17.58-.5 1.4-.55 2.41-.57ZM14.16 9.5c.57.59.57 1.46.5 1.82.93-1.44-.27-2.84-.73-3.08-.45-.23-.8-.57-1.08-.83.06.75.6 1.37 1.31 2.1Z" fill="#265FAE"/></svg>