<!-- by TradingView --><svg width="18" height="18" fill="none" xmlns="http://www.w3.org/2000/svg"><path fill="#F0F3FA" d="M0 0h18v18H0z"/><path fill-rule="evenodd" clip-rule="evenodd" d="M13.335 7.442a2.976 2.976 0 01-2.965 2.98 2.96 2.96 0 01-2.572-1.499c-.125-.218-.223-.59-.29-.905a.348.348 0 00-.627-.125c-.261.377-.26.942-.215 1.374a2.96 2.96 0 00.086.478c.05.201.117.397.202.585.626 1.397 2.035 2.286 3.881 2.137.183-.015.356-.07.535-.107 1.524-.32 2.622-1.696 2.63-3.316 0-1.3-.483-2.577-1.376-3.527.46.538.711 1.22.711 1.925z" fill="url(#paint0_linear_1530)"/><path fill-rule="evenodd" clip-rule="evenodd" d="M8.493 4.032c.178-.02.358-.03.537-.03h.008c1.06 0 2.093.335 2.95.956l.001.002c.225.162.435.344.63.541.463.521.741 1.194.741 1.929a3.033 3.033 0 01-1.55 2.625 3 3 0 10-5.319.59l.045.1c1.095 1.471 2.671 2.344 4.683 2.293h.01c.228-.006.315.299.112.404-.71.366-1.5.557-2.3.558H9.03C6.251 14 4 11.762 4 9.002c0-2.58 1.967-4.704 4.493-4.97z" fill="url(#paint1_linear_1530)"/><defs><linearGradient id="paint0_linear_1530" x1="6.65" y1="12.454" x2="14.001" y2="12.454" gradientUnits="userSpaceOnUse"><stop stop-color="#838AB4"/><stop offset="1" stop-color="#716095"/></linearGradient><linearGradient id="paint1_linear_1530" x1="4.003" y1="14.041" x2="13.363" y2="14.041" gradientUnits="userSpaceOnUse"><stop stop-color="#2D2D4B"/><stop offset="1" stop-color="#1D1D3A"/></linearGradient></defs></svg>