<!-- by TradingView --><svg width="18" height="18" viewBox="0 0 18 18" xmlns="http://www.w3.org/2000/svg"><path fill="#075BEF" d="M0 0h18v18H0z"/><path d="M5 5v6.83h1v-5l2.5 2.72c-.71.72-1.32 1.3-1.29 2.44.02.78.48 2.03 1.9 2.01 1.41-.02 1.89-1.14 1.89-2 0-1.22-.68-1.72-1.45-2.45.35-.4 1.3-1.22 1.35-1.28a.62.62 0 0 0 0-.72c-.14-.19-.49-.13-.66 0L9.11 8.66a406.1 406.1 0 0 1-3.38-3.82c-.16-.2-.3-.22-.34-.21A.4.4 0 0 0 5 5Z" fill="#fff"/><path d="M8.15 11.99c0-.52.6-1.09.91-1.37.3.29.92.91.92 1.37 0 .6-.31.99-.92 1-.6.03-.9-.49-.9-1Z" fill="#375980"/><path d="M12 13.59v-7.3h1v7.3c0 .13-.1.4-.49.4-.38.02-.5-.26-.51-.4Z" fill="#fff"/><circle cx="5.5" cy="12.5" r="1.5" fill="#fff"/><circle cx="12.5" cy="5.5" r="1.5" fill="#fff"/><circle cx="5.5" cy="12.5" r=".5" fill="#375980"/><circle cx="12.5" cy="5.5" r=".5" fill="#375980"/></svg>