<!-- by TradingView --><svg width="18" height="18" viewBox="0 0 18 18" xmlns="http://www.w3.org/2000/svg"><path fill="url(#axmradljk)" d="M0 0h18v18H0z"/><path fill-rule="evenodd" d="M9.6 7.65a.38.38 0 0 0-.2.03.74.74 0 0 0-.16.08l-1.78 1.3c-.08.06-.1.13-.07.2.02.05.06.1.1.12l2.14.8c.04.02.1.04.18.05.07 0 .14 0 .2-.03a.2.2 0 0 0 .1-.14c.02-.05.02-.1.01-.13L9.8 7.9c0-.03-.02-.1-.05-.15a.23.23 0 0 0-.15-.11Zm-.32.15a.68.68 0 0 1 .14-.07.32.32 0 0 1 .17-.03c.04 0 .08.04.1.09.04.04.05.1.05.13l.32 2.01v.12a.15.15 0 0 1-.07.1.31.31 0 0 1-.18.02.72.72 0 0 1-.16-.04l-.04-.01h.08c.06.01.12 0 .18-.02a.2.2 0 0 0 .1-.13.26.26 0 0 0 .01-.12l-.22-1.77a.32.32 0 0 0-.03-.13.24.24 0 0 0-.13-.12.31.31 0 0 0-.19 0 .42.42 0 0 0-.13.05L7.72 8.93l1.56-1.12ZM7.75 9.38l1.58.63-1.8-.67a.22.22 0 0 1-.09-.1c0-.05 0-.1.06-.15l.13-.1c-.09.11-.1.2-.06.27.04.06.12.1.18.12Zm1.68-1.5a.36.36 0 0 0-.11.05l-1.64 1.1c-.08.1-.08.16-.06.2.03.05.1.09.15.1l1.8.72.12.03c.06 0 .11 0 .15-.03a.15.15 0 0 0 .08-.1.22.22 0 0 0 0-.1L9.74 8.4l.13 1.35a.4.4 0 0 1 0 .13c0 .05-.02.1-.07.13a.43.43 0 0 1-.24.03l-1.7-.74a.31.31 0 0 1-.16-.1.13.13 0 0 1-.02-.1c0-.04.03-.08.07-.12l1.5-.95.15-.07c.06-.02.12-.03.18-.01a.2.2 0 0 1 .1.1l.02.03c0-.03 0-.07-.03-.11a.18.18 0 0 0-.1-.1.25.25 0 0 0-.14 0ZM7.79 9.02l1.49-.95a.73.73 0 0 1 .14-.06c.05-.02.1-.02.14-.01.03.01.06.04.07.07a.2.2 0 0 1 .03.07v.03a.16.16 0 0 0-.1-.1.27.27 0 0 0-.14 0 .34.34 0 0 0-.1.05l-1.43.84c-.08.06-.1.12-.09.17.02.04.06.07.1.09l1.5.7-1.53-.66a.25.25 0 0 1-.12-.1.08.08 0 0 1-.02-.06c0-.02.02-.05.06-.08Zm1.79.97-.14-.06.12.01.14-.01c.04-.02.05-.06.06-.1a.3.3 0 0 0 0-.08L9.7 8.52l.12 1.24c.01.03.02.07.01.11 0 .05-.02.08-.05.1a.37.37 0 0 1-.2.02Zm-.15-1.86a.27.27 0 0 0-.08.03l-.82.48.77-.42a.62.62 0 0 1 .17-.05h.07l.07.08.01.04-.01-.1a.1.1 0 0 0-.07-.06.2.2 0 0 0-.1 0Zm-1.49.86a.1.1 0 0 0 0 .05c0 .04.02.09.09.12l1.18.6-1.29-.6c-.03 0-.05-.02-.06-.05 0-.02 0-.06.07-.1l.01-.02Zm1.45.86a.4.4 0 0 0 .04 0h.15a.16.16 0 0 0 .08-.1.2.2 0 0 0 .01-.1L9.64 8.6l.07 1.15v.08c-.01.03-.02.04-.04.05a.32.32 0 0 1-.1 0h-.12l-.06-.03ZM8 8.99l1.32-.73a.56.56 0 0 1 .15-.04h.03l.04.05c.02.02.02.05.02.06l.04 1.33v.07a.1.1 0 0 1-.06.07.2.2 0 0 1-.1 0 .34.34 0 0 1-.1-.02l-1.3-.67C8 9.1 8 9.06 8 9.04L8.01 9Z" fill="#fff"/><path d="M9.44 7.48c.07-.02.15-.02.22.01.06.04.1.1.13.15l.06.14.47 2.2v.16a.27.27 0 0 1-.14.17.45.45 0 0 1-.28.03l-.24-.07-2.26-.7a.4.4 0 0 1-.2-.16.2.2 0 0 1-.03-.13c.01-.05.04-.1.1-.16l2-1.57c.04-.03.1-.06.17-.07Zm-.13.1-2 1.57a.27.27 0 0 0-.08.13c0 .04 0 .08.02.1.04.07.11.11.17.13l2.27.7c.05.03.13.06.22.07.1.02.18.02.24-.02.06-.03.09-.08.1-.13a.31.31 0 0 0 .01-.14l-.47-2.2a.52.52 0 0 0-.05-.13.34.34 0 0 0-.12-.12c-.04-.03-.1-.03-.16-.01a.56.56 0 0 0-.15.06Z" fill="#fff"/><path fill-rule="evenodd" d="M9.14 6.4c.1-.05.22-.1.35-.1.15 0 .26.08.33.17.08.09.12.2.14.26l1.47 3.54c.04.07.08.17.08.28 0 .11-.04.24-.18.32a.83.83 0 0 1-.67.07l-4.2-.62a.71.71 0 0 1-.33-.2.33.33 0 0 1-.09-.2c0-.07.02-.15.08-.23l2.8-3.13c.05-.04.12-.1.22-.16Zm.06.09a.73.73 0 0 0-.18.14L6.55 9.38l2.4-2.48.21-.16a.7.7 0 0 1 .34-.1.4.4 0 0 1 .3.13c.07.07.1.15.12.2l1.2 3.29a.8.8 0 0 1 .01.24c0 .09-.03.2-.13.24-.19.08-.41.08-.7.04-.22-.03-2.44-.47-3.51-.69a.58.58 0 0 1-.35-.15.29.29 0 0 1-.08-.2c0-.07.03-.15.08-.24l-.22.24a.29.29 0 0 0-.06.18c0 .05.03.1.06.14a.6.6 0 0 0 .27.16l4.2.62c.1.04.36.08.57-.05.1-.07.13-.15.13-.24a.48.48 0 0 0-.07-.23L9.85 6.75a.67.67 0 0 0-.12-.23c-.07-.07-.15-.12-.24-.12a.6.6 0 0 0-.29.08Zm-.15.48c.03-.04.1-.1.17-.14a.58.58 0 0 1 .28-.08c.1 0 .17.04.21.09.06.05.08.12.1.16l.03.1a.33.33 0 0 0-.26-.14.77.77 0 0 0-.51.2L6.82 9.24l2.22-2.27ZM11 10.28 9.99 7.5l.84 2.7c.02.05.02.12.01.19a.3.3 0 0 1-.14.2.63.63 0 0 1-.3.07l-.26-.02-3.2-.75h-.01a.46.46 0 0 1-.24-.17c-.05-.1-.06-.2.02-.35l-.16.16a.39.39 0 0 0-.07.21c0 .05.02.1.05.13.07.07.18.1.27.12 1.09.22 3.3.66 3.52.69.28.04.47.03.62-.04.04-.01.07-.06.08-.14a.7.7 0 0 0-.02-.22ZM9.3 7.1a.68.68 0 0 0-.17.11L7.07 9.15l2.1-1.79a.68.68 0 0 1 .2-.1c.09-.03.2-.05.3-.02.09.03.15.09.18.15v-.02a.52.52 0 0 0-.08-.21c-.05-.07-.1-.12-.2-.12s-.19.03-.27.06Zm.6.46.84 2.66c.01.04.02.1 0 .15a.2.2 0 0 1-.09.15.54.54 0 0 1-.25.05l-.24-.01-3.2-.75a.37.37 0 0 1-.18-.13c-.05-.07-.06-.16.02-.29l.23-.2c-.11.12-.12.24-.07.34.05.09.14.15.21.18l2.76.76.23.04a.5.5 0 0 0 .25-.04c.08-.04.11-.11.13-.17a.43.43 0 0 0 0-.17L9.92 7.6v-.04ZM7.1 9.22l2.12-1.8a.6.6 0 0 1 .18-.1.4.4 0 0 1 .24 0c.08.02.12.07.15.13.03.05.04.12.04.15l.64 2.54-.01.14a.19.19 0 0 1-.09.12.42.42 0 0 1-.2.03 1.1 1.1 0 0 1-.21-.03L7.2 9.65a.35.35 0 0 1-.17-.15C7 9.43 7 9.33 7.1 9.22Z" fill="#fff"/><path fill-rule="evenodd" d="M9.24 5.07a1 1 0 0 0-.57.25c-.17.13-.31.28-.4.39l-3.26 4.61v.01a.6.6 0 0 0-.08.4c.02.11.08.2.17.28.16.14.4.2.57.22h.01c1.66.09 5.22.28 6.19.29.5 0 .78-.13.91-.34.12-.2.08-.43.01-.58l-2.73-4.88c-.05-.1-.16-.26-.3-.4-.13-.13-.31-.25-.52-.25ZM5.18 10.4l.18-.25a.5.5 0 0 0-.02.26c.02.1.08.19.15.26.15.13.37.2.52.21a763.89 763.89 0 0 0 4.64.41h.02c-1.48-.06-3.74-.18-4.97-.25a.9.9 0 0 1-.46-.17.3.3 0 0 1-.12-.18.44.44 0 0 1 .06-.29Zm3.45-4.48L5.75 9.62 8.44 5.8c.07-.1.2-.24.36-.36.16-.12.31-.2.44-.2.12 0 .25.07.38.2.11.1.2.25.26.34a.8.8 0 0 0-.1-.1.64.64 0 0 0-.41-.15.87.87 0 0 0-.46.15 1.3 1.3 0 0 0-.28.23Zm3.64 4.54-2.15-4.24 2.5 4.44c.05.12.07.3-.01.42-.08.13-.28.26-.74.25h-.18.02a.79.79 0 0 0 .46-.16c.12-.1.15-.24.16-.37 0-.13-.03-.26-.06-.34Zm-6.52-.58-.19.24c-.05.1-.06.2-.05.26a.3.3 0 0 0 .1.17c.12.1.3.16.42.17a761.67 761.67 0 0 0 5.28.46h.19l.2-.01a.6.6 0 0 0 .35-.12c.07-.05.1-.14.1-.25 0-.11-.02-.22-.04-.29L9.8 6a.61.61 0 0 0-.15-.2.46.46 0 0 0-.3-.1.69.69 0 0 0-.35.11c-.1.07-.2.16-.24.2L6.37 9.1l2.31-2.7c.06-.08.16-.18.28-.27a.8.8 0 0 1 .46-.17c.17 0 .31.08.4.17.1.1.16.2.18.28l1.86 4.06a.6.6 0 0 1 .03.25c0 .1-.04.2-.14.29a.8.8 0 0 1-.45.15c-.18.02-.38 0-.58-.01-.33-.02-3.16-.4-4.54-.57h-.01a.95.95 0 0 1-.28-.14c-.1-.08-.18-.18-.18-.31 0-.09.01-.16.04-.23ZM8.8 6.46c.04-.06.13-.16.24-.24a.65.65 0 0 1 .37-.13c.12 0 .21.05.3.13.07.07.12.16.14.22l1.85 4.07c.02.04.03.12.03.2 0 .07-.03.14-.1.19-.07.07-.2.1-.36.12-.16.01-.34 0-.55-.02-.32-.02-3.14-.38-4.52-.56a.8.8 0 0 1-.23-.12c-.07-.06-.12-.13-.12-.2 0-.19.1-.34.15-.38l2.8-3.28Z" fill="#fff"/><path fill-rule="evenodd" d="M8.4 4.22c.17-.11.38-.22.62-.22a1 1 0 0 1 .6.22c.16.12.28.26.34.36l3.92 6.12c.1.2.17.52.07.8a.68.68 0 0 1-.31.36c-.17.09-.38.14-.66.14H4.9c-.2-.03-.46-.1-.65-.27a.7.7 0 0 1-.22-.33.77.77 0 0 1 .02-.47v-.02l4-6.33c.06-.1.2-.24.36-.36Zm-.13.48L5.28 9.45l3-4.4h.01c.06-.08.18-.2.32-.3.14-.1.32-.18.52-.18.21 0 .4.11.54.23.15.11.27.26.33.35l3.32 5.52c.09.17.15.44.05.68a.62.62 0 0 1-.3.3c-.1.06-.24.1-.4.1h.31c.24 0 .4-.04.51-.1.1-.06.17-.14.2-.23a.87.87 0 0 0-.05-.61L9.73 4.7c-.05-.08-.15-.2-.28-.3a.72.72 0 0 0-.43-.17.8.8 0 0 0-.45.17c-.13.1-.24.22-.3.3ZM4.3 11l.25-.39c-.08.27-.04.5.09.65.15.2.4.3.58.32h.02c1.64.05 4.79.15 6.4.18H4.93a1 1 0 0 1-.48-.2.47.47 0 0 1-.15-.23.55.55 0 0 1 .01-.32Zm4.18-5.83-3.62 5.3c-.18.34-.13.55-.03.67.1.14.28.21.42.23 2 .06 6.24.19 7.2.19.24 0 .4-.04.5-.1a.4.4 0 0 0 .2-.19c.07-.16.03-.36-.04-.5L9.8 5.25c-.06-.08-.16-.2-.28-.3-.13-.11-.27-.18-.39-.18a.7.7 0 0 0-.38.14c-.12.08-.21.18-.27.25Z" fill="#fff"/><defs><linearGradient id="axmradljk" x1="9" y1="0" x2="9" y2="18" gradientUnits="userSpaceOnUse"><stop stop-color="#C23263"/><stop offset=".48" stop-color="#682872"/><stop offset="1" stop-color="#C43068"/></linearGradient></defs></svg>