<!-- by TradingView --><svg width="18" height="18" fill="none" xmlns="http://www.w3.org/2000/svg"><path fill="#000" d="M0 0h18v18H0z"/><path fill-rule="evenodd" clip-rule="evenodd" d="M7.088 6.548c0 .519-.428.94-.956.94a.948.948 0 01-.956-.94c0-.52.428-.94.956-.94s.956.42.956.94zm0 3.008c0 .52-.428.94-.956.94a.948.948 0 01-.956-.94c0-.52.428-.94.956-.94s.956.42.956.94zm4.78.94c.528 0 .955-.42.955-.94s-.427-.94-.955-.94a.948.948 0 00-.956.94c0 .52.428.94.956.94zm-6.31-2.444c0 .52-.427.94-.955.94a.948.948 0 01-.956-.94c0-.52.428-.94.956-.94s.956.42.956.94zm4.78.94c.528 0 .956-.42.956-.94s-.428-.94-.956-.94a.948.948 0 00-.956.94c0 .52.428.94.956.94zm-1.72-.94c0 .52-.428.94-.956.94a.948.948 0 01-.956-.94c0-.52.428-.94.956-.94s.956.42.956.94zm4.78.94c.527 0 .955-.42.955-.94s-.428-.94-.956-.94a.948.948 0 00-.956.94c0 .52.428.94.956.94zm-.575-2.444c0 .519-.427.94-.955.94a.948.948 0 01-.956-.94c0-.52.428-.94.956-.94s.955.42.955.94zM9 10.496a.758.758 0 00.765-.752A.758.758 0 009 8.992a.758.758 0 00-.765.752c0 .415.343.752.765.752zM8 11.5a.5.5 0 11-1 0 .5.5 0 011 0zm6.735-1.004a.758.758 0 00.765-.752.758.758 0 00-.765-.752.758.758 0 00-.764.752c0 .415.342.752.764.752zM14 11.5a.5.5 0 11-1 0 .5.5 0 011 0zM3.265 10.496a.758.758 0 00.764-.752.758.758 0 00-.764-.752.758.758 0 00-.765.752c0 .415.342.752.765.752zM5 11.5a.5.5 0 11-1 0 .5.5 0 011 0zm5.5.5a.5.5 0 100-1 .5.5 0 000 1z" fill="#fff"/></svg>