<!-- by TradingView --><svg width="18" height="18" xmlns="http://www.w3.org/2000/svg"><path fill="#12182C" d="M0 0h18v18H0z"/><path d="M3.299 12c-.228 0-.372-.281-.26-.509l2.927-5.968C6.124 5.2 6.423 5 6.746 5h1.355c.228 0 .372.281.26.509l-2.927 5.968c-.158.323-.457.523-.781.523H3.299z" fill="#59EFEC"/><path d="M8.553 12H7.2c-.228 0-.372-.281-.26-.509l2.927-5.968c.158-.323.457-.523.781-.523h1.354c.228 0 .372.281.26.509l-2.927 5.968c-.158.323-.457.523-.78.523z" fill="#D98041"/><path d="M12.464 7.395l-.655 1.347a1.116 1.116 0 000 .963l.872 1.792c.151.31.436.503.745.503h1.29c.217 0 .354-.27.247-.489l-2.002-4.116c-.109-.223-.388-.223-.497 0z" fill="#fff"/></svg>