<!-- by TradingView --><svg width="18" height="18" viewBox="0 0 18 18" xmlns="http://www.w3.org/2000/svg"><path fill="#2073E9" d="M0 0h18v18H0z"/><path d="M5.82 5.54c.2-.44.83-.59 1.23-.41.63.27.51.76.38 1.11l-2.88 6.38a.9.9 0 0 1-1.14.27c-.46-.26-.45-.84-.36-1.07l2.77-6.28ZM9.79 5.45c.14-.3.69-.54 1.07-.33.47.26.42.76.33.97L9.71 9.46c-.24.42-.71.67-1.19.42-.47-.24-.34-.75-.22-1l1.49-3.43Z" fill="#fff"/><path d="M13.2 5.64c.3-.58.85-.8 1.36-.52.7.37.38.99.22 1.34l-2.52 5.98c-.28.5-.8.7-1.3.45-.5-.24-.5-.8-.3-1.22 1-1.97 2.31-5.59 2.55-6.03Z" fill="#fff" fill-opacity=".5"/><ellipse cx="14.06" cy="5.84" rx=".94" ry=".83" fill="#fff"/><ellipse cx="11.44" cy="12.16" rx=".94" ry=".83" fill="#fff"/></svg>