<!-- by TradingView --><svg width="18" height="18" viewBox="0 0 18 18" xmlns="http://www.w3.org/2000/svg"><path fill="#F0F3FA" d="M0 0h18v18H0z"/><path d="M8.82 6.1a.59.59 0 0 0-.09.24c-.08.46-.14.9-.2 1.33 0 .03-.01.05-.04.06a.07.07 0 0 1-.07 0L6.1 6a.26.26 0 0 0-.15-.06.19.19 0 0 0-.13.04.14.14 0 0 0-.05.1c0 .05 0 .1.04.14A769.3 769.3 0 0 0 7.6 8.67l-.03.02-1.55.23c-.05.01-.1.04-.11.1-.03.07-.02.13.02.18.03.04.09.07.17.08l1.63.25c.05 0 .07.03.07.08a.64.64 0 0 1-.22.41l-3.04 2.83c-.06.05-.1.05-.15 0a6 6 0 1 1 .76.72l.01-.04 2.9-3.14c.1-.11.24-.17.39-.16.03 0 .04.01.04.04l.25 1.67c0 .05.03.1.06.13a.2.2 0 0 0 .12.05c.04 0 .08-.01.12-.04a.18.18 0 0 0 .06-.12c.08-.45.15-.94.21-1.48 0-.02.02-.03.04-.04h.06l2.35 1.76c.1.07.2.07.28-.01a.15.15 0 0 0 .05-.1c0-.04 0-.08-.03-.1l-1.8-2.44c-.03-.03-.02-.05.02-.05l1.54-.23a.15.15 0 0 0 .12-.11c.03-.15-.03-.23-.18-.25-.47-.08-.95-.15-1.46-.21-.06 0-.07-.03-.04-.08l1.77-2.39c.04-.06.06-.11.05-.16-.01-.06-.05-.1-.13-.12a.16.16 0 0 0-.15.02L9.42 7.73a.06.06 0 0 1-.07.01.06.06 0 0 1-.04-.06l-.2-1.47c-.01-.06-.04-.1-.1-.12a.24.24 0 0 0-.15-.02.07.07 0 0 0-.04.03Z" fill="url(#aojkd3x3c)"/><defs><linearGradient id="aojkd3x3c" x1="3" y1="6.96" x2="14.12" y2="12.03" gradientUnits="userSpaceOnUse"><stop stop-color="#4D32E7"/><stop offset="1" stop-color="#8656FF"/></linearGradient></defs></svg>