<!-- by TradingView --><svg width="18" height="18" xmlns="http://www.w3.org/2000/svg"><path fill="#5DBAB8" d="M0 0h18v18H0z"/><path d="M13.148 5.769L9.83 3.611a1.664 1.664 0 00-1.652 0L4.834 5.77C4.294 6.078 4 6.663 4 7.293v3.41c0 .633.294 1.215.834 1.523l3.34 2.158c.512.293 1.14.293 1.652 0l3.318-2.158c.54-.309.856-.89.856-1.524v-3.41c0-.629-.312-1.214-.852-1.523zM7 9.985A.99.99 0 016 11a.99.99 0 01-1-1.015V8.064C5 7.487 5.436 7 6 7c.564 0 1 .487 1 1.064v1.921zM9 9c-.504-.004-1-.419-1-1s.525-1.003 1-1c.475.003 1 .419 1 1a1.01 1.01 0 01-1 1zm4 .985A.99.99 0 0112 11a.99.99 0 01-1-1.015V8.064C11 7.487 11.436 7 12 7c.564 0 1 .487 1 1.064v1.921z" fill="#fff"/></svg>