<!-- by TradingView --><svg xmlns="http://www.w3.org/2000/svg" width="18" height="18"><path fill="#141026" d="M0 0h18v18H0z"/><path d="M8.77 5.83c.4.21.85.29 1.28.28a4.84 4.84 0 01.86 1.17c.15.3.25.6.36.92a24.8 24.8 0 00.13.4c.17.6.42 1.25.75 1.78.11.17.24.34.37.5h.02l.01.02.05.06c.13.14.26.28.33.45.1.22.08.47.03.7-.26 1.08-1.26 1.36-2.22 1.39-.36 0-.72-.02-1.04-.06 0 0-1.53-.16-2.82-1.14l-.02-.02-.02-.01-.44-.38a5.4 5.4 0 01-.93-1.22 4.24 4.24 0 01-.08-.17A3.79 3.79 0 015 8.9c-.01-.97.3-1.96.91-2.67a2.86 2.86 0 012.16-.98c.2.24.43.43.7.58z" fill="url(#awwrmsket)"/><path d="M9.95 4.58c.9.37 1.53.47 1.99.46l.01-.01c-1.7-3.02-3.93-.64-3.93-.64a3.44 3.44 0 011.93.2z" fill="url(#bwwrmsket)"/><path d="M9.96 4.56c-.75-.3-1.45-.3-1.94-.17 1.28 2.33 3.72.78 3.92.65a5 5 0 01-1.98-.48z" fill="#AFD803"/><defs><linearGradient id="awwrmsket" x1="9.72" y1="6.38" x2="4.91" y2="9.98" gradientUnits="userSpaceOnUse"><stop offset=".16" stop-color="#FECA1A"/><stop offset="1" stop-color="#E54033"/></linearGradient><linearGradient id="bwwrmsket" x1="8.23" y1="3.61" x2="12.35" y2="5.08" gradientUnits="userSpaceOnUse"><stop offset=".15" stop-color="#6CBF00"/><stop offset="1" stop-color="#AFD803"/></linearGradient></defs></svg>