<!-- by TradingView --><svg xmlns="http://www.w3.org/2000/svg" width="18" height="18" viewBox="0 0 18 18"><path fill="#F0F3FA" d="M0 0h18v18H0z"/><path d="M5.7 5.66l-1.69 6.8c-.1.44.42.74.7.39l2.26-2.75 1.38 1.7c.34.42.96.42 1.3 0l1.39-1.7 2.25 2.74c.28.34.8.04.7-.4L12.3 5.67c-.17-.69-1-.9-1.43-.35L9 7.6 7.14 5.3c-.44-.54-1.27-.34-1.44.35z" fill="url(#atbhmx5cs)"/><path opacity=".9" d="M5.7 5.66l-1.11 4.47c.42-.9 1.2-.95 1.7-.7.29.15.52.43.68.67l1.38 1.7c.34.42.96.42 1.3 0l1.39-1.7 1.8-2.23A2.44 2.44 0 0 1 9 7.6L7.14 5.3c-.44-.54-1.27-.34-1.44.35z" fill="url(#btbhmx5cs)"/><path d="M11.04 10.1l2.25 2.74c.28.34.8.04.7-.4l-1.14-4.57-1.81 2.23z" fill="url(#ctbhmx5cs)"/><path d="M4.6 10.13L4 12.45c-.1.45.42.74.7.4l2.26-2.75a1.8 1.8 0 0 0-.74-.7c-.45-.2-1.24-.18-1.64.73z" fill="url(#dtbhmx5cs)"/><defs><linearGradient id="atbhmx5cs" x1="11.4" y1="5.64" x2="10.99" y2="8.29" gradientUnits="userSpaceOnUse"><stop stop-color="#5083A9"/><stop offset="1" stop-color="#12132C"/></linearGradient><linearGradient id="btbhmx5cs" x1="12.05" y1="9.09" x2="4.59" y2="9.24" gradientUnits="userSpaceOnUse"><stop stop-color="#1C2849"/><stop offset="1" stop-color="#5893BA"/></linearGradient><linearGradient id="ctbhmx5cs" x1="12.06" y1="9" x2="13.77" y2="12.59" gradientUnits="userSpaceOnUse"><stop stop-color="#13182F"/><stop offset="1" stop-color="#5284AC"/></linearGradient><linearGradient id="dtbhmx5cs" x1="6.29" y1="9.53" x2="4.27" y2="12.62" gradientUnits="userSpaceOnUse"><stop stop-color="#1C2849"/><stop offset="1" stop-color="#436C92"/></linearGradient></defs></svg>