<!-- by TradingView --><svg width="18" height="18" viewBox="0 0 18 18" xmlns="http://www.w3.org/2000/svg"><path fill="#009FF9" d="M0 0h18v18H0z"/><path d="M4 5.87c0-.48.37-.87.83-.87.46 0 .84.39.84.87v6.26c0 .48-.38.87-.84.87a.85.85 0 0 1-.83-.87V5.87Zm8.33 0c0-.48.38-.87.84-.87.46 0 .83.39.83.87v6.26c0 .48-.37.87-.83.87a.85.85 0 0 1-.84-.87V5.87Zm-5.5 1.56c-.46 0-.83.4-.83.88v3.81c0 .49.37.88.83.88.46 0 .84-.4.84-.88v-3.8a.86.86 0 0 0-.84-.89Zm3.5.88c0-.48.38-.88.84-.88.46 0 .83.4.83.88v3.81c0 .49-.37.88-.83.88a.86.86 0 0 1-.84-.88v-3.8ZM9 10a.83.83 0 0 0-.83.83v1.34a.83.83 0 1 0 1.66 0v-1.34A.83.83 0 0 0 9 10Z" fill="#fff"/></svg>