<!-- by TradingView --><svg width="18" height="18" viewBox="0 0 18 18" xmlns="http://www.w3.org/2000/svg"><path fill="#F0F3FA" d="M0 0h18v18H0z"/><circle cx="9" cy="9" r="5" fill="#9CE3E5"/><path d="M14 9A5 5 0 0 1 4 9h10Z" fill="#4F97A5"/><circle cx="8.99" cy="9" fill="#36C7CE" r="4"/><path d="m9.53 13.97-2.9-2.78 1-3.33 1.18 1.32 2.26-2.37 2.9 2.82a5.17 5.17 0 0 1-1 2.42 5.1 5.1 0 0 1-3.44 1.92Z" fill="#359BB1"/><path d="M6.62 8.42v-1.6H7.7l1.12 1.84 1.16-1.85h1.1v1.61h1.04v.42h-1.05v.46h1.05v.43h-1.05v1.46h-.96V8.42l-1.29 1.8-1.25-1.8v2.77h-.95V9.73H5.56V9.3h1.06v-.46H5.56v-.42h1.06Z" fill="#EBEBEB"/></svg>