<!-- by TradingView --><svg width="18" height="18" viewBox="0 0 18 18" xmlns="http://www.w3.org/2000/svg"><path fill="#F0F3FA" d="M0 0h18v18H0z"/><path d="M7.43 3.61a.6.6 0 0 1 .52-.5c.25-.07 1-.17 1.99-.07.19.03.54.18.58.56a5.6 5.6 0 0 1 1.73.82c.17-.1.51-.19.84.14.23.2.83.84 1.42 1.83.13.2.26.69-.14.95a5.6 5.6 0 0 1 .24 2.07c.2.1.44.3.38.65-.01.24-.15.92-.57 1.73a.66.66 0 0 1-.73.3c-.26.38-.56.73-.9 1.04.08.2.13.58-.24.83-.22.17-.9.6-1.91.95-.21.06-.66.07-.86-.36a5.68 5.68 0 0 1-1.05.04c-.18.44-.66.44-.9.38a8.12 8.12 0 0 1-2.14-.89.68.68 0 0 1-.35-.84 5.64 5.64 0 0 1-.89-.96c-.45.12-.74-.26-.84-.48a8.1 8.1 0 0 1-.6-2.24c-.06-.44.19-.67.38-.76.02-.6.14-1.2.34-1.74-.3-.27-.2-.66-.1-.84a6.94 6.94 0 0 1 1.29-1.64c.28-.28.6-.21.77-.11a5.6 5.6 0 0 1 1.74-.86Z"/><path d="M9.88 3.68a4.54 4.54 0 0 0-1.84.04l-.13.53 2.18-.04-.2-.53ZM12.56 4.97l-.45.19 1.53 2.2.3-.56a5.18 5.18 0 0 0-1.38-1.83ZM13.87 11.42l-.58.1.58-1.95.46.4c-.06.5-.33 1.18-.46 1.45ZM10.38 14.27l-.49-.39 2.27-1.17v.7a5.2 5.2 0 0 1-1.78.86ZM8.1 14.34l.4-.42-2.56-1.15v.68c.76.57 1.76.83 2.16.9ZM4.3 11.61h.55l-.68-2.6-.54.37c.12 1.2.5 2 .66 2.23ZM4.17 6.58l.3.53 1.54-1.87-.63-.2c-.7.59-1.1 1.27-1.21 1.54Z" fill="#D9B86C"/><ellipse cx="9" cy="8.98" rx="5" ry="4.99" fill="#EFDA8D"/><path d="M9 13.11c.54 0 1.05-.1 1.53-.29.53.14 1.27-.11 1.87-.68.77-.71 1.04-1.68.63-2.2a4.14 4.14 0 0 0-.15-2.4c.09-.52-.15-1.19-.65-1.75-.62-.68-1.43-.97-1.98-.76a4.15 4.15 0 0 0-4.42 6.61c.07.47.42.98.97 1.3.63.39 1.35.43 1.8.15.13.02.27.02.4.02Z" fill="#F4EEBE"/><ellipse cx=".75" cy="1.53" rx=".75" ry="1.53" transform="rotate(-43.5 12.23 -9.4) skewX(.1)" fill="#C29E58"/><path d="M10.25 5.8c.36-.04.89.23 1.34.7.36.39.59.81.63 1.15-.35.04-.88-.23-1.33-.7-.37-.39-.6-.82-.64-1.15Z" fill="#A07E41"/><ellipse cx=".6" cy="1.22" rx=".6" ry="1.22" transform="matrix(-.4452 .8948 -.89644 -.44444 8.72 12.23)" fill="#C29E58"/><path d="M8.41 12.37c-.26.12-.72.07-1.19-.16a1.8 1.8 0 0 1-.79-.69c.26-.12.73-.07 1.2.16.37.19.66.45.78.69Z" fill="#A07E41"/><ellipse cx="1.17" cy="1.8" rx="1.17" ry="1.8" transform="matrix(.66733 .7447 -.7458 .66624 11.99 9)" fill="#C29E58"/><path d="M12.28 9.61c0 .42-.35 1.02-.94 1.54-.49.44-1.02.71-1.43.76-.17-.44.12-1.15.74-1.7.55-.5 1.2-.71 1.63-.6Z" fill="#A07E41"/><ellipse cx="7.37" cy="8.03" rx="1.94" ry="2.01" fill="#C29E58"/><path d="M7.37 10.04c1.07 0 1.94-.9 1.94-2.01 0-.36-.09-.7-.25-.98-.14-.04-.3-.06-.45-.06C7.54 7 6.68 7.9 6.68 9c0 .36.09.7.24.98.15.04.3.06.45.06Z" fill="#A07E41"/></svg>