<!-- by TradingView --><svg width="18" height="18" viewBox="0 0 18 18" xmlns="http://www.w3.org/2000/svg"><path fill="#F0F3FA" d="M0 0h18v18H0z"/><path d="M9 5c2.76 0 5 .9 5 2 0 1.04-1.89 1.9-4.41 2v-.34c.02-.96.18-.95 1-1.35.47-.15.76-.37.76-.63 0-.45-.98-.81-2.2-.81-1.22 0-2.2.36-2.2.81 0 .19.15.35.42.49.85.47 1.34.35 1.34 1.51V9C6.04 8.96 4 8.08 4 7c0-1.1 2.24-2 5-2ZM13.74 9c.17.15.26.3.26.46 0 .47-.61.82-1.76 1.1V9.9c0-.17.03-.17.25-.23.6-.18.98-.44 1.25-.68Zm-2.39 1.78c-.7.12-1.49.22-2.35.22-2.76 0-5-.71-5-1.53 0-.16.1-.32.26-.46.63.57 2.33.96 4.45.99v.22c0 .15.14.34.41.34.27 0 .47-.2.47-.34V10a13.3 13.3 0 0 0 1.57-.11c.1 0 .2.07.2.15v.74Z" fill="#FF7900"/><path d="M13.72 11c.18.15.28.33.28.5 0 .83-2.24 1.5-5 1.5s-5-.67-5-1.5c0-.17.11-.35.3-.5.68.58 2.51 1 4.7 1 .86 0 1.64-.07 2.35-.18V12c0 .14.16.32.45.32.3 0 .44-.19.44-.33v-.33c.74-.18 1.17-.4 1.48-.67Z" fill="#FF7900"/></svg>