<!-- by TradingView --><svg width="18" height="18" viewBox="0 0 18 18" xmlns="http://www.w3.org/2000/svg"><path fill="url(#a5bmk2rxx)" d="M0 0h18v18H0z"/><path d="M5 5v8l4-4.02L5 5Z" fill="url(#b5bmk2rxx)"/><path d="M13 5v8L9 9l4-4Z" fill="url(#c5bmk2rxx)"/><path opacity=".8" d="M9 9 5 5h8L9 9Z" fill="url(#d5bmk2rxx)"/><path d="M8.97 11.03a.1.1 0 0 0-.15 0l-1.8 1.8a.1.1 0 0 0-.01.11.1.1 0 0 0 .1.06h3.78a.1.1 0 0 0 .1-.06.1.1 0 0 0-.02-.11l-2-1.8Z" fill="#BFFF0B"/><defs><linearGradient id="a5bmk2rxx" x1="3.35" y1="3.12" x2="21.9" y2="24.43" gradientUnits="userSpaceOnUse"><stop stop-color="#1A1E21"/><stop offset="1" stop-color="#06060A"/></linearGradient><linearGradient id="b5bmk2rxx" x1="4.86" y1="13.29" x2="8.39" y2="6.01" gradientUnits="userSpaceOnUse"><stop stop-color="#9EF439"/><stop offset="1" stop-color="#181C1F"/></linearGradient><linearGradient id="c5bmk2rxx" x1="13.14" y1="13.3" x2="9.34" y2="6.3" gradientUnits="userSpaceOnUse"><stop stop-color="#9EF439"/><stop offset="1" stop-color="#181C1F"/></linearGradient><linearGradient id="d5bmk2rxx" x1="9" y1="5" x2="9" y2="9" gradientUnits="userSpaceOnUse"><stop stop-color="#1CCAE9"/><stop offset="1" stop-color="#7ABA32"/></linearGradient></defs></svg>