<!-- by TradingView --><svg width="18" height="18" viewBox="0 0 18 18" xmlns="http://www.w3.org/2000/svg"><path fill="url(#axwljkfos)" d="M0 0h18v18H0z"/><path d="M12 6.42a.45.45 0 0 1 .43-.42h1.3a.28.28 0 0 0 .27-.28V4.28a.28.28 0 0 0-.28-.28h-1.44a.28.28 0 0 0-.28.28v1.29a.46.46 0 0 1-.4.43h-1.32a.28.28 0 0 0-.28.28v1.29a.46.46 0 0 1-.4.43H8.4A.46.46 0 0 1 8 7.61V6.28A.28.28 0 0 0 7.72 6H6.4A.46.46 0 0 1 6 5.61V4.28A.28.28 0 0 0 5.73 4H4.28a.28.28 0 0 0-.28.28v1.45a.28.28 0 0 0 .28.27h1.29c.12.01.23.07.32.16a.48.48 0 0 1 .1.35H6v1.06c0 .1-.05.21-.12.3A.47.47 0 0 1 5.6 8H4.28a.28.28 0 0 0-.28.28v5.44a.28.28 0 0 0 .28.28h1.44a.28.28 0 0 0 .28-.28v-5.3c0-.1.05-.2.11-.27.08-.09.2-.14.32-.15h1.13a.45.45 0 0 1 .43.5v1.22a.28.28 0 0 0 .29.28h1.44a.28.28 0 0 0 .28-.28v-1.3c0-.1.04-.2.1-.27.1-.09.2-.14.33-.15h1.13c.12 0 .24.06.32.15a.48.48 0 0 1 .11.35H12v5.22a.28.28 0 0 0 .27.28h1.45a.28.28 0 0 0 .28-.28V8.28a.28.28 0 0 0-.28-.28h-1.33a.46.46 0 0 1-.39-.39v-1.2Z" fill="#fff"/><defs><linearGradient id="axwljkfos" x1="0" y1="1.23" x2="16.89" y2="14.52" gradientUnits="userSpaceOnUse"><stop stop-color="#133EF4"/><stop offset="1" stop-color="#ED1C7A"/></linearGradient></defs></svg>