<!-- by TradingView --><svg width="18" height="18" viewBox="0 0 18 18" xmlns="http://www.w3.org/2000/svg"><path fill="#181B1E" d="M0 0h18v18H0z"/><path d="M4.8 7.5c0-.83.62-1.5 1.4-1.5.78 0 1.4.67 1.4 1.5S8.22 9 9 9c.84 0 1.4-.69 1.4-1.5 0-.83.62-1.5 1.4-1.5.78 0 1.37.67 1.37 1.5 0 .92.62 1.48 1.43 1.5.71 0 1.4.7 1.4 1.5 0 .83-.63 1.5-1.41 1.5-.78 0-1.39-.67-1.39-1.5S12.58 9 11.8 9c-.84 0-1.4.69-1.4 1.5 0 .83-.62 1.5-1.4 1.5-.78 0-1.4-.67-1.4-1.5S6.98 9 6.2 9c-.84 0-1.4.69-1.4 1.5 0 .83-.6 1.5-1.39 1.5C2.63 12 2 11.33 2 10.5 2 9.68 2.64 9 3.41 9c.85 0 1.39-.69 1.39-1.5Z" fill="#fff"/></svg>