<!-- by TradingView --><svg width="18" height="18" xmlns="http://www.w3.org/2000/svg"><path fill="#8500FF" d="M0 0h18v18H0z"/><path d="M5.075 7H9.6c.729 0 1.4.297 1.4 1 0 .703-.671 1-1.4 1H7.31c-.207 0-.376.437-.376.637s.169.363.376.363h2.635C11.087 10 12 9.103 12 8s-.913-2-2.056-2h-4.87c-.206 0-.4.3-.4.5s.194.5.4.5z" fill="#fff"/><path d="M10.089 4h-1.94c-.214 0-.406.277-.406.499 0 .222.192.506.405.506H9.91C11.64 5.005 13 6.198 13 8s-1.36 3-3.09 3H5.16c-.212 0-.43.29-.43.513 0 .222.218.487.43.487h4.93C12.246 12 14 10.32 14 8.073 14 5.827 12.246 4 10.09 4z" fill="#fff"/><path d="M8 8.002c0-.222-.208-.502-.42-.502h-1.2c-.214 0-.38.28-.38.502 0 .223.197.498.338.498H7.58C7.85 8.5 8 8.24 8 8.002zM6.624 13H4.387c-.214 0-.387.278-.387.5 0 .222.173.5.387.5h2.237c.213 0 .376-.278.376-.5 0-.222-.163-.5-.376-.5z" fill="#fff"/></svg>