<!-- by TradingView --><svg width="18" height="18" xmlns="http://www.w3.org/2000/svg"><path fill="url(#paint0_linear)" d="M0 0h18v18H0z"/><path d="M12.904 7.89C13.307 5.975 12.417 5 10.737 5c-1.009 0-1.848.37-2.606 1.058l.147-.667s-.27-.105-.808-.105c-.587 0-.874.105-.874.105L5 12.883s.235.117.823.117c.538 0 .857-.117.857-.117l1.165-5.446c.587-.672 1.369-1.008 2.108-1.008 1.077 0 1.47.47 1.27 1.412l-1.08 5.042s.25.117.822.117c.554 0 .857-.117.857-.117l1.082-4.993z" fill="#fff"/><defs><linearGradient id="paint0_linear" x1="3.349" y1="3.122" x2="21.904" y2="24.434" gradientUnits="userSpaceOnUse"><stop stop-color="#1A1E21"/><stop offset="1" stop-color="#06060A"/></linearGradient></defs></svg>