<!-- by TradingView --><svg xmlns="http://www.w3.org/2000/svg" width="18" height="18"><path fill="#F0F3FA" d="M0 0h18v18H0z"/><path d="M11.83 4.21L11.6 4A3.83 3.83 0 009 3c-1.07 0-2.09.43-2.83 1.21A4.16 4.16 0 005 7.13V14h8V7.15c0-1.12-.43-2.15-1.17-2.94zm-1.24 9.36c-.37.14-.79.2-1.2.2H6.72v-1.36a3.95 3.95 0 01-.93-2.58v-2.6c0-1 .36-1.95 1.02-2.7.08 0-.03 0 .08.03.68.07 1.59.32 2.37.88.7.5 1.74 1.39 1.74 2.85v5.2c-.07.03-.33.05-.41.07z" fill="#070001"/><path d="M9.7 5.13a6 6 0 00-2.6-.92l-.34-.02a4.13 4.13 0 00-1.12 2.82v2.7a4 4 0 00.84 2.47l.19.23v1.44h3.17a4.15 4.15 0 001.57-.31V8.09A3.58 3.58 0 009.7 5.13zm-2.9 8.45v-.9c.43.39 1.03.72 1.58.9H6.8zm4.32-.2a4.04 4.04 0 01-4.1-.94l-.15-.14A3.63 3.63 0 016 9.7V7c0-.94.21-1.86.83-2.56 1.67.07 4.27 1.2 4.27 3.64v5.29h.03z" fill="#070001"/><path d="M8.1 10.33a.15.15 0 01-.14-.14V7.81c0-.63.48-1.14 1.06-1.14.58 0 1.06.51 1.06 1.14 0 .07-.06.14-.13.14-.06 0-.13-.07-.13-.14 0-.47-.37-.86-.8-.86-.43 0-.82.4-.82.86v2.38c0 .07-.04.14-.1.14z" fill="#070001"/><path d="M9.6 8.7c-.06 0-.14-.08-.14-.15 0-.19-.12-.32-.28-.32-.17 0-.3.13-.3.32 0 .07-.06.15-.14.15-.07 0-.14-.08-.14-.15 0-.37.26-.66.6-.66.34 0 .6.29.6.66-.05.07-.12.15-.2.15zm-1.5 1.8a.73.73 0 01-.72-.74c0-.07.06-.14.13-.14.06 0 .13.07.13.14 0 .24.2.44.43.44.24 0 .43-.2.43-.44 0-.07.07-.14.13-.14.07 0 .13.07.13.14.02.4-.28.73-.67.73zm-.9-1.44l-.65-.65v.56c0 .07-.07.14-.14.14s-.17-.07-.17-.17v-.9c0-.12.17-.2.27-.11l.64.65v-.39c0-.07.08-.14.15-.14.07 0 .14.07.14.14v.75c0 .13-.14.22-.24.12zm.87-.82c-.07 0-.13-.07-.13-.13 0-.03 0-.58-.37-.58-.06 0-.13-.07-.13-.14 0-.06.07-.13.13-.13.5 0 .63.56.63.85 0 .06-.07.13-.13.13z" fill="#070001"/></svg>