<!-- by TradingView --><svg width="18" height="18" fill="none" xmlns="http://www.w3.org/2000/svg"><path fill="url(#paint0_linear_1530)" d="M0 0h18v18H0z"/><path d="M6.943 10.508c.097-.136.19-.264.3-.39C5.914 10.452 5 11.149 5 11.957c0 .03.002.06.004.09.13-.052.268-.114.414-.188.877-.449 1.221-.928 1.525-1.35zm1.383 1.483c.265-.37.495-.689 1.143-1.02.648-.331 1.031-.325 1.475-.318.297.005.618.01 1.008-.077-.476-.266-1.26-.468-1.952-.576l-1.055.769-.48-.468c-.5.35-.756.706-.99 1.03-.265.37-.494.688-1.142 1.02-.455.232-.78.298-1.085.314.241.333.648.626 1.169.85.12-.048.248-.106.383-.175.878-.448 1.222-.926 1.526-1.35zm4.017-.958c-.507-.008-1.081-.017-1.959.431-.877.448-1.221.927-1.525 1.35-.265.37-.495.689-1.143 1.02l-.086.043a7.5 7.5 0 001.67.117c.163-.178.29-.354.409-.52.265-.37.495-.689 1.143-1.02.648-.33 1.031-.325 1.475-.318.204.004.42.007.66-.02.009-.052.013-.106.013-.16 0-.331-.154-.644-.428-.92l-.229-.003zm-1.74 2.796c1.049-.235 1.862-.693 2.21-1.256-.299.057-.64.166-1.046.374-.565.29-.909.59-1.163.882z" fill="#fff"/><path d="M9 3L4.5 7.667 9 12l4.5-4.333L9 3z" fill="url(#paint1_linear_1530)"/><defs><linearGradient id="paint0_linear_1530" x1="3.349" y1="3.122" x2="21.904" y2="24.434" gradientUnits="userSpaceOnUse"><stop stop-color="#1A1E21"/><stop offset="1" stop-color="#06060A"/></linearGradient><linearGradient id="paint1_linear_1530" x1="11.169" y1="5.381" x2="6.904" y2="9.557" gradientUnits="userSpaceOnUse"><stop offset=".09" stop-color="#FF6D41"/><stop offset=".5" stop-color="#FA297F"/><stop offset="1" stop-color="#FA297F"/></linearGradient></defs></svg>