<!-- by TradingView --><svg width="18" height="18" viewBox="0 0 18 18" xmlns="http://www.w3.org/2000/svg"><path fill="#F0F3FA" d="M0 0h18v18H0z"/><path d="m14.87 8.53-2.5-4.06a.97.97 0 0 0-.37-.34 1.05 1.05 0 0 0-.5-.13h-5c-.18 0-.35.04-.5.13a.97.97 0 0 0-.36.34l-2.5 4.06a.89.89 0 0 0 0 .94l2.5 4.06c.08.14.2.26.36.34.15.09.32.13.5.13h5c.18 0 .35-.04.5-.13.15-.08.28-.2.36-.34l2.5-4.06a.89.89 0 0 0 0-.94Z" fill="url(#af5irce0y)"/><defs><radialGradient id="af5irce0y" cx="0" cy="0" r="1" gradientUnits="userSpaceOnUse" gradientTransform="matrix(12.0044 0 0 11.2541 12.03 13.87)"><stop stop-color="#EC991C"/><stop offset="1" stop-color="#E9B213"/></radialGradient></defs></svg>