<!-- by TradingView --><svg width="18" height="18" fill="none" xmlns="http://www.w3.org/2000/svg"><path fill="url(#paint0_linear)" d="M0 0h18v18H0z"/><path fill-rule="evenodd" clip-rule="evenodd" d="M9 9s1.875-3.09 1.875-4.125a1.875 1.875 0 00-3.75 0C7.125 5.911 9 9 9 9zm0 0s-3.09 1.875-4.125 1.875a1.875 1.875 0 010-3.75C5.911 7.125 9 9 9 9zm0 0s3.09-1.875 4.125-1.875a1.875 1.875 0 010 3.75C12.089 10.875 9 9 9 9zm0 0s1.875 3.09 1.875 4.125a1.875 1.875 0 01-3.75 0C7.125 12.089 9 9 9 9z" fill="#fff"/><defs><linearGradient id="paint0_linear" x1="3.349" y1="3.122" x2="21.904" y2="24.434" gradientUnits="userSpaceOnUse"><stop stop-color="#1A1E21"/><stop offset="1" stop-color="#06060A"/></linearGradient></defs></svg>