<!-- by TradingView --><svg width="18" height="18" viewBox="0 0 18 18" xmlns="http://www.w3.org/2000/svg"><path fill="#F0F3FA" d="M0 0h18v18H0z"/><path d="M7.24 10.47 9 4l-.5 10-4.32-3.83a.54.54 0 0 1-.13-.62L6 5v4.16c0 .23.09.44.27.6l.97.71Zm3.52.04L9 4l.5 10 4.32-3.83a.54.54 0 0 0 .13-.62L12 5v4.16c0 .23-.1.44-.27.6l-.97.75Z" fill="url(#azxp1gvnr)"/><defs><linearGradient id="azxp1gvnr" x1="14.15" y1="9.88" x2="4.74" y2="9.74" gradientUnits="userSpaceOnUse"><stop offset=".03" stop-color="#0084C2"/><stop offset="1" stop-color="#04C1E9"/></linearGradient></defs></svg>