<!-- by TradingView --><svg width="18" height="18" viewBox="0 0 18 18" xmlns="http://www.w3.org/2000/svg"><path fill="#F0F3FA" d="M0 0h18v18H0z"/><path fill-rule="evenodd" d="m6.39 6.85 1.11 1.2-.13.17-1.46-.67-1.35-.07c-.25-.01-.38-.3-.23-.5l.99-1.34a.3.3 0 0 1 .52.05l.55 1.16Zm-.6.35-.9-.11a.1.1 0 0 1-.07-.05.14.14 0 0 1 0-.16l.47-.62c.1-.14.32-.12.4.03l.3.6c.02.06.02.13 0 .2a.2.2 0 0 1-.2.1Zm-.69-.28c.09 0 .34.04.52.06.05 0 .1-.02.12-.07a.12.12 0 0 0 0-.1l-.18-.35a.13.13 0 0 0-.22-.03l-.27.37a.08.08 0 0 0 0 .09l.03.03Z" fill="url(#ac3hp3e1o)"/><path d="m4.89 10.45.28-.36a.1.1 0 0 0 0-.12.1.1 0 0 0-.07-.05l-.33-.03a.12.12 0 0 0-.12.16l.13.37c.01.03.04.05.07.05.01 0 .03 0 .04-.02Z" fill="#00A69C"/><path fill-rule="evenodd" d="M5.42 9.46c.45-.1 1.83-.53 1.85-.53l.06.17-1.62 1.04-.67.97a.26.26 0 0 1-.47-.05l-.5-1.36c-.07-.19.08-.39.28-.36l1.07.12Zm-.02.6-.49.63a.09.09 0 0 1-.06.03.11.11 0 0 1-.12-.07L4.5 10a.2.2 0 0 1 .2-.28l.57.05c.06 0 .1.03.14.08.04.07.03.15-.01.2Z" fill="url(#bc3hp3e1o)"/><path d="m12.51 9.02-.36.13a.09.09 0 0 0-.02.15l.23.18a.1.1 0 0 0 .15-.06l.07-.33c0-.03-.01-.05-.03-.06h-.04Z" fill="url(#cc3hp3e1o)"/><path fill-rule="evenodd" d="M11.69 9.5c-.37-.14-2.67-.65-2.68-.66l.03-.16 2.74.2.91-.41c.17-.07.35.07.31.26l-.22 1.2a.23.23 0 0 1-.36.14l-.73-.58Zm.29-.44.62-.22h.06a.1.1 0 0 1 .05.1l-.11.58a.17.17 0 0 1-.27.1l-.39-.29a.16.16 0 0 1 .04-.27Z" fill="url(#dc3hp3e1o)"/><path fill-rule="evenodd" d="M9.1 7.35c.07-.1.15-.2.15-.31v-.86c0-.1.03-.2.11-.28l.3-.22c.06-.06.14-.06.23-.06h.64c.07 0 .14 0 .2.05l.32.27c.08.08.13.18.13.3v.79a.4.4 0 0 1-.03.16c-.04.09-.13.15-.21.2l-.08.06a.67.67 0 0 1-.17.1.43.43 0 0 1-.16.02h-.59c-.06 0-.13 0-.19.04l-.97.61-.19-.2.49-.64.01-.03Zm.42-1.12c0-.18.15-.33.34-.33h.7c.2 0 .34.15.34.33v.73c0 .18-.15.33-.33.33h-.71a.34.34 0 0 1-.34-.33v-.73Zm1.1.36c0 .24-.18.42-.4.42a.42.42 0 0 1-.42-.42c0-.23.18-.41.41-.41.23 0 .42.18.42.41Z" fill="#1259A2"/><path fill-rule="evenodd" d="M6.9 10.88c-.04.09-.1.18-.08.28l.1.68a.32.32 0 0 1-.07.24l-.15.2a.3.3 0 0 1-.2.11l-.55.09a.3.3 0 0 1-.21-.05 28.5 28.5 0 0 1-.28-.18.31.31 0 0 1-.14-.21l-.1-.63a.32.32 0 0 1 .07-.24l.17-.23a.3.3 0 0 1 .21-.12l.47-.06c.1 0 .17-.09.25-.16l1.28-1.34.12.1-.88 1.52Zm-.28.93a.25.25 0 0 1-.2.3l-.53.07a.25.25 0 0 1-.28-.21l-.08-.54a.25.25 0 0 1 .21-.3l.52-.07c.14-.02.26.07.28.21l.08.54Zm-.85-.14a.32.32 0 0 1 .26-.37c.17-.02.33.1.36.27.02.18-.1.34-.27.37a.31.31 0 0 1-.35-.27Z" fill="url(#ec3hp3e1o)"/><path fill-rule="evenodd" d="M7.85 6.6a.7.7 0 0 0-.4-1.26.7.7 0 0 0-.69.7c0 .38.3.69.68.7l.4 1.09.22-.03-.2-1.2Zm-.4-.15c.23 0 .42-.18.42-.41a.42.42 0 0 0-.42-.42.42.42 0 0 0-.41.42c0 .23.18.41.41.41Zm.28-.41c0 .15-.13.28-.28.28a.28.28 0 0 1-.27-.28c0-.16.12-.28.27-.28.15 0 .28.12.28.28Z" fill="url(#fc3hp3e1o)"/><path fill-rule="evenodd" d="M7.94 10.13c-.29.11-.5.4-.5.73.01.42.35.76.77.76.42 0 .76-.34.76-.76a.77.77 0 0 0-.61-.76l-.07-.7-.22-.03-.13.76Zm.27.24a.49.49 0 0 0 0 .98c.27 0 .48-.22.48-.5a.49.49 0 0 0-.48-.48Zm-.3.48a.28.28 0 1 1 .56 0 .28.28 0 1 1-.55 0Z" fill="#1081B4"/><path d="M8.97 4.7c0 .15-.12.28-.27.28a.28.28 0 0 1-.28-.28c0-.16.12-.28.27-.28.16 0 .28.12.28.28Z" fill="url(#gc3hp3e1o)"/><path fill-rule="evenodd" d="M8.9 5.37A.7.7 0 0 0 8.7 4a.69.69 0 0 0-.68.7c0 .3.19.55.45.65L8.14 7.7l.21.06.56-2.4Zm-.2-.25c.23 0 .41-.19.41-.42a.42.42 0 0 0-.42-.42.41.41 0 0 0-.4.42c0 .23.18.42.41.42Z" fill="url(#hc3hp3e1o)"/><path d="M13.15 11.48c-.16 0-.28-.12-.28-.27 0-.14.12-.26.28-.26.16 0 .28.12.28.27 0 .14-.12.26-.28.26Z" fill="#1082B5"/><path fill-rule="evenodd" d="M12.3 11.2c0 .44.38.8.85.8s.85-.35.85-.78c0-.44-.38-.8-.85-.8a.87.87 0 0 0-.58.2L9.13 9 9 9.2l3.3 1.9v.1Zm.28 0c0 .3.26.54.57.54.31 0 .57-.23.57-.52 0-.3-.26-.53-.57-.54-.31 0-.57.23-.57.53Z" fill="url(#ic3hp3e1o)"/><path d="M10.13 11.98c0 .02-.14.33-.28.61-.09.2-.06.43.08.6l.5.61c.13.15.3.22.5.2l.6-.09a.54.54 0 0 0 .41-.3l.35-.7c.1-.19.07-.42-.06-.59l-.46-.6a.54.54 0 0 0-.5-.21l-.48.06-2.11-2.42-.09.14 1.54 2.69Zm1.72.75c0 .44-.34.8-.77.8a.79.79 0 0 1-.78-.8c0-.44.35-.8.78-.8.43 0 .77.36.77.8Zm-.38 0a.4.4 0 0 1-.4.4.4.4 0 0 1-.38-.4c0-.22.17-.4.39-.4a.4.4 0 0 1 .39.4Z" fill="url(#jc3hp3e1o)"/><path d="m11.66 8.07.13.13c.09.1.22.13.34.08l.43-.16c.1-.03.18-.12.2-.23l.08-.36c.03-.1 0-.2-.07-.29l-.3-.33a.31.31 0 0 0-.33-.1l-.42.14a.32.32 0 0 0-.21.23l-.07.29-2.54.93.06.07 2.6-.5.1.1Zm.49-.91c.22 0 .41.19.41.42 0 .23-.19.42-.41.42a.42.42 0 0 1-.42-.43c0-.23.19-.42.42-.41Zm.05.17c.12.04.18.18.13.3a.23.23 0 0 1-.3.13.23.23 0 0 1-.12-.3.23.23 0 0 1 .29-.13Z" fill="url(#kc3hp3e1o)"/><path d="m5.36 8.66.36.43c.11.13.3.14.44.03l.39-.33.8-.1.02-.22-.79-.14-.36-.41a.3.3 0 0 0-.42-.04l-.4.32a.32.32 0 0 0-.04.46Zm.27-.04a.16.16 0 0 1 0-.23l.25-.25a.15.15 0 0 1 .22 0l.24.25c.06.06.06.16 0 .23l-.24.25a.15.15 0 0 1-.22 0l-.25-.25Zm.15-.05a.1.1 0 0 1 0-.13l.14-.15c.04-.04.1-.04.13 0l.15.15a.1.1 0 0 1 0 .13l-.15.15a.09.09 0 0 1-.13 0l-.14-.15Z" fill="#1159A2"/><path fill-rule="evenodd" d="M8.14 9.8a1.11 1.11 0 0 0 0-2.24c-.6.01-1.1.51-1.1 1.13 0 .62.5 1.12 1.1 1.12Zm0-.55c.3 0 .55-.25.55-.56 0-.3-.24-.56-.55-.56-.3 0-.55.25-.55.56 0 .3.25.56.55.56Z" fill="#1259A2"/><defs><linearGradient id="ac3hp3e1o" x1="4.79" y1="6.61" x2="8.25" y2="8.78" gradientUnits="userSpaceOnUse"><stop offset=".27" stop-color="#00A69C"/><stop offset="1" stop-color="#006771"/></linearGradient><linearGradient id="bc3hp3e1o" x1="4.34" y1="10.07" x2="7.6" y2="8.99" gradientUnits="userSpaceOnUse"><stop offset=".32" stop-color="#00A69C"/><stop offset="1" stop-color="#186472"/></linearGradient><linearGradient id="cc3hp3e1o" x1="10.36" y1="8.83" x2="8.66" y2="8.65"><stop stop-color="#00A69C"/></linearGradient><linearGradient id="dc3hp3e1o" x1="10.36" y1="8.83" x2="8.66" y2="8.65" gradientUnits="userSpaceOnUse"><stop stop-color="#00A69C"/><stop offset="1" stop-color="#13626F"/></linearGradient><linearGradient id="ec3hp3e1o" x1="7.02" y1="10.9" x2="7.87" y2="9.43" gradientUnits="userSpaceOnUse"><stop stop-color="#1159A2"/><stop offset="1" stop-color="#035C72"/></linearGradient><linearGradient id="fc3hp3e1o" x1="7.34" y1="6.87" x2="7.86" y2="8.1" gradientUnits="userSpaceOnUse"><stop stop-color="#1182B5"/><stop offset="1" stop-color="#086B88"/></linearGradient><linearGradient id="gc3hp3e1o" x1="9.06" y1="4.03" x2="8.31" y2="7.55"><stop offset=".53" stop-color="#2F9AD5"/></linearGradient><linearGradient id="hc3hp3e1o" x1="9.06" y1="4.03" x2="8.31" y2="7.55" gradientUnits="userSpaceOnUse"><stop offset=".53" stop-color="#2F9AD5"/><stop offset="1" stop-color="#125E7D"/></linearGradient><linearGradient id="ic3hp3e1o" x1="13.63" y1="11.86" x2="8.28" y2="8.48" gradientUnits="userSpaceOnUse"><stop offset=".49" stop-color="#1082B5"/><stop offset="1" stop-color="#015E6D"/></linearGradient><linearGradient id="jc3hp3e1o" x1="10.15" y1="11.17" x2="8.55" y2="9.01" gradientUnits="userSpaceOnUse"><stop stop-color="#2D99D5"/><stop offset="1" stop-color="#176273"/></linearGradient><linearGradient id="kc3hp3e1o" x1="10.52" y1="8.11" x2="8.55" y2="8.49" gradientUnits="userSpaceOnUse"><stop stop-color="#2E99D5"/><stop offset="1" stop-color="#136371"/></linearGradient></defs></svg>