<!-- by TradingView --><svg width="18" height="18" viewBox="0 0 18 18" xmlns="http://www.w3.org/2000/svg"><path fill="#044AEF" d="M0 0h18v18H0z"/><path d="M3 12h1V9.1C4 8 4.9 7 6 7s2 1 2 2.1v.9h1v-.96C9 7.36 7.7 6 6.12 6h-.24A2.97 2.97 0 0 0 3 9.04V12Z" fill="#F0F3FA"/><path d="M8 12v-1h1v1H8Z" fill="#CCC"/><path d="M9 6h1.13l1.77 4.33c.02.06.07.1.11.1.05 0 .1-.03.12-.09l1.31-3.08.97.48-1.54 3.66c-.16.38-.47.6-.84.6-.36 0-.67-.22-.83-.6L9 6Z" fill="#F0F3FA"/><path d="m14 6-.42 1 1 .44.42-1L14 6Z" fill="#CCC"/></svg>