<!-- by TradingView --><svg width="18" height="18" fill="none" xmlns="http://www.w3.org/2000/svg"><path fill="#F0F3FA" d="M0 0h18v18H0z"/><path fill-rule="evenodd" clip-rule="evenodd" d="M9.243 3.563L9 3.428l-.243.135L6.18 4.995l.515.858L9 4.572l2.305 1.28.515-.857-2.577-1.432zm3.452 1.918l-.515.858.82.455v4.238l-2 1.477v-1.241l1.277-.852-.554-.832-1.5 1-.223.148v3.758l.797-.588 3-2.216.203-.15V6.206l-.257-.143-1.048-.582zm-6.875.858l-.515-.858-1.048.582L4 6.206V11.768l.223.148 3 2 .777.518v-3.702l-.223-.148-1.5-1-.554.832L7 11.268v1.298l-2-1.334V6.794l.82-.455zM9 5.417l.257.154 2.5 1.5-.514.858L9 6.583 6.757 7.93l-.514-.858 2.5-1.5L9 5.417z" fill="url(#paint0_linear)"/><defs><linearGradient id="paint0_linear" x1="9" y1="3.428" x2="9" y2="14.491" gradientUnits="userSpaceOnUse"><stop stop-color="#34B4E7"/><stop offset="1" stop-color="#3476BC"/></linearGradient></defs></svg>