<!-- by TradingView --><svg width="18" height="18" viewBox="0 0 18 18" xmlns="http://www.w3.org/2000/svg"><path fill="url(#az3nh0jxp)" d="M0 0h18v18H0z"/><path d="m4.16 5.92 2.3-1.47a838.74 838.74 0 0 1 2.27-1.43l-.7 1.28-.37.68A29.17 29.17 0 0 1 6.6 6.91a.71.71 0 0 0-.23.02.56.56 0 0 0-.23.13l-.03.03-.98-.58a8.53 8.53 0 0 1-.96-.6Zm6.18-.94L9.27 3l.1.06.96.6 1.34.86 2.19 1.4-1.95 1.16-.04-.04a.51.51 0 0 0-.35-.14H11.4l-1.06-1.93Zm-1.5-1.5L6.86 7.03l.04.05a.6.6 0 0 1 .15.4v.16l1.8 1.08V3.47Zm2.12 4.17-1.8 1.06V3.46l1.98 3.59-.03.03a.63.63 0 0 0-.15.56v.01ZM4 8.93v2.74l1.04-1.9L6.07 7.9l-.03-.05a.61.61 0 0 1-.09-.43.2.2 0 0 0 0-.06L4 6.2v2.74Zm8.04-1.58.98-.58.98-.58V11.66l-1.04-1.89-1.03-1.88.03-.04a.63.63 0 0 0 .09-.48v-.02Zm-5.17.6a.6.6 0 0 1-.2.12l-.03.02V9.9l.05.01.18.11.04.04.9-.53.9-.54-1.8-1.08-.04.03ZM9.3 9a81.73 81.73 0 0 1 1.8-1.08l.03.03c.06.05.13.1.2.12l.03.02V9.9h-.03a.58.58 0 0 0-.2.13l-.03.03-.9-.53L9.3 9Zm-3-.92-1.91 3.5a69.16 69.16 0 0 0 1.57-.95l-.01-.06v-.02a.6.6 0 0 1 .37-.63l.04-.01V8.08h-.02l-.03-.01H6.3Zm5.34 0h.03l.03-.01 1.92 3.5-1.57-.93v-.26a.6.6 0 0 0-.38-.46l-.03-.01V8.09Zm-4.6 2.26.01.04a.8.8 0 0 1-.01.27.63.63 0 0 1-.14.25l-.04.05 1.98 3.57V9.27l-1.8 1.07Zm4.1.6-1.98 3.58V9.28l1.8 1.06v.02c-.04.2.01.4.14.55l.04.04Zm-6.02.54-.97.59 4.6 2.92a640.27 640.27 0 0 0-2.15-3.91h-.07a.54.54 0 0 1-.4-.15l-.03-.03-.98.58Zm6.6-.44a.6.6 0 0 0 .19-.14l1.94 1.16-2.25 1.45-2.1 1.33-.2.13-.05.03.01-.02.16-.28.92-1.68a24.9 24.9 0 0 1 1.07-1.94h.1c.08 0 .14 0 .22-.04Z" fill="#fff"/><defs><linearGradient id="az3nh0jxp" x1="3.26" y1="2.23" x2="13.89" y2="15.87" gradientUnits="userSpaceOnUse"><stop stop-color="#5566FE"/><stop offset="1" stop-color="#B370FF"/></linearGradient></defs></svg>