<!-- by TradingView --><svg width="18" height="18" viewBox="0 0 18 18" xmlns="http://www.w3.org/2000/svg"><path fill="#181B1E" d="M0 0h18v18H0z"/><path d="m14 12.7-.12-.17c.1-.27.15-.45.05-.74-.08-.2-.02-.54-.23-.65.14-.42-.06-1.06-.47-1.27v-.19c-.02-.17-.15-.23-.3-.2-.08 0-.15.06-.24.05-.26-.02-.3-.14-.75-.12-.2 0-.52.14-.62.3-.48 0-.29.07-.71.07 0-.34.06-.54-.27-.56h-.78c-.09-.17-.06-.15-.06-.4v-.5c.06-.04.15-.04.25-.07.5-.16.82-.4.95-.93.17-.68.08-.84.17-1.32.05-.3.1-1.43-.06-1.73-.1-.19-.06.02-.15-.22a1.29 1.29 0 0 0-.29-.44 2 2 0 0 0-.93-.56c-.4-.12-1.18 0-1.57.24-.72.46-.43.56-.79.96-.2.22-.18 1.62-.06 1.99l.14.94.02.08c.08.21.14.45.3.6.45.45.6.3.9.46 0 .16.06.45-.07.54-.12.07-.13.1-.2.22l-.06.17c-.2 0-.65-.08-.68.21v.35c-.32 0-.17.02-.31-.04-.12-.04-.27-.02-.4-.02l-.16-.1a.95.95 0 0 0-.7-.17l-.23.06c-.5.17-.38 0-.61.02-.12.01-.09.01-.13.06-.1.1-.09.22-.09.34-.17.04-.3.32-.38.47-.12.26-.13.42-.1.8 0 0-.14.24-.14.44 0 .27-.2.7.04.95-.03.06-.1.18-.16.2C4.92 14.16 6.8 15 8.81 15c2.09 0 4.2-.8 5.19-2.3Z" fill="#fff"/><path d="m9.39 13.6-.01-.23.93-.03c-.13.1-.16.16-.37.22-.2.05-.35.06-.55.04Zm.17-.95c.27 0 .9.03.9.32.02.4-.3.33-.75.34h-.19c-.18 0-.24-.68.04-.66Zm-.2-.29c.45-.04.67.04.93.25-.34-.01-.58-.02-.93 0v-.25ZM8.23 9.23c-.04.03-.02-.04-.07.1-.17.1-.47-.03-.66.07-.1.26.04.32-.02.5-.1.04-.28.05-.38.04-.19-.03.06-.04-.31-.06-.27-.01-.16-.14-.56-.26-.59-.18-.81.14-1.03.1-.12-.02-.2-.07-.3-.05-.07.14-.01.28-.1.39-.13.13-.56.44-.42 1 .06.25.01.16-.08.36-.08.19 0 .25-.07.41-.17.5-.06.38.05.77-.13.16-.11.07-.15.24.45-.2.29-.03.43.36l.08.08.04-.15 1.33.04c.05.31-.12.75-.1.98l.17.08c0-.15-.05-.24-.05-.35l.04-.33v-.13c-.03-.15.02-.12.02-.21-.01-.15.1-.05-.16-.1.06-.13 0-.04.09-.1l.07-.1.02-.52c.22-.04 1.05-.16 1.23-.16l-.15.07c-1 .18-.54.09.14.03v.32c.01.05.05.03.05.28l-.03.25-.03.1c-.01.62-.17.94.32 1.36.1.1.07 0 .13.13h.06c.02-.13.22-.07.6-.07h.67c.47-.01.93-.03 1.4-.02l.29-.04-.07-2h.4l.01.97.02.7c0 .16-.02.16.07.2-.04-.26.1-.18.18-.4.05-.16.04-.36-.06-.49-.16-.2-.16-.02-.16-.41v-.62h-.45l-.02-.3.51.07c.13.03.3.14.45.18l-.02.25V13l.05.08.24-.05c.03.17.03.37.06.54.05.3.02.27 0 .56l.18-.08c-.05-.24-.17-.7-.14-.97l1.34-.06.03.16c.32-.18.45-.47.5-.5l-.04-.12-.1-.06c.02-.14.12-.24.13-.4.02-.22-.06-.26-.1-.4-.06-.15 0-.21-.1-.4-.1-.2-.14-.1-.08-.34.07-.26-.04-.57-.17-.76-.07-.11-.16-.16-.25-.25-.1-.1-.05-.25-.1-.38-.12-.03-.2.04-.34.06-.2.02-.49-.3-1.01-.1-.43.18-.3.28-.54.3-.4.02-.12.03-.35.07-.68.09-.18-.35-.4-.54-.18-.1-.75-.02-1.03-.06V8.2l.26-.06c-.04-.04.07-.07-.11-.04.14-.09.19-.15.27-.24.1-.1.12-.1.2-.25-.04-.03 0-.06-.04.03-.1.02-.03.04-.1.1l-.02.01c-.29.21-.08.13-.26.27-.08.07-.25.18-.36.14.22 0 .04 0 .09.07-.07.31.06.96-.03 1.2-.16.18-.53.2-.7 0l-.02-.6c-.06-.05-.02 0-.05-.08l-.02-.1c0-.15-.01-.35.07-.46-.23-.09-.09-.08-.27-.2-.79-1.37-.55-1.34-.46-1.35.32 0-.16-2.1-.35-2.15-.01-.2-.15-.4-.04-.58.18-.31.27-.22.38-.17l-.1-.13.12-.09c.35-.27.5-.15.34-.24-.35.06-.8.5-.92.89-.13.4-.21.04-.26.83-.02.52.12 2.16.36 2.53.07-.04.02.01.01-.08-.07-.95.07-.4.48.22l.45.46c-.21 0-.03 0-.1.04l.26.06.01.64c-.12.1-.29.18-.3.35Zm-.47 1.17c.18 0 1.01-.02 1.12.02.16.05.97.8 1.17 1.05.1.15.13.73.12.95a1.5 1.5 0 0 0-.84-.12c-.03.11-.02.97-.01 1.19l.03.15c.22.19 1.51-.15 1.14-.9-.06-.13-.15-.17-.18-.23l-.1-.8c.17.12.24.41.42.54l.07 2.1v.26l-1.37.02-.1-3.84-1.62.02-.1.16-.09.07.01-.37c.34-.05.14-.04.32.09.04-.1.03-.24 0-.36Zm2.85 1.37v.26c-.13-.13-.6-.9-1.28-1.41-.08-.06-.15-.12-.24-.16l.1-.09h1.03c0 .12-.02.26.03.36l.08-.1v-.02l.23.02.05 1.13ZM8.3 9.33l.05-.16c.08-.05.04-.05.17-.1v.27l-.21-.01Zm.82 1.54c.04.1.14 3.5.11 3.74l-1.53.01c-.36-.52-.33-.13-.32-1.13l.03-1.45v-.7c0-.18.19-.42.27-.45a23.2 23.2 0 0 1 1.44-.02Zm-3.24 2.22-1.04-.04.07-1.33c.04 0 .9.29 1.16.32l-.19 1.05Zm-1.09-.9-.05.28c-.13.03-.15.05-.33.04-.1-.18-.18-.34-.04-.53l.16.13c.12-.2.23.07.26.08Zm1.33.15c.04-.38.06-.2.13-.33.05-.07.06-.27.1-.36.05-.14 0-.02.24-.22.1-.1.27-.1.37-.04l.06-.06.02-.02s0-.02.02-.03l.27.01c0 .42.05.4-.38.74-.3.23-.38.26-.83.3Zm5.84-.36c.16-.08.42-.1.6-.17.14-.05.43-.18.54-.19l.1 1.34-1.05.04-.2-1.02Zm-.58-.61c.4.29.2.1.36.5.08.21.15.01.16.38-.4 0-.6-.08-.86-.27-.27-.2-.41-.27-.38-.71.3-.06.28.02.38.04.15.04.2-.05.34.06Z" fill="#171717"/><path d="m10.7 14.36-.08-2.11c-.18-.13-.25-.42-.42-.54l.1.8c.03.06.12.1.19.24.36.74-.93 1.08-1.15.9l-.03-.16c-.01-.22-.02-1.08.01-1.19.3-.05.6.02.84.12.01-.22-.01-.8-.12-.95-.2-.26-1-1-1.17-1.05-.11-.04-.94-.02-1.12-.02.02.12.03.26-.01.36-.03-.02-.08-.12-.1-.12l-.22.03v.37l.07-.07.11-.16 1.62-.02.1 3.84 1.38-.02v-.25ZM6.84 10.88c.18-.62-.25-1.09-.7-1.2a.99.99 0 0 0-1.22.7c-.31 1.26 1.56 1.77 1.92.5ZM11.96 9.57a1 1 0 0 0-.86 1.12c.15 1.26 2.18 1.05 1.97-.3a.97.97 0 0 0-1.11-.82Z" fill="#CDCFDB"/><path d="M9.03 13.89c-.24 1.02-1.71.63-1.5-.34a.78.78 0 0 1 .93-.57c.36.08.68.46.57.9Zm-.97-2.8c.47-.14.85.2.94.53a.77.77 0 0 1-.52.95c-.95.28-1.46-1.19-.42-1.48Zm1.07-.22c-.11-.01-1.38 0-1.45.02-.08.03-.27.27-.27.44v.71l-.03 1.45c0 1-.04.6.32 1.13l1.53-.01a69.4 69.4 0 0 0-.1-3.74Z" fill="#CDCFDB"/><path d="M9.35 3.95s-2 1-2.1.48c-.05.1.08.74.1.9.07.41.06.73.23 1.24.13.4.29 1.22.7 1.48.17.11.05.07.28.15-.15.23.07 1.3.03.09.15.02.23 0 .38 0 .16-.01.24-.05.38-.05.07-.03.1-.08.27-.2.2-.16.46-.41.55-.66.42-1.36.3-.83.57-.86.05-.54.1-1.23.04-1.78-.01-.12-.03-.28-.09-.37-.04-.06-.34-.68-.6-.83-1.19.93-.46.66-.74.41Z" fill="#201F20"/><path d="M6.08 12.04c-.27-.03-1.13-.32-1.17-.32l-.07 1.33 1.04.04.2-1.05Z" fill="#CED0DC"/><path d="m11.96 11.98.2 1.02 1.04-.04-.1-1.34c-.1 0-.4.15-.54.2-.18.05-.44.08-.6.16Z" fill="#CDCFDB"/><path d="M9.03 13.88a.77.77 0 0 0-.57-.9.78.78 0 0 0-.94.57c-.2.97 1.27 1.36 1.51.33Z" fill="#030403"/><path d="M8.06 11.09c-1.04.3-.53 1.76.42 1.48a.77.77 0 0 0-.42-1.48Z" fill="#050506"/><path d="M9.57 8.1c.18-.02.07.01.11.05.2-.05.53-.2.65-.34.26-.3.39-.88.4-1.29-.07-.01-.04-.05-.04-.16l.02-.28c.02-.74.06-.64-.03-1.53-.22 1.02-.2 2.84-1.11 3.56Z" fill="#414241"/><path d="m11.65 13.01-.01-.22-.05-.13c-.02-.08.01-.05-.05-.1-.05-.06-.14-.07-.21-.1a3.68 3.68 0 0 0-.25-.06c-.37-.08-.24-.03-.28.04.06.12-.06.07.18.08.26 0 .27-.07.27.54 0 .4-.05.36.12.5.35.32-.09.6-.1.91.2-.05.46-.2.64-.27 0-.23.08-.36.05-.55-.08-.75-.14-.44-.39-.6l.03-.15v.03c.04.11-.01.03.05.08Z" fill="#4A4A4C"/><path d="m6.13 13.98.04.3c.2.06.39.16.6.23.05-.05.04.02.06-.11-.17-.14-.43-.52-.15-.8.16-.17.12-.14.11-.45 0-.17-.04-.42.05-.56.2-.1.43.07.37-.18-.35-.02-.51.11-.74.25-.04.37.18.45-.21.54l-.05.02c-.07-.1-.1.6-.08.76Z" fill="#494A4C"/><path d="M8.22 3.3c.17.08.01-.04-.34.23l-.12.1.1.12c-.1-.05-.2-.14-.38.17a.93.93 0 0 0-.15.54l.19.04c-.03-.06-.02-.1 0-.22.08-.38.16-.46.43-.5-.01.02.04.1-.03 0-.05-.06-.02.01-.04-.1.27-.17.44-.22.78-.24h.28l.03-.01c.67-.08.65.07.81.2.15.1.1-.02.12.14l.1-.05c-.05-.06.02-.13.08-.18-.24-.36-1.45-.56-1.86-.25Z" fill="#363636"/><path d="M7.52 4.5c-.03-.06-.02-.1 0-.2v-.02c.12-.6.24-.57.3-.55.04 0 .06 0 .06-.05.27-.17.44-.22.78-.24.33 0 .8-.13 1.04.11.25.25.45.04.65.36.09.14.19.31.16.5l-.06.04-.1.05c.14.14 0 .89-.06 1.27l-.03.17c-.03.24-.07.26-.11.27-.2.08-.22.87-.26 1.03l-.09.05c.16-.27.16-.75.23-1.08.02-.09.05-.15.08-.21.03-.07.06-.13.08-.23.02-.16.06-.43.06-.58 0-.11.01-.22.03-.32l.03-.29c.01-.16-.02-.27-.05-.38l-.05-.2-.03-.13c-.24.09-.25.58-.24.92a12.82 12.82 0 0 1-.18 2.34c-.02.1-.02.1-.06.13a.65.65 0 0 0-.04.02c.1-.23.23-.86.17-1.11l-.1-.2c-.21-.36.03-.8-.04-1.19a.49.49 0 0 1-.01-.15 2.24 2.24 0 0 1-.7-.3l-.02-.08c-.03.13-.7.4-.83.4l.04.05c0 .21-.07.46-.1.67-.05.34-.09.5-.09.67 0 .19.04.38.12.82.15.82.06 1.18-.12.04-.03-.17-.06-.33-.08-.34V6.5c-.01-.12-.03-.24-.1-.33l-.02-.03c-.16-.2-.24-.3-.27-.64a5.5 5.5 0 0 1 0-1Z" fill="#484848"/><path d="M8.94 10.21c.14-.02.13-.06.3-.06l1.03.03c.13-.1.18-.18.11-.37l-.83-.02c-.21.02-.57.36-1.06.01.03.12.09.16.17.24.13.14.1.08.21.13l.03.01.02.02.02.01Z" fill="#8E8E8E"/><path d="M8.28 9.41c.03.15.08.25.14.34.17-.09.18.1.43.1.5.04.4-.14.7-.15.26 0 .63.03.86 0 .09-.34-.04-.28-.3-.29-1.04 0-.47-.05-.81.16-.27.18-.58.13-.8-.15h-.22Z" fill="#8E8E8E"/><path d="M4.81 10.73a3.8 3.8 0 0 0-.17.74c.24.1 1.23.6 1.57.49l.05-.32c-.43.06-.64.1-1-.14-.25-.18-.36-.36-.45-.77ZM11.74 11.58a.9.9 0 0 0 .1.32c.34-.03.85-.21 1.18-.35.12-.06.22-.14.33-.19l-.18-.72c-.1.28-.06.46-.43.76-.35.28-.54.2-1 .18Z" fill="#767676"/><path d="M11.6 11.7c-.04-.15-.07-.1-.2-.2-.17-.12-.1-.07-.33-.07-.3 0 0-.1-.3-.08-.03.17-.02.29.08.39.19.16.65.55.93.43-.02-.16.03-.04-.12-.12 0-.12-.02-.25-.05-.35Z" fill="#121212"/><path d="M6.24 12.25c.33-.02.5-.12.68-.28.08-.06.2-.15.25-.21.05-.05.06-.05.07-.15l-.03-.22c-.3-.01.09.08-.37.08-.2 0-.17.04-.32.14-.24.16-.08.3-.16.48-.09.17-.06-.07-.12.16Z" fill="#111011"/><path d="M7.82 14.78c.03 0 .07 0 .1.02.17.04-.15-.05.06.01l.05.03h1.82c.08-.05.06-.03.16-.05l.16-.02c.1-.02.23-.04.32-.1l-1.4.02-.67.01c-.38 0-.58-.06-.6.08Z" fill="#CDCFDB"/><path d="m8.53 10.2.06-.03-.27-.34a2.63 2.63 0 0 0-.72.01c-.13.2 0 .38.23.38s.47-.06.7-.03Z" fill="#8E8E8E"/><path d="M7.12 5.64c.02-.16.04-.09.07-.1l.15-.04.06.32.15.84c.05.3.12.76.34 1.02l.45.46c-.14 0-.12.03-.3-.04-.1-.04-.2-.07-.3-.14-.43-.3-.4-.77-.53-1.25.04-.35-.13-.71-.1-1.07Z" fill="#505050"/><path d="m6.94 14.55-.03-1.87h.4v.6l.03-.1.03-.25c0-.25-.04-.23-.05-.28v-.04l-.46.03c0 1.23.03.74-.16 1.04a.49.49 0 0 0-.07.26c0 .22.21.49.31.6Z" fill="#2D2E30"/><path d="M6 13c-.08.07-.01-.02-.08.12.24.04.1.5.19 0 .51.13.28-.24.27-.51.4-.17.1-.19.8-.31l.16-.07c-.02 0-.03-.04-.15-.03l-1.09.2-.06.3c.06.14 0 .16-.03.3Z" fill="#484848"/><path d="M10.77 11.35c.3-.02 0 .08.3.08.24 0 .16-.05.33.07.13.1.16.05.2.2.04.1.05.23.06.35.15.08.1-.04.12.12-.28.12-.74-.27-.93-.43-.1-.1-.1-.22-.08-.39Zm1.13.9c-.01-.37-.08-.17-.16-.38-.15-.4.05-.21-.36-.5-.15-.11-.19-.02-.33-.06-.11-.02-.1-.1-.39-.04-.03.44.11.5.38.7.26.2.46.27.86.28Z" fill="#EBEBEB"/><path d="M10.25 5.19c0-.2.05-.4.06-.6.02-.27-.07-.39-.1-.6l-.03-.12c-.32-.03-.09.04-.32.06l-.02.59c.19.06.09.01.1.27 0 .5-.02 2.15-.28 2.49-.2.35-.6.64-1.02.43-.12-.06-.2-.21-.29-.24l-.09-.06c.04.08.06.07.11.13s.07.1.1.17c.07.23.6.2.8.13.2-.07.53-.5.53-.55.16-.27.16-.75.23-1.08.04-.19.12-.25.16-.44.02-.16.06-.43.06-.58Z" fill="gray"/><path d="M7.9 4.63c.05-.06.03-.05.2-.05.05-.3.34-.54.36-.83-.16.01-.44.02-.52.13-.15.2-.24.45-.38.64 0 .08.07.88.09.92.06.24.26.52.22.8l.05-.02c-.02-.3-.1-.56-.05-.84 0-.04.18-.53.03-.75Z" fill="#6A6B6D"/><path d="m8.25 9.68-.02-.03-.04-.06-.03-.16-.6.02-.02.29h.38c.1 0 .3.03.33-.06Z" fill="#8E8E8E"/><path d="M8.36 11.61c-.21-.02-.38.06-.3.3.08.29.62.1.3-.3Z" fill="#6A6B6D"/><path d="M8.07 13.6c.03.2 0 .18.1.31h.23c.12-.23.07-.43-.17-.4-.08.02-.14.09-.14.08l-.02.01Z" fill="#67686A"/></svg>