<!-- by TradingView --><svg width="18" height="18" fill="none" xmlns="http://www.w3.org/2000/svg"><path fill="#F0F3FA" d="M0 0h18v18H0z"/><path fill-rule="evenodd" clip-rule="evenodd" d="M8 2.998a6.09 6.09 0 00-4.998 4.974h1.032A5.076 5.076 0 018 4.029V2.998zm2 1.03v-1.03a6.09 6.09 0 014.998 4.974h-1.032A5.076 5.076 0 0010 4.029zm0 9.944A5.076 5.076 0 0013.972 10h1.03A6.09 6.09 0 0110 15.002v-1.03zM4.029 10A5.076 5.076 0 008 13.972v1.03A6.09 6.09 0 012.998 10h1.03z" fill="#07ACEE"/><path d="M6 6.4c0-.22.177-.4.396-.4h5.208c.219 0 .396.18.396.4v5.2c0 .22-.177.4-.396.4H6.396A.398.398 0 016 11.6V6.4z" fill="#1B70EF"/><path fill-rule="evenodd" clip-rule="evenodd" d="M7 8.779a1.179 1.179 0 012.357 0v1.218H9V9.4H7.372v.597H7V8.78zM9 9v-.184a.814.814 0 10-1.628 0V9H9zm2-1.4H9.5v.403h.5V9.6h-.5v.397H11V9.6h-.5V8.003h.5V7.6z" fill="#F6FCFC"/></svg>