<!-- by TradingView --><svg width="18" height="18" viewBox="0 0 18 18" xmlns="http://www.w3.org/2000/svg"><path fill="#F0F3FA" d="M0 0h18v18H0z"/><circle cx="9" cy="9" r="6" fill="#6E6E6E"/><path fill-rule="evenodd" d="M5.55 4.1c-.05.02-.1.06-.14.09.28.36.59.8.5.91l-.03.06c-.13.2-.34.5-1.17.44a3.1 3.1 0 0 0-.67.02c-.33.49-.6 1.02-.77 1.6.33-.17.75-.32 1.16-.32.86 0 1.23.37 1.1.58-.14.21-.7.43-1.1.44-.35.02-1.05.48-1.43 1.22 0 .24.03.47.06.7.08-.45.3-1.03.76-1.29.78-.43 1.74-.32 2.1 0 .35.33.76.78.7 1.31-.06.53-.32.85-.6 1.03-.29.17-.6 1.07-.53 1.72.04.39.08.93.1 1.33a6 6 0 0 0 .72.42 4.07 4.07 0 0 1-.4-1.88c.1-1.1.7-1.8.92-1.7.06.03.15.11.26.23.35.34.94.93 1.74.96h.54c.7 0 1.07 0 1.35.68.24.58.58 1.37.78 1.8.15-.06.3-.14.45-.22-.16-.52-.42-1.31-.54-1.58l-.12-.23c-.12-.21-.18-.32-.05-.58a1.2 1.2 0 0 1 1.1-.64c.54 0 .9.01 1.34.27.2.12.37.36.48.59.46-.78.75-1.66.82-2.6a1 1 0 0 0-.17-.21c-.27-.22-.15-.47.18-.64l-.01-.1c-.12-.05-.3-.14-.51-.29l-.33-.2c-.36-.21-.71-.42-.63-.72.1-.39.2-.66.96-.78a5.92 5.92 0 0 0-.18-.35c-.13.04-.33.07-.61.01-.47-.1-1.02-.68-1.24-.96-.21-.17-.7-.53-.92-.65-.23-.13-.45-.76-.5-1.22a5.97 5.97 0 0 0-.2-.07c.03.52.01 1.23-.26 1.29-.42.09-.84.13-1.37-.16a5.1 5.1 0 0 0-1.1-.36c-.26-.06-.47-.11-.54-.16l-.02-.02c-.16-.11-.4-.28-.32-.6l-.34.12c-.01.2-.1.43-.4.6-.63.4-.75.28-.92.1Zm3.38.9c-.08.25-.57.31-1.1.14-.51-.18-.87-.52-.78-.78.08-.25.57-.31 1.1-.13.51.17.87.52.78.77ZM4.65 6.2c0 .1-.14.2-.32.2-.17 0-.32-.1-.32-.2 0-.12.15-.22.32-.22.18 0 .32.1.32.21Zm1.4.52c.15.15.38.17.5.04.13-.12.11-.35-.04-.5-.15-.15-.38-.18-.5-.05-.13.13-.11.35.04.5Zm7.72 1.75c-.1.1-.25.1-.35 0a.25.25 0 0 1 0-.36c.1-.1.25-.1.35 0 .1.1.1.26 0 .36Zm-7.2-.78.15-.21a.53.53 0 0 1 .58-.21c.21.06.37.25.38.47l.02.3c.02.35-.16.7-.44.9-.08.06-.2.1-.3.08h-.01a.42.42 0 0 1-.3-.2l-.1-.17a.87.87 0 0 1 .02-.96Zm3.58-2.72c-.36.06-.77.62-.92.9 0 .36.15.68.74.68.58 0 .89-.23.93-.53.04-.3-.3-1.12-.75-1.05Zm1 .52c0 .22.04.71.22.92.24.25 1 .37 1.22.12.22-.25.16-.53-.19-.85l-.14-.13c-.3-.29-.62-.58-.82-.43a.78.78 0 0 0-.29.37ZM8.43 7.66c-.1-.23.16-.46.3-.55.07.05.25.2.41.42.2.26-.12.43-.27.45-.15.02-.33-.03-.44-.32Zm4.18-.55c-.15.09-.43.32-.33.55.12.29.32.34.48.32.16-.02.52-.19.3-.45a2.49 2.49 0 0 0-.45-.42Zm-1.44-.17c.24.04.32.37.33.54-.08.03-.3.11-.57.14-.33.05-.32-.32-.26-.46.06-.13.2-.27.5-.22ZM11.31 9c.1-.06.35-.14.58-.04.3.12.85.65.95.83.1.17-.21.92-.74.97-.52.05-.75-.17-.93-.52-.18-.35-.44-.89.14-1.24Zm2.82.84c-.17-.14-.44 0-.55.08-.08.08-.2.3-.14.5.08.25.3.51.7.78.3.2.34-.1.38-.37l.04-.23c.08-.3-.22-.59-.43-.76ZM9.07 8.71c.16.06.54.2.74.33.24.18.9.84.9 1.62 0 .78-.34.92-1.07.92-.74 0-1.83-.88-1.97-1.19a.88.88 0 0 1 .26-1.04l.19-.18c.26-.24.49-.46.95-.46Z" fill="#EC9835"/><path d="M10.85 5.05c-.1 0-.27-.06-.18-.2l.06-.1c.1-.15.18-.3.3-.27.13.04.35.4-.18.57Zm-1.32-.27a1.5 1.5 0 0 0-.35-.08c-.08.1-.02.27.09.44.1.15.23.02.33-.08l.04-.04c.11-.1.02-.19-.1-.24Zm-2.67.42c-.21-.07-.4-.07-.46-.06-.14.35.11.58.3.75l.13.13c.15.18.31.4.31.74 0 .18.09.2.2.24.1.03.23.07.35.2.25.31.4.43.55.13.1-.22.33-.35.5-.46l.18-.11c.16-.13 0-.3-.16-.45-.14-.14-.05-.26.07-.41.12-.15-.35-.38-.85-.33-.35.05-.62-.1-.84-.23l-.28-.14Zm-1.41.55c-.26.16-.54.17-.65.15-.29.21.5.6.81.61.18 0 .2-.13.23-.26.03-.11.05-.22.15-.26.22-.08.29-.43.14-.53-.12-.09-.28.02-.5.16a7.1 7.1 0 0 1-.18.13Zm.3.94c.05.11.2.35.42.4.3.06.32.16.18.27-.13.11-.67.02-.7-.2v-.04c-.02-.22-.06-.52.1-.43Zm.09.98c-.14 0-.21.15-.23.23 0 .05.02.19.1.29.1.12.41.13.47.06.03-.03.01-.05-.02-.09a.32.32 0 0 1-.08-.14c-.03-.15-.08-.34-.24-.35Zm1.29 1.54c-.08-.02-.25-.02-.32.07-.09.1.07.98.25 1.04.13.05.2-.25.25-.45.01-.07.02-.12.04-.15a.38.38 0 0 1 .08-.1c.06-.06.12-.11.09-.2-.05-.11-.2-.21-.4-.21Zm1.11-1.33c-.1-.06-.27.24-.23.27-.02.08-.08.27-.16.39-.1.14.1.3.27.24a11.01 11.01 0 0 1 .87-.29c.19-.06-.08-.34-.25-.34-.12 0-.26-.1-.37-.18l-.13-.1Zm1.1-1c.1-.06.3-.15.47-.15.2 0 .6.32.59.45-.02.14-.01.46.14.57.14.1.75.25.9.12.07-.05.12-.12.18-.2.08-.11.15-.22.24-.2.05.03.07.11.09.22.03.15.07.35.26.43l.38.17c.25.11.49.22.63.26.08.02.22.02.37.03.22 0 .46 0 .54.08.1.07.17.22.25.37l.1.21c.12.19.2.25.35.38.16.13.12.42 0 .52-.12.1-.22 0-.45-.22h-.01c-.24-.23-.46-.43-.85-.37h-.03c-.37.07-.38.07-.55-.09a5.06 5.06 0 0 1-.06-.05c-.24-.22-.8-.76-1.29-.69-.36.06-.59.36-.74.56-.07.1-.13.17-.17.18l-.07.03c-.1.04-.16.07-.26-.18V9.3c-.11-.28-.12-.3-.42-.47-.3-.17-.58-.33-.54-.55.02-.1.07-.13.13-.16.08-.05.17-.1.1-.34-.04-.16-.12-.26-.18-.35-.12-.14-.2-.27-.1-.56Zm2.62-.03a2.7 2.7 0 0 1-.57-.16.97.97 0 0 0-.05-.02c-.22-.08.12.32.27.46.15.14.43.08.58 0 .14-.09-.05-.27-.23-.28Zm1.24.4c-.07-.02-.22-.1-.31-.34-.12-.29-.08-.64.08-.65.15 0 .38.12.5.27.1.15-.14 1-.27.72Zm-2.34 3.88c.04-.22.03-.59.02-.62 0-.05.03-.16.14-.15.09.01.16.16.24.31l.14.28c.14.19-.04.27-.22.35l-.04.02c-.2.08-.32.03-.28-.19Zm1.72-.41c.04.02.16.02.33-.17.22-.25.27-.2.33-.13a2.77 2.77 0 0 1 .31.5c.04.12-.26.12-.57.1l-.11-.01c-.26-.02-.47-.03-.29-.29Z" fill="#FFED68"/><path d="M9.5 3.21c1.18-.3 2.76.6 3.7 1.44.83.86 2.12 2.8 1.19 3.42-1.02.67-5.02-1.72-5.32-3.12-.24-1.12.18-1.63.42-1.74Z" fill="url(#ae41s2pbh)"/><defs><linearGradient id="ae41s2pbh" x1="13.9" y1="5.66" x2="12.16" y2="7.01" gradientUnits="userSpaceOnUse"><stop stop-color="#fff" stop-opacity=".7"/><stop offset="1" stop-color="#A3A397" stop-opacity="0"/></linearGradient></defs></svg>