<!-- by TradingView --><svg width="18" height="18" viewBox="0 0 18 18" xmlns="http://www.w3.org/2000/svg"><path fill="#09181B" d="M0 0h18v18H0z"/><path d="M10.6 14c-1.05 0-2.2-.49-2.65-.73 4.8-.47 4.5-5.37 3.74-7.76.77.43 2.31 1.87 2.31 4.2 0 2.93-2.08 4.29-3.4 4.29Z" fill="url(#adb2kjjyy)"/><path d="M8.95 13.42c-2.81 0-4.37-2.47-4.8-3.71C3.53 7.9 4.81 4 8.43 4c3.61 0 4.82 3.56 4.82 4.76 0 1.2-.77 4.66-4.3 4.66Z" fill="url(#bdb2kjjyy)"/><path fill-rule="evenodd" d="M5.76 11.93a4.5 4.5 0 0 0 3.2 1.35c1.7 0 2.73-.82 3.34-1.8.62-1 .8-2.13.8-2.72 0-.57-.28-1.73-1.02-2.75a4.34 4.34 0 0 0-3.65-1.87c-1.74 0-2.93.93-3.6 2.1a4.5 4.5 0 0 0-.54 3.43c.2.6.7 1.5 1.47 2.26Zm-1.6-2.22c.42 1.24 1.98 3.71 4.8 3.71 3.52 0 4.3-3.45 4.3-4.66 0-1.2-1.22-4.76-4.83-4.76-3.62 0-4.9 3.9-4.28 5.7Z" fill="#C1F7AB"/><path d="M8.88 11.79c-1.82 0-2.82-1.62-3.1-2.43-.4-1.18.43-3.73 2.76-3.73 2.33 0 3.11 2.33 3.11 3.12 0 .78-.5 3.04-2.77 3.04Z" fill="url(#cdb2kjjyy)"/><path d="M6.07 7.02a2.76 2.76 0 0 1 2.47-1.46c1.2 0 2 .6 2.49 1.3.5.69.7 1.48.7 1.89 0 .4-.13 1.17-.55 1.85a2.56 2.56 0 0 1-2.3 1.26c-.94 0-1.66-.42-2.18-.93a4.2 4.2 0 0 1-.99-1.55l.07-.02-.07.02c-.2-.6-.1-1.56.36-2.36Zm.13.07a3 3 0 0 0-.35 2.25c.13.4.45 1 .95 1.5.5.49 1.2.88 2.08.88 1.1 0 1.77-.54 2.17-1.2.4-.64.53-1.4.53-1.77 0-.38-.2-1.15-.67-1.82A2.81 2.81 0 0 0 8.54 5.7c-1.13 0-1.9.62-2.34 1.39Z" fill="#C1F7AB"/><ellipse cx="8.77" cy="8.45" rx="2.2" ry="2.14" fill="url(#ddb2kjjyy)"/><ellipse cx="8.77" cy="8.45" rx=".59" ry=".57" fill="#2C0006"/><path d="M9.85 7.02h-.31l-.05.02-1.07-.83.78.96-.37.16v.74l-.29.38.3-.22v.02h.78l.4-.41 1 .74-1-1.04V7.2l1-1.06-1.17.87Z" fill="#EFE9E9"/><defs><linearGradient id="adb2kjjyy" x1="10.65" y1="13.36" x2="13.38" y2="7.6" gradientUnits="userSpaceOnUse"><stop stop-color="#0D3514"/><stop offset=".69" stop-color="#96D85D"/></linearGradient><linearGradient id="bdb2kjjyy" x1="9.76" y1="12.83" x2="10.93" y2="5.11" gradientUnits="userSpaceOnUse"><stop stop-color="#039123"/><stop offset="1" stop-color="#EAF871"/></linearGradient><linearGradient id="cdb2kjjyy" x1="10.6" y1="11.16" x2="7.28" y2="7.17" gradientUnits="userSpaceOnUse"><stop stop-color="#5DA02D"/><stop offset=".47" stop-color="#E3D955"/></linearGradient><linearGradient id="ddb2kjjyy" x1="7.02" y1="10.09" x2="10" y2="6.91" gradientUnits="userSpaceOnUse"><stop stop-color="#EC503A"/><stop offset=".33" stop-color="#F52E57"/><stop offset="1" stop-color="#EB282C"/></linearGradient></defs></svg>