<!-- by TradingView --><svg width="18" height="18" fill="none" xmlns="http://www.w3.org/2000/svg"><path fill="#F0F3FA" d="M0 0h18v18H0z"/><path fill-rule="evenodd" clip-rule="evenodd" d="M9 11c1.12 0 2-.898 2-2 0-1.102-.88-2-2-2-1.127 0-2 .887-2 2s.873 2 2 2zm0-5.5c1.988 0 3.5 1.512 3.5 3.5s-1.512 3.5-3.5 3.5S5.5 10.988 5.5 9 7.012 5.5 9 5.5zm6 3.372v.008c0 .279-.237.52-.518.52-.285 0-.482-.239-.482-.52C13.999 6.25 11.736 4 9.118 4c-.275 0-.518-.205-.518-.48 0-.29.254-.531.54-.52h.002C12.377 3 15 5.629 15 8.872zM8.882 14c.278 0 .48.198.48.48 0 .29-.216.53-.503.519.107 0-.742-.016-1.321-.15A5.873 5.873 0 013 9.128V9.12c0-.279.18-.467.46-.468.248 0 .474.047.54.472 0 2.239 1.635 4.244 3.827 4.724.348.077.699.147 1.055.152z" fill="url(#paint0_linear_1530)"/><circle cx="3.5" cy="7.495" r=".5" fill="#0D70A9"/><circle cx="14.5" cy="10.5" r=".5" fill="#11A385"/><defs><linearGradient id="paint0_linear_1530" x1="5.368" y1="6.236" x2="12.448" y2="12.784" gradientUnits="userSpaceOnUse"><stop stop-color="#0D6FAA"/><stop offset=".858" stop-color="#11A385"/></linearGradient></defs></svg>