<!-- by TradingView --><svg width="18" height="18" fill="none" xmlns="http://www.w3.org/2000/svg"><path fill="url(#paint0_linear_1530)" d="M0 0h18v18H0z"/><path d="M6.067 11.884a2.577 2.577 0 01-.22-.266c-.028-.04-.058-.08-.087-.113-.007-.007-.014-.02-.022-.027-.022-.033-.05-.073-.073-.113l-.022-.04c-.022-.033-.044-.073-.066-.106l-.021-.04a.562.562 0 01-.059-.113l-.022-.047c-.022-.04-.036-.073-.058-.113a.31.31 0 01-.022-.046c-.015-.04-.037-.08-.051-.12 0-.007-.008-.02-.008-.027a4.319 4.319 0 01-.102-.28c0-.006-.007-.012-.007-.026-.008-.033-.022-.066-.03-.1l-.022-.08-.021-.093c-.008-.026-.015-.06-.022-.086l-.022-.093-.022-.1c-.008-.027-.008-.06-.015-.087-.007-.033-.014-.066-.014-.106-.008-.027-.008-.053-.015-.086-.007-.04-.007-.074-.015-.114 0-.026-.007-.053-.007-.08 0-.046-.007-.086-.007-.133 0-.02 0-.04-.008-.066 0-.067-.007-.133-.007-.2 0-.066 0-.126.007-.192v-.06c0-.047.008-.087.008-.134 0-.02.007-.046.007-.066.007-.04.007-.087.015-.126 0-.02.007-.04.007-.06l.022-.147c0-.013 0-.026.007-.033.007-.06.022-.12.037-.18.007-.02.007-.04.014-.053.008-.04.022-.08.03-.12a.216.216 0 00.014-.066c.007-.04.022-.073.03-.113l.021-.067c.015-.04.03-.08.037-.12.007-.02.014-.033.022-.053l.066-.16c.007-.02.014-.033.022-.053a.768.768 0 01.05-.113c.008-.02.023-.04.03-.066a.594.594 0 01.051-.093c.015-.02.022-.047.037-.067.014-.033.036-.06.05-.093.015-.02.023-.04.037-.06l.088-.14c-.066.22-.095.46-.095.712 0 .865.402 1.524 1.199 1.97.043.778.292 1.39.716 1.783l-1.462.871z" fill="url(#paint1_linear_1530)"/><path d="M10.7 7.227c.249.34.41.765.468 1.277.205.087.38.187.541.3.592.419.892 1.03.892 1.81 0 .093-.008.186-.015.279v-.007c.731-1.499.49-3.559-.695-4.816l-1.19 1.157z" fill="url(#paint2_linear_1530)"/><path d="M9.816 8.278c-.088-.013-.168-.033-.248-.046-1.082-.2-1.864-.34-1.864-1.025 0-.426.46-.765 1.286-.765.738 0 1.323.273 1.703.785l.058.013 1.177-1.098-.007-.04c-.582-.629-1.105-.94-1.921-1.11V4H8v.971c-.844.146-1.318.466-1.918 1.105-.22.332-.33.732-.33 1.19 0 1.57 1.302 2.07 2.573 2.35.234.053.468.093.695.126.796.133 1.483.246 1.483.898 0 .406-.49.912-1.513.912-.606 0-1.103-.187-1.469-.526-.022-.02-.05-.04-.073-.06l-1.388.878v.047c.38.41 1.366 1.032 1.94 1.138V14h2v-.971c.81-.186 1.331-.503 1.914-1.125.16-.173.3-.352.423-.552.066-.213.096-.452.096-.705.007-1.69-1.396-2.15-2.617-2.369z" fill="#FAFBFC"/><defs><linearGradient id="paint0_linear_1530" x1="3.349" y1="3.122" x2="21.904" y2="24.434" gradientUnits="userSpaceOnUse"><stop stop-color="#1A1E21"/><stop offset="1" stop-color="#06060A"/></linearGradient><linearGradient id="paint1_linear_1530" x1="6.287" y1="10.794" x2="5.219" y2="6.101" gradientUnits="userSpaceOnUse"><stop offset=".001" stop-color="#fff"/><stop offset="1" stop-color="#1E313F"/></linearGradient><linearGradient id="paint2_linear_1530" x1="11.804" y1="6.946" x2="12.768" y2="11.322" gradientUnits="userSpaceOnUse"><stop offset=".001" stop-color="#fff"/><stop offset=".997" stop-color="#4E5A64"/></linearGradient></defs></svg>