<!-- by TradingView --><svg width="18" height="18" viewBox="0 0 18 18" xmlns="http://www.w3.org/2000/svg"><path fill="#F0F3FA" d="M0 0h18v18H0z"/><path d="M9 15A6 6 0 1 0 9 3a6 6 0 0 0 0 12Zm0-.5a5.5 5.5 0 1 0 0-11 5.5 5.5 0 0 0 0 11Z" fill="url(#ajxbw1enq)"/><circle cx="9" cy="9" r="5.5" fill="url(#bjxbw1enq)"/><path d="m8.65 5-.28-.29c.16-.22.4-.28.73-.2.26.05.18.3.1.42.1.01.34.07.47.2.14.14 0 .3-.08.36.19 0 .6.04.75.1.2.06 1.1.5 1.3.54.19.04.37.04.46.08.1.05-.06.2-.28.28-.23.07-.35.02-.52.02-.17 0-.84-.45-1.26-.45-.42 0-.72.24-.84.43-.12.18-.19.55-.07 1.03.1.4.28.72.37.83.66.98 1.56 1.05 2.35 1.41.62.3.8.92.81 1.2v1.84c-.1.25-.52.34-.71.35-.1 0-.3-.01-.37-.04-.07-.02-.17-.17-.2-.24-.18-.22-.16-.67-.14-.87-.27.33-.8.48-1.02.52l-.24.63c-.06.06-.26.2-.66.2s-.72-.14-.83-.2v-.45c-.02.02-.13.04-.37.04-.25 0-.43-.04-.49-.06v.47c-.14.07-.54.2-.84.2-.24 0-.4-.1-.45-.14a4.8 4.8 0 0 1-.5-1.53c-.2-1.08-.07-2.04-.07-2.59 0-.43.37-1.7.56-2.28.22-.52.32-.98.34-1.14 0-.64-.4-.7-.59-.66h-.05c.32-.54.79-.38 1.19-.18.32.16.54.8.61 1.1.18-.42.58-.73.76-.83l.06-.1Z" fill="url(#cjxbw1enq)"/><path d="M6.15 10.16c-.12-.74.17-2.53.24-2.59.25-.26.85-.78 1.2-.78.43 0 .81.02 1.08.16.28.15-.05.62 0 .97.06.34.04.45.37.92.32.47.67.62 1.26.89.6.27 1.18.43 1.36.43.19 0-.8 1.33-1.21 1.56-.42.24-.7 0-.94 0s-.93.31-1.24.35c-.3.03-1.25-.17-1.55-.46-.31-.29-.44-.7-.57-1.45Z" fill="url(#djxbw1enq)"/><path d="M6.23 5c.1-.04.26-.13.63.17.36.28.15.58 0 .69-.06-.28-.29-.83-.69-.83l.06-.02Zm3.28.39c-.13-.07-.5-.17-.96 0 .08 0 .26.12.32.6.07-.2.3-.6.64-.6Z" fill="#7C6812"/><path d="M5.28 7.97a.84.84 0 0 1-.34.1.58.58 0 0 1-.43-.16.47.47 0 0 1-.13-.27l.08-.01c0 .06.04.14.11.22a.5.5 0 0 0 .37.13c.09 0 .19-.03.3-.08a4.42 4.42 0 0 0 .91-.68l.07.04a9.57 9.57 0 0 0-.45 2.96c0 1.71.36 2.55.61 2.97.02.02.07.05.14.07.08.03.2.05.34.05.28 0 .58-.12.71-.2v-.51l.07.03c.01.01.06.03.13.04a2 2 0 0 0 .68 0h.02l.07-.06v.51c.08.07.34.19.76.19.22 0 .38-.04.48-.08.1-.04.14-.08.15-.1l.24-.66h.03c.2-.02.69-.14 1.04-.51l.06.05c-.36.38-.84.51-1.07.54l-.22.6v.01c-.03.05-.1.1-.2.15-.11.05-.28.08-.5.08-.47 0-.75-.14-.84-.22h-.02v-.41a2.08 2.08 0 0 1-.8-.02v.43l-.01.01c-.13.07-.47.21-.78.21a1.2 1.2 0 0 1-.36-.05.48.48 0 0 1-.18-.09c-.27-.44-.64-1.3-.64-3.03 0-1.24.25-2.31.4-2.82a4.48 4.48 0 0 1-.8.57Z"/><path d="m6.25 8.47-.12-.04c-.01.02-.02.12.04.33.07.26.2.45.4.45s.4-.18.52-.18c.13 0 .35.07.5.14.11.05.24.07.28.07.54 0 .67-.56.67-.84l-.33.07c0 .12-.05.37-.25.38-.2.02-.27-.17-.29-.27l-.52.03-.37-.03c.04.09.03.26-.25.26s-.3-.25-.28-.37Z" fill="url(#ejxbw1enq)"/><path d="M7.87 4.59a.98.98 0 0 0-.64.24c.2.2.59.7.59 1.07.2-.38.65-.75.86-.88l-.2-.19a.82.82 0 0 0-.6-.24Z" fill="#FAF8E7"/><path d="M5 7.1c-.16.25-.43.45-.55.52-.01.04 0 .16.16.3.16.13.29.13.33.11.47 0 1-.5 1.2-.76l.13-.25c.31-.68.4-1.25.4-1.44a1.8 1.8 0 0 1-.54.03l-.21.15c-.23.1-.73 1.03-.93 1.34Z" fill="url(#fjxbw1enq)"/><path d="M7.12 9.24c-.33 0-.5.34-.53.5l.08.25a.7.7 0 0 1 .4-.1c.23 0 .5.13.6.2l.16-.25c.01-.23-.29-.6-.7-.6Z" fill="#6D4638"/><path d="M7.04 10.06c-.13-.02-.25.07-.3.11.03.11.15.34.38.34.22 0 .36-.18.4-.28-.1-.04-.34-.14-.48-.17Z" fill="url(#gjxbw1enq)"/><path fill-rule="evenodd" d="M8.93 4.45a.9.9 0 0 0-.44.1.32.32 0 0 0-.12.1.58.58 0 0 0-.13-.06c-.1-.03-.22-.06-.4-.06-.3 0-.5.15-.6.25a.98.98 0 0 0-.59-.17c-.4 0-.66.22-.66.44v.06l.06-.02c.1-.04.23-.05.35.02.1.05.19.18.2.42l-.05.02a2.1 2.1 0 0 1-.35.02c-.13 0-.25.09-.36.2-.12.12-.24.29-.34.46l-.3.5-.03.06-.17.3a1.82 1.82 0 0 1-.6.49h-.02v.03c0 .08.02.19.12.28.09.1.24.16.49.16s.5-.14.73-.3c.14-.11.28-.24.38-.35-.22.7-.42 1.6-.42 2.85 0 .35.04.92.14 1.5.1.56.25 1.14.5 1.51l.02.01c.06.04.26.11.56.11.3 0 .62-.13.75-.2l.02-.01v-.42a3.32 3.32 0 0 0 .78 0v.41l.01.01c.1.08.37.21.81.21.22 0 .39-.03.5-.07.12-.05.2-.1.23-.14l.23-.62c.18-.02.58-.14.98-.44-.01.15 0 .35.04.53.05.23.15.45.36.54.14.02.34.02.54-.02s.4-.13.53-.31l.01-.01V11c0-.3-.14-.97-.8-1.28-.18-.1-.4-.17-.62-.24l-.04-.02a6.43 6.43 0 0 1-.72-.28A2.35 2.35 0 0 1 9.12 7.2c-.03-.3.01-.6.18-.8.08-.1.34-.3.75-.3.25 0 .47.1.7.23h.01c.24.12.49.25.78.25.46 0 .61-.2.62-.34v-.01a.11.11 0 0 0-.04-.05.28.28 0 0 0-.07-.04.89.89 0 0 0-.31-.05c-.13 0-.32-.06-.51-.15-.2-.08-.38-.18-.5-.25a2.24 2.24 0 0 0-1.04-.24.47.47 0 0 0 .05-.08.28.28 0 0 0 .02-.2c-.03-.07-.08-.13-.17-.18a1 1 0 0 0-.33-.1.4.4 0 0 0 .03-.24.23.23 0 0 0-.1-.15.49.49 0 0 0-.26-.05ZM6.16 7.2l.16-.46.03-.07a17.16 17.16 0 0 0 .2-.59h-.28c-.16.02-.39.26-.48.38l.3-.43c.13-.1.36-.08.48-.05.03-.12.04-.23.04-.34v-.02a2.19 2.19 0 0 1-.41.03c-.09 0-.2.07-.3.18-.11.12-.23.27-.33.44l-.3.5-.03.06-.17.3c-.09.14-.2.25-.33.34-.1.08-.2.14-.27.17 0 .06.02.13.08.2.08.06.2.13.44.13.22 0 .46-.13.68-.3.21-.15.4-.34.5-.47Zm.54-1.62v.06c0 .21-.06.44-.15.7l-.13.36-.02.07-.17.5a9.3 9.3 0 0 0-.33 4.46c.1.56.25 1.13.49 1.48.05.03.23.1.5.1.28 0 .56-.12.7-.2v-.45c-.22-.13-.8-.65-1.09-.92.29.23.94.74 1.26.94l.27.02c.14 0 .29 0 .4-.03l.9-.82-.8.86v.41c.1.07.34.18.74.18.21 0 .37-.03.48-.07.1-.04.16-.08.18-.1l.2-.54c.03-.18.07-.52.05-.74.01.13.04.43.03.62.17-.02.59-.14.99-.47.17-.16.46-.46.57-.65-.08.16-.28.5-.47.67-.02.15-.02.39.03.6.05.22.14.4.3.48.13.02.32.02.5-.02a.77.77 0 0 0 .48-.27V11c0-.28-.14-.91-.75-1.2-.19-.1-.4-.17-.62-.24l-.04-.02a6.5 6.5 0 0 1-.72-.28c-.49-.24-.95-.6-1.25-1.27a2.77 2.77 0 0 1-.18-.69 4.3 4.3 0 0 1-.14-1.05c0-.5.3-.83.5-.9a.89.89 0 0 0-.4-.1c.5 0 .59.09.6.11h.01-.01l.01.04a.39.39 0 0 0 .04-.07.2.2 0 0 0 .02-.13c-.02-.05-.05-.1-.13-.13a1 1 0 0 0-.34-.1h-.03c-.13 0-.46.04-.86.35-.42.33-.62.9-.66 1.14.03-.24.08-.43.1-.5-.06-.5-.3-.87-.5-1.06h-.01l-.03-.03a.85.85 0 0 0-.57-.18c-.34 0-.53.16-.57.3a.5.5 0 0 1 .36.04c.14.08.24.25.25.54h.01v.01Zm2.27-.33h.04-.04Zm.37 6.58ZM7.28 4.86c.31.21.5.73.54.97.12-.3.56-.64.77-.77l-.02-.08c-.01-.03-.08-.1-.14-.16l-.01-.01v.01l-.07-.07a.36.36 0 0 0-.14-.08 1.1 1.1 0 0 0-.36-.05c-.32 0-.51.16-.57.24Zm1.14-.11c.08.1.27.23.47.2a.73.73 0 0 0 .3-.08.32.32 0 0 0 .02-.2.15.15 0 0 0-.07-.1.4.4 0 0 0-.2-.04c-.2 0-.34.04-.41.08-.08.05-.1.1-.1.12v.02Zm.82 1.6c-.16.19-.21.43-.21.68-.03-.4-.02-.94.12-1.12.15-.21.32-.33.41-.37h.04c.5-.04.94.13 1.1.22.1.07.3.17.5.26.18.09.4.16.54.16s.22.02.28.04a.2.2 0 0 1 .06.03c-.02.07-.13.25-.54.25-.27 0-.5-.12-.74-.24l-.01-.01a1.63 1.63 0 0 0-.74-.24c-.43 0-.72.22-.81.34ZM5.99 8.34a3.55 3.55 0 0 0 2.69-.08l-.09-.3a.76.76 0 0 1 0-.42c0 .12 0 .38.09.47.1.12.2.29.05.42a.44.44 0 0 1-.17.1c-.03.3-.16.49-.3.6a.7.7 0 0 1-.41.16.57.57 0 0 1-.3-.08l-.06-.02a.91.91 0 0 0-.38-.1c-.11 0-.2.03-.23.05a.6.6 0 0 1-.33.1c-.2 0-.3-.14-.37-.3a1.42 1.42 0 0 1-.08-.5l-.1-.1Zm.2.22c0 .1.03.23.07.34.06.16.15.26.3.26.05 0 .18-.02.27-.08A.52.52 0 0 1 7.11 9a1 1 0 0 1 .48.14c.08.04.13.07.26.07.07 0 .22-.03.35-.14.12-.1.24-.26.27-.53l-.23.03c0 .11-.05.34-.3.34-.24 0-.32-.18-.33-.27a4.6 4.6 0 0 1-.77 0 .3.3 0 0 1-.3.27c-.26 0-.34-.24-.35-.35Zm.44 1.17c0-.07.05-.19.15-.28a.5.5 0 0 1 .36-.17c.14 0 .3.07.43.17s.21.24.22.37c-.01.04-.05.13-.14.23-.1-.08-.34-.2-.6-.2a.82.82 0 0 0-.34.09.31.31 0 0 1-.08-.21Zm.5-.54a.59.59 0 0 0-.41.2c-.1.1-.17.24-.17.34 0 .15.08.26.13.3h.04a.72.72 0 0 1 .33-.09c.27 0 .5.13.58.2l.03.02.03-.03a.65.65 0 0 0 .18-.3c0-.17-.1-.33-.24-.44a.8.8 0 0 0-.5-.2Zm-.23 1.17a.34.34 0 0 1-.09-.19.39.39 0 0 1 .25-.07c.07 0 .16.02.24.06l.17.08a.56.56 0 0 1-.1.13.31.31 0 0 1-.22.1.33.33 0 0 1-.25-.1Zm.16-.35a.45.45 0 0 0-.32.12l-.01.01v.02c0 .08.04.18.1.26.08.08.18.14.32.14a.4.4 0 0 0 .27-.12.63.63 0 0 0 .14-.2l.01-.03-.03-.02a1.46 1.46 0 0 0-.2-.11.75.75 0 0 0-.28-.07Z" fill="#533E12"/><path d="M10 5.79c-.71 0-.97.69-1 .74v.26c.08-.21.45-.75 1-.75.68 0 1.07.5 1.56.5.4 0 .54-.15.57-.22h-.7c-.27 0-.72-.53-1.43-.53Z" fill="#614D13"/><defs><linearGradient id="ajxbw1enq" x1="6.72" y1="3.66" x2="12.23" y2="13.9" gradientUnits="userSpaceOnUse"><stop stop-color="#F2E98B"/><stop offset="1" stop-color="#8E3511"/></linearGradient><linearGradient id="bjxbw1enq" x1="6.69" y1="4.53" x2="11.38" y2="14.29" gradientUnits="userSpaceOnUse"><stop stop-color="#C59946"/><stop offset=".46" stop-color="#DCBA5B"/><stop offset="1" stop-color="#B48527"/></linearGradient><linearGradient id="cjxbw1enq" x1="9.2" y1="4.47" x2="9.2" y2="13.35" gradientUnits="userSpaceOnUse"><stop stop-color="#745F1C"/><stop offset=".14" stop-color="#A4A11E"/><stop offset=".4" stop-color="#DEC42C"/><stop offset=".66" stop-color="#EACB2F"/><stop offset=".85" stop-color="#DEAB24"/><stop offset=".96" stop-color="#63470C"/></linearGradient><linearGradient id="djxbw1enq" x1="7.21" y1="7.41" x2="8.1" y2="12.07" gradientUnits="userSpaceOnUse"><stop stop-color="#EACE2F" stop-opacity="0"/><stop offset=".14" stop-color="#EACE2F"/><stop offset=".89" stop-color="#EACE2F" stop-opacity=".84"/><stop offset="1" stop-color="#EACE2F" stop-opacity="0"/></linearGradient><linearGradient id="ejxbw1enq" x1="7.33" y1="8.4" x2="7.33" y2="9.24" gradientUnits="userSpaceOnUse"><stop offset=".19" stop-color="#492715"/><stop offset=".55" stop-color="#8D675C"/></linearGradient><linearGradient id="fjxbw1enq" x1="5.19" y1="6.74" x2="5.99" y2="7.33" gradientUnits="userSpaceOnUse"><stop stop-color="#6C501B"/><stop offset=".29" stop-color="#DDAD0E"/><stop offset=".58" stop-color="#DC8D0E"/><stop offset="1" stop-color="#7E6411"/></linearGradient><linearGradient id="gjxbw1enq" x1="6.64" y1="10.29" x2="7.61" y2="10.29" gradientUnits="userSpaceOnUse"><stop stop-color="#6D4638"/><stop offset=".56" stop-color="#765043"/><stop offset="1" stop-color="#6D4638"/></linearGradient></defs></svg>