<!-- by TradingView --><svg width="18" height="18" viewBox="0 0 18 18" xmlns="http://www.w3.org/2000/svg"><path fill="#F0F3FA" d="M0 0h18v18H0z"/><path d="m7.92 8.77 1.06-.38 1.45.68.97 1.28.39 1.25-.22.75-.82.2-.87-.15-.82.3-1.07-.16h-.96l-.81-.51-.05-.85.76-1.25.99-1.16Z" fill="#fff"/><path d="m5.55 10.26.34-2.49 1.31.31.64.83-.85.84-.75 1.27-.7-.76ZM12.53 10.26l-.34-2.49-1.31.31-.64.83.85.84.74 1.27.7-.76ZM4.49 6.39l.5-.66 4.05 1.78 3.48-1.01 1.09-.32.25-1.43-.65-1h-.93l-1.22 1-.6.48H7.62L6.39 4.1l-1.3-.42-.76.46-.14.76.3 1.49Z" fill="#DEDEDE"/><path d="M9.87 8.8s.2.87-.26 1.53l-.17.13a1.88 1.88 0 0 0 1 1.08c.75.3 1.14.3 1.11-.48-.02-.8-.73-1.64-.73-1.64l-.8-.66-.15.04Z" fill="#A0A0A0"/><path d="M8.37 12a.18.18 0 0 0 .07.15.17.17 0 0 0 .17.02c.23-.05.92-.21 1.05.14.12.35.2-.16.2-.16l-.77-.7h-.13l-.57.49-.02.06Z" fill="#9E9E9E"/><path d="M7.9 5.53s-.32.34-.32.59c0 .24.38.47.73.47.34 0 .95-.07 1.2-.2 0 0-.34.6-.78.65 0 0 1.02.11 1.42-.27.4-.39.38-.84.02-1.24l.8.1.7 1.48-1.39 1.42-.85.07-1.87-.13-1-1.38.28-1.36.8-.3.26.1Z" fill="#DEDEDE"/><path d="m12.28 12.6.16.19.38-.2-.14-.42-.26.02c.04-.18.04-.36.02-.54C12.2 13.55 9 13.47 9 13.47s-3.2.09-3.43-1.81c-.03.18-.03.36.01.53l-.26-.02-.14.42.38.2.16-.2c.13.27.31.5.53.68l-.27.17.08.5.53-.07.04-.33c.19.11.39.2.6.28l-.29.31.3.62.6-.3-.02-.43c.22.06.47.1.74.15l-.28.62.72.71.72-.71-.28-.63c.25-.04.5-.08.74-.15l-.02.43.6.31.3-.62-.28-.3c.2-.08.4-.18.6-.3l.04.34.52.07.08-.5-.27-.17c.22-.18.4-.41.53-.67" fill="#090909"/><path d="M8.64 8.43s-2.42-.22-1.53-2.7l-.4-.14-1.53-1s-.72.54-.7 1.65l.58.9v2.03l.72 1.4s.08-.79.5-1.32c0 0-.54-.19-.02-.81h.39l.46.24.26.33.22.06 1.05-.64Z" fill="#A0A0A0"/><path d="M8.13 8.8s-.19.87.26 1.53l.17.13a1.88 1.88 0 0 1-1 1.08c-.75.3-1.14.3-1.11-.48.02-.8.73-1.64.73-1.64l.8-.66.15.04Z" fill="#A0A0A0"/><path d="m10.2 5.53-.1-.22-1.81.04-.37.18a.63.63 0 0 0-.24.25.65.65 0 0 0-.08.34c0 .24.38.47.73.47.34 0 .95-.07 1.2-.2 0 0-.34.6-.78.65 0 0 1.02.11 1.42-.27.4-.39.38-.84.02-1.24" fill="#fff"/><path d="M9.36 8.43s2.42-.22 1.53-2.7l.4-.14 1.54-1s.71.54.69 1.65l-.58.9v2.03l-.72 1.4s-.08-.79-.5-1.32c0 0 .54-.19.02-.81h-.39l-.46.24-.26.33-.22.06-1.05-.64Z" fill="#A0A0A0"/><path d="M13.99 4.93c-.14-1.63-1.17-1.46-1.57-1.39-.39.07-1.25.49-2.11 1.5C9.86 5 9.4 5 8.95 5c-.41 0-.8 0-1.2.05a4.37 4.37 0 0 0-2.17-1.51C5.19 3.48 4.15 3.3 4 4.93c-.13 1.62.88 2.3.88 2.3-.46 2.6.84 3.63 1.04 3.77l-.02.02s-.36 2.2 1.8 1.61c.4.2.84.3 1.3.31.44-.01.88-.12 1.29-.3 2.15.59 1.8-1.62 1.8-1.62l-.03-.02c.2-.14 1.5-1.16 1.04-3.78 0 0 1.01-.67.88-2.3m-4.56 7.5c-.14.03-.29.04-.43.03-.14 0-.29 0-.43-.03-.15-.05-.42-.15-.23-.36a4.37 4.37 0 0 0 .66-.59l.05.04c.09.13.44.42.6.55.2.21-.07.3-.22.36Zm2.1-.6c-.09.5-.47.5-.47.5-.45.07-.98-.2-1.35-.42-.4-.23-.57-.5-.57-.78s.34-.59.34-.59c.27-.3.15-.5.06-.54-.12-.07-.36 0-.43.01H9.1a.4.4 0 0 1-.2 0c-.08-.02-.32-.08-.44-.02-.1.06-.21.25.06.55 0 0 .33.31.33.59 0 .27-.16.55-.56.77-.38.24-.9.5-1.36.43 0 0-.38 0-.46-.5-.02-.34-.02-.72.09-.98.11-.22.4-.97.81-1.34.4-.36.64-.75 1.63-.8.99.05 1.23.44 1.63.8.4.37.7 1.12.8 1.34.12.25.12.64.1.98M12.66 7s.51 2.75-.89 3.74c-.2-.44-.46-.85-.77-1.22.14 0 .29-.03.4-.11a.99.99 0 0 1-.47-.2c-.04-.02-.16-.12.02-.08.9.06.75-.42.7-.46-.04-.05-.07-.12 0-.12.08 0 .28.15.28.15.04-.26-.56-.8-.94-.35-.38.43-.6.48-.6.48C9.8 8.27 9 8.28 9 8.28s-.81-.01-1.4.55c0 0-.22-.04-.6-.48s-.97.09-.93.35c0 0 .2-.15.27-.15s.04.07 0 .12c-.04.04-.2.52.7.46.18-.04.06.06.03.09-.15.1-.31.17-.48.19.12.08.27.12.41.11-.3.37-.57.78-.76 1.22-1.4-.99-.9-3.74-.9-3.74-.54-.3-.92-1.03-.9-1.93.02-.91.55-1.2.98-1.14.43.06 1.63 1.13 1.79 1.28-.4.22-.86.64-.97 1.29 0 0 .78-1.08 2.76-1 1.98-.08 2.76 1 2.76 1a1.86 1.86 0 0 0-.97-1.3c.17-.14 1.36-1.21 1.8-1.27.43-.07.96.22.98 1.14.02.9-.36 1.64-.91 1.93Z" fill="#090909"/><path d="M7.1 8.8a2.23 2.23 0 0 1-.47-.27h-.01v.01a.25.25 0 0 0 .08.3c.13.04.27.04.4 0h.01a.02.02 0 0 0 0-.04M10.9 8.8a2.23 2.23 0 0 0 .48-.27h.01v.01c.03.05.03.11.01.17a.24.24 0 0 1-.09.13.63.63 0 0 1-.4 0 .02.02 0 0 1-.02-.02.02.02 0 0 1 .01-.02" fill="#A1C843"/></svg>