<!-- by TradingView --><svg width="18" height="18" viewBox="0 0 18 18" xmlns="http://www.w3.org/2000/svg"><path fill="#622AFF" d="M0 0h18v18H0z"/><path d="M5 5h8v1h1v3.5h-1.56v.9H5.56v-.9H4V6h1V5Z" fill="#8AD32E"/><path d="M6 5h1v1H6V5ZM5 7h1v1H5V7ZM7.44 9.5h.93v.9h-.93v-.9ZM9.63 7.4h.93v.9h-.94v-.9ZM10.56 8.3h.94v.9h-.94v-.9ZM12 6h1v1h-1V6Z" fill="#13A003"/><path d="M6.5 10.4h5v1.2h-.94v.87H7.44v-.87H6.5v-1.2Zm3.12 2.07H8.37v1.06h1.25v-1.06Z" fill="#4A2358"/><path fill="#743E62" d="M7.44 10.4h.94v.9h-.94zM9.63 10.4h.94v.9h-.94zM8.38 11.3h1.25v.9H8.38z"/><path fill="#955963" d="M8.38 10.4h1.25v.9H8.38z"/><path d="M4.63 9.5h.93v.9h-.93v-.9ZM12.44 9.5h.94v.9h-.94zM5.56 10.4h.94v.9h-.94v-.9ZM12.44 10.4h-.94v.9h.94zM6.5 11.3h.94v.9H6.5v-.9ZM11.5 11.3h-.94v.9h.94v-.9ZM7.44 12.2h.93v.8h-.93v-.8ZM10.56 12.2h-.94v.8h.94zM8.38 13h1.24v1H8.38v-1Z" fill="#2B0E44"/></svg>