<!-- by TradingView --><svg width="18" height="18" viewBox="0 0 18 18" xmlns="http://www.w3.org/2000/svg"><path fill="url(#albfrfhh3)" d="M0 0h18v18H0z"/><path d="M10.28 5.89c-.05.12-.21.35-.47.35-.31 0-.65-.43-.65-1.23A7.2 7.2 0 0 1 9.54 3l-.4.23C7.2 4.37 4 6.96 4 9.84 4 13.71 8.21 14 9.54 14c1.32 0 4.25-.71 4.45-3.66.1-1.6-.63-2.34-1.38-3.08a4.09 4.09 0 0 1-1.39-2.4 1 1 0 0 0-.3.13c-.24.15-.5.43-.64.9Z" fill="#fff"/><path d="M8.75 5.6c0-.85.24-1.44.37-1.62-.44.43-.98 1.2-1.2 1.53l-1.04.64-1.31 3c.21.46.5 1.38-.08 1.38-.57 0-.73-.86-.73-1.3-.19 1.5.7 1.8 1.16 1.77l.45-.91.9-3.8L9.8 7.47l2.22 1.65v2.07l-.75 1.3-1.2.97c3.3-.75 3.3-3.18 3.3-3.5v-.01c0-.26-.1-.62-.13-.76 0 .6-.4 1.22-.61 1.45l-.2-.26c.09-.1.26-.5.26-1.2 0-.85-.66-1.5-1.29-2.27-.5-.6-.57-1.1-.54-1.27a7 7 0 0 0-.28 1.44h-.7c-.2 0-1.14-.4-1.14-1.47Z" fill="url(#blbfrfhh3)"/><path d="m6.71 6.1 2.4-2.12c-.86 1.2-.71 2.15-.52 2.47l-.2-.06c.14.34.67.7 1.34.7.68 0 .64-.32.7-.76a1 1 0 0 1 .44-.67c-.16 1.25.5 2.03.84 2.27h-.36c1.37.92 1.3 2.02 1.1 2.45.58-.3.77-.89.8-1.15.04 1.17-.42 1.88-.65 2.1v-.43a3.56 3.56 0 0 1-2.52 2.55c-1-.81-1.12-1.67-1.12-1.8 0-.16 0-1.08 1.06-1.08.87 0 1.32.91 1.44 1.37.14-.15.36-.58.19-1.12-.17-.53-.89-.69-1.22-.7l-.15-.6c.49.25.8.55.9.67.25-1.1-.89-1.66-1.95-2.11a5.24 5.24 0 0 1-1.84-1.5c.08 1.28.73 1.87 1.04 2.01-1.16.44-2.22 2.76-2.61 3.87-1.31-.9-1.25-2.53-1.06-3.23-.15 1.12.4 1.44.66 1.44.2 0 .31-.06.34-.1l-.06.13c.52-.27.39-.86.06-1.24-.26-.3-.33-.65-.33-.79 0-1.22.85-2.22 1.28-2.57Z" fill="url(#clbfrfhh3)"/><path d="M5.75 12.4a5 5 0 0 1-.81-1.53l.27-.04c-.2-.1-.55-.51-.47-1.5-.17.74-.17 2.21 1 3.07Z" fill="url(#dlbfrfhh3)"/><path d="M10.87 5.66a1 1 0 0 0-.44.67l-.02.13c-.04.31-.06.54-.44.6.18.07.43.07.54-.27l.3.14c-.13-.23-.32-.8.04-1.25l.02-.02Z" fill="url(#elbfrfhh3)"/><path d="m9.04 4.09.07-.1-2.4 2.11a3.62 3.62 0 0 0-1.28 2.57c0 .09.03.27.12.47 0-.33.05-.79.26-1.21.29-.59.6-1.04.7-1.2l-.03.68c.29-.56 1.2-2 2.56-3.32Z" fill="url(#flbfrfhh3)"/><defs><linearGradient id="albfrfhh3" x1="3.35" y1="3.12" x2="21.9" y2="24.43" gradientUnits="userSpaceOnUse"><stop stop-color="#1A1E21"/><stop offset="1" stop-color="#06060A"/></linearGradient><linearGradient id="blbfrfhh3" x1="9.05" y1="3.98" x2="9.05" y2="13.46" gradientUnits="userSpaceOnUse"><stop stop-color="#F5A92F"/><stop offset="1" stop-color="#F27F40"/></linearGradient><linearGradient id="clbfrfhh3" x1="8.96" y1="3.98" x2="8.96" y2="13.45" gradientUnits="userSpaceOnUse"><stop stop-color="#F98A2E"/><stop offset="1" stop-color="#F24537"/></linearGradient><linearGradient id="dlbfrfhh3" x1="7.23" y1="12.23" x2="8.17" y2="4.34" gradientUnits="userSpaceOnUse"><stop stop-color="#DB4431"/><stop offset="1" stop-color="#F54C37" stop-opacity="0"/></linearGradient><linearGradient id="elbfrfhh3" x1="7.23" y1="12.23" x2="8.17" y2="4.34" gradientUnits="userSpaceOnUse"><stop stop-color="#DB4431"/><stop offset="1" stop-color="#F54C37" stop-opacity="0"/></linearGradient><linearGradient id="flbfrfhh3" x1="7.23" y1="12.23" x2="8.17" y2="4.34" gradientUnits="userSpaceOnUse"><stop stop-color="#DB4431"/><stop offset="1" stop-color="#F54C37" stop-opacity="0"/></linearGradient></defs></svg>