<!-- by TradingView --><svg width="18" height="18" xmlns="http://www.w3.org/2000/svg"><path fill="#0A3ADB" d="M0 0h18v18H0z"/><path d="M9.765 11.49c.326.39.664.794.296 1.247a1.639 1.639 0 01-.374.32c-.258.178-.43.295-.353.873l-.313.04c-.102-.765.197-.97.485-1.168.112-.077.218-.15.307-.26.191-.234.078-.41-.292-.854a8.765 8.765 0 01-.216-.265.618.618 0 01-.134-.524c.042-.186.167-.34.293-.453a1.294 1.294 0 01-.592-1.005h.316c0 .028.015.534.558.804l.039.02c.183.083.424.14.738.145 1.307-.026 1.334-.93 1.334-.97l.317.001c0 .003-.002.089-.032.213.152-.005.433-.055.536-.111-.059-.206-.433-.883-.777-1.443l.096-.23.036-.01a22.428 22.428 0 01-.215-1.049c-1.208-.18-2.08-.042-2.59.411-.493.439-.464 1.02-.462 1.045l-.176.01-.14.012a.252.252 0 00-.132-.195c-.063-.029-.135-.015-.215.04a.306.306 0 00-.138.343c.05.259.314.543.517.665l.062-.035.046.086c.007.002.014.025.014.025l.014.027.075.137c-.053.029-.104.062-.152.098 0 0-.016.018-.021.016-.113.088-.234.212-.263.345-.02.089.005.176.076.267.07.09.14.175.209.256.326.39.663.794.295 1.247-.118.146-.254.238-.373.32-.259.178-.43.295-.353.873l-.314.04c-.101-.765.197-.97.486-1.168.111-.077.217-.15.307-.26.19-.234.078-.41-.293-.854-.07-.084-.143-.17-.216-.265a.619.619 0 01-.134-.524.88.88 0 01.272-.432c-.257-.189-.506-.505-.565-.805a.616.616 0 01.267-.656c.174-.121.362-.145.53-.068a.441.441 0 01.05.027c.08-.324.258-.617.51-.843.58-.52 1.537-.687 2.84-.495.29-.364.417-.905-.084-1.363-.46-.42-1.265-.543-1.816-.023l-.264-.08c-.094-.434-.612-.65-1.066-.706-.687-.086-1.584.132-1.93.816-.458.907.132 1.366.157 1.385l-.104.28c-.679-.037-1.135.072-1.357.325-.287.327-.17.887-.077 1.337.079.376.14.674-.012.85a.746.746 0 01-.576.274.79.79 0 01-.346-.08c-.27-.134-.42-.393-.365-.631l.309.07c-.022.094.063.216.198.282a.43.43 0 00.539-.116c.053-.061-.013-.378-.056-.587-.108-.517-.242-1.16.146-1.602.247-.282.66-.427 1.26-.44-.186-.288-.35-.79.001-1.485.415-.82 1.458-1.087 2.253-.987.602.075 1.058.344 1.253.721.671-.47 1.55-.305 2.068.17.412.375.685 1.057.135 1.762.056.392.257 1.255.259 1.264l-.103.167c.82 1.357.744 1.502.706 1.573-.077.148-.36.232-.612.266.297.195.587.532.566 1.042-.016.4-.325.725-.624 1.037-.4.42-.635.694-.414 1.023l-.265.171c-.369-.55.066-1.005.449-1.407.26-.27.527-.551.538-.836.023-.569-.47-.815-.662-.89-.206.306-.604.61-1.374.637v.003l-.058-.002-.058.002v-.003a2.26 2.26 0 01-.69-.122c-.12.089-.263.223-.295.368-.02.09.006.177.077.268.069.09.14.175.209.256zM7.49 6.016l.243.199a.29.29 0 00-.02.387c.072.094.205.163.323.113.2-.084.23-.128.398-.37.133-.194.272-.384.418-.568.206-.262.443-.4.704-.41.417-.016.725.31.738.325l-.234.21c-.002-.003-.225-.236-.493-.225-.163.007-.32.105-.465.29-.142.18-.277.364-.406.553-.177.255-.25.36-.535.481a.537.537 0 01-.21.042.627.627 0 01-.491-.254.6.6 0 01.03-.773zm3.448 6.505c.325.39.663.793.295 1.246-.118.146-.254.239-.373.32-.26.178-.43.295-.354.874l-.314.04c-.1-.766.198-.97.486-1.169.112-.076.218-.149.308-.26.19-.234.077-.41-.293-.854a8.67 8.67 0 01-.216-.265.617.617 0 01-.134-.523c.087-.391.545-.64.597-.667l.149.276c-.106.055-.39.245-.436.458-.02.089.005.176.075.267.07.09.14.175.21.257zM7.674 7.575c-.934-.035-1.421.163-1.45.587-.013.17.002.368.017.58.038.515.082 1.1-.273 1.448-.194.19-.476.284-.86.284a2.74 2.74 0 01-.194-.007l.023-.31c.387.028.65-.033.807-.187.252-.248.216-.735.182-1.206a4.525 4.525 0 01-.019-.623c.03-.43.363-.93 1.778-.878l-.011.312zm3.85.529c-.005-.008-.12-.178-.436-.178-.295 0-.711.284-.847.393l-.189-.227c.023-.019.575-.459 1.036-.459.493 0 .683.306.69.32l-.128.074-.126.077zm-.522.285c0-.1.094-.183.21-.183.117 0 .212.082.212.183 0 .101-.095.183-.211.183-.117 0-.211-.082-.211-.183z" fill="#D6C49E"/></svg>