<!-- by TradingView --><svg width="18" height="18" viewBox="0 0 18 18" xmlns="http://www.w3.org/2000/svg"><path fill="url(#acwm5gkp5)" d="M0 0h18v18H0z"/><path d="m6.52 4 6.04.25L15 9.35 11.55 14l-6.06-.36L3 8.12 6.52 4Z" fill="#3B3B3D"/><path d="m6.52 4 6.04.25L15 9.35 11.55 14l-6.06-.36L3 8.12 6.52 4Zm4.43 2.94L6.57 8.73l3.74 2.71.64-4.5Zm-.5-.9-3.5-1.41-.74 2.96 4.23-1.55Zm-.9 6.08-3.8-2.54.1 3.45 3.7-.9Zm4.84-2.79-2.58-2.46-.69 4.74 3.27-2.28Zm-3.94 3.35-3.2.78 3.76.23-.56-1.01Zm3.44-2.23-2.8 1.96.55 1.02 2.25-2.98Zm-1.33-5.49-.54 1.05 2.02 1.94-1.48-2.99Zm-.68-.5-3.56-.13 2.94 1.2.62-1.07ZM6 4.95 3.51 7.9l1.67.33L6 4.95ZM5.08 8.8 3.4 8.48l1.75 3.86-.07-3.53Z" fill="url(#bcwm5gkp5)"/><defs><linearGradient id="acwm5gkp5" x1="3.35" y1="3.12" x2="21.9" y2="24.43" gradientUnits="userSpaceOnUse"><stop stop-color="#1A1E21"/><stop offset="1" stop-color="#06060A"/></linearGradient><linearGradient id="bcwm5gkp5" x1="14.06" y1="1.68" x2="2.53" y2="11.67" gradientUnits="userSpaceOnUse"><stop offset=".08" stop-color="#3E3E40"/><stop offset=".29" stop-color="#5B5B5D"/><stop offset=".74" stop-color="#9D9D9F"/><stop offset=".89" stop-color="#606061"/></linearGradient></defs></svg>