<!-- by TradingView --><svg width="18" height="18" viewBox="0 0 18 18" xmlns="http://www.w3.org/2000/svg"><path fill="url(#atmazyfg4)" d="M0 0h18v18H0z"/><path d="M6 8.65C6 6.57 8.44 5.9 10 6V4.1A5.02 5.02 0 0 0 4 9a5 5 0 0 0 3 4.58v-1.73c0-.57.56-.88 1.25-.88h.7a1.95 1.95 0 0 0 2.06-1.65c0-.16-.08-.3-.17-.47l-.13-.25c-.1-.22.04-.42.12-.5l.46-.38c.57.57.71 1.3.71 1.6 0 2.08-2.44 2.76-4 2.65v1.93A5.02 5.02 0 0 0 14 9a5 5 0 0 0-3-4.58v1.7c0 .56-.56.88-1.25.88h-.7a1.95 1.95 0 0 0-2.06 1.65c0 .16.08.3.17.47l.13.25c.1.22-.04.42-.12.49l-.46.39A2.46 2.46 0 0 1 6 8.65Z" fill="#1E8AED"/><defs><linearGradient id="atmazyfg4" x1="3.35" y1="3.12" x2="21.9" y2="24.43" gradientUnits="userSpaceOnUse"><stop stop-color="#1A1E21"/><stop offset="1" stop-color="#06060A"/></linearGradient></defs></svg>