<!-- by TradingView --><svg width="18" height="18" viewBox="0 0 18 18" xmlns="http://www.w3.org/2000/svg"><path fill="#F8B300" d="M0 0h18v18H0z"/><path d="M11.5 13h-.13c-.03-.25-.08-.5-.16-.72-.1-.25-.2-.47-.34-.66l-.03-.03-.17-.23a.97.97 0 0 0-.21-.18h-.04c-.18.13-.38.22-.6.26-.18.03-.35.06-.53.07a7.5 7.5 0 0 1-2.93-.28 15.12 15.12 0 0 1-.89-.4.83.83 0 0 1-.23-.22h-.02l-.05.03-.22.16a.99.99 0 0 0-.18.2 2.4 2.4 0 0 0-.35.74c-.12.42-.22.84-.3 1.26H4a14.95 14.95 0 0 1 .24-1.21c.1-.32.22-.59.37-.81.07-.1.15-.2.25-.28.08-.07.18-.14.3-.21a.13.13 0 0 0 .06-.06l-.01-.08a3.1 3.1 0 0 1-.4-.79c-.1-.3-.14-.6-.1-.86a5.7 5.7 0 0 1 .36-1.31 1.1 1.1 0 0 0-.03-.07 1 1 0 0 1-.15-.39.6.6 0 0 1 .08-.4c.07-.12.18-.24.33-.35.07-.05.14-.1.23-.13a2.78 2.78 0 0 1 .28-.08 2.2 2.2 0 0 0 .3-.1.8.8 0 0 1 .14-.03l.02-.02.14-.33A2 2 0 0 1 6.7 5 4.02 4.02 0 0 1 8 4.06a.7.7 0 0 1 .4-.05c.12.02.25.07.4.15.24.13.45.3.64.5 0 .02.01.02.02.01.25-.2.52-.34.83-.44.2-.06.39-.07.56-.04.19.04.36.12.5.26a1.58 1.58 0 0 1 .46.68l.05.14.03.14v.02h.02c.27 0 .5.15.7.46l.09.07.06.06.04.1c0 .01 0 .03.02.03.15.1.22.25.23.46 0 .02 0 .03.02.05l.03.05.05.07c.01.02.01.05 0 .07a.33.33 0 0 1-.08.11l-.03.02a.11.11 0 0 0-.05.04v.03a.33.33 0 0 1-.13.31c-.1.08-.2.12-.29.13l-.02.01a.43.43 0 0 1-.16.24.77.77 0 0 1-.26.14h-.01v.03a8 8 0 0 1 .3.5l.02.04c.01.04.04.06.08.09.14.1.17.25.1.46l.01.03c.05.06.06.17.03.3a1.17 1.17 0 0 1-.1.3c-.09.17-.2.31-.33.44-.14.13-.29.22-.45.29a.32.32 0 0 0-.08.05.9.9 0 0 0-.06.06.84.84 0 0 1-.07.06.3.3 0 0 1-.07.05.7.7 0 0 0-.24.17 4.45 4.45 0 0 1-.52.25 2.06 2.06 0 0 0-.19.1v.01c.09.05.16.11.23.19l.19.23H11c.26-.1.5-.26.76-.45.18-.15.4-.35.65-.6.1-.1.17-.2.25-.31.15-.25.29-.51.4-.78.03-.1.06-.2.07-.3a.66.66 0 0 0-.02-.3l-.18-.46a.95.95 0 0 1-.08-.46.5.5 0 0 1 .05-.22c.05-.07.1-.12.18-.14.13-.04.27.02.4.17.13.14.24.32.32.53.07.17.13.38.17.62.06.3.03.62-.08.95-.09.29-.23.57-.43.85a11.95 11.95 0 0 1-1.12 1.34 33.18 33.18 0 0 0-.85.9V13Z" fill="#020101"/><path d="M8.02 5.1a14.25 14.25 0 0 1-.14-.8.67.67 0 0 1 .51-.13 1 1 0 0 1 .27.1 4.02 4.02 0 0 1 .27.16 1.82 1.82 0 0 1 .72.88v.01c-.22-.09-.4-.16-.57-.2-.2-.07-.4-.1-.58-.12-.08 0-.16 0-.23.02a2 2 0 0 0-.25.08Z" fill="#A66000"/><path d="M7.88 4.3a14.24 14.24 0 0 0 .14.8 5.99 5.99 0 0 1-.18.08c-.22.12-.42.28-.6.47a.38.38 0 0 0-.06.1 24.17 24.17 0 0 0-.06 1.23l-.59-.39c.01-.09 0-.19-.03-.3a1.62 1.62 0 0 0-.13-.34v-.03a16.87 16.87 0 0 0 .16-.33l.11-.2a3.1 3.1 0 0 1 1.24-1.1Z" fill="#7A3E03"/><path d="m10.47 5.33-.18-.39a1.17 1.17 0 0 1-.11-.52c.27-.1.54-.12.82-.04l.1.05c.05.02.08.05.1.07.2.17.35.37.46.61l.15.3-.01.03c-.04.03-.08.03-.1.02-.22-.11-.42-.17-.62-.18-.18 0-.38.01-.61.05Z" fill="#A66000"/><path d="M10.18 4.42c0 .19.03.36.1.52l.2.39a2.8 2.8 0 0 0-.58.13c-.02.01-.05 0-.07-.02a.15.15 0 0 1-.04-.07 2.04 2.04 0 0 0-.26-.6c.2-.14.41-.26.65-.35Z" fill="#7A3E03"/><path d="M8.84 5.78c-.04-.04-.08-.05-.14-.04-.15.04-.3.06-.46.07-.05 0-.09-.01-.13-.03a.03.03 0 0 1-.02-.04c0-.17 0-.35-.03-.52a.9.9 0 0 1 .68-.08c.26.05.53.15.8.28.11.05.22.13.34.24l.06.08v.01l-.26-.03c-.28 0-.56.03-.84.06Z" fill="#F2C583"/><path d="M8.06 5.22c.03.17.04.35.03.52l.02.04c.04.02.08.03.13.03.16-.01.3-.03.46-.07.06-.01.1 0 .14.04-.24.03-.42.08-.55.15a47.17 47.17 0 0 1-.67.35c-.02.03-.02.05 0 .06h.02c.15-.06.35-.16.63-.3.15-.08.32-.14.5-.17.08.05.14.1.17.16-.18.03-.37.07-.59.14l-.57.21a2.8 2.8 0 0 0-.58.3 15.56 15.56 0 0 1 .03-.87l.04-.05c.24-.21.5-.4.79-.54Z" fill="#B9884E"/><path d="m10.9 5.96-.38-.5c.22-.04.42-.04.6-.03.24.02.43.07.59.15h.03a.37.37 0 0 1 .05-.04.11.11 0 0 1 .05-.02c.14-.01.26.01.38.07.1.06.2.14.28.27.01 0 .01.01 0 0a2.24 2.24 0 0 0-.8-.03l-.8.13Z" fill="#F2C583"/><path d="m10.52 5.45.37.5-.58.14h-.01a.36.36 0 0 0-.17-.25.43.43 0 0 1-.05-.04.18.18 0 0 1-.04-.06.55.55 0 0 0-.13-.17v-.02l.6-.1Z" fill="#B9884E"/><path d="M8.94 6.03a.52.52 0 0 0-.17-.16c.34-.04.66-.06.96-.06.1 0 .2.02.3.06.1.05.16.13.2.23 0 .02-.01.02-.02.01a2.62 2.62 0 0 0-1.27-.08ZM11.1 6.12a.98.98 0 0 0-.1-.05l-.02-.04a8.47 8.47 0 0 1 1.1-.14l.23.02c.2.03.33.09.4.16.03.03.02.05-.02.04-.1-.03-.22-.05-.35-.06-.42-.02-.83 0-1.25.07Z" fill="#F2C583"/><path d="m6.53 6.6.6.37a7.8 7.8 0 0 0 0 .84.5.5 0 0 0-.14.18c-.13.27-.22.52-.27.75-.04.18-.03.39.01.63.05.22.11.41.2.6.07.11.16.2.28.28.1.06.23.1.38.13a18.83 18.83 0 0 0 3.21.33 21.13 21.13 0 0 0-1.05.19l-.52.07c-.47.07-.93.07-1.38.01-.33-.04-.67-.1-1.02-.2-.19-.15-.35-.31-.5-.48a1.18 1.18 0 0 1-.24-.58 9.47 9.47 0 0 1 .03-1.41c0-.09 0-.17-.02-.23l.02-.03v-.04a.04.04 0 0 0-.03-.03 1.3 1.3 0 0 1-.38-.12 1 1 0 0 1-.27-.24 3.85 3.85 0 0 1-.34-.5c-.1-.23-.1-.42.01-.56.15-.2.33-.33.54-.38.15-.04.32-.1.52-.18.04-.02.07 0 .09.03.09.19.15.38.18.58 0 .03.02.06.04.08h.02l.02-.01.01-.09Z" fill="#A66000"/><path d="M10.98 6.03c0 .02.01.03.03.04l.08.05a2.99 2.99 0 0 0-.73.18l-.05-.12.67-.15ZM9.97 6.13l-.01.2a91.42 91.42 0 0 1-.65-.04h-.6c-.19.02-.36.08-.5.18a.9.9 0 0 0-.36.4c-.01.04-.03.05-.07.04l-.41-.1-.04.01v.03l.02.02c.13.06.27.1.43.11a5.66 5.66 0 0 1 .43.23c.07.04.15.08.23.1 0 .08.01.14.04.18l-.58-.14h-.02v.04a6.07 6.07 0 0 0 1.7.35l-.15.1a.9.9 0 0 0-.15-.02A1.87 1.87 0 0 1 9 7.77a4.8 4.8 0 0 0-.33-.07 2.5 2.5 0 0 1-.44-.1 1.44 1.44 0 0 1-.4-.2 6.5 6.5 0 0 1-.63-.28v-.3c0-.03 0-.04.03-.06.11-.08.25-.16.42-.24a7.5 7.5 0 0 1 .53-.2 3.2 3.2 0 0 1 1.79-.2ZM10.48 6.71a.57.57 0 0 0-.15-.25v-.04l.01-.02c.2-.08.4-.14.61-.18.5-.08.96-.11 1.37-.09.12 0 .24.03.36.06.17.04.26.16.3.35 0 .02-.01.03-.03.02-.18-.12-.39-.2-.64-.24-.2-.04-.43-.05-.68-.04a1.96 1.96 0 0 0-1.15.43Z" fill="#B9884E"/><path d="M9.96 6.34v-.21c.1.01.19.04.25.08.07.05.08.1.04.17 0 .01-.01.02-.02.01l-.27-.05Z" fill="#F2C583"/><path d="M12.64 6.5c.03.13.04.24.03.33l-.05.15a.76.76 0 0 0-.05.16 1.6 1.6 0 0 1-.5.13c-.03 0-.03 0-.01-.01a.57.57 0 0 0 .16-.2.51.51 0 0 0 .05-.22.63.63 0 0 0-.04-.22.83.83 0 0 0-.11-.22v-.01c.2.01.37.05.52.11ZM10.12 6.45l.06.15.05.15v.23a.3.3 0 0 1-.03.07l-.03.07a.75.75 0 0 0-.06.13 4.45 4.45 0 0 1-.76.04.7.7 0 0 0 .23-.43.58.58 0 0 0-.02-.24.52.52 0 0 0-.13-.21v-.02l.7.06Z" fill="#fff"/><path d="M5.99 7.47a2.82 2.82 0 0 0 .08-.5c.01-.27-.03-.4-.15-.42h-.16l-.16.04c0-.06.02-.1.06-.12.06-.03.1-.05.16-.06.06 0 .11 0 .16.02.05.01.09.04.12.08.04.05.06.1.07.17.05.28 0 .56-.12.83l-.02.01H6v-.05Z" fill="#020101"/><path d="M8.26 7.1a.85.85 0 0 1 .02-.41l.06-.2a.5.5 0 0 1 .16-.06v.02c-.06.1-.09.23-.08.37.02.13.06.25.14.36v.01l-.3-.1ZM8.67 6.51c-.02.06 0 .12.05.14.05.02.11-.01.13-.07.02-.06 0-.12-.06-.14-.05-.02-.1.01-.12.07ZM10.77 7.22l.01-.27c0-.08.05-.21.13-.4l.26-.1v.01a.95.95 0 0 0-.04.4c.01.16.06.28.15.37l-.01.02-.5-.03ZM11.29 6.53c-.04.06-.03.13 0 .15.04.02.1-.01.13-.08.03-.06.03-.13 0-.15-.04-.02-.1.01-.13.08Z" fill="#fff"/><path d="m10.11 7.25.06-.13.03-.07a.3.3 0 0 0 .03-.07.65.65 0 0 0 0-.23.76.76 0 0 0-.05-.15l-.06-.15c.14.04.23.13.27.29.06.26-.03.43-.28.5ZM8.34 6.49l-.06.2a.85.85 0 0 0-.02.4l-.34-.17V6.9c.1-.18.23-.32.42-.41ZM12.64 6.5c.19.07.33.17.43.3v.02a.78.78 0 0 1-.19.15l-.31.17c0-.06.02-.1.05-.16a.61.61 0 0 0 .05-.15c.01-.1 0-.2-.03-.33Z" fill="#D3CDD1"/><path d="M5.99 7.47a4.2 4.2 0 0 1-.38-.88l.15-.04a.48.48 0 0 1 .16 0c.12.01.16.15.15.41a2.5 2.5 0 0 1-.08.5Z" fill="#7A3E03"/><path d="M10.9 6.56c-.07.18-.11.31-.12.4l-.01.26-.32-.07c-.01 0-.02-.01 0-.02a.48.48 0 0 0 .05-.28v-.03a1 1 0 0 1 .4-.26Z" fill="#D3CDD1"/><path d="m10.8 7.93-.04-.07a.51.51 0 0 1-.05-.54c.43.07.79.1 1.1.08a2.3 2.3 0 0 0 1.06-.3v.01a.33.33 0 0 1-.17.24.18.18 0 0 1-.08.02h-.14a.4.4 0 0 0-.11 0l-.02.02c0 .03 0 .04.03.05l.1.02v.02a.42.42 0 0 1-.13.17.59.59 0 0 1-.19.1c-.44.15-.9.2-1.35.18ZM9.43 7.84a4.5 4.5 0 0 1-.65.37v.03c0 .01.01.02.03.02l.08-.02c-.01.04 0 .06.02.08h.03a2.19 2.19 0 0 0 .7-.38c.1-.08.24-.1.43-.05.07.01.15.04.24.07a4.17 4.17 0 0 1 .3.13c.13 0 .26.01.38.03l.32.28h.04c.01-.01.02-.03.01-.05a.25.25 0 0 0-.07-.11 1.17 1.17 0 0 0-.14-.12l.4.02c.12.02.23.05.31.1.13.05.23.1.33.12.06.05.13.12.18.2v.03c-.16.12-.32.3-.49.55a.2.2 0 0 1-.12.08c-.3.07-.62.1-.95.08-.53-.03-1.03-.09-1.51-.18a.73.73 0 0 1-.4-.2 3.9 3.9 0 0 1-.16-.17l-.22-.24a.83.83 0 0 0-.27-.18.67.67 0 0 0-.42 0c-.15.05-.24.14-.27.28-.03.1-.01.24.03.4a1.68 1.68 0 0 0 .68.88c.25.17.53.27.83.31a16.2 16.2 0 0 0 .78.11 57.78 57.78 0 0 1 .9.15 2.79 2.79 0 0 0 .72 0 .64.64 0 0 1-.27.08 6.71 6.71 0 0 1-1.15.02 8.07 8.07 0 0 1-1.14-.09 9.62 9.62 0 0 1-1.67-.3.61.61 0 0 1-.28-.3c-.13-.29-.2-.58-.2-.87 0-.13.03-.28.08-.45.03-.11.09-.26.17-.45a.7.7 0 0 1 .17-.24l.02-.03V7.8a14.12 14.12 0 0 1-.03-.67 6.5 6.5 0 0 0 .63.27c.1.08.24.15.4.2.13.05.28.08.44.1a4.8 4.8 0 0 1 .46.1c.03 0 .08 0 .15.02l.15.02Z" fill="#F2C583"/><path d="M10.71 7.32a.51.51 0 0 0 .05.54l.05.07H10.5c-.02.03-.02.04 0 .05l.02.02.18.02a6.25 6.25 0 0 0 1.07-.05l.01.06.02.05c0 .02.02.03.05.04.12.05.23.13.33.24l-.33-.13a1.2 1.2 0 0 0-.31-.09l-.4-.02a.56.56 0 0 0-.1-.04c-.02 0-.04.01-.06.04a4.2 4.2 0 0 0-.38-.03 4.17 4.17 0 0 0-.54-.2c-.19-.05-.34-.03-.43.05a2.19 2.19 0 0 1-.7.39h-.03c-.02-.03-.03-.05-.02-.09a6.35 6.35 0 0 1 .33-.14l.26-.15a23.93 23.93 0 0 0 .28-.2.8.8 0 0 0 .4-.1c.08-.04.13-.1.18-.16.05-.08.07-.16.04-.23v-.02h.02l.31.08Z" fill="#B9884E"/><path d="M8.47 7.5a.5.5 0 0 1-.04-.19l.15.04a6.97 6.97 0 0 0 1.37.06.8.8 0 0 0 .33-.12h.02c.02.07 0 .14-.08.2a.58.58 0 0 1-.2.13.88.88 0 0 1-.28.03 7.05 7.05 0 0 1-1.27-.16Z" fill="#F2C583"/><path d="M6.1 8.08c.02.06.03.14.02.23a9.47 9.47 0 0 0-.03 1.41c.03.22.11.41.25.58.14.17.3.33.5.48l-.44-.1h-.02v.02c0 .02-.01.03-.03.02a15.6 15.6 0 0 0-.59-.33.91.91 0 0 0-.39-.12s-.02 0-.02-.02v-.01a.63.63 0 0 0-.08-.13 1.69 1.69 0 0 1-.3-.62 2.9 2.9 0 0 1-.1-.72c-.01-.17 0-.34.05-.5a5.96 5.96 0 0 1 .24-.75 5.74 5.74 0 0 0 .31.36.9.9 0 0 0 .63.2Z" fill="#7A3E03"/><path d="M11.31 12.19a8.29 8.29 0 0 0 1.3-1.36c.17-.2.3-.35.37-.47.12-.17.22-.35.29-.52a2.81 2.81 0 0 0 .17-1.14 2.08 2.08 0 0 0-.12-.45.84.84 0 0 0-.33-.44c0-.04.02-.08.05-.1.06-.07.13-.08.21-.04.06.03.12.08.18.16.12.14.2.3.27.49.05.13.09.32.13.55.04.29.03.57-.05.85-.07.26-.2.51-.38.77a10.03 10.03 0 0 1-1.55 1.82 5.58 5.58 0 0 0-.39.4l-.15-.52Z" fill="#A66000"/><path d="M12.99 7.81c.15.1.26.25.33.44.06.16.1.3.11.45a2.81 2.81 0 0 1-.17 1.14c-.06.17-.16.35-.28.52a26.19 26.19 0 0 1-1.12 1.32c-.11.12-.3.28-.55.5a2.77 2.77 0 0 0-.22-.5v-.02a6.42 6.42 0 0 0 .94-.63 4.05 4.05 0 0 0 1.12-1.48c.05-.12.08-.23.1-.34.04-.24 0-.48-.11-.72a5.19 5.19 0 0 1-.12-.27.64.64 0 0 1-.03-.4Z" fill="#7A3E03"/><path d="m12.18 8.24-.29-.2c-.03 0-.04-.03-.05-.07 0-.02 0-.02.02-.03l.12-.03c.02 0 .03 0 .03.02l.08.15.1.15c.01.02.01.02-.01 0Z" fill="#B9884E"/><path d="M11.15 8.12a6.2 6.2 0 0 0 .14.12c.04.04.06.08.07.11v.05h-.05l-.32-.28c.02-.03.04-.04.05-.04l.11.04ZM7.42 9.85a1.4 1.4 0 0 1-.33-.62.93.93 0 0 1 .04-.57c.02-.06.08-.16.16-.3.02-.02.04-.02.05-.02l.02.05a.1.1 0 0 1-.01.06c-.08.12-.13.22-.16.32a.76.76 0 0 0-.04.35c.02.12.06.23.1.35.05.08.1.19.2.32 0 .02 0 .04-.03.06Z" fill="#020101"/><path d="M7.3 8.36c-.1.14-.15.24-.17.3a.93.93 0 0 0-.04.57c.05.23.16.44.32.62-.03.05-.07.05-.13 0a1.2 1.2 0 0 1-.32-.68.81.81 0 0 1 .01-.41 1.12 1.12 0 0 1 .12-.24c.08-.1.14-.16.2-.16Z" fill="#B9884E"/><path d="m12.54 8.78-.27.3a9.24 9.24 0 0 0-.37.38.83.83 0 0 1-.42.23 5.18 5.18 0 0 1-.67.09 4.37 4.37 0 0 1-.88-.07l-.46-.16a2.56 2.56 0 0 1-.45-.23 11.77 11.77 0 0 0-.71-.46.08.08 0 0 0-.07-.03c-.02 0-.04.02-.06.04 0 .13.07.24.18.32l.18.12a8.64 8.64 0 0 0 1.25.55 3.41 3.41 0 0 0 1.52.08l.34-.1c.12-.05.25-.12.39-.22.2-.15.36-.31.5-.48.02-.04.03-.03.03.01 0 .1-.04.2-.09.29a9.16 9.16 0 0 0-.19.21c-.17.16-.36.3-.58.41-.11.07-.25.11-.4.14-.14.02-.28.02-.44.02a111.7 111.7 0 0 0-2.06-.36.97.97 0 0 1-.5-.25 3.39 3.39 0 0 1-.43-.51l-.08-.32a1.27 1.27 0 0 1-.02-.22v-.02c0-.02.01-.06.05-.1a.55.55 0 0 1 .52.05 1 1 0 0 1 .19.16 4.04 4.04 0 0 1 .22.28c.07.08.16.15.26.2.1.04.2.08.32.1.45.07.9.13 1.34.15.47.03.85 0 1.13-.08l.1-.05a.35.35 0 0 0 .06-.08c.1-.17.24-.32.4-.46a.18.18 0 0 1 .1-.05h.02c.04.04.06.07.05.12Z" fill="#EA2D24"/><path d="M7.83 8.44c-.04.04-.05.08-.05.1v.02l.02.22.08.32a3.39 3.39 0 0 0 .43.51c.14.13.31.21.5.25l1.53.28c.23.05.4.07.53.08.16 0 .3 0 .43-.02.16-.03.3-.07.4-.14.23-.12.42-.25.6-.41a1.32 1.32 0 0 0 .18-.21.47.47 0 0 1-.04.12c-.28.53-.71.8-1.3.8-.21 0-.43-.02-.65-.07-.48-.09-.91-.16-1.31-.2a1.77 1.77 0 0 1-.75-.25 2.9 2.9 0 0 1-.37-.29c-.03-.03-.1-.1-.2-.24a1 1 0 0 1-.2-.56c0-.07.02-.13.04-.19s.07-.1.13-.12Z" fill="#930506"/><path d="M10.75 8.64c.05.08.1.14.13.12.02-.01 0-.09-.04-.17-.05-.09-.1-.14-.13-.13-.03.02 0 .1.04.18Z" fill="#020101"/><path d="M10.23 8.5a.32.32 0 0 0-.04.3c-.04.02-.08 0-.1-.03-.03-.04-.03-.1 0-.16a.29.29 0 0 1 .03-.07.22.22 0 0 1 .06-.05c.02-.01.04 0 .05.02Z" fill="#B9884E"/><path d="M10.23 8.5a.1.1 0 0 1 .03.03l.01.03-.02.22-.01.02a.1.1 0 0 1-.05 0 .32.32 0 0 1 .04-.3Z" fill="#020101"/><path d="M12.54 8.78c0 .11-.02.2-.06.25a12.16 12.16 0 0 0-.18.21l-.14.14a5.88 5.88 0 0 0-.3.23 3.05 3.05 0 0 1-.99.26 4.1 4.1 0 0 1-1.13-.18 5.13 5.13 0 0 1-1.3-.59.84.84 0 0 1-.12-.11.55.55 0 0 0-.14-.12c.02-.02.04-.04.06-.04.03 0 .05 0 .07.03l.09.08c.2.12.42.24.62.38.13.08.28.16.45.23a7.31 7.31 0 0 0 .6.19h.1a4.37 4.37 0 0 0 1.3-.06c.17-.03.31-.1.43-.22a9.4 9.4 0 0 0 .37-.39c.1-.09.19-.19.27-.3Z" fill="#930506"/><path d="m6.22 10.76-.23.02c-.06 0-.1.04-.13.1a1.4 1.4 0 0 1-.31-.16c-.14-.1-.21-.18-.2-.25 0-.04.02-.06.06-.05.13.02.27.07.42.13l.39.21Z" fill="#7A3E03"/><path d="M9.3 11.51c0 .05-.03.08-.09.08a3.53 3.53 0 0 1-.7.04h-.65a3.08 3.08 0 0 1-.62-.1 22.3 22.3 0 0 0-1.21-.3 9.96 9.96 0 0 1-.39-.12l-.27-.05c-.07-.01-.12 0-.17.04-.06.04-.12.1-.18.18-.17.22-.3.47-.4.74-.1.32-.17.64-.2.98h-.3a13.34 13.34 0 0 1 .44-1.65l.21-.36a1 1 0 0 1 .19-.2 3.23 3.23 0 0 1 .28-.18c.05.08.13.15.23.22a15.26 15.26 0 0 0 .89.4 7.5 7.5 0 0 0 2.93.28ZM10.28 11.13c-.17 0-.34 0-.5.05 0-.03-.03-.04-.07-.04-.83.1-1.66.07-2.47-.1a4.23 4.23 0 0 1-.82-.27v-.01h.01c.52.14 1.03.25 1.53.31a4.75 4.75 0 0 0 1.4-.03 28.8 28.8 0 0 0 1.53-.3v-.01c-.02-.02-.05-.02-.09-.02v-.02l-.02-.02.42-.02c.02 0 .02 0 0 .02a24.07 24.07 0 0 1-.64.28.63.63 0 0 0-.14.08l-.14.1Z" fill="#7A3E03"/><path d="M6.22 10.76c.43.2.9.35 1.42.43.41.06.88.09 1.4.08.3 0 .54-.04.74-.09.16-.04.33-.06.5-.05-.13.08-.25.14-.37.17-.36.08-.73.12-1.12.1a8.66 8.66 0 0 1-2.26-.25c-.2-.04-.43-.13-.67-.27.03-.06.07-.1.13-.1.12 0 .2-.01.23-.02Z" fill="#A66000"/><path d="M9.3 11.51c.17-.01.34-.04.52-.07.22-.04.42-.13.6-.26a.03.03 0 0 1 .04 0c.07.04.14.1.2.18l.18.23.03.03c.14.19.25.4.34.66.08.23.13.47.16.72H4.42c.03-.34.1-.66.2-.98.1-.27.23-.52.4-.74.06-.07.12-.14.18-.18.04-.04.1-.05.17-.04.08 0 .17.03.27.05a5.6 5.6 0 0 1 .39.13l.37.1c.3.06.58.13.84.2.18.04.38.07.62.08a11.59 11.59 0 0 0 1.35-.03c.06 0 .08-.03.08-.08Z" fill="#A66000"/></svg>