<!-- by TradingView --><svg width="18" height="18" viewBox="0 0 18 18" xmlns="http://www.w3.org/2000/svg"><path fill="#181B1E" d="M0 0h18v18H0z"/><path d="m5.16 11.52 5.68-7.35.5.39-5.69 7.34-.5-.38Z" fill="#FDFDFD"/><path d="M13.7 7.95 7.46 9.33l-3.27-1.4.24-.57 3.09 1.31 6.05-1.33.13.61Z" fill="#FDFDFD"/><path d="m8.7 13.57 1.97-9.22.61.13-1.97 9.22-.62-.13Z" fill="#FDFDFD"/><path fill-rule="evenodd" d="m7.07 4.63-2.4 3.11.86 3.8L9 13.3l3.51-1.76.82-3.8-2.45-3.12H7.07ZM11.19 4H6.76L4 7.6l.99 4.37L9 14l4.06-2.03.94-4.38L11.19 4Z" fill="#FDFDFD"/><path d="m12.5 11.95-5.83-7.4.5-.38 5.83 7.4-.5.38Z" fill="#FDFDFD"/></svg>