<!-- by TradingView --><svg width="18" height="18" viewBox="0 0 18 18" xmlns="http://www.w3.org/2000/svg"><path fill="#EDDEDB" d="M0 0h18v18H0z"/><path d="M4.7 4.03h.09c.19.04.36.12.52.24a6.44 6.44 0 0 1 .7.62l.44.39c.18.15.38.27.58.36a1.82 1.82 0 0 0 1.13.1 3.16 3.16 0 0 1 .34-.04l.16-.01.2-.01a.76.76 0 0 1 .18 0h.16a40.9 40.9 0 0 0 .4.02 13.3 13.3 0 0 1 1.01.1.5.5 0 0 0 .23-.03c.15-.04.3-.1.45-.19l.44-.26a2.87 2.87 0 0 1 .51-.27c.1-.04.22-.06.34-.08h.1l.1.03c.12.02.2.1.28.2a.67.67 0 0 1 .1.32V6a5.8 5.8 0 0 0-.02.58v.04a2.63 2.63 0 0 0 .02.23c.03.2.06.35.1.46.05.19.11.34.18.45a3.48 3.48 0 0 1 .44 1.1 3.62 3.62 0 0 1 .04 1.65l-.02.12-.01.12a.4.4 0 0 1-.03.09 3.62 3.62 0 0 1-1.39 2.22 4.39 4.39 0 0 1-2.2.93h-.18l-.13.01h-.1a4.3 4.3 0 0 1-.73-.02 1.2 1.2 0 0 0-.18-.01 5.68 5.68 0 0 1-1.36-.35 5.28 5.28 0 0 1-1.08-.68 1.65 1.65 0 0 1-.17-.17 2.52 2.52 0 0 1-.3-.33 4.03 4.03 0 0 1-.65-1.05 8.22 8.22 0 0 1-.7-2.27.18.18 0 0 1-.02-.06.67.67 0 0 0-.03-.18V8.8a.4.4 0 0 0-.03-.1 2.2 2.2 0 0 0-.1-.43v-.05a12.85 12.85 0 0 1-.17-.63 7.55 7.55 0 0 1-.27-1.1 1.63 1.63 0 0 1-.05-.3A2.7 2.7 0 0 1 4 5.73a13.54 13.54 0 0 0 .02-.46l.02-.1c0-.05 0-.09.02-.11a.8.8 0 0 0 .03-.12 1.38 1.38 0 0 1 .04-.17c.03-.15.08-.3.16-.46a.5.5 0 0 1 .4-.28Z" fill="#41271F"/><path d="M6.58 5.59v.11a3 3 0 0 1 .15 1.18h.01a13.5 13.5 0 0 1 .83-.58 3.51 3.51 0 0 1 .53-.27c.05-.02.1-.06.14-.1a2.84 2.84 0 0 1 .9-.07c.01.06 0 .11-.04.15a.3.3 0 0 1-.15.07c-.21.04-.4.1-.56.15-.18.07-.35.16-.5.26-.16.1-.34.24-.54.4-.07.06-.08.12-.02.18.03.03.05.04.09.03a.8.8 0 0 1 .18-.02l-.04.08a1 1 0 0 0-.43.26.28.28 0 0 0-.06.08.1.1 0 0 0 0 .1c.05.08.12.15.2.19v.04a.93.93 0 0 0-.2.16 3.86 3.86 0 0 0-.74 1.05c-.02.14.03.25.15.33a.17.17 0 0 0 .14.02c.06-.02.06 0 0 .02a1.92 1.92 0 0 0-.63.6.7.7 0 0 0-.1.24c-.03.1.01.17.1.21.04.02.07.01.11-.01h.02s.01 0 0 0a.84.84 0 0 0-.1.17c-.05.15-.11.28-.17.4a.58.58 0 0 1-.29.28l-.16-.37c.1-.12.17-.26.2-.41v-.02h-.02c-.08-.01-.12-.05-.11-.1a1.97 1.97 0 0 1 .4-1.1v-.01c-.02-.02-.02-.04-.01-.06a3.77 3.77 0 0 0 .38-1.35 236.95 236.95 0 0 0-.31.5c-.1.14-.22.22-.36.22a.77.77 0 0 1-.41-.16c-.03-.02-.04-.02-.02.01l.04.13a.2.2 0 0 1-.03.12.22.22 0 0 1-.15.1.36.36 0 0 1-.18 0l-.1-.45c.05-.1.07-.2.05-.33L4.78 8a.04.04 0 0 1 .04-.01c.1 0 .17.02.24.04.11.04.2.07.28.07.12.02.21 0 .29-.05a.3.3 0 0 0 .14-.27c0-.05 0-.1-.02-.16l-.05-.15v-.02h.01l.16-.02.07-.02A.1.1 0 0 0 6 7.3a.16.16 0 0 0-.02-.08 2.09 2.09 0 0 0-.16-.2V7c.1-.06.17-.12.22-.19.07-.07.11-.16.14-.25a.62.62 0 0 0-.08-.55v-.05a.27.27 0 0 0-.04-.11c-.08-.18-.19-.35-.31-.54-.2-.3-.43-.6-.7-.85a.84.84 0 0 0-.38-.23c.02 0 .04 0 .06-.02H4.8c.14.03.28.1.43.21.14.1.26.2.35.3l.53.5c.15.13.3.26.46.37Z" fill="#774C46"/><path d="M4.66 4.23c.15.04.28.12.39.23a5.42 5.42 0 0 1 .67.88 1.55 1.55 0 0 1-.19-.22L5.3 4.8c-.16-.2-.3-.28-.44-.24a.36.36 0 0 0-.2.15.68.68 0 0 0-.1.23 6.18 6.18 0 0 0-.2 1.85l-.01-.02c-.04-.1-.07-.2-.09-.31a3.38 3.38 0 0 1 .12-1.88c.06-.17.13-.28.2-.33a.1.1 0 0 1 .09-.02Z" fill="#E6D1CC"/><path d="M5.74 5.31c.12.19.23.36.31.54.02.03.03.07.03.11l-.02.02h-.02A.53.53 0 0 1 6 5.9a1.3 1.3 0 0 0-.31-.3.5.5 0 0 0-.21-.1c-.08-.02-.14.03-.17.13a22.28 22.28 0 0 0-.45 1.56l-.02.19-.04.18a2.77 2.77 0 0 1-.34-.55l-.1-.2-.01-.04.01.02h.03v-.07c-.03-.59.02-1.18.17-1.78.02-.1.06-.17.1-.23a.36.36 0 0 1 .2-.15c.14-.04.28.04.44.24l.24.32a1.55 1.55 0 0 0 .2.22V5.3Z" fill="#C98C89"/><path d="M13.03 7.13h-.01a2.3 2.3 0 0 1-.17-1.36.5.5 0 0 0-.03-.26.27.27 0 0 0-.2-.17.46.46 0 0 0-.2 0 2.11 2.11 0 0 0-.56.2V5.5l.02-.04a.46.46 0 0 1 .13-.12c.17-.1.34-.16.52-.2.16-.03.28.01.37.13.04.06.07.14.08.22l.01.1v.14a4.19 4.19 0 0 1-.03.48v.27c0 .12.02.34.07.64Z" fill="#E6D1CC"/><path d="M13.02 7.14c0 .05-.03.12-.09.19a24.62 24.62 0 0 1-.14-.32l-.33-.88a.75.75 0 0 0-.22-.35c-.12-.09-.25-.1-.4-.01a.4.4 0 0 0-.07.06.77.77 0 0 1-.05.04l-.02.01-.01-.04a.68.68 0 0 1 .05-.13 2 2 0 0 1 .11-.2l.01.02c.18-.09.36-.15.56-.2a.46.46 0 0 1 .2.01c.1.02.16.08.2.17a.5.5 0 0 1 .03.26 12.75 12.75 0 0 1-.04.27v.21c0 .31.08.6.2.89Z" fill="#C98C89"/><path d="m11.88 5.47-.03.04a5.06 5.06 0 0 1-.1.2.68.68 0 0 0-.06.13c-.06.1-.1.24-.14.4-.02.14.02.26.11.34v.04A3.96 3.96 0 0 0 10.7 6a.38.38 0 0 1 .1-.04l.1-.02a3.16 3.16 0 0 0 .87-.44.18.18 0 0 1 .1-.03Z" fill="#774C46"/><path d="m6.08 5.96.01.05a4.55 4.55 0 0 1-.06.43 3.12 3.12 0 0 1-.08.2l-.02-.01a.57.57 0 0 1-.17-.24c-.01-.03-.02-.03-.03 0a1.67 1.67 0 0 0-.05.83h-.01l-.32-.06v.03c.06.1.09.22.08.34 0 .03-.02.03-.04.02l-.27-.13H5.1l-.02.02c0 .15 0 .29.03.4.01.03 0 .04-.02.02-.12-.1-.22-.2-.3-.3l.04-.18c0-.1.02-.15.02-.19a9.15 9.15 0 0 1 .45-1.56c.03-.1.09-.15.17-.14a.5.5 0 0 1 .2.1 1.3 1.3 0 0 1 .32.3l.05.09h.02s.02 0 .02-.02Z" fill="#BC7573"/><path d="M8.24 5.92a.56.56 0 0 1-.14.1 21.97 21.97 0 0 1-.53.28 5.89 5.89 0 0 0-.84.58h-.01a3 3 0 0 0-.13-1.18.35.35 0 0 1-.01-.11c.1.07.22.13.34.19a1.87 1.87 0 0 0 1.05.16 3.84 3.84 0 0 1 .27-.02Z" fill="#683B36"/><path d="M12.93 7.33a.27.27 0 0 1-.05.09h-.04a.42.42 0 0 1-.06-.1 2.12 2.12 0 0 0-.15-.3l-.03.01-.06.05h-.02l-.01-.01a3.15 3.15 0 0 0 .06-.27.7.7 0 0 1-.45-.03l-.02-.01a.37.37 0 0 1-.04-.13c0-.06-.01-.12-.03-.17 0-.05-.02-.05-.04 0l-.05.1-.02.01h-.02a.68.68 0 0 1-.07-.17 1.86 1.86 0 0 1-.13-.52h.02l.05-.05a.4.4 0 0 1 .08-.06c.14-.08.27-.08.39.01.09.07.16.19.22.35a315.28 315.28 0 0 1 .4 1.04l.07.16Z" fill="#BC7573"/><path d="m11.69 5.84.01.04.01.05a1.86 1.86 0 0 0 .19.63l.02.01.02-.01.05-.1c.02-.05.03-.05.05 0l.03.17c0 .05.01.09.03.13l.02.01a.7.7 0 0 0 .45.02l.01.01v.02a3.21 3.21 0 0 1-.07.25l.01.01h.02l.07-.05h.02l.02.01a4.47 4.47 0 0 0 .13.28c.02.03.03.07.06.1h.04a.27.27 0 0 0 .05-.1c.06-.06.09-.13.09-.18l.01-.01.1.31-.12.1a.38.38 0 0 1-.07.06.98.98 0 0 0-.08.05l-.31-.28c0-.02 0-.04-.03-.07l-.01-.02-.05-.15V7.1l-.04.01a.28.28 0 0 0-.1-.13v.02a.04.04 0 0 0-.03.02V7a.62.62 0 0 0-.15-.14l.01-.01h.01v-.02l-.14-.06a.55.55 0 0 0-.29-.06c-.03 0-.04 0-.03-.02.02-.01 0-.03-.05-.06l.02-.02v-.02c-.1-.08-.14-.2-.12-.33.03-.17.08-.3.14-.4Z" fill="#826158"/><path d="M10.7 6a7.56 7.56 0 0 1 .95.62c.05.03.06.05.04.06l-.17.02h-.02c-.06.08-.07.16-.02.24v.02h-.02a.3.3 0 0 1-.06-.07.2.2 0 0 1-.03-.07c-.01-.05.01-.1.07-.12v-.02a.56.56 0 0 0-.2.07.04.04 0 0 0-.01.03l.01.03.2.16.42.23c.13.06.27.1.42.1l.02.01h.02l.05.03.18.03.31.28.28.27v.04l-.07.07v.04c.2.22.38.46.5.72V8.85h-.02l-.14-.27a.03.03 0 0 0-.02-.02.53.53 0 0 1-.27-.08 3.43 3.43 0 0 0-.54-.43h-.01c-.06-.04-.1-.06-.16-.05a5.91 5.91 0 0 1-.7-.55c.02-.05.02-.1.02-.14 0-.05-.02-.1-.06-.11l-.04-.01-.05-.02a.65.65 0 0 0-.24-.07 3.33 3.33 0 0 0-.63-.15c-.2-.03-.37-.02-.53.03-.04.01-.05.03-.03.07l.04.12c.02.06 0 .1-.07.14-.12.05-.27.1-.43.13a6.9 6.9 0 0 1-.52.07 2.54 2.54 0 0 0-.86.24 8.4 8.4 0 0 1-.47.2c-.13.05-.24.08-.34.1A.7.7 0 0 1 7.15 8h-.02c-.04 0-.06 0-.07-.02a.93.93 0 0 1 .2-.16c.01 0 .02-.01.01-.02v-.02a.45.45 0 0 1-.2-.19.1.1 0 0 1 0-.1.28.28 0 0 1 .06-.08 1 1 0 0 1 .43-.26l-.02.06v.03l.02.03.08.01h.18l.1-.01a6.67 6.67 0 0 0 1.09-.25.14.14 0 0 0 .04-.05.1.1 0 0 0 .01-.06.12.12 0 0 0-.04-.06.74.74 0 0 0-.13-.09c-.01 0-.02 0-.01.01l.01.09c0 .03 0 .06-.03.08a.32.32 0 0 1-.14.11c-.01 0-.02 0 0 0a.45.45 0 0 0 .1-.16c.01-.07 0-.12-.06-.17-.04-.02-.1-.04-.2-.05a.89.89 0 0 0-.72.18.25.25 0 0 0-.1.08.71.71 0 0 1-.14.14.8.8 0 0 0-.18.02c-.04.01-.06 0-.09-.03-.06-.06-.05-.12.02-.18.2-.16.38-.3.53-.4.16-.1.33-.19.51-.26.16-.06.35-.11.56-.15A.3.3 0 0 0 9.1 6c.03-.04.05-.09.05-.15h.03c.54.02 1 .06 1.39.1.04 0 .08.01.13.04Z" fill="#FFF5F6"/><path d="m4.73 8.35-.3-1.13a2.96 2.96 0 0 1-.09-.41c.06.1.1.16.11.2.09.19.2.37.34.55.08.1.18.2.3.3.02.02.03.01.02-.02a1.35 1.35 0 0 1-.03-.4l.02-.02h.02l.27.13c.02.01.03 0 .04-.02a.57.57 0 0 0-.08-.34v-.03l.32.06.01-.02c-.05-.23-.03-.5.05-.8.01-.04.02-.04.03 0 .05.1.1.18.17.23h.02c.01 0 .02 0 .02-.02a3.11 3.11 0 0 0 .1-.36A4.09 4.09 0 0 0 6.09 6c.12.18.14.36.08.55a.76.76 0 0 1-.14.25c-.05.07-.12.13-.21.2a.02.02 0 0 0 0 .03l.15.18.03.07a.1.1 0 0 1-.06.1.17.17 0 0 1-.07.03l-.16.01-.01.01v.02l.05.15.02.16a.3.3 0 0 1-.14.27.42.42 0 0 1-.29.05c-.07 0-.17-.03-.28-.07a.98.98 0 0 0-.24-.04h-.04a.04.04 0 0 0 0 .04c0 .12 0 .23-.05.33Z" fill="#826158"/><path d="M11.7 6.68c0 .01 0 .02.03.02h-.04l-.02.02-.02.03c-.05.04-.06.09-.05.14 0 .04.03.09.07.13.12.11.26.16.42.15.07 0 .12-.03.15-.07.02 0 .04 0 .04-.03a.2.2 0 0 0 .01-.04l.03-.02.03.13a.2.2 0 0 1-.04.13v.01c.01.02.03.03.06.02l-.05.01h-.04c-.15-.01-.29-.05-.42-.11a8.7 8.7 0 0 1-.4-.25h.02v-.01c-.05-.08-.04-.16.02-.23l.02-.01.17-.02Z" fill="#41271F"/><path d="M8.55 6.74c.09.01.13.06.14.12 0 .03-.02.05-.06.04a12.05 12.05 0 0 1-.38-.08c-.03-.03-.03-.05 0-.08a.1.1 0 0 1 .1-.03l.2.03ZM12 6.8h.02v.01c-.01.03-.02.04-.04.05H11.92a.07.07 0 0 1-.04-.04.06.06 0 0 1 0-.05v-.01h.02l.1.04ZM8.1 6.77h.04v.02c.02.02.02.04.02.06 0 .02-.02.03-.04.04v.01a.08.08 0 0 1-.07.01.07.07 0 0 1-.04-.03L8 6.86v-.03l.1-.06ZM12.14 6.85c.06.04.1.09.14.14l.01.04a.2.2 0 0 1 0 .04c-.01.03-.03.03-.05.02a.64.64 0 0 1-.11-.09c-.05-.05-.07-.09-.06-.12 0-.02.03-.03.07-.03Z" fill="#FFF5F6"/><path d="M11.34 7.1a1.56 1.56 0 0 1-.35-.01l-.1-.01a2.3 2.3 0 0 1-.27-.05.56.56 0 0 0-.25 0l-.02.01a.1.1 0 0 0-.06.06.1.1 0 0 0 0 .06l.05.06.06.04.13.05-.15.04a2.13 2.13 0 0 0-.34.12 27.24 27.24 0 0 1-1.26.4c-.18.06-.33.13-.47.2-.34.16-.6.36-.8.6-.25.34-.41.72-.46 1.14a2.57 2.57 0 0 0 .84 2.2c.26.24.56.43.9.58a3.78 3.78 0 0 0 3.33-.18 2.83 2.83 0 0 0 .88-.9 3.1 3.1 0 0 0 .47-1.78c-.02-.42-.17-.79-.43-1.1A4.56 4.56 0 0 0 12.4 8c.05 0 .1 0 .16.05a3.42 3.42 0 0 1 .43.35l.12.08c.08.06.18.08.27.08l.02.02.14.27h.02v-.06l.15.29c.03.07.05.16.07.25a3.09 3.09 0 0 1 0 .72c-.07.15-.13.3-.17.47a4.52 4.52 0 0 1-.7 1.27c-.23.3-.5.57-.8.83-.5.44-1.1.68-1.78.72a3.3 3.3 0 0 1-1.87-.38 2.73 2.73 0 0 0-1.08-.29l-.26-.06a1.36 1.36 0 0 1-.48-.24c-.16-.13-.3-.3-.4-.48-.1-.17-.15-.28-.17-.34a5.62 5.62 0 0 0-.23-.53l.18-.4c.02-.04.05-.1.1-.16v-.01H6.1c-.04.02-.07.03-.1.01-.1-.04-.14-.11-.12-.21A.7.7 0 0 1 6 10a1.79 1.79 0 0 1 .64-.59c.05-.03.05-.04-.01-.02h-.07a.17.17 0 0 1-.07-.02c-.12-.08-.17-.2-.15-.33a.67.67 0 0 1 .07-.18l.1-.16a6.35 6.35 0 0 1 .56-.71c0 .02.03.03.07.02h.02c.1.04.22.05.35.04a8.4 8.4 0 0 0 .81-.3 2.54 2.54 0 0 1 .91-.25l.47-.06c.16-.03.31-.08.43-.13.07-.03.1-.08.07-.14a4.59 4.59 0 0 0-.04-.12c-.02-.04 0-.06.03-.07.16-.05.34-.06.53-.04a3.33 3.33 0 0 1 .63.16Z" fill="#E6D1CC"/><path d="M11.34 7.1c.09 0 .17.03.24.07v.02h-.02c-.01.06-.03.09-.06.1-.03.02-.07.02-.12 0l-.08-.02c-.1-.03-.18 0-.23.08l-.06-.01a.22.22 0 0 0-.13-.12.38.38 0 0 0-.08-.01h-.09a.97.97 0 0 1-.24-.04.22.22 0 0 1-.06-.03.11.11 0 0 1-.04-.05.55.55 0 0 0-.02-.05l.02-.01a.56.56 0 0 1 .25 0 2.3 2.3 0 0 0 .54.07h.18Z" fill="#C98C89"/><path d="M7.69 7.06c0 .04 0 .08.03.1.02.03.05.06.1.07v.01l-.01.01h-.04c-.1-.03-.14-.1-.12-.18v-.01l.02-.01h.02Z" fill="#FFF5F6"/><path d="m10.35 7.04.02.05.04.05.06.03a.62.62 0 0 0 .1.02l.14.01h.1l.07.02c.06.02.1.06.13.12h-.06l-.04-.04c-.04-.03-.06-.02-.04.04v.03l.02.05v.06h-.03a.6.6 0 0 0-.33-.17 1.15 1.15 0 0 0-.13-.05.16.16 0 0 1-.06-.04.16.16 0 0 1-.04-.06.1.1 0 0 1 0-.06.1.1 0 0 1 .05-.06Z" fill="#BC7573"/><path d="M11.37 7.21v.01h-.07a2.51 2.51 0 0 1-.31-.05v-.02l.1-.01h.21l.06.01a.01.01 0 0 1 .01.02v.04ZM11.7 7.45l-.13-.1c.04-.05.05-.1.02-.16v-.02l.04.02h.04c.04.03.06.07.06.12 0 .04 0 .09-.02.14Z" fill="#E6D1CC"/><path d="M11.59 7.2c.03.04.02.1-.02.16a.33.33 0 0 1-.12.06.63.63 0 0 0-.3.16h-.02l-.01-.01v-.02a.58.58 0 0 0 .04-.07.5.5 0 0 1 .03-.06.2.2 0 0 1 .05-.05v-.04c-.06 0-.1 0-.12.05a.05.05 0 0 0-.05-.03c.05-.08.13-.11.23-.08l.08.02c.05.02.09.02.12 0 .03-.01.05-.04.05-.1h.04Z" fill="#BC7573"/><path d="M10.95 7.35a.72.72 0 0 0-.03.2 1.64 1.64 0 0 1-.02.13h-.62a3.8 3.8 0 0 0-1.44.34c-.23.11-.44.24-.62.4a2.54 2.54 0 0 0-.82 1.26c-.18.65-.07 1.25.33 1.8.1.14.21.28.34.4l.2.16a3.46 3.46 0 0 0 2.55.72 3 3 0 0 0 1.24-.48l.23-.17c.26-.22.47-.47.63-.76a2.25 2.25 0 0 0-.16-2.61 2.92 2.92 0 0 0-1.13-.9 1.94 1.94 0 0 0-.56-.15v-.02l.05-.29c.02-.04.06-.06.11-.05l.02.02-.01.02a.2.2 0 0 0-.05.05l-.03.06a.58.58 0 0 1-.04.07v.02h.02a.63.63 0 0 1 .31-.15c.04 0 .07-.03.12-.06l.14.1c.22.2.45.38.7.54.24.2.45.4.63.62.26.32.4.7.43 1.11a2.96 2.96 0 0 1-.47 1.78 2.94 2.94 0 0 1-2.2 1.37 4.15 4.15 0 0 1-.96 0A3.78 3.78 0 0 1 7.89 12c-.32-.29-.55-.62-.7-1a2.57 2.57 0 0 1-.14-1.2c.05-.42.2-.8.47-1.14.19-.24.45-.44.79-.6a4.27 4.27 0 0 1 .95-.35 8.32 8.32 0 0 0 .98-.33c.04 0 .08-.02.15-.04.04 0 .09-.02.14-.04a.6.6 0 0 1 .33.17h.03v-.06c0-.01 0-.03-.02-.05v-.03c-.02-.06 0-.07.04-.04.02 0 .03.02.04.05Z" fill="#AD918B"/><path d="m11.01 7.34.06.01c.02 0 .04.01.05.03l-.05.3v.01l.02.01a2.44 2.44 0 0 1 1.03.42c.25.18.46.39.63.62 0 .13-.03.25-.07.36a.43.43 0 0 1-.08.14c-.1.12-.27.18-.52.19-.13 0-.27-.02-.43-.06l-.05-.02a7.39 7.39 0 0 0-.65-.13 1.97 1.97 0 0 0-.78.18l-.17.09-.49.25a3.2 3.2 0 0 1-.83.3 2.44 2.44 0 0 0-.74-.28 1.5 1.5 0 0 1-.18-.67.55.55 0 0 0-.03-.12c.13-.2.3-.39.49-.55a2.95 2.95 0 0 1 1.32-.64c.24-.06.48-.1.74-.1a6.05 6.05 0 0 1 .63-.01 1.7 1.7 0 0 0 .02-.22c0-.04 0-.07.02-.1l.06-.01Z" fill="#250E08"/><path d="M13.12 7.44a7.74 7.74 0 0 0 .18.42c.19.32.32.67.4 1.02.02.06.02.13.02.2l-.14-.29a2.94 2.94 0 0 0-.52-.74l.01-.02.07-.07v-.04l-.28-.27a.98.98 0 0 1 .07-.05.38.38 0 0 0 .07-.06l.12-.1Z" fill="#774C46"/><path d="M5.4 10.93A13.68 13.68 0 0 1 5 9.7c-.05-.19-.1-.49-.18-.9.07.01.13.02.18 0a.22.22 0 0 0 .15-.1.2.2 0 0 0 .03-.12.42.42 0 0 0-.04-.13c-.02-.03-.01-.03.02-.01.15.1.29.16.41.16.14 0 .26-.08.36-.23a233.6 233.6 0 0 1 .3-.49c.03-.02.04-.02.03.01l-.06.34c-.07.35-.18.68-.34 1-.01.02-.01.04.01.06v.02a1.97 1.97 0 0 0-.4 1.08c0 .06.03.1.11.1l.01.01v.02c-.02.15-.09.29-.19.41Z" fill="#683B36"/><path d="M12.75 8.74a2.25 2.25 0 0 1 .17 2.61v-.2l.01-.15a1.01 1.01 0 0 0-.12-.39l-.02-.02h-.02a.56.56 0 0 0-.2.08 26.96 26.96 0 0 0-.74.5l-.51.3c-.4.19-.82.25-1.24.18a2.6 2.6 0 0 1-.7-.2 4.18 4.18 0 0 1-.67-.38c-.18-.13-.4-.29-.63-.48a.86.86 0 0 0-.22-.14h-.03l-.02.02c-.04.08-.06.18-.08.3a3.3 3.3 0 0 0-.02.52l.02.2c-.4-.56-.5-1.16-.33-1.8.07-.26.18-.5.33-.72l.03.12a1.48 1.48 0 0 1 .02.17c.01.15.07.31.16.5l.01.01a2.44 2.44 0 0 1 .76.27c.28-.07.55-.17.8-.3l.49-.25.17-.1a1.97 1.97 0 0 1 .78-.17 7.39 7.39 0 0 1 .7.15c.16.04.3.06.43.06.25-.01.42-.07.52-.19a.43.43 0 0 0 .08-.14c.04-.1.06-.23.07-.36Z" fill="#3C1A18"/><path d="M13.78 10.05c.01.05.02.1 0 .15a5.83 5.83 0 0 0-.08.57 3.48 3.48 0 0 1-.89 1.73 4.18 4.18 0 0 1-2.92 1.32c-.44.01-.87-.02-1.3-.1a4.33 4.33 0 0 1-1.87-.87 4 4 0 0 1-1.16-1.55.58.58 0 0 0 .29-.28c.09.18.16.35.23.53l.17.34c.1.19.24.35.4.48.13.1.3.18.48.24a2.82 2.82 0 0 0 .53.1 12.95 12.95 0 0 1 .5.12c.1.03.2.08.31.13a3.3 3.3 0 0 0 1.87.38 2.94 2.94 0 0 0 1.79-.72c.3-.26.56-.54.8-.83a4.52 4.52 0 0 0 .69-1.27c.04-.16.1-.32.16-.47Z" fill="#CBB2AD"/><path d="M12.92 11.35c-.16.29-.37.54-.63.76l.06-.15a.6.6 0 0 0 .06-.1c.02-.06.03-.1.03-.16a.23.23 0 0 0-.05-.15c-.05-.07-.11-.1-.17-.1a3.86 3.86 0 0 1-1.19.49 3.08 3.08 0 0 1-2.2-.24 7.03 7.03 0 0 1-.6-.33l-.09-.05A.21.21 0 0 0 8 11.3a.12.12 0 0 0-.1.09.28.28 0 0 0 .01.14.53.53 0 0 0 .09.18l.04.08c.02.03.03.06.03.1a2.52 2.52 0 0 1-.34-.4l-.02-.2a3.3 3.3 0 0 1 .01-.52c.02-.12.05-.22.1-.3l.01-.02h.03c.08.03.15.08.22.14.24.2.45.35.63.48.2.15.43.27.67.38.2.1.44.17.7.2.42.07.84 0 1.24-.19a5.04 5.04 0 0 0 .99-.6l.26-.19a.55.55 0 0 1 .2-.08h.02l.02.02c.07.12.1.25.12.39v.15a.77.77 0 0 0-.01.2Z" fill="#4E1E1E"/><path d="m12.29 12.1-.23.18a.35.35 0 0 0-.03-.04c-.03-.04-.1-.05-.18-.05a1.45 1.45 0 0 0-.29.06l-.27.05c-.32.04-.64.08-.95.1-.38.04-.72.03-1.05-.02-.28-.04-.5-.1-.67-.19a2.48 2.48 0 0 0-.36-.15l-.19-.15a.29.29 0 0 0-.03-.1.82.82 0 0 0-.07-.12.53.53 0 0 1-.06-.14.28.28 0 0 1 0-.14.12.12 0 0 1 .1-.1.21.21 0 0 1 .14.02l.08.06a21.83 21.83 0 0 0 .6.33 3.08 3.08 0 0 0 2.2.25 3.86 3.86 0 0 0 1.06-.45c.05-.03.1-.04.13-.04.06 0 .12.02.17.1.03.03.05.08.05.14a.43.43 0 0 1-.09.26.46.46 0 0 0-.06.15Z" fill="#683B36"/><path d="m12.06 12.28-.18.12a3 3 0 0 1-1.82.38 3.46 3.46 0 0 1-1.8-.74l.36.15c.16.09.39.15.67.2.33.04.67.05 1.05.02a18.8 18.8 0 0 0 1.52-.21c.08-.01.14 0 .17.04l.03.04Z" fill="#7E4140"/></svg>