<!-- by TradingView --><svg width="18" height="18" viewBox="0 0 18 18" xmlns="http://www.w3.org/2000/svg"><path fill="#2D8EFF" d="M0 0h18v18H0z"/><path d="M7 10h1.29C9.32 10 10 9.1 10 8.1c0-1-.56-2.1-1.71-2.1H6v6h1v-2Zm0-3h1.15c.31.02.85.25.85 1s-.52 1-.82 1H7V7Z" fill="#fff"/><path d="M4 4.57v8.86c0 .3.26.57.57.57h8.86c.3 0 .57-.26.57-.57V4.57a.58.58 0 0 0-.57-.57H4.57a.58.58 0 0 0-.57.57ZM12.25 13H5.74c-.3 0-.74-.44-.74-.75V5.74c0-.31.43-.74.74-.74h6.5c.32 0 .76.43.76.74v6.5c0 .32-.44.76-.75.76Z" fill="#fff"/><path d="M12 11H8v1h4v-1Z" fill="#fff"/></svg>