<!-- by TradingView --><svg width="18" height="18" xmlns="http://www.w3.org/2000/svg"><path fill="#38A6FA" d="M0 0h18v18H0z"/><path d="M12 11.766c0 .175-.132.234-.287.234H6.985c-.26 0-.333-.295-.333-.485 0-.016.005-.209.132-.479.212-.444.7-.986 1.265-1.208.812-.303 1.982-.54 2.646-1.193.48-.46.79-1.142.805-1.84.246.198.5.456.5.841v4.13zm-1.5-4.971c0 .35-.171.762-.398 1-.537.557-1.466.686-2.134.936-1.032.381-1.542.879-1.782 1.37-.043.096-.085.191-.113.286 0 .016-.073.016-.073.032V7.62c0-.349.299-.555.341-.587l2.39-1.818c.268-.206.55 0 .55 0l1.219.834v.746zm2.5 4.618V7.636c0-.174-.042-1.047-.763-1.587l-.737-.546V4.288c0-.19-.265-.288-.42-.288h-.165c-.17 0-.415.097-.415.288v.42l-.624-.42c-.438-.318-1.13-.445-1.738 0L5.763 6.033C5.622 6.128 5 6.653 5 7.62v3.777c0 .365.07.667.226.92.113.207.283.366.48.477.354.19.693.206.707.206h5.188c.014 0 .353 0 .706-.206.212-.111.368-.27.495-.476.127-.238.198-.54.198-.905z" fill="#fff"/></svg>