<!-- by TradingView --><svg width="18" height="18" viewBox="0 0 18 18" xmlns="http://www.w3.org/2000/svg"><path fill="#F0F3FA" d="M0 0h18v18H0z"/><path d="M8.5 5.08a3.8 3.8 0 0 0-2.1 1.34c-.23.32-.37.75-1.2 3.6A58.14 58.14 0 0 1 4 13.88c.03.12.1.13.84.12 1.02-.01 1.25-.06 1.48-.28.3-.3.41-.58.86-2.2.62-2.26 1-3.44 1.22-3.72.4-.51 1.13-.8 2.08-.8.8 0 .8.17.28 1.92-.23.78-.96 1.27-2 1.35a1.9 1.9 0 0 0-.58.1c-.11.1-.1.7.01.93.34.64 1.17.76 1.86.77 1.17.03 2.04-.52 2.63-1.73.4-.83.53-1.25.77-2.63.12-.7.31-1.55.43-1.9.06-.16.1-.32.12-.47.03-.18-.13-.34-.32-.34h-2.31s-2.55 0-2.87.08Z" fill="url(#aitsf0t15)"/><defs><linearGradient id="aitsf0t15" x1="4.17" y1="13.24" x2="14.69" y2="11.03" gradientUnits="userSpaceOnUse"><stop stop-color="#FD8C30"/><stop offset=".54" stop-color="#C720B6"/><stop offset=".8" stop-color="#9246E2"/><stop offset="1" stop-color="#6966FF"/></linearGradient></defs></svg>