<!-- by TradingView --><svg xmlns="http://www.w3.org/2000/svg" width="18" height="18"><path fill="#F0F3FA" d="M0 0h18v18H0z"/><path d="M8.98 12H5.34c-.11-.01-.34-.19-.34-.5s.27-.5.4-.5c.6 0 .6-.27.6-.5V8.1c0-1.48 1.57-2.18 2.22-2.34 0-.57.48-.74.76-.76h.04c.28.02.76.19.76.76.65.16 2.22.86 2.22 2.35v2.39c0 .23 0 .5.6.5.13 0 .4.19.4.5s-.23.49-.34.5H8.98zM9 14.5A1.5 1.5 0 017.5 13h3c0 .83-.67 1.5-1.5 1.5z" fill="url(#azi4fcgtx)"/><path d="M5.34 12h7.32c.11-.01.34-.19.34-.5s-.27-.5-.4-.5c-.6 0-.6-.27-.6-.5V8.1c0-1.48-1.57-2.18-2.22-2.34 0-.57-.48-.74-.76-.76a.74.74 0 00-.04 0c-.28.02-.76.19-.76.76C7.57 5.92 6 6.62 6 8.11v2.39c0 .23 0 .5-.6.5-.13 0-.4.19-.4.5s.23.49.34.5z" fill="url(#bzi4fcgtx)"/><path d="M11.55 4.24c.02-.15.15-.26.29-.24.69.12 2.18.8 2.65 2.64.04.15-.04.3-.17.35-.14.04-.28-.04-.31-.2a3 3 0 00-2.25-2.23c-.13-.02-.23-.17-.2-.32zm-5.1 0c-.02-.15-.15-.26-.29-.24-.69.12-2.18.8-2.65 2.64-.04.15.04.3.17.35.14.04.28-.04.31-.2a3 3 0 012.25-2.23c.13-.02.23-.17.2-.32z" fill="#34C5F2"/><defs><linearGradient id="azi4fcgtx" x1="5.31" y1="11.98" x2="10.76" y2="11.98" gradientUnits="userSpaceOnUse"><stop stop-color="#E20882"/><stop offset="1" stop-color="#664DA0"/></linearGradient><linearGradient id="bzi4fcgtx" x1="9" y1="7.1" x2="9" y2="12" gradientUnits="userSpaceOnUse"><stop stop-color="#34C5F2"/><stop offset=".82" stop-color="#34C5F2" stop-opacity="0"/></linearGradient></defs></svg>