<!-- by TradingView --><svg width="18" height="18" viewBox="0 0 18 18" xmlns="http://www.w3.org/2000/svg"><path fill="#0A1720" d="M0 0h18v18H0z"/><path d="M8.97 4C11.74 3.99 14 6.11 14 8.73c0 1.63-.87 3.12-2.33 3.99v.69h1.7v-1.09H14V14h-2.96v-1.3c0-.2.11-.38.3-.49a4.05 4.05 0 0 0 2.02-3.63c-.07-2.21-2.04-4-4.39-3.98a4.26 4.26 0 0 0-4.34 4.13c0 1.42.76 2.72 2.04 3.48.18.11.29.3.29.5V14H4v-1.68h.64v1.09h1.68v-.7a4.64 4.64 0 0 1-2.3-4.3A4.92 4.92 0 0 1 8.96 4Zm2.23 6.96c.64 0 .93-.23 1.07-.45.25-.42.07-.97-.54-1.63a8.7 8.7 0 0 0-1.2-1.09l-.1-.6.3-.05c.58-.1.91-.02.99.1.05.08.01.25-.1.47-.1.19-.2.29-.23.32.18.15.35.31.45.42.06-.05.2-.2.34-.47.22-.41.25-.76.09-1.04-.17-.28-.6-.57-1.65-.4l-.33.07c-.26-.85-.7-1.45-1.29-1.45-.35 0-.84.2-1.21 1.22a17.39 17.39 0 0 0-.36 1.53l-.55.4c-.5-.48-.7-.9-.6-1.07.06-.1.27-.19.57-.15l.34.06.15-.58-.4-.07c-.53-.07-1 .1-1.2.44-.3.5.03 1.15.68 1.79-.08.07-.16.15-.22.23-.7.78-.64 1.27-.47 1.55.19.3.58.46 1.1.46.35 0 .75-.07 1.2-.22a30 30 0 0 0 .96-.35c.24.1.47.19.7.26-.2.65-.48 1.03-.69 1.03-.17 0-.37-.23-.53-.6L8.44 11c-.21.08-.43.14-.6.19l.04.1c.35.82.8.99 1.12.99.6 0 1.03-.6 1.3-1.45a5.25 5.25 0 0 0 .9.12ZM8.24 7.08c.06-.27.15-.51.15-.51.2-.56.45-.81.61-.81.21 0 .49.38.68 1.03-.47.16-.97.38-1.47.65l-.06.03.1-.39Zm-.42 3.1c-.88.3-1.44.2-1.54.03-.07-.12.02-.44.4-.87l.2-.2c.4.31.85.61 1.33.87l.04.02-.43.16Zm.7-.68a8.4 8.4 0 0 1-1.17-.78 8.51 8.51 0 0 1 2.47-1.35 7.45 7.45 0 0 1 0 2.7 8.68 8.68 0 0 1-1.3-.57Zm2.05-.89c.23.2.47.44.68.66.47.5.55.81.47.94-.08.12-.41.2-1 .1l-.29-.06c.1-.48.15-1 .15-1.53v-.11ZM9 8.13a.61.61 0 0 0-.63.6c0 .32.28.59.63.59s.63-.27.63-.6c0-.32-.28-.59-.63-.59Z" fill="#FFA729"/></svg>