<!-- by TradingView --><svg width="18" height="18" fill="none" xmlns="http://www.w3.org/2000/svg"><path fill="#43A1FF" d="M0 0h18v18H0z"/><path fill-rule="evenodd" clip-rule="evenodd" d="M12.594 5.961a.904.904 0 00-.842-.96.9.9 0 00-.948.853c-.053.915-.444 1.795-1.05 2.568L8.211 6.875c.25-.425.42-.9.48-1.403.032-.26-.184-.472-.446-.472H5.478A.479.479 0 005 5.479v2.773c0 .262.211.479.47.447a3.61 3.61 0 001.421-.494L8.403 9.72c-.88.647-1.838 1.048-2.61 1.147a.905.905 0 00-.778 1.013c.062.497.51.85 1.001.788 1.2-.153 2.534-.761 3.675-1.657l1.711 1.714a.935.935 0 001.324 0 .939.939 0 000-1.326l-1.692-1.695c.85-1.032 1.476-2.307 1.56-3.743z" fill="#fff"/></svg>