<!-- by TradingView --><svg width="18" height="18" viewBox="0 0 18 18" xmlns="http://www.w3.org/2000/svg"><path fill="url(#auisbjch4)" d="M0 0h18v18H0z"/><circle cx="9" cy="9" r="5.3" fill="url(#buisbjch4)"/><path d="M5.33 8.07c.09.4.47.84.65 1.01 1.9.09 5.78.21 6.02 0a3 3 0 0 0 .57-.8 2.07 2.07 0 0 0-.5-2.23l-.47-.3c.08-.07.24-.32.24-.8 0-.59-1.58-1.26-2.8-1.26-1.2 0-2.44.19-2.74.76-.24.46-.06 1.06.05 1.3l-.37.3c-.69.44-.75 1.52-.65 2.02Z"/><path d="M5.97 9.09v.44l-.18.06-.18.03h-.16l-.15-.1-.11-.16v.1l.03.2.1.22-.1.1-.1.11-.07.23v.16l.14-.08.13.03.1.09-.08.08-.09.14-.08.2-.03.15.03.06.28-.22.04.08-.04.18-.1.19.22-.15v.15l-.08.4-.1.35-.16.27.28-.2-.02.17.06.26.1.18v-.08l.15-.25.26-.29v.11l.05.25.12.28.07-.24.12-.11.15.3.2.29.06-.24.06.11.16.13.04-.18.2.27v-.27l.1.18.06-.13 3.05.1.06.1.1-.15.02.15h.06l.15-.2.09.22.18-.26.1.24.1-.13.15-.27.05-.25.03.05.1.2v.2l.05-.04.13-.26.02-.17v-.3l.1.09.2.26.06.2.07.12.12-.16.08-.3-.05-.22.12.07.15.04-.09-.1-.17-.4-.06-.38v-.18l.2.13-.09-.39.03-.01.17.17.13.14-.05-.36-.08-.19-.13-.18.05-.08h.1l.2.02v-.1l-.12-.32-.13-.11.06-.12.04-.27-.04-.18-.12.16-.2.1-.25-.03-.15-.05-.03-.08-.03-.46-.17-.5-.27-.41-.28-.23-.19-.07-.03-.07-.28-.6-.28-.27-.32-.1-.28.02-.29.2-.15.24h-.91l-.1-.2-.23-.2-.3-.07-.29.07-.33.26-.25.41-.1.3-.47.23-.3.42-.2.66Z" fill="#FFFFFB"/><path d="m7.5 12.94-.25-.28-.09.14-.21-.21v.25l-.14-.2-.1.2-.25-.54-.22.18-.1-.52-.47.48a.59.59 0 0 1 0-.4l-.16.04c.09-.19.25-.68.21-1.12l-.12.09-.06-.34-.2.16c.02-.09.11-.28.26-.36-.05-.1-.19-.29-.4-.21-.02-.08 0-.24.2-.23l.2.02-.2-.3c.14.05.49.1.7-.09.22-.19.37-.45.41-.56-.08.08-.26.25-.37.26-.14.02.25-.96.45-1.13l.14.35c.22-.58.76-1.75 1.16-1.75.4 0 .61.46.67.7 0-.07.05-.2.2-.2h.48c.06 0 .18.03.13.17.09-.22.35-.67.68-.67.42 0 .7.5.81.75l.5 1a1.3 1.3 0 0 0 0-.46c.15.15.48.63.54 1.36a8.9 8.9 0 0 1-.34-.31c.1.16.33.52.54.64.21.12.38.02.43-.05l-.08.29c.08-.02.28 0 .36.22l-.36.07.2.42-.2-.11-.04.35-.16-.16.08.72.12.4-.16-.03c.02.07.04.25.05.4l-.46-.4-.06-.02-.09.47-.2-.15-.18.46-.14-.14-.15.25-.1-.2-.16.16-.03-.21c-.2.11-.55.32-.71.43l.44.01.06.11.1-.15.02.15h.06l.15-.2.09.22.18-.26.1.24.1-.13.15-.27.05-.25.03.05.1.2v.2l.05-.04.13-.26.02-.17v-.3l.1.09.2.26.06.2.07.12.12-.16.08-.3-.05-.22.12.07.15.04-.09-.1-.17-.4-.06-.38v-.18l.2.13-.09-.39.03-.01.17.17.13.14-.05-.36-.08-.19-.13-.18.05-.08h.1l.2.02v-.1l-.12-.32-.13-.11.06-.12.04-.27-.04-.18-.12.16-.2.1-.25-.03-.15-.05-.03-.08-.03-.46-.17-.5-.27-.41-.28-.23-.19-.07-.03-.07-.28-.6-.28-.27-.32-.1-.28.02-.29.2-.15.24h-.91l-.1-.2-.23-.2-.3-.07-.29.07-.33.26-.25.41-.1.3-.47.23-.3.42-.2.66v.44l-.17.06-.18.03h-.16l-.15-.1-.11-.16v.1l.03.2.1.22-.1.1-.1.11-.07.23v.16l.14-.08.13.03.1.09-.08.08-.09.14-.08.2-.03.15.03.06.28-.22.04.08-.04.18-.1.19.22-.15v.15l-.08.4-.1.35-.16.27.28-.2-.02.17.06.26.1.18v-.08l.15-.25.26-.29v.11l.05.25.12.28.07-.24.12-.11.15.3.2.29.06-.24.06.11.16.13.04-.18.2.27v-.27l.1.18.06-.13h.05Z" fill="#C5E2E9"/><path d="M8.99 13.55c-.84 0-1.33-.96-1.47-1.43l1.36-.36h.3l1.23.36c-.12.47-.58 1.43-1.42 1.43Z" fill="#E12617"/><path d="m8.44 12.01-.64.28c.1.37.5 1.1 1.2 1.1s1.11-.75 1.24-1.13l-.7-.25c-.07.34-.39.87-.54 1.09a3.34 3.34 0 0 1-.56-1.09Z" fill="#F95A23"/><path d="m8.79 12.36-.29-.56.5-.04.47.08-.26.55-.2.54-.22-.57Z" fill="#E49CC2"/><path d="M9.04 13.95c-1.26 0-1.75-1.2-1.84-1.8l.33-.05c.16.48.67 1.46 1.49 1.46.81 0 1.27-.98 1.4-1.46l.4.05c-.07.6-.62 1.8-1.78 1.8Z" fill="#F9CD0C"/><path d="M8.33 13.8a1.7 1.7 0 0 0 1.43-.02l-.65.02h-.78Zm1.75-.25c.46-.4.7-1.02.74-1.4l-.14-.02c-.07.35-.37.99-.6 1.42Zm-2.76-1.42-.12.02c.05.33.22.84.57 1.24-.14-.35-.33-.9-.45-1.26Z" fill="#EA9916"/><path d="M6.28 10.33c0 .47.3.78.45.87-.27.05-.4.38-.42.54-.03.13.06.4.6.4.52 0 .85-.1.95-.14.32-.08 1-.26 1.15-.26.2 0 .87.15 1.23.3.3.13.66.14.8.12.2-.03.62-.16.64-.42 0-.26-.27-.48-.41-.56l.28-.33c.07-.13.19-.46.14-.76-.05-.36-.2-.75-.43-.75-.18 0-.28.26-.3.4l-.07.49c0 .43-.14.55-.21.56l-.12-.07-.12.07-.25.1h-.2l-.7-.17-.15-.28v-.25l.05-.1h-.35l.03.05v.3l-.12.22-.86.27a.76.76 0 0 1-.44-.21l-.05.08h-.12l-.08-.08-.05-.32-.07-.53c-.04-.18-.15-.53-.35-.53-.24 0-.45.4-.45 1Z" fill="#EA9916"/><path d="M6.42 10.29c0-.6.21-.72.31-.7.21 0 .11.33.24.9.14.55.36.46.51.46.12 0 .15.12.15.18.18-.09.7-.26 1.34-.26.64 0 1.26.17 1.5.26-.04-.06-.06-.17.06-.18a.7.7 0 0 0 .43-.23c.1-.12.09-1.2.36-1.16.27.03.2 1.04 0 1.3a.79.79 0 0 1-.53.3c.15.08.49.26.65.4.2.18-.04.42-.57.42-.53 0-1.53-.45-1.9-.45-.37 0-1.37.4-1.61.45-.24.05-.84.08-.84-.28 0-.28.46-.5.69-.57-.35-.03-.79-.1-.79-.84Z" fill="#FED00B"/><path d="M7.9 10.91c-.46-.08-.58-.38-.58-.52 0-.15.2-.65.83-.65.5 0 .7.33.73.5 0 .27-.1.42-.15.47l-.22.04-.62.16Z" fill="#9BD9EE"/><path d="M7.32 10.39c0 .14.12.44.57.52l.62-.16.22-.04c.05-.05.15-.2.15-.48a.6.6 0 0 0-.22-.34c.03.16.07.4.02.56-.08.24-.35.33-.8.32-.3-.01-.46-.32-.51-.56a.48.48 0 0 0-.05.18Z" fill="#57A3B0"/><path d="M10.12 10.91c.45-.08.57-.38.57-.52 0-.15-.2-.65-.83-.65-.5 0-.7.33-.72.5 0 .27.1.42.14.47l.22.04.62.16Z" fill="#9BD9EE"/><path d="M10.7 10.39c0 .14-.13.44-.58.52l-.62-.16-.22-.04c-.05-.05-.14-.2-.14-.48a.6.6 0 0 1 .22-.34c-.04.16-.08.4-.03.56.08.24.35.33.81.32.3-.01.45-.32.5-.56.04.07.05.14.05.18Z" fill="#57A3B0"/><path d="M7.09 9.02c0 .5.17.99.25 1.17.06-.14.35-.46.73-.46.3 0 .5.08.56.12.05-.2.13-.66.13-1 0-.42-.13-1.26-.74-1.26-.6 0-.93.8-.93 1.43Z" fill="#C7E7F6"/><path d="M7.47 10.02a3.5 3.5 0 0 1-.2-1.16c0-.56.47-1.04.77-1.27h-.02c-.6 0-.93.8-.93 1.43 0 .5.17.99.25 1.17a.7.7 0 0 1 .13-.17Z" fill="#90D6DE"/><path d="M10.9 9.02c0 .5-.16.99-.25 1.17-.06-.14-.35-.46-.73-.46-.3 0-.5.08-.56.12-.04-.2-.13-.66-.13-1 0-.42.13-1.26.74-1.26.6 0 .93.8.93 1.43Z" fill="#C7E7F6"/><path d="M10.53 10.02c.09-.26.2-.68.2-1.16 0-.56-.48-1.04-.78-1.27h.02c.6 0 .93.8.93 1.43 0 .5-.16.99-.25 1.17a.7.7 0 0 0-.12-.17Z" fill="#90D6DE"/><path d="M7.2 5.89c-.23-.1-.56-.1-.7-.1a.93.93 0 0 1 .8 0c.5.23 1.52.68 1.69.68.2 0 1.17-.41 1.61-.62.45-.2.8-.06.84-.05-.17-.03-.47.05-.6.09-.59.27-1.79.81-1.85.81-.09 0-1.51-.68-1.8-.81Z" fill="#577BB7"/><path d="M8.17 5.13c0-.55-.28-1.11-.42-1.32.67-.26 1.9-.1 2.43 0a4.4 4.4 0 0 0-.39 1.32 4.15 4.15 0 0 0-1.62 0Z" fill="#4F78BA"/><path d="m7.4 5.78-.33-.15c.24-.16.96-.48 1.9-.48.96 0 1.7.32 1.94.48l-.35.15c-.09-.11-.2-.2-.25-.23a1.73 1.73 0 0 0-.58-.19c-.16 0-.23.1-.24.14-.07.14-.17.62-.22.84l-.3.08-.28-.08c0-.19-.14-.63-.22-.84-.06-.17-.19-.16-.24-.14-.14.04-.43.13-.54.19-.1.06-.24.18-.3.23Z" fill="#E82B25"/><path d="M7.69 10.6c.05-.18.19-.6.35-.77-.07.2-.24.64-.35.78Zm.7-.7c-.08.1-.25.34-.36.61.13-.16.34-.46.36-.6Zm.2.17c-.09.08-.3.28-.47.53.16-.13.43-.39.47-.53ZM10.33 10.6c-.05-.18-.19-.6-.35-.77.07.2.23.64.35.78Zm-.7-.7c.08.1.25.34.36.61a2.08 2.08 0 0 1-.36-.6Zm-.2.17c.09.08.3.28.46.53-.15-.13-.42-.39-.46-.53Z"/><path d="M7.69 10.6c.05-.18.19-.6.35-.77-.07.2-.24.64-.35.78Zm.7-.7c-.08.1-.25.34-.36.61.13-.16.34-.46.36-.6Zm.2.17c-.09.08-.3.28-.47.53.16-.13.43-.39.47-.53Z"/><path fill-rule="evenodd" d="M7.87 8c.02 0 .04 0 .04.03v.24h.08c.11 0 .2.09.24.16v.04a.04.04 0 0 1-.05 0 .29.29 0 0 0-.2-.14H7.9l-.01.74h.06a.54.54 0 0 1 .28.1c.02.02.05.04.05.07v.04c0 .02-.01.03-.03.04a.3.3 0 0 1-.12.04l-.25.02v.21c0 .02-.02.04-.04.04a.03.03 0 0 1-.03-.04v-.21l-.23-.01a.03.03 0 0 1-.04-.04c0-.01.02-.03.04-.03l.23.01v-.18a.7.7 0 0 1-.06-.02.5.5 0 0 1-.19-.1.27.27 0 0 1-.09-.21c0-.09.04-.18.12-.3a.6.6 0 0 1 .24-.2v-.27c0-.02.02-.04.04-.04Zm-.22.54a.59.59 0 0 1 .18-.17l-.01.69-.04-.01a.42.42 0 0 1-.17-.1.2.2 0 0 1-.07-.15c0-.07.03-.15.11-.26Zm.23.77v-.17a.6.6 0 0 0 .07 0 .47.47 0 0 1 .24.08l.03.04H8.2a.23.23 0 0 1-.09.03l-.24.02Zm2.2-1.28a.03.03 0 0 0-.03-.04.03.03 0 0 0-.04.04v.26a.6.6 0 0 0-.24.2.54.54 0 0 0-.12.31c0 .09.03.16.09.2a.5.5 0 0 0 .19.11l.06.02v.18h-.23a.03.03 0 0 0-.04.02c0 .02.01.04.03.04h.23v.22c0 .02.02.04.04.04.01 0 .03-.02.03-.04v-.21c.12 0 .2 0 .26-.02a.3.3 0 0 0 .12-.04.09.09 0 0 0 .03-.04v-.04a.14.14 0 0 0-.05-.07.54.54 0 0 0-.28-.1h-.07l.01-.73h.08c.09 0 .16.06.2.12.01.02.03.02.05.01a.03.03 0 0 0 0-.04.36.36 0 0 0-.24-.16.3.3 0 0 0-.08 0v-.24Zm-.08.34a.59.59 0 0 0-.17.17c-.08.1-.11.2-.11.26 0 .07.02.12.06.16a.42.42 0 0 0 .21.1l.01-.7Zm.06.77v.17c.1 0 .18 0 .24-.02.05 0 .07-.02.08-.02l.01-.01c0-.01 0-.02-.03-.04a.47.47 0 0 0-.24-.08.6.6 0 0 1-.06 0Z" fill="#60AC5B"/><path fill-rule="evenodd" d="M9 15A6 6 0 1 0 9 3a6 6 0 0 0 0 12Zm0-1A5 5 0 1 0 9 4a5 5 0 0 0 0 10Z" fill="url(#cuisbjch4)"/><defs><linearGradient id="auisbjch4" x1="3.35" y1="3.12" x2="21.9" y2="24.43" gradientUnits="userSpaceOnUse"><stop stop-color="#1A1E21"/><stop offset="1" stop-color="#06060A"/></linearGradient><linearGradient id="buisbjch4" x1="9" y1="3.7" x2="9" y2="14.3" gradientUnits="userSpaceOnUse"><stop offset=".13" stop-color="#F2DBA7"/><stop offset=".28" stop-color="#EABF72"/><stop offset=".41" stop-color="#C89C50"/><stop offset=".49" stop-color="#CFA561"/><stop offset=".6" stop-color="#DEBA74"/><stop offset=".69" stop-color="#F2D488"/><stop offset=".83" stop-color="#C68E3B"/><stop offset=".92" stop-color="#E8B561"/><stop offset="1" stop-color="#DFAE55"/></linearGradient><linearGradient id="cuisbjch4" x1="13.71" y1="4.02" x2="4.45" y2="13.64" gradientUnits="userSpaceOnUse"><stop stop-color="#F8F375"/><stop offset=".46" stop-color="#AA7529"/><stop offset="1" stop-color="#F0C65A"/></linearGradient></defs></svg>