<!-- by TradingView --><svg width="18" height="18" viewBox="0 0 18 18" xmlns="http://www.w3.org/2000/svg"><path fill="#F0F3FA" d="M0 0h18v18H0z"/><path d="M13.89 10.3a4.71 4.71 0 0 0-2.92-5.33c-.1.19-.3.4-.4.5h.3c-.12.35-.98.83-1.4 1.03l-.31.59a4.9 4.9 0 0 0 1.09-.59c1.5 0 2.7 1.08 3.13 1.62-.38-.24-1-.6-1.26-.74l.16.3c-.62-.24-1.4-.4-1.72-.44a4.79 4.79 0 0 1 3.33 3.06Zm-2.4 3.08c-.74.4-1.58.62-2.49.62-2.76 0-5-2.1-5-4.7s2.24-4.71 5-4.71c.58 0 1.13.09 1.64.26-.2.28-.58.76-1.02 1.06-.05-.15-.18-.44-.3-.44-.11.15-.41.47-.79.59-.47.15-1.25.44-1.25.88 0 .35.21.44.31.44 0 .05-.06.12-.3 0-.11.15-.42.44-.79.44-.38 0-.36-.3-.31-.44-.37.25-1 .94-.63 1.77.52-.44 2-1.18 3.75-.6 0-.19-.12-.6-.62-.73.78-.1 2.6.18 3.6 2.06.71 1.36.01 2.65-.8 3.5Z" fill="url(#akfo1mw1y)"/><path d="M5.8 8.97c.13.25.46.54 1.17.62-.05-.05-.16-.18-.16-.3 0-.14.16-.44.94-.44.78 0 1.88.15 1.88 1.03s-.94 1.77-2.35 1.77c-1.25 0-2.74-1.16-3.28-2.24C4.07 11.95 6.28 14 9 14c.9 0 1.75-.23 2.49-.62.81-.85 1.51-2.14.8-3.5a3.72 3.72 0 0 0-3.6-2.06c.5.12.62.54.62.74a4.11 4.11 0 0 0-3.51.41ZM12.1 7.93c-.42-.3-.94-.55-1.54-.7.32.05 1.1.21 1.72.45l-.15-.3c.26.15.87.5 1.25.74-.42-.16-.9-.2-1.27-.19ZM11.5 4c.13 1.53-1.56 2.75-2.34 3.09l.3-.59c.63-.24 1.2-.78 1.41-1.03h-.3c.3-.3.83-1.13.93-1.47Z" fill="#161F42"/><path d="M5.73 12.85c.54.3 1.32.56 2.33.56 2.19 0 2.97-1.76 2.97-2.35 0-.47-.1-.69-.15-.74-.13.47-.58.69-.79.74.32-2.06-1.56-2.2-2.34-2.2-.78 0-.94.29-.94.43 0 .12.1.25.16.3A1.9 1.9 0 0 1 5.72 9c1.87-1.03 3.12-.59 3.75-.15-.06-.37-.44-.64-.63-.73 2.2.14 3.44 1.32 3.44 2.94 0 1.2-.44 1.93-.71 2.27a5.21 5.21 0 0 1-5.84-.48Z" fill="#262F71"/><path d="M6.19 7.97c-.13 0-.26.2-.32.3.25-.12.42-.05.47 0 0-.1-.03-.3-.15-.3ZM8.06 6.8a.52.52 0 0 0-.31.44c.88 0 1.2-.6 1.25-.89-.16.3-.63.3-.94.44Z" fill="#478DCC"/><path d="M8.31 7.14c.46-.18.65-.57.69-.79-.07.14-.22.22-.39.27-.06.17-.16.37-.3.52Z" fill="#161F42"/><defs><linearGradient id="akfo1mw1y" x1="6.34" y1="5.32" x2="11.22" y2="13.1" gradientUnits="userSpaceOnUse"><stop stop-color="#428ACA"/><stop offset=".08" stop-color="#7EA6D8"/><stop offset=".17" stop-color="#5391CD"/><stop offset=".62" stop-color="#418ACA"/></linearGradient></defs></svg>