<!-- by TradingView --><svg xmlns="http://www.w3.org/2000/svg" width="18" height="18" viewBox="0 0 18 18"><path fill="url(#a5grzgi1t)" d="M0 0h18v18H0z"/><path d="M4.02 8.49a5.37 5.37 0 0 1 6.06-4.84c.42.08.88.47.88.98 0 .52-.47.98-.98 1-.18 0-.36 0-.53-.02-.3-.02-.6-.04-.9.03-.74.17-1.4.59-1.88 1.19A3.48 3.48 0 0 0 7 11.51a3.37 3.37 0 0 0 2.77.9 2.03 2.03 0 0 1 .12-2.67 1.97 1.97 0 0 1 2.63-.18v.04c-.14 1.25-1.24 2.33-2.68 2.8h.01a5.1 5.1 0 0 1-1.58.24c-2.02-.01-3.04-.48-3.4-.7A5.41 5.41 0 0 1 4 9l.02-.51zm3.86 2.68a3.52 3.52 0 0 1 .13-2.81 3.22 3.22 0 0 1 2.9-1.72c.37 0 .74.14 1.08.28l.15.25c.2.4.4 1 .41 1.82a2.33 2.33 0 0 0-3.11.16 2.4 2.4 0 0 0-.23 3.15c-.21 0-.43-.03-.63-.08-.3-.3-.54-.65-.7-1.05zm4.9-1.54c-.1.88-.61 1.7-1.46 2.32-.84.62-1.91.95-3.03.95h-.02a8.2 8.2 0 0 1-3.08-.5 5.28 5.28 0 0 0 5.22 1.87c3.7-.92 4.13-4.5 3.1-6.07-.28-.44-.66-.8-1.1-1.08.27.56.5 1.4.37 2.5z" fill="#FCC33C"/><defs><linearGradient id="a5grzgi1t" x1="3.35" y1="3.12" x2="21.9" y2="24.43" gradientUnits="userSpaceOnUse"><stop stop-color="#1A1E21"/><stop offset="1" stop-color="#06060A"/></linearGradient></defs></svg>