<!-- by TradingView --><svg width="18" height="18" fill="none" xmlns="http://www.w3.org/2000/svg"><path fill="url(#paint0_linear_1530)" d="M0 0h18v18H0z"/><path fill-rule="evenodd" clip-rule="evenodd" d="M4 5h8.063C13.133 5 14 5.95 14 7.12c0 .817-.422 1.526-1.04 1.88.618.354 1.04 1.063 1.04 1.88V13h-3v-2.282c0-.397-.26-.718-.582-.718H7v3H4V5zm6.64 2H7v1h3.64c.2 0 .36-.224.36-.5s-.16-.5-.36-.5z" fill="#fff"/><defs><linearGradient id="paint0_linear_1530" x1=".84" y1="2.14" x2="16.46" y2="14.831" gradientUnits="userSpaceOnUse"><stop stop-color="#2568FF"/><stop offset=".394" stop-color="#5A97FE"/><stop offset="1" stop-color="#FF74F2"/></linearGradient></defs></svg>