<!-- by TradingView --><svg width="18" height="18" viewBox="0 0 18 18" xmlns="http://www.w3.org/2000/svg"><path fill="#192432" d="M0 0h18v18H0z"/><path d="M10.07 8.64c-.39.15-.64.46-.66.48v.06c.05.02.2.08.38.1.23.04.61.06.92.05.3-.02.76-.1 1.18-.21l.96-.32c0-.01.01-.03-.04-.08a.75.75 0 0 1-.18-.36.5.5 0 0 1 .03-.22h-.2c-.25.04-.85.12-1.24.16-.49.05-.77.18-1.15.34Z" fill="url(#axd5n0cxi)"/><path d="m11.4 8.28-.25.03-.05.23-.14.06-.08.11-.04.12.06.14.16.04.13.02.05.07.1.15.33-.06-.12-.15-.05-.1c.07-.07.2-.23.2-.32-.01-.08-.12-.12-.17-.12h-.17l.03-.22Z" fill="url(#bxd5n0cxi)"/><path d="m10.13 14.74-.8.15-.9-.79-1.2-1.03-.82-.67v-.04l-.04-1.28c-.52-.42-.79-1.68-.85-2.25l-.04-.71a.45.45 0 0 1-.35-.4c0-.27.2-.4.31-.42v-.62l.04-.69c.48.07 1.77.15 3.03-.05 1.26-.2 1.99-.58 2.2-.74l.24.56.15.58-.23-.1-.22-.03c-.43-.02-.82.29-.82.73s.35.66.42.7c.08.06.1.06.46.06.28 0 .43-.12.47-.17v.77c-.56.03-1.16.35-1.4.51h-.93A8.06 8.06 0 0 0 7.24 9l.22.27c.7.31 2.07.18 2.67.07.43.04 1.08-.05 1.35-.1 0 .16-.1.59-.13.78-.18.65-.6 1.07-.78 1.2l-.23.15.03 1.65-.12 1.1-.12.63Z" fill="url(#cxd5n0cxi)"/><path d="M4 13.36c.85.71 3.12 2.02 5.34 1.53l-1.88-1.64-.53-.42-.53-.44-.02-.88-.47.31-.35.25a.2.2 0 0 0 0 .21l-.48.35-1.08.73Zm6.35-1.64v.8l.02.53-.13 1.16-.11.54c.68-.17 2.24-.7 3.04-1.5l-1.92-.82-.04-.1-.86-.61Z" fill="#4B594B"/><path d="m4.36 13.63 1.17-1.01.37 1.5c-.06.02-.17.07-.16.1 0 .03.1.08.16.1l1.3.54h.32l-1.65-.68.24-.1 1.02-.34v-.6l2.01 1.8.2-.05-1.48-1.3-.55-.46-.38-.3-.53-.44-.02-.8v-.08l-.47.31-.29.21.52.23h-.29l.48.19.57.53-.33.17c-.12.09-.37.29-.38.34-.01.07.01.17.12.17l.49.02a.2.2 0 0 0 .13-.21l.08.2-.28.1c-.17 0-.54-.05-.67-.15 0-.08 0-.26-.04-.36-.05-.1-.31-.83-.44-1.19a.2.2 0 0 0-.05.1l.03.11-.05.04a.38.38 0 0 1-.06.04l-.37.27-1.08.73c.1.08.22.18.36.27Zm5.91.35.02-.1.08-.78v-.86l-.02-.26v-.26h.01l.32.27-.22.29.18-.08-.14.15.02.39.16-.16-.18.35a.85.85 0 0 1 .28-.04c.15 0 .36.04.45.05l-.38.47c0 .03 0 .08.08.08.07 0 .33-.19.45-.28l-.26-.94.1.07.03.1h.01l.27.83-.1.08.16.14-.54.05h-.23l-.34-.38-.02.37a10.6 10.6 0 0 1-.18 1.18l-.13.03.05-.31.04-.22.03-.23Zm1.84 0c-.36.2-.73.35-1.07.48l.87-1 .13.02-.13.14.51.19-.16.1-.4-.19-.14.15.39.12Z" fill="#2D352D"/><path d="M6.6 6.06a4 4 0 0 1-1.16-.09l-.05-.17-.03-.09-.34.04-.24-.06-.28-.1-.3-.26v-.18l.15-.18.3-.22.39-.24.51-.27.4-.13.15-.18.3-.25.28-.23.37-.2.46-.15.32-.05.39-.03h.83L9.82 3c.14 0 .47.02.65.09.18.06.32.16.36.2l.16.21.06.23-.06.17-.3.4v.48l.07.1.04.17-.06.14c-.15.09-.49.28-.7.34l-1.13.31c-.4.11-1.45.2-2.3.22Z" fill="#393F3E"/><path d="m10.82 13.3-.24-.3v-.03l.04-.05.05-.02.5.04.08.03.02.05-.02.06-.18.16-.11.1h-.08l-.06-.04Z" fill="url(#dxd5n0cxi)"/><path d="m6.71 13.02-.44.42-.02.1.05.06h.56l.06-.09-.05-.45-.09-.06-.07.02Z" fill="#CF992C"/><path d="m6.72 13.15-.3.31-.01.02.03.01h.23l.1-.04v-.28l-.05-.02Z" fill="#9F0111"/><path d="M7.54 13.53c0-.02-.01-.04-.03-.04-.03 0-.05 0-.05.03l-.08.55-.61.2c-.02 0-.03.03-.03.05.01.02.04.04.06.03l.56-.19-.06.46c0 .02 0 .04.03.04s.05 0 .05-.03l.07-.5.48-.15c.02-.01.03-.03.02-.05 0-.02-.03-.04-.05-.03l-.43.14.07-.5Z" fill="url(#exd5n0cxi)"/><path d="M10.4 14.02a.03.03 0 0 0-.01.04c0 .02.03.03.04.02l.47-.16.42.34h.05a.03.03 0 0 0 0-.05l-.4-.32.4-.14c.01 0 .02-.03.01-.04a.04.04 0 0 0-.04-.02l-.42.15-.33-.27a.04.04 0 0 0-.05 0 .03.03 0 0 0 0 .05l.3.24-.43.16Z" fill="url(#fxd5n0cxi)"/><path d="m11.12 13.01-.41-.03.16.23.25-.2Z" fill="#9F0111"/><path d="M9.09 11.31A3.61 3.61 0 0 1 5.65 8.9c.03.56.27 1.8 1.03 2.27.77.47.94.44 1.17.51-.31-.04-1.01-.18-1.3-.46-.03.17-.05.52 0 .52S7.96 13 9.88 12.85l.45-.09v-.27c-.04.03-.14.04-.14-.24v-.83c.24-.1.75-.43.89-.92-.72.83-1.9.78-2 .81Z" fill="#7B889A"/><path d="m9.74 14.82-2.7-1.96.24.24 1.3 1.15.76.63c.33-.02.66-.11.79-.16.14-.38.2-1.4.21-1.87l-.5 1.95-.1.02Z" fill="#7B889A"/><path d="M8.73 14.1a6.65 6.65 0 0 0 1.43-.29c-.31.24-1.08.3-1.43.3Z" fill="#EAF9FF"/><path d="M9.8 12.95c-.84.43-2.16.15-2.7-.04l.9.7.1-.36c.4.06 1.29.08 1.7-.3Z" fill="#EAF8FF"/><path d="M5.79 8.55c-.19.04-.28-.01-.3-.04l-.03-.4.26.03c.28-.01.38-.28.4-.4.05.35-.1.75-.33.8Z" fill="#7B899B"/><path fill-rule="evenodd" d="M5.26 7.43c-.08.09-.1.2-.1.27 0 .05 0 .13.05.2.05.08.15.16.31.2.33.07.5-.1.54-.2.03-.09.05-.24 0-.37a.32.32 0 0 0-.1-.16.44.44 0 0 0-.26-.07c-.23-.02-.36.05-.44.13Zm.45-.15c-.24-.02-.38.05-.47.14-.08.09-.1.2-.1.28 0 .05 0 .14.06.22.05.08.15.15.32.2.34.07.5-.1.55-.2.04-.1.06-.26.01-.4a.34.34 0 0 0-.12-.16.46.46 0 0 0-.25-.08Z" fill="#6F829C"/><path d="m6.1 7.73-.13.03c-.02.21-.23.33-.33.37.41.02.48-.26.46-.4Z" fill="#445369"/><path d="m6.65 8.34-.93.5.93-.36v-.14Z" fill="#919CAF"/><path d="m6.92 8.41-.02-.2c.2-.1.53-.34.67-.45l.07.11-.72.54Z" fill="#9AA6B7"/><path d="m7.46 8.94-.14-.85.31-.25.11.14.08.9-.36.06ZM7.45 7.63l-.16.1-.02-.35.18.25Z" fill="#EEFAFF"/><path d="m6.73 7.35-.2-.02.06.21.04.57.24-.12-.14-.64Z" fill="#8593A8"/><path d="m6.65 8.5-.01-.15.24-.14.05.2-.28.09Z" fill="#6B7686"/><path d="M7.04 6.5H6.8v.05l.21.04c.02 0 .02-.06.02-.1Z" fill="#566370"/><path d="M6.77 6.73a.49.49 0 0 1-.32.23c.02 0 .18.15.23.28a.79.79 0 0 0 .4-.46l-.1-.02-.2-.03Z" fill="#4D5868"/><path d="M6.81 6.27c0-.1-.06-.18-.08-.2h.39c.05.07.06.34.05.46l-.04.06h-.11l.03-.32H6.8Z" fill="#515D6D"/><path d="m6 6.37-.15-.03.03-.07.02-.12.06-.1.17.01-.03.04-.08.14-.02.13Z" fill="#D8E2F3"/><path d="M6.04 6.85c-.1-.07-.17-.24-.19-.32l.2.05c.03.07.14.21.24.22.11 0 .2-.07.24-.11l.25.04a.48.48 0 0 1-.36.23l-.17-.07H6.1l-.07-.04Z" fill="#CDDAEF"/><path d="m7.55 6.05-.44.03.06.23v.23l.2-.07.22-.03-.04-.4Z" fill="#EBF8FF"/><path d="M8.28 5.17c-.28.06-.9.24-1.08.53.18 0 .96-.1 1.32-.14-.22.15-.9.29-1.21.34a6.82 6.82 0 0 0 3.48-.85c0-.06 0-.18-.06-.22-.05-.05-.32.12-.45.22.16-.13.1-.4.04-.52-.18.1-.55.3-.58.3-.04-.02-.03-.07-.02-.1l-.54.3c.23-.36.6-.58.75-.64l-.12.2a24.44 24.44 0 0 0 .7-.54c.1-.08.28-.25.26-.38-.03-.1-.4-.27-.57-.34a4.55 4.55 0 0 0-1.98-.28 1.5 1.5 0 0 0-1.37 1.1c.08.52 1.12.85 1.63.95L8.8 5c-.33.25-.75.4-.92.45l.4-.28Zm-.41-1.88c.45-.05 1.43-.1 1.71.1s.5.49.56.61c-.49-.2-1.63-.64-2.27-.71Z" fill="#50584C"/><path d="M8.88 4.03c.07.09.1.2.09.3l-.41-.56c.13.08.26.17.32.26Zm-.67-.42c.08.03.18.07.28.13l.46.65a.48.48 0 0 1-.13.22l-.6-1Zm-.05-.01.62 1.04a.74.74 0 0 1-.18.1l-.52-1.16.07.01h.01Zm.29 1.2.11-.04a33.7 33.7 0 0 0-.52-1.19c-.28-.04-.7 0-.72.38-.04.55.63.97 1.13.85Zm.64-1.12h.04l.38.57h-.05c-.28.03-.47-.2-.52-.3-.03-.1-.04-.26.15-.27Zm.54.5a.16.16 0 0 1-.07.05l-.25-.36.32.32Zm-.37-.47.39.37a.47.47 0 0 0-.14-.2l-.04-.04c-.05-.04-.11-.1-.2-.13Zm-.3 1.75.52-.11-.2.28c-.16.04-.38.1-.56.13l.24-.3Zm.63-.14-.16.27.1-.02c.03 0 .16-.2.23-.29l-.17.04Zm-.71.16-.27.3-.12.01.23-.27.16-.04Z" fill="#626D53"/><path d="m9.15 4.31-.2.16-.23-.02.1.18-.03.21.17-.03.15.12.01-.02a.72.72 0 0 1 .06-.13l.13-.13-.11-.1-.05-.24Z" fill="#A30000"/><path d="m8.74 4.45.21.01.1.18-.31-.19Zm.59.2-.12-.12-.15.1.27.02Zm-.55.19.05-.2h.21l-.26.2Zm.28-.19.07.3-.16-.14.09-.16Z" fill="#FF7878"/><path d="m12.4 13.15-.29-.05.16.2-.1.19.26-.03.24.17.01-.23.22-.08-.29-.11-.04-.2-.18.14Z" fill="#FFFA44"/><path d="m12.4 13.21-.29-.1.15.17.25.03.05-.29-.15.13v.06Z" fill="#fff"/><path d="m12.43 13.46.03-.16.16.3-.2-.14ZM12.86 13.3h-.27l.05.3.02.02.02-.22.22-.08-.04-.01Z" fill="#EC843B"/><path d="m4.63 13.84-.37-.26.08-.07.03-.26.23.16.37-.13-.16.29.15.22h-.33v.05Z" fill="#FFF447"/><path d="m4.5 13.53-.16-.02.03-.25.13.27Zm.32.02-.24.04.34.14-.1-.16v-.02Zm-.28.22.02-.17.09.19-.02.05-.1-.07Z" fill="#EA8436"/><path d="m5.49 5.99.47.04c-.03.07-.1.21-.09.3l-.4-.1.02-.24Zm-.03.46.1.32c.06.1.12.17.15.2a.4.4 0 0 1 .35-.1.61.61 0 0 1-.2-.33l-.4-.1Z" fill="#35404E"/><path d="M5.71 6.96a1.1 1.1 0 0 1-.26-.47l-.01.46.01.33h.05l.08-.17.13-.15Z" fill="#707B88"/><path d="M7.11 6.6c-.2-.03-1.18-.24-1.65-.35l-.02.18.55.13.7.15.4.07.11.29.29.54-.38.24-.71.37-.9.46v.06l.04.18.94-.5.43-.22.47-.28.15-.11.04-.06.33.4.14.08.1.05h.11l.21-.1.24-.22.2-.25.31-.4.17-.3.1-.25v-.32l-.06-.12.5-.53.27-.31-.37.14-.55.6-.04-.01h-.22l-.3.03-1.23.2c-.26.05-.36.13-.37.16Z" fill="#2E2E2E"/><path d="M7.69 6.88c0-.3.1-.44.16-.47l1.1-.17c.05-.01.18-.01.37.1.2.1.11.46.05.62-.13.18-.48.53-.82.53l-.14-.01-.3.21.22-.22h-.01l.23-.25-.3.23-.15-.05-.13.2.1-.21h-.01l.1-.23-.15.2c-.19-.1-.32-.27-.32-.48ZM9.83 5.9l-.13-.15.13-.12.36-.15-.36.43Z" fill="#484848"/><path d="m11.37 8.48.04-.2.12-.02v.11l.13.02.15.1.09.12-.09.23-.13.13.03.05.15.1-.17.05-.1-.06-.09-.16a.3.3 0 0 0 .04-.04l.07-.07.07-.08.03-.1-.06-.11-.15-.07-.13.02v-.02Zm-.45.04.04-.2.17-.02-.01.17-.04.06-.12.08-.09.12-.03.11.03.1L11 9h.19l.01.06.13.15.01.03-.14.03-.06-.08-.06-.06-.16-.04-.2-.12-.05-.15.05-.18.2-.12Zm.32.03.05.09h.15l-.09.1.09.14-.13-.04-.12.1v-.13l-.13-.07.15-.06.03-.13Z" fill="#D43D25"/><path d="M12.27 8.51a.57.57 0 0 1 0-.33l.15-.02a.53.53 0 0 0-.02.31c.03.12.2.31.27.4l-.12.05a1.38 1.38 0 0 1-.28-.4Z" fill="url(#gxd5n0cxi)"/><path d="m12.62 8.37.02-.22.1-.03v.21l.07.2.18.2-.14.05-.05-.05-.12-.17-.06-.2Z" fill="#ADA3A0"/><path d="m13.07 8.15-.13-.01c0 .01 0 .06.04.1.03.03.05.09.05.11l-.01.2c.02.03.06.08.07.07l.04-.04.04-.1.05-.09.07-.08.09-.09.16-.1.18-.1.1-.01h.08l.1.06.07.05.08.05h.08l.06-.02.1-.07.14-.13.13-.18.13-.17.1-.2.06-.17.05-.2-.03-.18-.05-.2-.1-.17-.12-.14-.22-.12-.14-.05-.16-.03-.23.05-.16.1c-.07.06-.28.19-.47.12-.24-.08-.22-.28-.2-.4.02-.1.1-.2.13-.23l.1-.07h.23l.09.04.14.01.2-.06.17-.1.09-.12.03-.14V5.2l-.08-.16-.1-.1-.14-.06h-.16l-.13.02-.12.08-.04.06v.06l.04.07a.8.8 0 0 0 .1.02l.1-.04.04-.07.04.02.05.1-.05.1-.1.04-.14-.02-.3-.12h-.14l-.2.06-.22.13-.17.12-.11.18-.07.22-.04.2v.2l-.02.13.02.15.09.2.17.23c.06.05.2.17.34.23.14.07.3.07.36.06l.03-.04.05-.08.06-.13.09-.04.1-.02.1.02.1.08.04.09.01.12-.03.17-.1.1-.14.06-.14.1-.08.1-.07.13-.13.12-.14.07Z" fill="#fff"/><path d="M12.36 6.13c0-.12.04-.27.07-.33l.02.3c.03.18.15.49.2.61l-.2-.17c.01.25.28.58.58.6.23.03.29-.14.28-.22.02-.1.14-.28.45-.28.38 0 .39.25.4.33l-.04.25c-.04.1-.14.28-.21.32a.3.3 0 0 1-.15.04c.03-.02.1-.06.1-.08.02-.02.05-.2.05-.28 0-.06-.08-.2-.23-.23a.2.2 0 0 0-.22.1l-.11.18-.11.04c-.14.02-.32-.07-.4-.12a1.53 1.53 0 0 1-.34-.35c-.13-.18-.16-.33-.15-.38v-.33Z" fill="#B3B3B3"/><path d="M13.67 5.18a.13.13 0 0 1-.13-.1c0-.03.02-.11.08-.15a.47.47 0 0 1 .22-.06c.04.02.14.1.15.2 0 .1-.07.18-.11.2l.03-.09-.1-.1c0 .03-.05.1-.14.1Z" fill="#C7C7C7"/><path d="M13.84 5.68c.15.02.31-.1.38-.15-.12.22-.44.23-.59.2-.03-.03-.16-.07-.34.03-.18.1-.18.34-.16.45a1.13 1.13 0 0 1-.16-.32c-.02-.11-.02-.43.28-.43.31 0 .4.2.59.22Z" fill="#AFB1B3"/><path d="M13.74 7.81c-.14.03-.31.3-.38.44.1-.12.43-.25.48-.25.06 0 .15.03.21.1.05.06.14.06.17.06.18 0 .45-.38.57-.57.04-.06.14-.26.2-.54a.7.7 0 0 0-.2-.59l.06.13c.04.1 0 .61-.06.77-.06.15-.43.6-.65.6-.22 0-.23-.18-.4-.15Z" fill="#C7C7C7"/><path d="M7.5 9.3 7.23 9c.47-.19 1.88-.22 2.52-.21l-.35.31.02.1.66.15c.05 0-.14.05-1.06.08a5.7 5.7 0 0 1-1.54-.14Z" fill="#fff"/><path d="M9.9 6.66c.15-.4.56-.46.74-.44-.18 0-.6.2-.58.79 0 .46.42.66.62.7h-.29c-.1 0-.26-.12-.33-.18a.88.88 0 0 1-.16-.87Z" fill="url(#hxd5n0cxi)"/><path d="M11.4 6.97c0 .4-.3.75-.67.75-.37 0-.67-.34-.67-.75 0-.42.3-.75.67-.75.37 0 .67.33.67.75Z" fill="url(#ixd5n0cxi)"/><path d="M10.72 6.38c-.3 0-.45.3-.49.44-.02.12.06.64.5.64.43 0 .5-.47.5-.55-.02-.07-.11-.53-.5-.53Z" fill="#6C8B4B"/><path d="m10.64 6.52-.24.32.08.32.43.14.18-.22-.06-.45-.39-.1Z" fill="#B7FA00"/><path d="M12.8 8.2v-.08l.02-.02h.04c.01 0 .02.01.02.05a.35.35 0 0 0 0 .07.69.69 0 0 1-.08-.02Zm.1.36a.91.91 0 0 1-.07-.17h.04c.03 0 .05-.05.06-.1l.02.01.04.04.01.02v.04l-.01.05h-.03l-.02.04-.04.07Zm.02.04a.29.29 0 0 0 .1.08.43.43 0 0 1-.04-.11.88.88 0 0 1-.06.03Zm-.02-.58a.13.13 0 0 0-.11 0 .19.19 0 0 0-.07.05l-.01.01v.14a1.2 1.2 0 0 0 .14.42c.03.05.07.1.1.12l.12.03a.1.1 0 0 0 .04 0 .05.05 0 0 0 .03-.08l-.01-.02-.03-.03v-.01h-.01a.35.35 0 0 1 0-.22.17.17 0 0 0 0-.09.15.15 0 0 0-.04-.07.33.33 0 0 0-.05-.04l-.03-.02V8.15c0-.04-.01-.1-.07-.13Z" fill="#FF9417"/><defs><linearGradient id="axd5n0cxi" x1="10.76" y1="8.38" x2="10.95" y2="9.31" gradientUnits="userSpaceOnUse"><stop offset=".19" stop-color="#985C1B"/><stop offset=".25" stop-color="#7B4915"/><stop offset=".55" stop-color="#7B4915"/><stop offset=".71" stop-color="#683F13"/></linearGradient><linearGradient id="bxd5n0cxi" x1="11.13" y1="8.36" x2="11.25" y2="9.25" gradientUnits="userSpaceOnUse"><stop offset=".58" stop-color="#FCA351"/><stop offset="1" stop-color="#D68B46"/></linearGradient><linearGradient id="cxd5n0cxi" x1="5.84" y1="8.32" x2="10.93" y2="8.32" gradientUnits="userSpaceOnUse"><stop offset=".53" stop-color="#B1BFD5"/><stop offset=".98" stop-color="#6B7686"/></linearGradient><linearGradient id="dxd5n0cxi" x1="10.92" y1="12.9" x2="10.92" y2="13.33" gradientUnits="userSpaceOnUse"><stop stop-color="#FFDF47"/><stop offset=".36" stop-color="#F8DEAB"/></linearGradient><linearGradient id="exd5n0cxi" x1="7.2" y1="13.58" x2="7.33" y2="14.67" gradientUnits="userSpaceOnUse"><stop stop-color="#FFC340"/><stop offset=".24" stop-color="#FFE8BC"/><stop offset=".57" stop-color="#F7B23D"/><stop offset=".76" stop-color="#F9DFAD"/></linearGradient><linearGradient id="fxd5n0cxi" x1="10.59" y1="14.24" x2="11.34" y2="13.65" gradientUnits="userSpaceOnUse"><stop stop-color="#FFC340"/><stop offset=".24" stop-color="#FFE8BC"/><stop offset=".57" stop-color="#F7B23D"/><stop offset=".76" stop-color="#F9DFAD"/><stop offset="1" stop-color="#FDC33A"/></linearGradient><linearGradient id="gxd5n0cxi" x1="12.27" y1="8.21" x2="12.43" y2="8.93" gradientUnits="userSpaceOnUse"><stop offset=".18" stop-color="#F9BB60"/><stop offset="1" stop-color="#D68B46"/></linearGradient><linearGradient id="hxd5n0cxi" x1="10.27" y1="6.22" x2="10.27" y2="7.7" gradientUnits="userSpaceOnUse"><stop offset=".22" stop-color="#4A576D"/><stop offset=".29" stop-color="#606D84"/><stop offset=".44" stop-color="#606D84"/><stop offset=".5" stop-color="#48566B"/></linearGradient><linearGradient id="ixd5n0cxi" x1="10.73" y1="6.22" x2="10.32" y2="7.6" gradientUnits="userSpaceOnUse"><stop offset=".36" stop-color="#617381"/><stop offset=".62" stop-color="#667A7B"/></linearGradient></defs></svg>