<!-- by TradingView --><svg width="18" height="18" fill="none" xmlns="http://www.w3.org/2000/svg"><path fill="#F0F3FA" d="M0 0h18v18H0z"/><path fill-rule="evenodd" clip-rule="evenodd" d="M9 15A6 6 0 109 3a6 6 0 000 12zm0-1A5 5 0 109 4a5 5 0 000 10z" fill="#010101"/><path d="M7 8.44h1v2.813c0 .399-.224.722-.5.722s-.5-.323-.5-.722V8.44z" fill="#000"/><path fill-rule="evenodd" clip-rule="evenodd" d="M7.992 6a1 1 0 00-1 1h2.916c.34 0 .615.282.615.63 0 .349-.275.631-.615.631h-.794a.384.384 0 00-.243.087c-.266.215-.222.57-.023.859l1.723 2.53a.57.57 0 00.84.133c.208-.168.2-.468 0-.757l-1.21-1.791A1.688 1.688 0 009.778 6H7.992z" fill="#FA0102"/></svg>