<!-- by TradingView --><svg xmlns="http://www.w3.org/2000/svg" width="18" height="18" viewBox="0 0 18 18"><path fill="#38157B" d="M0 0h18v18H0z"/><path d="M11.22 10.36h-.37l-.02-.06a1.12 1.12 0 0 0-.3-.37c-.11-.1-.25-.17-.4-.2a1.59 1.59 0 0 0 .97-.84h.37c.07-.18.11-.37.11-.55 0-.18-.01-.36-.04-.53-.18-.84-.81-1.4-2.1-1.4H6.74v2.6h-.44v1.41h.44v1.17h1.29v-1.17H9c.51 0 .63.3 1 1.16h1.76c-.2-.48-.46-1.04-.54-1.22zM8.02 7.8h1.33c.29 0 .56.29.56.6 0 .3-.27.6-.56.6H8.02V7.8z" fill="#E92E88"/><path d="M14 9V4.6a.63.63 0 0 0-.16-.43.56.56 0 0 0-.4-.17H4.57c-.15 0-.29.06-.4.17A.63.63 0 0 0 4 4.6V9h-.3v1.44h.31v2.96c0 .16.06.31.17.43.1.1.24.17.4.17h8.86a.53.53 0 0 0 .4-.17.6.6 0 0 0 .16-.43v-2.97h-.31V9H14zm-1 1.42V13H5v-2.57h-.32V9H5V5h8v4h-.3v1.43h.3z" fill="#E92E88"/></svg>