<!-- by TradingView --><svg xmlns="http://www.w3.org/2000/svg" width="18" height="18"><path fill="#323150" d="M0 0h18v18H0z"/><path d="M6.06 3.87a.17.17 0 010-.26c.79-.78 2.13-.82 2.98-.09l1.53 1.32a2.5 2.5 0 01.05 3.86l-1.97 1.75 2.05 1.83c.82.73.82 1.93 0 2.66a.23.23 0 01-.3 0L7.49 12.4a2.5 2.5 0 010-3.87l1.95-1.69-3.37-2.96z" fill="url(#a0fj4wuol)"/><path d="M7.96 8.11l1.47-1.27c.5.35 1.16 1.25.7 2.3l-1.48 1.31c-.47-.4-1.29-1.22-.7-2.34z" fill="#AC3E54"/><defs><linearGradient id="a0fj4wuol" x1="11.82" y1="7.86" x2="7.61" y2="7.86" gradientUnits="userSpaceOnUse"><stop stop-color="#FE8664"/><stop offset="1" stop-color="#FF3B56"/></linearGradient></defs></svg>