<!-- by TradingView --><svg width="18" height="18" viewBox="0 0 18 18" xmlns="http://www.w3.org/2000/svg"><path fill="#F0F3FA" d="M0 0h18v18H0z"/><path d="M8.46 5.82 6.22 7.1V4.85a4.97 4.97 0 0 1 2.24-.82v1.8Z" fill="#8C20C7"/><path d="M6.22 7.1 4.04 8.34a5 5 0 0 1 2.18-3.5V7.1Z" fill="url(#aleycz45r)"/><path d="M10.8 4.49 8.47 5.82v-1.8a5.06 5.06 0 0 1 2.35.32v.15Z" fill="#9A28C5"/><path d="M12.88 5.85a5.02 5.02 0 0 0-1.92-1.45l-.15.09v2.58l2.07-1.22Z" fill="#9A38DD"/><path d="M10.8 4.49 8.47 5.82v2.64l2.35-1.39V4.5Z" fill="url(#bleycz45r)"/><path d="M6.22 9.78V7.1l2.24-1.28v2.64L6.22 9.78Z" fill="url(#cleycz45r)"/><path d="M6.22 9.78V7.1L4.04 8.34a5.05 5.05 0 0 0 .32 2.53l1.86-1.09Z" fill="url(#dleycz45r)"/><path d="M13 8.4V6l-.12-.15-2.07 1.22V9.7L13 8.4Z" fill="url(#eleycz45r)"/><path d="M10.8 7.07 8.47 8.46v2.63l2.35-1.4V7.08Z" fill="url(#fleycz45r)"/><path d="M6.22 12.42V9.78l2.24-1.32v2.63l-2.24 1.33Z" fill="url(#gleycz45r)"/><path d="m6.22 12.42-.54.32a5.01 5.01 0 0 1-1.32-1.87l1.86-1.09v2.64Z" fill="#4F1AE0"/><path d="M8.2 13.94a4.97 4.97 0 0 1-1.98-.79v-.73l2.24-1.33v2.69l-.26.16Z" fill="#3756EA"/><path d="m10.8 9.7-2.34 1.39v2.69l2.35-1.41V9.7Z" fill="url(#hleycz45r)"/><path d="M10.8 12.37V9.7L13 8.4v2.65l-2.2 1.32Z" fill="url(#ileycz45r)"/><path d="m13.87 7.88-.94.56V5.9c.45.57.78 1.25.94 1.98Z" fill="#812BD5"/><path d="M12.97 8.41v2.66l.77-.46a5 5 0 0 0 .13-2.73l-.9.53Z" fill="#4F3FE2"/><path d="M13.75 10.57a5 5 0 0 1-.82 1.53v-1.03l.82-.5Z" fill="#4026E5"/><path d="m10.8 12.35-2.34 1.42v.2a5.05 5.05 0 0 0 2.35-.3v-1.32Z" fill="#2F2AE6"/><path d="M13 11.03V12a5.01 5.01 0 0 1-2.2 1.65v-1.3l2.2-1.33Z" fill="#472CE6"/><path d="m6.65 10 2.33-4 2.37 4h-1.22L8.98 8.07 7.86 10H6.65Zm1.24 0h2.2L9 11.94 7.88 10Z" fill="#fff"/><defs><linearGradient id="aleycz45r" x1="5.62" y1="6.59" x2="5.49" y2="6.85" gradientUnits="userSpaceOnUse"><stop stop-color="#851DB9"/><stop offset="1" stop-color="#8724CC"/></linearGradient><linearGradient id="bleycz45r" x1="9.53" y1="6.3" x2="9.44" y2="6.47" gradientUnits="userSpaceOnUse"><stop stop-color="#A441E3"/><stop offset="1" stop-color="#8824DE"/></linearGradient><linearGradient id="cleycz45r" x1="7.51" y1="7.75" x2="7.41" y2="7.91" gradientUnits="userSpaceOnUse"><stop stop-color="#8E29DD"/><stop offset="1" stop-color="#7F2DE4"/></linearGradient><linearGradient id="dleycz45r" x1="5.35" y1="9.08" x2="5.26" y2="9.22" gradientUnits="userSpaceOnUse"><stop stop-color="#8631E7"/><stop offset="1" stop-color="#631CDE"/></linearGradient><linearGradient id="eleycz45r" x1="12.03" y1="7.7" x2="11.9" y2="7.91" gradientUnits="userSpaceOnUse"><stop stop-color="#7E24D6"/><stop offset="1" stop-color="#782EDD"/></linearGradient><linearGradient id="fleycz45r" x1="9.71" y1="8.9" x2="9.53" y2="9.18" gradientUnits="userSpaceOnUse"><stop stop-color="#7021DE"/><stop offset="1" stop-color="#682FE5"/></linearGradient><linearGradient id="gleycz45r" x1="7.43" y1="10.34" x2="7.36" y2="10.44" gradientUnits="userSpaceOnUse"><stop stop-color="#672AE6"/><stop offset="1" stop-color="#4D1EE0"/></linearGradient><linearGradient id="hleycz45r" x1="9.91" y1="11.63" x2="9.8" y2="11.85" gradientUnits="userSpaceOnUse"><stop stop-color="#5130D3"/><stop offset="1" stop-color="#3D37E6"/></linearGradient><linearGradient id="ileycz45r" x1="12.13" y1="10.38" x2="12.01" y2="10.6" gradientUnits="userSpaceOnUse"><stop stop-color="#5130D3"/><stop offset="1" stop-color="#603CD1"/></linearGradient></defs></svg>