<!-- by TradingView --><svg width="18" height="18" viewBox="0 0 18 18" xmlns="http://www.w3.org/2000/svg"><path fill="url(#ajr4f2xh3)" d="M0 0h18v18H0z"/><path fill-rule="evenodd" d="M5.5 3a6.38 6.38 0 0 0 0 4.58l.02.03-1.16.96 1.57.98L4 11.2l2.61 1.5.55 2.3 1.78-1.53L10.8 15l.57-2.3L14 11.2l-1.92-1.63 1.56-1-1.17-.95.03-.04c.32-.72.77-2.66 0-4.58l-2.38 2.71c-.2-.13-.6-.31-1.13-.31-.5 0-.9.17-1.12.3L5.5 3Zm-.29 8.05 1.32-1.12.78.48.36 1.25h2.59l.39-1.19.77-.49 1.37 1.07-2.05 1.2-.33 1.5-1.47-1.14-1.36 1.14-.42-1.5-1.95-1.2Zm5.46-1.43 1.77-1.13-2.06-1.7-.3 1.23.59 1.6Zm-.9-3.29c-.2-.1-.47-.2-.78-.2-.34 0-.63.12-.83.23l.44 1.76-.7 2 .3.88h.44v-1h.72v1h.37l.28-.87-.67-2.01.43-1.79Zm-2.2.5L5.53 8.49l1.8 1.1.54-1.57-.3-1.2Zm-.24-.72-1.41-1.6c-.1.6-.18 1.9.19 2.61l1.22-1Zm3.32.03 1.23 1c.38-.7.3-2.03.2-2.63l-1.43 1.63Z" fill="#fff"/><defs><linearGradient id="ajr4f2xh3" x1="2.39" y1="9" x2="18" y2="9" gradientUnits="userSpaceOnUse"><stop offset=".13" stop-color="#2F239F"/><stop offset="1" stop-color="#81BBE3"/></linearGradient></defs></svg>