<!-- by TradingView --><svg width="18" height="18" viewBox="0 0 18 18" xmlns="http://www.w3.org/2000/svg"><path fill="url(#atlb15k5z)" d="M0 0h18v18H0z"/><path d="M10.18 3.91c-.85 1.4-.3 1.15-1.57 1.21-1 .17-.9-1.52-1.9-1.52-.67.19-1.53 2.94-1.6 3.04l-.2.04c-.08.62.22.53-.22.75a.9.9 0 0 0 .08.34c.07.18.2.44.07.6-.7.93-1.06 2.69-.42 3.71.55.84.7.86.98 1.38.14-.33 4.46.44 5.95-.79 1.46-1.21 1.82-1.54 1.75-3.14-.25-1.85-.7-4.2-1.98-5.67a1.61 1.61 0 0 0-.41-.26c-.2-.04-.42.2-.53.31Z" fill="#EEEEEC"/><path d="M8.23 13.02c-.5.08-.46 0-.87-.06-.33.05-1.12-.28-1.42-.5l-.34-.24c.04.1.07.2.13.3-.96-.26-1.35-1.88-1.52-2.07-.18.5.07 1.34.3 1.71.15.24.35.44.5.65.08.1.14.22.21.33.13.21.14.21.28.28v-.33c.06.05.06.08.12.15 1.18 1.64 4.12.9 5.41-.15.2-.18.38-.43.6-.58 0 .04.06.1.07.13.28-.08.98-.78 1.18-1.06.53-.76.36-1.2.43-1.72.17.08.14.2.34.27a3.11 3.11 0 0 0-.78-1.8c-.19-.21-.17-.45-.03-.72l.12-.24c-.84.03-.1.28-.14-.66l-.33-.07c-.06.05-.06-.04-.07.14-.02.21.03.16-.1.41.04.07.08.04.11.13.06.31-.22.63-.45.81.14.1.26.13.47.19.12.08.47.94.53 1.26.03.18.08.4-.07.53-.03-.26-.09-.35-.25-.5-.03.06-.03 0-.02.14.16.77-.14 1.99-.98 2.26.04-.15.13-.17.17-.38-1.15.54-1.76 1.45-3.22 1.59.1-.13.15-.1.24-.17.05-.04.01-.01.05-.07-.1 0-.67.12-.67.04Z" fill="#DDDAD9"/><path d="m6.87 14.02.07.05c.03.01.05.01.07.03.05.01.1.02.16.05l.26.1-.56-.09c.07.12.31.16.44.2.52.14 1.19.18 1.7.1 1.3-.23 1.53-.5 1.94-.61.15.1.3.33.59.31.08-.94 1.05-1.05 1.73-2.13.4-.67.77-.89.46-2.1-.04-.17-.07-.32-.14-.47-.06-.11-.18-.44-.28-.52.1.35.17.61.2 1.05-.13-.07-.03-.05-.2-.13-.07.5.05.96-.47 1.7-.2.28-.86.97-1.14 1.05-.02-.03-.07-.1-.07-.13-.23.16-.41.43-.64.6a4.78 4.78 0 0 1-4.12.94Z" fill="#CBC5C5"/><path d="m5.03 6.59-.27-.12c-.01.37.06.54.07.84-.17.01-.24.05-.35.09.17.35.3.45.28.9-.4.6-.81 1.24-.75 2l.1-.06c-.23 2.27.72 1.88 1.21 3.36.17-.04.18-.08.3-.18.53.45.61.47 1.23.73l.56.08-.27-.1c-.04 0-.1-.02-.15-.05-.05 0-.05 0-.07-.02L6.85 14c-.28 0-1-.5-1.22-.82-.04-.06-.07-.12-.14-.18l-.02.4c-.14-.07-.12-.11-.23-.32-.07-.12-.16-.23-.23-.33-.15-.21-.32-.38-.47-.63-.23-.37-.48-1.2-.3-1.7a2 2 0 0 1 .21-.67c-.15.05-.01.04-.26.18.01-.48.39-1.16.67-1.53.2-.26-.17-.88-.14-.96.15-.08.3.12.4.19-.07-.3-.26-.58-.22-.97l.2.09c.07-.1.9-2.91 1.6-3.1.52-.14 1.1.96 1.27 1.32-.19 0-.5.05-.56.23.23-.06.37-.13.65-.1.37.06.13.14.58.04.32-.08 1 0 1.24.14.13-.08-.16-.17-.28-.21.1-.28.7-1.56 1.1-1.47.65.15 1.6 2.44 1.77 3l.14.21.16-.1c.01.4-.2.64-.31.94.2-.1.2-.26.49-.27l-.13.2c-.14.27-.15.5.03.71.32.36.74 1.13.87 1.62.07.27.15.77.04 1.03-.11-.14-.2-.34-.3-.46.04 1.02-.33 1.51-1.17 2.15l-.36.32c-.48.44-.4.52-.6.73-.16-.24-.05-.34 0-.6-.44.3-.35.48-1.04.74-.71.28-1.15.3-1.39.4.75.05 1.84-.3 2.19-.68l.03.04c.14.27-.05.04.28.36.1-.09.14-.3.22-.42.34-.32.64-.55 1-.85.37-.31.37-.4.64-.76.28-.38.25-.47.35-.77.07-.21.07-.05.07-.04l.11.2c.07-.06.07-.06.13-.24.47-1.53-1.25-2.71-.96-3.37.09-.18.14-.18.3-.29-.18-.13-.18-.14-.42-.15.1-.27.11-.5.08-.8l-.26.2a9.77 9.77 0 0 0-1.22-2.55c-.66-.85-.95-.79-1.5.04-.13.2-.38.68-.45.9-.28 0-.39-.09-.71-.04-.52.08-.09.12-.62.03-.17-.46-.78-1.56-1.43-1.48-.72.07-1.5 2.33-1.7 3.03Z" fill="#242323"/><path d="M10.45 4.19c-.17.5-.33 1.12.18 1.49.1-.06.13-.1.17-.15l.07-.08c.14.17.19.32.22.55l.22-.1c-.03.26-.06.53.22.63l.05.03.22.17.03.02c.1.06.21.12.35.1.2-.37-.4-1.59-.56-1.9a8.2 8.2 0 0 0-.5-.79c-.28-.4-.46-.43-.67.03ZM5.95 6.48h.07c-.11.12-.46.42-.66.38-.08-.5.55-1.8.84-2.32l.03-.06c.16-.27.45-.8.7-.3.12.2.2.61.21.83.02.3-.05.4-.14.52l-.13.18c-.16-.04-.19-.07-.26-.18-.13.09-.21.27-.23.47l-.05-.02a.86.86 0 0 0-.2-.05c.04.21.09.42-.1.55h-.08Z" fill="#CBC5C5"/><path d="M7.85 11.1c-.07.1-.12.2-.16.35-.1.15-.1.41-.12.66l-.02.32-.02-.14c-.06-.38-.14-.86.2-1.29l-.16-.09c-.06.06-.1.09-.14.11-.08.05-.12.08-.22.26-.4.72-.17 1.48.21 1.52h.15c.3.02.74.04.84-.2.02-.07 0-.2-.03-.33-.02-.09-.04-.18-.04-.25 0-.15.03-.27.06-.39.02-.08.05-.16.06-.26l-.6-.29-.01.01ZM7.6 13a3.63 3.63 0 0 0-.25-.05l-.1-.09c-.22-.16-.4-.3-.37-.8 0-.09.02-.17.04-.24a.91.91 0 0 0 .03-.18c0-.08-.05-.15-.1-.22a.85.85 0 0 1-.07-.1c-.05-.11-.12-.17-.19-.22-.12-.1-.25-.21-.36-.68-.16-.7.14-1.04.5-1.33.46-.36 1.27-.39 1.53-.1-.49-.1-.8-.13-1.23.09-.3.16-.59.38-.67.76-.13.66.3 1.46.7 1.22l.17-.11.28-.17v-.36c-.28-.08-.63-.33-.66-.65a.45.45 0 0 1 .21-.43c.15-.1.38-.12.6-.1.74.04.95.53.46.98-.1.09-.18.12-.28.15l-.18.07v.32l.16.1c.31.2.76.5 1.17.3.38-.2.79-.66.83-1.04a1.01 1.01 0 0 1-.4-.53l.54.49c.07.08.17.18.15.32a.4.4 0 0 1-.1.25l-.05.08.03-.31-.21.5c-.27.54-.63.7-.91.84-.1.04-.17.07-.24.12v.3c.02.26.04.55-.17.7a.77.77 0 0 1-.13.07l-.1.06c-.38.06-.45.04-.63 0Z" fill="#242323"/><path d="M7.48 12.82a.52.52 0 0 1-.07-.01c-.37-.04-.62-.85-.19-1.58.1-.17.13-.19.2-.22.03-.02.08-.04.15-.1l.2.08c-.34.43-.3.68-.23 1.02l.03.14v-.25c-.02-.17-.04-.32.07-.47a.34.34 0 0 1 .06-.06c-.02-.03.01-.1.15-.31l.68.28-.03.2a2.74 2.74 0 0 0-.03.69c.02.16.04.33 0 .41-.12.26-.73.35-1 .18Z" fill="#D67179"/><path d="M9.82 8.15c-.21.26-.45.17-.27-.15-1.09-.06-.32.93.21.6.19-.13.12-.3.06-.45ZM6.54 8.02c.04.26 0 .3-.27.16-.03.14-.04.27.11.35.16.08.31.05.45-.04.32-.22.09-.58-.3-.47Z" fill="#242323"/><defs><linearGradient id="atlb15k5z" x1="9" y1="0" x2="9" y2="18" gradientUnits="userSpaceOnUse"><stop stop-color="#10EDA9"/><stop offset="1" stop-color="#BD3CF2"/></linearGradient></defs></svg>