<!-- by TradingView --><svg width="18" height="18" viewBox="0 0 18 18" xmlns="http://www.w3.org/2000/svg"><path fill="#F0F3FA" d="M0 0h18v18H0z"/><path d="M5.2 5.13c-.46.36-.93.8-1.12 1.35-.23.65.08 1.3.38 1.88.3.58.63 1.16.9 1.76.23.48.54 1.04.47 1.57-.06.38-.2.74-.27 1.12-.06.25.2 0 .28-.07.52-.42 1.09-.9 1.3-1.54.1-.32.04-.62-.08-.93-.11-.29-.25-.57-.38-.86a92.35 92.35 0 0 0-1.22-2.42 2.86 2.86 0 0 1-.16-1.37c0-.16.05-.3.07-.45.01-.09-.06-.12-.16-.04Zm6.81 0a3.3 3.3 0 0 0-1.13 1.35c-.22.65.1 1.3.4 1.88.29.59.62 1.16.9 1.76.22.48.53 1.04.46 1.57-.06.38-.2.74-.27 1.12-.06.25.2 0 .28-.07.52-.42 1.09-.9 1.3-1.54.1-.32.04-.62-.08-.92-.12-.3-.25-.58-.38-.87a92.6 92.6 0 0 0-1.22-2.42 2.86 2.86 0 0 1-.16-1.37c0-.16.05-.3.07-.45.01-.09-.06-.12-.17-.04Z" fill="#1C509B"/><path d="M8.54 4.06c-.5.4-1.04.9-1.34 1.47-.22.4-.25.83-.13 1.25.14.5.34 1 .56 1.5.41.93.96 1.81 1.36 2.76.14.34.3.72.33 1.1.03.46-.13.95-.26 1.38-.03.13-.11.3-.1.42.01.1.07.06.13.01.25-.18.48-.38.7-.6.59-.54 1.26-1.27 1.2-2.12-.02-.35-.2-.69-.34-1.01-.15-.38-.33-.74-.5-1.1-.31-.7-.64-1.36-.99-2.04-.11-.23-.26-.46-.34-.7a2.98 2.98 0 0 1-.2-.99c-.02-.25 0-.52.03-.77 0-.17.07-.32.07-.49.04-.15-.05-.17-.18-.07Z" fill="#4BA2F2"/></svg>