<!-- by TradingView --><svg xmlns="http://www.w3.org/2000/svg" width="18" height="18" viewBox="0 0 18 18"><path fill="#F0F3FA" d="M0 0h18v18H0z"/><path d="M11.04 4.6L8.66 7.05l-.03.02L6.9 8.8a.43.43 0 0 0 0 .6l1.64 1.64-2.01 2.12a6.11 6.11 0 0 1-.91-.76c-2.11-2.11-2.19-4.72-.06-6.86 1.7-1.68 3.68-1.97 5.48-.94z" fill="url(#ap4md10l3)"/><path d="M12.46 12.44c-1.68 1.68-3.66 1.98-5.45 1.01l.71-.74 1.63-1.68.55-.55 1.07-1.07a.43.43 0 0 0 0-.6l-.5-.5-1.13-1.14 2-2.09.18-.18c.3.21.59.46.87.74 2.1 2.09 2.18 4.68.07 6.8z" fill="url(#bp4md10l3)"/><defs><linearGradient id="ap4md10l3" x1="9.78" y1=".64" x2="-3.67" y2="30.03" gradientUnits="userSpaceOnUse"><stop stop-color="#00DECA"/><stop offset=".38" stop-color="#3A8AFA"/><stop offset="1" stop-color="#1A6AF4"/></linearGradient><linearGradient id="bp4md10l3" x1="12.75" y1="1.56" x2="-.62" y2="30.75" gradientUnits="userSpaceOnUse"><stop stop-color="#00DECA"/><stop offset=".38" stop-color="#3A8AFA"/><stop offset="1" stop-color="#1A6AF4"/></linearGradient></defs></svg>