<!-- by TradingView --><svg width="18" height="18" viewBox="0 0 18 18" xmlns="http://www.w3.org/2000/svg"><path fill="url(#am0kgbigt)" d="M0 0h18v18H0z"/><path d="M5 5.2v4.33l1-.5v-3.4l3-1.67v-.95L5 5.2Z" fill="#494949"/><path d="m7 6-1-.38v3.43l4 2.1v-.9l-3-1.6V6Z" fill="#FEFEFE"/><path d="M8 6.74v1.02l3.49-1.78-1.13-.54L8 6.74Z" fill="#494949"/><path d="M9 3.95 6 5.62l1 .4 2-1.04 2.12 1.07-3.1 1.71L11 9.41 12.2 9 9.9 7.76 13 6.05l-4-2.1Z" fill="#B2B2B2"/><path d="M13 5.15v.9l-4-2.1V3l4 2.15Z" fill="#FEFEFE"/><path d="M5 11.98v.9l3.23-1.72-.78-.48L5 11.98Z" fill="#494949"/><path d="M9 12.86v1.33l-2.58-1.33.79-.96 1.79.96Z" fill="#FDFDFD"/><path d="M8.14 11.14 5 9.54l1.03-.57L10 11.14l-3.09 1.74L9 14l3-1.73 1 .52L9 15l-4-2.12 3.14-1.74Z" fill="#B3B3B3"/><path d="M9 12.9V14l3-1.72V9l-1 .4v2.42L9 12.9Z" fill="#494949"/><path d="M12 9 9.7 7.77l.93-.49L13 8.62v4.16l-1-.48V9Z" fill="#fff"/><defs><linearGradient id="am0kgbigt" x1="3.35" y1="3.12" x2="21.9" y2="24.43" gradientUnits="userSpaceOnUse"><stop stop-color="#1A1E21"/><stop offset="1" stop-color="#06060A"/></linearGradient></defs></svg>