<!-- by TradingView --><svg xmlns="http://www.w3.org/2000/svg" width="18" height="18" viewBox="0 0 18 18"><path fill="#F0F3FA" d="M0 0h18v18H0z"/><path opacity=".3" d="M9 14A5 5 0 1 0 9 4a5 5 0 0 0 0 10zm1.26-6.4c.12-.5.05-1.14-.56-2.02a4.12 4.12 0 0 1 3.01 5.02 3.8 3.8 0 0 1-1.8 2.35c-.74.41-1.81.74-2.6.3a1.5 1.5 0 0 1-.75-1.55c.1-.48.45-.96.82-1.41l.62-.7.33-.36c.41-.48.8-1.04.93-1.64z" fill="url(#ash1whq0k)"/><path d="M5.78 6.94c1.75-1.87 3.9-1.36 3.9-1.36l-.04-.05a3.87 3.87 0 0 0-3.86 1.41z" fill="#203BDB"/><path opacity=".6" d="M10.91 12.95c-.74.41-1.81.74-2.6.3a1.5 1.5 0 0 1-.75-1.55c.1-.48.45-.96.82-1.41l.62-.7.33-.36c-.56.58-1.4.87-2 1.33-.6.46-.8 1.16-.64 1.9.17.77.74 1.47 2.11 1.54.87.03 1.54-.54 2.11-1.05z" fill="url(#bsh1whq0k)"/><defs><linearGradient id="ash1whq0k" x1="14" y1="9.01" x2="4" y2="9.01" gradientUnits="userSpaceOnUse"><stop offset=".11" stop-color="#E25900"/><stop offset=".2" stop-color="#CBC91E"/><stop offset=".35" stop-color="#2DE2C1"/><stop offset=".46" stop-color="#3093D3"/><stop offset=".7" stop-color="#2024DE"/><stop offset="1" stop-color="#2624DF"/></linearGradient><linearGradient id="bsh1whq0k" x1="7.69" y1="11.39" x2="6.63" y2="11.44" gradientUnits="userSpaceOnUse"><stop stop-color="#203BDB"/><stop offset="1" stop-color="#2133DD" stop-opacity=".4"/></linearGradient></defs></svg>