<!-- by TradingView --><svg width="18" height="18" viewBox="0 0 18 18" xmlns="http://www.w3.org/2000/svg"><path fill="#343E47" d="M0 0h18v18H0z"/><path fill-rule="evenodd" d="M14 6.66a1.5 1.5 0 0 0-.77-1.26A1654.85 1654.85 0 0 0 9.8 3.25a1.4 1.4 0 0 0-1.6.01l-1.22.76-.65.4-.36.23-1.2.76c-.4.25-.77.75-.77 1.23v4.63c.02.56.3 1.03.77 1.33l1.78 1.11 1.64 1.03c.57.36 1.12.34 1.67-.02l1.79-1.12 1.63-1.02c.45-.3.68-.74.72-1.28V6.66ZM7 7.2c.37-.32.8-.6 1.2-.86l.47-.31c.23-.15.46-.14.68.01l.95.67.88.62c.38.26.37.7.37 1.14v.12c0 .1.02.18.1.23a35.63 35.63 0 0 0 1.14.75c.14.1.22.05.22-.13V8.18L13 7.45a1.37 1.37 0 0 0-.62-1.13l-.93-.64-1.81-1.26c-.44-.3-.86-.29-1.3.01-.4.3-.83.58-1.25.87L5.6 6.33c-.36.26-.54.65-.59 1.12-.02.24.17.36.34.46l.11.07 1.08.75 2.1 1.47-1.62-3Zm2.8 4.66c.42-.27.84-.54 1.2-.86L9.37 8l2.11 1.47a146.61 146.61 0 0 0 1.18.82c.18.1.37.22.35.46-.05.47-.23.86-.6 1.12-.5.35-1 .7-1.5 1.03l-1.25.87c-.43.3-.85.31-1.29.01l-1.81-1.26-.94-.64c-.38-.26-.6-.65-.61-1.13A106.23 106.23 0 0 0 5 8.76c0-.18.08-.23.22-.13l.49.32.65.43c.07.05.1.13.1.23v.12c0 .44-.01.88.37 1.14l.88.62c.3.22.6.44.95.67.22.15.45.16.67.01l.47-.3Z" fill="#00FFB2"/></svg>