<!-- by TradingView --><svg width="18" height="18" viewBox="0 0 18 18" xmlns="http://www.w3.org/2000/svg"><path fill="#F0F3FA" d="M0 0h18v18H0z"/><path d="M13.47 5.34C7.06 6.58 6.69 9 7.3 10.04c-.37-.82.27-2.8 5.8-4.14l.36-.56Z" fill="#592BB0"/><path d="M7.07 7.37c-.73 1.06-.45 1.8-.22 2.05-.37-2.63 4.38-4.07 6.8-4.46l.35-.65c-2.24.24-6.01 1.74-6.93 3.06Z" fill="#734BBB"/><path d="M5.89 6.16c-1.25 1.81.45 3.52 1.45 4.15-1.56-1.81-1.86-3.17-.46-4.43 1.41-1.26 3.82-2.16 5.97-2.5L12.13 3c-1.56.3-4.99 1.35-6.24 3.16Z" fill="#BCA1E6"/><path d="M13.1 3.6c-.76.07-2.8.53-4.97 1.77C6 6.6 6 8.05 6.26 8.65c-.02-.44.34-1.6 2-2.73 1.65-1.14 4.3-1.73 5.4-1.88l-.57-.44Z" fill="#804FC5"/><path d="M4.53 12.66c6.41-1.24 6.78-3.65 6.16-4.7.37.82-.27 2.8-5.8 4.14l-.36.56Z" fill="#592BB0"/><path d="M10.93 10.63c.73-1.06.45-1.8.22-2.05.37 2.63-4.38 4.07-6.8 4.46l-.35.65c2.24-.24 6.01-1.74 6.93-3.06Z" fill="#734BBB"/><path d="M12.11 11.84c1.25-1.81-.45-3.52-1.45-4.15 1.56 1.81 1.86 3.17.46 4.43-1.41 1.26-3.82 2.16-5.97 2.5l.72.38c1.56-.3 4.99-1.35 6.24-3.16Z" fill="#BCA1E6"/><path d="M4.9 14.4c.76-.07 2.8-.53 4.97-1.77C12 11.4 12 9.95 11.74 9.35c.02.44-.34 1.6-2 2.73-1.65 1.14-4.3 1.73-5.4 1.88l.57.44Z" fill="#804FC5"/></svg>