<!-- by TradingView --><svg width="18" height="18" fill="none" xmlns="http://www.w3.org/2000/svg"><path fill="url(#paint0_linear_1530)" d="M0 0h18v18H0z"/><path d="M9.168 6.663c.476-.331 1.544.188 1.927.473.552-.248 1.5-.847 1.445-1.638C12.471 4.51 10.471 4 9.483 4c-.742 0-3.492.063-3.905 2.558-.3 1.803 1.261 2.99 2.135 3.184.59.157 1.77.557 1.77.899 0 .427-.437.45-1.426.472-.908.02-1.754-.307-2.137-.472-.621.135-.897 2.404-.92 2.54-.023.134 2.736.92 4.253.808C10.77 13.877 13 13.023 13 10.641c0-2.382-3.172-3.034-3.517-3.191-.345-.157-.79-.455-.315-.787z" fill="#FFFEFF"/><defs><linearGradient id="paint0_linear_1530" x1="16.553" y1="1.834" x2="0" y2="14.504" gradientUnits="userSpaceOnUse"><stop stop-color="#F23145"/><stop offset="1" stop-color="#D81E5A"/></linearGradient></defs></svg>