<!-- by TradingView --><svg width="18" height="18" viewBox="0 0 18 18" xmlns="http://www.w3.org/2000/svg"><path fill="url(#agvwgk3qb)" d="M0 0h18v18H0z"/><path d="M5.61 6.54c.26-.36.57-.54.95-.54h9.13c.26 0 .36.11.29.34a.83.83 0 0 1-.11.2l-.38.55c-.22.3-.6.41-.96.41H6.54c-.17 0-.34.23-.48.42a.34.34 0 0 0-.05.1c-.04.11 0 .28.15.28h7.7c.4 0 .54.05.43.39-.04.12-.1.22-.16.31l-1.74 2.45c-.23.33-.55.52-.95.55H2.31c-.26 0-.36-.11-.29-.34a.83.83 0 0 1 .11-.2L3.3 9.81c.23-.33.55-.41.95-.45h7.42c.17 0 .34-.19.48-.37a.3.3 0 0 0 .05-.1c.03-.12-.01-.2-.14-.2H4.92c-.4 0-.56-.14-.45-.46.04-.1.1-.2.18-.32l.96-1.38Z" fill="#fff"/><defs><linearGradient id="agvwgk3qb" x1="3.35" y1="3.12" x2="21.9" y2="24.43" gradientUnits="userSpaceOnUse"><stop stop-color="#1A1E21"/><stop offset="1" stop-color="#06060A"/></linearGradient></defs></svg>