<!-- by TradingView --><svg width="18" height="18" xmlns="http://www.w3.org/2000/svg"><path fill="url(#paint0_linear)" d="M0 0h18v18H0z"/><path d="M13 5.007V7.1c0 .225-.187.199-.279.158-.3-.131-.539-.407-.625-.445-.087-.038-.101-.138-.1-.183V5.424c-.008-.176-.107-.244-.154-.256-.712-.32-2.564-1.096-2.688-1.142a.537.537 0 00-.324 0c-.698.31-2.506 1.074-2.643 1.142-.137.068-.188.199-.187.255v2.59c.004.171.132.247.187.264l2.69 1.246c.085.047.225.02.285 0l.509-.244c.098-.055.214-.023.26 0l.915.399c.147.102.061.2 0 .236-.42.194-1.322.603-1.562.688-.24.086-.507.036-.61 0-1.05-.464-3.201-1.423-3.417-1.548A.521.521 0 015 8.594V5.019c.011-.277.265-.437.387-.482 1-.448 3.064-1.37 3.318-1.477a.833.833 0 01.614 0c1.039.46 3.172 1.405 3.401 1.516a.48.48 0 01.278.432z" fill="#fff"/><path d="M5 12.993v-3.49c0-.225.187-.199.279-.158.3.131.53.336.617.373.087.038.101.138.1.184-.004.256-.01 2.47 0 2.646.008.175.107.243.154.255l2.688 1.176c.124.047.268.02.325 0l2.704-1.176c.135-.067.134-.195.133-.253v-.002s.004-2.476 0-2.646c-.004-.171-.078-.247-.133-.263L9.123 8.385c-.085-.047-.225-.02-.285 0l-.455.246c-.097.055-.213.023-.26 0l-.97-.39c-.146-.103-.06-.2 0-.237.422-.194 1.323-.603 1.563-.688.24-.085.507-.035.61 0 1.05.464 3.201 1.424 3.417 1.548.216.125.264.38.256.481v3.637c-.011.277-.265.437-.387.482-1 .448-3.064 1.37-3.318 1.477a.833.833 0 01-.614 0 395.136 395.136 0 01-3.401-1.516.487.487 0 01-.278-.432z" fill="#fff"/><path d="M7.003 12.335v-1.581c0-.134.09-.11.15-.086.562.213 1.698.646 1.751.668.053.022.112.01.135 0 .539-.2 1.652-.613 1.793-.668.141-.056.171.034.169.086-.002.504-.003 1.527 0 1.581.003.055-.044.098-.068.112-.576.228-1.75.693-1.832.73a.284.284 0 01-.213 0c-.544-.207-1.66-.633-1.769-.67a.158.158 0 01-.116-.172z" fill="#FDD35A"/><defs><linearGradient id="paint0_linear" x1="9" y1="0" x2="9" y2="18" gradientUnits="userSpaceOnUse"><stop stop-color="#25A7DF"/><stop offset="1" stop-color="#655BA7"/></linearGradient></defs></svg>