<!-- by TradingView --><svg width="18" height="18" viewBox="0 0 18 18" xmlns="http://www.w3.org/2000/svg"><path fill="#F0F3FA" d="M0 0h18v18H0z"/><path d="M11.56 5.85v.05a3.4 3.4 0 0 0-.8-.19c-.08 0-.1.03-.02.08l.3.22v.03h-.02a.94.94 0 0 0-.21-.14.96.96 0 0 1-.16-.1.54.54 0 0 0-.2-.08.25.25 0 0 1-.06-.04 3.96 3.96 0 0 0-.87-.25 1.77 1.77 0 0 0-.7.05 3.48 3.48 0 0 0-2 1.38c-.15.24-.26.49-.33.75v.07c.01.05.03.05.05 0a.51.51 0 0 1 .09-.13l.09-.13.02-.02h.01l.01.02c-.13.3-.22.6-.27.9a7.19 7.19 0 0 0-.08.82c0 .04.02.05.05 0l.05-.06c.03-.05.05-.04.05.02a10.55 10.55 0 0 0 0 .63 2.32 2.32 0 0 0 .19.38l-.01.01h-.02c-.13-.2-.2-.37-.21-.5 0-.1-.02-.2-.05-.31a.1.1 0 0 0-.06-.07.03.03 0 0 1-.02-.02 4.1 4.1 0 0 1 .07-.9 130.16 130.16 0 0 0 .09-.55l-.02.01c-.03.04-.05.03-.06-.01a.5.5 0 0 1 .02-.28c.17-.46.38-.8.63-1.06a4.2 4.2 0 0 1 .82-.66A6.62 6.62 0 0 0 4.96 7.9a1.5 1.5 0 0 0-.26.49 3.68 3.68 0 0 0-.04 1.53c.14.53.4 1 .78 1.42a1.6 1.6 0 0 0 .28.23l.01-.01c0-.02.02-.02.03-.02h.15a49.99 49.99 0 0 1 1.63.15c.04.02.06.04.08.07l.06.07.07.1a.2.2 0 0 1 .02.11 9.76 9.76 0 0 1-.04.5l.04.02c.3.08.66.12 1.05.12h.52c.23 0 .53-.04.9-.11.03-.01.06-.03.07-.05a4.81 4.81 0 0 1 .07-.43c.01-.04 0-.07-.02-.1a.09.09 0 0 0-.1-.02 7.33 7.33 0 0 1-1.56.27v-.02l.66-.09c.33-.04.63-.11.91-.22.17-.06.16-.08-.01-.07a2.94 2.94 0 0 1-1.6-.3 3.06 3.06 0 0 1-1.2-1.01 2.94 2.94 0 0 1-.36-.74 2.78 2.78 0 0 1 .05-2.1.07.07 0 0 0 0-.07c-.04-.08-.04-.18 0-.3l.16-.25a.17.17 0 0 1 .06-.04l.05-.03h.04l.03-.03a.22.22 0 0 1 .08-.08l.07-.03a5.82 5.82 0 0 1 .45-.02l.5-.05a7.12 7.12 0 0 1 1.07.02v.01l-.01.01a6.32 6.32 0 0 0-2.25.23.26.26 0 0 0-.06.05.87.87 0 0 0-.15.25c-.04.11-.04.2.01.27.03.03.05.04.09.03.16-.07.33-.1.51-.13a13.5 13.5 0 0 0 .74-.1c.31-.02.63-.03.97-.02.31 0 .62.08.93.2l.02.03c0 .01 0 .02-.02.02a.11.11 0 0 0-.05.1 5.17 5.17 0 0 1-.08.57l-.06.56a11.99 11.99 0 0 0-.05.87c.01.02.03.02.05.03a4.26 4.26 0 0 0 .83.01l.02-.02a5.76 5.76 0 0 0-.58-2.58h.03c.01.04.04.06.07.08.02.02.05.04.08.09l.04.04.02.01s.02 0 .02-.02c.01-.03.03-.04.05-.03l.01.02v.02c-.07.05-.08.12-.05.2l.02.14.02.1c0 .03.02.06.04.09h.02l.1-.2.01-.01a2 2 0 0 1 .65-.15c.22-.01.43 0 .65.03a1.83 1.83 0 0 1 .37.1l.2.1c.1.05.18.09.23.1.1.01.16-.03.2-.11a.3.3 0 0 0-.04-.32.68.68 0 0 0-.28-.22c0-.02.01-.04.03-.04.15.09.26.18.31.27.07.13.06.26-.03.4v.03c.05.12.07.26.06.4 0 .12-.04.26-.1.42-.06.22-.18.4-.36.55a.05.05 0 0 0-.02.04c.02.16 0 .31-.03.46-.18.76-.65 1.3-1.4 1.63a2.4 2.4 0 0 0-.19.1 10.14 10.14 0 0 1-.72.36 3 3 0 0 0-.12.4c-.01.04 0 .1.04.17l.02.02a.37.37 0 0 1 .19.37v.07a4.66 4.66 0 0 1 .64.47c-.03.04-.06.04-.1 0a5.97 5.97 0 0 0-.56-.39l-.01.02a.4.4 0 0 1-.24.2 5.05 5.05 0 0 1-1.47.29 6.3 6.3 0 0 1-.88-.1c-.08-.02-.08 0-.01.04a3.02 3.02 0 0 1 .17.11l.55.31c.13.08.22.17.26.25-.4-.28-.81-.5-1.24-.7-.21-.1-.42-.15-.63-.18-.06 0-.07.01-.03.06.11.13.24.25.37.36l.46.33.04.02.1.06c.02 0 .02 0 0 0a.24.24 0 0 1-.14-.03 13.38 13.38 0 0 0-.5-.36c-.1-.09-.2-.17-.27-.25a.1.1 0 0 0-.12-.03.06.06 0 0 0-.04.04v.04c.04.14.1.25.17.34v.01l-.07-.03a.07.07 0 0 1-.03-.03l-.05-.09a.03.03 0 0 0-.02-.02c-.03 0-.06.01-.07.04l-.03.01-.05-.01.1-.09c.03 0 .03-.02.02-.04a.23.23 0 0 1-.02-.13c.01-.05.04-.08.08-.09h.02v-.04a.15.15 0 0 1-.03-.09l.01-.03.04-.01.3.05.02-.02a26.2 26.2 0 0 1 .18-1.39l-.01-.04a.06.06 0 0 0-.04-.03 338.6 338.6 0 0 0-1.73-.15l-.02.01-.1.76a.35.35 0 0 1-.03-.22 2.49 2.49 0 0 0 .03-.46 3.03 3.03 0 0 1-.8-1 7.37 7.37 0 0 1-.18-.37 1.98 1.98 0 0 1-.13-.4 3.2 3.2 0 0 1 .07-1.64c.06-.16.17-.32.34-.47a.13.13 0 0 0 .05-.07v-.03L5 7.68c-.11 0-.2.02-.3.07a3.42 3.42 0 0 0-.42.41c-.08.08-.13.23-.15.44a5.2 5.2 0 0 0 0 1.08c.03.38.12.73.24 1.04a6.6 6.6 0 0 0 .72 1.25 3.87 3.87 0 0 0 .57.58l-.04.1h-.03a.26.26 0 0 1-.08-.06.56.56 0 0 1-.04-.07 5.67 5.67 0 0 0-.3-.35 6.45 6.45 0 0 1-.9-1.53 3.79 3.79 0 0 1-.23-1.43l.03-.53c.02-.14.04-.28.08-.44v-.02h-.03c-.03 0-.05 0-.06-.02l.13-.06a.37.37 0 0 0 .1-.1c.1-.12.22-.22.35-.3.14-.09.29-.12.42-.1.03 0 .05-.01.07-.03a6.76 6.76 0 0 1 3.72-2.19c.23-.06.44-.07.61-.04a4.67 4.67 0 0 1 .97.25l.03-.01.04.01c.01.02.03.03.06.03.17 0 .34.01.5.05.14.02.3.07.5.14Z" fill="#010101"/><path d="M11.56 5.9c.28.13.55.3.79.5.1.08.2.17.27.27a4.04 4.04 0 0 1 .26.43.15.15 0 0 1-.05-.07.25.25 0 0 0-.05-.08c-.1-.11-.19-.18-.23-.2-.3-.14-.6-.18-.92-.12h-.04a1.65 1.65 0 0 1-.12-.06.63.63 0 0 0-.77.13.2.2 0 0 1-.11.07c-.05 0-.1-.01-.13-.05-.18-.2-.37-.35-.57-.45a.94.94 0 0 0-.69-.08 7.08 7.08 0 0 1-.3.08.2.2 0 0 1-.14.07 2.19 2.19 0 0 0-.68.12c-.28.1-.45.24-.51.42a.22.22 0 0 0-.08.08l-.03.02-.04.01a.46.46 0 0 0-.05.03.17.17 0 0 0-.06.04c-.07.1-.12.18-.15.26-.05.11-.05.21-.01.29v.06c-.3.64-.31 1.34-.06 2.11a2.94 2.94 0 0 0 1.58 1.76 3.35 3.35 0 0 0 1.59.3c.17-.02.18 0 .01.06-.28.1-.58.18-.91.22a418.6 418.6 0 0 0-.66.1v.02a7.34 7.34 0 0 0 1.57-.27c.03-.02.06 0 .09.02.02.02.03.05.03.08a4.76 4.76 0 0 0-.08.44.12.12 0 0 1-.08.05 4.8 4.8 0 0 1-1.41.11 4.1 4.1 0 0 1-1.09-.15 9.75 9.75 0 0 0 .04-.5.2.2 0 0 0-.02-.1.62.62 0 0 0-.07-.1.98.98 0 0 1-.06-.07.17.17 0 0 0-.08-.07 50 50 0 0 0-1.78-.16l-.03.03H5.7a1.6 1.6 0 0 1-.26-.22 3.34 3.34 0 0 1-.84-1.77c-.03-.46 0-.85.1-1.18.05-.16.13-.32.26-.48a4.99 4.99 0 0 1 .76-.82 6.62 6.62 0 0 1 2.21-1.3c-.3.19-.57.4-.82.65s-.46.6-.63 1.06a.5.5 0 0 0-.02.28c.01.04.03.05.06.01l.02-.01c.01-.01.02 0 .01.01l-.1.54a4.1 4.1 0 0 0-.07.9l.02.02a.1.1 0 0 1 .06.07c.03.1.04.21.05.3 0 .14.08.3.2.51h.03v-.02c-.1-.18-.16-.3-.18-.37a10.52 10.52 0 0 1 0-.63c0-.06-.02-.07-.05-.02l-.05.07c-.03.04-.05.03-.05-.01v-.09c.01-.24.04-.49.08-.74a3.92 3.92 0 0 1 .26-.9h-.03a.52.52 0 0 1-.1.14.51.51 0 0 0-.08.13c-.02.05-.04.05-.05 0v-.07a3.01 3.01 0 0 1 .88-1.38 3.44 3.44 0 0 1 1.45-.75c.26-.06.5-.08.7-.04a3.96 3.96 0 0 1 1.13.36l.16.1c.07.03.14.08.21.15h.02V6l-.3-.22c-.07-.05-.06-.08.03-.08a3.4 3.4 0 0 1 .8.2Z" fill="#FF9300"/><path d="M13.01 7.21c-.02 0-.03.02-.03.04a3.4 3.4 0 0 0-1.13-.19c-.02 0-.02 0-.03-.02v-.01c0-.02 0-.03.02-.03.3 0 .61.05.94.13.05.01.06 0 .03-.04a.91.91 0 0 0-.58-.4 1.5 1.5 0 0 0-.4-.03c-.12 0-.25.03-.4.06a.85.85 0 0 0-.42.21c0 .01-.02.02-.03.01V6.9c.04-.06.1-.1.17-.14a2.08 2.08 0 0 1 .26-.1c.06-.03.06-.05 0-.08a.55.55 0 0 0-.31-.04.5.5 0 0 0-.3.13v.03c0 .04-.03.08-.07.11l-.01.03.01.02c.02.02.03.04.02.07l-.01.02h-.03c-.12-.06-.21-.13-.29-.22A2.45 2.45 0 0 0 10 6.4a.95.95 0 0 0-.93-.11c-.02 0-.02.01 0 .02.1.04.2.07.3.08a1.55 1.55 0 0 1 .41.14v.01c-.01.02-.02.02-.03.01-.2-.07-.38-.12-.56-.14a3.1 3.1 0 0 0-.57 0c-.19.02-.37.06-.55.12a.93.93 0 0 0-.42.28l-.01.03v.02l-.07.03c.06-.18.23-.32.51-.42a2.13 2.13 0 0 1 .69-.12.2.2 0 0 0 .14-.07l.03-.01.26-.07a.94.94 0 0 1 .7.08c.19.1.38.25.56.45.04.04.08.05.13.05a.2.2 0 0 0 .12-.07.63.63 0 0 1 .76-.13l.13.05h.03c.32-.05.63-.01.92.13.05.02.12.09.23.2l.05.08.05.07c.03.02.03.01.02-.02a4.04 4.04 0 0 0-.28-.41 1.7 1.7 0 0 0-.27-.28c-.24-.2-.5-.36-.79-.49v-.05c.33.14.62.32.86.54.26.23.45.5.6.82Z" fill="#252928"/><path d="M12.98 7.25c.13.06.22.13.28.22.08.1.09.2.04.32-.04.08-.1.12-.2.1a.74.74 0 0 1-.23-.1.95.95 0 0 0-.2-.09 6.52 6.52 0 0 1-.37-.1 3.04 3.04 0 0 0-.65-.03 2 2 0 0 0-.66.16l-.1.2h-.02a.27.27 0 0 1-.04-.1l-.02-.1a.58.58 0 0 0-.02-.14c-.03-.07-.02-.14.05-.2v-.03c-.03-.01-.05 0-.06.03l-.02.02h-.02a.72.72 0 0 1-.04-.05.31.31 0 0 0-.08-.09.22.22 0 0 1-.08-.07l-.01-.01h-.02v.02a1.62 1.62 0 0 1 .23.5 5.76 5.76 0 0 1 .36 2.06c0 .01 0 .02-.02.02a4.26 4.26 0 0 1-.88-.04 4.07 4.07 0 0 1 .24-2.1l.02-.02-.02-.02c-.3-.13-.62-.2-.94-.2a10.02 10.02 0 0 0-1.7.11 2.2 2.2 0 0 0-.52.13c-.03.01-.06 0-.08-.03-.05-.07-.05-.16-.01-.27a.87.87 0 0 1 .15-.25.26.26 0 0 1 .06-.05 6.32 6.32 0 0 1 2.25-.24h.01v-.02l-.02-.01a7.11 7.11 0 0 0-1.55.05 2.84 2.84 0 0 1-.45.02v-.02l.01-.03c.11-.13.25-.22.42-.28.18-.06.36-.1.55-.12.18-.02.37-.02.57 0 .18.02.37.07.56.14h.03v-.02c-.14-.07-.27-.11-.4-.14-.11-.01-.21-.04-.31-.08-.02 0-.02-.02 0-.02.32-.13.63-.1.93.1.17.12.3.24.42.36.08.09.17.16.29.22h.03l.01-.02c0-.03 0-.05-.02-.07l-.01-.02.01-.03a.14.14 0 0 0 .06-.11c0-.02.01-.03.02-.03a.5.5 0 0 1 .29-.13c.11-.02.22 0 .31.04.06.03.05.05 0 .07a5.51 5.51 0 0 1-.26.11.62.62 0 0 0-.17.14v.03h.03c.1-.1.24-.17.43-.22l.39-.06c.13 0 .27 0 .4.03.25.06.44.19.58.4.03.04.02.05-.03.04a3.96 3.96 0 0 0-.94-.13c-.01 0-.02.01-.02.03v.01c0 .01.01.02.03.02.39 0 .76.06 1.13.2Z" fill="#CCBD9E"/><path d="M11.42 7.05a.82.82 0 0 0-.34.19h-.03V7.2a.43.43 0 0 1 .14-.12 1.9 1.9 0 0 1 .25-.1v.03c0 .01 0 .02-.02.03Z" fill="#252928"/><path d="M9.69 7.92a.44.44 0 0 0-.07-.19 1.3 1.3 0 0 0-.13-.16c-.01-.02 0-.03.02-.03.08.01.16.02.24.01.14 0 .3.03.48.09.01 0 .03.01.03.03.03.09.04.18.04.27-.02.44-.13.78-.33 1a.7.7 0 0 1-.3.17c-.3.1-.56.16-.8.18a1.3 1.3 0 0 1-1.1-.42c-.09-.1-.18-.2-.25-.32-.16-.25-.25-.5-.26-.77l.01-.03c.06-.05.11-.08.16-.07.12 0 .24 0 .36-.02h.03v.03c-.07.17-.1.35-.09.51.02.19.08.34.2.45.13.13.3.22.54.3l.3.03a1.02 1.02 0 0 0 .58-.22.94.94 0 0 0 .21-.22c.1-.16.15-.37.13-.62Z" fill="#fff"/><path d="M9.08 7.91a.86.86 0 0 0-.15-.1l-.02-.02v-.03c.04-.13.12-.16.25-.11a.4.4 0 0 1 .16.12.5.5 0 0 1 .1.19c.01.07.02.14.01.2a.5.5 0 0 1-.06.2.25.25 0 0 1-.14.12.07.07 0 0 1-.07-.01c-.03-.02-.04-.05-.04-.1l.01-.13a.86.86 0 0 0 .02-.18.2.2 0 0 0-.07-.15Z" fill="#fff"/><path d="m5.68 12.35-.05.53A5.11 5.11 0 0 1 3.9 8.27l.16-.07c0 .02.03.03.06.01h.03v.03c-.04.16-.06.3-.08.44a7.66 7.66 0 0 0 0 1.05c.04.35.1.65.2.9a6.45 6.45 0 0 0 .9 1.53 5.67 5.67 0 0 1 .3.36l.04.07.08.07.03-.01a.37.37 0 0 0 .04-.1c0-.02 0-.04-.03-.05a3.87 3.87 0 0 1-.92-1.08 6.6 6.6 0 0 1-.34-.7 3.78 3.78 0 0 1-.25-1.04 5.2 5.2 0 0 1 0-1.08c.03-.21.08-.36.16-.43l.1-.11a1.13 1.13 0 0 1 .2-.22.87.87 0 0 1 .12-.09c.1-.05.19-.08.3-.07h.02v.04c0 .02-.01.05-.04.07-.17.15-.28.3-.34.47a3.2 3.2 0 0 0-.07 1.65c.02.11.06.24.13.4l.19.37.01.03c.2.38.46.7.78.96.01 0 .02.02.01.03l-.02.24-.02.19c-.02.08 0 .15.03.22Z" fill="#252928"/><path d="M8.35 7.99a1 1 0 0 0 0 .06v.13a.13.13 0 0 1-.08.1c-.06.03-.12.01-.17-.05A.37.37 0 0 1 8.04 8c0-.1.01-.16.05-.21.05-.06.12-.07.2-.03.03.01.05.04.06.07V8ZM12.27 7.93a.7.7 0 0 0-.08-.08v-.02l.01-.02c.21-.08.34-.02.4.19a.59.59 0 0 1 0 .25c-.02.1-.08.16-.17.15l-.03-.01-.01-.04a2.8 2.8 0 0 1-.05-.27.41.41 0 0 0-.07-.15Z" fill="#fff"/><path d="M12 9.28c-.16-.1-.3-.18-.43-.24-.15-.07-.3-.12-.45-.15a6.53 6.53 0 0 0-.2-.83l.01-.13c.03-.1.1-.15.2-.13.01 0 .02 0 .03.02.02.05.03.1.03.16v.05l.03.23c.01.08.03.15.07.21a.8.8 0 0 0 .61.42c.18.03.34.01.49-.05a.68.68 0 0 0 .35-.32c.1-.18.14-.35.13-.52 0-.04.02-.05.06-.04l.16.05.04.03.02.05a.9.9 0 0 1-.14.44c-.06.1-.16.23-.3.38-.15.18-.35.32-.59.41h-.05a.23.23 0 0 1-.05-.03L12 9.28Z" fill="#fff"/><path d="m7.21 8.52-.01.02.05.15c.01.06 0 .1-.01.14a.77.77 0 0 1-.09.11c-.05.06-.1.13-.14.21-.01.02-.02.02-.02 0-.07-.41-.03-.82.1-1.2a.24.24 0 0 1 .1-.12h.02c.04.22.1.42.2.6.09.18.2.35.35.48.37.35.8.48 1.28.4.37-.06.7-.16.99-.31l.15-.06h.02v.02l-.04.46-.03.03a1.46 1.46 0 0 0-.81.45.35.35 0 0 0-.1.2c0 .08.01.15.06.23.12.22.3.37.5.45a2.11 2.11 0 0 0 .4.1c.02 0 .03.01.03.03-.02.12-.01.21.02.28.02.06.06.07.1.04.03-.02.05-.05.07-.1l.01-.14.01-.07c0-.02.01-.02.03-.02.4 0 .76-.08 1.1-.27a.53.53 0 0 0 .16-.12l.1-.17a.38.38 0 0 0-.09-.36 1.16 1.16 0 0 0-.53-.36.04.04 0 0 1-.03-.03 6.32 6.32 0 0 0-.04-.65c.04 0 .08 0 .12.02.28.09.55.22.81.41.19.13.37.32.53.55.04.05.06.11.07.18 0 .07-.01.14-.04.2a2.37 2.37 0 0 1-1.86 1.26 3.1 3.1 0 0 1-.84-.02c-.3-.05-.56-.14-.77-.28a3.2 3.2 0 0 1-.5-.42h-.03v.03c.14.15.28.27.42.37.16.12.33.2.5.25a3 3 0 0 0 1.42.1l.01.01v.02l-.27.1a2.88 2.88 0 0 1-1.97-.21 2.74 2.74 0 0 1-1.36-1.23.1.1 0 0 1 0-.07.83.83 0 0 1 .17-.35c.07-.1.17-.19.3-.3a.2.2 0 0 1 .08-.03l.08-.02h.06a.1.1 0 0 1 .05 0 .3.3 0 0 1 .06.03h.01V9.5c-.43-.2-.74-.53-.94-.97h-.02Z" fill="#CCBD9E"/><path d="m11.75 7.98.04.3c0 .01 0 .03-.02.05a.07.07 0 0 1-.06.03h-.05a.08.08 0 0 1-.07-.05l-.06-.14v-.06l.07-.15.03-.03.05-.01c.02 0 .03 0 .05.02l.02.04Z" fill="#fff"/><path d="M13.17 7.99c-.02-.02-.01-.04 0-.06a.05.05 0 0 1 .06 0c.02 0 .03 0 .04.02.04.12.06.24.04.36a2.25 2.25 0 0 1-.22.68c-.17.25-.41.44-.7.58h-.03l-.23-.2c.2-.08.35-.18.49-.3.23-.22.4-.44.5-.67.04-.1.06-.21.07-.36 0-.02 0-.04-.02-.05Z" fill="#CCBD9E"/><path d="M12.03 8.7c.06.03.13.01.15-.03.03-.05 0-.11-.06-.14-.06-.03-.12-.02-.15.03-.02.05 0 .11.06.14ZM8.72 8.79c.09 0 .16-.05.16-.1 0-.07-.06-.12-.15-.13-.08 0-.16.05-.16.1 0 .07.07.12.15.13Z" fill="#fff"/><path d="M7.92 9.46a1.57 1.57 0 0 0-.6.69c0 .02-.02.02-.03 0a3.28 3.28 0 0 1-.27-.93 1.48 1.48 0 0 1 .3-.4l.02.02c.15.22.34.41.58.57v.05ZM12.65 9.92a6.94 6.94 0 0 0-.22-.3l.01-.02.35-.2c.02-.02.03-.01.03 0 .02.1.01.19 0 .28a5.55 5.55 0 0 1-.13.35l-.02-.07a.12.12 0 0 0-.02-.04ZM10.18 9.8a.46.46 0 0 0 .19.04 6.73 6.73 0 0 0 .7.01c.03 0 .04-.01.05-.03a.28.28 0 0 0 .04-.13l.01-.02h.03c.07.02.15.06.23.11l.2.17c.07.07.11.14.13.21.02.08 0 .17-.04.25a.42.42 0 0 1-.14.15l-.19.1-.03.01-.2.09c-.2.07-.44.1-.7.1 0 0-.02 0-.03-.02v-.04a.46.46 0 0 1 .1-.1.18.18 0 0 0 .05-.07.68.68 0 0 0 .03-.14c0-.03.02-.05.06-.06.1-.03.22-.04.35-.04.06 0 .12-.02.16-.08v-.03c-.02-.06-.08-.1-.16-.14a.85.85 0 0 0-.22-.05 1.6 1.6 0 0 0-.73.07.14.14 0 0 0-.08.06.08.08 0 0 0-.01.06c0 .02.02.04.03.05l.11.08c.03.02.04.05.04.08-.02.1-.01.2 0 .3.01.02 0 .03-.01.03a.97.97 0 0 1-.78-.42.55.55 0 0 1-.1-.22.27.27 0 0 1 .07-.24c.21-.23.47-.38.78-.44.01 0 .02 0 .02.02v.23c0 .02.02.04.04.04Z" fill="#9E5804"/><path d="M10.92 9.69c.04-.04.05-.08.03-.1-.01-.02-.06-.01-.1.03-.04.03-.05.08-.03.1.01.02.06 0 .1-.03ZM9.05 9.97a.59.59 0 0 0 .02.27c.02.1.07.18.12.26v.02h-.03A.74.74 0 0 1 9 9.99c0-.01 0-.03.02-.04.03-.06.05-.05.03.02Z" fill="#010101"/><path d="M10.23 10.79a.13.13 0 0 1-.04-.1l.01-.3c0-.02 0-.03.02-.04h.04c.1.05.2.07.29.05l.02.01v.02c0 .08-.02.16-.05.23l-.03.03a.15.15 0 0 0-.1.12l-.03.3c0 .04-.02.07-.05.1h-.02c-.01 0-.02 0-.02-.02a.35.35 0 0 1-.03-.14v-.16l.01-.03c0-.03 0-.05-.02-.07Z" fill="#fff"/><path d="m6.86 13.68-.35-.17c.05-.01.08-.04.1-.08.02-.1-.1-.17-.37-.23 0-.07 0-.11-.04-.13-.17-.1-.36-.16-.57-.18l.05-.54.1-.76.02-.01.32.01a338.77 338.77 0 0 1 1.4.14c.02 0 .04.01.05.03v.04a2.17 2.17 0 0 0-.03.3 26.18 26.18 0 0 0-.17 1.1l-.3-.04h-.03a.04.04 0 0 0-.01.04c0 .04.01.07.03.1v.02l-.02.01c-.04.01-.07.04-.08.09 0 .04 0 .08.02.13l-.01.04-.11.09Z" fill="#90ACB0"/><path d="M6.24 11.89c.02.03.02.07 0 .1a.15.15 0 0 1-.07.08.14.14 0 0 1-.11.01.12.12 0 0 1-.08-.06.12.12 0 0 1 0-.1.15.15 0 0 1 .07-.09.15.15 0 0 1 .1 0c.05 0 .07.03.09.06Z" fill="#fff"/><path d="m7.73 12-.15 1.24a.02.02 0 0 1-.03.02l-.1-.02-.01-.03.18-1.35.01-.02.02.01.08.14Z" fill="#90ACB0"/><path d="M6.18 11.96c0 .02 0 .04-.02.06a.08.08 0 0 1-.06.02c-.02 0-.04 0-.06-.02a.08.08 0 0 1-.02-.06c0-.03 0-.04.02-.06a.08.08 0 0 1 .06-.03l.06.03.02.06Z" fill="#010101"/><path d="M10.43 12.6v-.05c-.01-.01 0-.02 0 0 .06.02.1.07.13.13.1.23.02.4-.22.5a4.93 4.93 0 0 1-1.35.25 8.2 8.2 0 0 1-1.36-.19v-.03l.08-.54.01-.03h.03a4.48 4.48 0 0 0 1.01.13 5.73 5.73 0 0 0 1.67-.17ZM6.5 13.5a.05.05 0 0 1-.01-.01v-.02c.04-.02.06-.04.07-.06v-.03a.4.4 0 0 0-.21-.1.94.94 0 0 0-.23-.04l-.06-.01v-.03l.01-.02.1-.03c.01 0 .02 0 .02-.02l-.01-.03a.93.93 0 0 0-.42-.13.15.15 0 0 1-.07-.03.27.27 0 0 1-.06-.05c.2.02.4.08.57.18.03.02.05.06.04.12.27.07.39.14.36.24-.01.04-.04.07-.1.08Z" fill="#252928"/><path d="m11.3 13.37.14.12.03.03c-.75.4-1.55.61-2.4.62-.06 0-.08-.01-.06-.04a.67.67 0 0 0-.26-.25 7.46 7.46 0 0 0-.72-.42c-.07-.04-.07-.06.01-.04.29.05.58.08.88.1.16 0 .32 0 .47-.03.36-.06.7-.14 1-.26a.4.4 0 0 0 .23-.2.03.03 0 0 1 .05-.01c.2.12.37.26.53.39.04.03.07.03.1 0Z" fill="#252928"/><path fill-rule="evenodd" d="m12.9 4.44-.3-.24a6.02 6.02 0 0 0-8.97 2.13l-.17.37-.13.35-.17.58a6.29 6.29 0 0 0-.11 2.14c.04.3.1.62.2.93l.1.33a6 6 0 0 0 10.59 1.38l.2-.3a6.06 6.06 0 0 0 .78-4.1 6 6 0 0 0-1.6-3.18l-.23-.22-.2-.17ZM9 14A5 5 0 1 0 9 4a5 5 0 0 0 0 10Z" fill="#FF9300"/></svg>