<!-- by TradingView --><svg width="18" height="18" viewBox="0 0 18 18" xmlns="http://www.w3.org/2000/svg"><path fill="url(#a4105vxju)" d="M0 0h18v18H0z"/><path d="M4.9 10.1a2.7 2.7 0 0 1-.1-3.94l.93-.94a.75.75 0 0 1 1.03-.03c.3.27.3.71.03 1l-.93.94c-.55.55-.53 1.43.05 1.96.58.53 1.49.5 2.04-.05l.94-.96a3.05 3.05 0 0 1 4.19-.1 2.76 2.76 0 0 1 .1 4.02l-.77.78a.75.75 0 0 1-1.03.03.68.68 0 0 1-.03-1l.78-.77A1.4 1.4 0 0 0 12.07 9a1.55 1.55 0 0 0-2.12.05l-.94.95a2.99 2.99 0 0 1-4.1.1Zm2.14 2.28a.7.7 0 0 1 .56-.83c.52-.1 1.92-.65 2.86-1.92a.75.75 0 0 1 1.02-.16c.32.22.4.66.17.97a6.76 6.76 0 0 1-3.74 2.48.73.73 0 0 1-.87-.54Zm2.84-5.55a.7.7 0 0 0 .56-.83.73.73 0 0 0-.87-.54c-.77.16-2.16.6-3.37 2.22a.68.68 0 0 0 .17.98c.33.22.79.15 1.02-.17a4 4 0 0 1 2.49-1.66Z" fill="url(#b4105vxju)"/><defs><linearGradient id="a4105vxju" x1="3.35" y1="3.12" x2="21.9" y2="24.43" gradientUnits="userSpaceOnUse"><stop stop-color="#1A1E21"/><stop offset="1" stop-color="#06060A"/></linearGradient><linearGradient id="b4105vxju" x1="3.38" y1="8.82" x2="13.13" y2="8.82" gradientUnits="userSpaceOnUse"><stop stop-color="#FF9050"/><stop offset="1" stop-color="#FB5E39"/></linearGradient></defs></svg>