<!-- by TradingView --><svg width="18" height="18" viewBox="0 0 18 18" xmlns="http://www.w3.org/2000/svg"><path fill="#F0F3FA" d="M0 0h18v18H0z"/><path d="M9.17 14H7.55c-.28 0-.48-.15-.62-.46-.5-1.07-1-1.74-1.5-2.8-.2-.45-.1-.74.3-.74h2.14c.3 0 .5.2.64.52.35.78 1.09 1.93 1.09 1.93s.08.2.16.3c.05.07.28.2.5.06.21-.15.19-.31.07-.58-.4-.83-.79-1.65-1.16-2.49-.07-.15-.14-.34-.03-.51.08-.13.22-.23.33-.23h2.1c.28 0 .48.13.62.45.24.52.48 1.04.73 1.54.13.26.1.46-.05.67-.5.68-1 1.38-1.51 2.04a.78.78 0 0 1-.53.28c-.55.04-1.1.01-1.66.01Z" fill="#FFA529"/><path d="M8.81 4c.53 0 1.06.02 1.6 0 .3 0 .5.14.66.48.5 1.07 1 1.76 1.5 2.83.2.43.1.7-.3.7h-2.13c-.46 0-.66-.51-.66-.51L8.36 5.5l-.14-.28a.37.37 0 0 0-.47-.06c-.23.14-.18.39-.07.62.35.74.73 1.47 1.06 2.22.11.24.33.5.15.78-.11.17-.34.21-.59.21H6.44c-.29 0-.5-.13-.65-.46-.22-.51-.46-1.02-.7-1.51-.14-.27-.11-.48.05-.7.5-.66.96-1.35 1.47-1.99.14-.18.38-.3.58-.32.54-.04 1.08-.01 1.62-.01Z" fill="#1740FF"/></svg>