<!-- by TradingView --><svg width="18" height="18" viewBox="0 0 18 18" xmlns="http://www.w3.org/2000/svg"><path fill="#52DFFF" d="M0 0h18v18H0z"/><path d="M14 4.14A61.82 61.82 0 0 0 8 7c.22.07.77.22 1.18.2.4-.01 1.14-.14 1.46-.2L14 5.13v-.99Z" fill="#9B35B8"/><path d="M14 6.84V5.12l-3.45 1.85c.17 0 .56.06.75.25.2.2.16.85.12 1.16l1.32-.83L14 6.84Z" fill="url(#apj0xljcj)"/><path d="M7.43 7.02c-.75 0-1.12.49-1.21.73-.02.34-.02 1.08.11 1.28.16.25.4.6.88 1.04.48.43.49.7 1.19.7s1.74-.5 1.93-.83c.2-.32.31-.56.64-.8.33-.23.5-.6.5-1.16 0-.55-.24-.96-.83-.96s-1 .2-1.68.2c-.68 0-.6-.2-1.53-.2Z" fill="url(#bpj0xljcj)"/><path d="M6.07 12.82c.27-.04.38.37.42.42-.05.14-.06.1-.15.2a.24.24 0 0 0-.04.06.42.42 0 0 1-.16.18c-.46.28-1.9.26-1.92-.5 0-.02.07-.08.06-.14.28.04.5.01.77-.04a2.12 2.12 0 0 0 .34-.1c.04.15.16.24.3.3.11.05.21.05.3-.01.1-.07.09-.18-.05-.16-.05.01-.1.03-.15.02v-.01c.1-.06.19-.12.28-.22Z" fill="#0033A8"/><path d="M14 4V4.19l-.4.15-.02.01-.68.28-.54.25-.08.03-.58.28-.06.02a33.57 33.57 0 0 0-1.26.59l-.07.02-.68.36-.05.03-.74.4-.02.02a.74.74 0 0 0-.08.03c-.14.08-.3.16-.44.26l-.14.08V7l.28.05h.03l.33.04H9.26L9.74 7c.16-.02.33-.06.5-.07l.43-.03h.03c.15 0 .24 0 .37.04l.03.01c.22.1.36.24.4.5-.02.02-.02.05-.01.1a2.1 2.1 0 0 1 .03.3v.16l-.02.12v.11l.4-.28.03-.02.4-.26.14-.1.25-.14.01-.01.64-.37.1-.05.25-.14c.08-.02.17-.07.25-.1l.01-.03.01-.01.01.02v.2c-.3.13-.59.28-.88.45l-.03.01-.4.24c-.4.26-.82.49-1.2.78l-.02.04a1.7 1.7 0 0 1-.4.76.55.55 0 0 0-.14.08h-.01l-.05.01c-.15.12-.27.27-.37.43-.14.24-.17.5-.47.61a4 4 0 0 1-1.48.42c-.3 0-.56.03-.83-.13-.04-.02-.08-.01-.11-.04-.1-.08-.2-.17-.28-.26a.29.29 0 0 1-.06-.1h-.02c-.43.4-.75 1-.58 1.61.09.32.18.61.1.94-.08.29-.23.57-.42.8-.21.25-.51.39-.85.4-.18 0-.36 0-.54-.04-.3-.06-.6-.17-.75-.47l-.08-.12c-.04-.12-.08-.3-.03-.41v-.02c-.13-.06-.1-.25-.1-.36.01-.05.05-.07.07-.1a.95.95 0 0 1 .68-.41c.11-.04.23-.05.35-.05a.2.2 0 0 1 .12.03c.09.05.15.07.21.17v.01c.11.05.2.22.18.33 0 .08-.02.16-.07.22 0 .04.03.15.09.14.3-.05.5-.32.53-.61.02-.36-.13-.7-.12-1.05.01-.4.23-.68.52-.93a84.05 84.05 0 0 1 .45-.4 2.1 2.1 0 0 0-.29-.33 1.83 1.83 0 0 1-.11-.12c-.09-.1-.2-.19-.26-.27a.89.89 0 0 1-.15-.3c-.07-.29-.1-.58-.08-.87l-.02-.11c0-.23.1-.41.26-.56.07-.06.12-.13.2-.17a3.18 3.18 0 0 1 .6-.27l.27-.01c.18-.01.34 0 .5.05h.03c.24-.18.49-.34.75-.48.43-.24.86-.48 1.3-.7.4-.22.8-.41 1.22-.6.58-.25 1.16-.52 1.73-.78.33-.15.67-.27 1-.4.01 0 .04-.02.04 0Zm-3.52 3.1h-.02a4.94 4.94 0 0 0-.7.09l-.18.04a2.82 2.82 0 0 1-.81.04l-.13-.02-.16-.01-.73-.13-.12-.01a.99.99 0 0 0-.56.1l-.04-.01h-.01l-.36.17-.02.01-.13.08a.3.3 0 0 0-.15.13v.02c-.05.1-.07.2-.09.3V8c-.02.07-.02.13 0 .18.03.05.02.08.02.12v.04c0 .05 0 .1.02.13v.02c0 .17.04.33.1.48l.03.06c.01.02.02.03.01.04a7.27 7.27 0 0 0 .29.3l.03.05.21.23.01.02c.05.05.09.11.12.18l.12-.09.03-.02.02-.02.01-.02c-.06-.16-.22-.26-.36-.35l-.08-.07-.02-.03s0-.02-.02-.02a.56.56 0 0 1-.21-.24l-.01-.03h-.01a.11.11 0 0 1-.07.04c-.04 0-.06-.03-.07-.07-.02-.1.06-.18.14-.21.08-.04.2-.04.2.08l-.01.03-.05.05c0 .02.01.02.02.03l.01.02c.05.06.11.12.18.15.03.02.04.04.05.07.13.1.31.2.42.34l.1.16.02.07.02.03c.13.26.35.42.63.48h.03c.1.04.22.05.33.06l.26-.01h.06l.28-.07h.03c.15-.05.29-.1.41-.18l.04-.02c.02 0 .03-.01.03-.02.12-.06.21-.14.28-.25l.15-.26.02-.04.04-.09.03-.05.03-.06.15-.23.02-.03c.05-.06.08-.1.15-.14a.58.58 0 0 0 .13-.1.25.25 0 0 0 .06-.05l.17-.15a.35.35 0 0 1 .05-.1l.04-.05.01-.03.08-.17v-.01c-.04-.03-.06-.06-.06-.09 0-.05.03-.08.07-.08.13 0 .24.03.25.17v.08l-.04.04c-.04 0-.06 0-.07-.03a.01.01 0 0 0-.01 0h-.01l-.01.08-.07.15-.01.02a1.53 1.53 0 0 1-.36.36.98.98 0 0 0-.37.4l-.1.16v.05c-.1.17-.18.35-.3.5l-.03.02-.18.12a2.18 2.18 0 0 1-.96.34h-.03c-.1 0-.2.02-.3 0-.15-.01-.3-.04-.45-.1h-.03a1.1 1.1 0 0 1-.35-.2l-.02-.02-.1-.1H7.5a.65.65 0 0 0-.14.1l.08.1.01.02.17.19c.04.04.1.04.15.06.16.1.33.13.51.12h.08a2.77 2.77 0 0 0 .8-.12l.07-.01.37-.13c.18-.06.34-.16.5-.26.06-.03.08-.09.1-.14l.02-.03c.07-.13.1-.23.2-.37l.02-.04c.07-.1.15-.17.23-.25.1-.09.25-.17.37-.25.09-.06.15-.18.19-.27l.02-.06.04-.08V8.6a2.83 2.83 0 0 0 .1-.73c0-.01.02-.05 0-.08v-.11a.42.42 0 0 0-.06-.24.06.06 0 0 1-.01-.03c-.12-.35-.54-.34-.84-.3Zm-4.4 5.72c-.1.1-.18.16-.3.22.06.02.1 0 .16 0 .14-.03.16.08.06.15a.3.3 0 0 1-.3.02c-.15-.07-.27-.16-.3-.31h-.02l-.33.1a1.86 1.86 0 0 1-.77.04l.02.13c0 .2.05.35.22.46.07.06.15.1.24.13.15.04.3.06.43.08h.42l.1-.02c.2-.06.39-.13.5-.3a1.1 1.1 0 0 0 .17-.23 1.97 1.97 0 0 0 .23-.5c.07-.3 0-.55-.08-.82-.03-.1-.05-.18-.05-.23-.1-.6.2-1.16.62-1.57a1 1 0 0 1 .32-.24l-.05-.1h-.01l-.12.1-.57.5c-.29.23-.5.48-.5.87 0 .29.08.6.1.85a.97.97 0 0 1-.2.67Zm-1.75-.23c.28.06.57.04.82-.1.05-.02.2-.15.14-.22a.27.27 0 0 0-.1-.07c-.2-.1-.4-.04-.62.04a.48.48 0 0 0-.1.06c-.1.06-.3.15-.24.28l.1.01Zm-.07.3c.01.01.01.02.03.02.27.05.53.01.8-.05.1-.02.2-.05.27-.13.05-.05.11-.1.13-.17.02-.06 0-.2-.1-.14l-.04.09c-.27.28-.7.28-1.06.22-.03 0-.06-.02-.08-.03h-.02c-.03.01-.05.04-.04.07 0 .07.05.09.1.1l.01.02Z"/><path d="M5.4 4.9a7.11 7.11 0 0 1-.64 2.16c-.1.27-.18.58-.12.87.05.18.12.35.22.52.03.05.1.16.23.32.12.17.21.36.3.58.05.18.08.33 0 .49-.1.22-.35.33-.57.41l-.45.17a.5.5 0 0 0-.23.19c-.11.17-.08.37 0 .54.1.17.17.33.26.5.06.12.13.23.2.31.03.04.08.07.12.1a.05.05 0 0 1-.05.02.77.77 0 0 1-.3-.35l-.23-.43c-.13-.27-.23-.57 0-.81a.8.8 0 0 1 .3-.18c.37-.14 1.07-.28.9-.85a2.17 2.17 0 0 0-.2-.46c-.1-.19-.25-.35-.36-.53-.12-.2-.21-.45-.23-.69-.02-.23.05-.5.13-.7a8.96 8.96 0 0 0 .68-2.3 50.89 50.89 0 0 1 .12-.62l-.08.73Z" fill="#27535D"/><path d="M12.28 4.9h.01v.02a.32.32 0 0 1-.18.1h.08a.02.02 0 0 1 .03.02v.01l-.22.2a.2.2 0 0 1-.1.06 11.36 11.36 0 0 1-.35.03l.02-.03a.55.55 0 0 0 .13-.13l.58-.28ZM11.64 5.2a.32.32 0 0 1-.24.14l-.01.02.12-.01a.02.02 0 0 1 .01.03l-.22.22a.2.2 0 0 1-.12.05 20.28 20.28 0 0 1-.31.03v-.02l.12-.11v-.02h-.03a.5.5 0 0 1-.12.1c-.06.03-.14.04-.2.06v.01a.86.86 0 0 1 .2-.02v.03l-.1.09c-.06.06-.13.15-.23.16a9.52 9.52 0 0 1-.3.03v-.02l.17-.18a15.22 15.22 0 0 1 1.26-.59Z" fill="#9B35B8"/><path d="M10.31 5.81c.03.02-.09.1-.1.11-.05.04-.1.05-.15.06V6a6.45 6.45 0 0 1 .13 0v.01l-.22.21c-.04.04-.07.05-.13.06a6.58 6.58 0 0 1-.3 0 .32.32 0 0 0 .1-.1c.21-.13.44-.25.67-.37ZM10.14 6.08c.06-.06.11-.06.2-.07a7.87 7.87 0 0 1 .22 0v.01c-.05.05-.21.24-.27.25a1943.23 1943.23 0 0 1-.35.02l.2-.2Z" fill="#9B35B8"/><path d="M5.11 12c-.18-.06-.3-.22-.35-.39-.08-.27-.1-.6.06-.86.13-.2.37-.4.56-.54l.4-.32c.12-.09.3-.23.32-.36.03-.14-.11-.26-.2-.33a6.94 6.94 0 0 1-.44-.37c-.3-.29-.59-.61-.43-1.07.1-.29.21-.56.27-.87.05-.25.06-.52.1-.77a.27.27 0 0 0 0-.09l.02.07c0 .35-.04.68-.12.99-.05.22-.16.48-.22.73a.68.68 0 0 0 .03.46c.02.06.07.14.14.22.22.27.5.47.76.69.19.14.3.31.1.52-.22.23-.5.41-.75.6l-.3.27c-.21.2-.31.42-.29.71.02.24.13.55.33.69l.01.01Z" fill="#27535D"/><path d="M9.58 6.2a.12.12 0 0 1-.1.08.01.01 0 0 0 0 .01.01.01 0 0 0 0 .01h.02a.02.02 0 0 1 0 .03l-.2.2c-.06.05-.11.06-.18.07l-.24.03c-.02 0-.04 0-.04-.02l.74-.41ZM8.82 6.62v.03l-.19.17a.27.27 0 0 1-.22.09.29.29 0 0 0-.12.03c.06 0 .19-.02.24 0a.01.01 0 0 1 0 .02l-.09.09L8.17 7l.13-.1c.14-.09.3-.17.45-.25a.74.74 0 0 1 .07-.03ZM8.8 7.09l-.33-.04c.06-.08.13-.1.23-.1a11.3 11.3 0 0 0 .26-.02.02.02 0 0 1 0 .02l-.16.14Z" fill="#9B35B8"/><path d="m10.82 7.66.04.04c.12.1.14.22.04.34v.01c0 .05 0 .08-.02.1a.63.63 0 0 1-.12.14c-.1.08-.2.15-.32.22l-.05.02a.46.46 0 0 1-.16.04c-.04 0-.07-.01-.1-.03-.02 0-.03-.01-.03-.02-.06-.08-.14-.09-.12-.22l.03-.17c.03-.1.08-.18.14-.26l.03-.03c.07-.11.16-.19.28-.24l.02-.01a.32.32 0 0 1 .34.07Zm-.66.46.04-.02c.15-.1.31-.2.47-.28.04-.02.09-.08.02-.11-.03-.02-.13.05-.19.06a.47.47 0 0 0-.13.09c-.09.07-.18.13-.23.23a.02.02 0 0 0 0 .03h.02Zm.37.12h.01c.07-.04.14-.1.2-.16A.43.43 0 0 1 10.8 8l-.04-.05h-.01a2.4 2.4 0 0 0-.47.22c-.06.03-.1.1-.12.16v.01l.05.06a.03.03 0 0 0 .03 0c.1-.04.2-.1.28-.17Z" fill="#1A0201"/><path d="m7.21 7.79.07.04c.18.14.23.3.29.52v.03l.04.1.01.04.01.1a.01.01 0 0 1 0 .02.57.57 0 0 1-.4.18h-.08a.32.32 0 0 0-.1-.08l-.06-.02a.92.92 0 0 1-.33-.3c-.03-.06-.01-.1-.07-.14-.03-.07-.03-.12 0-.17a.25.25 0 0 1 0-.2.33.33 0 0 1 .09-.08l.01-.02a.1.1 0 0 0 .04-.04v-.01a.61.61 0 0 1 .47.03Zm-.07.44a2.73 2.73 0 0 1 .24.1c-.04-.14-.11-.3-.23-.37-.12-.09-.3-.1-.4.02-.01 0-.01 0 0 0l.06.05c.1.08.22.15.33.2Zm-.12.29.05.03c.08.04.15.07.24.09.04 0 .09-.03.12-.06v-.01l-.31-.18-.08-.04a1.77 1.77 0 0 0-.25-.1.02.02 0 0 0-.01.03c.06.1.14.18.24.24Z" fill="#110100"/><path d="M10.54 8.24c.02-.05.02-.1 0-.13-.02-.02-.04-.03-.06-.02-.04.03-.05.17.05.15-.08.08-.19.13-.28.18h-.03l-.05-.07c.03-.06.06-.14.12-.17a2.41 2.41 0 0 1 .48-.22l.04.04v.01a.43.43 0 0 0-.08.07.77.77 0 0 1-.19.16Z" fill="#AB0D01"/><path d="m7.04 8.35.08.04c0 .06.02.16-.05.16a.13.13 0 0 1-.05-.03c0-.06 0-.12.02-.17Z" fill="#D49438"/><path d="m7.12 8.4.3.17v.01c-.02.03-.07.07-.11.06a.85.85 0 0 1-.24-.09c.07 0 .06-.1.05-.16Z" fill="#AB0D01"/><path d="M6.38 13.29a.47.47 0 0 0-.12-.37c-.04-.05-.1-.08-.19-.1.15-.2.22-.43.2-.67-.02-.25-.1-.56-.1-.85 0-.4.21-.64.5-.88a143.96 143.96 0 0 0 .7-.6l.05.1a1 1 0 0 0-.32.25c-.42.41-.71.97-.62 1.57a2 2 0 0 0 .05.23c.08.27.15.53.08.81a1.97 1.97 0 0 1-.23.5Z" fill="#1B1B1B"/><path d="M4.33 12.59h-.1v-.01c-.06-.13.15-.22.24-.28a.48.48 0 0 1 .1-.06c.22-.08.41-.14.63-.04l.09.07c.06.07-.09.2-.14.22-.25.14-.54.16-.82.1Zm.12-.07c.14.02.28.05.42 0l.21-.1c.05-.02.14-.1.05-.14a.46.46 0 0 0-.3-.02 1.7 1.7 0 0 0-.4.16c-.06.03-.05.1.02.1Z" fill="#0033A8"/><path d="M4.87 12.52c-.14.05-.28.02-.42 0-.07 0-.08-.07-.02-.1.13-.07.26-.13.4-.16.11-.02.2-.02.3.02.1.04 0 .12-.05.15l-.2.09Z"/><path d="M4.25 12.88c-.05-.02-.1-.04-.1-.1-.01-.04 0-.07.04-.08h.02l.08.03c.35.06.79.06 1.06-.22l.04-.08v-.01c.1-.06.12.08.1.14-.02.07-.08.12-.13.17-.06.08-.17.1-.27.13-.27.06-.53.1-.8.05-.02 0-.02 0-.03-.02v-.01Z" fill="#0033A8"/><defs><linearGradient id="apj0xljcj" x1="11.76" y1="6.42" x2="12.33" y2="7.68" gradientUnits="userSpaceOnUse"><stop stop-color="#46339D"/><stop offset="1" stop-color="#195995"/></linearGradient><linearGradient id="bpj0xljcj" x1="8.84" y1="7.02" x2="8.84" y2="10.64" gradientUnits="userSpaceOnUse"><stop stop-color="#5733A1"/><stop offset="1" stop-color="#1299D2"/></linearGradient></defs></svg>