<!-- by TradingView --><svg width="18" height="18" xmlns="http://www.w3.org/2000/svg"><path fill="#17B1E8" d="M0 0h18v18H0z"/><path d="M12.288 5H5.68C4.756 5 4 5.803 4 6.802v5.99c0 .521.599.771.924.38a.945.945 0 011.481.011l.515.619c.21.25.578.25.788 0l.536-.63a.959.959 0 011.48 0l.537.64c.21.25.577.25.787 0l.536-.64a.959.959 0 011.481 0l.01.011c.326.391.925.141.925-.38V6.802C13.969 5.803 13.223 5 12.288 5z" fill="#fff"/><path d="M11 9a1 1 0 100-2 1 1 0 000 2zM7 9a1 1 0 100-2 1 1 0 000 2z" fill="#17B1E8"/></svg>