<!-- by TradingView --><svg xmlns="http://www.w3.org/2000/svg" width="18" height="18" viewBox="0 0 18 18"><path fill="url(#agocidr4j)" d="M0 0h18v18H0z"/><path d="M8.66 11.15l-1.58-2.2-.55-.75L4.22 5H4.2l1.61 3.2.38.75 1.89 3.77.55 1.09c.04.06.09.12.15.15.18.09.4.02.49-.15l.55-1.07v-.03l-1.1-1.51a.1.1 0 0 1-.05-.04l-.01-.01zm-1.7-2.86c.1-.73.23-1.65.88-2.06.2-.12.43-.22.66-.23h4l.4-.53c.04-.05.06-.11.06-.18a.3.3 0 0 0-.29-.29H5.16a.29.29 0 0 0-.18.06.3.3 0 0 0-.06.4L6.96 8.3h2.21c.14.01.29.03.42.08l.11.02c.11.02.22.04.3.13l.07.1.03.13c.02.06.02.14.02.22l-.01.25-.02.11L11.82 7h-2.9c-.2 0-.36-.25-.36-.45V6.5c-.18-.01-.37.03-.53.1-.2.08-.37.2-.5.37-.32.36-.48.84-.57 1.32zM9.18 9H7.52l.7.93v.02l.01.01.12.16.35.47.05.06c.13.1.31.07.4-.06l.38-.5.44-.58.12-.16-.04-.37a.5.5 0 0 0-.17-.33.59.59 0 0 0-.34-.12v.05c0 .2-.16.42-.36.42zm3.14-2.02l.31-.41L13.77 5h.03l-3.81 7.36-.84-1.14.08-.07.78-1.05.44-.6 1.87-2.52z" fill="#fff"/><defs><linearGradient id="agocidr4j" x1="3.35" y1="3.12" x2="21.9" y2="24.43" gradientUnits="userSpaceOnUse"><stop stop-color="#1A1E21"/><stop offset="1" stop-color="#06060A"/></linearGradient></defs></svg>