<!-- by TradingView --><svg width="18" height="18" viewBox="0 0 18 18" xmlns="http://www.w3.org/2000/svg"><path fill="url(#ar1wwaiaf)" d="M0 0h18v18H0z"/><circle cx="9" cy="7" r="3" fill="url(#br1wwaiaf)"/><ellipse cx="6.67" cy="11.34" rx="2.67" ry="1.09" fill="#CCB806"/><ellipse cx="11.33" cy="11.34" rx="2.67" ry="1.09" fill="#BC266E"/><path d="M9 11.87c.21-.15.33-.33.33-.53 0-.19-.12-.37-.33-.53-.21.16-.33.34-.33.53 0 .2.12.38.33.53Z" fill="#F2C01C"/><ellipse cx="9" cy="12.91" rx="2.67" ry="1.09" fill="#5DC9B5"/><path d="M11.4 12.44h-.07c-1.06 0-1.98-.26-2.4-.63H9c1.06 0 1.98.26 2.4.63Z" fill="#CF4E92"/><path d="M9.08 11.81c-.43.37-1.35.63-2.41.63h-.08c.43-.37 1.35-.63 2.41-.63h.08Z" fill="#DFE02A"/><defs><linearGradient id="ar1wwaiaf" x1="3.35" y1="3.12" x2="21.9" y2="24.43" gradientUnits="userSpaceOnUse"><stop stop-color="#1A1E21"/><stop offset="1" stop-color="#06060A"/></linearGradient><linearGradient id="br1wwaiaf" x1="7.83" y1="4.5" x2="10" y2="9.83" gradientUnits="userSpaceOnUse"><stop stop-color="#CCC"/><stop offset=".49" stop-color="#EDEDED"/><stop offset="1" stop-color="#C5C5C5"/></linearGradient></defs></svg>