<!-- by TradingView --><svg xmlns="http://www.w3.org/2000/svg" width="18" height="18" viewBox="0 0 18 18"><path fill="url(#analcphfx)" d="M0 0h18v18H0z"/><path d="M9 3.6a5.4 5.4 0 1 0 0 10.79A5.4 5.4 0 0 0 9 3.6zM3 9a6 6 0 1 1 11.99 0A6 6 0 0 1 3 9z" fill="url(#bnalcphfx)"/><path d="M8.21 10.5l-.7 1.3-.04.07h1.5L8.2 10.5v.01z" fill="#fff"/><path d="M6.74 9.73l-.02-.09-.04.1-.54 1.62c.1.15.25.29.41.38.17.09.36.13.56.13h.36l-.02-.05-.7-2.1zM9.72 10.5l-.76 1.37h1.5l-.04-.07-.7-1.3zM11.21 9.64l-.03.09-.7 2.1-.02.04h.36a1.17 1.17 0 0 0 .97-.51l-.54-1.61-.04-.1zM8.21 7.44v.01l.75-1.38h-1.5l.04.07.71 1.3z" fill="#fff"/><path d="M9.72 7.44l.7-1.3.04-.07h-1.5l.75 1.38zM6.72 8.3l.02-.08.7-2.1.03-.05H7.1a1.17 1.17 0 0 0-.97.52l.54 1.6.04.11zM11.18 8.22l.03.08.04-.1.54-1.61a1.17 1.17 0 0 0-.96-.52h-.37l.02.05.7 2.1z" fill="#fff"/><defs><linearGradient id="analcphfx" x1="3.35" y1="3.12" x2="21.9" y2="24.43" gradientUnits="userSpaceOnUse"><stop stop-color="#1A1E21"/><stop offset="1" stop-color="#06060A"/></linearGradient><linearGradient id="bnalcphfx" x1="12.52" y1="4.76" x2="5.29" y2="13.4" gradientUnits="userSpaceOnUse"><stop stop-color="#FF6421"/><stop offset="1" stop-color="#FFBD32"/></linearGradient></defs></svg>