<!-- by TradingView --><svg width="18" height="18" viewBox="0 0 18 18" xmlns="http://www.w3.org/2000/svg"><path fill="#F0F3FA" d="M0 0h18v18H0z"/><circle cx="9" cy="9" r="6" fill="url(#aiwydbgmi)"/><path d="M6.64 3.66A.94.94 0 0 0 6 4.74h6.03c.16-.26.16-.89-1.08-1.25a7.95 7.95 0 0 0-4.3.17Z" fill="#fff" fill-opacity=".5"/><path d="M14.12 6.6c-.23-.64-.57-.73-.71-.7l.54 2.07c.15-.2.4-.74.17-1.38ZM12.65 13.34c-.34.24-.51.1-.56 0 .2-.3.63-.89.9-.89.35 0 .1.59-.34.89Z" fill="#FFFEF5"/><path d="M5.18 4.7c-.6.32-.1.54 0 .65.23-.11.73-.4.84-.65.12-.31-.24-.33-.84 0Z" fill="#fff"/><circle cx="9" cy="9" r="5.29" fill="#FFF632"/><path fill-rule="evenodd" d="M9 13.77a4.76 4.76 0 1 0 0-9.53 4.76 4.76 0 0 0 0 9.53Zm0-.3a4.47 4.47 0 1 0 0-8.94 4.47 4.47 0 0 0 0 8.94Z" fill="#E9C817"/><path fill-rule="evenodd" d="M9 12.88a3.88 3.88 0 1 0 0-7.76 3.88 3.88 0 0 0 0 7.76Zm0-.24a3.64 3.64 0 1 0 0-7.28 3.64 3.64 0 0 0 0 7.28Z" fill="#E9C817"/><path d="M6.4 8.75a3.27 3.27 0 0 1-.83-.16l-.16.16-.17 1.52c.29 0 .98-.03 1.45-.11s.74-.3.82-.42l.18 2.76a3.43 3.43 0 0 0 3.3-.32l.08-.94c.01-.14.07-.38.1-.48l.17.06c.08.03.36.05.49.06l-.1.3-.4.8a3.48 3.48 0 0 0 1.3-2L12 9.37l-.67-.43-.16-.15c-.03-.07-.1-.22-.15-.27a.9.9 0 0 0-.18-.14c.13-.1.42-.35.53-.48.1-.13.13-.42.13-.54v-.6a5.26 5.26 0 0 0-.2-.87c-.08-.2-.29-.69-.37-.8-.08-.11-.5-.52-.58-.56-.09-.05-.37-.23-.8-.25-.43-.02-.76.12-1.1.31-.26.16-.56.52-.68.69l-.21.6-.36.88c-.03.09-.1.3-.14.47-.05.22.07.45.14.64.07.16.26.33.35.4l-.02.04a.66.66 0 0 0-.15.23c-.02.1.04.14.07.16-.22.02-.73.07-1.05.05Z" fill="#FD0399"/><path d="M10.71 4.86c-.34.01-.9.05-1.38.11-.62.08-.7.41-.67.57.81-.31 1.27.11 1.2.15-.01 0-.01 0 0 0 .05-.01.32-.07.72.08.3.12.66.61.9 1.01v-.02a5.26 5.26 0 0 0-.24-1c-.1-.23-.25-.58-.32-.67a2.65 2.65 0 0 0-.2-.23Zm.12 3.52-.14.08c.07.14.16.42.01.55l-.01.01h.01c.05-.04.18-.09.24-.1l.15.17c.33.13 1.06.52 1.49 1.12l.06-.23-.65-.61-.67-.43-.16-.15c-.03-.07-.1-.22-.15-.27a.9.9 0 0 0-.18-.14Zm1.54 2.36a11.7 11.7 0 0 0-1.48-.66c-.27-.06-.34.16-.34.28l-.13 1.65c-.21.2-.7.58-1.1.77a3.56 3.56 0 0 0 1.68-.6l.07-.94c.01-.14.07-.38.1-.48l.17.06c.08.03.36.05.49.06l-.1.3-.4.8c.5-.38.84-.84 1.04-1.24ZM8.1 12.65l-.43-3.38c-.61.25-1.7.15-2.32.04l-.1.96c.28 0 .97-.03 1.44-.11s.74-.3.82-.42l.18 2.76c.08.04.23.1.41.15Z" fill="#C70252"/><path d="M8.13 8.44c-.33-.23-.46-.78-.5-1.02 0-.65.3-1.54.38-1.66.09-.13.36-.24.6-.33.22-.1.29-.04.7-.04.4 0 .7.28 1.03.59.27.25.34.7.34.88a5 5 0 0 1-.55 1.46c-.4.65-1.6.42-2 .12Z" fill="#222419"/><path d="M5.3 10.14h-.35l-.1-.02a.92.92 0 0 1-.18.12c-.1.04-.2.01-.38-.05a.84.84 0 0 1-.33-.26 12.41 12.41 0 0 0-.27-.78 1.57 1.57 0 0 1-.05-.45c0-.2.08-.39.14-.4l.4-.1.01-.1a3.2 3.2 0 0 1-.1-.45c-.02-.16.05-.35.09-.45 0-.04.08-.2.33-.24.2-.03.25.14.26.24 0 .1-.02.34-.04.45-.02.1.05.25.09.3l.7.88.19.56-.13.38-.27.37Z" fill="#454047"/><path fill-rule="evenodd" d="M4.58 8.29c-.08-.03-.3-.07-.4-.08v.02c-.11 0-.34.03-.45.08-.09.04-.1.14-.11.23l-.02.1c-.02.05-.01.1 0 .16l.02.16c-.02.1 0 .24 0 .29l.01.02.13.19c.01.01.03.07.02.14 0 .1 0 .16.07.33.05.15.44.26.56.3h.03c.06.02.27-.02.36-.04l.08.02.32.07c.08 0 .14-.1.2-.19a.43.43 0 0 1 .07-.1l-.23.1.12-.16c.07-.1.09-.25.1-.42l.01-.04c.02-.19.05-.27.14-.22.06.04.02.25-.03.43a4.76 4.76 0 0 1 .12-.64c-.03-.21-.23-.54-.37-.69a8.32 8.32 0 0 0-.46-.41l-.1-.2V7.5l.09-.42c.02-.15-.13-.16-.34-.15a.33.33 0 0 0-.29.2c.07-.04.25-.12.37-.08.15.06.15.56.13.7 0 .07.01.16.03.23.02.06.04.12.03.16-.01.09-.12.18-.21.15Zm-.73.53c-.05-.02-.17-.07-.15-.18.02-.14.16-.27.52-.27.35 0 .56.24.46.34-.08.09-.13.1-.15.1-.1-.02-.39-.06-.68 0Zm-.02.46c0 .12.09.17.13.18a.57.57 0 0 1 .2-.04c.16-.03.32 0 .38.01.06 0 .18-.06.22-.15.06-.12-.18-.26-.47-.26-.28 0-.46.11-.46.26Zm.15.5s0-.17.28-.17c.27 0 .65.14.54.27-.1.14-.24.16-.39.16-.15 0-.43-.12-.43-.25Z" fill="#2D2D2F"/><path d="M7.34 8.06a1.39 1.39 0 0 1-.17-.68c0-.3.17-.64.3-.88.05-.1.1-.2.11-.25l.01-.03c.07-.22.22-.74.34-.9a2.98 2.98 0 0 1 1.37-1c-.11 0-.54-.01-.9.3-.34.3-.6.65-.7.79l-.15.47-.17.43-.2.44-.14.45v.27l.13.35.17.24Zm-1.69.78c.42.05 1.42.1 2.13-.11H7.3l-.96.03-.8-.12.1.2Z" fill="#FDEFF9"/><path fill-rule="evenodd" d="M7.73 8.76c.31.03.64.32.76.46-.23-.4-.82-.6-1.09-.66V8.5l.16-.22.26.15c-.41-.24-.73-.66-.73-1.07 0-.33.21-.86.32-1.08l.19-.47c0-.04.03-.14.12-.17.09-.04.24.01.3.04-.11.24-.34.76-.39.93-.05.22-.1.53-.04.92.04.31.2.62.28.73.12.16.44.52.74.65.37.16.64.17.81.18.14.01.22.04.33.08l.08.02.1.03c-.12.07-.39.13-.51.14.13 0 .44-.03.58-.11a1.34 1.34 0 0 0 .88.03l.13-.05c.14-.05.33-.12.45-.12l.14.01c.36.2.84.68 1.03.89l.04-.05a3.28 3.28 0 0 0-.76-.71c0-.19-.06-.25-.18-.32-.1-.05-.3-.04-.4-.02l-.14-.15a.7.7 0 0 0-.3-.37c.79-.47.7-1.17.55-2.06-.14-.9-.74-2.09-1.98-2.09-.99 0-1.6.75-1.77 1.13-.24 0-.28.1-.28.22 0 .1.08.2.12.23-.02.14-.1.32-.19.51-.14.32-.31.7-.31 1.05 0 .46.33.78.49.88-.05.06-.15.19-.17.24-.03.05 0 .13 0 .17a4.53 4.53 0 0 1-1.8-.11C5.49 8.4 5.16 8.12 5 8c-.15-.1-.23-.24-.23-.37 0-.1.05-.25.08-.32.08-.14.16-.43-.21-.43-.47 0-.57.53-.57.69 0 .15 0 .27.07.4.07.12.02.2 0 .23l-.17-.02c-.32 0-.4.28-.4.44 0 .12.03.24.04.28a.49.49 0 0 0-.04.2c0 .15.15.35.22.43a.49.49 0 0 0-.04.2c0 .35.6.54.77.54.13 0 .26-.05.3-.08a3.29 3.29 0 0 0 2.66-.36l.17 2.66.08.05-.19-2.94c-.32.6-1.62.67-2.23.64.14-.13.43-.5.43-.92 0-.42-.1-.63-.16-.69.14.06.54.16 1.03.16.3 0 .47-.01.62-.03.17-.01.3-.03.5 0Zm-3.5-.65V8.2c.6.06.8.36.8.52 0 .13-.07.23-.1.26.04.03.14.13.14.24 0 .11-.06.15-.09.16.21-.21-.39-.56-.79-.56-.32 0-.48.08-.52.12a.6.6 0 0 0-.03.2c0 .12.11.3.17.37 0-.04.11-.12.51-.12.5 0 .67.22.67.3 0 .09-.13.19-.14.2a.85.85 0 0 1 .08-.18c-.14-.31-1.11-.41-1.11-.02 0 .4.47.51.67.51.16 0 .29-.03.33-.04l.14.06c.05.01.18.04.27.01.1-.03.45-.69.45-.96s-.09-.55-.16-.65A5.48 5.48 0 0 0 5 8.1c-.1-.07-.29-.2-.29-.44 0-.08.03-.18.05-.27.06-.2.11-.4-.16-.4-.39 0-.47.37-.47.63 0 .2.05.35.08.44l.02.06Zm-.56.71c-.01-.04-.05-.2 0-.32s.1-.22.54-.22c.44 0 .82.33.75.49-.06.13-.1.16-.12.16-.06-.06-.27-.19-.6-.19-.35 0-.53.06-.57.1v-.02ZM8.13 5.5a1.9 1.9 0 0 0-.38-.1c.47-.73.99-1.07 1.83-1.07.84 0 1.4.87 1.64 1.45.23.58.25 1.13.25 1.61 0 .44-.26.66-.47.85l-.07.05c-.18.16-.51.3-.66.36.35-.06.52-.16.57-.21.15.06.25.24.28.32-.01.02-.07.07-.19.14-.14.1-.53.23-.63.24-.06.01-.16-.02-.26-.06A1.77 1.77 0 0 0 9.79 9c-.15-.02-.19-.07-.19-.08.97-.4 1.25-1.53 1.27-2.05.06.18.16.71.2.96.01-.21 0-.74-.2-1.2a2.52 2.52 0 0 0-.7-.98c-.16-.13-.53-.43-1.07-.43-.46 0-.84.18-.97.27Zm1.09 0c-.39 0-.69.08-.78.11 0 .01.05.05.28.17.29.14.32.43.27.63l-.09.43c.08-.17.32-.43.43-.54-.01-.01-.03-.06-.03-.23 0-.15.15-.14.3-.13h.15a.9.9 0 0 0 .33-.09 1.4 1.4 0 0 0-.86-.35Zm-1.38.91c-.1.25-.1.6-.1.74.06 0 .22.04.34.09.13.04.27.06.32.07a.48.48 0 0 1-.16-.38c0-.15.03-.26.06-.35.02-.06.04-.1.04-.15V6.4c0-.1 0-.16-.07-.16-.08 0-.08.11-.06.16.02.04.04.15-.06.15-.08 0-.1-.08-.1-.12l-.01-.03c-.01-.03-.1-.4.25-.4s.3.4.25.5c-.03.1-.06.33-.05.42 0 .08.1.13.15.14 0-.1.02-.34.07-.47.07-.17.12-.38-.02-.54-.1-.13-.36-.24-.48-.28-.08.1-.27.38-.37.63Zm.15 1.59c-.18-.13-.23-.5-.23-.66.12.02.2.06.27.1a1.07 1.07 0 0 0 .66.14c-.08.13-.2.2-.36.27-.12.04-.28.12-.34.15Zm.1.2c.04.1.2.3.56.36 0-.05.02-.18.08-.28a.9.9 0 0 0 .14-.45.75.75 0 0 1-.32.2l-.47.17Zm1.66-.13c-.22.3-.68.45-.89.49 0-.05.1-.33.18-.47.06-.12.11-.3.13-.38a2.62 2.62 0 0 0 .52.33.3.3 0 0 0 .06.03Zm-.14-.34.27.17.2-.21s-.15.05-.47.04Zm.58-.3-.21.06c.21-.1.24-.4.24-.6 0-.15.11-.2.16-.2.02.38-.12.66-.19.75Zm-.65-.25a.3.3 0 0 0 .24.12c.16 0 .23-.19.24-.3v-.06c0-.11 0-.28.07-.35.06-.07.24-.08.32-.08l-.05-.15a.23.23 0 0 1-.18.13.7.7 0 0 1-.25-.02c-.1.1-.3.38-.39.71Zm1.43 1.78c-.14.08-.41.16-.53.2.1.02.16 0 .24-.02l.06-.01c.1-.02.38-.14.52-.2l-.1-.1-.2.13Zm-.32 1.46c.2.16.73.46 1.3.4l-.57 1.15-.22.15.61-1.2c-.13 0-.42-.03-.52-.1-.09.22-.26.78-.18 1.36l-.14.06c-.02-.3 0-1 .2-1.41-.15-.07-.45-.25-.48-.4ZM7.6 8.05a1.03 1.03 0 0 1-.24-.65c0-.31.1-.73.16-.9-.03.21-.11.68-.11.92 0 .23.13.52.2.63Zm1.3-3.27c-.14-.07-.34.01-.42.04l-.04.02c.08 0 .27-.02.37 0 .05 0 .1.03.17.07.09.04.19.08.31.1.16.04.25.03.38.02l.14-.01c.18-.01.44.16.54.25-.23-.28-.41-.33-.5-.35a.5.5 0 0 1-.04 0c-.04-.02-.1 0-.17.02-.08.01-.16.04-.23.04-.14 0-.3-.09-.46-.17l-.05-.03Zm1.4.83c.12.03.39.14.48.33.07.13.08.2.1.28 0 .05.01.1.05.16l.1.15c.08.1.15.19.16.29.02.12.01.34 0 .44 0-.11-.03-.37-.13-.5a1.65 1.65 0 0 1-.26-.6c-.02-.15-.2-.4-.5-.55Z"/><path fill-rule="evenodd" d="M7.54 5.77a.22.22 0 0 1-.09-.18c0-.11.1-.16.24-.16.15 0 .44.1.78.28.34.18.48.32.48.6 0 .13-.03.24-.05.33-.03.1-.05.19-.03.28l.03.04.05-.07c.04-.08.1-.2.19-.3l.03-.03.4-.45-.19.1a.26.26 0 0 1-.03-.13c0-.08.1-.1.2-.1h.09c.1.01.2.02.33-.02.12-.03.24-.1.3-.12l.1.1c-.03.02-.1.06-.1.13-.02.05 0 .08 0 .1.02.04.03.07.02.12 0 .1-.02.13-.17.13-.11 0-.15-.02-.15-.02l.02-.1a2 2 0 0 0-.53.86c.02.06.12.2.32.2s.28-.21.29-.32l.01-.29c.01-.05.05-.2.26-.2.2 0 .36.18.37.24.02.07-.02.1-.08.08-.05 0-.1-.09-.13-.14l-.02-.04a.16.16 0 0 0-.12-.06.2.2 0 0 0-.19.2v.02c0 .16 0 .61-.39.6H9.4c.07.03.25.1.42.1.11 0 .2-.02.3-.04.07-.01.13-.03.2-.03.13 0 .27.15.32.22.01.03.03.07-.01.07-.02 0-.05-.03-.07-.05-.06-.05-.13-.11-.22-.11l-.23.02-.36.03a.78.78 0 0 1-.42-.14c.07.07.23.22.34.3l.08.05c.13.08.26.16.35.32.1.2.13.28.06.28-.03 0-.04-.03-.06-.07a.5.5 0 0 0-.07-.15c-.1-.12-.32-.33-.54-.4a1.02 1.02 0 0 1-.37-.28c.01.06 0 .22-.05.33-.06.13-.22.43-.24.54-.03.12-.07.4.24.46l.3.06c.2.04.39.07.53.12.21.08.41.15.64.13.13 0 .28-.07.42-.13a1.1 1.1 0 0 1 .63-.1c.07.01.26.1.26.17 0 .06-.03.04-.07.02a.4.4 0 0 0-.05-.03.68.68 0 0 1-.04-.01c-.05-.03-.13-.06-.28-.05-.08 0-.17.04-.29.08-.18.06-.41.14-.65.14-.27 0-.52-.09-.72-.16l-.23-.07-.18-.01c-.22-.01-.5-.02-.58-.28-.09-.28.03-.55.1-.72l.04-.09a.8.8 0 0 0 .03-.33c-.01.06-.13.22-.44.33-.24.09-.36.16-.44.2l-.12.06c-.08 0-.05-.1.03-.14l.4-.2h.04c.16-.08.32-.2.39-.38a.97.97 0 0 1-.36-.02 1.14 1.14 0 0 1-.35-.12c-.06-.03-.1-.05-.16-.06l-.2-.05a.23.23 0 0 1-.07-.01c-.01-.01-.03-.04.04-.05.06 0 .31.06.47.1.16.05.39.11.57.03-.15 0-.43-.1-.43-.37 0-.2.04-.33.07-.44.02-.07.04-.13.03-.18-.01-.12-.05-.17-.13-.17-.07 0-.15.1-.13.17l.02.05c.03.05.04.08 0 .09-.05 0-.09-.07-.09-.2 0-.14.08-.22.22-.22s.22.08.22.3c0 .12-.02.2-.04.29a.82.82 0 0 0-.04.22c0 .17.17.27.27.27-.02-.08-.04-.27 0-.36a.98.98 0 0 0 .14-.47c0-.19-.08-.37-.41-.54-.34-.18-.61-.25-.75-.18s-.14.12-.14.18Zm1.58.95c.04.02.12.07.1.12-.03.04-.08-.06-.1-.12Zm.21.18h.01c.03-.01.1-.04.15-.02-.07.07-.14.04-.16.02Z" fill="#604EB4"/><path opacity=".7" d="M10.58 13.31a5.14 5.14 0 0 1-2.76.06c-.32-.1-.56-.21-.7-.33l.47-.52h.01l.02.02.09.04c.07.04.17.08.3.12a4.46 4.46 0 0 0 2.32-.04 1.36 1.36 0 0 0 .34-.2l.03-.01.56.41c-.12.17-.35.33-.68.45Z"/><defs><linearGradient id="aiwydbgmi" x1="14.47" y1="12.47" x2="3" y2="6.42" gradientUnits="userSpaceOnUse"><stop stop-color="#14DEED"/><stop offset=".7" stop-color="#2D26CB"/><stop offset="1" stop-color="#AE397D"/></linearGradient></defs></svg>