<!-- by TradingView --><svg width="18" height="18" fill="none" xmlns="http://www.w3.org/2000/svg"><path fill="#1E2C5D" d="M0 0h18v18H0z"/><path fill-rule="evenodd" clip-rule="evenodd" d="M4.463 12.958c0-.046.762-2.138 1.144-3.178.127.202.618.536 1.574.578a.141.141 0 00.113.056h2.3c.062.2.26.346.495.346.285 0 .516-.216.516-.482 0-.267-.231-.483-.516-.483a.514.514 0 00-.492.336H7.294c-.054 0-.1.03-.124.074-.872-.026-2.243-.535-2.071-2.655.123-1.53 1.828-2.508 2.696-2.508h5.742l-1.189 3.227c-.324-.429-1.144-.61-1.618-.651a.14.14 0 00-.089-.032H8.347a.512.512 0 00-.502-.364c-.285 0-.517.217-.517.483 0 .267.232.483.517.483a.517.517 0 00.487-.319h2.309a.14.14 0 00.092-.034c1.041.107 2.144.625 2.144 2.433 0 1.878-1.745 2.576-2.617 2.69H4.463z" fill="#F23A2E"/></svg>