<!-- by TradingView --><svg xmlns="http://www.w3.org/2000/svg" width="18" height="18" viewBox="0 0 18 18"><path fill="#CD1112" d="M0 0h18v18H0z"/><path d="M11.8 9.03a2.75 2.75 0 1 1-5.48 0 2.75 2.75 0 0 1 5.49 0z" fill="#08237A"/><path fill-rule="evenodd" d="M9.06 11.45a2.41 2.41 0 1 0 0-4.83 2.41 2.41 0 0 0 0 4.83zm0 .33a2.75 2.75 0 1 0 0-5.5 2.75 2.75 0 0 0 0 5.5z" fill="#010200"/><path d="M9.57 4.09a.53.53 0 1 1-1.06 0 .53.53 0 0 1 1.06 0z" fill="#FCF6BA"/><path d="M9.9 4.08a.86.86 0 1 1-1.72 0 .86.86 0 0 1 1.72 0zm-.86.53a.53.53 0 1 0 0-1.05.53.53 0 0 0 0 1.05z" fill="#010200"/><path d="M6.67 4.59a.33.33 0 0 1-.03-.47.33.33 0 0 1 .47-.02l.97.85H10l.96-.87a.33.33 0 0 1 .47.03c.12.13.11.34-.02.46l-.82.73.11.14-.41.36-.1-.13-.42.37v.35a2.76 2.76 0 0 0-1.45 0v-.35L6.67 4.6z" fill="#FFE8C5"/><path d="M6.45 4.84a.66.66 0 0 1-.05-.93c.24-.28.66-.3.93-.06l.87.77h1.68l.86-.78c.27-.25.7-.22.94.05s.22.69-.05.93l-.89.8-.22-.25.89-.8a.33.33 0 0 0 .02-.46.33.33 0 0 0-.47-.03l-.96.86H8.08L7.1 4.1a.33.33 0 0 0-.47.02c-.12.14-.1.35.03.47l1.65 1.45v.36l-.33.11V6.2L6.45 4.84z" fill="#010200"/><path d="M10.1 6.5v-.32l.39-.34-.22-.24-.5.44v.35c.12.03.23.07.34.12z" fill="#010200"/><path d="M8.54 13.97a.53.53 0 1 1 1.05 0 .53.53 0 0 1-1.05 0z" fill="#FCF6BA"/><path d="M8.2 13.97a.86.86 0 1 1 1.72 0 .86.86 0 0 1-1.72 0zm.86-.53a.53.53 0 1 0 0 1.06.53.53 0 0 0 0-1.06z" fill="#010200"/><path d="M11.43 13.47c.14.12.15.33.03.46a.33.33 0 0 1-.47.03l-.96-.85H8.1l-.96.86a.33.33 0 0 1-.47-.02.33.33 0 0 1 .03-.47l.81-.73-.1-.13.4-.36.11.13.4-.37v-.36a2.76 2.76 0 0 0 1.47 0v.36l1.64 1.45z" fill="#FFE8C5"/><path d="M11.65 13.22c.27.24.3.66.06.93a.66.66 0 0 1-.94.06l-.87-.77H8.23l-.87.78a.66.66 0 0 1-.93-.05.66.66 0 0 1 .04-.93l.9-.8.21.25-.88.8a.33.33 0 0 0-.03.46c.12.13.33.15.47.02l.96-.86h1.93l.96.85c.14.12.35.1.47-.03a.33.33 0 0 0-.03-.46L9.8 12.02v-.36l.33-.12v.33l1.53 1.35z" fill="#010200"/><path d="M8 11.55v.32l-.39.35.23.24.49-.44v-.36a2.73 2.73 0 0 1-.33-.11z" fill="#010200"/><path d="M13.05 11.32l.54.86.48-.84-1.02-.02z" fill="#EC9B8D"/><path d="M12.45 10.98l1.15 1.85 1.04-1.8-2.19-.05zm.6.34l1.02.02-.48.84-.54-.86z" fill="#010200"/><path d="M14.1 9.2c.18-.07.37.03.43.2a.33.33 0 0 1-.21.42l-1.23.4-.95 1.67.27 1.26a.33.33 0 0 1-.65.14l-.23-1.07-.17.03-.1-.54.16-.03-.12-.53-.31-.18a2.74 2.74 0 0 0 .72-1.26l.31.18 2.09-.7z" fill="#FFE8C5"/><path d="M14 8.88c.35-.12.72.07.84.41a.66.66 0 0 1-.42.84l-1.1.37-.83 1.45.24 1.13c.08.36-.15.7-.5.79a.66.66 0 0 1-.8-.51l-.24-1.16.32-.08.25 1.17a.33.33 0 0 0 .65-.14l-.27-1.26.95-1.66 1.23-.41a.33.33 0 1 0-.21-.63l-2.09.7-.3-.18.06-.34.28.16L14 8.88z" fill="#010200"/><path d="M10.73 11.2l.28.16.1.5.33-.07-.14-.64-.31-.18-.26.23z" fill="#010200"/><path d="M5.06 6.75l-.53-.87-.49.84 1.02.03z" fill="#EC9B8D"/><path d="M5.66 7.09L4.52 5.23 3.48 7.04l2.18.05zm-.6-.34l-1.02-.03.49-.84.53.87z" fill="#010200"/><path d="M4 8.87a.33.33 0 1 1-.21-.63l1.23-.4.96-1.67-.27-1.26a.33.33 0 0 1 .65-.14l.22 1.07.17-.02.11.53-.16.03.11.53.32.18a2.74 2.74 0 0 0-.73 1.26l-.3-.17-2.1.7z" fill="#FFE8C5"/><path d="M4.11 9.18a.66.66 0 1 1-.42-1.25l1.1-.37.84-1.44-.25-1.14a.66.66 0 0 1 1.3-.28l.25 1.17-.33.07-.25-1.16a.33.33 0 0 0-.64.13l.27 1.26-.96 1.67-1.22.4a.33.33 0 1 0 .2.63l2.1-.7.3.18a2.7 2.7 0 0 0-.06.35l-.28-.16-1.95.64z" fill="#010200"/><path d="M7.39 6.86L7.1 6.7 7 6.2l-.32.07.13.64.32.18.26-.23z" fill="#010200"/><path d="M11.7 4.75a.33.33 0 0 1 .65.13l-.25 1.26.96 1.66 1.23.4a.33.33 0 1 1-.2.62l-1.05-.34-.06.16-.52-.17.06-.15-.52-.17-.31.18a2.74 2.74 0 0 0-.74-1.26l.31-.18.44-2.14z" fill="#FFE8C5"/><path d="M11.38 4.68a.66.66 0 0 1 1.3.27l-.23 1.13.84 1.44 1.1.36a.66.66 0 1 1-.4 1.26l-1.14-.37.1-.32 1.14.37c.17.06.36-.04.41-.2a.33.33 0 0 0-.2-.42l-1.24-.4-.96-1.66.25-1.26a.33.33 0 0 0-.65-.13l-.43 2.14-.32.18a2.74 2.74 0 0 0-.26-.23l.28-.16.41-2z" fill="#010200"/><path d="M11.76 8.67l.28-.16.49.15.1-.31-.63-.2-.31.18.07.34z" fill="#010200"/><path d="M13.21 6l.77.18-.2.76-.75-.2.18-.75z" fill="#B7DEF8"/><path d="M12.97 5.6l1.4.34-.34 1.4-1.4-.35.34-1.4zm.24.4l-.18.75.76.19.19-.76-.77-.19z" fill="#010200"/><path d="M6.36 13.3a.33.33 0 0 1-.65-.13l.27-1.26-.96-1.66-1.23-.4A.33.33 0 1 1 4 9.2l1.05.35.06-.16.52.18-.06.15.52.17.32-.18a2.74 2.74 0 0 0 .72 1.26l-.3.18-.46 2.14z" fill="#FFE8C5"/><path d="M6.69 13.37a.66.66 0 0 1-1.3-.27l.24-1.14-.84-1.44-1.1-.37A.66.66 0 1 1 4.1 8.9l1.13.37-.1.32L4 9.2a.33.33 0 1 0-.2.63l1.22.4.96 1.67-.27 1.26c-.03.18.08.35.26.39.18.03.35-.08.4-.26l.44-2.14.31-.18c.09.08.17.16.27.23l-.28.16-.42 2z" fill="#010200"/><path d="M6.33 9.38l-.28.16-.5-.16-.1.32.63.2.32-.18a2.7 2.7 0 0 1-.07-.34z" fill="#010200"/><path d="M4.86 12.05l-.76-.2.19-.75.76.2-.2.75z" fill="#B7DEF8"/><path d="M5.1 12.45l-1.4-.35.35-1.4 1.4.35-.35 1.4zm-.24-.4l.19-.76-.76-.19-.2.76.77.19z" fill="#010200"/><path d="M10.64 8.5l-.71.8.11 1.05-.98-.41-.99.44.1-1.06-.72-.78L8.5 8.3l.54-.93.54.91 1.06.21z" fill="#644F90"/><path d="M10.75 8.46c.01.04 0 .08-.03.11l-.67.76.1 1.01c.01.04 0 .08-.04.1a.12.12 0 0 1-.11.02l-.94-.4-.94.42a.12.12 0 0 1-.16-.11l.1-1.01-.7-.75a.12.12 0 0 1 .07-.19l1-.22.5-.89a.12.12 0 0 1 .2 0l.53.87 1 .2c.04 0 .07.04.09.08zm-.33.1l-.86-.16a.12.12 0 0 1-.08-.06l-.44-.74-.44.75a.12.12 0 0 1-.07.06l-.86.2.59.63c.02.03.03.06.03.1l-.08.85.8-.36a.12.12 0 0 1 .1 0l.8.34-.1-.86c0-.03 0-.07.03-.09l.58-.65z" fill="#E9AB44"/><path d="M9.83 8.76c.01.04 0 .09-.02.12l-.27.3.04.4a.12.12 0 0 1-.16.11l-.37-.15-.37.16a.12.12 0 0 1-.16-.11l.04-.4-.27-.3a.12.12 0 0 1 .06-.18l.4-.1.2-.34a.12.12 0 0 1 .2 0l.2.34.4.08c.03 0 .07.03.08.07zm-.33.11l-.25-.05a.12.12 0 0 1-.07-.05l-.13-.22-.13.22a.12.12 0 0 1-.08.06l-.25.06.17.18c.03.03.04.06.03.1l-.02.24.23-.1a.12.12 0 0 1 .1 0l.23.1-.03-.26.03-.09.17-.19z" fill="#73D4EA"/></svg>