<!-- by TradingView --><svg width="18" height="18" viewBox="0 0 18 18" xmlns="http://www.w3.org/2000/svg"><path fill="#00847B" d="M0 0h18v18H0z"/><path d="M8.58 10H8.5a1.5 1.5 0 1 0 1.33.79l.79-.56h.01c.24.37.37.8.37 1.27 0 1.38-1 2.5-2.46 2.5A2.5 2.5 0 0 1 6 11.5C6 10.12 7.17 9 8.62 9H15l-1.57 1.5V10h-4.8a.6.6 0 0 0-.05 0ZM9.36 8h.14a1.5 1.5 0 1 0-1.33-.79l-.79.56h-.01A2.4 2.4 0 0 1 7 6.5C7 5.12 8 4 9.46 4A2.5 2.5 0 0 1 12 6.5C12 7.88 10.71 9 9.26 9H3l1.57-1.5V8h4.7a.9.9 0 0 0 .1 0Z" fill="#F0F3FA"/></svg>