<!-- by TradingView --><svg width="18" height="18" xmlns="http://www.w3.org/2000/svg"><path fill="url(#paint0_linear)" d="M0 0h18v18H0z"/><path d="M11.103 11.653c.043-.172.065-.35.064-.529-.012-.3-.106-.59-.271-.835-.402-.612-1.132-.893-1.758-1.152a19.244 19.244 0 01-.424-.175l-.62.468c-.28.212-.559.434-.933.73-.417.329-.885.77-1.057 1.293A1.965 1.965 0 006.35 13.2l.022-.018-.023.018c.168.252.392.457.653.597.262.139.552.209.845.203.527-.005 1.074-.33 1.502-.643.656-.481 1.035-.768 1.614-1.207a1.87 1.87 0 00.079-.247c.021-.082.044-.17.064-.256" fill="#A7BF2E"/><path d="M11.104 11.652c.043-.172.064-.35.063-.529-.011-.3-.105-.59-.27-.835-.402-.612-1.132-.893-1.758-1.152-.221-.089-.443-.178-.659-.28a5.898 5.898 0 01-1.627-1.119C5.4 6.293 6.235 3.823 7.896 3.034c.254-.12.241.098.19.3-.245.959.537 2.01 1.267 2.417.952.533 1.992.823 2.806 1.61.731.706 1.073 1.926.67 2.909-.214.523-.609.934-1.04 1.26l-.825.623c.031-.08.057-.162.078-.246.022-.083.045-.171.064-.257" fill="#D8F40C"/><path d="M11.104 11.653c.042-.172.064-.35.063-.529-.012-.3-.106-.59-.271-.835-.402-.612-1.132-.893-1.758-1.152a21.02 21.02 0 01-.424-.175l-.618.468c.64.28 1.336.55 1.869 1.038.48.44.8 1.047 1 1.683.031-.08.057-.163.078-.247.022-.082.045-.17.064-.256" fill="#70801F"/><defs><linearGradient id="paint0_linear" x1="3.349" y1="3.122" x2="21.904" y2="24.434" gradientUnits="userSpaceOnUse"><stop stop-color="#1A1E21"/><stop offset="1" stop-color="#06060A"/></linearGradient></defs></svg>