<!-- by TradingView --><svg width="18" height="18" xmlns="http://www.w3.org/2000/svg"><path fill="#061162" d="M0 0h18v18H0z"/><path d="M6 7.25v.709l2.244-1.543L6 5.028v.631c-1.73.156-3 1.61-3 3.38a3.393 3.393 0 003.393 3.393c.777 0 1.851-.274 2.468-.926.771-.89 1.69-3.132 1.69-3.132L7.799 10.16a1.774 1.774 0 01-3.101-1.177c0-.847.509-1.556 1.303-1.732z" fill="url(#paint0_linear)"/><path d="M12 10.75v-.709l-2.244 1.543L12 12.972v-.631c1.73-.156 3-1.61 3-3.38a3.393 3.393 0 00-3.393-3.393c-.777 0-1.851.274-2.468.926-.771.89-1.69 3.132-1.69 3.132l2.753-1.785a1.774 1.774 0 013.101 1.177c0 .847-.509 1.555-1.303 1.732z" fill="url(#paint1_linear)"/><defs><linearGradient id="paint0_linear" x1="2.229" y1="9.039" x2="15.031" y2="9.039" gradientUnits="userSpaceOnUse"><stop stop-color="#2CD4F3"/><stop offset=".292" stop-color="#29CBFD"/><stop offset=".519" stop-color="#27C2FD"/><stop offset=".758" stop-color="#2ACFFD"/></linearGradient><linearGradient id="paint1_linear" x1="2.229" y1="9.039" x2="15.031" y2="9.039" gradientUnits="userSpaceOnUse"><stop offset=".292" stop-color="#29CBFD"/><stop offset=".519" stop-color="#27C2FD"/><stop offset=".758" stop-color="#2ACFFD"/><stop offset="1" stop-color="#30E5FE"/></linearGradient></defs></svg>