<!-- by TradingView --><svg width="18" height="18" viewBox="0 0 18 18" xmlns="http://www.w3.org/2000/svg"><path fill="#5B1212" d="M0 0h18v18H0z"/><path d="M13.94 5.03c-.08.08-.25.17-.39.21-.5.15-1.52.15-3.19-.02-1.07-.1-2-.09-2.53.05A2.3 2.3 0 0 0 6.46 6.3c-.22.38-.3.85-.21 1.27.07.31.18.5.38.66.17.13.31.18.54.18.22 0 .37-.05.56-.17.11-.07.37-.34.37-.39h-.05c-.14.02-.32-.1-.4-.29-.04-.1-.05-.14-.05-.33 0-.26.03-.42.14-.67.24-.58.78-.86 1.5-.77.2.03.79.15.87.2.03 0 .02.04-.13.43-.33.82-.57 1.35-.85 1.89A5.22 5.22 0 0 1 7.3 10.5c-.32.19-.48.23-.82.25a1.8 1.8 0 0 1-.49-.03l.1.15A5.26 5.26 0 0 1 6.9 13c.03.02.3-.08.47-.18.49-.29 1-.93 1.5-1.9.45-.86.75-1.57 1.4-3.3.31-.8.56-1.39.6-1.4.01-.01.12.02.23.06.59.21.87.27 1.24.27.23 0 .3 0 .44-.04.34-.1.58-.26.8-.55a2 2 0 0 0 .37-.73c.07-.24.07-.27 0-.2Z" fill="#F0F3FA"/></svg>