<!-- by TradingView --><svg width="18" height="18" viewBox="0 0 18 18" xmlns="http://www.w3.org/2000/svg"><path fill="#F0F3FA" d="M0 0h18v18H0z"/><path d="M14.67 9A5.67 5.67 0 1 1 3.33 9a5.67 5.67 0 0 1 11.34 0Z" fill="#FFD643"/><path d="M7.55 10.33h-.22v.52l.73.48h1.89l.72-.48v-.52h-.23l-.32.52h-.79v-.18h-.66v.18h-.81l-.31-.52Z" fill="#A31B3F"/><path d="M8.33 11.47V11h1.34v.47h-.34v.2h-.66v-.2h-.34Z" fill="#FF9B37"/><path d="M7.67 12h-.34v.29l.53.38h2.51s1.42-1.22 2.09-1.77V9.63l-.7-1.11V7.84l.4-.47v-1.7h-.67l-1.16 1.46h-.37v.12l.37.23 1.25-1.56H12v1.33l-.68.59-.14.52.67 1.38v1.16l-1.66 1.43H7.67V12Z" fill="#A31B3F"/><path d="m5.82 10.71 1.5 1.62.25-.11-1.46-1.38-.1-.48.29-.84 1.56-.64 3.96-2.95v-.26h-.42L10.31 7H7.86L6.58 5.67H6.3l-.3.26v1.4l.69.9-.87 1.38v1.1Z" fill="#FFFF74"/><path d="M6 9.7v.97h.33v-.63l.27-.54h.73v.38l.2.12H8l.43-.5h1.33l.48.5h.44l.33-.12V9.5h.53l.47.54v.63h.33V9.7l-.72-.92v-.24h-.23v-.41h.29V7.8l.33-.5V5.86h-.4L10.32 7c-.14-.08-.6-.23-1.24-.23-.65 0-1.1.15-1.25.23L6.6 5.87h-.45V7.3l.52.51v.34h.16v.4H6.6v.25L6 9.7Z" fill="#FF9B37"/><path d="m11.35 6.2-.53.52v.61h.32v.34h.2l.45-.51v-.97h-.44Zm-4.57.01.55.53v.6H7v.33h-.22l-.45-.5v-.96h.45Z" fill="#FFD643"/><path d="M8.07 8.33h-.4V9H8v.33h.33v-.69l-.26-.3ZM9.93 8.33h.4V9H10v.33h-.33v-.69l.26-.3Z" fill="#A31B3F"/><path fill-rule="evenodd" d="M14 9A5 5 0 1 1 4 9a5 5 0 0 1 10 0Zm-.33 0a4.67 4.67 0 1 1-9.34 0 4.67 4.67 0 0 1 9.34 0Z" fill="#FF9B37"/><path fill-rule="evenodd" d="M9 14.83A5.83 5.83 0 1 0 9 3.17a5.83 5.83 0 0 0 0 11.66ZM14.83 9A5.83 5.83 0 1 1 3.17 9a5.83 5.83 0 0 1 11.66 0ZM15 9A6 6 0 1 1 3 9a6 6 0 0 1 12 0Zm-.33 0A5.67 5.67 0 1 1 3.33 9a5.67 5.67 0 0 1 11.34 0Z" fill="url(#atv4ojbkd)"/><path d="M8.33 9.5v.34l.2.16h.94l.2-.16v-.35l-.2-.16h-.94l-.2.16Z" fill="#A31B3F"/><defs><linearGradient id="atv4ojbkd" x1="3.49" y1="11.3" x2="14.38" y2="12.5" gradientUnits="userSpaceOnUse"><stop offset=".47" stop-color="#FFFF74"/><stop offset=".48" stop-color="#A31B3F"/></linearGradient></defs></svg>