<!-- by TradingView --><svg width="18" height="18" fill="none" xmlns="http://www.w3.org/2000/svg"><path fill="url(#paint0_linear_1530)" d="M0 0h18v18H0z"/><path fill-rule="evenodd" clip-rule="evenodd" d="M9.134 4c-.384-.006-1.157.024-1.184.202-.026.177.779.2 1.184.19.378-.009 1.127-.06 1.096-.19-.03-.131-.744-.189-1.096-.201zm2.503.991c-.231.203.144.853.36 1.153.204.232.646.723.893.5.247-.223-.05-.809-.242-1.032-.241-.291-.78-.823-1.011-.62zM5.7 9.097c.008-.41.22-1.238 1.004-1.28.785-.042.987.78.99 1.197-.019.358-.23 1.093-.927 1.166-.697.072-1.067-.725-1.067-1.083zm3.21 4.555c.012-.145.054-.439.125-.459.088-.024.449-.017.449.046 0 .052-.093.297-.14.413l.752.018-.13.174h-.755L9.035 14h-.21l.022-.156c-.247.008-.744.016-.76-.018-.018-.043-.021-.196.023-.196l.8.022zM7.096 4.643c-.448-.213-1.176.344-1.484.65-.271.296-.716.964-.323 1.26.392.297 1-.152 1.256-.414.37-.41.998-1.282.55-1.496zM4.119 9.52c-.007-.04.059-.867.086-1.05.082.094.26.277.31.255.063-.027.166-.44.124-.562-.035-.098-.208-.202-.29-.243.08-.257.278-.85.422-1.153.023-.055.043-.15-.063-.102-.133.062-.676.952-.708 2.856.034.103.105.247.12-.001zm4.81-4.306v.83H8.31c-.058.043-.175.165-.183.307-.008.141.119.257.183.298h.618v.82c.032.065.13.197.26.204.132.008.204-.108.223-.167v-.857h.666c.09-.022.269-.112.26-.298-.007-.186-.176-.283-.26-.308h-.724v-.829c-.023-.068-.1-.206-.232-.214-.131-.007-.183.14-.193.214zm-4.082 6.508c-.262-.402-.677-1.305-.242-1.702.434-.396 1.02.365 1.26.795.223.399.57 1.37.252 1.693-.318.321-.973-.421-1.27-.786zm7.609-1.073l.004-.007.115-.17c.258-.388.62-.935.9-.69.322.283.065 1.222-.117 1.613-.194.42-.846.975-1.131.83-.498-.255.009-1.176.229-1.576zm-1.103-2.155l-.144-.807c-.008-.07.01-.217.144-.233a.2.2 0 01.218.128l.184.817c.145-.027.457-.086.548-.11.115-.032.216.06.25.174.035.113.043.223-.13.305-.138.066-.457.124-.599.144l.037.835c.006.059-.025.183-.191.208-.166.025-.231-.108-.242-.177v-.825a8.901 8.901 0 01-.714.098c-.125 0-.266-.146-.269-.247-.003-.1.11-.259.232-.262.098-.002.491-.033.676-.048zm1.979-1.867c.587.8.688 2.174.665 2.762-.04.174-.059.073-.063 0l-.088-1.054c-.048.069-.155.208-.2.218-.04.009-.055-.054-.076-.14-.008-.037-.018-.079-.031-.12a.61.61 0 010-.303l.163-.218c-.109-.22-.344-.723-.414-.975s0-.218.044-.17zM9 12a1 1 0 100-2 1 1 0 000 2zm-1.26 1.57c-.095.137-.412.095-.708-.094-.297-.189-.46-.454-.366-.591.094-.138.41-.096.707.094.297.189.46.454.366.591zm3.604-.302c.327-.234.498-.548.382-.7-.117-.152-.477-.085-.805.15-.328.234-.5.547-.382.699.116.152.477.085.805-.15z" fill="#54BC65"/><defs><linearGradient id="paint0_linear_1530" x1="3.349" y1="3.122" x2="21.904" y2="24.434" gradientUnits="userSpaceOnUse"><stop stop-color="#1A1E21"/><stop offset="1" stop-color="#06060A"/></linearGradient></defs></svg>