<!-- by TradingView --><svg width="18" height="18" fill="none" xmlns="http://www.w3.org/2000/svg"><path fill="#F0F3FA" d="M0 0h18v18H0z"/><path fill-rule="evenodd" clip-rule="evenodd" d="M13.333 9c0 2.375-1.94 4.3-4.333 4.3a4.337 4.337 0 01-3.227-1.43c-.33.071-.634.129-.903.174-.581.062-1.768-.006-1.865-.77-.091-.726 1.016-1.674 1.664-2.118A4.342 4.342 0 014.667 9c0-2.375 1.94-4.3 4.333-4.3 1.225 0 2.332.505 3.12 1.316l.009-.01c3.134-.5 3.086.73 2.67 1.406-.377.517-.882.99-1.469 1.42l.003.168zm-3.58 1.694c-.934.359-1.875.65-2.73.877A3.29 3.29 0 009 12.225c1.62 0 2.965-1.16 3.227-2.682a15.94 15.94 0 01-1.194.612l-.315-1.204.176-.078c.475-.227.9-.467 1.27-.698A3.266 3.266 0 009 5.775C7.193 5.775 5.727 7.219 5.727 9c0 .238.027.47.076.693l-.107.027c-.602.333-1.219.88-1.451 1.207 1.985-.147 3.867-.814 4.56-1.129l.37-.163.578 1.059zm3.986-3.72a6.258 6.258 0 01-.66.57 4.248 4.248 0 00-.215-.491c.266-.029.676-.07.875-.079z" fill="url(#paint0_linear_1530)"/><path fill-rule="evenodd" clip-rule="evenodd" d="M10 10.986c.736 0 1.333-.593 1.333-1.324 0-.73-.597-1.324-1.333-1.324s-1.333.593-1.333 1.324c0 .731.597 1.324 1.333 1.324zm0-.663a.664.664 0 00.667-.661A.664.664 0 0010 9a.664.664 0 00-.667.662c0 .365.299.661.667.661z" fill="url(#paint1_linear_1530)"/><defs><linearGradient id="paint0_linear_1530" x1="3.38" y1="11.586" x2="14.957" y2="6.351" gradientUnits="userSpaceOnUse"><stop stop-color="#04D9FF"/><stop offset=".782" stop-color="#445CFE"/><stop offset="1" stop-color="#7269EF"/></linearGradient><linearGradient id="paint1_linear_1530" x1="8.483" y1="10.4" x2="11.326" y2="9.072" gradientUnits="userSpaceOnUse"><stop stop-color="#05D5FF"/><stop offset="1" stop-color="#3A5EF4"/></linearGradient></defs></svg>