<!-- by TradingView --><svg width="18" height="18" fill="none" xmlns="http://www.w3.org/2000/svg"><path fill="url(#paint0_linear_1530)" d="M0 0h18v18H0z"/><path fill-rule="evenodd" clip-rule="evenodd" d="M5.175 7.807c-.196-.427-.53-1.369-.294-1.715.16-.233.524-.483.847-.703.155-.106.3-.205.408-.293.07-.032.289-.085.603-.096.314-.011 2.038-.005 2.86 0 .042-.066.1-.171.163-.288.17-.308.386-.703.476-.711.123-.011 2.23-.001 2.23-.001.14.037.392.35.28.74a27.99 27.99 0 01-.533 1.534L13.8 9.006c-.019.46-.205 1.665-.396 2.056-.163.334-.879.425-1.396.491-.087.011-.17.022-.241.033-.187.555-1.51 1.701-4.993 2.39-.508.1-.938-.12-1.107-.607-.62-1.784-1.286-4.515-.492-5.562zm1.05-.108c.041.047.098.181 0 .344-.122.205-.44.737-.424 1.704.012.776.592 2.492.88 3.253 1.321-.26 4.027-1.029 4.282-2.017.02-.084.137-.266.44-.329.113-.023.248-.04.386-.059.324-.042.659-.086.723-.207.072-.137.222-.828.288-1.157-.521-.818-1.567-2.533-1.58-2.846-.011-.313.28-1.046.426-1.385h-1.154a7.72 7.72 0 00-.05.103c-.145.307-.43.908-.7.897-.303-.013-2.43-.005-3.29 0l-.651.541.425 1.158z" fill="#fff"/><defs><linearGradient id="paint0_linear_1530" x1="0" y1="9" x2="18" y2="9" gradientUnits="userSpaceOnUse"><stop stop-color="#A870F4"/><stop offset=".722" stop-color="#422F87"/><stop offset="1" stop-color="#A870F4"/></linearGradient></defs></svg>