<!-- by TradingView --><svg width="18" height="18" viewBox="0 0 18 18" xmlns="http://www.w3.org/2000/svg"><path fill="url(#a2d1u2azu)" d="M0 0h18v18H0z"/><path d="M8.11 4.07A5.23 5.23 0 0 0 4.14 7.8c-.1.35-.15.73-.14 1.39.01 1.05.24 1.9.7 2.68l.29.46L8 10.41V14h2v-3.54l3.04 1.75s.79-1.32.72-1.37c-.01-.02-1.1-.68-2.4-1.48L9 7.9l-1.6 1c-.88.54-1.64.98-1.7.98-.07 0-.09-.2-.06-.8.02-.68.06-.87.28-1.35a3.34 3.34 0 0 1 5.68-.79c.32.38.63 1.06.73 1.63l.1.45.78.48.76.47.02-.68c.04-.92-.09-1.53-.5-2.4-.43-.9-.9-1.46-1.68-2a5.24 5.24 0 0 0-3.7-.82Z" fill="#FF0083"/><defs><linearGradient id="a2d1u2azu" x1="3.35" y1="3.12" x2="21.9" y2="24.43" gradientUnits="userSpaceOnUse"><stop stop-color="#1A1E21"/><stop offset="1" stop-color="#06060A"/></linearGradient></defs></svg>