<!-- by TradingView --><svg xmlns="http://www.w3.org/2000/svg" width="18" height="18"><path fill="#F0F3FA" d="M0 0h18v18H0z"/><path d="M3.19 7.87l-.12.4a.6.6 0 01.31-.4 1.6 1.6 0 011.27-.6v-.01c-.91-.26-1.2.04-1.27.18-.08.14-.14.28-.2.43m.95-1.39l-.14.13c.16-.13.41-.1.8.1.09-.16.2-.3.32-.42-.18-.13-.37-.25-.5-.2-.16.12-.33.25-.48.4M6 5.44c-.14.05-.33.11-.46.17l.19.25c.2-.12.42-.21.64-.29-.03-.15-.04-.23 0-.25L6 5.44m2.25-.43l-.7.07c-.11.03-.16.07-.21.23.28-.05.57-.09.87-.11a.47.47 0 01.37-.2l-.33.01m2.35.13l-.66-.09a.85.85 0 00-.56.13c.3.02.6.05.9.1.22-.1.47-.12.71-.06l-.39-.08m2.12.66l-.5-.21c-.28-.12-.6-.15-.92-.08.24.08.48.17.71.27.4-.05.81.05 1.16.27-.14-.08-.31-.18-.45-.24M14.82 8c-.1-.29-.23-.56-.4-.8l-.1-.15a2 2 0 00-1.6-.84c.15.1.29.24.4.39 1.07.15 1.81 1.08 1.88 2.38 0-.34-.07-.67-.18-.99" fill="#2A72E5"/><path d="M13.3 11.96c.2-.14.4-.28.57-.45l.23-.22c1.33-1.53.73-3.74-.7-4.15l.02.22v.04c0 .07-.01.14-.03.2 1.54.7 1.38 3.43-.24 4.44l.14-.08" fill="#2A72E5"/><path d="M11.3 12.76l.65-.18c1.96-.73 2.28-3.72 1.18-4.44-.12.14-.26.27-.4.38.92 1.02-.03 3.9-1.78 4.31l.34-.07" fill="#2A72E5"/><path d="M9.01 13l.62-.01c1.63-.17 2.78-3.14 2.38-4.07-.23.1-.46.19-.7.25 0 1.2-1.62 3.84-2.77 3.81L9 13m-2.35-.3l.6.13c.69.05 2.4-2.24 3.03-3.45-.3.04-.6.06-.9.07-.5.47-1.8 1.97-2.06 2.26-.66.76-.9.9-1 .9l.33.08m-1.98-.85c.2.13.4.25.61.35h.02c.04-.18 1.65-2.1 2.9-2.8-.29-.02-.58-.07-.86-.13-1.5.57-3.02 2.3-2.76 2.52l.09.06M3.59 10.8c.07.1.16.22.24.3-.34-.5 1.08-1.82 2.55-2.13a4.75 4.75 0 01-.65-.3c-1.35.15-2.63 1.1-2.37 1.75.06.12.15.27.23.38M3 8.93V9l.03.37C2.99 8.65 4.1 8.18 5.1 8.2a1.76 1.76 0 01-.32-.41c-.86-.11-1.32.1-1.57.31-.14.25-.21.54-.22.82" fill="#2A72E5"/></svg>