<!-- by TradingView --><svg width="18" height="18" fill="none" xmlns="http://www.w3.org/2000/svg"><g clip-path="url(#clip0_1530)"><path fill="url(#paint0_linear_1530)" d="M0 0h18v18H0z"/><path d="M9 18.733L18.925-2.74l.75 21.473H9z" fill="#209FC6"/><path d="M12.322 17.892l5.832-12.616.44 12.616h-6.272z" fill="#1D6174"/><path fill-rule="evenodd" clip-rule="evenodd" d="M9.31 4.074a.333.333 0 00-.465.046L4.078 9.861a.337.337 0 00.065.49l5.105 3.588c.125.088.293.08.409-.02l3.227-2.782c.099-.086.14-.222.103-.348l-1.412-4.892L9.31 4.074zm-4.673 5.86l4.9.463.358-3.356-.921-2.328-4.337 5.222zm4.85.94l-4.353-.411 4.09 2.875.263-2.465zm.474.044l2.203.208-2.45 2.112.247-2.32zm2.496-.246l-2.445-.23.346-3.244.875-.766 1.224 4.24zm-1.485-4.646l-.718.627-.7-1.768 1.418 1.14z" fill="#fff"/></g><defs><linearGradient id="paint0_linear_1530" x1="9" y1="0" x2="9" y2="18" gradientUnits="userSpaceOnUse"><stop stop-color="#79DCE5"/><stop offset="1" stop-color="#12ABA9"/></linearGradient><clipPath id="clip0_1530"><path fill="#fff" d="M0 0h18v18H0z"/></clipPath></defs></svg>