<!-- by TradingView --><svg width="18" height="18" viewBox="0 0 18 18" xmlns="http://www.w3.org/2000/svg"><path fill="#F0F3FA" d="M0 0h18v18H0z"/><path d="M9 14.3A5.3 5.3 0 1 0 9 3.7a5.3 5.3 0 0 0 0 10.6Zm0 .7A6 6 0 1 0 9 3a6 6 0 0 0 0 12Z" fill="url(#af52rwenx)"/><circle cx="9" cy="9" r="5.29" fill="url(#bf52rwenx)"/><path d="M7.94 4.76c.3.36.95 1.06 1.24 1.06-.06-.3-.14-.95 0-1.23.17.35.63 1.1 1.06 1.23l.32-.33.03-.02-.03.02c-.02.08.03.34.38.69.53.53.53.35.7.7.18.36.18.7.36.7s.7.18.7.18.18 0 .18.53c0 .18-.26.18-.17.36.17.35.35 0 .35.35s0 .7-.35.7c-.36 0 0-.35-.18-.52-.18-.18-.35-.18-.53-.36-.18-.17 0 .18-.18.36-.17.17-.35 0-.53.17-.17.18-.53.36-.53.18s-.35-.18-.17-.35c.17-.18.17-.53-.18-.53-.28 0-1.23 0-1.59.17l.53-.53c-.53.12-1.76.67-1.76 1.95 0 1.42 1.59 2.29 3 1.4l-.18.36a4.9 4.9 0 0 0 1.41-1.24c.06.24 0 .89-.35 1.42A2.85 2.85 0 0 1 9 13.58a3.69 3.69 0 0 1-2.65-1.05 4.76 4.76 0 0 1-.88-1.94l-.18.53a3.48 3.48 0 0 1-.17-1.77c.14-.7.57-1.61 1.06-1.94l-1.06.7a7.67 7.67 0 0 1 2.12-1.76L8.29 6l-.35-1.24Z" fill="#484848" fill-opacity=".5"/><path fill-rule="evenodd" d="M8.65 7.41a3.07 3.07 0 0 0-.7-.17c.1-.06.42-.18.7-.18a.8.8 0 0 1 .53.18c0-.18-.21-.57-1.06-.71a1.46 1.46 0 0 1-1.24-1.06c.43.57 1.24.7 1.6.7-.71-.56-.66-1.17-.54-1.4A1.9 1.9 0 0 0 9.35 6c-.28-.42-.23-1.12-.17-1.41.28.99.94 1.47 1.23 1.59-.14-.29.06-.6.18-.7 0 .52.18.87.53 1.05.21.1.3.35.37.56.05.13.09.25.16.32l.14.13c.1.05.21.05.56.05.53 0 .53.17.53.35 0 .14-.23.18-.35.18 0 .14-.12.17-.18.17.14-.14.06-.17 0-.17h-.17c.17-.18-.18-.18-.53-.18-.2 0-.3-.12-.37-.22-.05-.07-.09-.13-.16-.13h-.35c-.15 0-.3-.12-.36-.18-.06.12-.07.43.36.7.33.23.31.31.3.39-.01.04-.02.08.05.15.14.14.3.06.35 0v.17c.14 0 .18-.11.18-.17.14.42-.18.53-.36.53 0 .14-.35.17-.52.17.14 0 .17-.23.17-.35-.12-.18-.46-.53-.88-.53s-.77.12-.88.18a1 1 0 0 1 1.23-.36c-.12-.11-.42-.35-.7-.35-.19 0-.33-.1-.5-.22-.14-.1-.31-.22-.56-.3ZM7.24 6.35a2.24 2.24 0 0 0-1.95 1.6c.43-.71 1.36-.9 1.77-.9-1.98 1-2 2.9-1.77 3.71 0-.7.36-1.23.53-1.4-.7 1.69.42 3.05 1.06 3.52a2.9 2.9 0 0 1-.53-1.23c.18.53.96 1.59 2.65 1.59 1.7 0 2.47-1.42 2.65-2.12-.53.7-1.24 1.59-2.83 1.59-1.58 0-2.64-1.42-2.64-3 0-1.27 1.17-2.06 1.76-2.3-.14 0-.3-.23-.35-.35.28.14.94-.06 1.23-.18-.35-.17-.53-.17-.88-.17-.28 0-.59-.24-.7-.36Zm-.53 3.7a2.76 2.76 0 0 0 1.4 2.48c-.52-.12-1.62-.78-1.76-2.47-.14-1.7 1.36-2.47 2.12-2.65.18.12.6.39.88.53.29.14.6.18.7.18h-.52A1.65 1.65 0 0 0 9 7.94c-.18 0-2.27.35-2.3 2.12ZM8.29 8.3c-.58.53-1.48 1.91-.35 3.18.24.35 1.06.92 2.47.35-.53.47-1.95 1.12-3-.35-.88-1.23.12-2.7.88-3.18Zm2.83-.35c.17.35.39.35.53.35h.1c.15-.04.32-.07.6.36.06.06.22.17.36.17h-.18c.18.06.46.29.18.7.06-.1.1-.38-.18-.52a.56.56 0 0 1-.25-.27c-.08-.14-.14-.26-.46-.26.06 0 .18.04.18.18-.06-.06-.21-.18-.35-.18-.18 0-.53-.18-.53-.53Zm.09-.81c0 .06 0 .1.08.1h-.06c-.16.02-.34.02-.46-.35.05-.06.2-.14.35 0 .09.1.09.18.09.25Z" fill="url(#cf52rwenx)"/><path d="M10.76 10.24a1.06 1.06 0 1 1-2.11 0 1.06 1.06 0 0 1 2.11 0Z" fill="#95885D" fill-opacity=".5"/><path d="M10.41 10.06a1.06 1.06 0 1 1-2.12 0 1.06 1.06 0 0 1 2.12 0Z" fill="url(#df52rwenx)"/><path d="M9.46 9.46v-.28h.14v.28h.46v.14H9.6v.46c0 .08.02.2.06.3.05.1.12.16.22.16v.14c-.18 0-.28-.12-.34-.24a.88.88 0 0 1-.08-.36V9.6H9v-.14h.46Zm-.81.35h.6v.07c0 .13-.03.32-.12.48a.53.53 0 0 1-.48.3v-.14c.18 0 .29-.1.36-.23.06-.1.08-.23.1-.34h-.32v.29h-.14V9.8Z" fill="#F5E29F"/><defs><linearGradient id="af52rwenx" x1="4.76" y1="4.94" x2="13.24" y2="12.88" gradientUnits="userSpaceOnUse"><stop stop-color="#F3DF9A"/><stop offset="1" stop-color="#CCA34A"/></linearGradient><linearGradient id="bf52rwenx" x1="5.47" y1="5.12" x2="12.88" y2="12.53" gradientUnits="userSpaceOnUse"><stop stop-color="#A78740"/><stop offset=".14" stop-color="#D7B35D"/><stop offset=".62" stop-color="#F0DB94"/><stop offset="1" stop-color="#D3AE57"/></linearGradient><linearGradient id="cf52rwenx" x1="10.24" y1="5.47" x2="6.18" y2="12.35" gradientUnits="userSpaceOnUse"><stop stop-color="#DAB866"/><stop offset=".23" stop-color="#E3C678"/><stop offset=".4" stop-color="#D9B662"/><stop offset=".64" stop-color="#F1DB95"/><stop offset="1" stop-color="#D2AA53"/></linearGradient><linearGradient id="df52rwenx" x1="9.35" y1="9" x2="9.35" y2="11.12" gradientUnits="userSpaceOnUse"><stop stop-color="#CCA143"/><stop offset="1" stop-color="#E7CD80"/></linearGradient></defs></svg>