<!-- by TradingView --><svg width="18" height="18" viewBox="0 0 18 18" xmlns="http://www.w3.org/2000/svg"><path fill="#F0F3FA" d="M0 0h18v18H0z"/><path d="m6.35 13.24 2.57-4.08C8.95 9.1 8.9 9 8.84 9H6.59c-.19 0-.3-.18-.2-.34L9.16 4H9a5 5 0 0 0-2.65 9.24Zm2.5.76H9a5 5 0 0 0 2.66-9.23L9.24 8.86a.1.1 0 0 0 .08.14h2.41c.19 0 .3.2.2.36L8.85 14Z" fill="url(#ax2vn3yhl)"/><defs><linearGradient id="ax2vn3yhl" x1="9" y1="4.29" x2="9" y2="13.71" gradientUnits="userSpaceOnUse"><stop stop-color="#06FCD7"/><stop offset="1" stop-color="#0502DA"/></linearGradient></defs></svg>