<!-- by TradingView --><svg width="18" height="18" viewBox="0 0 18 18" xmlns="http://www.w3.org/2000/svg"><path fill="url(#ad0jn2oak)" d="M0 0h18v18H0z"/><path d="m4.15 9.3.44-2.36H14v.59L13.5 12c-1.23 1.48-3.77 2-5.59 2 .1-.59.59-2.53.59-3.23 0-.3.09-.65-.38-.89-.47-.23-1.08.3-1.18.6L5.91 13.4c-2.11-.7-2.05-3.04-1.76-4.12Z"/><path d="M14 6.95C14 4.32 10.18 4 8.7 4 7.1 4 4.6 4.61 4.6 6.95c0 2.34 1.57 3.44 2.35 3.53l1.47-2.64c0-.1.18-.24.88 0 .71.23.89.49.89.58l-.3 2.64c3.53 0 4.12-1.47 4.12-4.1Z" fill="#fff"/><path d="M9.67 5.77c.56 0 1.04.44 1.13.66-.68-.32-1.7-.35-2.13-.4 0-.13.43-.26 1-.26ZM10.38 8.3c0 .2-.2.35-.29.4.52.04 1.62 0 1.85-.54.29-.66-1.28-1.6-2.13-1.73-.85-.13-3.13-.41-3.13.4 0 .67 1.1 1.15 1.56 1.33 0-.04-.14-.19-.14-.4 0-.26.86-.26 1.28-.13.43.13 1 .4 1 .66Z" fill="#040404"/><defs><linearGradient id="ad0jn2oak" x1="9" y1="0" x2="9" y2="18" gradientUnits="userSpaceOnUse"><stop stop-color="#F68273"/><stop offset=".5" stop-color="#B94EB5"/><stop offset="1" stop-color="#8C27F1"/></linearGradient></defs></svg>