<!-- by TradingView --><svg width="18" height="18" viewBox="0 0 18 18" xmlns="http://www.w3.org/2000/svg"><path fill="#F0F3FA" d="M0 0h18v18H0z"/><circle cx="9" cy="9" r="5" fill="url(#a25hnilac)"/><path d="M9.31 13.69c2.19 0 4.38-2.48 4.38-5 0-.4-.05-.8-.14-1.17l-.14-.14c-.74-.72-1.48-1.01-1.48-1l-.43.47.2-.59s-.75-.31-1.42-.35l-.13.66-.09-.69c-.04 0-.87-.05-1.57.12l.33.6c-.28-.06-.55-.04-.9.48l-.74-.14-1.93-.33 2.26 1.04S6.4 9.37 6.3 9.57c-.12.2-.25.56.42.73.12.04.25.07.38.08.7-.02 1.34-.26 1.99-.5l.26-.1c.55.49.7 1.12.32 1.74-.59.96-2.23.94-3.17.92.85.57 1.72 1.25 2.81 1.25Zm-.23-5.7-.7.53s-.23-.26.06-.48A.69.69 0 0 1 9.08 8Z" fill="#fff"/><path d="M8.38 13.53s-.86-.23-1.88-1.1c.94.03 2.5.05 3.1-.91.6-.96-.04-1.55-.25-1.74 0 0 1.25-.78 1.17-1.76.82.97.98 1.96.98 2.93 0 1.18-1.08 2.15-3.13 2.58Z" fill="#C7FCDC"/><defs><linearGradient id="a25hnilac" x1="4" y1="9" x2="14" y2="9" gradientUnits="userSpaceOnUse"><stop stop-color="#00C68B"/><stop offset="1" stop-color="#00E860"/></linearGradient></defs></svg>