<!-- by TradingView --><svg width="18" height="18" viewBox="0 0 18 18" xmlns="http://www.w3.org/2000/svg"><path fill="url(#as42nvspi)" d="M0 0h18v18H0z"/><path d="m10.6 13.97-.37.86-.36-2.23.73 1.37Z" fill="#813F86"/><path d="m10.05 12.25.55 1.72-.73-1.38L7.3 9.5l.55.34h.18l2.02 2.41Z" fill="#A25AA7"/><path d="M4.18 8.98 4 11.56l2.2-5.5-2.02 2.92Z" fill="#AF2D9E"/><path d="m7.3 6.23-1.1-.17-2.2 5.5 3.3-5.33Z" fill="#AD3BBA"/><path d="m6.75 10.88.55-4.65L4 11.56l2.75-.69Z" fill="#AB319C"/><path d="m6.75 10.7.55-4.47L15 4 8.4 7.1 7.3 9.5l2.57 3.1-3.12-1.9Z" fill="#9F40AA"/><path d="M8.03 4.69 8.4 4l.18 1.03-.18.52-.37.17V4.69Z" fill="#891F79"/><path d="M9.32 4.69 8.4 4l.18 1.03h.74V4.7Z" fill="#A55CAA"/><path d="m8.58 5.03-.18.52.92-.17-.55-.35h-.19Z" fill="#9C3FA7"/><path d="M9.32 5.03h-.55l.55.35h.55l-.55-.7v.35Z" fill="#D392D7"/><path d="M7.3 14.31 4 11.56l.73 1.03 2.57 1.72Z" fill="#81308D"/><path d="M5.83 11.05 4 11.56l3.3 2.75h.55l-2.02-3.26Z" fill="#5C146A"/><path d="m6.75 10.7-.92.35 2.02 3.26 1.28-.51.74-1.2-3.12-1.9Z" fill="#5F186B"/><path d="m10.23 14.83-.36-2.24-.19.35-.55.86-1.83.51.92.69 2.01-.17Z" fill="#290C1E"/><path d="m7.3 6.23-1.1-.17L15 4 7.3 6.23Z" fill="#601252"/><path d="M7.85 9.84 7.3 9.5l.55-1.2.18 1.54h-.18Z" fill="#A057A5"/><path d="M7.85 8.98V8.3l.73.17v.69l-.18.17-.55-.35Z" fill="#B642C2"/><path d="m10.05 6.92-1.28.69L11.7 9.5l-1.65-2.58Z" fill="#A0358A"/><path d="M10.97 9.5 8.58 8.47v.69l2.39.34Z" fill="#631154"/><path d="M10.97 9.5 7.85 8.3l.92-.7 2.93 1.9h-.73Z" fill="#8D2E9A"/><path d="m8.58 9.16-.18.17 1.65.69.92-.52-2.39-.34Z" fill="#4D0F59"/><path d="m10.05 10.02.92-.52v1.2l-.92-.68Z" fill="#892697"/><path d="M11.7 9.5h-.73v.69h.73V9.5Z" fill="#491E4D"/><path d="M10.97 10.7v-.51h.73l.55.51h-1.28Z" fill="#591E45"/><path d="m12.25 10.7-.55-.51V9.5h.73l.19.52-.37.68Z" fill="#9F57A4"/><path d="M12.43 9.5h-.73l-1.65-2.58.55-.17 1.65 2.06.18.69Z" fill="#AB62B0"/><path d="M15 4 7.85 8.3 15 4.34V4Z" fill="#A057A5"/><path d="M8.4 6.92 15 4 7.85 8.3l.55-1.38Z" fill="#6A3070"/><defs><linearGradient id="as42nvspi" x1="3.35" y1="3.12" x2="21.9" y2="24.43" gradientUnits="userSpaceOnUse"><stop stop-color="#1A1E21"/><stop offset="1" stop-color="#06060A"/></linearGradient></defs></svg>