<!-- by TradingView --><svg width="18" height="18" viewBox="0 0 18 18" xmlns="http://www.w3.org/2000/svg"><path fill="#21A0B4" d="M0 0h18v18H0z"/><path d="m13.29 9.55-1.63 2.82c.06.14.07.28.02.43a.61.61 0 0 1-.41.4c-.26.07-.52 0-.66-.2H7.43c-.15.21-.42.28-.69.2a.6.6 0 0 1-.37-.8L4.73 9.55a.6.6 0 0 1-.53-.6.6.6 0 0 1 .58-.61L6.37 5.6a.6.6 0 0 1 .57-.83c.18 0 .36.08.48.23h3.2a.6.6 0 0 1 .48-.23c.34 0 .61.28.61.61a.6.6 0 0 1-.05.24l1.58 2.73c.31.03.56.3.56.6a.6.6 0 0 1-.51.6Zm1.56-1.1-2.44-4.23c-.2-.34-.57-.56-.97-.56H6.56c-.4 0-.77.22-.97.56L3.15 8.44c-.2.35-.2.77 0 1.12l2.44 4.22c.2.34.57.56.97.56h4.88c.4 0 .77-.22.97-.56l2.44-4.22c.2-.35.2-.77 0-1.12Z" fill="#fff"/><path d="m12.75 8.53-1.02-1.77L7.9 8.9v.01a.6.6 0 0 1-1.22 0 .6.6 0 0 1 1-.47l3.79-2.13-.2-.35a.6.6 0 0 1-.76-.44H7.52a.6.6 0 0 1-.77.44l-1.5 2.58a.6.6 0 0 1-.02.85l1.14 1.98L10.3 9.1v-.05a.6.6 0 1 1 .6.6.6.6 0 0 1-.34-.1L6.63 11.8l.13.23a.6.6 0 0 1 .76.42h3a.6.6 0 0 1 .74-.43l1.52-2.63a.6.6 0 0 1-.03-.87Z" fill="#fff"/></svg>