<!-- by TradingView --><svg width="18" height="18" xmlns="http://www.w3.org/2000/svg"><path fill="#F0F3FA" d="M0 0h18v18H0z"/><path d="M11 10V4l1.5 3.5v6.392c-.503.112-1.5.108-1.5.108v-4l-1 2H8l-1-2v4s-.88.016-1.5-.108V7.5L7 4v6h4z" fill="#E85C50"/><path d="M5.5 13.89c-.672-.156-1.5-.82-1.5-1.494V4l1.5 3.5v6.39zm7 0c.672-.156 1.5-.82 1.5-1.494V4l-1.5 3.5v6.39z" fill="#CF3339"/><path d="M5.5 7.5L4 4h3L5.5 7.5zm7 0L11 4h3l-1.5 3.5z" fill="#E33936"/><path d="M11 14H7l1-2h2l1 2z" fill="#CF3339"/><path d="M8 12l-1 2v-4l1 2zm3 2l-1-2 1-2v4z" fill="#E33937"/></svg>