<!-- by TradingView --><svg width="18" height="18" viewBox="0 0 18 18" xmlns="http://www.w3.org/2000/svg"><path fill="url(#afgbpbaux)" d="M0 0h18v18H0z"/><path fill-rule="evenodd" d="M13.94 6.18 10.5 9.93v.04l.41.7 1.37 2.31a267.4 267.4 0 0 1-2.23-1.14 3.6 3.6 0 0 0-.67-.3c-.39-.1-.78-.04-1.17.16L5.72 13c-.02 0-.03 0-.01-.03l.26-.44L7.5 9.96a.03.03 0 0 0 0-.03l-.8-.87-3.68-4.03A5644.33 5644.33 0 0 1 8.56 6.7c.18.06.37.07.56.06.12-.01.29-.05.5-.12A3320.7 3320.7 0 0 0 15 5.02l-1.06 1.16Zm-4.4 1.34a1109.07 1109.07 0 0 1 3.44-1.22L9.4 8.68a.66.66 0 0 1-.53.11 1.5 1.5 0 0 1-.45-.23 392.6 392.6 0 0 0-3.35-2.23c-.08-.05-.07-.06 0-.03L8.7 7.6c.18.07.33.1.5.05l.35-.13Zm3.6-1.13c0-.01 0-.02-.02-.02L9.55 9.05c-.18.14-.32.22-.41.24-.2.04-.38 0-.55-.13a3628.85 3628.85 0 0 0-3.76-2.82l3.4 3.56v.04L6.3 12.35a357.3 357.3 0 0 0 2.3-1.77.6.6 0 0 1 .53-.13c.1.02.23.1.4.23a271.23 271.23 0 0 0 2.2 1.7L9.77 9.94v-.02l3.37-3.52Z" fill="#fff"/><defs><linearGradient id="afgbpbaux" x1="9" y1="0" x2="9" y2="18" gradientUnits="userSpaceOnUse"><stop stop-color="#6564FE"/><stop offset="1" stop-color="#4C40F8"/></linearGradient></defs></svg>