<!-- by TradingView --><svg width="18" height="18" viewBox="0 0 18 18" xmlns="http://www.w3.org/2000/svg"><path fill="#F0F3FA" d="M0 0h18v18H0z"/><path d="M12 2.03 4.1 9.45l4.23.68-2.12 5.84 7.69-7.25-3.71-.68.18-1.53 1.62-4.48Z" fill="#BAFE00"/><path d="m4.2 9.42 4.2.67-2.07 5.7 7.47-7.04-3.67-.67.19-1.58 1.55-4.3L4.2 9.43ZM11.95 2l.09.05-1.62 4.47L10.24 8l3.76.7L6.25 16l-.09-.05 2.1-5.78L4 9.47 11.95 2Z"/><path d="M6.3 5a6.04 6.04 0 0 1-.37-.34 22.23 22.23 0 0 1-.28 1.11c0 .1 0 .36.07.6.07.25.27.58.36.7l.18.35c.04.08.04.37.04.5v.8l-.1.2.01.16-.02.22c0 .02-.13.2-.19.3l-.08.3.08.26c.04.1.3.43.43.57l.08.19.16.32.27.29c.05.05.15.2.22.32.09.16.22.36.35.4.11.04.18.05.2.04l.11.24c.05.11.25.32.34.4.1.09.33.25.37.25.05 0 .33.08.46.12l.3.04.3-.04.37-.12.45-.26.26-.34.14-.24.18-.08.24-.21.15-.25.26-.3.41-.5.07-.17.13-.23.35-.5.04-.16-.1-.38a7.38 7.38 0 0 0-.14-.23.95.95 0 0 1-.07-.28c-.02-.15-.08-.2-.11-.25a.77.77 0 0 1-.06-.18 5.57 5.57 0 0 1-.06-.7c.01-.14.1-.34.15-.43l.46-.79c.07-.15.2-.49.22-.64a1.9 1.9 0 0 0-.1-.6l-.21-.75c-.26.2-.83.63-1.08.75-.32.16-.7.38-.9.56-.16.15-.3.33-.34.4a2.91 2.91 0 0 0-.87-.17c-.56-.05-1 .14-1.15.25l-.2-.35a2.02 2.02 0 0 0-.22-.23l-.42-.2-.56-.31-.57-.4Z" fill="#fff"/><path d="m7.7 9.21-.17-.15-.08.1-.02.13c0 .04.02.13.08.24.08.14.3.17.53.18.18 0 .3-.08.33-.12l-.22-.08a.65.65 0 0 1-.11-.08.4.4 0 0 0-.05.03l-.1.02-.17-.11s-.05-.05-.06-.1c-.01-.02.02-.05.04-.06Z" fill="url(#acxs1f0f3)"/><path d="m10.76 9.2.2-.14.07.1.02.13c0 .04-.01.13-.08.24-.07.14-.29.17-.52.18-.19 0-.3-.08-.34-.12l.22-.1c.03 0 .1-.04.12-.06a.4.4 0 0 1 .05.03l.09.02.14-.12s.07-.06.08-.1c.01-.02-.03-.05-.05-.06Z" fill="url(#bcxs1f0f3)"/><path d="M8.6 12.05c.04.02.16.07.3.08.2.02.44 0 .51-.03a.77.77 0 0 0 .14-.08v-.09c-.02-.01-.1-.04-.23-.04-.18 0-.3.04-.4.06l-.07.02-.23.06-.03.02Zm-.02.07a1 1 0 0 0 .24.06h.74c.02-.02.08-.03.07-.04 0 0 0-.1.11-.12.09 0 .18.06.22.1l-.02.14-.59.14-.53-.05a3.58 3.58 0 0 1-.26-.16l.02-.07Z" fill="#5A5A5C"/><path d="M6.76 9.22c.02.03 0 .03-.02.03-.14 0-.33.2-.33.6 0 .32.1.58.14.67-.02.05-.05.25-.06.35l-.08-.14-.14-.2a9.3 9.3 0 0 1-.31-.46c-.04-.07-.03-.21-.02-.28l.13-.28.18-.32c.06-.12.24-.18.32-.19l.19.22ZM11.83 9.22c-.02.03 0 .03.02.03.14 0 .34.2.34.6 0 .32-.1.58-.15.67.02.05.05.25.06.35l.09-.14.13-.2c.1-.13.28-.4.31-.46.04-.07.03-.21.02-.28l-.13-.28-.18-.32c-.06-.12-.24-.18-.32-.19l-.19.22ZM7.5 9.05c.02.03 0 .1-.08.11-.12.02-.37 0-.34.05.02.06.21.43.27.48.07.06.16.18.45.18.24 0 .5-.1.6-.15l-.08-.16c.05.02.2.06.41.06.21 0 .3-.1.32-.14a.1.1 0 0 0-.02-.12c-.05-.05-.12-.09-.12-.18 0-.1.04-.27-.05-.4-.08-.12-.36-.4-.3-.41.08-.02.13.05.2.11a.9.9 0 0 1 .2.28c.01.05-.08.36.28.36.28 0 .32-.2.3-.31l.15-.3c.08-.09.21-.22.22-.18 0 .03-.1.15-.14.2-.07.08-.2.28-.2.44 0 .17-.06.27-.09.3a.43.43 0 0 0-.08.2c0 .08.18.13.27.15h.4l.04-.02-.1.1c0 .02-.03.04.09.07.12.03.17.08.28.1.1.02.2.04.3.03.08 0 .16-.02.19-.03.03-.03.1-.08.15-.1l.29-.3s0-.03.03-.07l.06-.12v-.1h-.06a.2.2 0 0 1-.08-.03h-.24l-.08-.08.01-.04.37-.1-.3.13.18.01h.34l.14-.07v.09l-.26.36c-.07.1-.28.33-.32.36a.28.28 0 0 0-.08.14l-.1.06c-.05.01-.2.04-.34.04-.15 0-.42-.05-.54-.08a.36.36 0 0 0-.17.04c-.04.03-.08-.09-.23-.08l-.36.04a.98.98 0 0 0-.33-.04.57.57 0 0 0-.3.12c-.02-.03-.1-.08-.25-.08-.2 0-.5.07-.6.07-.1 0-.36-.05-.38-.09-.02-.04.07-.03-.04-.12a3.91 3.91 0 0 1-.7-.86c.02.02.1.05.24.08.16.03.34.05.37.04.02 0 .13-.06.09-.09h-.03.03l.13.05Z" fill="#C0C4CA"/><path d="M10.81 9.29c.02-.04-.02-.1-.05-.11a.65.65 0 0 0-.09.07h.06l.04.04-.04.05c-.01.02-.06.03-.08.03-.02 0-.04-.03-.04-.04a.1.1 0 0 0 0-.04l-.09.06s.01.02.04.02c.04 0 .02.04.01.08 0 .03-.05 0-.08-.03-.02-.03 0-.04 0-.05l-.09.06c0 .01.03.03.1.05.06.02.09.01.09 0 .07-.05.2-.15.22-.2Z"/><path d="m6.13 5.52.23 1.58.37-.35.05.54.11.05H7l.4-.33.16-.1-.1-.2-.14-.1.11-.01-.37-.23.26-.03L7 5.87l-.28.24-.58-.59Zm6.36 0-.23 1.58-.37-.35-.05.54-.11.05h-.1l-.4-.33-.15-.1.1-.2.13-.1-.1-.01.36-.23-.26-.03.33-.47.27.24.58-.59Z" fill="url(#ccxs1f0f3)"/><path fill-rule="evenodd" d="m5.98 4.63-.04-.08-.29 1.08c-.04.17-.08.62.15 1.04.08.17.17.3.24.4l.09.16a.8.8 0 0 1 .13.45v1.04a.77.77 0 0 0-.07.13.3.3 0 0 0-.02.17c.03.1 0 .27-.09.4-.1.13-.18.3-.18.49 0 .08.03.17.07.25l.11.18.36.47.08.23c.04.1.1.2.17.26a2.62 2.62 0 0 1 .45.57c.04.08.09.19.17.28.1.1.22.19.4.18.1.3.45.9 1.24.99.05 0 .1-.02.16-.05.06-.04.1-.09.13-.17.01.05.03.1.06.12.07.07.16.1.27.1.1 0 .21-.03.32-.09l.15-.07h.02v-.01l.13-.06c.1-.05.19-.1.28-.2a1.55 1.55 0 0 0 .34-.52c.11-.02.33-.13.51-.41a2.62 2.62 0 0 1 .33-.41c.08-.08.15-.16.23-.28a.99.99 0 0 0 .3-.5 3.99 3.99 0 0 0 .45-.64.42.42 0 0 0 .04-.2.94.94 0 0 0-.2-.53.32.32 0 0 1-.07-.14.52.52 0 0 1-.02-.13l-.03-.16a.51.51 0 0 0-.09-.18.2.2 0 0 1-.02-.05 2.82 2.82 0 0 1-.1-.87c.01-.11.08-.26.16-.4l.17-.28.07-.11a4.17 4.17 0 0 0 .4-.9.83.83 0 0 0 .02-.32c-.05-.28-.22-.9-.3-1.16l-.02-.05-.04.03-.53.41c-.2.15-.4.28-.54.34-.17.08-.42.2-.65.36-.23.16-.45.36-.6.58a3.24 3.24 0 0 0-1.01-.16c-.45 0-.82.15-.99.24-.03-.09-.1-.21-.2-.33a.94.94 0 0 0-.4-.32 5.31 5.31 0 0 1-1.7-1.17Zm3.32 8.18a.62.62 0 0 0 .2-.11l.14-.1c.16-.11.35-.25.39-.39l.02-.09c.09-.05.23-.2.07-.42 0 .09 0 .28-.09.31-.06-.1-.3-.28-.77-.28-.47 0-.69.19-.74.28-.06 0-.17-.06-.11-.31-.19.2-.03.37.06.42 0 .06.04.19.17.27l.16.14c.12.1.26.24.43.28l-.06.28a.2.2 0 0 1-.1.12.31.31 0 0 1-.12.04 1.37 1.37 0 0 1-1.18-.96v-.03a1.9 1.9 0 0 1-.06-.37v-.05c0-.22 0-.76-.1-.9l-.02.08-.05-.03a.6.6 0 0 1 .08.3l-.23-.3a1.3 1.3 0 0 0-.26-.27h-.01c-.08 0-.28 0-.35.1l.11-.02.06-.03c.05-.02.08-.03.07 0a.57.57 0 0 0 0 .35l.18.36.32.47.1.11.04.2a.43.43 0 0 1-.28-.15 1.13 1.13 0 0 1-.18-.3 2.67 2.67 0 0 0-.46-.56.7.7 0 0 1-.15-.23 1.44 1.44 0 0 1-.06-.19c0-.1.01-.25.03-.32l-.1.2-.31-.4c-.03-.04-.07-.1-.1-.18a.54.54 0 0 1-.07-.22c0-.18.07-.33.17-.46.1-.15.13-.32.1-.44-.01-.04 0-.09.02-.14a.7.7 0 0 1 .06-.13V8.4c.1-.1.2-.35.25-.46l-.25.3v-.57c0-.2-.05-.34-.13-.48l-.1-.16a4.8 4.8 0 0 1-.23-.4c-.22-.4-.19-.83-.14-1l.24-.91a5.76 5.76 0 0 0 1.7 1.13c.14.05.27.17.37.3.1.13.17.26.2.35l.01.04.04-.03c.13-.08.52-.25.99-.25s.88.12 1.02.17l.02.01.02-.02c.14-.23.36-.43.59-.59.23-.16.47-.28.64-.35a11.71 11.71 0 0 0 1.04-.73c.09.29.25.85.3 1.11 0 .08 0 .19-.03.3a4.1 4.1 0 0 1-.46 1v-.01l-.17.28c-.08.14-.16.3-.17.43v.32l-.18-.24c.04.1.12.28.2.4a3.34 3.34 0 0 0 .08.41l.04.07c.03.04.06.1.07.15l.04.15.01.14c.02.06.04.12.08.16.1.1.17.27.2.51 0 .04-.02.1-.05.17a3.91 3.91 0 0 1-.43.61l-.09-.21c.02.09.05.29.03.37l.01-.02a.95.95 0 0 1-.25.36v.01c-.08.12-.16.2-.23.28l-.02.01v.02c-.1.1-.2.2-.32.39a.93.93 0 0 1-.4.36l.04-.23.1-.11.33-.47.18-.37a.57.57 0 0 0 0-.35c0-.02.02 0 .07.01l.06.03.1.02c-.05-.1-.26-.1-.33-.1h-.02c-.06.03-.2.2-.26.27l-.23.3a.6.6 0 0 1 .08-.3l-.04.03-.02-.08c-.11.14-.1.68-.1.9v.05c0 .13-.06.38-.08.46l-.02.07a1.9 1.9 0 0 1-.3.44.98.98 0 0 1-.27.18l-.12.06H10l-.16.08c-.1.05-.2.08-.29.08a.27.27 0 0 1-.2-.08.2.2 0 0 1-.05-.09 1.17 1.17 0 0 1-.01-.28ZM6.73 6.05l-.65-.67.27 1.77.35-.32.05.45c-.06-.03-.1-.07-.1-.1-.02.11.03.36.3.42-.14-.04-.2-.2-.21-.27.18.1.38.04.46 0h-.15a4.55 4.55 0 0 1 .5-.38l.03.1-.01-.1v-.02a.28.28 0 0 0-.07-.2.53.53 0 0 0-.09-.1h.02a.67.67 0 0 1 .27.02.4.4 0 0 0-.25-.08l-.28-.18.09-.01c.08-.01.2-.02.29 0a.42.42 0 0 0-.23-.06l-.35-.5-.24.23Zm.24 1.28a.47.47 0 0 1 .1-.1l.14-.12c.1-.08.22-.15.3-.2 0-.06-.03-.1-.07-.15a.46.46 0 0 0-.12-.1l-.06-.04h.01a.34.34 0 0 1 .08-.04L7 6.36h.04c.04-.02.1-.03.18-.04h.02l-.28-.4-.24.22-.55-.57.23 1.45.35-.32.07.6H6.8l.17.03Zm4.91-1.28.65-.67-.27 1.77-.35-.32-.05.45c.06-.03.1-.07.1-.1a.39.39 0 0 1-.3.42c.14-.04.2-.2.21-.27a.51.51 0 0 1-.46 0h.15a4.57 4.57 0 0 0-.5-.38l-.03.1.01-.1v-.02c0-.08.03-.15.07-.2a.53.53 0 0 1 .09-.1h-.02a.67.67 0 0 0-.27.02.4.4 0 0 1 .25-.08l.28-.18-.09-.01c-.08-.01-.2-.02-.29 0a.42.42 0 0 1 .23-.06l.35-.5.24.23Zm-.24 1.28a.47.47 0 0 0-.1-.1l-.14-.12c-.1-.08-.22-.15-.3-.2 0-.06.03-.1.07-.15a.47.47 0 0 1 .12-.1l.06-.04h-.01a.34.34 0 0 0-.08-.04l.35-.22h-.04a1.32 1.32 0 0 0-.18-.04h-.02l.28-.4.24.22.55-.57-.23 1.45-.35-.32-.07.6h.02a.73.73 0 0 1-.17.03ZM7.88 6.18l.01.01h-.01Zm.01.01.25.26-.11.07c.04-.07.07-.15-.15 0 .03-.08.08-.25.01-.33Zm2.77 0h.01-.01Zm0 0c-.07.08-.02.25.01.33-.22-.15-.19-.07-.15 0l-.11-.07.25-.26Zm-3.99 3.92c0 .1.04.3.2.38.04-.03.12-.1.14-.15a.67.67 0 0 1-.1.2l-.05.05c-.06.06-.13.13-.14.19-.01-.05 0-.16.1-.24a.35.35 0 0 1-.15-.43Zm.35.23Zm4.6.15c.16-.08.2-.29.2-.38.04.09.06.3-.15.43.11.08.12.2.1.24 0-.06-.07-.13-.13-.19a2.3 2.3 0 0 1-.05-.04.67.67 0 0 1-.1-.21c.01.06.1.12.13.15Zm-.14-.15Zm-4.4.8h.05V10.92c0-.02.01-.06 0-.07-.02 0-.08.02-.08.1l.03.18Zm.1-.26c.02 0 .05.01.05.03v.2l.02-.16.18.27a.56.56 0 0 1-.15.06c-.07.02-.08 0-.08-.02l-.01-.38Zm-.03.47-.05-.15s0-.02.02-.02c.02-.01.02 0 .03.02l.02.14s.03 0 .04.02c0 .01 0 .06-.02.08l-.04-.09Zm.05.1c.01-.03.03-.09.06-.1l.02-.01.06-.02c.03 0 .02.03.02.04v.13l.02.04h-.04l-.03-.01-.05-.03.02-.1-.05.1-.03-.04Zm.19.02v-.16l.07-.04.1.13-.1.08.11-.05.05.06a.65.65 0 0 1-.2.01.04.04 0 0 1-.03-.03Zm.07.14-.1.07a.16.16 0 0 1-.02-.07v-.01c0-.02 0-.03.05-.04.06 0 .15 0 .16.02a.4.4 0 0 1-.01.12c-.01.05-.04.13-.06.13a.48.48 0 0 1-.1-.12v-.02a.55.55 0 0 0 .08-.08Zm.16.33v-.38a.41.41 0 0 0-.04.09v.17l-.02-.05-.02.11c-.01.05.05.1.05.1v-.06l.03.02Zm3.8-.8h.03l.02-.19c0-.08-.05-.1-.07-.1-.02 0-.01.05 0 .07V11.14h.03Zm-.13-.23c0-.02.03-.03.05-.03l-.01.38c0 .01-.01.04-.09.02a.56.56 0 0 1-.14-.06l.17-.27.03.16v-.2Zm.14.29-.06.15-.04.09c0-.02-.02-.07-.01-.08a.07.07 0 0 1 .04-.02l.01-.14c0-.01.02-.03.04-.02l.02.02Zm-.16.15c.02.01.04.07.05.1l-.03.04-.05-.1.03.1c-.02 0-.04.01-.05.03a.11.11 0 0 1-.03.02l-.04-.01.02-.04v-.13c0-.01-.01-.04.01-.04s.04 0 .07.02l.02.01Zm-.14-.04v.16s0 .03-.02.03h-.2l.04-.07.1.05-.08-.08.09-.13.07.04Zm.03.37-.1-.07.08.08c.02.01 0 .02 0 .02a.48.48 0 0 1-.1.12c-.02 0-.04-.08-.05-.13a.4.4 0 0 1-.02-.12c.01-.02.1-.02.16-.02.05 0 .05.02.05.04v.01l-.02.07Zm-.26-.12v.38l.03-.02v.07s.06-.06.06-.1l-.02-.12-.03.05v-.17a.42.42 0 0 0-.04-.1Zm-2.29.62v-.06l-.03-.03.05-.02c.03-.09.2-.25.62-.25s.62.16.66.25l.01.02.02.06c-.06.03-.29.11-.7.11-.4 0-.58-.05-.63-.08Zm-2.27-3.1A.37.37 0 0 1 6.57 9l-.19-.08-.04.15ZM12.02 9c.1-.01.2.04.23.07l-.04-.15-.19.08Zm-3.39-.6h-.02v.02a14.94 14.94 0 0 1 .28.37V9.03a7.9 7.9 0 0 0 0 .13c0 .07.04.13.09.18.03.02.04.04.05.06v.09c-.01.01-.02.03-.05.04a.3.3 0 0 1-.08.05.68.68 0 0 1-.27.02h-.07l-.16-.02a.51.51 0 0 1-.12-.03 5.34 5.34 0 0 1-1.25-.67l.01.02a5.35 5.35 0 0 0 .43.15.51.51 0 0 1-.05.03.27.27 0 0 1-.1 0h-.08a1.83 1.83 0 0 0-.07 0 1.96 1.96 0 0 0-.24-.02h-.09l-.02-.01-.02-.02a.47.47 0 0 1-.05-.05L6.72 9a.5.5 0 0 0 .08.07l.04.02a10.71 10.71 0 0 1 .13.16l.02.04a11.65 11.65 0 0 0 .14.22.81.81 0 0 0 .45.37.6.6 0 0 0 .18.03 1.95 1.95 0 0 0 .64-.14l.04-.02.02-.01v-.01l-.07-.11V9.6l.16.01a32.32 32.32 0 0 1 .15.01c.01.03.06.1.13.13a.5.5 0 0 1 .1.06l.08.04.1.04a3.28 3.28 0 0 1 .13.04v-.02a3.31 3.31 0 0 0-.29-.13.53.53 0 0 0-.1-.06.23.23 0 0 1-.11-.1c.06 0 .12 0 .17-.03a.34.34 0 0 0 .1-.04.12.12 0 0 0 .04-.07.18.18 0 0 0 0-.1.2.2 0 0 0-.05-.07.26.26 0 0 1-.08-.17.66.66 0 0 1 0-.12 6.42 6.42 0 0 0 0-.27l-.29-.35Zm-.29 1.2V9.6a.4.4 0 0 1-.07-.02 3.71 3.71 0 0 0-.73-.5.28.28 0 0 0-.09.26c0 .04.02.08.03.1a.2.2 0 0 0 .03.07l.02.01.1.1a.95.95 0 0 0 .63.04.33.33 0 0 0 .08-.05Zm-.83-.54a.52.52 0 0 1-.08.04.3.3 0 0 1-.11 0H7.2a9 9 0 0 1-.33-.02 10.1 10.1 0 0 1 .12.15.48.48 0 0 0 .02.03 10.62 10.62 0 0 0 .14.22.78.78 0 0 0 .43.36c.06.02.1.03.17.03a1.9 1.9 0 0 0 .63-.14.31.31 0 0 0 .03-.02l-.06-.08a.37.37 0 0 1-.09.04.99.99 0 0 1-.3.04.68.68 0 0 1-.36-.08c-.06-.04-.1-.08-.11-.1l-.01-.01a.23.23 0 0 1-.04-.07.46.46 0 0 1-.03-.12c-.01-.09 0-.19.09-.27Zm2.32-.66h.02v.02a14.91 14.91 0 0 0-.28.37V9.03a7.9 7.9 0 0 1 0 .13c0 .07-.03.13-.09.18a.16.16 0 0 0-.04.06v.09l.04.04a.3.3 0 0 0 .08.05c.08.02.17.03.27.02h.08l.15-.02c.05 0 .09-.01.12-.03a5.37 5.37 0 0 0 1.25-.67l-.01.02a5.37 5.37 0 0 1-.43.15.5.5 0 0 0 .05.03H11.3l.14-.01a3.3 3.3 0 0 0 .2-.02c.02 0 .03-.01.03-.02a.48.48 0 0 0 .05-.05l.03.02a.5.5 0 0 1-.08.07 9.85 9.85 0 0 0-.16.17v.01l-.03.04a9.53 9.53 0 0 1-.14.22.8.8 0 0 1-.45.37.6.6 0 0 1-.18.03 1.95 1.95 0 0 1-.64-.14.35.35 0 0 1-.03-.02.1.1 0 0 1-.03-.01v-.01l.08-.12a1.35 1.35 0 0 1-.17.01l-.07.01a7.31 7.31 0 0 1-.2.2.38.38 0 0 1-.03 0l-.05.02-.04.01a.28.28 0 0 0-.07.04.9.9 0 0 0-.07.05h-.02v-.02a.92.92 0 0 1 .07-.05.3.3 0 0 1 .08-.05h.04v-.01l.05-.01.03-.01.03-.01.13-.16a.7.7 0 0 1-.24-.03.34.34 0 0 1-.1-.04.12.12 0 0 1-.04-.07.18.18 0 0 1 0-.1.2.2 0 0 1 .05-.07c.05-.05.08-.1.08-.17v-.12a6.42 6.42 0 0 1 0-.27l.29-.35Zm1.69.76.06-.08a1.82 1.82 0 0 1-.15 0l-.13.02a10.55 10.55 0 0 1-.07 0h-.08a.3.3 0 0 1-.12 0L11 9.1c.07.07.08.16.07.24l-.03.12a.23.23 0 0 1-.04.07l-.01.01-.11.1a.68.68 0 0 1-.36.08.98.98 0 0 1-.3-.04.32.32 0 0 1-.11-.05l-.07.1.03.01.09.04a1.73 1.73 0 0 0 .54.1c.06 0 .12 0 .17-.03a.78.78 0 0 0 .43-.36 41.37 41.37 0 0 0 .14-.22l.02-.02v-.01l.01-.01.01-.02.04-.04Zm-.58-.09.01-.01-.02.02a1.45 1.45 0 0 0-.13.09 36.38 36.38 0 0 0-.6.4.4.4 0 0 1-.07.02l.1.05c.06.02.16.04.29.04.17 0 .27-.04.34-.08a.41.41 0 0 0 .12-.1l.03-.06a.43.43 0 0 0 .03-.11c0-.09-.01-.19-.1-.26Zm-3.54.84h.02l.02.03.07.03a1.93 1.93 0 0 0 .7 0h.03c.07-.02.14-.04.2-.03.12.02.2.06.23.09v.02h-.03a.39.39 0 0 0-.2-.08.6.6 0 0 0-.2.02h-.03a1.96 1.96 0 0 1-.71 0 .28.28 0 0 1-.08-.03.08.08 0 0 1-.03-.03l.01-.02Zm3.64 0h.02c.01 0 .02.01.01.02l-.03.03a.29.29 0 0 1-.07.04c-.07.02-.17.04-.32.04-.18 0-.3-.03-.4-.04h-.03a.6.6 0 0 0-.2-.03.39.39 0 0 0-.2.08H9.8v-.02c.02-.03.1-.07.22-.09.07 0 .13 0 .2.02h.04a1.93 1.93 0 0 0 .7 0 .25.25 0 0 0 .06-.02l.02-.02ZM8.82 9.9a.16.16 0 0 0-.03.03h-.02v-.01a.2.2 0 0 1 .03-.04c.02-.02.04-.03.07-.02a3.85 3.85 0 0 1 .16.07H9a3.86 3.86 0 0 0-.15-.04h-.03Zm.95.03a.16.16 0 0 0-.03-.03l-.03-.01a3.86 3.86 0 0 0-.17.04v-.02l.16-.05c.02-.01.05 0 .06.02a.2.2 0 0 1 .04.04v.02h-.03Zm-1.18.33h.02l.16.1a4.95 4.95 0 0 1 .08.18l.04.05v.03h-.02a1.08 1.08 0 0 1-.08-.12l-.05-.13-.14-.08v-.03Zm0 .45h.03a4.14 4.14 0 0 0 .16.09l.03.01.01.03v.03l-.01.02.02.01.01.02a1.48 1.48 0 0 1 .13.14v.02h-.03a3.92 3.92 0 0 0-.16-.2v-.04l-.04-.02a4.36 4.36 0 0 1-.14-.11Zm.03.2s.04 0 .06.06h.02v-.01c-.01-.07-.06-.08-.08-.08-.01 0-.02 0-.02.02l.02.01Zm1.29-.65h-.03l-.15.1a4.95 4.95 0 0 0-.08.18l-.04.05v.03h.02a1.08 1.08 0 0 0 .08-.12l.04-.13.15-.08v-.03Zm0 .45h-.03a4.14 4.14 0 0 1-.16.09H9.7l-.02.01-.01.03V10.9l-.02.02a1.47 1.47 0 0 0-.13.14v.02h.03a3.93 3.93 0 0 1 .16-.2v-.04l.04-.02.07-.04a4.36 4.36 0 0 0 .07-.07Zm-.03.2s-.04 0-.06.06H9.8v-.01c.01-.07.05-.08.08-.08.01 0 .02 0 .02.02l-.02.01Z"/><defs><linearGradient id="acxs1f0f3" x1="7.5" y1="9.14" x2="8.04" y2="9.72" gradientUnits="userSpaceOnUse"><stop stop-color="#628800"/><stop offset=".5" stop-color="#B3F700"/><stop offset="1" stop-color="#4A6800"/></linearGradient><linearGradient id="bcxs1f0f3" x1="10.98" y1="9.14" x2="10.44" y2="9.72" gradientUnits="userSpaceOnUse"><stop stop-color="#628800"/><stop offset=".5" stop-color="#B3F700"/><stop offset="1" stop-color="#4A6800"/></linearGradient><linearGradient id="ccxs1f0f3" x1="11.78" y1="5.52" x2="11.78" y2="7.34" gradientUnits="userSpaceOnUse"><stop stop-color="#A7A9AC"/><stop offset="1" stop-color="#424242"/></linearGradient></defs></svg>