<!-- by TradingView --><svg width="18" height="18" viewBox="0 0 18 18" fill="none" xmlns="http://www.w3.org/2000/svg">
<rect width="18" height="18" fill="#F0F3FA"/>
<path fill-rule="evenodd" clip-rule="evenodd" d="M9 14C11.7614 14 14 11.7614 14 9C14 6.23858 11.7614 4 9 4C6.23858 4 4 6.23858 4 9C4 11.7614 6.23858 14 9 14ZM9 13.3962C11.428 13.3962 13.3962 11.428 13.3962 9C13.3962 6.57203 11.428 4.60377 9 4.60377C6.57203 4.60377 4.60377 6.57203 4.60377 9C4.60377 11.428 6.57203 13.3962 9 13.3962Z" fill="#FFE900"/>
<path fill-rule="evenodd" clip-rule="evenodd" d="M9 15C12.3137 15 15 12.3137 15 9C15 5.68629 12.3137 3 9 3C5.68629 3 3 5.68629 3 9C3 12.3137 5.68629 15 9 15ZM9 14C11.7614 14 14 11.7614 14 9C14 6.23858 11.7614 4 9 4C6.23858 4 4 6.23858 4 9C4 11.7614 6.23858 14 9 14Z" fill="#FFB701"/>
<path d="M7.2152 11L5.11768 8H5.7625C5.98189 8 6.16026 8.19265 6.22203 8.28806L7.2152 9.69054L8.21579 8.28806C8.41739 8.03046 8.67256 8 8.80132 8H11.0471C11.5818 8 12.1543 8.29876 12.1765 9C12.1943 9.56099 11.7593 9.83131 11.6845 9.87939L12.5294 11H11.8846C11.683 11 11.4696 10.8692 11.388 10.7595L10.847 10H8.88285C8.93967 9.92129 9.08741 9.69907 9.22379 9.52162C9.36017 9.34416 9.58697 9.32618 9.68332 9.33333H11.1376C11.3215 9.33333 11.4706 9.18424 11.4706 9.00032C11.4706 8.8164 11.3215 8.6673 11.1376 8.6673H9.14226C8.9288 8.6673 8.77167 8.7961 8.71979 8.8605L7.2152 11Z" fill="black"/>
</svg>
