<!-- by TradingView --><svg width="18" height="18" xmlns="http://www.w3.org/2000/svg"><path fill="url(#paint0_linear)" d="M0 0h18v18H0z"/><path d="M13.927 6.487c.053 0 .087.072.068.132l-.12.337c-.013.031-.04.052-.07.051h-.655c-.026 0-.053.024-.064.056l-.216.584c-.01.028.019.079.044.079h.579c.053 0 .087.074.068.13l-.18.428c-.012.03-.04.06-.068.061h-.655c-.028-.001-.068.008-.08.04l-1.983 5.488c-.009.028-.033.047-.057.046H7.51c-.028.002-.068-.057-.068-.057L5.88 9h2.747l.396.876 1.858-4.8c.013-.03.04-.076.068-.076h2.744c.049 0 .085.098.064.15l-.444 1.279c-.01.028.009.058.034.058h.58zm-4.49.466c-.01.031-.038.053-.066.053h-4.98c-.027 0-.054-.022-.066-.053l-.32-.325c-.02-.053.018-.14.067-.141h.58c.026 0 .043-.016.032-.046l-.279-1.297c-.02-.054.018-.143.066-.144h2.744c.029 0 .055.04.066.071l.31 1.38c.012.032.037.036.066.036h1.917c.052 0 .088.083.066.142l-.203.324zm-.544 1.335c-.01.031-.038.057-.066.057H4.823c-.029 0-.055-.026-.066-.057l-.273-.428c-.02-.054.017-.134.066-.134h4.524c.053 0 .088.075.067.134l-.248.428z" fill="#fff"/><defs><linearGradient id="paint0_linear" x1="1.768" y1="4.838" x2="15.38" y2="14.466" gradientUnits="userSpaceOnUse"><stop stop-color="#F82B1E"/><stop offset="1" stop-color="#531685"/></linearGradient></defs></svg>