<!-- by TradingView --><svg width="18" height="18" viewBox="0 0 18 18" xmlns="http://www.w3.org/2000/svg"><path fill="#F0F3FA" d="M0 0h18v18H0z"/><path d="M6.99 7.02v.02c.34.71.62 1.24.95 1.94V9H5.95l-.03-.02-.02-.02-1.9-3.93A.02.02 0 0 1 4 5 .02.02 0 0 1 4.01 5h6.91a.01.01 0 0 1 0 .02l-.8 1.96c-.01.02-.02.02-.04.02H7.03C7 7 7 7 6.99 7.02Z" fill="#0D0E59"/><path d="m9 11.2.02-.01 2.96-6.17V5H14v.01l-4.77 9.97-.02.01-.02.01h-.38c-.02 0-.04 0-.05-.03l-2.4-4.94c0-.02 0-.03.02-.03h1.98l.02.01.01.01.58 1.16.02.02Z" fill="#0072FD"/></svg>