<!-- by TradingView --><svg width="18" height="18" viewBox="0 0 18 18" xmlns="http://www.w3.org/2000/svg"><path fill="url(#atlpj0zjz)" d="M0 0h18v18H0z"/><path fill-rule="evenodd" d="M9 14A5 5 0 1 0 9 4a5 5 0 0 0 0 10Zm0-.83a4.17 4.17 0 1 0 0-8.34 4.17 4.17 0 0 0 0 8.34Z" fill="#00D8FF"/><path d="M6.36 8h-.7l1.63 3.47h.5l1.22-2.65 1.2 2.65h.53L12.34 8h-.66l-1.2 2.63L9.27 8h-.52l-1.23 2.63L6.36 8Z" fill="#fff"/><path d="M5.67 6.92v.41h2.35l.2-.22h4.11v-.2H5.67Z" fill="#FD124D"/><defs><linearGradient id="atlpj0zjz" x1="3.35" y1="3.12" x2="21.9" y2="24.43" gradientUnits="userSpaceOnUse"><stop stop-color="#1A1E21"/><stop offset="1" stop-color="#06060A"/></linearGradient></defs></svg>