<!-- by TradingView --><svg width="18" height="18" viewBox="0 0 18 18" xmlns="http://www.w3.org/2000/svg"><path fill="#F0F3FA" d="M0 0h18v18H0z"/><path fill-rule="evenodd" d="M8.3 4H3v.33h.22c.34 0 .49.35.49.68v2.97c0 .8-.43 1.02-.71 1.03.7.08.72.68.7.97v2.95c0 .33-.14.74-.48.74H3V14h5.3v-.33h-.12c-.43 0-1.18-.48-1.18-.9v-.88c0-.8 1.1-1.95 1.75-2.62L9 9.01l.25.26C9.9 9.94 11 11.08 11 11.9v.89c0 .41-.75.89-1.18.89H9.7V14H15v-.33h-.22c-.34 0-.49-.41-.49-.74V9.98c-.01-.3 0-.9.71-.97-.28 0-.7-.22-.7-1.03V5.01c0-.33.14-.68.48-.68H15V4H9.7v.33h.12c.43 0 1.18.42 1.18.83v.99c.03.3-.64 1.31-2 2.86-1.36-1.55-2.03-2.55-2-2.86v-.99c0-.41.75-.83 1.18-.83h.11V4ZM5 7.22v-2.6a.3.3 0 0 0-.59 0V7.9c0 .79.4 1.11.67 1.11-.67.08-.68.98-.67 1.27v3.1a.3.3 0 1 0 .59 0v-2.52C5 9.7 6.1 9.14 6.53 9.01 5.49 8.59 5 7.64 5 7.21Zm8 0v-2.6a.3.3 0 0 1 .59 0V7.9c0 .79-.4 1.11-.67 1.11.67.08.68.98.67 1.27v3.1a.3.3 0 0 1-.59 0v-2.52c0-1.17-1.1-1.72-1.53-1.85C12.51 8.59 13 7.64 13 7.21Z"/></svg>