<!-- by TradingView --><svg width="18" height="18" viewBox="0 0 18 18" fill="none" xmlns="http://www.w3.org/2000/svg">
<rect width="18" height="18" fill="#F0F3FA"/>
<path d="M13.9784 9.8775C13.915 9.60015 13.888 9.68107 13.8975 10.1203C13.8987 10.1855 13.8954 10.2217 13.8877 10.2289C13.7894 10.3229 13.753 10.2997 13.7784 10.1594C13.7897 10.0981 13.782 10.0446 13.7553 9.99889C13.8234 9.68172 13.8267 9.38773 13.7651 9.1169C13.7426 9.01575 13.6925 8.96746 13.6149 8.97202C13.6078 8.94527 13.612 8.9221 13.6274 8.90252C13.6364 8.89123 13.649 8.88427 13.6625 8.88317C13.676 8.88207 13.6893 8.88692 13.6993 8.89665C13.7775 8.96974 13.811 9.07481 13.7998 9.21185C13.7974 9.23926 13.8089 9.25134 13.8344 9.24807L13.8637 9.24416C13.8957 9.24024 13.9105 9.22066 13.9082 9.18542C13.8877 8.86043 13.7464 8.36805 13.3786 8.38567C13.3555 8.38632 13.3421 8.39937 13.3386 8.42482C13.3338 8.45419 13.3178 8.46724 13.2906 8.46398C13.2787 8.46267 13.2707 8.45582 13.2666 8.44342C13.2471 8.38404 13.2195 8.37914 13.184 8.42874C13.1395 8.49073 13.0779 8.50999 12.9991 8.48649C12.966 8.4767 12.9363 8.48388 12.9103 8.50803C12.7788 8.63072 12.7026 8.78212 12.6819 8.96224C12.5859 9.21087 12.5397 9.48627 12.5433 9.78842C12.5332 10.0514 12.5377 10.3395 12.5566 10.6528C12.5646 10.7761 12.6073 10.8623 12.6677 10.9611C12.6985 11.012 12.7394 11.0267 12.7903 11.0052C12.8306 10.9882 12.8344 10.9641 12.8019 10.9328L12.7201 10.8554C12.6911 10.828 12.6786 10.7934 12.6828 10.7517C12.7006 10.5741 12.7121 10.3979 12.7175 10.2231C12.718 10.2035 12.7249 10.1872 12.7379 10.1741C12.7474 10.1643 12.7577 10.1588 12.769 10.1575C12.7998 10.1529 12.8199 10.1669 12.8294 10.1996L13.1084 11.1197C13.1434 11.1497 13.1706 11.1833 13.1902 11.2205C13.1683 11.2225 13.144 11.2323 13.1173 11.2499C13.0213 11.2258 12.8812 11.2493 12.697 11.3204L12.8045 11.1824C12.8247 11.1563 12.8193 11.1393 12.7885 11.1315C12.7684 11.1269 12.7486 11.1351 12.729 11.1559C12.6443 11.2473 12.5762 11.3622 12.5246 11.5005L11.9995 12.1143C11.618 12.4256 11.2166 12.6804 10.7954 12.8788L10.5777 12.9512C10.6239 12.8116 10.6423 12.7088 10.6328 12.6429C11.1565 12.4523 11.6375 12.1727 12.0759 11.804C12.2974 11.6173 12.4488 11.3994 12.53 11.1501C12.5412 11.1168 12.5397 11.0842 12.5255 11.0522C12.5232 11.0475 12.5197 11.0436 12.5154 11.0412C12.5111 11.0387 12.5063 11.0377 12.5015 11.0383C12.4967 11.039 12.4921 11.0412 12.4885 11.0447C12.4849 11.0482 12.4823 11.0529 12.4811 11.0581C12.4722 11.1011 12.4556 11.139 12.4313 11.1716C12.1257 11.5834 11.8751 11.8637 11.6796 12.0125C11.1672 12.4014 10.5357 12.6582 9.78511 12.7829C9.74601 12.79 9.7309 12.7672 9.73979 12.7143C10.3565 12.6054 10.9041 12.4066 11.3828 12.1182C11.6938 11.9302 11.9776 11.6571 12.2341 11.2989L12.4598 10.9592C12.5006 10.9742 12.5063 10.9053 12.4766 10.7526C12.447 10.6012 12.41 10.443 12.3656 10.2779C12.426 10.0201 12.4609 9.74731 12.4704 9.45951C12.474 9.35379 12.5311 9.12604 12.6419 8.77625C12.5548 8.15497 12.3176 7.58591 11.9302 7.06905C11.8537 6.9666 11.7684 6.86903 11.6742 6.77636C11.5795 6.68369 11.4876 6.59135 11.3988 6.49934C11.2637 6.35968 11.1121 6.24613 10.9438 6.15868C10.7442 6.05427 10.5496 5.94952 10.36 5.84446C10.3369 5.8314 10.3117 5.82161 10.2845 5.81509C10.2584 5.80987 10.2374 5.79584 10.2214 5.773C10.2001 5.74298 10.1725 5.72927 10.1388 5.73188C10.0878 5.73515 10.044 5.71818 10.0073 5.68098C9.98647 5.66001 9.95999 5.64696 9.93172 5.64378C9.85827 5.6366 9.78777 5.62388 9.72024 5.6056C9.70365 5.60104 9.69477 5.58929 9.69358 5.57036C9.6918 5.54296 9.67907 5.52534 9.65537 5.51751C9.51201 5.47182 9.3571 5.43495 9.19064 5.40689C9.17524 5.40428 9.16398 5.39579 9.15687 5.38144C9.14384 5.35338 9.15154 5.33902 9.17998 5.33837L9.25373 5.33739C9.57895 5.36806 9.90062 5.45747 10.2187 5.6056C10.8129 5.88818 11.3455 6.28398 11.8164 6.793C11.9325 6.91765 12.0963 7.14606 12.3078 7.47823C12.3422 7.53305 12.3712 7.52979 12.3949 7.46844C12.4008 7.45278 12.4088 7.43907 12.4189 7.42733C12.4509 7.38948 12.4645 7.34575 12.4598 7.29616C12.4509 7.19892 12.4272 7.10919 12.3887 7.02696C12.33 6.90297 12.2658 6.77343 12.1958 6.63834C12.1402 6.53001 12.0623 6.43538 11.9622 6.35446C11.8591 6.27093 11.7536 6.18968 11.6458 6.11072C11.5966 6.07547 11.5152 6.00434 11.4015 5.89732C11.3369 5.83662 11.2522 5.7668 11.1473 5.68783C10.8203 5.44376 10.5149 5.27865 10.2312 5.19251C9.61924 4.93865 8.96731 4.81531 8.27539 4.82249C8.53604 4.74809 8.7813 4.73113 9.01114 4.77159C9.77948 4.87013 10.4815 5.11453 11.1171 5.50478C11.876 5.97139 12.4263 6.65009 12.7681 7.54088C12.8433 7.73796 12.9212 8.00912 13.0018 8.35434C13.0065 8.37718 13.0193 8.38567 13.04 8.37979L13.0658 8.37196C13.0788 8.36805 13.0836 8.35924 13.08 8.34553L12.9032 7.62604C12.8919 7.6143 12.8863 7.60157 12.8863 7.58787C12.8869 7.55719 12.9011 7.54055 12.9289 7.53794C12.9408 7.53664 12.9517 7.53827 12.9618 7.54284C12.9657 7.54454 12.9698 7.54533 12.9739 7.54514C12.9781 7.54495 12.9821 7.54378 12.9858 7.54173C12.9894 7.53968 12.9926 7.53678 12.995 7.53325C12.9975 7.52972 12.9992 7.52564 13 7.5213C13.0889 7.04556 13.1597 6.56166 13.2124 6.0696C13.2521 5.69632 13.2654 5.29595 13.2524 4.8685C13.2462 4.63846 13.1857 4.43093 13.1386 4.21166C13.1308 4.17459 13.1131 4.14098 13.0879 4.11517C13.0627 4.08935 13.0312 4.0725 12.9974 4.06678C12.8931 4.04851 12.7797 4.06385 12.657 4.11279C12.1594 4.1725 11.6929 4.38101 11.2166 4.54448C11.2291 4.50598 11.2217 4.48705 11.1944 4.48771C11.6843 4.28149 12.1873 4.1278 12.7032 4.02665C12.8193 4.00381 12.9278 3.99565 13.0285 4.00218C13.0537 4.00366 13.078 4.01275 13.0989 4.02847C13.1197 4.04418 13.1362 4.0659 13.1466 4.09126C13.2693 4.39373 13.3475 4.73537 13.3457 5.06917C13.3409 5.72829 13.2927 6.31955 13.2008 6.84293C13.1955 6.87425 13.1994 6.90395 13.2124 6.93201C13.4097 7.37577 13.5456 7.82117 13.6203 8.2682C13.6256 8.29822 13.6374 8.32465 13.6558 8.34749C13.8045 8.53087 13.9022 8.75079 13.949 9.00726C14.0059 9.32182 14.0157 9.6119 13.9784 9.8775Z" fill="#1B1E3C"/>
<path d="M12.9024 7.62604C12.7306 7.33041 12.6595 7.08863 12.6891 6.90068C13.0321 6.15215 13.1556 5.36414 13.0597 4.53665C13.0857 4.34413 13.0203 4.23384 12.8633 4.20578C12.8325 4.17576 12.773 4.19142 12.6847 4.25277C12.6953 4.23384 12.7028 4.21687 12.7069 4.20186C12.7116 4.18294 12.709 4.16532 12.6989 4.149C12.6882 4.13073 12.674 4.11866 12.6562 4.11279C12.7789 4.06384 12.8923 4.0485 12.9966 4.06678C13.0304 4.07249 13.062 4.08934 13.0871 4.11516C13.1123 4.14098 13.13 4.17458 13.1379 4.21165C13.185 4.43093 13.2454 4.63845 13.2516 4.86849C13.2646 5.29594 13.2513 5.69631 13.2116 6.0696C13.1589 6.56165 13.0881 7.04555 12.9992 7.5213C12.9984 7.52564 12.9967 7.52972 12.9943 7.53325C12.9918 7.53678 12.9886 7.53967 12.985 7.54172C12.9813 7.54378 12.9773 7.54494 12.9732 7.54513C12.969 7.54532 12.9649 7.54454 12.961 7.54283C12.951 7.53826 12.94 7.53663 12.9282 7.53794C12.9003 7.54055 12.8861 7.55719 12.8855 7.58786C12.8855 7.60157 12.8911 7.61429 12.9024 7.62604Z" fill="#2D5893"/>
<path d="M11.1937 4.48772C11.221 4.48706 11.2284 4.50599 11.2159 4.54449L10.4233 4.84501C10.367 4.88613 10.2998 4.90864 10.2216 4.91256C10.1618 4.91517 10.1588 4.90277 10.2127 4.87536L10.3611 4.79998C10.4666 4.74647 10.4639 4.70177 10.3531 4.66588C9.94022 4.53144 9.48734 4.45476 8.99447 4.43584C8.18822 4.40582 7.43114 4.57484 6.72323 4.9429C6.6871 4.93572 6.66133 4.923 6.64593 4.90473C6.03635 4.56342 5.46262 4.32033 4.92473 4.17545C4.80566 4.14347 4.73368 4.19796 4.7088 4.33892C4.66911 4.37155 4.66348 4.44889 4.69192 4.57092L4.60395 5.08288C4.41675 5.72896 4.40638 6.37666 4.57285 7.02599C4.5379 7.13171 4.51953 7.24592 4.51775 7.3686C3.8442 8.84771 3.88774 10.6665 4.9194 11.94C4.93895 11.9642 4.94872 11.9923 4.94872 12.0242C4.94872 12.1391 5.00204 12.2396 5.10867 12.3257C5.11755 12.3492 5.11963 12.3685 5.11489 12.3835C5.19782 12.5773 5.32134 12.7437 5.48543 12.8827C5.49038 12.8867 5.49622 12.8892 5.50234 12.89C5.50847 12.8907 5.51465 12.8896 5.52026 12.8868C5.52587 12.884 5.53071 12.8796 5.53427 12.8741C5.53783 12.8685 5.53999 12.8621 5.54052 12.8553C5.54822 12.7548 5.50853 12.6948 5.42145 12.6752C5.40056 12.6704 5.38193 12.6579 5.36902 12.6401C5.3561 12.6223 5.34979 12.6003 5.35125 12.5783C5.35184 12.5685 5.36458 12.5613 5.38946 12.5567C5.88589 12.8889 6.41223 13.1376 6.96848 13.3027C7.15331 13.3575 7.53985 13.4094 8.12809 13.4583L8.36535 13.4681C8.37068 13.4688 8.37334 13.4717 8.37334 13.4769V13.5024C8.37312 13.5092 8.37058 13.5157 8.36627 13.5204C8.36196 13.5252 8.35622 13.5278 8.35024 13.5278L8.08011 13.5347C7.46995 13.5138 6.87933 13.396 6.30826 13.1813C6.29938 13.178 6.29701 13.181 6.30115 13.1901C6.36809 13.3317 6.38972 13.4156 6.36602 13.4417C6.30856 13.4071 6.25702 13.3859 6.21141 13.378C6.17409 13.3722 6.16579 13.3865 6.18653 13.4211C6.21141 13.4616 6.2588 13.4965 6.3287 13.5259C6.61572 13.6257 6.90273 13.751 7.18974 13.8039C8.3689 14.0241 9.61648 13.9047 10.7663 13.5621C10.867 13.5321 11.0468 13.4482 11.3057 13.3105C11.4437 13.2557 11.5581 13.1646 11.6487 13.0374C11.6493 13.0361 11.6493 13.0344 11.6487 13.0325L11.6354 13.0061C11.6277 12.9904 11.6182 12.9891 11.6069 13.0021C11.5074 13.1183 11.3898 13.2051 11.2542 13.2625L10.7992 13.4632C10.7886 13.4677 10.7774 13.4697 10.7663 13.4691C10.6863 13.4632 10.66 13.4227 10.6872 13.3477C10.6902 13.2217 10.7397 13.1454 10.8356 13.1186C10.8955 13.1023 10.9514 13.0827 11.0036 13.0599C11.2032 12.9751 11.3892 12.8514 11.5616 12.6889C11.5746 12.6767 11.5902 12.6683 11.6069 12.6645C11.6237 12.6607 11.641 12.6615 11.6574 12.667C11.6737 12.6724 11.6886 12.6823 11.7006 12.6957C11.7125 12.7091 11.7213 12.7256 11.726 12.7437C11.7384 12.792 11.7435 12.8416 11.7411 12.8925C11.7387 12.9486 11.7604 12.9636 11.806 12.9375C12.0974 12.7679 12.3492 12.5587 12.5613 12.3101C12.8196 12.0157 13.0278 11.6934 13.1859 11.3429C13.1996 11.3122 13.1688 11.2799 13.0935 11.246C13.1012 11.2473 13.1089 11.2486 13.1166 11.2499C13.1433 11.2323 13.1676 11.2225 13.1895 11.2206C13.2333 11.2467 13.2887 11.2264 13.3557 11.1599C13.5488 10.9673 13.6954 10.7344 13.7955 10.4609C13.8009 10.4459 13.7967 10.4352 13.7831 10.4286L13.7573 10.4169C13.7437 10.4104 13.7351 10.4153 13.7315 10.4316C13.7025 10.5686 13.6359 10.6672 13.5316 10.7272C13.4824 10.6215 13.4321 10.4841 13.3805 10.3151C13.3746 10.2955 13.3637 10.2805 13.3477 10.27C13.3228 10.2531 13.3103 10.2286 13.3103 10.1966V9.93722C13.3103 9.90545 13.3197 9.87454 13.337 9.84912C13.3992 9.75711 13.4321 9.65171 13.4356 9.53294C13.4374 9.47617 13.4584 9.42526 13.4987 9.38023C13.4312 9.7359 13.4235 10.1036 13.4756 10.4834C13.4975 10.6388 13.5503 10.6528 13.6338 10.5255C13.709 10.41 13.7493 10.2345 13.7546 9.9989C13.7813 10.0446 13.789 10.0981 13.7777 10.1594C13.7523 10.2997 13.7887 10.3229 13.887 10.2289C13.8947 10.2218 13.898 10.1855 13.8968 10.1203C13.8873 9.68108 13.9143 9.60016 13.9777 9.87751C13.9457 10.3754 13.7751 10.7964 13.4659 11.1403C13.3521 11.2669 13.2641 11.3906 13.2019 11.5113C12.9134 12.0693 12.537 12.5264 12.0725 12.8827C11.6371 13.2165 11.2159 13.5073 10.6846 13.6619C9.46365 14.0176 8.29841 14.0926 7.18886 13.8871C6.95012 13.8427 6.68236 13.7575 6.38557 13.6316C6.11988 13.519 5.91551 13.3301 5.68447 13.1676C5.36399 12.9431 5.11518 12.6386 4.93806 12.2543C4.85157 12.067 4.75501 11.8865 4.64838 11.7129C4.12055 10.8522 3.91499 9.9134 4.0317 8.89666C4.08323 8.44702 4.218 7.94811 4.436 7.39993C4.44785 7.36991 4.4523 7.33859 4.44933 7.30596C4.36136 6.237 4.36225 5.25223 4.63771 4.27432C4.65442 4.21466 4.69135 4.16439 4.74083 4.13395C4.79031 4.1035 4.84853 4.09523 4.9034 4.11084C5.51949 4.28574 6.10596 4.52916 6.66281 4.8411C6.68888 4.85611 6.71553 4.85709 6.74278 4.84403C7.86833 4.30042 9.03564 4.20547 10.2447 4.55918C10.2512 4.56113 10.3125 4.59115 10.4287 4.64923C10.6215 4.74517 10.9974 4.5582 11.1937 4.48772Z" fill="#191522"/>
<path d="M12.6569 4.11279C12.6746 4.11867 12.6888 4.13074 12.6995 4.14901C12.7096 4.16533 12.7122 4.18295 12.7075 4.20187C12.7034 4.21688 12.696 4.23385 12.6853 4.25277C12.616 4.30368 12.5813 4.34642 12.5813 4.38101C12.512 4.46715 12.435 4.53535 12.3503 4.5856C12.1441 4.78856 11.9445 4.99413 11.7514 5.2023C11.6776 5.28159 11.6794 5.34522 11.6252 5.42941C11.6045 5.46204 11.5766 5.47248 11.5417 5.46073C11.5298 5.45682 11.5198 5.45877 11.5115 5.4666C11.486 5.48879 11.4863 5.51065 11.5124 5.53219C11.5609 5.57265 11.6009 5.63693 11.6323 5.72503C11.4564 5.64281 11.3015 5.54231 11.1676 5.42353C11.1569 5.41374 11.1525 5.40037 11.1542 5.3834C11.1566 5.36186 11.1489 5.34685 11.1311 5.33837C10.8581 5.21829 10.6223 5.05384 10.4238 4.84501L11.2165 4.54449C11.6927 4.38101 12.1592 4.17251 12.6569 4.11279Z" fill="#5390C3"/>
<path d="M6.64611 4.90477C6.45714 4.99744 6.3668 5.08456 6.37509 5.16614C6.12214 5.28426 5.89347 5.4523 5.6891 5.67027C5.59432 5.33092 5.4551 5.04051 5.27146 4.79905C5.11033 4.44208 4.92284 4.28872 4.70898 4.33897C4.73386 4.19801 4.80584 4.14352 4.92491 4.1755C5.4628 4.32037 6.03654 4.56346 6.64611 4.90477Z" fill="#6EADD5"/>
<path d="M12.8626 4.20577L12.5801 4.381C12.5801 4.34641 12.6147 4.30366 12.684 4.25276C12.7723 4.19142 12.8318 4.17575 12.8626 4.20577Z" fill="#1E315C"/>
<path d="M12.8646 4.20581C13.0216 4.23387 13.087 4.34416 13.061 4.53668C13.0675 4.47599 13.063 4.43846 13.0476 4.4241C13.0379 4.41498 13.0264 4.40848 13.014 4.40512C13.0016 4.40177 12.9887 4.40166 12.9763 4.4048C12.9638 4.40794 12.9523 4.41424 12.9424 4.4232C12.9326 4.43217 12.9248 4.44354 12.9197 4.45641C12.7574 4.86689 12.6054 5.233 12.4638 5.55473C12.4597 5.56386 12.4579 5.573 12.4585 5.58214C12.4597 5.59649 12.4686 5.60694 12.4852 5.61346C12.5083 5.6226 12.5299 5.62031 12.55 5.60661C12.5607 5.59878 12.5708 5.5991 12.5802 5.60759C12.5998 5.62586 12.6028 5.64674 12.5891 5.67024C12.5471 5.74137 12.5364 5.79293 12.5571 5.8249C12.5062 5.97304 12.4555 6.10258 12.4052 6.21352C12.3702 6.29053 12.3717 6.32773 12.4096 6.32512C12.3913 6.35579 12.3847 6.37994 12.3901 6.39756C12.3498 6.3571 12.3359 6.35024 12.3483 6.377L11.6765 5.6301C11.6374 5.58638 11.6422 5.54918 11.6908 5.51851C11.7417 5.48588 11.7737 5.43759 11.7867 5.37363C11.8033 5.29402 11.8474 5.21114 11.9191 5.12499C12.0654 4.9501 12.2094 4.77031 12.351 4.58562C12.4357 4.53537 12.5127 4.46718 12.582 4.38103L12.8646 4.20581Z" fill="#CC7985"/>
<path d="M4.70851 4.33895C4.92237 4.2887 5.10986 4.44206 5.27099 4.79903C5.37881 5.01439 5.47418 5.22909 5.55712 5.44315C5.60747 5.57432 5.60688 5.68102 5.55534 5.76324C5.47359 5.89181 5.35037 6.02559 5.18569 6.16459L5.05151 6.08334C5.01004 6.05854 5.01004 6.03407 5.05151 6.00993C5.08587 5.99035 5.10631 5.95902 5.11282 5.91595C5.11993 5.86896 5.14037 5.86015 5.17414 5.88952C5.18894 5.90257 5.20257 5.90159 5.21501 5.88658C5.23752 5.85918 5.24374 5.82752 5.23367 5.79163C5.10334 5.34526 4.94547 4.91422 4.76005 4.49851C4.74406 4.46262 4.72481 4.46033 4.70229 4.49166C4.69045 4.50797 4.68689 4.5344 4.69163 4.57095C4.6632 4.44891 4.66882 4.37158 4.70851 4.33895Z" fill="#CC7985"/>
<path d="M13.0594 4.53668C13.1554 5.36417 13.0319 6.15218 12.6889 6.90071L12.3885 6.39756C12.3832 6.37994 12.3897 6.35579 12.4081 6.32512C12.4667 6.27095 12.5097 6.20602 12.5369 6.13032C12.5944 5.97174 12.6006 5.86993 12.5556 5.8249C12.5348 5.79293 12.5455 5.74137 12.5876 5.67024C12.6012 5.64674 12.5982 5.62586 12.5787 5.60759C12.5692 5.59911 12.5591 5.59878 12.5485 5.60661C12.5283 5.62031 12.5067 5.6226 12.4836 5.61346C12.467 5.60694 12.4581 5.59649 12.4569 5.58214C12.4563 5.573 12.4581 5.56386 12.4623 5.55473C12.6039 5.233 12.7558 4.86689 12.9181 4.45641C12.9232 4.44354 12.931 4.43217 12.9409 4.42321C12.9507 4.41424 12.9623 4.40794 12.9747 4.4048C12.9872 4.40166 13.0001 4.40177 13.0125 4.40513C13.0249 4.40848 13.0364 4.41498 13.0461 4.4241C13.0615 4.43846 13.0659 4.47599 13.0594 4.53668Z" fill="#F8DBD4"/>
<path d="M8.99446 4.43577C9.05133 4.47558 9.10909 4.51049 9.16773 4.54051C9.19972 4.55683 9.21039 4.60022 9.19972 4.6707C9.09043 4.69615 9.038 4.64329 8.95803 4.63057C8.71988 4.59076 8.49418 4.59631 8.28092 4.64721C8.04456 4.70399 7.81797 4.62372 7.60559 4.74608C7.57657 4.76305 7.54547 4.77349 7.51229 4.7774L7.41721 4.78719C7.38167 4.79111 7.37604 4.80775 7.40033 4.83712C7.40862 4.8469 7.41929 4.85213 7.43232 4.85278C7.45779 4.85408 7.46697 4.86811 7.45986 4.89487C7.45513 4.91314 7.44032 4.93142 7.41544 4.94969L7.37012 4.97122C7.18085 5.0094 7.18529 5.23748 7.13286 5.39411C7.10798 5.46981 7.05645 5.53768 6.97825 5.59772C6.86569 5.68451 6.75284 5.77424 6.6397 5.86691C6.59467 5.90346 6.51352 5.95338 6.39622 6.01668C6.30914 6.06367 6.23272 6.12469 6.16697 6.19974C6.00228 6.35244 5.83641 6.50581 5.66936 6.65982C5.54584 6.77239 5.22862 6.8879 5.1673 6.64513C5.16138 6.56291 5.17589 6.49438 5.21084 6.43957C5.23869 6.3965 5.25142 6.3668 5.24905 6.35049C5.24431 6.31981 5.22269 6.2898 5.18419 6.26043L5.68891 5.67016C5.89328 5.45219 6.12194 5.28414 6.3749 5.16602L6.72322 4.94284C7.43113 4.57477 8.18821 4.40575 8.99446 4.43577Z" fill="#FCFCF4"/>
<path d="M10.423 4.84503C10.6214 5.05386 10.8572 5.21832 11.1303 5.33839C11.1481 5.34688 11.1558 5.36189 11.1534 5.38342C11.1516 5.40039 11.1561 5.41377 11.1667 5.42356C11.3006 5.54233 11.4555 5.64283 11.6315 5.72506C11.8246 5.90452 12.0145 6.10063 12.2011 6.31337C12.2822 6.40604 12.3308 6.42725 12.3468 6.377C12.3343 6.35024 12.3483 6.3571 12.3886 6.39756L12.6889 6.90071C12.6593 7.08866 12.7304 7.33044 12.9022 7.62607L13.079 8.34556C13.0825 8.35926 13.0778 8.36807 13.0648 8.37199L13.039 8.37982C13.0183 8.38569 13.0055 8.37721 13.0008 8.35437C12.9202 8.00915 12.8423 7.73799 12.7671 7.54091C12.4253 6.65011 11.8749 5.97141 11.1161 5.50481C10.4805 5.11455 9.77847 4.87016 9.01014 4.77161C9.1452 4.72202 9.20829 4.68841 9.1994 4.67079C9.21007 4.60031 9.1994 4.55691 9.16742 4.54059C9.10877 4.51057 9.05101 4.47566 8.99414 4.43585C9.48701 4.45478 9.9399 4.53146 10.3528 4.66589C10.4636 4.70179 10.4662 4.74649 10.3608 4.8L10.2124 4.87538C10.1585 4.90278 10.1615 4.91518 10.2213 4.91257C10.2995 4.90866 10.3667 4.88614 10.423 4.84503Z" fill="#766971"/>
<path d="M5.1858 6.16455L4.84813 6.55122C4.84754 6.55122 4.84754 6.55154 4.84813 6.5522L4.86679 6.57373C4.87568 6.58287 4.88427 6.58287 4.89256 6.57373L5.18402 6.26049C5.22253 6.28985 5.24415 6.31987 5.24889 6.35054C5.25126 6.36686 5.23852 6.39655 5.21068 6.43962C5.17573 6.49444 5.16121 6.56297 5.16714 6.64519L5.13071 6.51696C5.12004 6.47911 5.10227 6.47454 5.07739 6.50325C4.86413 6.74993 4.69648 7.02598 4.57445 7.3314C4.56912 7.3438 4.57178 7.35391 4.58245 7.36174C4.58896 7.36631 4.59577 7.37121 4.60288 7.37643L4.51758 7.3686C4.51936 7.24591 4.53772 7.1317 4.57267 7.02598C4.7338 6.91178 4.79008 6.79137 4.7415 6.66477C4.69293 6.53882 4.66775 6.4716 4.66597 6.46312C4.58718 6.02718 4.56645 5.5671 4.60377 5.08288L4.69174 4.57091C4.687 4.53437 4.69056 4.50794 4.7024 4.49162C4.72492 4.4603 4.74417 4.46258 4.76016 4.49848C4.94558 4.91418 5.10346 5.34522 5.23378 5.7916C5.24385 5.82749 5.23763 5.85914 5.21512 5.88655C5.20268 5.90156 5.18906 5.90254 5.17425 5.88949C5.14048 5.86012 5.12004 5.86893 5.11293 5.91592C5.10642 5.95899 5.08598 5.99031 5.05162 6.00989C5.01015 6.03404 5.01015 6.05851 5.05162 6.08331L5.1858 6.16455Z" fill="#F8DBD4"/>
<path d="M12.3499 4.58557C12.2083 4.77026 12.0644 4.95005 11.918 5.12494C11.8464 5.21109 11.8022 5.29397 11.7856 5.37358C11.7726 5.43754 11.7406 5.48583 11.6897 5.51846C11.6411 5.54913 11.6364 5.58633 11.6755 5.63005L12.3472 6.37695C12.3312 6.4272 12.2827 6.40599 12.2015 6.31332C12.0149 6.10057 11.825 5.90447 11.6319 5.725C11.6005 5.6369 11.5605 5.57262 11.512 5.53216C11.4859 5.51063 11.4856 5.48877 11.5111 5.46658C11.5194 5.45875 11.5294 5.45679 11.5413 5.4607C11.5762 5.47245 11.6041 5.46201 11.6248 5.42938C11.679 5.34519 11.6772 5.28157 11.751 5.20228C11.9441 4.9941 12.1437 4.78853 12.3499 4.58557Z" fill="#1B1E3C"/>
<path d="M9.19895 4.67077C9.20783 4.68839 9.14475 4.722 9.00968 4.7716C8.77983 4.73114 8.53458 4.7481 8.27393 4.8225C8.17144 4.78073 8.01742 4.80129 7.81186 4.88417C7.7461 4.8672 7.67768 4.87438 7.6066 4.90571C7.54499 4.93442 7.48101 4.9491 7.41466 4.94976C7.43954 4.93148 7.45435 4.91321 7.45909 4.89494C7.4662 4.86818 7.45702 4.85415 7.43154 4.85285C7.41851 4.85219 7.40785 4.84697 7.39955 4.83718C7.37527 4.80782 7.38089 4.79117 7.41644 4.78726L7.51152 4.77747C7.54469 4.77355 7.57579 4.76311 7.60482 4.74615C7.81719 4.62378 8.04378 4.70405 8.28015 4.64728C8.49341 4.59637 8.71911 4.59083 8.95725 4.63064C9.03723 4.64336 9.08965 4.69622 9.19895 4.67077Z" fill="#D4CAC8"/>
<path d="M5.68871 5.67017L5.18399 6.26044L4.89253 6.57369C4.88424 6.58282 4.87565 6.58282 4.86676 6.57369L4.8481 6.55215C4.84751 6.5515 4.84751 6.55117 4.8481 6.55117L5.18576 6.16451C5.35045 6.02551 5.47367 5.89172 5.55542 5.76316C5.60696 5.68093 5.60755 5.57424 5.5572 5.44306C5.47426 5.22901 5.37889 5.01431 5.27107 4.79895C5.45471 5.04041 5.59392 5.33082 5.68871 5.67017Z" fill="#766971"/>
<path d="M8.27457 4.82251C8.96648 4.81533 9.61841 4.93867 10.2304 5.19253L10.2179 5.60562C9.8998 5.45748 9.57813 5.36808 9.2529 5.3374C8.94308 5.2604 8.62852 5.23266 8.30922 5.2542C8.38623 5.13477 8.37202 5.03688 8.26657 4.96053C8.14839 4.87537 7.98133 4.92725 7.83738 4.92235C7.85871 4.92301 7.8747 4.92105 7.88536 4.91648C7.93157 4.8956 7.92535 4.87993 7.8667 4.86949C7.84834 4.86623 7.83027 4.87112 7.8125 4.88418C8.01806 4.8013 8.17208 4.78074 8.27457 4.82251Z" fill="#766971"/>
<path d="M8.30841 5.25414C7.90854 5.30308 7.5691 5.34419 7.25454 5.48026C7.2267 5.49266 7.21455 5.51517 7.21811 5.5478C7.23469 5.70834 7.30519 5.77523 7.42959 5.74848L6.90266 5.92468L6.25399 6.39749C6.26406 6.34985 6.26909 6.31004 6.26909 6.27806C6.26909 6.23042 6.23473 6.20432 6.16602 6.19975C6.23177 6.1247 6.30819 6.06368 6.39527 6.0167C6.51257 5.95339 6.59372 5.90347 6.63875 5.86692C6.75189 5.77426 6.86474 5.68452 6.9773 5.59773C7.05549 5.53769 7.10703 5.46982 7.13191 5.39412C7.18434 5.23749 7.1799 5.00941 7.36917 4.97124C7.3976 5.01887 7.43433 5.03127 7.47935 5.00843C7.55755 4.96928 7.63752 4.94513 7.71927 4.936L7.83656 4.92229C7.98052 4.92719 8.14757 4.8753 8.26575 4.96047C8.3712 5.03682 8.38542 5.13471 8.30841 5.25414Z" fill="#E4B787"/>
<path d="M4.60371 5.08289C4.56639 5.56711 4.58712 6.02719 4.66591 6.46313C4.66768 6.47161 4.69286 6.53883 4.74144 6.66478C4.79001 6.79138 4.73374 6.91179 4.57261 7.02599C4.40614 6.37666 4.41651 5.72896 4.60371 5.08289Z" fill="#575B84"/>
<path d="M10.2312 5.1925C10.5149 5.27865 10.8203 5.44375 11.1473 5.68783C11.2522 5.76679 11.3369 5.83662 11.4015 5.89731C11.5152 6.00433 11.5967 6.07547 11.6458 6.11071C11.7536 6.18967 11.8591 6.27092 11.9622 6.35445C12.0623 6.43537 12.1402 6.53 12.1959 6.63833C12.2658 6.77342 12.33 6.90296 12.3887 7.02695C12.4272 7.10918 12.4509 7.19891 12.4598 7.29615C12.4645 7.34575 12.4509 7.38947 12.4189 7.42732C12.4088 7.43907 12.4008 7.45277 12.3949 7.46844C12.3712 7.52978 12.3422 7.53304 12.3078 7.47822C12.0963 7.14605 11.9325 6.91764 11.8164 6.793C11.3455 6.28397 10.8129 5.88817 10.2188 5.6056L10.2312 5.1925Z" fill="#3E3D51"/>
<path d="M8.30965 5.25419C8.62895 5.23266 8.94351 5.26039 9.25334 5.3374L9.17958 5.33838C9.15115 5.33903 9.14345 5.35339 9.15648 5.38145C9.16359 5.3958 9.17484 5.40429 9.19025 5.4069C9.35671 5.43496 9.51162 5.47183 9.65498 5.51751C9.67867 5.52535 9.69141 5.54296 9.69319 5.57037C9.69437 5.5893 9.70326 5.60105 9.71985 5.60561C9.78738 5.62389 9.85787 5.63661 9.93133 5.64379C9.95959 5.64697 9.98608 5.66002 10.0069 5.68099C10.0436 5.71819 10.0874 5.73515 10.1384 5.73189C10.1721 5.72928 10.1997 5.74299 10.221 5.77301C10.237 5.79585 10.258 5.80988 10.2841 5.8151C10.3113 5.82162 10.3365 5.83141 10.3596 5.84446C10.5492 5.94953 10.7438 6.05427 10.9434 6.15869C11.1117 6.24614 11.2633 6.35969 11.3984 6.49935C11.4873 6.59136 11.5791 6.6837 11.6739 6.77637C11.768 6.86904 11.8533 6.9666 11.9298 7.06906C12.3172 7.58592 12.5544 8.15498 12.6415 8.77626C12.5023 8.57721 12.3415 8.27735 12.159 7.87665C12.034 7.60387 11.8297 7.32423 11.5459 7.03774L11.4108 6.91048C11.4043 6.75386 11.3276 6.61975 11.1807 6.50816C11.0456 6.4057 10.9206 6.30128 10.8057 6.19491C10.6689 6.06896 10.5406 5.97629 10.4209 5.9169C10.2539 5.83533 10.0883 5.76126 9.92422 5.69469C9.74295 5.62226 9.6147 5.71101 9.53946 5.96095C9.51577 5.92637 9.46571 5.94986 9.38929 6.03143C9.35019 6.0732 9.3416 6.06635 9.36352 6.01088L9.37774 5.97564C9.39255 5.93844 9.38188 5.91625 9.34575 5.90907L9.15026 5.87187C9.06436 5.88362 8.99594 5.87448 8.94499 5.84446C9.01134 5.71851 9.02408 5.5844 8.9832 5.44214C8.97432 5.41016 8.95566 5.38765 8.92722 5.37459C8.84073 5.33609 8.75069 5.32076 8.65709 5.32859C8.4308 5.34751 8.21813 5.35991 8.01908 5.36579C7.99164 5.36655 7.96474 5.37431 7.94048 5.38846C7.91622 5.4026 7.89526 5.42274 7.87925 5.4473C7.86324 5.47186 7.85261 5.50017 7.84819 5.53002C7.84378 5.55986 7.8457 5.59043 7.85381 5.61932C7.86032 5.64412 7.8384 5.68588 7.78805 5.74462C7.75488 5.77921 7.70719 5.77986 7.64499 5.74658C7.56738 5.73287 7.496 5.73352 7.43084 5.74853C7.30644 5.77529 7.23594 5.7084 7.21935 5.54786C7.2158 5.51523 7.22794 5.49271 7.25579 5.48032C7.57035 5.34425 7.90979 5.30314 8.30965 5.25419Z" fill="#1E315C"/>
<path d="M8.94405 5.8444C8.78174 5.74194 8.57914 5.7129 8.33626 5.75728L7.82354 5.74162C7.84072 5.75532 7.82858 5.7563 7.78711 5.74455C7.83746 5.68582 7.85938 5.64405 7.85286 5.61925C7.84476 5.59037 7.84284 5.5598 7.84725 5.52996C7.85166 5.50011 7.86229 5.4718 7.87831 5.44724C7.89432 5.42268 7.91527 5.40253 7.93954 5.38839C7.9638 5.37425 7.9907 5.36649 8.01814 5.36572C8.21719 5.35985 8.42986 5.34745 8.65615 5.32852C8.74975 5.32069 8.83979 5.33603 8.92628 5.37453C8.95472 5.38758 8.97338 5.4101 8.98226 5.44207C9.02314 5.58434 9.0104 5.71845 8.94405 5.8444Z" fill="#304471"/>
<path d="M11.4104 6.91043L10.6009 6.39455L9.53906 5.9609C9.6143 5.71096 9.74255 5.6222 9.92382 5.69464C10.0879 5.76121 10.2535 5.83528 10.4205 5.91685C10.5402 5.97624 10.6685 6.06891 10.8053 6.19486C10.9202 6.30123 11.0452 6.40565 11.1803 6.5081C11.3272 6.6197 11.4039 6.75381 11.4104 6.91043Z" fill="#304471"/>
<path d="M7.43095 5.74852C7.49611 5.73351 7.56749 5.73286 7.6451 5.74657C7.64747 5.87578 7.64954 6.00402 7.65132 6.13127C7.65665 6.63051 7.82459 7.04034 8.15515 7.36076C8.17766 7.3823 8.20106 7.38361 8.22535 7.36468C8.47889 7.16629 8.67794 6.91798 8.82248 6.61974C8.85802 6.61583 8.88705 6.60114 8.90956 6.57569C8.9297 6.55285 8.95103 6.55154 8.97354 6.57178C8.99131 6.58809 9.01205 6.59657 9.03574 6.59723C9.2413 6.60245 9.43827 6.66151 9.62665 6.77441C9.6545 6.79072 9.67197 6.81585 9.67908 6.84978C9.69744 6.93788 9.74098 7.00347 9.8097 7.04654C9.83754 7.06416 9.8568 7.08961 9.86746 7.12289L9.927 7.30693C9.93647 7.33629 9.95365 7.35815 9.97853 7.37251C10.0313 7.40384 10.0511 7.458 10.0381 7.53501C9.85384 7.49781 9.6927 7.49651 9.55468 7.53109C9.34438 7.38752 9.1246 7.28963 8.89534 7.23742C8.86632 7.2309 8.84025 7.23775 8.81715 7.25798L8.18181 7.8228C8.15811 7.84434 8.13412 7.84532 8.10983 7.82574C7.88235 7.64693 7.70049 7.45082 7.56424 7.23742C7.54587 7.20871 7.52277 7.20251 7.49493 7.21882L6.89513 7.57808C6.66824 7.5448 6.44935 7.6218 6.23846 7.8091L5.8457 7.24525C6.04356 7.00901 6.25831 6.84652 6.48993 6.75777L6.80893 6.62366C6.83618 6.61191 6.86403 6.60506 6.89246 6.6031C6.99909 6.59723 7.03434 6.56884 6.9982 6.51794C7.06929 6.45594 7.15489 6.41091 7.25501 6.38285C7.25763 6.38226 7.26002 6.38084 7.2619 6.37875C7.26377 6.37666 7.26506 6.37398 7.26562 6.37103C7.26617 6.36807 7.26597 6.36495 7.26504 6.36202C7.26411 6.35909 7.26248 6.35647 7.26034 6.35446L7.00976 6.13617C6.98724 6.11594 6.97569 6.08983 6.9751 6.05786C6.97392 5.96453 6.95022 5.92016 6.90401 5.92473L7.43095 5.74852Z" fill="#6EADD5"/>
<path d="M7.64453 5.74659C7.70673 5.77988 7.75442 5.77922 7.78759 5.74464C7.82906 5.75638 7.84121 5.7554 7.82403 5.7417C7.81336 5.98773 7.84298 6.1747 7.91289 6.30261C7.9976 6.45727 8.06246 6.61422 8.10749 6.77345C8.11351 6.7944 8.12446 6.81321 8.13923 6.82797C8.154 6.84273 8.17206 6.85292 8.19156 6.8575C8.21106 6.86207 8.23132 6.86087 8.25027 6.85402C8.26922 6.84717 8.28618 6.8349 8.29942 6.81848C8.4727 6.60313 8.7917 6.21059 8.82191 5.9179C8.82606 5.8794 8.81095 5.85656 8.77659 5.84938L8.33674 5.75736C8.57962 5.71298 8.78222 5.74202 8.94454 5.84448C8.99548 5.8745 9.06391 5.88364 9.1498 5.87189C9.14151 5.87515 9.13322 5.87809 9.12492 5.8807C9.10893 5.88527 9.09767 5.89571 9.09116 5.91203L8.82191 6.61977C8.67737 6.918 8.47832 7.16632 8.22478 7.36471C8.20049 7.38363 8.17709 7.38233 8.15458 7.36079C7.82403 7.04037 7.65608 6.63054 7.65075 6.1313C7.64897 6.00404 7.6469 5.87581 7.64453 5.74659Z" fill="#4578B2"/>
<path d="M7.82438 5.74164L8.3371 5.7573L8.77695 5.84932C8.81131 5.8565 8.82642 5.87934 8.82227 5.91784C8.79206 6.21053 8.47305 6.60307 8.29978 6.81842C8.28653 6.83484 8.26957 6.84711 8.25062 6.85396C8.23168 6.86081 8.21142 6.86201 8.19192 6.85744C8.17241 6.85286 8.15436 6.84267 8.13959 6.82791C8.12482 6.81315 8.11387 6.79434 8.10784 6.77339C8.06282 6.61416 7.99795 6.45721 7.91324 6.30255C7.84334 6.17464 7.81372 5.98767 7.82438 5.74164Z" fill="#6EADD5"/>
<path d="M9.15016 5.87189L9.34564 5.90909C9.38178 5.91626 9.39244 5.93845 9.37763 5.97565L9.36342 6.01089C9.3415 6.06636 9.35009 6.07321 9.38919 6.03145C9.4656 5.94987 9.51566 5.92638 9.53936 5.96097L10.6012 6.39462C10.5367 6.45596 10.4733 6.46934 10.4111 6.43475C10.3302 6.38972 10.2902 6.38189 10.2102 6.38679C10.167 6.3894 10.1584 6.40963 10.1845 6.44748C10.2496 6.54276 10.3166 6.6364 10.3853 6.72842C10.4694 6.84067 10.531 6.95422 10.5701 7.06908C10.6448 7.289 10.6859 7.50664 10.6936 7.722C10.6954 7.77094 10.7081 7.81597 10.7318 7.85709C10.8225 8.01958 10.8625 8.20525 10.8518 8.41408C10.6919 7.98924 10.4205 7.69622 10.0379 7.53503C10.0509 7.45802 10.031 7.40386 9.97832 7.37253C9.95344 7.35818 9.93626 7.33631 9.92678 7.30695L9.86725 7.12291C9.85658 7.08963 9.83733 7.06418 9.80949 7.04656C9.74077 7.00349 9.69723 6.9379 9.67887 6.8498C9.67176 6.81587 9.65428 6.79074 9.62644 6.77443C9.43806 6.66153 9.24109 6.60247 9.03553 6.59725C9.01183 6.5966 8.9911 6.58811 8.97333 6.5718C8.95081 6.55157 8.92949 6.55287 8.90935 6.57571C8.88684 6.60116 8.85781 6.61585 8.82227 6.61976L9.09151 5.91202C9.09802 5.89571 9.10928 5.88527 9.12527 5.8807C9.13357 5.87809 9.14186 5.87515 9.15016 5.87189Z" fill="#609ECB"/>
<path d="M6.90271 5.9247C6.94892 5.92013 6.97261 5.96451 6.9738 6.05783C6.97439 6.0898 6.98594 6.11591 7.00845 6.13614L7.25903 6.35443C7.26117 6.35644 7.2628 6.35906 7.26373 6.36199C7.26467 6.36492 7.26487 6.36804 7.26431 6.371C7.26376 6.37395 7.26247 6.37663 7.26059 6.37872C7.25872 6.38081 7.25633 6.38223 7.2537 6.38282C7.15359 6.41088 7.06799 6.45591 6.9969 6.51791C6.80793 6.54271 6.6385 6.62265 6.48863 6.75774C6.257 6.84649 6.04226 7.00899 5.8444 7.24523L5.54317 7.52911C5.52776 7.53955 5.51473 7.53726 5.50407 7.52225C5.49341 7.50659 5.49133 7.48375 5.49785 7.45373L5.72266 7.0377L6.25404 6.3975L6.90271 5.9247Z" fill="#FCFCF4"/>
<path d="M6.16728 6.19977C6.236 6.20434 6.27036 6.23044 6.27036 6.27808C6.27036 6.31006 6.26533 6.34987 6.25526 6.39751L5.72388 7.0377C5.57815 7.16757 5.46145 7.33398 5.37377 7.53694C5.37084 7.54384 5.3664 7.54983 5.36084 7.55438C5.35528 7.55894 5.34877 7.56192 5.34186 7.56308C5.33495 7.56423 5.32786 7.56353 5.32119 7.56102C5.31452 7.55851 5.30847 7.55428 5.30358 7.54869C5.16673 7.38325 5.3249 7.16398 5.43242 7.04162C5.43301 7.04031 5.43301 7.03933 5.43242 7.03868L5.41465 7.02302C5.40517 7.01388 5.39628 7.01453 5.38799 7.02498C5.2156 7.23968 5.06247 7.46124 4.92859 7.68965C4.8966 7.74381 4.87735 7.80287 4.87083 7.86683C4.86787 7.89293 4.85454 7.90598 4.83085 7.90598H4.79619C4.77368 7.90598 4.75976 7.89391 4.75443 7.86976C4.72658 7.74446 4.71977 7.60775 4.73399 7.45961L5.029 6.98191C5.045 6.9558 5.03937 6.94699 5.01212 6.95548C4.93511 6.97962 4.87527 7.02171 4.83262 7.08175C4.73073 7.22402 4.65431 7.32223 4.60337 7.3764C4.59626 7.37118 4.58945 7.36628 4.58293 7.36172C4.57227 7.35389 4.5696 7.34377 4.57493 7.33137C4.69696 7.02596 4.86461 6.74991 5.07787 6.50323C5.10275 6.47451 5.12053 6.47908 5.13119 6.51693L5.16762 6.64517C5.22893 6.88793 5.54616 6.77242 5.66967 6.65985C5.83673 6.50584 6.0026 6.35248 6.16728 6.19977Z" fill="#766971"/>
<path d="M10.6014 6.3946L11.4109 6.91048L11.5459 7.03774C11.5608 7.1415 11.5839 7.24069 11.6153 7.33532C11.6538 7.45344 11.6754 7.55166 11.6801 7.62997C11.6902 7.79964 11.692 7.98172 11.6855 8.17619C11.6819 8.2966 11.6277 8.37197 11.6464 8.50021C11.6739 8.68815 11.6259 8.8761 11.5842 9.05622C11.5747 9.09864 11.5788 9.1391 11.5966 9.1776C11.6357 9.26309 11.6265 9.34206 11.569 9.41449C11.5436 9.44647 11.5344 9.48302 11.5415 9.52413C11.5652 9.65661 11.524 9.7806 11.418 9.89611L11.2376 9.87262L10.9995 9.84325C11.0066 9.6429 10.8996 9.50064 10.6787 9.41645C10.6508 9.40536 10.6328 9.38415 10.6245 9.35282C10.6138 9.30975 10.6097 9.2595 10.612 9.20207C10.6132 9.18184 10.6212 9.17369 10.636 9.1776C10.86 8.94528 10.9319 8.69076 10.852 8.41406C10.8626 8.20523 10.8226 8.01957 10.732 7.85707C10.7083 7.81596 10.6956 7.77093 10.6938 7.72198C10.6861 7.50663 10.6449 7.28899 10.5703 7.06906C10.5312 6.9542 10.4696 6.84065 10.3854 6.72841C10.3167 6.63639 10.2498 6.54274 10.1846 6.44746C10.1586 6.40961 10.1671 6.38938 10.2104 6.38677C10.2904 6.38188 10.3304 6.38971 10.4112 6.43474C10.4734 6.46932 10.5368 6.45595 10.6014 6.3946Z" fill="#5390C3"/>
<path d="M9.5492 6.5052C9.80926 6.40927 10.0145 6.44777 10.165 6.62071C10.2337 6.69967 10.2257 6.71011 10.141 6.65203C9.93129 6.50716 9.73284 6.47681 9.54564 6.561C9.53735 6.56491 9.5332 6.56459 9.5332 6.56002V6.52967C9.53315 6.52425 9.53468 6.51895 9.53756 6.51455C9.54043 6.51014 9.54451 6.50687 9.5492 6.5052Z" fill="#3E3D51"/>
<path d="M6.99851 6.51801C7.03464 6.56891 6.9994 6.5973 6.89277 6.60317C6.86433 6.60513 6.83649 6.61198 6.80924 6.62373L6.49023 6.75784C6.64011 6.62275 6.80953 6.5428 6.99851 6.51801Z" fill="#1B1E3C"/>
<path d="M4.73389 7.45964C4.63022 7.5745 4.59645 7.6861 4.63259 7.79443C4.67702 7.92886 4.78661 8.19316 4.96137 8.58733C5.00669 8.69012 4.98891 8.76549 4.96048 8.86632C4.90006 9.06112 4.88939 9.26669 4.83163 9.45463C4.72945 9.78452 4.65569 10.1125 4.68502 10.4649C4.69627 10.4897 4.69923 10.5063 4.6939 10.5148C4.68691 10.5252 4.67732 10.5332 4.66626 10.5376C4.65521 10.542 4.64316 10.5428 4.63155 10.5398C4.61994 10.5368 4.60926 10.5302 4.60078 10.5207C4.5923 10.5113 4.58638 10.4993 4.58372 10.4864C4.49841 10.072 4.4602 9.6478 4.46909 9.21382C4.46968 9.18381 4.46198 9.1564 4.44599 9.1316C4.38971 9.0448 4.36927 8.94789 4.38467 8.84087C4.4291 8.52892 4.50315 8.23591 4.60682 7.96182C4.61124 7.95006 4.6115 7.93691 4.60755 7.92495C4.60361 7.91299 4.59574 7.90309 4.5855 7.89721L4.56328 7.88351C4.55999 7.88155 4.55637 7.88038 4.55264 7.88007C4.54891 7.87975 4.54517 7.88031 4.54165 7.88169C4.53813 7.88308 4.53492 7.88526 4.53221 7.8881C4.52951 7.89095 4.52738 7.89438 4.52596 7.89819C4.23213 8.66825 4.1726 9.48237 4.34735 10.3405C4.40067 10.6035 4.49397 10.7801 4.62726 10.8701L5.06089 11.5035C4.97262 11.7717 5.03068 11.9727 5.23505 12.1065C5.2392 12.1162 5.24098 12.126 5.24039 12.1358C5.2392 12.1521 5.2315 12.1626 5.21728 12.1672L5.17818 12.1799C5.16752 12.1322 5.1462 12.1058 5.11421 12.1006C5.08755 12.0967 5.07748 12.1091 5.08399 12.1378C5.09406 12.1835 5.12753 12.2288 5.1844 12.2739C5.15242 12.3052 5.12724 12.3225 5.10887 12.3257C5.00224 12.2396 4.94893 12.1391 4.94893 12.0242C4.94893 11.9923 4.93915 11.9642 4.91961 11.94C3.88795 10.6665 3.84441 8.84772 4.51796 7.36861L4.60327 7.37644C4.65421 7.32227 4.73063 7.22406 4.83252 7.08179C4.87518 7.02175 4.93501 6.97966 5.01202 6.95551C5.03927 6.94703 5.0449 6.95584 5.0289 6.98194L4.73389 7.45964Z" fill="#FBFBFB"/>
<path d="M5.72434 7.03768L5.49953 7.45371C5.46694 7.49874 5.44295 7.54899 5.42755 7.60446C5.25635 8.00516 5.12691 8.42967 5.03924 8.878C5.00843 8.88975 4.98237 8.88583 4.96104 8.86626C4.98948 8.76543 5.00725 8.69005 4.96193 8.58727C4.78717 8.1931 4.67758 7.9288 4.63315 7.79437C4.59701 7.68604 4.63078 7.57444 4.73445 7.45958C4.72023 7.60772 4.72705 7.74444 4.75489 7.86974C4.76022 7.89389 4.77414 7.90596 4.79665 7.90596H4.83131C4.855 7.90596 4.86833 7.89291 4.87129 7.8668C4.87781 7.80285 4.89706 7.74379 4.92905 7.68962C5.06293 7.46122 5.21607 7.23966 5.38845 7.02495C5.39675 7.01451 5.40563 7.01386 5.41511 7.023L5.43288 7.03866C5.43347 7.03931 5.43347 7.04029 5.43288 7.0416C5.32536 7.16396 5.16719 7.38323 5.30404 7.54866C5.30893 7.55426 5.31498 7.55849 5.32165 7.561C5.32832 7.56351 5.33541 7.56421 5.34232 7.56305C5.34923 7.5619 5.35574 7.55892 5.3613 7.55436C5.36686 7.54981 5.3713 7.54382 5.37424 7.53692C5.46191 7.33396 5.57861 7.16755 5.72434 7.03768Z" fill="#1E315C"/>
<path d="M11.5453 7.03772C11.8291 7.32421 12.0334 7.60385 12.1584 7.87663C12.3409 8.27733 12.5017 8.57719 12.6409 8.77624C12.5302 9.12603 12.473 9.35379 12.4694 9.45951C12.46 9.7473 12.425 10.0201 12.3646 10.2779C12.2663 10.5161 12.133 10.6874 11.9647 10.7918C11.9527 10.7992 11.9427 10.8102 11.9361 10.8236C11.9296 10.837 11.9265 10.8521 11.9275 10.8673C11.9284 10.8825 11.9332 10.8971 11.9414 10.9094C11.9496 10.9216 11.9607 10.9311 11.9736 10.9367C12.111 10.996 12.2728 11.0036 12.4588 10.9592L12.2331 11.2988L12.2189 11.1931C12.2147 11.1618 12.1984 11.1435 12.17 11.1383C12.1528 11.1344 12.1353 11.135 12.1176 11.1403L11.4147 10.8681C11.3537 10.7853 11.3027 10.703 11.2619 10.6215C11.231 10.5588 11.2139 10.4645 11.2103 10.3386C11.2068 10.1989 11.1751 10.0684 11.1152 9.947L11.2379 9.93916L11.739 10.0459C11.7532 10.0491 11.7615 10.0426 11.7639 10.0263L11.7683 9.99888C11.7695 9.98909 11.766 9.98321 11.7577 9.98126L11.4174 9.89609C11.5234 9.78058 11.5646 9.65659 11.5409 9.52411C11.5338 9.483 11.5429 9.44645 11.5684 9.41448C11.6259 9.34204 11.6351 9.26307 11.596 9.17758C11.5782 9.13908 11.574 9.09862 11.5835 9.0562C11.6253 8.87608 11.6733 8.68814 11.6457 8.50019C11.6271 8.37195 11.6813 8.29658 11.6848 8.17617C11.6913 7.9817 11.6896 7.79963 11.6795 7.62995C11.6748 7.55164 11.6531 7.45342 11.6146 7.3353C11.5832 7.24068 11.5601 7.14148 11.5453 7.03772Z" fill="#4578B2"/>
<path d="M13.3064 8.20456L13.1367 7.28048L13.1598 7.10428C13.1705 7.02075 13.1924 7.01716 13.2256 7.09351C13.3796 7.44853 13.4856 7.82997 13.5437 8.23784C13.549 8.27373 13.5354 8.29396 13.5028 8.29853C13.4394 8.30767 13.374 8.27634 13.3064 8.20456Z" fill="#4578B2"/>
<path d="M9.55395 7.5311C9.21273 7.70925 9.075 7.92396 9.14076 8.17521C9.07737 8.45778 9.06582 8.73057 9.1061 8.99356C9.13394 9.17564 9.22517 9.32998 9.37979 9.45658C9.5267 9.46441 9.64725 9.5052 9.74144 9.57894C9.78469 9.61614 9.80305 9.66933 9.79654 9.7385C9.79002 9.80311 9.80838 9.8576 9.85163 9.90198L10.3546 10.4228C10.3777 10.4462 10.4046 10.4609 10.4354 10.4668L10.7384 10.5275C10.7426 10.536 10.7467 10.5445 10.7509 10.5529C10.7805 10.6326 10.8415 10.6799 10.9339 10.6949C10.935 10.6951 10.936 10.6955 10.9369 10.6962C10.9377 10.6969 10.9384 10.6978 10.939 10.6988C10.9395 10.6999 10.9398 10.701 10.9398 10.7022C10.9399 10.7034 10.9397 10.7046 10.9393 10.7057C10.9333 10.7213 10.9345 10.7366 10.9428 10.7517C10.9689 10.7986 10.9594 10.8342 10.9144 10.8584C10.8457 10.8949 10.8048 10.9497 10.7918 11.0228C10.7841 11.0665 10.7607 11.0943 10.7216 11.106C10.638 11.1321 10.5711 11.1768 10.5207 11.2401C10.4923 11.2754 10.4571 11.3025 10.415 11.3214C10.3021 11.3713 10.2097 11.4271 10.0853 11.4467C9.94019 11.4695 9.79979 11.5048 9.66414 11.5524C9.49442 11.6111 9.34247 11.5397 9.17097 11.6121C9.13779 11.6258 9.10373 11.6294 9.06878 11.6229C8.96037 11.6023 8.87151 11.6757 8.79687 11.6855C8.70446 11.6986 8.6082 11.709 8.50808 11.7168C8.47728 11.7188 8.45921 11.7364 8.45388 11.7697C8.45092 11.788 8.44144 11.7997 8.42544 11.805C8.25187 11.8559 8.09281 11.8461 7.94827 11.7756C7.70006 11.6542 7.35232 11.5632 6.90507 11.5025C6.90033 11.5018 6.89559 11.5002 6.89085 11.4976C6.88255 11.493 6.87574 11.4871 6.87041 11.48C6.8556 11.4584 6.83576 11.447 6.81088 11.4457C6.70602 11.4411 6.6062 11.4153 6.51142 11.3684C6.37813 11.3018 6.25551 11.3498 6.12488 11.2548C5.96908 11.1419 5.81477 11.0251 5.66193 10.9044C5.65097 10.8958 5.64175 10.8847 5.63485 10.872C5.62795 10.8593 5.62352 10.8452 5.62185 10.8305C5.62017 10.8159 5.62129 10.8011 5.62514 10.787C5.62898 10.7729 5.63546 10.7599 5.64416 10.7487C5.72768 10.6404 5.82247 10.5732 5.92851 10.5471C5.95694 10.5399 5.98182 10.5249 6.00315 10.502C6.07838 10.4211 6.08105 10.3947 6.01114 10.4228L6.3257 9.84031C6.34111 9.81159 6.34673 9.78125 6.34259 9.74927C6.32245 9.59004 6.24395 9.49737 6.10711 9.47126C6.00167 9.35314 5.95013 9.19783 5.9525 9.00531C6.01529 8.6999 6.14799 8.45028 6.35059 8.25646C6.24455 8.51488 6.19775 8.74297 6.21019 8.9407C6.20663 9.0412 6.21996 9.13257 6.25017 9.21479C6.31711 9.44059 6.44892 9.56981 6.6456 9.60244C6.70306 9.58221 6.762 9.54729 6.82243 9.49769C6.84612 9.47812 6.87308 9.46735 6.90329 9.46539C7.01643 9.45886 7.09522 9.42134 7.13965 9.35282C7.27827 9.13355 7.3461 8.92145 7.34314 8.71654C7.36624 8.52794 7.35143 8.37001 7.29871 8.24275C7.36684 8.10114 7.35291 8.01043 7.25695 7.97062C7.21548 7.79246 7.09463 7.66161 6.8944 7.57808L7.4942 7.21883C7.52204 7.20251 7.54515 7.20871 7.56351 7.23743C7.69976 7.45083 7.88162 7.64693 8.1091 7.82574C8.13339 7.84532 8.15738 7.84434 8.18108 7.82281L8.81642 7.25798C8.83953 7.23775 8.86559 7.2309 8.89462 7.23743C9.12387 7.28963 9.34365 7.38752 9.55395 7.5311Z" fill="#FBFBFB"/>
<path d="M5.84508 7.2453L6.23783 7.80914C5.98192 8.04016 5.60871 8.66959 5.84774 9.02983C5.85604 9.03244 5.86314 9.0357 5.86907 9.03962C5.87914 9.04549 5.88477 9.0543 5.88595 9.06605L5.9135 9.35384C5.91485 9.36752 5.9133 9.38135 5.90899 9.39426C5.90467 9.40716 5.8977 9.41879 5.88862 9.42824C5.86788 9.44977 5.843 9.4625 5.81398 9.46641C5.78732 9.47033 5.76303 9.48142 5.74111 9.4997L5.53052 9.67688C5.50623 9.69776 5.48846 9.72354 5.4772 9.75421C5.399 9.96957 5.18219 9.97838 4.96715 9.97544C4.94701 9.97479 4.93723 9.98555 4.93783 10.0077C4.93842 10.0156 4.9396 10.0244 4.94138 10.0342L4.77344 10.0606L5.03824 8.8781C5.12591 8.42976 5.25535 8.00525 5.42655 7.60456C5.45025 7.65546 5.48934 7.63033 5.54384 7.52918L5.84508 7.2453Z" fill="#5390C3"/>
<path d="M13.135 7.28052L13.3047 8.20459C13.2757 8.37427 13.2176 8.34849 13.1305 8.12726C13.071 7.97553 13.0728 7.83849 13.0328 7.68186C13.0245 7.64989 13.0257 7.61791 13.0363 7.58593L13.135 7.28052Z" fill="#575B84"/>
<path d="M10.0375 7.53502C10.4202 7.69621 10.6915 7.98922 10.8515 8.41406C10.9314 8.69077 10.8595 8.94528 10.6355 9.1776C10.6693 9.07645 10.6826 8.9815 10.6755 8.89274C10.704 8.556 10.5944 8.2731 10.3468 8.04404C10.0849 7.72753 9.76947 7.65673 9.40041 7.83162C9.25586 7.9008 9.16611 8.02903 9.13116 8.21633C9.13472 8.20262 9.13797 8.18892 9.14094 8.17521C9.07518 7.92396 9.21291 7.70926 9.55413 7.5311C9.69216 7.49651 9.85329 7.49782 10.0375 7.53502Z" fill="#1C060C"/>
<path d="M6.89492 7.57809C7.09514 7.66162 7.21599 7.79247 7.25746 7.97063C6.96896 7.76375 6.70624 7.74287 6.46928 7.90798C6.20981 8.08875 6.03417 8.34522 5.94235 8.67739L5.90503 8.99749C5.90266 9.01902 5.8914 9.03044 5.87126 9.03175C5.86415 9.03175 5.85645 9.0311 5.84816 9.02979C5.60913 8.66956 5.98233 8.04013 6.23825 7.80911C6.44914 7.62181 6.66803 7.54481 6.89492 7.57809Z" fill="#1C060C"/>
<path d="M10.3465 8.04401L10.4753 8.42382C10.4575 8.4049 10.4303 8.44471 10.3935 8.54325C10.3704 8.50344 10.3571 8.46755 10.3536 8.43557C10.27 7.93144 9.83907 7.64462 9.4161 7.93633L9.13086 8.2163C9.16581 8.029 9.25556 7.90077 9.4001 7.83159C9.76916 7.6567 10.0846 7.7275 10.3465 8.04401Z" fill="#BCADC0"/>
<path d="M7.25724 7.97061C7.35321 8.01042 7.36713 8.10113 7.299 8.24274C7.15061 8.03424 7.04842 7.84238 6.7925 7.90894C6.59701 7.95984 6.44981 8.07568 6.35088 8.25645C6.14828 8.45027 6.01558 8.69989 5.95279 9.0053C5.93146 8.90089 5.92791 8.79158 5.94212 8.67737C6.03395 8.3452 6.20959 8.08873 6.46906 7.90796C6.70602 7.74285 6.96874 7.76374 7.25724 7.97061Z" fill="#CC7985"/>
<path d="M10.3535 8.43555C10.3618 8.48907 10.3594 8.52627 10.3464 8.54715C10.3274 8.57847 10.3082 8.57815 10.2886 8.54617C10.2489 8.47895 10.1974 8.42511 10.134 8.38465C10.1618 8.30373 10.1432 8.26294 10.078 8.26229C10.0105 8.26164 9.97553 8.30569 9.97316 8.39444C9.92814 8.41728 9.87453 8.40325 9.81233 8.35235C9.78922 8.33342 9.76345 8.32429 9.73502 8.32494C9.66689 8.32624 9.60854 8.30601 9.55997 8.26425C9.61269 8.20225 9.62395 8.13405 9.59373 8.05966C9.56945 8.00027 9.51465 7.97939 9.42934 7.99701C9.42934 7.97482 9.4249 7.95459 9.41602 7.93632C9.83898 7.64461 10.27 7.93142 10.3535 8.43555Z" fill="#1B1E3C"/>
<path d="M4.68543 10.4648C4.75829 10.6867 4.73904 10.8218 4.62767 10.8701C4.49438 10.78 4.40108 10.6035 4.34776 10.3405C4.17301 9.48233 4.23254 8.66822 4.52637 7.89815C4.52779 7.89434 4.52992 7.89091 4.53262 7.88807C4.53533 7.88522 4.53854 7.88304 4.54206 7.88165C4.54558 7.88027 4.54932 7.87972 4.55305 7.88003C4.55678 7.88034 4.5604 7.88151 4.56369 7.88347L4.5859 7.89717C4.59615 7.90306 4.60402 7.91295 4.60796 7.92491C4.61191 7.93687 4.61165 7.95002 4.60723 7.96178C4.50356 8.23587 4.42951 8.52889 4.38508 8.84083C4.36968 8.94785 4.39012 9.04476 4.4464 9.13156C4.46239 9.15636 4.47009 9.18377 4.4695 9.21379C4.46061 9.64776 4.49882 10.072 4.58413 10.4864C4.58678 10.4993 4.59271 10.5112 4.60119 10.5207C4.60966 10.5302 4.62035 10.5368 4.63195 10.5398C4.64356 10.5428 4.65561 10.542 4.66667 10.5376C4.67772 10.5331 4.68732 10.5252 4.69431 10.5147C4.69964 10.5063 4.69668 10.4896 4.68543 10.4648Z" fill="#9FD7F0"/>
<path d="M7.29947 8.24274C7.35219 8.37 7.367 8.52792 7.3439 8.71653L7.12175 8.67933C7.09331 8.67411 7.07376 8.65681 7.0631 8.62745C7.02993 8.53478 6.97158 8.46462 6.88805 8.41698C6.87307 8.40849 6.85657 8.40377 6.83971 8.40316C6.82286 8.40254 6.80608 8.40605 6.79055 8.41344C6.77503 8.42082 6.76114 8.4319 6.74989 8.44588C6.73863 8.45986 6.73028 8.47639 6.72544 8.49432C6.67508 8.68031 6.56164 8.78146 6.38511 8.79777C6.34779 8.80104 6.3235 8.82257 6.31224 8.86238C6.29625 8.92177 6.26248 8.94787 6.21094 8.94069C6.1985 8.74295 6.2453 8.51487 6.35134 8.25644C6.45027 8.07567 6.59748 7.95984 6.79297 7.90894C7.04888 7.84237 7.15107 8.03423 7.29947 8.24274Z" fill="#1E315C"/>
<path d="M9.41563 7.93634C9.42451 7.95461 9.42896 7.97484 9.42896 7.99703L9.29389 8.15561C9.2806 8.17135 9.27198 8.19118 9.26919 8.21246C9.26639 8.23373 9.26954 8.25544 9.27823 8.27468C9.28692 8.29393 9.30073 8.3098 9.31781 8.32019C9.3349 8.33057 9.35445 8.33497 9.37386 8.33279C9.44377 8.32431 9.50567 8.30147 9.55958 8.26427C9.60816 8.30604 9.66651 8.32627 9.73463 8.32496C9.76307 8.32431 9.78884 8.33345 9.81194 8.35237C9.87414 8.40327 9.92775 8.4173 9.97277 8.39446L10.1336 8.38467C10.197 8.42513 10.2485 8.47897 10.2882 8.54619C10.3078 8.57817 10.327 8.5785 10.346 8.54717C10.359 8.52629 10.3614 8.48909 10.3531 8.43558C10.3566 8.46755 10.37 8.50345 10.3931 8.54325C10.4067 8.75731 10.367 8.96842 10.274 9.1766C10.2426 9.10286 10.2408 9.02357 10.2687 8.93873C10.277 8.91132 10.274 8.88554 10.2598 8.8614C10.2183 8.79026 10.1591 8.75861 10.0821 8.76644C10.0483 8.76971 10.0199 8.75763 9.99677 8.73022C9.92983 8.6493 9.88836 8.57164 9.87236 8.49725C9.86712 8.47194 9.85592 8.44861 9.83989 8.42959C9.82386 8.41056 9.80357 8.39653 9.78105 8.38889C9.75853 8.38125 9.73459 8.38027 9.71162 8.38606C9.68865 8.39185 9.66748 8.4042 9.65022 8.42187C9.58505 8.48778 9.53085 8.56512 9.4876 8.65387C9.47102 8.68715 9.44554 8.69988 9.41119 8.69205C9.35076 8.67834 9.29389 8.68454 9.24058 8.71065C9.21392 8.7237 9.19615 8.74589 9.18726 8.77721C9.14876 8.91165 9.15764 9.03564 9.21392 9.14919L9.3792 9.45656C9.22458 9.32996 9.13335 9.17562 9.10551 8.99355C9.06523 8.73055 9.07678 8.45776 9.14017 8.17519C9.1372 8.18889 9.13395 8.2026 9.13039 8.2163L9.41563 7.93634Z" fill="#2D5893"/>
<path d="M6.48628 8.15693C6.42837 8.2515 6.42662 8.36174 6.48236 8.40316C6.53809 8.44458 6.63022 8.40149 6.68812 8.30692C6.74603 8.21235 6.74778 8.10211 6.69204 8.06069C6.63631 8.01927 6.54418 8.06236 6.48628 8.15693Z" fill="#FBFBFB"/>
<path d="M10.3477 8.04401C10.5953 8.27307 10.7049 8.55597 10.6764 8.89271L10.4765 8.42382L10.3477 8.04401Z" fill="#6EADD5"/>
<path d="M7.34445 8.71651C7.34741 8.92143 7.27958 9.13352 7.14096 9.35279C7.1149 9.27905 7.13711 9.17268 7.20761 9.03367L7.19961 8.85552C7.19783 8.80722 7.17858 8.79646 7.14185 8.82321C7.10335 8.85062 7.06751 8.8467 7.03433 8.81146C7.01893 8.79515 7.00234 8.79417 6.98457 8.80853L6.83618 8.93187C6.81426 8.95014 6.78938 8.95765 6.76154 8.95438C6.71592 8.94851 6.67623 8.96091 6.64246 8.99158C6.61995 9.01181 6.59448 9.02454 6.56605 9.02976L6.41587 9.05521C6.3596 9.07087 6.33383 9.14461 6.33857 9.27644L6.32257 9.20987C6.31606 9.18247 6.30213 9.17659 6.28081 9.19225L6.25148 9.21477C6.22127 9.13254 6.20794 9.04118 6.2115 8.94068C6.26304 8.94786 6.2968 8.92175 6.3128 8.86237C6.32405 8.82256 6.34834 8.80102 6.38566 8.79776C6.5622 8.78145 6.67564 8.68029 6.72599 8.4943C6.73084 8.47638 6.73919 8.45984 6.75044 8.44586C6.7617 8.43188 6.77558 8.42081 6.79111 8.41343C6.80663 8.40604 6.82342 8.40253 6.84027 8.40314C6.85712 8.40376 6.87362 8.40848 6.8886 8.41697C6.97213 8.46461 7.03048 8.53476 7.06366 8.62743C7.07432 8.6568 7.09387 8.67409 7.1223 8.67931L7.34445 8.71651Z" fill="#347B8F"/>
<path d="M10.2743 9.17659C10.2381 9.26599 10.1801 9.35083 10.1001 9.4311C10.0267 9.50354 9.94312 9.54139 9.84953 9.54465C9.9917 9.47352 10.0853 9.37236 10.1303 9.24119C10.1428 9.2053 10.1374 9.17332 10.1143 9.14526C10.0877 9.11263 10.0717 9.07315 10.0663 9.02682C10.0651 9.01722 10.0616 9.00816 10.056 9.00065C10.0505 8.99313 10.0431 8.98748 10.0349 8.98432C10.0267 8.98116 10.0178 8.98062 10.0094 8.98277C10.001 8.98492 9.99332 8.98966 9.98726 8.99647L9.96149 9.02486C9.94748 9.04031 9.93037 9.0519 9.91153 9.0587C9.8927 9.06551 9.87267 9.06733 9.85308 9.06401C9.69195 9.0366 9.50179 9.00136 9.28261 8.95829C9.25299 8.95177 9.2361 8.96514 9.23196 8.99843L9.21418 9.14918C9.15791 9.03563 9.14902 8.91163 9.18753 8.7772C9.19641 8.74587 9.21418 8.72368 9.24084 8.71063C9.29416 8.68453 9.35103 8.67833 9.41145 8.69203C9.44581 8.69986 9.47128 8.68714 9.48787 8.65386C9.53111 8.5651 9.58532 8.48777 9.65048 8.42186C9.66774 8.40419 9.68892 8.39184 9.71189 8.38605C9.73485 8.38026 9.7588 8.38123 9.78131 8.38887C9.80383 8.39651 9.82413 8.41055 9.84016 8.42957C9.85618 8.44859 9.86738 8.47193 9.87263 8.49723C9.88862 8.57163 9.93009 8.64929 9.99703 8.73021C10.0201 8.75762 10.0486 8.76969 10.0823 8.76643C10.1593 8.7586 10.2186 8.79025 10.2601 8.86138C10.2743 8.88553 10.2772 8.91131 10.2689 8.93871C10.2411 9.02355 10.2429 9.10284 10.2743 9.17659Z" fill="#347B8F"/>
<path d="M13.614 8.97207C13.6122 8.99034 13.6087 9.0034 13.6033 9.01123C13.5269 9.07127 13.5053 9.14207 13.5385 9.22365C13.5343 9.2739 13.521 9.32611 13.4985 9.38027C13.4582 9.4253 13.4372 9.4762 13.4354 9.53298C13.4318 9.65175 13.399 9.75715 13.3367 9.84916C13.3194 9.87458 13.3101 9.90549 13.3101 9.93726V10.1967C13.3101 10.2286 13.3225 10.2531 13.3474 10.2701C13.3634 10.2805 13.3744 10.2955 13.3803 10.3151C13.4318 10.4841 13.4822 10.6215 13.5314 10.7272C13.4425 10.7305 13.4019 10.8026 13.4096 10.9436C13.4102 10.9599 13.4034 10.9697 13.3892 10.9729C13.3862 10.9736 13.3833 10.9736 13.3803 10.9729C13.327 10.9599 13.3131 10.9269 13.3385 10.8741C13.3421 10.8662 13.3362 10.8604 13.3208 10.8564C13.3 10.8499 13.287 10.8584 13.2817 10.8819C13.2591 10.983 13.2011 11.0623 13.1075 11.1198L12.8285 10.1996C12.819 10.167 12.7989 10.1529 12.7681 10.1575C12.7568 10.1588 12.7464 10.1644 12.737 10.1742C12.7239 10.1872 12.7171 10.2035 12.7165 10.2231C12.7112 10.398 12.6996 10.5742 12.6819 10.7517C12.6777 10.7935 12.6902 10.8281 12.7192 10.8555L12.8009 10.9328C12.8335 10.9641 12.8297 10.9883 12.7894 11.0052C12.7384 11.0268 12.6976 11.0121 12.6668 10.9612C12.6063 10.8623 12.5637 10.7762 12.5557 10.6528C12.5367 10.3396 12.5323 10.0515 12.5424 9.78847C12.7136 9.6188 12.8069 9.40344 12.8223 9.1424C12.8294 9.02036 12.7823 8.96033 12.681 8.96228C12.7017 8.78217 12.7778 8.63076 12.9093 8.50808C12.9354 8.48393 12.965 8.47675 12.9982 8.48654C13.077 8.51003 13.1386 8.49078 13.183 8.42879C13.2186 8.37919 13.2461 8.38408 13.2657 8.44347C13.2698 8.45587 13.2778 8.46272 13.2897 8.46403C13.3169 8.46729 13.3329 8.45424 13.3376 8.42487C13.3412 8.39942 13.3545 8.38637 13.3776 8.38571C13.7455 8.36809 13.8868 8.86048 13.9072 9.18547C13.9096 9.22071 13.8948 9.24029 13.8628 9.24421L13.8335 9.24812C13.808 9.25138 13.7964 9.23931 13.7988 9.2119C13.8101 9.07486 13.7766 8.96979 13.6984 8.8967C13.6883 8.88697 13.6751 8.88212 13.6616 8.88322C13.6481 8.88432 13.6354 8.89128 13.6264 8.90257C13.611 8.92215 13.6069 8.94532 13.614 8.97207Z" fill="#575B84"/>
<path d="M10.4746 8.42382L10.6745 8.89271C10.6816 8.98147 10.6683 9.07642 10.6345 9.17757C10.6197 9.17366 10.6117 9.18182 10.6105 9.20205C10.5329 9.37107 10.4225 9.46798 10.2791 9.49278C10.1594 9.51562 10.0996 9.49506 10.0996 9.43111C10.1796 9.35084 10.2376 9.266 10.2738 9.17659C10.3668 8.96842 10.4065 8.7573 10.3928 8.54325C10.4296 8.44471 10.4568 8.4049 10.4746 8.42382Z" fill="#FBFBFB"/>
<path d="M5.94163 8.67737C5.92741 8.79157 5.93097 8.90088 5.95229 9.0053C5.94993 9.19781 6.00146 9.35313 6.10691 9.47125L5.63507 9.9049C5.61552 9.92318 5.59271 9.93231 5.56665 9.93231C5.55658 9.93296 5.54651 9.93525 5.53643 9.93916C5.48904 9.95874 5.48401 9.98746 5.52133 10.0253C5.69786 10.2054 5.71386 10.4051 5.56931 10.6244L5.30185 10.7389C5.42684 10.5784 5.46712 10.3806 5.4227 10.1457C5.41677 10.1137 5.39989 10.0915 5.37205 10.0791C5.24705 10.0237 5.1034 10.0087 4.94108 10.0341C4.9393 10.0243 4.93812 10.0155 4.93753 10.0077C4.93693 9.9855 4.94671 9.97473 4.96685 9.97538C5.18189 9.97832 5.3987 9.96951 5.4769 9.75415C5.48815 9.72348 5.50593 9.6977 5.53021 9.67682L5.74081 9.49964C5.76273 9.48137 5.78702 9.47027 5.81368 9.46636C5.8427 9.46244 5.86758 9.44972 5.88832 9.42818C5.8974 9.41874 5.90437 9.40711 5.90868 9.3942C5.913 9.38129 5.91455 9.36746 5.9132 9.35378L5.88565 9.06599C5.88447 9.05424 5.87884 9.04543 5.86877 9.03956C5.86284 9.03564 5.85573 9.03238 5.84744 9.02977C5.85573 9.03108 5.86344 9.03173 5.87054 9.03173C5.89069 9.03042 5.90194 9.019 5.90431 8.99747L5.94163 8.67737Z" fill="#BCADC0"/>
<path d="M7.20775 9.03369C7.15266 8.87184 7.08897 8.88326 7.0167 9.06795C7.00012 9.10972 6.97138 9.1257 6.93051 9.11592C6.83869 9.09373 6.74835 9.10711 6.65949 9.15605C6.64017 9.16688 6.61812 9.17025 6.59685 9.16564C6.57559 9.16102 6.55634 9.14869 6.5422 9.1306C6.50369 9.081 6.46163 9.05588 6.41602 9.05522L6.56619 9.02977C6.59462 9.02455 6.6201 9.01183 6.64261 8.9916C6.67637 8.96092 6.71606 8.94852 6.76168 8.9544C6.78952 8.95766 6.8144 8.95016 6.83632 8.93188L6.98471 8.80854C7.00249 8.79419 7.01907 8.79516 7.03447 8.81148C7.06765 8.84672 7.10349 8.85064 7.14199 8.82323C7.17872 8.79647 7.19797 8.80724 7.19975 8.85553L7.20775 9.03369Z" fill="#55BCB3"/>
<path d="M4.96017 8.86627C4.9815 8.88585 5.00757 8.88976 5.03837 8.87802L4.77357 10.0605L4.84643 10.5568C4.85058 10.5895 4.86539 10.6143 4.89086 10.6312C4.96017 10.6776 4.99986 10.7484 5.00994 10.8436C5.01112 10.8521 5.00845 10.8577 5.00194 10.8603C4.99838 10.8616 4.99453 10.8626 4.99039 10.8632C4.96254 10.8684 4.95929 10.8733 4.98061 10.8779C4.98831 10.8792 4.99868 10.8802 5.01171 10.8808L4.8411 10.9161C4.81326 10.922 4.80497 10.9389 4.81622 10.967C4.82985 11.0016 4.84999 11.0257 4.87665 11.0394L5.12456 11.4652C5.0908 11.445 5.06947 11.4577 5.06058 11.5034L4.62695 10.8701C4.73832 10.8218 4.75758 10.6867 4.68471 10.4648C4.65539 10.1124 4.72914 9.78447 4.83133 9.45459C4.88909 9.26664 4.89975 9.06107 4.96017 8.86627Z" fill="#304471"/>
<path d="M7.20553 9.03367C7.13504 9.17267 7.11282 9.27905 7.13889 9.35279C7.09446 9.42131 7.01567 9.45884 6.90252 9.46536C6.87231 9.46732 6.84536 9.47809 6.82166 9.49767C6.76124 9.54726 6.70229 9.58218 6.64483 9.60241C6.49969 9.50713 6.39691 9.39847 6.33649 9.27644C6.33175 9.14461 6.35752 9.07087 6.4138 9.05521C6.45941 9.05586 6.50147 9.08098 6.53998 9.13058C6.55412 9.14867 6.57337 9.16101 6.59463 9.16562C6.6159 9.17023 6.63795 9.16686 6.65727 9.15603C6.74613 9.10709 6.83647 9.09371 6.92829 9.1159C6.96917 9.12569 6.9979 9.1097 7.01448 9.06793C7.08676 8.88325 7.15044 8.87183 7.20553 9.03367Z" fill="#75EDD9"/>
<path d="M9.85019 9.54469C9.82353 9.56231 9.78739 9.57373 9.74178 9.57895C9.64759 9.50521 9.52704 9.46442 9.38012 9.45659L9.21484 9.14922L9.23262 8.99847C9.23676 8.96518 9.25365 8.9518 9.28327 8.95833C9.50245 9.0014 9.69261 9.03664 9.85374 9.06405C9.87333 9.06736 9.89336 9.06554 9.91219 9.05874C9.93103 9.05194 9.94814 9.04034 9.96215 9.0249L9.98792 8.99651C9.99398 8.9897 10.0017 8.98496 10.0101 8.98281C10.0185 8.98066 10.0273 8.9812 10.0356 8.98436C10.0438 8.98752 10.0511 8.99317 10.0567 9.00068C10.0622 9.0082 10.0658 9.01726 10.067 9.02685C10.0723 9.07319 10.0883 9.11267 10.115 9.1453C10.1381 9.17336 10.1434 9.20534 10.131 9.24123C10.086 9.3724 9.99236 9.47356 9.85019 9.54469Z" fill="#75EDD9"/>
<path d="M13.6141 8.97204C13.6917 8.96747 13.7418 9.01576 13.7643 9.11691C13.8259 9.38774 13.8226 9.68174 13.7545 9.9989C13.7492 10.2345 13.7089 10.41 13.6336 10.5255C13.5501 10.6528 13.4974 10.6388 13.4755 10.4835C13.4233 10.1036 13.431 9.7359 13.4986 9.38024C13.5211 9.32607 13.5344 9.27386 13.5386 9.22361C13.5788 9.16292 13.6005 9.09211 13.6034 9.01119C13.6088 9.00336 13.6123 8.99031 13.6141 8.97204Z" fill="#E93223"/>
<path d="M13.6035 9.01123C13.6005 9.09215 13.5789 9.16296 13.5385 9.22365C13.5053 9.14208 13.527 9.07127 13.6035 9.01123Z" fill="#1B1E3C"/>
<path d="M7.94135 9.2359C8.00635 9.21698 8.04868 9.15842 8.03589 9.10511C8.02311 9.05179 7.96004 9.02391 7.89504 9.04283C7.83004 9.06175 7.78771 9.12031 7.8005 9.17362C7.81328 9.22694 7.87634 9.25482 7.94135 9.2359Z" fill="#E4B787"/>
<path d="M6.33708 9.27644C6.39751 9.39848 6.50029 9.50714 6.64542 9.60242C6.44875 9.56979 6.31694 9.44057 6.25 9.21477L6.27932 9.19226C6.30065 9.1766 6.31457 9.18247 6.32109 9.20988L6.33708 9.27644Z" fill="#2D5893"/>
<path d="M10.6107 9.20209C10.6084 9.25952 10.6125 9.30977 10.6232 9.35284C10.6315 9.38416 10.6495 9.40537 10.6774 9.41646C10.8983 9.50065 11.0053 9.64292 10.9982 9.84326L10.7334 9.86088C10.7196 9.86178 10.7058 9.85915 10.6932 9.85321C10.6805 9.84726 10.6693 9.83816 10.6605 9.82662C10.5533 9.68501 10.4262 9.57374 10.2793 9.49282C10.4227 9.46802 10.5331 9.37111 10.6107 9.20209Z" fill="#85A2D2"/>
<path d="M10.1012 9.43109C10.1012 9.49505 10.161 9.5156 10.2807 9.49276C10.4276 9.57368 10.5547 9.68495 10.6619 9.82656C10.6707 9.8381 10.6819 9.8472 10.6945 9.85315C10.7072 9.8591 10.721 9.86172 10.7347 9.86083L10.9995 9.84321L11.2377 9.87257C11.2466 9.90194 11.2469 9.92413 11.2386 9.93914L11.1159 9.94697L10.7552 9.97927C10.7196 9.98273 10.6865 10.0008 10.6626 10.0299C10.6387 10.0589 10.6258 10.0968 10.6263 10.1359C10.6293 10.3108 10.6669 10.4413 10.7392 10.5275L10.4362 10.4668C10.4054 10.4609 10.3784 10.4462 10.3553 10.4227L9.85237 9.90194C9.80913 9.85756 9.79076 9.80307 9.79728 9.73846C9.8038 9.66929 9.78543 9.6161 9.74219 9.5789C9.7878 9.57368 9.82394 9.56226 9.8506 9.54464C9.94419 9.54138 10.0277 9.50353 10.1012 9.43109Z" fill="#F8DBD4"/>
<path d="M6.10829 9.47131C6.24513 9.49742 6.32363 9.59009 6.34377 9.74932C6.34791 9.7813 6.34229 9.81164 6.32688 9.84036L6.01232 10.4228C5.88437 10.5383 5.73716 10.6055 5.57069 10.6245C5.71524 10.4052 5.69924 10.2055 5.52271 10.0254C5.48539 9.98752 5.49042 9.9588 5.53782 9.93923C5.54789 9.93531 5.55796 9.93303 5.56803 9.93237C5.59409 9.93237 5.6169 9.92324 5.63645 9.90496L6.10829 9.47131Z" fill="#F8DBD4"/>
<path d="M8.73001 10.13C8.61272 10.0837 8.49335 10.0446 8.37191 10.0126C8.23922 9.97669 8.12015 9.98615 8.0147 10.041C7.74161 10.1813 7.61158 10.4084 7.62461 10.7223C7.61513 10.9487 7.65956 11.1726 7.7579 11.3938C7.75494 11.4173 7.74279 11.4255 7.72147 11.4183C7.55352 11.0228 7.5082 10.5745 7.43623 10.1496C7.42971 10.1111 7.41046 10.0834 7.37847 10.0664C7.28606 10.0175 7.1972 10.0165 7.12789 9.91665C7.09827 9.87423 7.10419 9.86672 7.14566 9.89413C7.46377 10.0987 7.65216 9.92937 7.88852 9.70031C7.9211 9.66899 7.95368 9.66899 7.98626 9.70031C8.21641 9.92154 8.70336 10.1624 8.93972 9.83442C8.95038 9.81941 8.96431 9.81028 8.98149 9.80701C8.98445 9.80636 8.98741 9.80669 8.99037 9.80799C9.00103 9.8106 9.00252 9.8168 8.99481 9.82659C8.9178 9.91991 8.82954 10.0211 8.73001 10.13Z" fill="#831E30"/>
<path d="M11.2363 9.87262L11.4167 9.89611L11.757 9.98128C11.7653 9.98323 11.7689 9.98911 11.7677 9.9989L11.7633 10.0263C11.7609 10.0426 11.7526 10.0491 11.7384 10.0459L11.2372 9.93918C11.2455 9.92417 11.2452 9.90199 11.2363 9.87262Z" fill="#BCADC0"/>
<path d="M11.1146 9.94696C11.1745 10.0683 11.2062 10.1989 11.2097 10.3385C11.2133 10.4645 11.2304 10.5588 11.2612 10.6214C11.3021 10.703 11.3531 10.7852 11.4141 10.8681L10.7503 10.5529C10.7462 10.5444 10.742 10.5359 10.7379 10.5274C10.6656 10.4413 10.628 10.3108 10.625 10.1359C10.6244 10.0968 10.6374 10.0589 10.6613 10.0299C10.6852 10.0008 10.7183 9.98272 10.7539 9.97926L11.1146 9.94696Z" fill="#85A2D2"/>
<path d="M8.72934 10.1301C8.77733 10.2658 8.78799 10.4358 8.76133 10.6401C8.38872 10.3569 8.00959 10.3843 7.62394 10.7223C7.6109 10.4084 7.74093 10.1813 8.01403 10.041C8.11947 9.98621 8.23855 9.97674 8.37124 10.0126C8.49268 10.0446 8.61205 10.0838 8.72934 10.1301Z" fill="#C25461"/>
<path d="M4.94138 10.0341C5.03853 10.0237 5.12887 10.0384 5.2124 10.0782C5.22512 10.0842 5.23623 10.0937 5.24464 10.1059C5.25304 10.1181 5.25847 10.1325 5.26038 10.1477C5.28941 10.3768 5.26838 10.5928 5.19729 10.7957L5.01158 10.8809C4.99855 10.8802 4.98818 10.8793 4.98048 10.8779C4.95915 10.8734 4.96241 10.8685 4.99025 10.8633C4.9944 10.8626 4.99825 10.8616 5.00181 10.8603C5.00832 10.8577 5.01099 10.8522 5.0098 10.8437C4.99973 10.7484 4.96004 10.6776 4.89073 10.6313C4.86526 10.6143 4.85045 10.5895 4.8463 10.5569L4.77344 10.0606L4.94138 10.0341Z" fill="#4578B2"/>
<path d="M4.94141 10.0341C5.10372 10.0087 5.24738 10.0237 5.37237 10.0791C5.40021 10.0915 5.4171 10.1137 5.42302 10.1457C5.46745 10.3806 5.42717 10.5784 5.30217 10.7389C5.26959 10.7722 5.23464 10.7911 5.19732 10.7957C5.26841 10.5927 5.28944 10.3767 5.26041 10.1477C5.2585 10.1324 5.25307 10.118 5.24466 10.1058C5.23625 10.0937 5.22515 10.0841 5.21243 10.0782C5.1289 10.0383 5.03856 10.0237 4.94141 10.0341Z" fill="#9094DD"/>
<path d="M12.365 10.2778C12.4094 10.4429 12.4465 10.6012 12.4761 10.7526C12.5057 10.9053 12.5001 10.9742 12.4592 10.9591C12.2732 11.0035 12.1115 10.996 11.974 10.9366C11.9612 10.9311 11.95 10.9216 11.9418 10.9093C11.9337 10.8971 11.9288 10.8825 11.9279 10.8673C11.927 10.8521 11.93 10.8369 11.9366 10.8236C11.9432 10.8102 11.9531 10.7992 11.9652 10.7918C12.1334 10.6873 12.2667 10.516 12.365 10.2778Z" fill="#1E315C"/>
<path d="M6.01056 10.4227C6.08046 10.3946 6.0778 10.4211 6.00256 10.502C5.98124 10.5248 5.95636 10.5398 5.92792 10.547C5.82188 10.5731 5.7271 10.6403 5.64357 10.7487C5.63487 10.7598 5.62839 10.7728 5.62455 10.7869C5.62071 10.801 5.61959 10.8159 5.62126 10.8305C5.62294 10.8451 5.62736 10.8593 5.63426 10.872C5.64117 10.8847 5.65039 10.8957 5.66135 10.9043C5.81418 11.025 5.9685 11.1419 6.1243 11.2548C6.25492 11.3497 6.37755 11.3018 6.51084 11.3683C6.60562 11.4153 6.70544 11.4411 6.81029 11.4456C6.83517 11.447 6.85502 11.4584 6.86983 11.4799C6.87516 11.4871 6.88197 11.493 6.89026 11.4975C6.895 11.5001 6.89974 11.5018 6.90448 11.5024C7.35174 11.5631 7.69947 11.6542 7.94769 11.7755C8.09223 11.846 8.25129 11.8558 8.42486 11.8049C8.44085 11.7997 8.45033 11.7879 8.45329 11.7697C8.45863 11.7364 8.47669 11.7188 8.5075 11.7168C8.60761 11.709 8.70388 11.6985 8.79629 11.6855C8.87093 11.6757 8.95979 11.6023 9.0682 11.6228C9.10315 11.6294 9.13721 11.6258 9.17039 11.6121C9.34188 11.5396 9.49383 11.6111 9.66355 11.5523C9.79921 11.5047 9.93961 11.4695 10.0847 11.4466C10.2091 11.4271 10.3016 11.3713 10.4144 11.3213C10.4565 11.3024 10.4917 11.2753 10.5202 11.2401C10.5705 11.1768 10.6374 11.1321 10.721 11.106C10.7601 11.0942 10.7835 11.0665 10.7912 11.0228C10.8042 10.9497 10.8451 10.8949 10.9138 10.8583C10.9588 10.8342 10.9683 10.7986 10.9422 10.7516C10.9339 10.7366 10.9328 10.7213 10.9387 10.7056C10.9391 10.7045 10.9393 10.7033 10.9392 10.7022C10.9392 10.701 10.9389 10.6998 10.9384 10.6988C10.9379 10.6978 10.9371 10.6969 10.9363 10.6962C10.9354 10.6955 10.9344 10.695 10.9333 10.6948C10.8409 10.6798 10.7799 10.6325 10.7503 10.5529L11.4141 10.8681L12.1169 11.1402C11.9487 11.2858 11.7799 11.4352 11.6105 11.5886C11.3782 11.7987 10.981 12.0023 10.4189 12.1994C9.71983 12.3384 9.25806 12.4161 9.03354 12.4324C8.67633 12.4585 8.14732 12.435 7.44652 12.3619C7.40802 12.358 7.36981 12.3586 7.33189 12.3639C7.2922 12.3691 7.25696 12.3603 7.22615 12.3374C7.20127 12.3191 7.17461 12.3071 7.14618 12.3012C6.67641 12.2033 6.21523 12.0261 5.76264 11.7697C5.68208 11.7083 5.59707 11.6408 5.50762 11.567C5.462 11.5292 5.38647 11.4502 5.28103 11.3301C5.1667 11.199 5.03163 11.1021 4.87583 11.0394C4.84917 11.0257 4.82903 11.0016 4.81541 10.967C4.80415 10.9389 4.81245 10.9219 4.84029 10.9161L5.0109 10.8808L5.19661 10.7957C5.23393 10.7911 5.26888 10.7722 5.30147 10.7389L5.56893 10.6244C5.73539 10.6054 5.8826 10.5382 6.01056 10.4227Z" fill="#EEECFA"/>
<path d="M13.1892 11.2206C13.1696 11.1834 13.1424 11.1498 13.1074 11.1198C13.201 11.0623 13.2591 10.983 13.2816 10.8819C13.2869 10.8584 13.3 10.8499 13.3207 10.8564C13.3361 10.8604 13.342 10.8662 13.3385 10.8741C13.313 10.9269 13.3269 10.9599 13.3802 10.9729C13.3832 10.9736 13.3861 10.9736 13.3891 10.9729C13.4033 10.9697 13.4101 10.9599 13.4095 10.9436C13.4018 10.8026 13.4424 10.7305 13.5313 10.7272C13.6355 10.6672 13.7022 10.5686 13.7312 10.4316C13.7348 10.4153 13.7434 10.4104 13.757 10.4169L13.7828 10.4287C13.7964 10.4352 13.8005 10.446 13.7952 10.461C13.6951 10.7344 13.5485 10.9674 13.3553 11.1599C13.2884 11.2265 13.233 11.2467 13.1892 11.2206Z" fill="#5390C3"/>
<path d="M8.76169 10.64C8.76465 10.903 8.72585 11.12 8.64529 11.291L8.35738 11.6747L7.95219 11.6395L7.75759 11.3938C7.65925 11.1725 7.61482 10.9487 7.6243 10.7223C8.00994 10.3842 8.38908 10.3568 8.76169 10.64Z" fill="#F2A884"/>
<path d="M10.6313 12.6428C10.3345 12.7231 10.0395 12.8047 9.74623 12.8875C9.71542 12.896 9.68788 12.8911 9.66359 12.8729C9.63338 12.85 9.63575 12.8327 9.6707 12.821L9.78355 12.7828C10.5341 12.6581 11.1656 12.4014 11.678 12.0124C11.8735 11.8636 12.1241 11.5833 12.4298 11.1715C12.4541 11.1389 12.4706 11.1011 12.4795 11.058C12.4807 11.0528 12.4833 11.0482 12.487 11.0446C12.4906 11.0411 12.4951 11.0389 12.4999 11.0383C12.5047 11.0376 12.5096 11.0386 12.5139 11.0411C12.5182 11.0436 12.5217 11.0474 12.524 11.0521C12.5382 11.0841 12.5397 11.1167 12.5284 11.15C12.4472 11.3993 12.2959 11.6173 12.0743 11.8039C11.636 12.1726 11.1549 12.4523 10.6313 12.6428Z" fill="#4578B2"/>
<path d="M4.87695 11.0395C5.03275 11.1021 5.16782 11.199 5.28215 11.3302C5.3876 11.4503 5.46313 11.5293 5.50874 11.5671C5.59819 11.6409 5.6832 11.7084 5.76377 11.7697C5.87869 11.8898 6.01879 11.988 6.18407 12.0644C7.05192 12.4664 7.94259 12.622 8.85606 12.5313C9.51125 12.4661 10.0326 12.3555 10.42 12.1995C10.9822 12.0024 11.3794 11.7988 11.6116 11.5886C11.781 11.4353 11.9498 11.2858 12.1181 11.1403C12.1358 11.1351 12.1533 11.1344 12.1705 11.1384C12.1989 11.1436 12.2152 11.1619 12.2194 11.1932L12.2336 11.2989C11.9771 11.6572 11.6933 11.9303 11.3823 12.1182C10.9037 12.4067 10.356 12.6054 9.73932 12.7144L9.17417 12.7946L8.05277 12.8201C6.95714 12.779 5.79398 12.453 5.12487 11.4653L4.87695 11.0395Z" fill="#9094DD"/>
<path d="M12.6958 11.3203C12.6141 11.475 12.5566 11.535 12.5234 11.5005C12.575 11.3621 12.6431 11.2473 12.7278 11.1559C12.7474 11.135 12.7672 11.1268 12.7873 11.1314C12.8182 11.1392 12.8235 11.1562 12.8033 11.1823L12.6958 11.3203Z" fill="#8B8B8B"/>
<path d="M13.1166 11.2499C13.1089 11.2486 13.1012 11.2473 13.0935 11.246L12.4999 11.9919C12.478 12.02 12.473 12.051 12.4848 12.0849L12.5612 12.31C12.3492 12.5587 12.0974 12.7678 11.8059 12.9375C11.7603 12.9636 11.7387 12.9486 11.7411 12.8925C11.7434 12.8416 11.7384 12.792 11.726 12.7437C11.7213 12.7256 11.7125 12.7091 11.7005 12.6957C11.6885 12.6823 11.6737 12.6724 11.6573 12.6669C11.641 12.6615 11.6236 12.6606 11.6069 12.6645C11.5902 12.6683 11.5746 12.6767 11.5616 12.6889C11.3892 12.8514 11.2032 12.975 11.0035 13.0599C10.9514 13.0827 10.8954 13.1023 10.8356 13.1186C10.7396 13.1454 10.6902 13.2217 10.6872 13.3477L10.6712 13.2468C10.6665 13.2155 10.6502 13.2038 10.6223 13.2116C10.4642 13.2566 10.3072 13.3036 10.1514 13.3526C9.99262 13.4028 9.83563 13.4348 9.68043 13.4485C9.40674 13.473 9.15438 13.5542 8.87803 13.5532C8.61145 13.5532 8.34547 13.547 8.08008 13.5346L8.35021 13.5278C8.35619 13.5278 8.36193 13.5251 8.36624 13.5204C8.37055 13.5156 8.37308 13.5092 8.37331 13.5023V13.4769C8.37331 13.4717 8.37065 13.4687 8.36532 13.4681L8.12806 13.4583C8.80754 13.4602 9.43547 13.3907 10.0119 13.2498C10.2619 13.1891 10.5418 13.0808 10.8516 12.9248C11.3172 12.7342 11.6996 12.4641 11.9988 12.1143L12.5239 11.5005C12.5571 11.5351 12.6146 11.475 12.6963 11.3204C12.8805 11.2492 13.0206 11.2258 13.1166 11.2499Z" fill="#575B84"/>
<path d="M8.64533 11.291C8.6009 11.46 8.50493 11.5879 8.35742 11.6747L8.64533 11.291Z" fill="#766971"/>
<path d="M13.0934 11.246C13.1687 11.2799 13.1995 11.3122 13.1858 11.3429C13.0277 11.6933 12.8195 12.0157 12.5612 12.31L12.4848 12.0849C12.4729 12.051 12.4779 12.02 12.4999 11.9919L13.0934 11.246Z" fill="#85A2D2"/>
<path d="M7.75713 11.3939L7.95174 11.6396C7.85755 11.6206 7.78053 11.5469 7.7207 11.4183C7.74203 11.4255 7.75417 11.4174 7.75713 11.3939Z" fill="#E4B787"/>
<path d="M5.1254 11.4653C5.79451 12.453 6.95767 12.779 8.0533 12.8201C7.90876 12.8932 7.73963 12.9137 7.54592 12.8818C7.04297 12.7976 6.55366 12.6488 6.07797 12.4354C5.82561 12.3218 5.56377 12.1199 5.29245 11.8295C5.28792 11.8246 5.28228 11.8211 5.27613 11.8195C5.26998 11.8178 5.26353 11.818 5.25746 11.82C5.25139 11.822 5.24591 11.8257 5.24159 11.8308C5.23728 11.8359 5.23428 11.8422 5.23292 11.849L5.2267 11.8833C5.22297 11.9026 5.22398 11.9225 5.22962 11.941C5.23525 11.9594 5.2453 11.9757 5.25869 11.988C5.46958 12.1858 5.62419 12.3111 5.72253 12.3639C6.36291 12.7072 7.0486 12.9281 7.77962 13.0266L7.13183 13.1568C6.98433 13.1673 6.83801 13.1454 6.69287 13.0913C6.13128 12.8808 5.64167 12.6556 5.23558 12.1065C5.03121 11.9727 4.97315 11.7717 5.06142 11.5035C5.0703 11.4578 5.09163 11.4451 5.1254 11.4653Z" fill="#1B1E3C"/>
<path d="M5.76367 11.7697C6.21626 12.0262 6.67744 12.2034 7.14721 12.3013C7.17564 12.3071 7.2023 12.3192 7.22718 12.3375C7.25798 12.3603 7.29323 12.3691 7.33292 12.3639C7.37083 12.3587 7.40904 12.358 7.44755 12.3619C8.14835 12.435 8.67736 12.4585 9.03457 12.4324C9.25909 12.4161 9.72086 12.3385 10.4199 12.1994C10.0325 12.3554 9.51115 12.466 8.85596 12.5313C7.94249 12.622 7.05183 12.4664 6.18397 12.0644C6.0187 11.988 5.8786 11.8898 5.76367 11.7697Z" fill="#C9CBF4"/>
<path d="M8.05146 12.82L9.17286 12.7946C9.09348 12.8161 9.01321 12.8239 8.93206 12.8181C8.92258 12.8174 8.91695 12.8223 8.91517 12.8327V12.8337C8.91399 12.8429 8.91754 12.8484 8.92584 12.8504C9.03839 12.8784 9.16161 12.8853 9.29549 12.8709C9.31622 12.869 9.3337 12.8765 9.34792 12.8934C9.3568 12.9045 9.35947 12.9169 9.35591 12.9306C9.35413 12.9395 9.34984 12.9476 9.34363 12.9537C9.33743 12.9598 9.32961 12.9637 9.32126 12.9649C8.79818 13.0347 8.28368 13.0553 7.77778 13.0266C7.04677 12.928 6.36107 12.7071 5.72069 12.3639C5.62236 12.311 5.46774 12.1857 5.25685 11.988C5.24347 11.9756 5.23342 11.9593 5.22778 11.9409C5.22215 11.9224 5.22114 11.9025 5.22486 11.8832L5.23108 11.849C5.23245 11.8421 5.23544 11.8358 5.23976 11.8307C5.24407 11.8256 5.24955 11.8219 5.25562 11.8199C5.26169 11.8179 5.26814 11.8177 5.27429 11.8194C5.28045 11.821 5.28608 11.8245 5.29062 11.8294C5.56193 12.1198 5.82377 12.3218 6.07613 12.4353C6.55182 12.6487 7.04114 12.7975 7.54408 12.8817C7.73779 12.9137 7.90692 12.8931 8.05146 12.82Z" fill="#575B84"/>
<path d="M5.23555 12.1064C5.64164 12.6555 6.13125 12.8807 6.69284 13.0912C6.83798 13.1453 6.9843 13.1672 7.13181 13.1567C7.3036 13.2461 7.53819 13.2719 7.83557 13.2341C8.07963 13.2034 8.5106 13.2119 9.12847 13.2595C9.38527 13.2801 9.64207 13.1949 9.90154 13.1577C10.1498 13.1225 10.3752 13.0536 10.5778 12.9512L10.7955 12.8787C10.8192 12.8833 10.8381 12.8986 10.8523 12.9247C10.5425 13.0807 10.2626 13.189 10.0126 13.2497C9.43622 13.3907 8.80828 13.4602 8.1288 13.4582C7.54056 13.4093 7.15402 13.3574 6.96919 13.3026C6.41294 13.1375 5.8866 12.8888 5.39017 12.5567C5.33093 12.4281 5.23941 12.3704 5.1156 12.3834C5.12033 12.3684 5.11826 12.3492 5.10938 12.3257C5.12774 12.3224 5.15292 12.3051 5.18491 12.2738C5.22223 12.2907 5.22015 12.2594 5.17868 12.1798L5.21778 12.1671C5.232 12.1625 5.2397 12.1521 5.24089 12.1358C5.24148 12.126 5.2397 12.1162 5.23555 12.1064Z" fill="#D4CAC8"/>
<path d="M11.999 12.1143C11.6998 12.464 11.3174 12.7342 10.8518 12.9248C10.8376 12.8987 10.8186 12.8833 10.7949 12.8788C11.2161 12.6804 11.6175 12.4255 11.999 12.1143Z" fill="#BCADC0"/>
<path d="M10.6319 12.6429C10.6414 12.7088 10.623 12.8116 10.5768 12.9512C10.3742 13.0537 10.1488 13.1225 9.90059 13.1578C9.64113 13.195 9.38432 13.2801 9.12752 13.2596C8.50965 13.2119 8.07869 13.2035 7.83462 13.2341C7.53724 13.272 7.30265 13.2462 7.13086 13.1568L7.77864 13.0266C8.28455 13.0553 8.79904 13.0348 9.32212 12.9649C9.33048 12.9638 9.33829 12.9599 9.3445 12.9537C9.3507 12.9476 9.35499 12.9396 9.35678 12.9307C9.36033 12.917 9.35767 12.9046 9.34878 12.8935C9.33456 12.8765 9.31709 12.869 9.29635 12.871C9.16247 12.8853 9.03925 12.8785 8.9267 12.8504C8.91841 12.8485 8.91485 12.8429 8.91604 12.8338V12.8328C8.91781 12.8223 8.92344 12.8175 8.93292 12.8181C9.01408 12.824 9.09435 12.8161 9.17373 12.7946L9.73887 12.7143C9.72998 12.7672 9.74509 12.79 9.78419 12.7829L9.67134 12.821C9.63639 12.8328 9.63402 12.8501 9.66423 12.8729C9.68852 12.8912 9.71606 12.8961 9.74687 12.8876C10.0401 12.8047 10.3351 12.7232 10.6319 12.6429Z" fill="#3E3D51"/>
<path d="M11.3054 13.3105C11.3096 13.2798 11.2924 13.2638 11.2539 13.2625C11.3896 13.2051 11.5072 13.1183 11.6067 13.0021C11.6179 12.9891 11.6274 12.9904 11.6351 13.006L11.6484 13.0325C11.649 13.0344 11.649 13.0361 11.6484 13.0374C11.5578 13.1646 11.4435 13.2557 11.3054 13.3105Z" fill="#8B8B8B"/>
<path d="M8.07976 13.5347C8.34516 13.5471 8.61114 13.5533 8.87772 13.5533C9.15407 13.5542 9.40643 13.473 9.68011 13.4485C9.83532 13.4348 9.99231 13.4028 10.1511 13.3526C10.3069 13.3036 10.4639 13.2567 10.622 13.2116C10.6499 13.2038 10.6662 13.2155 10.6709 13.2469L10.6869 13.3477C10.6596 13.4227 10.686 13.4632 10.766 13.4691C10.7771 13.4697 10.7883 13.4677 10.7988 13.4632L11.2538 13.2625C11.2923 13.2638 11.3095 13.2798 11.3053 13.3105C11.0465 13.4482 10.8667 13.5321 10.766 13.5621C9.61614 13.9047 8.36856 14.0241 7.1894 13.8039C6.90238 13.751 6.61537 13.6257 6.32835 13.5259C6.31591 13.4952 6.32835 13.4671 6.36567 13.4417C6.38937 13.4156 6.36775 13.3317 6.30081 13.1901C6.29666 13.181 6.29903 13.178 6.30792 13.1813C6.87898 13.396 7.4696 13.5138 8.07976 13.5347Z" fill="#9094DD"/>
</svg>
