<!-- by TradingView --><svg xmlns="http://www.w3.org/2000/svg" width="18" height="18"><path fill="url(#asdnfzeql)" d="M0 0h18v18H0z"/><path d="M12.11 4.64l-1.5 2.54L9 4.5 7.4 7.2 5.9 4.63 4 7.88l3.33 5.59 1.65-2.76 1.63 2.79L14 7.83l-1.89-3.19zm-4.8 7.72L4.6 7.88l1.3-2.25 2.73 4.67-1.31 2.06zm.45-4.77L9 5.49l1.3 2.1L9 9.67 7.76 7.6zm1.6 2.71l2.75-4.67 1.3 2.2-2.8 4.55-1.25-2.08z" fill="url(#bsdnfzeql)"/><defs><linearGradient id="asdnfzeql" x1="3.35" y1="3.12" x2="21.9" y2="24.43" gradientUnits="userSpaceOnUse"><stop stop-color="#1A1E21"/><stop offset="1" stop-color="#06060A"/></linearGradient><linearGradient id="bsdnfzeql" x1="4.29" y1="6.42" x2="13.91" y2="10.28" gradientUnits="userSpaceOnUse"><stop stop-color="#9C83C5"/><stop offset=".32" stop-color="#7396F8"/><stop offset=".53" stop-color="#8DBCEC"/><stop offset="1" stop-color="#C98FEE"/></linearGradient></defs></svg>