<!-- by TradingView --><svg width="18" height="18" viewBox="0 0 18 18" xmlns="http://www.w3.org/2000/svg"><path fill="#F0F3FA" d="M0 0h18v18H0z"/><path d="M9 14a5 5 0 0 0 4.84-3.75h-6.4l-.47 1.25h4.83a3.74 3.74 0 0 1-6.34-1.25h-1.3A5 5 0 0 0 9 14Z" fill="#423C7C"/><path d="M4.04 9.63A5 5 0 0 1 9 4a5.3 5.3 0 0 1 4 2h-1.83c-.6-.4-1.4-.75-2.17-.75a3.75 3.75 0 0 0-3.7 3.13h4.95l-.31 1.24h-5.9Z" fill="#F72883"/><path d="M14 9c0 .21-.01.42-.04.63H12.7a3.78 3.78 0 0 0-.16-1.88H8.06l.31-1.25h4.96c.43.74.67 1.59.67 2.5Z" fill="#FBAB52"/></svg>