<!-- by TradingView --><svg width="18" height="18" fill="none" xmlns="http://www.w3.org/2000/svg"><path fill="url(#paint0_linear_1530)" d="M0 0h18v18H0z"/><path fill-rule="evenodd" clip-rule="evenodd" d="M10.786 7.969L12 7.28 9 5.657 6 7.281v3.438l3 1.627 3-1.627-1.333-.688-1.662.8-.005.002-1.664-.915-.003-.001L9 9l-1.667-.917.004-.002L9 7.167l.008.004 1.778.798zM9 3.5l5 2.75v5.5L9 14.5l-5-2.75v-5.5l.006-.003L9 3.5z" fill="#fff"/><defs><linearGradient id="paint0_linear_1530" x1="3.349" y1="3.122" x2="21.904" y2="24.434" gradientUnits="userSpaceOnUse"><stop stop-color="#1A1E21"/><stop offset="1" stop-color="#06060A"/></linearGradient></defs></svg>