<!-- by TradingView --><svg width="18" height="18" viewBox="0 0 18 18" xmlns="http://www.w3.org/2000/svg"><path fill="url(#ajrehjp4m)" d="M0 0h18v18H0z"/><path d="m5.37 11 .63-.76-1-.74v-3l2.5-1.3L10 6.5v3l-1 .74.5.76 1.5-1V6L7.5 4 4 6v4l1.37 1Z" fill="#FBFBFB"/><path d="m8.5 7 .5.76-1 .61v3.13l2.5 1.5 2.5-1.5V8.37l-1-.6.5-.77L14 8v3.87L10.5 14 7 11.87V8l1.5-1Z" fill="#FBFBFB"/><defs><linearGradient id="ajrehjp4m" x1="3.35" y1="3.12" x2="21.9" y2="24.43" gradientUnits="userSpaceOnUse"><stop stop-color="#1A1E21"/><stop offset="1" stop-color="#06060A"/></linearGradient></defs></svg>