<!-- by TradingView --><svg width="18" height="18" xmlns="http://www.w3.org/2000/svg"><path fill="#313B59" d="M0 0h18v18H0z"/><path d="M11.988 4H5.963L3 8.992 5.963 14h6.025L15 8.992 11.988 4z" fill="#fff"/><path d="M10.86 4.714H6.543l.82 1.184 3.497-1.184zM4.238 8.285L6.3 4.93l.692 1.17-2.755 2.185zM12.413 8.78l-.847-3.878-4.051 1.181 4.898 2.697zM6.99 6.366L3.86 9.053l3.13 2.601V6.367zM7.312 6.304v5.473l5.128-2.736-5.128-2.737zM14.121 8.885l-2.125-3.428.777 3.428h1.348zM14.143 9.217l-2.172 3.49.728-3.49h1.444zM12.323 9.414l-4.768 2.623 3.98 1.248.788-3.871zM6.276 13.163L4.28 9.839l2.656 2.178-.66 1.146zM10.68 13.285H6.57l.606-1.085 3.502 1.085z" fill="#313B59"/><ellipse cx="7.25" cy="6.095" rx=".98" ry=".933" fill="#fff"/><ellipse cx="7.169" cy="12.048" rx="1.06" ry="1.01" fill="#fff"/><ellipse cx="12.569" cy="9.052" rx="1.18" ry="1.124" fill="#fff"/><ellipse cx="7.25" cy="6.095" rx=".691" ry=".658" fill="#313B59"/><ellipse cx="7.17" cy="12.048" rx=".747" ry=".712" fill="#313B59"/><ellipse cx="12.569" cy="9.051" rx=".832" ry=".792" fill="#313B59"/></svg>