<!-- by TradingView --><svg xmlns="http://www.w3.org/2000/svg" width="18" height="18"><path fill="#10367F" d="M0 0h18v18H0z"/><path d="M9.1 11.59l-1.16-4.1.97-.93 1.3 4.4-1.11.63z" fill="#C4C4C4"/><path d="M7.7 9.29c-.36.19-.77.3-1.2.3-1.38 0-2.5-1.1-2.5-2.46a2.48 2.48 0 012.5-2.45c1.38 0 2.5 1.1 2.5 2.45 0 .65-.26 1.24-.68 1.68l-.58-1.94a1.27 1.27 0 00-1.24-.99c-.7 0-1.27.56-1.27 1.25 0 .7.57 1.25 1.27 1.25.23 0 .45-.06.64-.17L7.7 9.3z" fill="url(#anhxg2nsp)"/><path d="M10.3 8.72c.36-.2.77-.3 1.2-.3 1.38 0 2.5 1.1 2.5 2.45a2.48 2.48 0 01-2.5 2.46c-1.38 0-2.5-1.1-2.5-2.46 0-.65.26-1.24.68-1.68l.58 1.95c.12.56.63.98 1.24.98.7 0 1.27-.56 1.27-1.25s-.57-1.25-1.27-1.25c-.23 0-.45.06-.64.17l-.56-1.07z" fill="url(#bnhxg2nsp)"/><path d="M7.52 7.88c.18-.17.42-.4.82-.72.31-.25.63-.56.95-.87 1.22-1.19 2.56-2.49 4.38-1.35-.26-.03-1 .09-1.82.8l-3.57 3.1c-.17.16-.58.5-.9.58-.33.1-.6-.67-.7-1.06.42-.07.54-.19.84-.48zm2.96 2.24c-.18.17-.42.4-.82.72-.32.25-.63.56-.96.87-1.22 1.19-2.56 2.49-4.38 1.35.27.03 1-.09 1.83-.8l3.57-3.1c.17-.16.58-.5.9-.58.32-.1.6.67.7 1.06-.43.07-.55.19-.84.48z" fill="#FEFEFC"/><defs><linearGradient id="anhxg2nsp" x1="7.72" y1="6.58" x2="5.92" y2="7.37" gradientUnits="userSpaceOnUse"><stop stop-color="#C4C4C4"/><stop offset=".59" stop-color="#FEFEFC"/></linearGradient><linearGradient id="bnhxg2nsp" x1="9.98" y1="11.83" x2="12.49" y2="10.97" gradientUnits="userSpaceOnUse"><stop offset=".2" stop-color="#C4C4C4"/><stop offset=".5" stop-color="#FEFEFC"/></linearGradient></defs></svg>