<!-- by TradingView --><svg width="18" height="18" viewBox="0 0 18 18" xmlns="http://www.w3.org/2000/svg"><path fill="#F0F3FA" d="M0 0h18v18H0z"/><circle cx="9" cy="9" r="6" fill="#1D9830"/><path d="m6.56 14.47.5-2h3.24l.76 2.15c-.38.13-1.14.38-2.06.38-.92 0-2.06-.34-2.44-.53Z" fill="#43C422"/><path fill-rule="evenodd" d="M6.78 14.33a6.71 6.71 0 0 0 2.22.48c.76 0 1.41-.18 1.82-.3l-.65-1.85H7.21l-.43 1.67Zm.28-1.86-.5 2.04a5.99 5.99 0 0 0 4.5.12l-.76-2.16H7.06Z" fill="#040000"/><path d="M7.5 13.2a.1.1 0 0 1 .14-.03c.22.14.65.64.8 1.56a.1.1 0 0 1-.08.11.1.1 0 0 1-.1-.08c-.15-.88-.56-1.32-.73-1.43a.1.1 0 0 1-.02-.13ZM9.75 13.24a.1.1 0 0 0-.13-.02c-.22.14-.65.64-.8 1.56-.02.05.02.1.07.1a.1.1 0 0 0 .11-.07c.15-.88.56-1.33.72-1.44a.1.1 0 0 0 .03-.13ZM7.42 14.04a.1.1 0 0 1 .13.03l.38.56a.1.1 0 0 1-.03.13.1.1 0 0 1-.13-.03l-.38-.56a.1.1 0 0 1 .03-.13ZM9.83 14.15a.1.1 0 0 0-.13.03l-.38.56a.1.1 0 0 0 .03.13c.04.03.1.02.13-.02l.38-.57a.1.1 0 0 0-.03-.13Z" fill="#040000"/><path d="M10.16 3.4c-.83-.18-1.6 1.02-1.87 1.75l2.5.66c.14-.73.2-2.24-.63-2.42Z" fill="#FCC729"/><path d="M10.4 5.71c.11-.75.14-2.1-.61-2.3a.83.83 0 0 1 .37-.01c.84.18.77 1.68.63 2.42l-.4-.1Z" fill="#CCA020"/><path d="m8.43 5.18 2.3.6c.06-.35.1-.85.03-1.28-.06-.49-.25-.85-.6-.92-.36-.08-.73.14-1.06.5-.29.33-.53.76-.67 1.1Zm.53-1.22c.34-.37.77-.66 1.24-.57.48.1.68.59.75 1.08.07.5.02 1.08-.05 1.45l-.02.1-2.7-.71.04-.1c.14-.37.4-.87.74-1.25Z" fill="#040000"/><ellipse cx="9" cy="9" rx="4.88" ry="4.13" fill="#95D933"/><path d="M13.86 8.63c-.23 2.1-2.32 3.74-4.86 3.74-2.54 0-4.63-1.64-4.86-3.74L4.13 9c0 2.28 2.18 4.13 4.87 4.13 2.7 0 4.88-1.85 4.88-4.13l-.02-.38Z" fill="#1E9634"/><path fill-rule="evenodd" d="M9 12.94c2.62 0 4.69-1.8 4.69-3.94 0-2.15-2.07-3.94-4.69-3.94-2.62 0-4.69 1.8-4.69 3.94 0 2.15 2.07 3.94 4.69 3.94Zm0 .19c2.7 0 4.88-1.85 4.88-4.13S11.69 4.87 9 4.87C6.3 4.88 4.12 6.72 4.12 9S6.31 13.13 9 13.13Z" fill="#040000"/><path d="M13.01 6.62c.32.89-.05 1.83-.82 2.11-.77.28-1.64-.22-1.95-1.1-.32-.9.05-1.84.82-2.12.77-.28 1.64.22 1.95 1.1Z" fill="#fff"/><path fill-rule="evenodd" d="M12.13 8.55c.64-.23 1-1.05.7-1.87-.28-.82-1.06-1.23-1.7-1-.65.24-1 1.06-.72 1.88.29.82 1.07 1.23 1.72 1Zm.06.18c.77-.28 1.14-1.22.82-2.11-.3-.9-1.18-1.39-1.95-1.11-.77.28-1.14 1.22-.82 2.11.3.9 1.18 1.39 1.95 1.11Z" fill="#040000"/><path d="M12.16 6.69c-.34-.6-.97-.95-1.57-.87a1.73 1.73 0 0 0-.35 1.81c.28.8 1 1.27 1.71 1.18.43-.42.6-1.12.36-1.79l-.12.06c-.28.13-.55.16-.6.07-.03-.1.16-.28.44-.4l.13-.06Z" fill="#040000"/><path d="M9.77 6.26a.2.2 0 0 1 .1-.27l2.2-1.1a.2.2 0 0 1 .28.1.2.2 0 0 1-.09.27l-2.21 1.1a.2.2 0 0 1-.28-.1Z" fill="#040000"/><path d="M5.36 6.24c-.31.9.06 1.84.83 2.12.76.27 1.64-.22 1.95-1.11.31-.9-.06-1.84-.83-2.12-.76-.27-1.64.22-1.95 1.11Z" fill="#fff"/><path fill-rule="evenodd" d="M6.25 8.18c-.65-.23-1-1.06-.71-1.87.28-.82 1.07-1.23 1.71-1 .65.23 1 1.06.71 1.87-.28.82-1.07 1.23-1.71 1Zm-.06.18c-.77-.28-1.14-1.23-.83-2.12.31-.89 1.19-1.38 1.95-1.1.77.27 1.14 1.22.83 2.1-.31.9-1.19 1.4-1.95 1.12Z" fill="#040000"/><path d="M6.21 6.31c.35-.6.97-.95 1.58-.87.43.43.59 1.14.35 1.82-.28.79-1.01 1.27-1.72 1.18a1.73 1.73 0 0 1-.36-1.8l.13.07c.28.13.54.16.59.06.04-.09-.15-.27-.44-.4a1.65 1.65 0 0 0-.13-.06Z" fill="#040000"/><path d="M8.6 5.89a.2.2 0 0 0-.09-.28L6.3 4.52a.2.2 0 0 0-.28.1.2.2 0 0 0 .1.27l2.2 1.09c.1.05.23 0 .28-.1Z" fill="#040000"/><circle cx="8.81" cy="7.69" r=".19" fill="#040000"/><circle cx="9.56" cy="7.69" r=".19" fill="#040000"/><path d="M8.81 8.63c-1.2 0-2.25.55-3.56.37a5.3 5.3 0 0 0 3.38 1.48c1.8.14 3.24-.44 3.74-.74-.74 0-2.06-1.12-3.56-1.12Z" fill="#C23635"/><path d="M6.38 9.38C6.08 9.38 6 9.12 6 9c.75-.13 2.4-.38 3-.38a3 3 0 0 1 .75.15c.7.2 1.58.57 2.06.8-.06.12-.26.37-.56.37-.3 0-.38-.5-.38-.75-.12.12-.44.37-.74.37s-.38-.48-.38-.79c-.06.25-.3.6-.75.6a.75.75 0 0 1-.75-.56c0 .13-.11.41-.56.56-.45.16-.82-.18-.94-.37 0 .19-.08.38-.38.38Z" fill="#fff"/><path fill-rule="evenodd" d="m6.67 8.88-.21.04L6 9c0 .13.08.38.38.38.23 0 .33-.12.36-.27L6.75 9l.07.09c.16.19.48.41.87.29.32-.11.47-.3.53-.43l.03-.14.05.14c.1.21.33.43.7.43.35 0 .57-.22.68-.43a.84.84 0 0 0 .07-.18 1.96 1.96 0 0 0 0 .2c.04.28.13.6.38.6s.52-.18.67-.32a1.32 1.32 0 0 0 .07-.06 1.17 1.17 0 0 0 0 .1c.03.26.12.65.38.65.25 0 .44-.18.52-.31a.6.6 0 0 0 .04-.07l-.07-.03-.23-.1a25.87 25.87 0 0 0-.67-.31c-.6-.26-1.26-.5-1.84-.5a13.07 13.07 0 0 0-2.33.26Zm0 .08a116.42 116.42 0 0 0-.59.1c.01.04.03.09.06.13.04.06.1.11.24.11.13 0 .2-.04.24-.09A.33.33 0 0 0 6.67 9v-.04Zm.13-.03c.65-.11 1.42-.23 2.2-.23.21 0 .44.03.67.09A.7.7 0 0 1 9 9.3c-.4 0-.7-.34-.75-.57v.08c0 .09-.16.35-.59.5a.65.65 0 0 1-.53-.06.96.96 0 0 1-.32-.3l-.01-.02Zm3.03-.1a6.6 6.6 0 0 1 .95.34c-.06.06-.15.13-.25.19a.84.84 0 0 1-.4.13c-.1 0-.18-.08-.23-.23a1.49 1.49 0 0 1-.07-.43Zm1.12.42.53.24.22.1a.72.72 0 0 1-.13.15.5.5 0 0 1-.32.12c-.1 0-.18-.08-.23-.23a1.37 1.37 0 0 1-.07-.38Z" fill="#040000"/><path d="m4.78 8.74.5.07a5.08 5.08 0 0 0 2.01-.17c.49-.1 1-.2 1.52-.2.8 0 1.53.3 2.14.57a32.79 32.79 0 0 1 .83.38c.25.1.45.16.6.16h.66l-.57.35a6.9 6.9 0 0 1-3.86.76 5.48 5.48 0 0 1-3.5-1.54l-.33-.38Zm.76.28L5.25 9l.21.2a5.54 5.54 0 0 0 3.17 1.28 7.02 7.02 0 0 0 3.75-.74c-.1 0-.2-.02-.3-.05-.26-.07-.56-.21-.9-.37a5.7 5.7 0 0 0-2.37-.7c-.5 0-.99.1-1.48.2-.57.13-1.15.25-1.79.2Z" fill="#040000"/></svg>