<!-- by TradingView --><svg width="18" height="18" viewBox="0 0 18 18" xmlns="http://www.w3.org/2000/svg"><path fill="#F0F3FA" d="M0 0h18v18H0z"/><path d="M4.2 9.71c-.45-.52-.08-1.38.56-1.32l8.6.84c.56.06.84.8.48 1.3l-1.62 2.19-.18-.17.18.17a.67.67 0 0 1-.54.28H7.22a.66.66 0 0 1-.51-.25L4.19 9.71Zm.52-.8c-.21-.02-.34.27-.19.44l2.52 3.04c.04.05.1.08.17.08h4.46c.07 0 .14-.03.18-.09l1.62-2.2c.12-.16.03-.4-.16-.42l-8.6-.85Z" fill="url(#ahgwfvbbt)"/><path d="M5.8 5.77a.99.99 0 0 1 1.22-.73l5.32 1.47c.32.1.55.4.55.74v.06c0 .46-.38.81-.82.76l-5.52-.6c-.6-.07-1-.67-.85-1.27l.1-.43Zm1.09-.24a.5.5 0 0 0-.61.37l-.1.43c-.08.3.12.6.42.63l5.52.6c.15.02.28-.1.28-.25v-.06a.25.25 0 0 0-.19-.24L6.9 5.53Z" fill="url(#bhgwfvbbt)"/><defs><linearGradient id="ahgwfvbbt" x1="3.99" y1="9.58" x2="13.13" y2="11.03" gradientUnits="userSpaceOnUse"><stop stop-color="#45C1CB"/><stop offset=".82" stop-color="#A274BF"/><stop offset="1" stop-color="#6A66B2"/></linearGradient><linearGradient id="bhgwfvbbt" x1="5.48" y1="6.1" x2="12.91" y2="7.54" gradientUnits="userSpaceOnUse"><stop stop-color="#45C1CB"/><stop offset=".72" stop-color="#A991CB"/><stop offset="1" stop-color="#6A66B2"/></linearGradient></defs></svg>