<!-- by TradingView --><svg width="18" height="18" viewBox="0 0 18 18" xmlns="http://www.w3.org/2000/svg"><path fill="#041A32" d="M0 0h18v18H0z"/><path d="m12.1 5-1.02 1.97a.79.79 0 0 1-.06.03H6.99a.1.1 0 0 0-.06.02.12.12 0 0 0-.04.04L5.9 9l-.67-1.29a2.1 2.1 0 0 1-.2-.5c-.06-.33.02-.57.17-.85l.4-.77c.09-.19.18-.32.27-.4A.7.7 0 0 1 6.33 5h5.78Z" fill="url(#agqey51js)"/><path d="M12.08 5.02h.03l.01.02.75 1.44c.12.23.16.47.11.71-.02.12-.09.3-.2.52L12.1 9v.02l-1 1.93a.1.1 0 0 1-.05.05.1.1 0 0 1-.05.01H9.03L9 10.97l2.07-4a8210.43 8210.43 0 0 0 1-1.96Z" fill="url(#bgqey51js)"/><path d="m9 7-2.07 4-1.02 1.97c-.01.01-.03 0-.05-.04l-.64-1.24c-.12-.23-.19-.4-.2-.5-.03-.15-.02-.3.01-.44.02-.1.08-.23.17-.4L5.9 9l1-1.94a.12.12 0 0 1 .03-.04A.1.1 0 0 1 7 7H9Z" fill="url(#cgqey51js)"/><path d="m12.11 9 .66 1.28c.12.23.19.38.2.47.04.2.04.38-.01.55-.03.1-.08.23-.16.37l-.45.87a.8.8 0 0 1-.44.41 1.9 1.9 0 0 1-.55.05H6a.23.23 0 0 1-.1-.03L6.94 11h4.08a.1.1 0 0 0 .05-.01.1.1 0 0 0 .04-.05l1.01-1.93Z" fill="url(#dgqey51js)"/><defs><linearGradient id="agqey51js" x1="5" y1="7" x2="11.32" y2="6.38" gradientUnits="userSpaceOnUse"><stop stop-color="#0FE4FD"/><stop offset="1" stop-color="#284AFF"/></linearGradient><linearGradient id="bgqey51js" x1="12.05" y1="5.28" x2="9.63" y2="10.83" gradientUnits="userSpaceOnUse"><stop stop-color="#F88C39"/><stop offset="1" stop-color="#EB592A"/></linearGradient><linearGradient id="cgqey51js" x1="7.97" y1="7" x2="5.54" y2="12.47" gradientUnits="userSpaceOnUse"><stop stop-color="#F6682A"/><stop offset="1" stop-color="#F78B2F"/></linearGradient><linearGradient id="dgqey51js" x1="12.71" y1="10.17" x2="6.2" y2="12.24" gradientUnits="userSpaceOnUse"><stop stop-color="#0FE4FD"/><stop offset="1" stop-color="#284AFF"/></linearGradient></defs></svg>